<svg width="117" height="64" viewBox="0 0 117 64" fill="none" xmlns="http://www.w3.org/2000/svg">
<g clip-path="url(#clip0_4516_85584)">
<path d="M28.731 55.4148H25.6787V63.9365H28.731V55.4148Z" fill="#0091FF"/>
<path d="M53.9077 55.4148H50.8555V63.9365H53.9077V55.4148Z" fill="#0091FF"/>
<path d="M70.1978 55.4148H67.1455V63.9365H70.1978V55.4148Z" fill="#0091FF"/>
<path d="M36.4169 59.2551L33.7758 55.272L31.625 55.2244V63.873H34.1712V60.3342L36.7174 64H39.2635V55.3196H36.4169V59.2551Z" fill="#0091FF"/>
<path d="M61.5468 59.2551L58.9057 55.272L56.7549 55.2244V63.873H59.3011V60.3342L61.8472 64H64.3934V55.3196H61.5468V59.2551Z" fill="#0091FF"/>
<path d="M41.7939 63.7937H44.6564V60.5246H46.6807V59.0012H44.5774V57.7158H48.1989V55.272L41.7939 55.3037V63.7937Z" fill="#0091FF"/>
<path d="M72.9805 58.4457H75.4159V63.9365H78.4682V58.4457H80.9037V55.3195H72.9963C73.1228 55.1926 72.9963 58.4457 72.9963 58.4457H72.9805Z" fill="#0091FF"/>
<path d="M88.1472 55.3831L87.1192 57.7952L85.0475 55.3831H81.7422L85.9173 60.3183L84.2884 63.8571H87.6253L91.6106 55.3831H88.1472Z" fill="#0091FF"/>
<path d="M18.4198 5.76048C18.0402 6.17307 17.7239 6.58567 17.4551 6.96653L14.6717 2.22167L12.5525 2.93578L10.4491 8.93429L7.52338 8.45822L6.76427 11.0449L6.22656 10.4577L6.5903 6.5698L9.62674 7.39499L11.3822 1.98364L15.1303 0.349121C15.1303 0.349121 15.3675 0.809325 18.4198 5.76048Z" fill="#B42539"/>
<path d="M21.6938 36.5465C21.6938 36.5465 18.7997 39.6727 17.1075 41.0692L15.7158 39.8473L21.6938 36.5465Z" fill="#B42539"/>
<path d="M31.7835 21.7248L29.0792 49.9559L22.4054 50.1939L22.0416 45.3697L17.1074 41.0692C18.7996 39.6727 21.6937 36.5465 21.6937 36.5465L21.4565 29.3737L20.0648 29.2626L9.16838 52.7647L0.264648 48.3055L1.64054 45.3062L15.0199 19.9792L13.4858 18.5192H13.47L6.76453 11.0449L7.52364 8.45823L10.4494 8.9343L12.5527 2.93579L14.6719 2.22168L17.4553 6.96653C14.925 10.6006 16.5539 13.1079 18.3568 14.552C19.6378 15.5834 20.9979 16.0913 20.9979 16.0913L21.5514 16.2499L31.7835 21.7248Z" fill="url(#paint0_linear_4516_85584)"/>
<path d="M48.1518 28.1834L40.7979 23.264L33.6338 26.9933L40.5607 20.5663L48.1518 28.1834Z" fill="#B42539"/>
<path d="M64.2356 26.057L58.3683 23.026L48.7529 28.7865L58.7163 19.9791L64.2356 26.057Z" fill="#B42539"/>
<path d="M69.4704 46.909L61.0569 52.7647L50.0498 43.2432L39.7386 52.6536L31.6572 44.3064L31.9893 44.0208H32.0052L41.6047 37.9588L41.494 35.7213L32.8275 27.7391L33.6341 26.9933L40.7982 23.264L48.1521 28.1835L48.753 28.7865L58.3684 23.026L64.2357 26.057L65.9753 27.9772C65.9753 27.9772 61.8793 31.3731 56.613 35.8482C57.0242 37.1495 57.5619 38.1651 58.1786 38.9586C58.5108 40.4344 59.7918 42.545 64.2199 43.4812C67.4303 45.576 68.8378 46.5122 69.4704 46.909Z" fill="url(#paint1_linear_4516_85584)"/>
<path d="M82.2639 50.781L78.8637 22.4388L68.9004 24.5653L68.5209 27.9137L67.7301 27.8502L67.2715 22.6769L80.382 20.8043L82.2639 50.781Z" fill="#B42539"/>
<path d="M82.2645 50.781L71.1309 48.3054L69.2648 38.4349C69.2648 38.4349 72.3012 35.023 71.2574 28.0882C69.8657 27.993 69.0276 27.9454 68.5215 27.9137L68.901 24.5653L78.8644 22.4388L82.2645 50.781Z" fill="url(#paint2_linear_4516_85584)"/>
<path d="M104.753 20.2172C104.753 20.2172 104.437 20.3283 103.947 20.5981L102.175 13.3935L83.1975 20.1379L82.8496 18.6779L103.346 10.5688L104.753 20.2172Z" fill="#B42539"/>
<path d="M112.755 51.2413L114.447 53.8121L104.516 57.0018L104.864 49.5909L90.5828 50.6542L83.1973 20.1379L102.175 13.3936L103.946 20.5981C102.729 21.2329 100.435 22.8357 99.0121 26.0888C97.1459 24.9145 94.2044 25.2636 94.2044 25.2636L96.3236 32.0873C96.3236 32.0873 96.3394 32.0873 96.3552 32.0715C96.6873 31.9921 99.3125 31.278 100.309 29.8498C102.808 30.913 104.832 31.5002 106.255 31.7382C106.572 33.3886 106.635 34.547 106.635 34.547L98.079 37.8478L99.4865 41.9579L103.345 41.8786H103.377L114.795 43.3702L112.281 50.5113L112.138 50.8922L112.755 51.2413Z" fill="url(#paint3_linear_4516_85584)"/>
<path d="M106.256 31.7381C104.832 31.5001 102.808 30.913 100.309 29.8497C99.3128 31.2779 96.6876 31.9921 96.3555 32.0714C96.6559 31.8968 99.044 30.421 99.4868 28.4374C101.938 29.5006 104.753 30.0878 105.813 29.8497C105.987 30.5162 106.129 31.151 106.256 31.7381Z" fill="#B42539"/>
<path d="M115.412 41.6088L114.795 43.3702L103.377 41.8785L115.412 41.6088Z" fill="#B42539"/>
<path d="M116.234 53.2407L114.447 53.812L112.755 51.2412L116.234 53.2407Z" fill="#B42539"/>
<path d="M82.5651 9.39453C81.8692 10.9973 76.5712 16.9482 73.7088 18.2177C70.8937 16.3293 67.1456 12.5683 64.6943 9.39453C64.7576 9.26758 64.8209 9.12476 64.8841 8.9978L73.772 12.2827L82.5651 9.39453Z" fill="#006FE0"/>
<path d="M82.6122 9.28341C82.6122 9.28341 82.5806 9.36276 82.5647 9.3945L73.7717 12.2827L64.8838 8.99777C66.4653 5.79221 70.2134 2.09472 73.4712 0C76.8714 2.63427 80.1609 5.98264 82.6122 9.28341Z" fill="#05C0EC"/>
<path d="M77.0294 5.95095C76.1438 6.72854 69.9444 11.5686 69.9444 11.5686C69.9444 11.521 69.9444 11.4893 69.9444 11.4417C69.9444 11.4417 69.976 8.07741 69.9127 7.14113C69.9127 6.95071 69.9285 6.85549 70.0076 6.83962L71.4784 7.91872C71.1937 8.15676 70.7984 8.50588 70.2607 8.98195C70.0551 9.47389 70.5295 9.39454 70.5295 9.39454L72.0952 8.36305L72.6961 8.80739C72.6961 8.80739 73.1706 8.87086 73.0124 8.31545C72.1268 7.58547 70.3714 6.14138 70.3714 6.14138L70.2765 6.09378C70.2765 6.09378 68.8848 5.69705 68.8848 7.22048C68.8848 8.15676 68.9164 11.4258 68.9164 11.4258C68.9164 12.8064 69.9285 12.5049 70.0234 12.4731L77.1243 6.87136C77.1243 6.87136 77.1559 6.99831 77.1559 7.09353C77.2033 7.71242 77.2192 10.7275 77.1875 11.3147C76.5233 11.0291 74.7204 9.61671 74.6097 9.64845C73.9613 9.58497 74.1985 10.2039 74.1985 10.2039C74.2144 10.2039 76.207 11.5686 76.7131 11.9495C77.061 12.2192 77.3299 12.1875 77.5038 12.124C78.1522 11.9336 78.1364 11.4575 78.1522 11.3147C78.1522 11.1719 78.2155 7.68068 78.2155 6.96657C78.2155 5.6177 77.2666 5.71292 76.9978 5.95095H77.0294Z" fill="white"/>
<path d="M73.5349 1.45996L71.8902 6.1096L69.4863 4.63378C69.4863 4.63378 71.9534 1.80908 73.5349 1.45996Z" fill="#00E8F2"/>
<path d="M74.5938 16.8054C74.5938 16.8054 74.5305 13.7427 79.6387 11.8066C79.2908 13.7427 76.0013 16.4563 74.5938 16.8054Z" fill="#05BAF2"/>
<path d="M64.8683 33.9281C64.0143 34.2614 62.7174 35.5785 62.2272 36.0704C62.1323 35.6578 62.0532 35.1976 62.0058 34.7216C61.8476 32.7697 62.3695 31.151 63.1761 31.0875C63.9036 31.0241 64.6152 32.2619 64.8524 33.9281H64.8683Z" fill="#B42539"/>
<path d="M63.6819 38.1334C63.0809 38.1651 62.5116 37.34 62.2111 36.1022C62.2111 36.0863 62.2111 36.0704 62.1953 36.0546C62.6856 35.5626 64.014 34.2772 64.868 33.9598C64.8838 34.0551 64.8838 34.1503 64.8996 34.2614C64.8996 34.3407 64.9155 34.4359 64.9155 34.5153C65.042 36.4672 64.4885 38.0858 63.6819 38.1334Z" fill="#FE9B43"/>
<path d="M1.64062 45.2903L13.7389 18.8048L13.4859 18.5192L15.0199 19.9791L1.64062 45.2903Z" fill="#B42539"/>
<path d="M32.0053 19.392L31.7839 21.7247L21.5518 16.2499L32.0053 19.392Z" fill="#B42539"/>
<path d="M41.6045 37.9589L32.0049 44.005L41.4938 35.7213L41.6045 37.9589Z" fill="#B42539"/>
<path d="M69.4863 46.8932H69.4705C68.8379 46.5123 67.4304 45.576 64.22 43.4813C59.7918 42.545 58.5108 40.4344 58.1787 38.9586C61.1519 42.8465 65.8647 41.1327 65.8647 41.1327L69.4863 46.8932Z" fill="#B42539"/>
</g>
<defs>
<linearGradient id="paint0_linear_4516_85584" x1="15.004" y1="50.305" x2="17.3607" y2="15.045" gradientUnits="userSpaceOnUse">
<stop stop-color="#FECC39"/>
<stop offset="1" stop-color="#FE5D4E"/>
</linearGradient>
<linearGradient id="paint1_linear_4516_85584" x1="50.4452" y1="51.8442" x2="50.9229" y2="27.0409" gradientUnits="userSpaceOnUse">
<stop stop-color="#FECC39"/>
<stop offset="1" stop-color="#FE5D4E"/>
</linearGradient>
<linearGradient id="paint2_linear_4516_85584" x1="76.508" y1="46.6868" x2="73.5466" y2="27.1708" gradientUnits="userSpaceOnUse">
<stop stop-color="#FECC39"/>
<stop offset="1" stop-color="#FE5D4E"/>
</linearGradient>
<linearGradient id="paint3_linear_4516_85584" x1="103.171" y1="48.5118" x2="94.0689" y2="20.0608" gradientUnits="userSpaceOnUse">
<stop stop-color="#FECC39"/>
<stop offset="1" stop-color="#FE5D4E"/>
</linearGradient>
<clipPath id="clip0_4516_85584">
<rect width="115.97" height="64" fill="white" transform="translate(0.264648)"/>
</clipPath>
</defs>
</svg>
