<svg width="107" height="68" viewBox="0 0 107 68" fill="none" xmlns="http://www.w3.org/2000/svg">
<path d="M52.3376 41.7692C52.2808 42.0798 52.1281 42.3359 51.8628 42.5631C48.3088 45.6079 44.7604 48.6584 41.2104 51.7081C40.9881 51.8992 40.7683 52.0926 40.5413 52.2789C40.0201 52.7059 39.6284 52.7156 39.116 52.2797C37.7251 51.0964 36.3414 49.9043 34.9553 48.7146C32.5987 46.6909 30.2478 44.6599 27.8825 42.6466C27.4844 42.3078 27.3029 41.9385 27.3077 41.4055C27.3285 38.7837 27.3221 36.1619 27.3117 33.5409C27.3101 33.1162 27.4572 32.8008 27.7729 32.5302C31.5276 29.3104 35.279 26.0865 39.0329 22.8658C39.3182 22.621 39.5501 22.4869 39.7779 22.4661V30.7778C39.7779 30.7778 39.825 31.2538 40.4414 31.8246C41.0569 32.3954 51.9043 41.672 51.9043 41.672C51.9043 41.672 52.1809 41.9096 52.3376 41.7692Z" fill="#FE27D7"/>
<path d="M55.1681 41.4436C55.1681 41.4669 55.1681 41.4902 55.1689 41.5127C55.1649 41.4645 55.1641 41.4164 55.1641 41.3658C55.1697 40.5622 55.1729 39.7579 55.1752 38.9535C55.1768 39.7835 55.1769 40.6136 55.1681 41.4436Z" fill="#FE27D7"/>
<path d="M55.1658 33.5798C55.1778 34.4637 55.1762 35.3475 55.1738 36.2321C55.173 35.3628 55.1698 34.4926 55.165 33.6224C55.165 33.6079 55.165 33.5943 55.165 33.5798H55.1658Z" fill="#FE27D7"/>
<path d="M67.3604 22.5391C67.3931 22.5238 67.4243 22.511 67.4563 22.5013C67.4251 22.5118 67.3931 22.5246 67.3604 22.5391Z" fill="#FE27D7"/>
<path d="M80.2214 41.4822C80.2278 41.9357 80.0807 42.2705 79.7385 42.5635C76.1742 45.6164 72.6162 48.6757 69.0558 51.7334C68.8431 51.9156 68.6337 52.1018 68.4171 52.2784C67.8951 52.7063 67.505 52.7143 66.9926 52.2784C65.6009 51.0952 64.2172 49.9039 62.8319 48.7134C60.4753 46.6896 58.1244 44.6587 55.759 42.6445C55.4617 42.3917 55.2802 42.1179 55.2051 41.7776C55.3634 41.898 55.6271 41.6716 55.6271 41.6716C55.6271 41.6716 66.4746 32.3949 67.0901 31.8242C67.7064 31.2534 67.7536 30.7774 67.7536 30.7774V22.4656C67.7536 22.4656 67.748 22.4656 67.7456 22.4656C67.6497 22.4576 67.5545 22.4697 67.4562 22.5018C67.7952 22.3878 68.0925 22.5186 68.5266 22.8903C72.2796 26.1118 76.0303 29.3364 79.7849 32.5571C80.0775 32.8084 80.2214 33.1046 80.2182 33.4987C80.207 34.849 80.2142 36.2 80.2142 37.5511C80.2142 38.9021 80.2022 40.1729 80.2214 41.483V41.4822Z" fill="#FE27D7"/>
<path d="M66.1591 19.6332C66.0176 20.1117 65.562 20.2979 65.2342 20.5893C64.0512 21.6417 62.8345 22.6572 61.6315 23.6872C60.0543 25.0374 58.478 26.3884 56.9024 27.7411C56.1046 28.4258 55.3093 29.1154 54.5123 29.801C53.9919 30.2481 53.5387 30.2481 53.0191 29.801C50.4155 27.5613 47.8128 25.32 45.2076 23.0827C44.0365 22.0768 42.8567 21.0798 41.6856 20.074C41.5489 19.9567 41.3762 19.8516 41.373 19.6324C42.6664 18.3841 44.0789 17.2723 45.4274 16.0875C46.7952 14.8849 48.1917 13.7145 49.573 12.528C50.7329 11.5318 51.884 10.5244 53.0502 9.53616C53.5554 9.10749 53.9791 9.10669 54.4835 9.53616C56.0311 10.8559 57.5659 12.1917 59.1087 13.5186C60.2877 14.5325 61.4804 15.532 62.6499 16.5571C63.8194 17.583 65.0424 18.5479 66.1607 19.6332H66.1591Z" fill="#FE83EB"/>
<path d="M66.159 19.633C65.0407 18.5477 63.8177 17.5828 62.6482 16.5569C61.4787 15.5309 60.2861 14.5323 59.107 13.5184C57.565 12.1915 56.0302 10.8565 54.4818 9.53595C53.9774 9.10567 53.5546 9.10728 53.0486 9.53595C51.8823 10.5249 50.7312 11.5316 49.5713 12.5278C48.19 13.7151 46.7935 14.8847 45.4258 16.0873C44.0772 17.2729 42.6655 18.3839 41.3714 19.6322C41.2195 19.438 41.2379 19.2068 41.2379 18.9812C41.2379 16.3867 41.2435 13.7922 41.2315 11.1977C41.2291 10.7048 41.385 10.3347 41.7631 10.012C44.4393 7.72654 47.1044 5.42905 49.7735 3.13477C50.8151 2.23969 51.8575 1.34703 52.8959 0.447939C53.5865 -0.150115 53.9407 -0.14851 54.6329 0.447939C58.2509 3.56023 61.8624 6.67974 65.4987 9.76955C66.0679 10.2536 66.3197 10.7594 66.3069 11.5188C66.2653 14.0057 66.2917 16.4934 66.2909 18.9812C66.2909 19.2068 66.3077 19.4372 66.1574 19.6322L66.159 19.633Z" fill="#FE27D7"/>
<path d="M68.4833 67.9092C67.405 67.9092 66.3275 67.9108 65.2491 67.9092C64.3522 67.9068 63.5129 67.1121 63.5065 66.2154C63.4905 64.129 63.4873 62.0427 63.5001 59.9563C63.5065 58.9111 64.2523 58.1605 65.3402 58.1469C67.4562 58.1204 69.5729 58.1196 71.688 58.1469C72.8207 58.1621 73.529 58.932 73.541 60.1249C73.5601 62.0507 73.5434 63.9765 73.5466 65.9023C73.549 67.3023 72.4962 67.9766 71.477 67.9212C70.4818 67.8675 69.481 67.9092 68.4833 67.9092ZM68.5017 65.5965C69.2603 65.5965 70.0189 65.5908 70.7775 65.5997C70.9974 65.6021 71.1149 65.5724 71.1125 65.3019C71.1005 63.7774 71.1021 62.253 71.1125 60.7285C71.1141 60.4925 71.0293 60.4396 70.8119 60.4404C69.2819 60.4484 67.7511 60.45 66.2211 60.4387C65.9741 60.4371 65.9062 60.511 65.9078 60.7566C65.9182 62.2674 65.919 63.779 65.9078 65.2898C65.9062 65.5451 65.9901 65.6045 66.2275 65.6005C66.9861 65.5876 67.7447 65.5957 68.5033 65.5957L68.5017 65.5965Z" fill="#FE27D7"/>
<path d="M30.3746 67.9094C29.297 67.9094 28.2195 67.9102 27.1419 67.9094C26.273 67.9086 25.4712 67.1636 25.4129 66.291C25.3897 65.945 25.4017 65.5958 25.3977 65.249C25.3809 63.6451 25.3617 62.0412 25.3497 60.4373C25.3378 58.9225 26.1227 58.1278 27.6176 58.1294C29.5201 58.1318 31.4226 58.131 33.3251 58.1358C34.4322 58.139 35.1324 58.6319 35.3587 59.5663C35.3986 59.7325 35.4098 59.9099 35.4098 60.0825C35.4106 62.0613 35.417 64.0401 35.401 66.0189C35.393 66.9862 34.9438 67.5586 34.0389 67.8612C33.8934 67.9102 33.7527 67.9102 33.608 67.9102C32.5305 67.9118 31.4529 67.9102 30.3754 67.911L30.3746 67.9094ZM30.405 60.4454C29.6336 60.4454 28.8614 60.4534 28.09 60.4405C27.8614 60.4365 27.7966 60.5104 27.7982 60.7368C27.807 62.2612 27.807 63.7856 27.7982 65.3101C27.7966 65.5477 27.8845 65.5991 28.1004 65.5974C29.6304 65.5902 31.1612 65.5878 32.6912 65.5991C32.9398 65.6007 33.0037 65.5244 33.0021 65.2804C32.9917 63.7696 32.9909 62.258 33.0029 60.7472C33.0053 60.4871 32.9134 60.4365 32.6808 60.4405C31.9222 60.4534 31.1636 60.4454 30.4058 60.4454H30.405Z" fill="#FE27D7"/>
<path d="M3.9633 60.2676C3.04562 60.2676 2.12715 60.2603 1.20947 60.2724C0.972856 60.2756 0.868938 60.217 0.888123 59.9617C0.908107 59.696 0.891321 59.4271 0.892919 59.1598C0.895317 58.6075 1.14792 58.2944 1.69229 58.1844C1.84737 58.1531 2.00804 58.1322 2.16632 58.1322C3.65634 58.1314 5.14637 58.125 6.63639 58.1419C8.30468 58.1611 9.33506 58.9623 9.70517 60.506C9.84746 61.1016 9.7947 61.7005 9.46456 62.2046C9.19677 62.614 9.28151 62.8838 9.52132 63.2554C10.212 64.3255 10.16 65.6252 9.4158 66.6358C8.80908 67.4603 7.97454 67.893 6.95774 67.905C5.28146 67.9243 3.60518 67.9106 1.9289 67.9098C1.23745 67.9098 0.894518 67.5719 0.893719 66.8871C0.89212 65.5104 0.90491 64.1328 0.884926 62.7561C0.880129 62.4294 0.982449 62.3628 1.28621 62.3652C2.96249 62.3772 4.63877 62.3684 6.31505 62.3652C6.47492 62.3652 6.63479 62.3676 6.79307 62.3515C7.34224 62.2945 7.44935 62.1717 7.45415 61.6178C7.46454 60.3117 7.41738 60.2644 6.1184 60.2644C5.39977 60.2644 4.68193 60.2644 3.9633 60.2644V60.2668V60.2676ZM5.24229 63.9619V63.9586C4.71071 63.9586 4.17913 63.9715 3.64755 63.953C3.38855 63.9442 3.29423 64.0197 3.30462 64.2886C3.3238 64.755 3.323 65.2238 3.30462 65.6902C3.29343 65.9655 3.37576 66.0627 3.66194 66.0571C4.61878 66.0402 5.57563 66.0514 6.53167 66.0466C6.68995 66.0458 6.84823 66.0193 7.0049 65.9976C7.3838 65.9447 7.5205 65.6669 7.5109 65.3402C7.49731 64.8714 7.70355 64.3207 7.14799 64.006C7.04247 63.9466 6.88819 63.9651 6.7563 63.9635C6.2511 63.9594 5.74669 63.9619 5.24149 63.9619H5.24229Z" fill="#FE27D7"/>
<path d="M103.523 65.6781C102.776 64.1143 102.049 62.5955 101.285 60.9964C100.803 61.9935 100.36 62.911 99.9155 63.8286C99.3751 64.9444 98.838 66.061 98.2904 67.1737C97.9395 67.8865 97.0026 68.1795 96.2912 67.8175C96.0466 67.693 95.9387 67.5036 95.9674 67.2339C95.9962 66.9665 96.0706 66.7129 96.1897 66.4696C97.3847 64.0268 98.6014 61.5945 99.7596 59.1348C100.246 58.1025 101.031 58.0118 101.945 58.2213C102.346 58.3136 102.557 58.6612 102.733 59.0201C103.717 61.0326 104.706 63.0411 105.687 65.0544C105.99 65.6765 106.331 66.2826 106.562 66.9384C106.741 67.4434 106.448 67.9002 105.908 67.905C104.311 67.9194 102.716 67.9074 101.119 67.9138C100.905 67.9138 100.856 67.844 100.945 67.6569C101.227 67.0677 101.505 66.4769 101.795 65.8917C101.891 65.6982 102.083 65.6781 102.277 65.6797C102.673 65.6821 103.07 65.6797 103.524 65.6797L103.523 65.6781Z" fill="#FE27D7"/>
<path d="M78.4453 62.995C78.4453 61.7652 78.4437 60.5354 78.4453 59.3055C78.4461 58.5325 78.7451 58.1544 79.5021 58.1528C81.2295 58.1488 82.9618 58.0404 84.6844 58.2034C86.0058 58.3286 86.8787 59.1081 87.3039 60.3483C87.7156 61.55 87.4518 62.6386 86.5845 63.569C85.9538 64.2457 85.1329 64.4817 84.2488 64.5267C83.9602 64.5411 83.5909 64.7346 83.4078 64.5532C83.2112 64.3581 83.3535 63.9688 83.3431 63.6645C83.3319 63.3177 83.3527 62.9693 83.3367 62.6225C83.3255 62.3865 83.3854 62.2741 83.6444 62.2998C83.8419 62.3191 84.0441 62.3103 84.2424 62.2942C84.7596 62.2525 85.1448 61.8495 85.1544 61.355C85.1616 60.9544 84.7372 60.4703 84.2847 60.4583C83.208 60.4302 82.1304 60.4479 81.0529 60.4406C80.7491 60.439 80.8458 60.6606 80.845 60.8091C80.841 62.7068 80.845 64.6053 80.8426 66.5031C80.8426 66.7688 80.857 67.0353 80.7659 67.2962C80.622 67.704 80.3654 67.883 79.9378 67.9143C78.6739 68.0066 78.4365 67.5956 78.4445 66.4445C78.4525 65.2949 78.4461 64.1454 78.4461 62.9958L78.4453 62.995Z" fill="#FE27D7"/>
<path d="M42.7323 64.5016C42.7323 65.3533 42.7395 66.1143 42.7299 66.8745C42.7211 67.5994 42.3949 67.9085 41.6643 67.9093C41.598 67.9093 41.5316 67.9093 41.4645 67.9093C40.6723 67.9093 40.3517 67.5994 40.3494 66.8015C40.3438 64.9969 40.3462 63.1923 40.3462 61.3877C40.3462 60.6524 40.3414 59.917 40.3494 59.1825C40.3565 58.4994 40.6028 58.2409 41.2702 58.1879C41.3494 58.1815 41.4285 58.1646 41.5084 58.1622C42.4317 58.1341 42.7331 58.4295 42.7339 59.3623C42.7339 60.0037 42.7491 60.6459 42.7251 61.2865C42.7115 61.6478 42.841 61.8774 43.1328 62.0861C45.1696 63.5407 47.196 65.0097 49.2256 66.4756C49.3551 66.5687 49.4837 66.665 49.6045 66.7694C49.8251 66.9604 49.9194 67.2117 49.8347 67.4894C49.7459 67.7808 49.4877 67.8828 49.212 67.9061C48.168 67.996 47.2247 67.8563 46.3518 67.133C45.2287 66.2026 43.9937 65.4079 42.7323 64.5008V64.5016Z" fill="#FE27D7"/>
<path d="M14.228 63.0156C14.228 61.7721 14.224 60.5294 14.2296 59.286C14.2328 58.4535 14.5765 58.1244 15.4078 58.1364C16.3303 58.1493 16.6237 58.4407 16.6253 59.3695C16.6293 61.3346 16.6325 63.2998 16.6197 65.2641C16.6181 65.5683 16.6828 65.6719 17.0082 65.6679C18.511 65.6502 20.0146 65.6558 21.5174 65.6663C22.0858 65.6703 22.3847 65.9192 22.4551 66.3952C22.5782 67.2317 22.3895 67.67 21.8372 67.8674C21.6917 67.9196 21.5494 67.9092 21.4047 67.9092C19.3695 67.9108 17.3343 67.9108 15.2991 67.9108C14.5933 67.9108 14.2415 67.5857 14.2336 66.8664C14.2184 65.5836 14.2296 64.3 14.2296 63.0172H14.2272L14.228 63.0156Z" fill="#FE27D7"/>
<path d="M91.2242 63.0143C91.2242 61.7451 91.2202 60.4752 91.225 59.206C91.2274 58.4956 91.4872 58.2114 92.1883 58.144C92.3593 58.1279 92.5352 58.1239 92.7055 58.144C93.325 58.2138 93.6015 58.5156 93.6103 59.1466C93.6207 59.8811 93.6127 60.6165 93.6127 61.3518C93.6127 63.1291 93.6127 64.9064 93.6119 66.6837C93.6111 67.7425 92.755 68.2852 91.7774 67.8477C91.3545 67.6582 91.2282 67.2882 91.2266 66.8643C91.221 65.5815 91.2242 64.2987 91.2242 63.0159V63.0143Z" fill="#FE27D7"/>
<path d="M56.4124 60.436C55.2285 60.436 54.0446 60.4392 52.8608 60.436C51.8192 60.4328 51.298 59.5506 51.7816 58.6089C51.9886 58.2051 52.3715 58.1393 52.7688 58.1369C53.8991 58.1305 55.0302 58.1241 56.1606 58.1369C57.5427 58.1538 58.9264 58.0759 60.3077 58.1915C60.8489 58.2373 61.1007 58.4877 61.1142 59.0272C61.1454 60.253 60.9656 60.4352 59.7249 60.4352C58.621 60.4352 57.5171 60.4352 56.4132 60.4352L56.4124 60.436Z" fill="#FE27D7"/>
<path d="M55.1984 65.1347C55.1984 64.5198 55.2048 63.9041 55.1944 63.2892C55.1912 63.0813 55.2568 63.009 55.467 63.0131C56.0794 63.0251 56.6917 63.0267 57.3032 63.0131C57.5374 63.0074 57.5974 63.099 57.5958 63.3173C57.5878 64.4941 57.6022 65.671 57.5862 66.8478C57.5766 67.5928 57.232 67.9091 56.4942 67.9099C55.459 67.9099 55.2024 67.6562 55.196 66.6198C55.1928 66.1253 55.196 65.63 55.196 65.1356H55.1984V65.1347Z" fill="#FE27D7"/>
<path d="M47.9141 58.1913C48.2467 58.1913 48.4865 58.1986 48.7255 58.1897C48.9965 58.1793 49.2019 58.2748 49.2811 58.5429C49.361 58.8167 49.3298 59.0776 49.0788 59.263C48.6823 59.5552 48.2842 59.845 47.883 60.1308C47.4497 60.4399 47.0092 60.7393 46.5768 61.05C46.3793 61.192 46.1939 61.2073 45.9909 61.0652C45.544 60.7521 45.0964 60.4399 44.6415 60.1388C44.4313 59.9999 44.4872 59.9205 44.6607 59.8025C45.3306 59.3441 45.998 58.8817 46.6567 58.4065C47.0764 58.1038 47.5528 58.2275 47.9149 58.1921L47.9141 58.1913Z" fill="#FE27D7"/>
<path d="M52.3644 41.4438C52.3652 41.5249 52.3612 41.6027 52.3516 41.6774C52.3484 41.7087 52.3436 41.7392 52.338 41.7689C52.1813 41.9094 51.9048 41.6718 51.9048 41.6718C51.9048 41.6718 41.0573 32.3951 40.4418 31.8243C39.8255 31.2536 39.7783 30.7775 39.7783 30.7775V22.4658C39.7783 22.4658 39.7839 22.4658 39.7863 22.4658C40.0517 22.4441 40.3123 22.5758 40.6456 22.8624C44.0749 25.8061 47.501 28.7538 50.9279 31.6999C51.2413 31.9696 51.549 32.2458 51.8728 32.5019C52.2245 32.7812 52.3716 33.1264 52.366 33.58C52.3484 34.8909 52.3596 36.2018 52.3596 37.5127C52.3596 38.8236 52.35 40.1337 52.3644 41.4446V41.4438Z" fill="#C400A6"/>
<path d="M67.7537 22.4661V30.7778C67.7537 30.7778 67.7065 31.2539 67.0902 31.8246C66.4747 32.3954 55.6273 41.6721 55.6273 41.6721C55.6273 41.6721 55.3635 41.8984 55.2052 41.778C55.186 41.6953 55.174 41.6094 55.1684 41.5187V41.5131C55.1676 41.4906 55.1676 41.4674 55.1676 41.4441C55.1764 40.614 55.1764 39.784 55.1748 38.9539C55.1772 38.0468 55.1772 37.1389 55.174 36.2318C55.1764 35.3471 55.178 34.4633 55.166 33.5795C55.166 33.5594 55.166 33.5393 55.1668 33.5201C55.1844 33.1171 55.3267 32.808 55.6201 32.5343C55.6201 32.5327 55.6217 32.5319 55.6225 32.5319C55.6432 32.5126 55.664 32.4941 55.6856 32.4757C59.4123 29.2847 63.1293 26.0841 66.852 22.8884C66.9231 22.8273 66.9903 22.7736 67.0542 22.7262C67.075 22.7109 67.095 22.6965 67.115 22.682C67.1302 22.6716 67.1454 22.6612 67.1606 22.6515C67.1805 22.6379 67.2005 22.625 67.2205 22.6138C67.2349 22.605 67.2485 22.597 67.2621 22.5889C67.2957 22.5705 67.3284 22.5536 67.3604 22.5392C67.3932 22.5247 67.4252 22.5119 67.4563 22.5014C67.5547 22.4693 67.6498 22.4573 67.7457 22.4653C67.7481 22.4653 67.7513 22.4653 67.7537 22.4653V22.4661Z" fill="#C400A6"/>
<path d="M55.6202 32.5339C55.3269 32.8077 55.1846 33.1167 55.167 33.5197C55.1742 33.1119 55.3117 32.794 55.6202 32.5339Z" fill="#C400A6"/>
<path d="M55.1729 37.5123C55.1729 37.0853 55.1736 36.6582 55.1744 36.2319C55.1776 37.139 55.1776 38.047 55.1752 38.9541C55.1744 38.4732 55.1729 37.9932 55.1729 37.5123Z" fill="#C400A6"/>
<path d="M55.1689 41.5189C55.1745 41.6096 55.1865 41.6955 55.2057 41.7782C55.2017 41.7758 55.1985 41.7726 55.1945 41.7694C55.1889 41.7397 55.1841 41.7092 55.1809 41.6779C55.1745 41.6265 55.1705 41.5735 55.1689 41.5189Z" fill="#C400A6"/>
<path d="M39.7783 22.4528L39.7858 22.4641C39.7858 22.4641 39.7806 22.4641 39.7783 22.4641V22.452V22.4528Z" fill="#FEFEFE"/>
<path d="M52.3787 41.7195C52.3667 41.7404 52.3531 41.7564 52.3379 41.7692C52.3435 41.7395 52.3483 41.709 52.3515 41.6777L52.3787 41.7195Z" fill="#FEFEFE"/>
</svg>
