<svg width="214" height="64" viewBox="0 0 214 64" fill="none" xmlns="http://www.w3.org/2000/svg">
<g clip-path="url(#clip0_4516_91918)">
<path d="M83.9866 49.7045H47.258C46.8329 49.7045 46.4883 50.0491 46.4883 50.4742C46.4883 50.8994 46.8329 51.244 47.258 51.244H83.9866C84.4117 51.244 84.7563 50.8994 84.7563 50.4742C84.7563 50.0491 84.4117 49.7045 83.9866 49.7045Z" fill="#DBDBDB"/>
<path d="M166.021 49.7045H129.292C128.867 49.7045 128.522 50.0491 128.522 50.4742C128.522 50.8994 128.867 51.244 129.292 51.244H166.021C166.446 51.244 166.791 50.8994 166.791 50.4742C166.791 50.0491 166.446 49.7045 166.021 49.7045Z" fill="#DBDBDB"/>
<path fill-rule="evenodd" clip-rule="evenodd" d="M59.2449 40.2474C59.2449 39.7616 58.851 39.3677 58.3652 39.3677H57.2655C56.1722 39.3677 55.2861 40.2538 55.2861 41.3471C55.2861 42.4403 56.1722 43.3264 57.2655 43.3264H58.5851C58.9495 43.3264 59.2449 43.0311 59.2449 42.6666C59.2449 42.3022 59.5403 42.0069 59.9047 42.0069H69.5817C69.9461 42.0069 70.2415 42.3022 70.2415 42.6666C70.2415 43.0311 70.5368 43.3264 70.9013 43.3264H72.2208C73.3141 43.3264 74.2002 42.4403 74.2002 41.3471C74.2002 40.2538 73.3141 39.3677 72.2208 39.3677H71.1212C70.6354 39.3677 70.2415 39.7616 70.2415 40.2474C70.2415 40.7332 69.8476 41.1271 69.3617 41.1271H60.1246C59.6388 41.1271 59.2449 40.7332 59.2449 40.2474ZM142.159 41.1271C142.159 40.6413 141.765 40.2474 141.279 40.2474H140.18C139.086 40.2474 138.2 41.1335 138.2 42.2268C138.2 43.3201 139.086 44.2062 140.18 44.2062H141.499C141.864 44.2062 142.159 43.9108 142.159 43.5464C142.159 43.1819 142.454 42.8866 142.819 42.8866H152.496C152.86 42.8866 153.156 43.1819 153.156 43.5464C153.156 43.9108 153.451 44.2062 153.815 44.2062H155.135C156.228 44.2062 157.114 43.3201 157.114 42.2268C157.114 41.1335 156.228 40.2474 155.135 40.2474H154.035C153.549 40.2474 153.156 40.6413 153.156 41.1271C153.156 41.613 152.762 42.0069 152.276 42.0069H143.039C142.553 42.0069 142.159 41.613 142.159 41.1271Z" fill="#CB866D"/>
<mask id="mask0_4516_91918" style="mask-type:alpha" maskUnits="userSpaceOnUse" x="87" y="2" width="38" height="62">
<path d="M87.6152 21.2234V45.2076C87.6152 55.4713 95.9357 63.7918 106.199 63.7918C116.463 63.7918 124.784 55.4713 124.784 45.2076V21.2234C124.784 10.9596 116.463 2.63916 106.199 2.63916C95.9357 2.63916 87.6152 10.9596 87.6152 21.2234Z" fill="#D9D9D9"/>
</mask>
<g mask="url(#mask0_4516_91918)">
<path fill-rule="evenodd" clip-rule="evenodd" d="M91.6002 41.3385C92.2186 40.816 92.5753 40.0473 92.5753 39.2375V1.73444C92.5753 0.924681 92.2186 0.15605 91.6002 -0.366665C90.9817 -0.889376 90.625 -1.65801 90.625 -2.46776V-6.68567C90.625 -10.1703 92.1601 -13.478 94.8215 -15.7274L101.137 -21.0654C101.695 -21.5373 102.403 -21.7963 103.134 -21.7963C104.842 -21.7963 106.228 -20.4112 106.228 -18.7028V-12.894C106.228 -12.4303 106.024 -11.99 105.671 -11.6897L105.588 -11.6197C104.889 -11.0252 104.889 -9.94566 105.588 -9.35114C106.144 -8.87845 106.961 -8.87845 107.517 -9.35114C108.216 -9.94566 108.216 -11.0252 107.517 -11.6197L107.435 -11.6898C107.081 -11.9901 106.878 -12.4304 106.878 -12.8941V-18.7028C106.878 -20.4113 108.263 -21.7963 109.971 -21.7963C110.702 -21.7963 111.41 -21.5373 111.968 -21.0654L118.284 -15.7274C120.945 -13.478 122.48 -10.1703 122.48 -6.68567V-2.46774C122.48 -1.658 122.124 -0.889383 121.505 -0.366684C120.887 0.156015 120.53 0.924625 120.53 1.73436V39.2375C120.53 40.0473 120.887 40.8158 121.505 41.3385C122.124 41.8613 122.48 42.63 122.48 43.4395V47.6576C122.48 51.1422 120.945 54.45 118.284 56.6992L111.968 62.0374C111.41 62.5091 110.702 62.7682 109.971 62.7682C108.263 62.7682 106.878 61.3831 106.878 59.6746V54.3793C106.878 53.9157 107.081 53.4754 107.435 53.175L107.517 53.1049C108.216 52.5104 108.216 51.431 107.517 50.8365C106.961 50.3636 106.144 50.3636 105.588 50.8365C104.889 51.431 104.889 52.5104 105.588 53.1049L105.671 53.175C106.024 53.4752 106.228 53.9155 106.228 54.3791V59.6746C106.228 61.3831 104.842 62.7682 103.134 62.7682C102.403 62.7682 101.695 62.5093 101.137 62.0374L94.8215 56.6994C92.1601 54.45 90.625 51.1422 90.625 47.6576V43.4398C90.625 42.63 90.9817 41.8613 91.6002 41.3385Z" fill="#DBDBDB"/>
</g>
<path fill-rule="evenodd" clip-rule="evenodd" d="M23.3809 17.7046C23.3809 17.2795 23.7255 16.9348 24.1507 16.9348H25.8002C27.0146 16.9348 27.9995 17.9195 27.9995 19.1341C27.9995 20.3488 27.0146 21.3335 25.8002 21.3335H24.0407C23.6763 21.3335 23.3809 21.038 23.3809 20.6737C23.3809 20.3093 23.0853 20.0139 22.7211 20.0139H7.99834C7.14926 20.0139 6.46094 20.7022 6.46094 21.5513V26.9456C6.46094 28.0974 7.39459 29.031 8.5463 29.031H22.7211C23.0853 29.031 23.3809 28.7356 23.3809 28.3712C23.3809 28.0068 23.6763 27.7114 24.0407 27.7114H25.8002C27.0146 27.7114 27.9995 28.6962 27.9995 29.9107C27.9995 31.1254 27.0146 32.11 25.8002 32.11H24.1507C23.7255 32.11 23.3809 31.7654 23.3809 31.3402C23.3809 30.9151 23.0363 30.5705 22.6112 30.5705H8.86721C7.53825 30.5705 6.46094 31.6479 6.46094 32.9768C6.46094 34.3058 7.53825 35.383 8.86721 35.383H9.98804C11.936 35.383 13.5152 36.9621 13.5152 38.9103V39.256C13.5152 41.3948 15.2491 43.129 17.3881 43.129H40.6255C42.077 43.129 43.2537 44.3054 43.2537 45.757C43.2537 47.2083 44.4301 48.3849 45.8816 48.3849H85.579C87.0303 48.3849 88.207 47.2083 88.207 45.757V43.6821C88.207 43.3766 88.4546 43.129 88.7603 43.129H101.617C102.556 43.129 103.457 42.7558 104.121 42.0918C105.504 40.7089 107.746 40.7089 109.129 42.0918C109.793 42.7558 110.694 43.129 111.633 43.129H124.308C124.614 43.129 124.861 43.3766 124.861 43.6821V45.757C124.861 47.2083 126.038 48.3849 127.489 48.3849H167.187C168.638 48.3849 169.815 47.2083 169.815 45.757C169.815 44.3054 170.991 43.129 172.443 43.129H195.68C197.819 43.129 199.553 41.3948 199.553 39.256V38.9103C199.553 36.9621 201.132 35.383 203.08 35.383H204.201C205.53 35.383 206.607 34.3058 206.607 32.9768C206.607 31.6479 205.53 30.5705 204.201 30.5705H190.639C190.214 30.5705 189.869 30.9151 189.869 31.3402C189.869 31.7654 189.524 32.11 189.099 32.11H187.45C186.235 32.11 185.25 31.1254 185.25 29.9107C185.25 28.6962 186.235 27.7114 187.45 27.7114H189.209C189.573 27.7114 189.869 28.0068 189.869 28.3712C189.869 28.7356 190.164 29.031 190.529 29.031H204.522C205.674 29.031 206.607 28.0974 206.607 26.9458V21.5513C206.607 20.7022 205.919 20.0139 205.07 20.0139L190.529 20.0139C190.164 20.0139 189.869 20.3093 189.869 20.6736C189.869 21.0381 189.573 21.3335 189.209 21.3335H187.45C186.235 21.3335 185.25 20.3488 185.25 19.1341C185.25 17.9195 186.235 16.9348 187.45 16.9348H189.099C189.524 16.9348 189.869 17.2795 189.869 17.7046C189.869 18.1297 190.214 18.4743 190.639 18.4743L203.927 18.4744C205.407 18.4744 206.607 17.2744 206.607 15.7941C206.607 14.3138 205.407 13.1139 203.927 13.1139H203.08C201.132 13.1139 199.553 11.5347 199.553 9.58676V9.24096C199.553 7.10202 197.819 5.36806 195.68 5.36806L172.443 5.36803C170.991 5.36803 169.815 4.19142 169.815 2.74001C169.815 1.28857 168.638 0.111953 167.187 0.111953L127.445 0.11195C126.018 0.111949 124.861 1.26851 124.861 2.69519C124.861 4.12188 123.705 5.27843 122.278 5.27843H90.7903C89.3636 5.27843 88.207 4.12188 88.207 2.69519C88.207 1.2685 87.0504 0.111942 85.6237 0.111942L45.8816 0.111938C44.4303 0.111938 43.2537 1.28856 43.2537 2.73999C43.2537 4.19142 42.077 5.36803 40.6255 5.36803H17.3881C15.2491 5.36803 13.5152 7.10199 13.5152 9.24094V9.58673C13.5152 11.5347 11.936 13.1139 9.98804 13.1139H9.14117C7.66093 13.1139 6.46094 14.3138 6.46094 15.7941C6.46094 17.2744 7.66093 18.4744 9.1412 18.4744H22.6112C23.0363 18.4744 23.3809 18.1297 23.3809 17.7046Z" fill="#DBDBDB"/>
<path d="M4.04177 24.6323C4.04177 23.5391 3.15558 22.653 2.06239 22.653C0.969208 22.653 0.0830078 23.5391 0.0830078 24.6323C0.0830078 25.7256 0.969208 26.6117 2.06239 26.6117C3.15558 26.6117 4.04177 25.7256 4.04177 24.6323Z" fill="#DBDBDB"/>
<path d="M213.417 24.6323C213.417 23.5391 212.531 22.653 211.437 22.653C210.344 22.653 209.458 23.5391 209.458 24.6323C209.458 25.7256 210.344 26.6117 211.437 26.6117C212.531 26.6117 213.417 25.7256 213.417 24.6323Z" fill="#DBDBDB"/>
<path d="M83.9866 50.1443H47.258C46.8329 50.1443 46.4883 50.4889 46.4883 50.914C46.4883 51.3392 46.8329 51.6838 47.258 51.6838H83.9866C84.4117 51.6838 84.7563 51.3392 84.7563 50.914C84.7563 50.4889 84.4117 50.1443 83.9866 50.1443Z" fill="#DBDBDB"/>
<path d="M166.021 50.1443H129.292C128.867 50.1443 128.522 50.4889 128.522 50.914C128.522 51.3392 128.867 51.6838 129.292 51.6838H166.021C166.446 51.6838 166.791 51.3392 166.791 50.914C166.791 50.4889 166.446 50.1443 166.021 50.1443Z" fill="#DBDBDB"/>
<path fill-rule="evenodd" clip-rule="evenodd" d="M59.2449 40.6873C59.2449 40.2015 58.851 39.8076 58.3652 39.8076H57.2655C56.1722 39.8076 55.2861 40.6937 55.2861 41.787C55.2861 42.8803 56.1722 43.7664 57.2655 43.7664H58.5851C58.9495 43.7664 59.2449 43.471 59.2449 43.1066C59.2449 42.7422 59.5403 42.4468 59.9047 42.4468H69.5817C69.9461 42.4468 70.2415 42.7422 70.2415 43.1066C70.2415 43.471 70.5368 43.7664 70.9013 43.7664H72.2208C73.3141 43.7664 74.2002 42.8803 74.2002 41.787C74.2002 40.6937 73.3141 39.8076 72.2208 39.8076H71.1212C70.6354 39.8076 70.2415 40.2015 70.2415 40.6873C70.2415 41.1732 69.8476 41.5671 69.3617 41.5671H60.1246C59.6388 41.5671 59.2449 41.1732 59.2449 40.6873ZM142.159 41.5671C142.159 41.0812 141.765 40.6873 141.279 40.6873H140.18C139.086 40.6873 138.2 41.5734 138.2 42.6667C138.2 43.76 139.086 44.6461 140.18 44.6461H141.499C141.864 44.6461 142.159 44.3507 142.159 43.9863C142.159 43.6219 142.454 43.3265 142.819 43.3265H152.496C152.86 43.3265 153.156 43.6219 153.156 43.9863C153.156 44.3507 153.451 44.6461 153.815 44.6461H155.135C156.228 44.6461 157.114 43.76 157.114 42.6667C157.114 41.5734 156.228 40.6873 155.135 40.6873H154.035C153.549 40.6873 153.156 41.0812 153.156 41.5671C153.156 42.0529 152.762 42.4468 152.276 42.4468H143.039C142.553 42.4468 142.159 42.0529 142.159 41.5671Z" fill="white"/>
<path d="M45.4153 27.685V28.4306C45.4153 32.4318 44.2721 33.8981 40.6685 33.8981C37.065 33.8981 35.8721 32.4318 35.8721 28.4306V20.2293C35.8721 16.2281 37.065 14.7618 40.6685 14.7618C44.2721 14.7618 45.4153 16.2281 45.4153 20.2293V20.9749C45.4153 21.6956 45.2165 21.8944 44.4958 21.8944H42.9053C42.1845 21.8944 41.9857 21.6956 41.9857 20.9749V19.6329C41.9857 18.6388 41.5632 18.2412 40.6934 18.2412C39.8236 18.2412 39.4011 18.6388 39.4011 19.6329V29.027C39.4011 30.0211 39.8236 30.4187 40.6934 30.4187C41.5632 30.4187 41.9857 30.0211 41.9857 29.027V27.685C41.9857 26.9643 42.1845 26.7655 42.9053 26.7655H44.4958C45.2165 26.7655 45.4153 26.9643 45.4153 27.685ZM53.4041 32.73V26.0199C53.4041 25.672 53.3047 25.5726 52.9568 25.5726H50.9189C50.571 25.5726 50.4715 25.672 50.4715 26.0199V32.73C50.4715 33.4507 50.2727 33.6495 49.552 33.6495H47.9615C47.2408 33.6495 47.0419 33.4507 47.0419 32.73V15.9299C47.0419 15.2092 47.2408 15.0104 47.9615 15.0104H49.552C50.2727 15.0104 50.4715 15.2092 50.4715 15.9299V21.6459C50.4715 21.969 50.571 22.0932 50.9189 22.0932H52.9568C53.3047 22.0932 53.4041 21.969 53.4041 21.6459V15.9299C53.4041 15.2092 53.6029 15.0104 54.3236 15.0104H55.9142C56.6349 15.0104 56.8337 15.2092 56.8337 15.9299V32.73C56.8337 33.4507 56.6349 33.6495 55.9142 33.6495H54.3236C53.6029 33.6495 53.4041 33.4507 53.4041 32.73ZM61.769 32.73C61.769 33.4507 61.5702 33.6495 60.8494 33.6495H59.2589C58.5382 33.6495 58.3394 33.4507 58.3394 32.73V26.3678C58.3394 25.2743 58.3891 24.827 58.6873 23.8329L60.9489 16.253C61.2471 15.2092 61.4956 15.0104 62.7879 15.0104H63.6826C64.9749 15.0104 65.2234 15.2092 65.5217 16.253L67.7832 23.8329C68.0814 24.8021 68.1312 25.2743 68.1312 26.3678V32.73C68.1312 33.4507 67.9323 33.6495 67.2116 33.6495H65.6211C64.9004 33.6495 64.7015 33.4507 64.7015 32.73V29.4495C64.7015 29.1016 64.6021 29.0022 64.2542 29.0022H62.2163C61.8684 29.0022 61.769 29.1016 61.769 29.4495V32.73ZM64.3288 25.5229C64.6021 25.5229 64.7512 25.4234 64.7512 25.1998C64.7512 25.0755 64.7264 24.9513 64.7015 24.827L63.5583 20.0305C63.5086 19.782 63.4589 19.7323 63.2353 19.7323C63.0116 19.7323 62.9619 19.782 62.9122 20.0305L61.769 24.827C61.7441 24.9513 61.7193 25.0755 61.7193 25.1998C61.7193 25.4234 61.8684 25.5229 62.1418 25.5229H64.3288ZM73.0668 15.9299V32.73C73.0668 33.4507 72.868 33.6495 72.1473 33.6495H70.5568C69.8361 33.6495 69.6372 33.4507 69.6372 32.73V15.9299C69.6372 15.2092 69.8361 15.0104 70.5568 15.0104H72.1473C72.868 15.0104 73.0668 15.2092 73.0668 15.9299ZM81.5791 21.1489C81.7033 21.3725 81.753 21.4222 81.9021 21.4222C82.0513 21.4222 82.101 21.3477 82.101 21.1737V15.9299C82.101 15.2092 82.2998 15.0104 83.0205 15.0104H84.5365C85.2572 15.0104 85.456 15.2092 85.456 15.9299V32.73C85.456 33.4507 85.2572 33.6495 84.5365 33.6495H83.0205C82.2998 33.6495 82.101 33.4507 82.101 32.73V29.3252C82.101 28.1572 81.927 27.7347 81.5045 26.9394L79.1933 22.64C79.069 22.4163 79.0193 22.3666 78.8702 22.3666C78.7211 22.3666 78.6714 22.4412 78.6714 22.6151V32.73C78.6714 33.4507 78.4725 33.6495 77.7518 33.6495H76.2358C75.5151 33.6495 75.3163 33.4507 75.3163 32.73V15.9299C75.3163 15.2092 75.5151 15.0104 76.2358 15.0104H77.2051C78.1246 15.0104 78.4725 15.1595 78.9944 16.1784L81.5791 21.1489ZM94.5524 28.356H93.9559C93.111 28.356 92.8624 28.2069 92.6139 27.4613L91.3961 23.6092C91.3216 23.3607 91.2719 23.3359 91.1476 23.3359C90.9985 23.3359 90.9488 23.3856 90.9488 23.6092V32.73C90.9488 33.4507 90.75 33.6495 90.0293 33.6495H88.6375C87.9168 33.6495 87.718 33.4507 87.718 32.73V15.9299C87.718 15.2092 87.9168 15.0104 88.6375 15.0104H90.2281C91.3216 15.0104 91.6695 15.2589 91.9926 16.3027L93.9559 22.7643C94.0305 22.9879 94.105 23.0625 94.2542 23.0625C94.4033 23.0625 94.4778 22.9879 94.5524 22.7643L96.5157 16.3027C96.8388 15.2589 97.1867 15.0104 98.2802 15.0104H99.8708C100.591 15.0104 100.79 15.2092 100.79 15.9299V32.73C100.79 33.4507 100.591 33.6495 99.8708 33.6495H98.479C97.7583 33.6495 97.5595 33.4507 97.5595 32.73V23.6092C97.5595 23.3856 97.5098 23.3359 97.3607 23.3359C97.2364 23.3359 97.1867 23.3607 97.1122 23.6092L95.8944 27.4613C95.6459 28.2069 95.3974 28.356 94.5524 28.356ZM112.401 28.182C112.401 32.3821 111.208 33.8981 107.605 33.8981C104.001 33.8981 102.808 32.3821 102.808 28.182V20.4779C102.808 16.3027 104.001 14.7618 107.605 14.7618C111.208 14.7618 112.401 16.3027 112.401 20.4779V28.182ZM106.337 29.027C106.337 30.0211 106.735 30.4187 107.605 30.4187C108.474 30.4187 108.872 30.0211 108.872 29.027V19.7571C108.872 18.6636 108.474 18.2412 107.605 18.2412C106.735 18.2412 106.337 18.6636 106.337 19.7571V29.027ZM120.678 21.1489C120.802 21.3725 120.852 21.4222 121.001 21.4222C121.15 21.4222 121.199 21.3477 121.199 21.1737V15.9299C121.199 15.2092 121.398 15.0104 122.119 15.0104H123.635C124.356 15.0104 124.555 15.2092 124.555 15.9299V32.73C124.555 33.4507 124.356 33.6495 123.635 33.6495H122.119C121.398 33.6495 121.199 33.4507 121.199 32.73V29.3252C121.199 28.1572 121.026 27.7347 120.603 26.9394L118.292 22.64C118.168 22.4163 118.118 22.3666 117.969 22.3666C117.82 22.3666 117.77 22.4412 117.77 22.6151V32.73C117.77 33.4507 117.571 33.6495 116.85 33.6495H115.334C114.614 33.6495 114.415 33.4507 114.415 32.73V15.9299C114.415 15.2092 114.614 15.0104 115.334 15.0104H116.304C117.223 15.0104 117.571 15.1595 118.093 16.1784L120.678 21.1489ZM130.547 21.6459L133.729 24.5288C135.394 26.0199 135.766 26.9146 135.766 28.5797V29.027C135.766 32.1584 134.573 33.8981 130.97 33.8981C127.366 33.8981 126.173 32.4318 126.173 28.4306V27.9335C126.173 27.2128 126.372 27.014 127.093 27.014H128.783C129.504 27.014 129.702 27.2128 129.702 27.9335V29.027C129.702 30.0211 130.1 30.4187 130.97 30.4187C131.84 30.4187 132.237 30.046 132.237 29.1513V28.6791C132.237 27.9832 132.088 27.6353 131.169 26.8152L128.186 24.156C126.521 22.6897 126.173 21.8447 126.173 20.1796V19.6329C126.173 16.5015 127.366 14.7618 130.97 14.7618C134.573 14.7618 135.766 16.2281 135.766 20.2293V20.7264C135.766 21.4471 135.568 21.6459 134.847 21.6459H133.157C132.436 21.6459 132.237 21.4471 132.237 20.7264V19.6329C132.237 18.6388 131.84 18.2412 130.97 18.2412C130.1 18.2412 129.702 18.6139 129.702 19.5086V19.9311C129.702 20.6518 129.852 20.9998 130.547 21.6459ZM144.584 18.4897H143.043C142.695 18.4897 142.596 18.5891 142.596 18.937V32.73C142.596 33.4507 142.397 33.6495 141.676 33.6495H140.086C139.365 33.6495 139.166 33.4507 139.166 32.73V18.937C139.166 18.5891 139.067 18.4897 138.719 18.4897H137.178C136.457 18.4897 136.259 18.2909 136.259 17.5701V15.9299C136.259 15.2092 136.457 15.0104 137.178 15.0104H144.584C145.305 15.0104 145.504 15.2092 145.504 15.9299V17.5701C145.504 18.2909 145.305 18.4897 144.584 18.4897ZM149.711 18.937V21.7205C149.711 22.0435 149.81 22.1678 150.158 22.1678H153.24C153.96 22.1678 154.159 22.3666 154.159 23.0873V24.7276C154.159 25.4483 153.96 25.6471 153.289 25.6471H150.158C149.81 25.6471 149.711 25.7465 149.711 26.0945V29.7229C149.711 30.046 149.81 30.1702 150.158 30.1702H153.538C154.259 30.1702 154.457 30.369 154.457 31.0898V32.73C154.457 33.4507 154.259 33.6495 153.538 33.6495H147.201C146.48 33.6495 146.281 33.4507 146.281 32.73V15.9299C146.281 15.2092 146.48 15.0104 147.201 15.0104H153.538C154.259 15.0104 154.457 15.2092 154.457 15.9299V17.5701C154.457 18.2909 154.259 18.4897 153.538 18.4897H150.158C149.81 18.4897 149.711 18.5891 149.711 18.937ZM162.251 32.73V29.8223C162.251 28.9525 162.201 28.6791 161.828 28.0081L161.232 26.9394C160.958 26.4921 160.809 26.4175 160.362 26.4175H159.914C159.566 26.4175 159.467 26.5169 159.467 26.8649V32.73C159.467 33.4507 159.268 33.6495 158.548 33.6495H156.957C156.236 33.6495 156.037 33.4507 156.037 32.73V15.9299C156.037 15.2092 156.236 15.0104 156.957 15.0104H160.237C164.015 15.0104 165.73 16.3027 165.73 19.4838V21.2731C165.73 23.0625 165.456 24.2305 164.438 25.0507C164.313 25.1252 164.288 25.1998 164.288 25.2743C164.288 25.3489 164.313 25.4234 164.388 25.5477L165.084 26.8152C165.606 27.7844 165.68 28.182 165.68 29.4992V32.73C165.68 33.4507 165.481 33.6495 164.761 33.6495H163.17C162.449 33.6495 162.251 33.4507 162.251 32.73ZM159.467 18.8128V22.5654C159.467 22.9134 159.566 23.0128 159.914 23.0128H160.436C161.604 23.0128 162.201 22.4909 162.201 21.298V20.0057C162.201 18.8376 161.654 18.3654 160.436 18.3654H159.914C159.566 18.3654 159.467 18.4648 159.467 18.8128ZM171.394 21.6459L174.575 24.5288C176.24 26.0199 176.612 26.9146 176.612 28.5797V29.027C176.612 32.1584 175.42 33.8981 171.816 33.8981C168.212 33.8981 167.02 32.4318 167.02 28.4306V27.9335C167.02 27.2128 167.218 27.014 167.939 27.014H169.629C170.35 27.014 170.549 27.2128 170.549 27.9335V29.027C170.549 30.0211 170.946 30.4187 171.816 30.4187C172.686 30.4187 173.083 30.046 173.083 29.1513V28.6791C173.083 27.9832 172.934 27.6353 172.015 26.8152L169.033 24.156C167.367 22.6897 167.02 21.8447 167.02 20.1796V19.6329C167.02 16.5015 168.212 14.7618 171.816 14.7618C175.42 14.7618 176.612 16.2281 176.612 20.2293V20.7264C176.612 21.4471 176.414 21.6459 175.693 21.6459H174.003C173.282 21.6459 173.083 21.4471 173.083 20.7264V19.6329C173.083 18.6388 172.686 18.2412 171.816 18.2412C170.946 18.2412 170.549 18.6139 170.549 19.5086V19.9311C170.549 20.6518 170.698 20.9998 171.394 21.6459Z" fill="black"/>
</g>
<defs>
<clipPath id="clip0_4516_91918">
<rect width="213.333" height="64" fill="white" transform="translate(0.0830078)"/>
</clipPath>
</defs>
</svg>
