<svg width="194" height="42" viewBox="0 0 194 42" fill="none" xmlns="http://www.w3.org/2000/svg">
<path d="M43.7223 21C43.7223 32.5987 34.0525 42 22.1226 42C10.1928 42 0.513672 32.5987 0.513672 21C0.513672 9.40133 10.1835 0 22.1226 0C34.0617 0 43.7223 9.40133 43.7223 21Z" fill="#FFD9FF"/>
<path d="M30.2829 33.1553C31.8019 31.7831 33.2005 30.2904 34.4694 28.6771C35.3215 28.9089 36.2293 28.8348 37.0165 28.4546C36.3034 27.8612 35.692 27.1752 35.1826 26.3963C36.3311 26.8321 37.6186 26.7208 38.6745 26.0718C38.6745 26.0718 35.3493 24.2268 34.8862 22.7248C33.1264 17.2175 33.2561 16.7261 33.2561 16.7261C34.2842 14.0559 35.09 11.0056 34.2842 10.0136C33.2561 8.73409 32.052 10.746 29.0047 12.8043C29.0047 12.8043 27.1707 11.0612 22.2524 11.0612C19.9739 11.1818 17.751 11.7844 15.7225 12.8321C14.3239 11.803 13.4162 10.8573 12.3047 10.2175C10.619 9.18839 9.82243 10.1248 10.443 12.2758C10.7023 13.1381 11.0914 15.048 11.4711 16.7447C11.749 17.9593 11.4711 17.6811 10.443 21.4268C10.1003 22.3354 9.64645 23.1977 9.09997 24.0136C8.35899 25.0427 7.25677 25.7752 6.01562 26.0718C7.06227 26.7116 8.35899 26.8321 9.50751 26.3871C9.00735 27.1659 8.38677 27.852 7.67358 28.4453C8.47013 28.8255 9.37784 28.9089 10.23 28.6679C11.0821 30.5036 12.5178 32.0056 14.3146 32.9513C14.3146 32.9513 16.3709 35.3805 22.2987 35.3805C27.6246 35.3897 30.2829 33.1553 30.2829 33.1553Z" fill="#FFE888"/>
<path d="M17.5195 11.9325C17.5195 11.9325 11.5176 17.6252 12.3141 25.3855C13.1848 33.9153 22.2896 35.3802 22.2896 35.3802C17.4176 35.306 12.9069 32.7934 10.2949 28.6769C10.2949 28.6769 8.56288 29.2888 7.7478 28.4543C7.7478 28.4543 9.30386 27.4252 9.58173 26.3961C8.43321 26.8689 7.13648 26.7484 6.08984 26.0716C7.58107 25.6822 8.85001 24.6901 9.60026 23.3457C11.5546 20.0265 11.6009 14.5378 17.5195 11.9325Z" fill="#EABA5C"/>
<path d="M14.7683 13.879C14.7683 13.879 13.5735 12.8499 12.2212 11.8207C11.193 11.0234 10.6651 11.0048 10.3965 11.8949L11.6654 17.1797L12.8603 16.475L13.805 14.9081L14.7683 13.879ZM30.0233 13.879C30.0233 13.879 31.2089 12.8499 32.5704 11.8207C33.5985 11.0234 34.1265 11.0048 34.3951 11.8949L33.1262 17.2353L31.9776 16.475L31.0329 14.9081L30.0233 13.879Z" fill="#EABA5C"/>
<path d="M22.3818 35.7135C18.185 35.7135 15.0451 33.8481 13.1501 32.2831C11.4856 30.909 10.4825 29.548 10.1407 29.0464C9.28212 29.2318 8.37905 29.128 7.5723 28.7478C7.47227 28.7005 7.4028 28.605 7.38891 28.4947C7.37501 28.3844 7.41762 28.275 7.50376 28.2036C7.97058 27.8151 8.38923 27.3914 8.7551 26.9362C7.76496 27.0845 6.75536 26.8833 5.88286 26.3474C5.77078 26.2788 5.7115 26.1481 5.73281 26.0183C5.75411 25.8885 5.85136 25.7837 5.98011 25.754C7.41206 25.4221 8.61709 24.4894 9.2849 23.196C9.65539 22.4701 10.0778 21.4307 10.5242 20.3311C11.0623 19.0072 11.6181 17.6387 12.1238 16.7338C14.4125 12.5329 17.4422 10.7379 22.253 10.736C26.6267 10.4913 30.7234 12.8629 32.6917 16.7783C33.1826 17.6721 33.7263 19.0109 34.2514 20.307C34.7081 21.4326 35.1388 22.496 35.5185 23.234C36.1993 24.5358 37.4043 25.4722 38.8224 25.8013C38.9511 25.831 39.0484 25.9358 39.0697 26.0656C39.091 26.1963 39.0308 26.3261 38.9187 26.3947C38.0592 26.9204 37.0338 27.1207 36.0474 26.9788C36.4188 27.4405 36.8375 27.8661 37.2997 28.2499C37.3849 28.3204 37.4275 28.4298 37.4145 28.5401C37.4006 28.6505 37.3321 28.745 37.232 28.7933C36.4308 29.1752 35.5333 29.28 34.6784 29.0927C34.3339 29.5897 33.3224 30.9424 31.6487 32.3072C29.7435 33.8611 26.5897 35.7135 22.3836 35.7135H22.3818ZM10.5612 28.5049C10.5714 28.5216 11.6079 30.171 13.5817 31.7963C15.3915 33.2872 18.3879 35.0636 22.3827 35.0636C26.3775 35.0636 29.3989 33.2983 31.2199 31.8176C33.2048 30.2035 34.2505 28.5652 34.2607 28.5485C34.3376 28.427 34.4848 28.3705 34.6238 28.4094C35.2314 28.5809 35.8733 28.5726 36.4762 28.3909C35.9057 27.8596 35.4055 27.2653 34.985 26.6191C34.9081 26.5013 34.9165 26.3474 35.0045 26.238C35.0924 26.1286 35.2406 26.0878 35.3722 26.1379C36.1724 26.4411 37.0588 26.4494 37.8591 26.1768C36.6152 25.679 35.5769 24.7472 34.9415 23.5326C34.5478 22.7668 34.1116 21.6903 33.6494 20.5499C33.1298 19.2695 32.5935 17.9456 32.1202 17.0852C32.1183 17.0815 32.1165 17.0778 32.1146 17.074C30.2622 13.384 26.4026 11.1505 22.2808 11.3841C22.2743 11.3841 22.2688 11.3841 22.2623 11.3841C17.7173 11.3841 14.8552 13.078 12.6925 17.0462C12.2044 17.9187 11.656 19.2686 11.1262 20.574C10.6742 21.6876 10.2473 22.7389 9.86287 23.4909C9.23673 24.7027 8.1975 25.6344 6.93968 26.1323C7.73902 26.4105 8.61338 26.4003 9.43032 26.0897C9.56184 26.0396 9.70911 26.0795 9.7971 26.1889C9.8851 26.2983 9.89343 26.4513 9.81841 26.569C9.40716 27.2088 8.90792 27.8031 8.32903 28.3417C8.93849 28.5244 9.58685 28.5327 10.1991 28.3612C10.338 28.3223 10.4862 28.3797 10.5622 28.5031L10.5612 28.5049Z" fill="#44392E"/>
<path d="M11.6196 17.5575C11.4954 17.5575 11.3834 17.4731 11.3528 17.347C11.3426 17.3053 10.3302 13.1146 10.0107 11.8323C9.70596 10.4564 10.1913 9.91682 10.5081 9.71748C11.037 9.38371 11.7826 9.52093 12.5022 10.0846L15.7126 12.5017C15.8339 12.5926 15.858 12.765 15.7672 12.8865C15.6764 13.0079 15.5042 13.0321 15.3828 12.9412L12.1688 10.5213C11.651 10.1162 11.1166 9.9845 10.8017 10.1829C10.471 10.3915 10.3775 10.9469 10.546 11.7062C10.8647 12.9829 11.878 17.1755 11.8882 17.2172C11.9243 17.3646 11.8335 17.513 11.6853 17.5491C11.664 17.5547 11.6418 17.5566 11.6205 17.5566L11.6196 17.5575ZM33.1275 17.5111C33.1062 17.5111 33.0849 17.5083 33.0636 17.5037C32.9164 17.4685 32.8247 17.3201 32.8599 17.1727C32.87 17.1301 33.8741 12.9004 34.1946 11.6163C34.3603 10.8662 34.2687 10.3136 33.9398 10.106C33.6258 9.90755 33.0896 10.0401 32.5737 10.4434L29.2013 13.0589C29.0818 13.1517 28.9086 13.1303 28.8159 13.0098C28.7233 12.8902 28.7446 12.7168 28.865 12.6241L32.2365 10.0095C32.9469 9.45325 33.712 9.31232 34.2325 9.64053C34.5474 9.83987 35.0309 10.3767 34.729 11.7424C34.4076 13.0311 33.4045 17.2571 33.3943 17.2997C33.3647 17.4258 33.2517 17.5111 33.1275 17.5111Z" fill="#44392E"/>
<path d="M18.7236 20.3977C18.7236 22.7249 16.8341 24.6163 14.5093 24.6163C12.1844 24.6163 10.2949 22.7249 10.2949 20.3977C10.2949 18.0706 12.1844 16.1699 14.5093 16.1699C16.8341 16.1699 18.7236 18.0613 18.7236 20.3977Z" fill="white"/>
<path d="M14.509 24.8913C12.0341 24.8913 10.0195 22.8756 10.0195 20.3973C10.0195 17.9191 12.0332 15.8942 14.509 15.8942C16.9848 15.8942 18.9984 17.9144 18.9984 20.3973C18.9984 22.8803 16.9848 24.8913 14.509 24.8913ZM14.509 16.4449C12.337 16.4449 10.5697 18.2185 10.5697 20.3973C10.5697 22.5762 12.337 24.3405 14.509 24.3405C16.681 24.3405 18.4482 22.5715 18.4482 20.3973C18.4482 18.2232 16.681 16.4449 14.509 16.4449Z" fill="#44392E"/>
<path d="M17.1205 20.2397C17.1205 21.6675 15.9627 22.8357 14.527 22.8357C13.0914 22.8357 11.9336 21.6675 11.9336 20.2397C11.9336 18.8119 13.1006 17.6437 14.527 17.6437C15.9534 17.6437 17.1205 18.8026 17.1205 20.2397Z" fill="#44392E"/>
<path d="M14.5274 23.1178C12.9417 23.1178 11.6523 21.8263 11.6523 20.2399C11.6523 18.6536 12.9426 17.3621 14.5274 17.3621C16.1121 17.3621 17.4024 18.6536 17.4024 20.2399C17.4024 21.8263 16.1121 23.1178 14.5274 23.1178ZM14.5274 17.9258C13.2529 17.9258 12.2155 18.9642 12.2155 20.2399C12.2155 21.5157 13.2529 22.5541 14.5274 22.5541C15.8019 22.5541 16.8392 21.5157 16.8392 20.2399C16.8392 18.9642 15.8019 17.9258 14.5274 17.9258Z" fill="#F930E7"/>
<path d="M15.352 17.6065C15.8336 18.0793 15.8336 18.8488 15.352 19.3217C14.8796 19.8038 14.1108 19.8038 13.6385 19.3217C13.1661 18.8488 13.1661 18.0793 13.6385 17.6065C14.1108 17.1243 14.8796 17.1243 15.352 17.6065Z" fill="white"/>
<path d="M34.5342 20.3977C34.5342 22.7249 32.6447 24.6163 30.3198 24.6163C27.995 24.6163 26.1055 22.7249 26.1055 20.3977C26.1055 18.0706 27.995 16.1699 30.3198 16.1699C32.6447 16.1699 34.5342 18.0613 34.5342 20.3977Z" fill="white"/>
<path d="M30.3195 24.8913C27.8446 24.8913 25.8301 22.8756 25.8301 20.3973C25.8301 17.9191 27.8437 15.8942 30.3195 15.8942C32.7953 15.8942 34.809 17.9144 34.809 20.3973C34.809 22.8803 32.7953 24.8913 30.3195 24.8913ZM30.3195 16.4449C28.1475 16.4449 26.3803 18.2185 26.3803 20.3973C26.3803 22.5762 28.1475 24.3405 30.3195 24.3405C32.4915 24.3405 34.2588 22.5715 34.2588 20.3973C34.2588 18.2232 32.4915 16.4449 30.3195 16.4449Z" fill="#44392E"/>
<path d="M32.9408 20.4339C32.9408 21.8617 31.7737 23.0299 30.3474 23.0299C28.921 23.0299 27.7539 21.8617 27.7539 20.4339C27.7539 19.0061 28.921 17.8379 30.3474 17.8379C31.7737 17.8379 32.9408 18.9968 32.9408 20.4339Z" fill="#44392E"/>
<path d="M30.3477 23.3124C28.762 23.3124 27.4727 22.0209 27.4727 20.4345C27.4727 18.8482 28.7629 17.5566 30.3477 17.5566C31.9325 17.5566 33.2227 18.8482 33.2227 20.4345C33.2227 22.0209 31.9325 23.3124 30.3477 23.3124ZM30.3477 18.1203C29.0732 18.1203 28.0358 19.1588 28.0358 20.4345C28.0358 21.7103 29.0732 22.7487 30.3477 22.7487C31.6222 22.7487 32.6595 21.7103 32.6595 20.4345C32.6595 19.1588 31.6222 18.1203 30.3477 18.1203Z" fill="#F930E7"/>
<path d="M31.1811 17.8019C31.6627 18.2747 31.6627 19.0443 31.1811 19.5171C30.7087 19.99 29.9399 19.99 29.4676 19.5171C28.9952 19.0443 28.9952 18.2747 29.4676 17.8019C29.9307 17.3291 30.6995 17.3291 31.1811 17.8019Z" fill="white"/>
<path d="M24.8272 27.7037C24.855 29.1037 23.8362 30.2997 22.4468 30.4944C21.0575 30.309 20.0294 29.113 20.0664 27.7037L22.4375 26.313L24.8272 27.7037Z" fill="#44392E"/>
<path d="M24.3638 29.354C23.3079 28.2507 21.5481 28.2507 20.4922 29.354L22.4465 30.207L24.3638 29.354Z" fill="#F930E7"/>
<path d="M20.7894 29.5009C20.7291 29.5009 20.6699 29.4778 20.6245 29.4314C20.5356 29.3405 20.5365 29.194 20.6282 29.1041C21.1256 28.6174 21.7721 28.3707 22.4501 28.4078C23.0281 28.3902 23.5977 28.5673 24.0571 28.9076C24.1599 28.9836 24.1812 29.1282 24.1053 29.2311C24.0293 29.334 23.8848 29.3554 23.782 29.2793C23.4022 28.9984 22.9308 28.8529 22.4547 28.8705H22.4436H22.4325C21.8823 28.8371 21.3553 29.0383 20.9496 29.4351C20.9042 29.4796 20.8459 29.5009 20.7884 29.5009H20.7894Z" fill="#44392E"/>
<path d="M22.6225 27.9163H22.2705C21.7852 27.9163 21.3906 27.5222 21.3906 27.0355C21.3906 26.5487 21.7843 26.1547 22.2705 26.1547H22.6225C23.1088 26.1547 23.5024 26.5487 23.5024 27.0355C23.5024 27.5222 23.1088 27.9163 22.6225 27.9163Z" fill="white"/>
<path d="M28.6151 27.1743C28.0593 27.6286 27.3924 27.916 26.6792 27.9995C25.966 28.0829 25.2528 28.018 24.5674 27.8048C23.8635 27.6286 23.2059 27.2763 22.6779 26.7756C22.4001 26.4882 22.2055 26.1359 22.1222 25.7465C22.1129 25.5611 22.1129 25.3756 22.1222 25.1809V24.6803C22.1129 24.4577 22.2796 24.2723 22.5019 24.263C22.7242 24.2538 22.9187 24.4299 22.928 24.6524V25.1531C22.9095 25.3015 22.9095 25.4498 22.928 25.5981C22.9651 25.867 23.0855 26.1266 23.28 26.3306C23.706 26.7942 24.2432 27.1558 24.836 27.3597C26.0494 27.8419 27.4202 27.6935 28.5132 26.9703C28.578 26.9147 28.6706 26.9147 28.7355 26.9703C28.7633 27.063 28.7077 27.165 28.6151 27.1743Z" fill="#44392E"/>
<path d="M16.7595 26.9618C17.2504 27.3605 17.871 27.5737 18.5101 27.5737C19.1492 27.5923 19.779 27.481 20.3718 27.2399C20.9368 27.0452 21.4462 26.6837 21.8167 26.2108C21.9742 25.9976 22.0483 25.7472 22.0483 25.4876V24.4585C22.039 24.236 22.2243 24.0505 22.4373 24.0505C22.6503 24.0505 22.8356 24.236 22.8541 24.4492V25.4784C22.8263 25.8956 22.6689 26.285 22.4002 26.6002C21.9093 27.175 21.2702 27.583 20.5478 27.7962C19.8809 28.0095 19.1862 28.0929 18.4916 28.0188C17.7784 27.9631 17.1115 27.6664 16.5835 27.1843C16.4909 27.0545 16.6391 26.8876 16.778 26.9711L16.7595 26.9618Z" fill="#44392E"/>
<path d="M22.4512 30.5463C21.2508 30.5463 19.8864 29.7685 19.728 28.0597C19.7104 27.8678 19.8512 27.6972 20.0439 27.6796C20.2365 27.662 20.406 27.8029 20.4236 27.9957C20.5422 29.2752 21.5277 29.8482 22.4512 29.8482C23.3746 29.8482 24.3601 29.2752 24.4796 27.9957C24.4972 27.8038 24.6676 27.662 24.8594 27.6796C25.0511 27.6972 25.1928 27.8678 25.1752 28.0597C25.0168 29.7685 23.6525 30.5463 22.4512 30.5463Z" fill="#44392E"/>
<path d="M20.4281 24.4493C20.3633 24.2732 20.4096 24.0785 20.5392 23.9487C21.0672 23.4573 21.7804 23.207 22.4936 23.244C23.179 23.1791 23.8644 23.4202 24.3553 23.9023C24.4757 24.0507 24.5035 24.2454 24.4387 24.4215C24.346 24.6533 24.1238 24.8109 23.8737 24.8109C23.4754 24.8017 23.0864 24.9871 22.8456 25.3116L22.79 25.3858C22.577 25.6083 22.225 25.6083 22.0212 25.3858C22.0212 25.3858 21.7989 24.9871 20.9931 24.9222C20.743 24.8944 20.53 24.7275 20.4466 24.4957L20.4281 24.4493ZM19.2888 25.358C17.7328 25.0056 16.1119 25.052 14.5743 25.4878C13.0275 25.9606 11.6752 26.9341 10.7305 28.2507C11.6196 26.8507 12.9349 25.7844 14.4724 25.2096C16.047 24.6626 17.7328 24.5142 19.3722 24.7831C19.5297 24.8109 19.6408 24.9593 19.6223 25.1169C19.6038 25.2745 19.4463 25.3858 19.2981 25.3487H19.2888V25.358Z" fill="#44392E"/>
<path d="M19.3439 26.0626C18.2787 25.9421 17.2136 26.1275 16.2595 26.6004C15.3518 27.203 14.7498 28.1858 14.6201 29.2706C14.6757 28.7143 14.8146 28.1765 15.0369 27.6666C15.2685 27.1567 15.6204 26.7024 16.065 26.3686C17.0468 25.7752 18.1676 25.4693 19.3161 25.4971C19.4736 25.4878 19.6032 25.6083 19.6032 25.766C19.6125 25.9236 19.4921 26.0534 19.3346 26.0626H19.3439ZM25.4755 24.7832C27.115 24.5143 28.8007 24.6626 30.3753 25.2097C31.9221 25.7845 33.2373 26.8507 34.1173 28.2507C33.1818 26.9249 31.8295 25.9514 30.2827 25.4878C28.7544 25.052 27.1335 24.9964 25.5774 25.358C25.4107 25.4229 25.2254 25.3209 25.1884 25.1448C25.1514 24.9686 25.281 24.8017 25.4663 24.8017L25.4755 24.7832Z" fill="#44392E"/>
<path d="M25.5214 25.487C26.6607 25.4592 27.7907 25.7652 28.7725 26.3586C29.2264 26.6923 29.5783 27.1466 29.8006 27.6566C30.0229 28.1665 30.1619 28.7043 30.2082 29.2605C30.0785 28.1758 29.4857 27.193 28.578 26.5903C27.624 26.1175 26.5496 25.9228 25.4937 26.0526C25.3269 26.0433 25.1973 25.9043 25.2065 25.7374C25.1973 25.5798 25.3269 25.45 25.4844 25.45L25.5214 25.487Z" fill="#44392E"/>
<path d="M184.12 26.7184H186.9C187.2 27.7268 188.1 28.2447 189.299 28.2447C190.553 28.2447 191.37 27.7541 191.37 26.8001C191.37 26.146 190.961 25.7916 189.953 25.5463L187.445 24.9467C185.728 24.5378 184.447 23.6111 184.447 21.6214C184.447 19.4409 186.382 17.8328 189.026 17.8328C191.861 17.8328 193.469 19.1956 193.878 21.4034H191.207C190.961 20.6129 190.253 20.0678 188.999 20.0678C188.045 20.0678 187.064 20.5039 187.064 21.4579C187.064 22.003 187.445 22.3573 188.318 22.5754L190.88 23.175C192.951 23.6656 193.987 24.8377 193.987 26.6093C193.987 29.0079 191.997 30.4797 189.272 30.4797C186.437 30.4797 184.474 29.0624 184.12 26.7184Z" fill="#31323D"/>
<path d="M180.116 26.4458H182.624C182.215 28.8444 180.443 30.4797 177.527 30.4797C174.147 30.4797 171.803 27.9176 171.803 24.1835C171.803 20.5584 174.174 17.8328 177.472 17.8328C180.879 17.8328 182.733 20.2586 182.733 23.8019V24.7831H174.474C174.556 26.9091 175.782 28.1902 177.527 28.1902C178.835 28.1902 179.816 27.6178 180.116 26.4458ZM177.499 20.1223C176 20.1223 174.883 21.049 174.556 22.7934H180.034C180.007 21.3216 179.162 20.1223 177.499 20.1223Z" fill="#31323D"/>
<path d="M169.55 18.105V30.2069H166.824V18.105H169.55ZM169.877 14.4527C169.877 15.3794 169.086 16.1153 168.187 16.1153C167.288 16.1153 166.497 15.3794 166.497 14.4527C166.497 13.526 167.288 12.79 168.187 12.79C169.086 12.79 169.877 13.526 169.877 14.4527Z" fill="#31323D"/>
<path d="M158.593 26.9364V20.3676H156.686V18.1053H158.593V14.8618H161.319V18.1053H164.045V20.3676H161.319V26.6366C161.319 27.6178 161.864 28.0539 162.764 28.0539C163.309 28.0539 163.936 27.8359 164.317 27.5633V30.0436C163.854 30.3162 163.118 30.4797 162.273 30.4797C160.12 30.4797 158.593 29.335 158.593 26.9364Z" fill="#31323D"/>
<path d="M149.737 26.9364V20.3676H147.829V18.1053H149.737V14.8618H152.463V18.1053H155.188V20.3676H152.463V26.6366C152.463 27.6178 153.008 28.0539 153.907 28.0539C154.452 28.0539 155.079 27.8359 155.461 27.5633V30.0436C154.998 30.3162 154.262 30.4797 153.417 30.4797C151.263 30.4797 149.737 29.335 149.737 26.9364Z" fill="#31323D"/>
<path d="M146.013 18.105V30.2069H143.287V18.105H146.013ZM146.34 14.4527C146.34 15.3794 145.549 16.1153 144.65 16.1153C143.75 16.1153 142.96 15.3794 142.96 14.4527C142.96 13.526 143.75 12.79 144.65 12.79C145.549 12.79 146.34 13.526 146.34 14.4527Z" fill="#31323D"/>
<path d="M130.694 13.4714V21.4848L137.644 13.4714H141.215L134.455 21.076L141.46 30.2069H137.917L132.411 23.0384L130.694 25.0009V30.2069H127.859V13.4714H130.694Z" fill="#31323D"/>
<path d="M125.423 24.1563C125.423 27.8631 123.079 30.4797 119.672 30.4797C116.265 30.4797 113.921 27.8631 113.921 24.1563C113.921 20.4494 116.265 17.8328 119.672 17.8328C123.079 17.8328 125.423 20.4494 125.423 24.1563ZM122.697 24.1563C122.697 21.8667 121.634 20.1768 119.672 20.1768C117.71 20.1768 116.647 21.8667 116.647 24.1563C116.647 26.4458 117.71 28.1357 119.672 28.1357C121.634 28.1357 122.697 26.4458 122.697 24.1563Z" fill="#31323D"/>
<path d="M106.669 26.9364V20.3676H104.761V18.1053H106.669V14.8618H109.394V18.1053H112.12V20.3676H109.394V26.6366C109.394 27.6178 109.939 28.0539 110.839 28.0539C111.384 28.0539 112.011 27.8359 112.393 27.5633V30.0436C111.929 30.3162 111.193 30.4797 110.348 30.4797C108.195 30.4797 106.669 29.335 106.669 26.9364Z" fill="#31323D"/>
<path d="M95.0919 29.1714V34.8408H92.3662V18.1053H95.0919V19.1411C95.637 18.4597 96.8363 17.8328 98.1718 17.8328C101.715 17.8328 103.787 20.7765 103.787 24.1562C103.787 27.536 101.715 30.4797 98.1718 30.4797C96.8363 30.4797 95.637 29.8528 95.0919 29.1714ZM95.0919 21.8667V26.4458C95.5552 27.3998 96.591 28.0539 97.7085 28.0539C99.8072 28.0539 101.061 26.3913 101.061 24.1562C101.061 21.9212 99.8072 20.2586 97.7085 20.2586C96.591 20.2586 95.5552 20.9127 95.0919 21.8667Z" fill="#31323D"/>
<path d="M84.0914 34.8408H81.4475L83.1647 30.5343L78.4766 18.1053H81.393L84.5547 27.0182L87.662 18.1053H90.4694L84.0914 34.8408Z" fill="#31323D"/>
<path d="M77.4451 18.0508V20.8582C77.0635 20.5857 76.4094 20.4494 75.837 20.4494C74.7195 20.4494 73.6838 21.0763 73.4112 22.3846V30.2072H70.6855V18.1053H73.4112V19.3591C73.8745 18.4597 74.9375 17.8328 76.1096 17.8328C76.7092 17.8328 77.2543 17.9418 77.4451 18.0508Z" fill="#31323D"/>
<path d="M53.959 21.8388C53.959 16.6873 57.257 13.1985 61.5635 13.1985C65.3522 13.1985 67.7507 15.379 68.3776 18.7315H65.5975C64.9433 16.9599 63.7985 15.7606 61.5635 15.7606C58.6198 15.7606 56.8209 18.3227 56.8209 21.8388C56.8209 25.3276 58.5926 27.9169 61.5635 27.9169C63.7985 27.9169 64.9433 26.7177 65.5975 24.9187H68.3776C67.7507 28.2985 65.3249 30.479 61.5635 30.479C57.257 30.479 53.959 26.9902 53.959 21.8388Z" fill="#31323D"/>
</svg>
