<svg width="386" height="91" viewBox="0 0 386 91" fill="none" xmlns="http://www.w3.org/2000/svg">
<g clip-path="url(#clip0_21877_517001)">
<path d="M31.1909 20.2949H0V27.1815C0 30.195 2.44256 32.6374 5.45613 32.6374H31.306C43.89 32.6374 54.3051 42.7068 54.405 55.2924C54.507 67.9063 44.3655 78.2166 31.7489 78.3209C31.6881 78.3209 31.6251 78.3209 31.5644 78.3209H5.45613C2.44256 78.3209 0 80.7633 0 83.7767V90.6633H31.5644C50.9311 90.6633 66.6568 75.01 66.748 55.6441C66.837 36.2023 50.6337 20.2949 31.1909 20.2949Z" fill="black"/>
<path d="M139.488 78.5557H78.6611V90.4335H144.994V84.0615C144.994 81.022 142.532 78.5578 139.493 78.5557H139.491H139.488Z" fill="black"/>
<path d="M144.035 27.3058V21.3506H78.6611V33.2285H138.112C141.382 33.2285 144.035 30.5776 144.035 27.308V27.3058Z" fill="black"/>
<path d="M138.225 56.2845V49.7344H78.6611V61.6122H132.899C135.841 61.6122 138.225 59.2284 138.225 56.2866V56.2845Z" fill="black"/>
<path d="M207.728 27.1856V45.3053H169.733V27.1856C169.733 23.7466 167.199 20.959 164.073 20.959H157.11V90.6044H163.925C167.134 90.6044 169.735 88.0035 169.735 84.7947V57.9278H207.73V84.7947C207.73 88.0035 210.331 90.6044 213.54 90.6044H220.356V20.959H213.393C210.266 20.959 207.73 23.7466 207.73 27.1856H207.728Z" fill="black"/>
<path d="M377.921 54.2032C380.691 50.6426 382.203 46.2636 382.216 41.7521C382.274 30.404 372.769 21.1162 361.418 21.1162H314.438V27.6402C314.438 30.8534 317.044 33.4587 320.257 33.4587H361.527C366.017 33.4587 369.794 37.0062 369.87 41.496C369.949 46.0183 366.349 49.746 361.826 49.8263C361.781 49.8263 361.737 49.8263 361.692 49.8263H314.436V56.3503C314.436 59.5635 317.042 62.1688 320.255 62.1688H365.304C369.868 62.1688 373.674 65.8335 373.653 70.3949C373.646 72.6051 372.743 74.7175 371.147 76.2481C369.573 77.7375 367.482 78.5581 365.317 78.5386H320.257C317.044 78.5386 314.438 81.1439 314.438 84.357V90.8811H365.237C370.752 90.9093 376.052 88.7513 379.977 84.8781C383.855 81.0245 386.026 75.777 385.998 70.3103C385.983 63.7927 382.791 57.9613 377.921 54.2032Z" fill="black"/>
<path d="M258.119 76.9463C250.326 73.1969 245.37 65.3181 245.363 56.6708V26.7753C245.363 23.5621 242.76 20.959 239.547 20.959H233.02V56.6708C233.022 73.4422 244.977 87.8298 261.464 90.9062V82.2111C261.456 79.9597 260.155 77.9124 258.119 76.9485V76.9463Z" fill="black"/>
<path d="M290.31 26.7753V56.6708C290.302 65.4853 285.147 73.4835 277.125 77.133C275.027 78.0687 273.673 80.1443 273.66 82.4412V91.0017C290.095 88.2228 302.656 73.8851 302.656 56.6729V20.959H296.129C292.918 20.959 290.312 23.5621 290.312 26.7731L290.31 26.7753Z" fill="black"/>
<path d="M274.335 0.301777C274.335 0.134606 274.2 0 274.033 0H267.455C264.439 0 261.992 2.44461 261.992 5.46239V46.2197C261.992 46.3869 262.127 46.5215 262.294 46.5215H269.12C272.001 46.5215 274.337 44.1854 274.337 41.3066V0.301777H274.335Z" fill="black"/>
</g>
<defs>
<clipPath id="clip0_21877_517001">
<rect width="386" height="91" fill="white"/>
</clipPath>
</defs>
</svg>
