<svg width="157" height="37" viewBox="0 0 157 37" fill="none" xmlns="http://www.w3.org/2000/svg">
<g clip-path="url(#clip0_13_19)">
<mask id="mask0_13_19" style="mask-type:luminance" maskUnits="userSpaceOnUse" x="0" y="0" width="157" height="37">
<path d="M157 0H0V37H157V0Z" fill="white"/>
</mask>
<g mask="url(#mask0_13_19)">
<path d="M12.6865 8.25183H0V11.0519C0 12.2771 0.993476 13.2702 2.2192 13.2702H12.7333C17.8516 13.2702 22.0878 17.3644 22.1285 22.4816C22.1699 27.6103 18.045 31.8024 12.9134 31.8448C12.8887 31.8448 12.8631 31.8448 12.8384 31.8448H2.2192C0.993476 31.8448 0 32.8379 0 34.0631V36.8632H12.8384C20.7155 36.8632 27.1117 30.4986 27.1488 22.6246C27.185 14.7197 20.5945 8.25183 12.6865 8.25183Z" fill="black"/>
<path d="M56.7347 31.9402H31.9943V36.7696H58.9742V34.1788C58.9742 32.943 57.9728 31.941 56.7368 31.9402H56.736H56.7347Z" fill="black"/>
<path d="M58.5842 11.1024V8.68103H31.9943V13.5105H56.1751C57.5051 13.5105 58.5842 12.4327 58.5842 11.1033V11.1024Z" fill="black"/>
<path d="M56.221 22.8849V20.2217H31.9943V25.0511H54.0548C55.2514 25.0511 56.221 24.0819 56.221 22.8858V22.8849Z" fill="black"/>
<path d="M84.4904 11.0535V18.4209H69.0365V11.0535C69.0365 9.65527 68.0058 8.52185 66.7344 8.52185H63.9023V36.8392H66.6742C67.9794 36.8392 69.0373 35.7817 69.0373 34.477V23.5531H84.4912V34.477C84.4912 35.7817 85.5492 36.8392 86.8544 36.8392H89.6267V8.52185H86.7946C85.5227 8.52185 84.4912 9.65527 84.4912 11.0535H84.4904Z" fill="black"/>
<path d="M153.714 22.0387C154.841 20.5909 155.456 18.8105 155.461 16.9761C155.484 12.3621 151.618 8.58569 147.002 8.58569H127.893V11.2383C127.893 12.5448 128.953 13.6041 130.26 13.6041H147.046C148.872 13.6041 150.408 15.0465 150.439 16.872C150.471 18.7107 149.007 20.2264 147.168 20.259C147.149 20.259 147.131 20.259 147.113 20.259H127.892V22.9116C127.892 24.2181 128.952 25.2774 130.259 25.2774H148.582C150.439 25.2774 151.987 26.7675 151.978 28.6221C151.975 29.5207 151.608 30.3796 150.959 31.002C150.319 31.6075 149.468 31.9412 148.587 31.9333H130.26C128.953 31.9333 127.893 32.9926 127.893 34.299V36.9516H148.555C150.798 36.9631 152.954 36.0857 154.55 34.5109C156.128 32.944 157.011 30.8104 156.999 28.5877C156.993 25.9377 155.695 23.5667 153.714 22.0387Z" fill="black"/>
<path d="M104.986 31.2859C101.817 29.7614 99.8008 26.558 99.7979 23.042V10.8867C99.7979 9.58025 98.7392 8.52185 97.4323 8.52185H94.7776V23.042C94.7784 29.8612 99.6409 35.7111 106.347 36.9619V33.4266C106.344 32.5111 105.814 31.6787 104.986 31.2868V31.2859Z" fill="black"/>
<path d="M118.079 10.8867V23.042C118.076 26.626 115.979 29.878 112.717 31.3618C111.863 31.7423 111.313 32.5862 111.307 33.5201V37.0008C117.992 35.8709 123.101 30.0413 123.101 23.0429V8.52185H120.446C119.14 8.52185 118.08 9.58025 118.08 10.8858L118.079 10.8867Z" fill="black"/>
<path d="M111.582 0.122701C111.582 0.0547299 111.527 0 111.459 0H108.784C107.557 0 106.562 0.993962 106.562 2.22097V18.7926C106.562 18.8606 106.616 18.9153 106.684 18.9153H109.461C110.633 18.9153 111.583 17.9655 111.583 16.795V0.122701H111.582Z" fill="black"/>
</g>
</g>
<defs>
<clipPath id="clip0_13_19">
<rect width="157" height="37" fill="white"/>
</clipPath>
</defs>
</svg>
