<svg width="184" height="40" viewBox="0 0 184 40" fill="none" xmlns="http://www.w3.org/2000/svg">
<path d="M138.108 10.9346H133.287L133.14 11.2301L134.298 12.8001L133.728 19.5862L134.162 24.2962L129.926 13.6054C129.778 13.3062 129.635 13.1584 129.488 13.1584H128.318C128.171 13.1584 128.028 13.3062 127.881 13.6054L123.644 24.2962L124.078 19.5862L123.508 12.8001L124.667 11.2301L124.52 10.9346H119.702C119.702 10.9346 119.264 11.2301 119.117 11.5293L120.059 13.3542L121.397 28.7883L120.14 30.8348L120.287 31.1304H123.354C124.086 31.1304 124.523 30.9826 125.108 29.7931L128.907 20.1403L132.702 29.7931C133.287 30.9826 133.724 31.1304 134.456 31.1304H137.523L137.67 30.8348L136.413 28.7883L137.751 13.3542L138.693 11.5293C138.546 11.2338 138.108 10.9346 138.108 10.9346ZM34.6047 11.5293C34.4576 11.2338 34.02 10.9346 34.02 10.9346H31.2434C30.5116 10.9346 30.3682 11.0823 29.9306 11.9763L25.2565 22.2238L20.5824 11.9763C20.1447 11.086 19.9976 10.9346 19.2695 10.9346H16.493C16.493 10.9346 16.0554 11.2301 15.9083 11.5293L17.2211 14.082V29.25L16.0517 30.8348L16.1988 31.1304H20.7258V25.1902L19.5563 18.0605L24.2304 28.4558C24.3775 28.7513 24.521 28.9028 24.6681 28.9028H25.8375C25.9846 28.9028 26.128 28.755 26.2751 28.4558L30.9492 18.0605L29.7798 25.1902V31.1304H34.3068L34.4539 30.8348L33.2845 29.25V14.082L34.5973 11.5293H34.6047ZM74.0349 22.8149L75.0572 22.2201C76.0796 21.6254 76.5172 21.0306 76.5172 19.697V13.3099C76.5172 11.9726 75.3477 10.9346 74.182 10.9346H63.9585C63.9585 10.9346 63.8114 11.2301 63.668 11.5293L65.8598 14.4994V28.4595L64.1056 30.8348L64.2527 31.1304H70.0926L70.2397 30.8348L69.3644 29.3498V13.9046H72.5786C73.0162 13.9046 73.3104 14.2002 73.3104 14.6472V18.8068C73.3104 19.8448 73.3104 19.9963 72.288 20.5873L69.9528 21.7768L73.6046 29.8448L72.8728 30.8348L73.0199 31.1304H78.0948L78.2419 30.8348C78.2419 30.8348 77.6094 30.1884 77.238 29.8153L74.0422 22.8149H74.0349ZM14.1614 23.7052L12.2639 27.5655C12.1168 28.0125 11.8262 28.1603 11.2415 28.1603H7.88395V23.2619H10.5869L12.3411 20.8865C12.194 20.5873 12.0506 20.2918 12.0506 20.2918H7.88763V13.9083H10.8076C11.3923 13.9083 11.5394 14.0561 11.8299 14.5031L13.2899 16.7307L14.3122 16.8784L14.6027 11.533C14.6027 11.3853 13.4333 10.9383 12.9957 10.9383H2.47802C2.47802 10.9383 2.33092 11.2338 2.1875 11.533L4.37929 14.5031V28.4632L2.62512 30.8385L2.77222 31.1341H13.8709C14.1614 30.9863 14.7462 30.5393 14.8933 30.3915L14.7462 23.7089H14.1614V23.7052ZM59.8176 27.5655C59.5271 28.0125 59.38 28.1603 58.7953 28.1603H55.4377V23.2619H58.1407L59.8949 20.8865C59.8949 20.5873 59.586 20.2918 59.586 20.2918H55.4414V13.9083H58.3613C58.9461 13.9083 59.0932 14.0561 59.3837 14.5031L60.8437 16.7307L61.866 16.8784L62.1565 11.533C62.1565 11.3853 60.9871 10.9383 60.5495 10.9383H50.0355C50.0355 10.9383 49.8884 11.2338 49.745 11.533L51.9367 14.5031V28.4632L50.1826 30.8385L50.3297 31.1341H60.6966C61.1342 31.1341 62.3036 30.6908 62.3036 30.5393V25.4894L61.2813 25.3417L59.8213 27.5692L59.8176 27.5655ZM46.6301 20.3398L47.3104 19.9926C47.8952 19.697 48.3328 19.25 48.3328 18.0605V13.3099C48.3328 11.9726 47.1633 10.9346 45.9976 10.9346H35.7741C35.7741 10.9346 35.627 11.2301 35.4836 11.5293L37.6754 14.4994V29.0543L36.0683 30.6871C36.2154 30.9826 36.3589 31.1304 36.3589 31.1304H46.5823C47.7518 31.1304 48.9175 30.0923 48.9175 28.755V23.5574C48.9175 22.6671 48.627 22.3679 48.0423 21.7768L46.6301 20.3398ZM45.9976 26.9745C45.9976 27.5692 45.56 28.164 44.8281 28.164H41.1764V13.9046H44.3905C44.8281 13.9046 45.1223 14.2002 45.1223 14.6472V16.727C45.1223 17.765 45.1223 17.9165 44.1 18.5075L41.7648 19.697L45.4165 23.4096C46.0013 24.0044 46.0013 24.1522 46.0013 24.8947V26.9745H45.9976ZM115.804 20.7388L111.424 18.5112C110.402 17.9165 110.402 17.7687 110.402 16.7307V14.9501C110.402 14.3553 110.839 13.912 111.424 13.912H113.469C113.906 13.912 114.201 14.2076 114.201 14.6546V15.8441C114.201 16.2911 114.491 16.4388 114.785 16.5866L117.12 17.7761L117.705 17.6283V12.7299C117.705 11.6882 116.83 10.9457 115.955 10.9457H109.236C107.923 10.9457 106.901 11.8359 106.901 13.321V17.7761C106.901 19.4089 107.338 20.1514 108.798 20.8939L112.303 22.6745L113.763 23.417C114.638 23.864 114.785 24.1595 114.785 25.1976V26.6826C114.785 27.7207 114.348 28.1677 113.325 28.1677H111.133C110.696 28.1677 110.402 27.8721 110.402 27.4251V25.4931C110.402 24.7506 110.111 24.4551 109.526 24.1558L107.482 23.1178L106.897 23.5648V29.3572C106.897 30.3952 107.772 31.1377 108.651 31.1377H115.955C117.124 31.1377 118.29 30.0997 118.29 28.7624V24.4551C118.29 22.2275 117.705 21.6328 115.808 20.7425L115.804 20.7388ZM149.063 10.9383H142.344C141.175 10.9383 140.009 11.98 140.009 13.3136V28.7587C140.009 30.096 141.179 31.1341 142.344 31.1341H149.063C150.233 31.1341 151.398 30.096 151.398 28.7587V13.3099C151.398 11.9726 150.229 10.9346 149.063 10.9346V10.9383ZM148.188 27.4215C148.188 27.8684 147.897 28.164 147.456 28.164H143.952C143.514 28.164 143.22 27.8684 143.22 27.4215V14.4994C143.22 14.2039 143.51 13.9046 143.804 13.9046H147.456C147.894 13.9046 148.188 14.2002 148.188 14.6472V27.4178V27.4215ZM178.711 10.9383H167.613C167.613 10.9383 167.465 11.2338 167.322 11.533L169.514 14.5031V29.2537L168.344 30.8385L168.492 31.1341H178.715C179.884 31.1341 181.05 30.096 181.05 28.7587V13.3099C181.05 11.9726 179.881 10.9346 178.715 10.9346L178.711 10.9383ZM177.836 26.9782C177.836 27.5729 177.398 28.1677 176.667 28.1677H173.015V13.9046H176.667C177.398 13.9046 177.836 14.4994 177.836 15.0942V26.9745V26.9782ZM162.942 22.8186L163.964 22.2238C164.987 21.6291 165.424 21.0343 165.424 19.7007V13.3136C165.424 11.9763 164.255 10.9383 163.089 10.9383H152.866C152.866 10.9383 152.719 11.2338 152.575 11.533L154.767 14.5031V28.4632L153.017 30.8385L153.164 31.1341H159.004L159.151 30.8385L158.275 29.3535V13.9046H161.49C161.927 13.9046 162.221 14.2002 162.221 14.6472V18.8068C162.221 19.8448 162.221 19.9963 161.199 20.5873L158.864 21.7768L162.516 29.8448L161.784 30.8348L161.931 31.1304H167.006L167.153 30.8348C167.153 30.8348 166.52 30.1884 166.149 29.8153L162.953 22.8149L162.942 22.8186Z" fill="white"/>
<path d="M93.5182 30.905C93.5329 26.9486 94.1839 20.2142 94.6509 18.0384C94.3383 16.9375 92.7643 14.0746 91.8229 12.97C90.8815 14.0709 89.3075 16.9338 88.9949 18.0384C89.462 20.2142 90.1092 26.9523 90.1276 30.905C85.8837 30.4691 80.9375 26.2763 80.9375 20.2031C80.9375 18.973 81.7502 17.0668 82.4931 16.0251C81.787 18.9176 83.1992 21.3594 84.615 21.3594C85.2291 21.3594 86.4538 21.0528 86.4538 18.755C86.4538 16.4573 84.4753 14.1263 83.9089 13.5463C84.9533 10.7794 87.9358 6.80085 90.5542 5.15697C89.9694 5.9549 89.5649 7.59878 89.5649 8.48168C89.5649 10.5245 90.7528 11.086 91.8266 11.086C93.099 11.086 93.9485 10.2179 93.9485 8.48168C93.9485 6.30214 92.2532 3.27296 90.9808 2.1167C92.9593 2.54891 98.7587 7.61356 100.031 12.0982C98.0526 13.9785 97.2031 15.7148 97.2031 17.5951C97.2031 18.7957 98.0342 20.0554 99.0235 20.0554C101.031 20.0554 101.304 16.8747 100.881 15.1385C101.587 16.0066 102.719 18.611 102.719 20.3472C102.719 26.4167 97.7694 30.4839 93.5293 30.905H93.5182ZM91.1131 32.0613L91.8192 31.3372L92.5253 32.0613C92.8085 32.3494 92.9482 32.4935 93.2314 32.4935C95.2099 32.4935 96.6257 31.7694 96.6257 31.7694C96.3426 33.5057 95.6365 34.806 95.6365 34.806L94.9304 34.082L92.9519 34.226C92.7533 34.2371 92.6687 34.3701 92.6687 34.5142L92.8122 36.2504L93.3785 37.4067C92.6724 38.2748 91.8229 39.1429 91.8229 39.1429C91.8229 39.1429 90.8337 38.2748 90.2673 37.4067L90.8337 36.2504L90.9734 34.5142C90.9734 34.3701 90.8925 34.2371 90.6902 34.226L88.7117 34.082L88.0057 34.806C88.0057 34.806 87.2996 33.5057 87.0164 31.7694C87.0164 31.7694 88.4323 32.4935 90.4107 32.4935C90.6939 32.4935 90.8337 32.3494 91.1168 32.0613H91.1131Z" fill="#E93249"/>
</svg>
