<svg width="184" height="40" viewBox="0 0 184 40" fill="none" xmlns="http://www.w3.org/2000/svg">
<path d="M138.109 10.9346H133.288L133.141 11.2301L134.299 12.8001L133.729 19.5862L134.163 24.2962L129.926 13.6054C129.779 13.3062 129.636 13.1584 129.489 13.1584H128.319C128.172 13.1584 128.029 13.3062 127.882 13.6054L123.645 24.2962L124.079 19.5862L123.509 12.8001L124.668 11.2301L124.521 10.9346H119.703C119.703 10.9346 119.265 11.2301 119.118 11.5293L120.06 13.3542L121.398 28.7883L120.141 30.8348L120.288 31.1304H123.355C124.087 31.1304 124.524 30.9826 125.109 29.7931L128.908 20.1403L132.703 29.7931C133.288 30.9826 133.725 31.1304 134.457 31.1304H137.524L137.671 30.8348L136.414 28.7883L137.752 13.3542L138.694 11.5293C138.547 11.2338 138.109 10.9346 138.109 10.9346ZM34.6057 11.5293C34.4586 11.2338 34.0209 10.9346 34.0209 10.9346H31.2444C30.5126 10.9346 30.3692 11.0823 29.9316 11.9763L25.2574 22.2238L20.5833 11.9763C20.1457 11.086 19.9986 10.9346 19.2705 10.9346H16.494C16.494 10.9346 16.0563 11.2301 15.9092 11.5293L17.2221 14.082V29.25L16.0527 30.8348L16.1998 31.1304H20.7268V25.1902L19.5573 18.0605L24.2314 28.4558C24.3785 28.7513 24.5219 28.9028 24.669 28.9028H25.8385C25.9856 28.9028 26.129 28.755 26.2761 28.4558L30.9502 18.0605L29.7808 25.1902V31.1304H34.3078L34.4549 30.8348L33.2854 29.25V14.082L34.5983 11.5293H34.6057ZM74.0358 22.8149L75.0582 22.2201C76.0805 21.6254 76.5182 21.0306 76.5182 19.697V13.3099C76.5182 11.9726 75.3487 10.9346 74.1829 10.9346H63.9595C63.9595 10.9346 63.8124 11.2301 63.669 11.5293L65.8607 14.4994V28.4595L64.1066 30.8348L64.2537 31.1304H70.0936L70.2407 30.8348L69.3654 29.3498V13.9046H72.5795C73.0172 13.9046 73.3114 14.2002 73.3114 14.6472V18.8068C73.3114 19.8448 73.3114 19.9963 72.289 20.5873L69.9538 21.7768L73.6056 29.8448L72.8737 30.8348L73.0208 31.1304H78.0958L78.2429 30.8348C78.2429 30.8348 77.6104 30.1884 77.2389 29.8153L74.0432 22.8149H74.0358ZM14.1624 23.7052L12.2648 27.5655C12.1177 28.0125 11.8272 28.1603 11.2425 28.1603H7.88493V23.2619H10.5879L12.3421 20.8865C12.195 20.5873 12.0515 20.2918 12.0515 20.2918H7.88861V13.9083H10.8085C11.3933 13.9083 11.5404 14.0561 11.8309 14.5031L13.2909 16.7307L14.3132 16.8784L14.6037 11.533C14.6037 11.3853 13.4343 10.9383 12.9967 10.9383H2.479C2.479 10.9383 2.3319 11.2338 2.18848 11.533L4.38027 14.5031V28.4632L2.6261 30.8385L2.7732 31.1341H13.8719C14.1624 30.9863 14.7471 30.5393 14.8942 30.3915L14.7471 23.7089H14.1624V23.7052ZM59.8186 27.5655C59.5281 28.0125 59.381 28.1603 58.7963 28.1603H55.4387V23.2619H58.1417L59.8958 20.8865C59.8958 20.5873 59.5869 20.2918 59.5869 20.2918H55.4424V13.9083H58.3623C58.947 13.9083 59.0941 14.0561 59.3847 14.5031L60.8446 16.7307L61.867 16.8784L62.1575 11.533C62.1575 11.3853 60.9881 10.9383 60.5504 10.9383H50.0365C50.0365 10.9383 49.8894 11.2338 49.7459 11.533L51.9377 14.5031V28.4632L50.1836 30.8385L50.3307 31.1341H60.6975C61.1352 31.1341 62.3046 30.6908 62.3046 30.5393V25.4894L61.2823 25.3417L59.8223 27.5692L59.8186 27.5655ZM46.6311 20.3398L47.3114 19.9926C47.8961 19.697 48.3338 19.25 48.3338 18.0605V13.3099C48.3338 11.9726 47.1643 10.9346 45.9986 10.9346H35.7751C35.7751 10.9346 35.628 11.2301 35.4846 11.5293L37.6764 14.4994V29.0543L36.0693 30.6871C36.2164 30.9826 36.3598 31.1304 36.3598 31.1304H46.5833C47.7527 31.1304 48.9185 30.0923 48.9185 28.755V23.5574C48.9185 22.6671 48.628 22.3679 48.0433 21.7768L46.6311 20.3398ZM45.9986 26.9745C45.9986 27.5692 45.5609 28.164 44.8291 28.164H41.1774V13.9046H44.3915C44.8291 13.9046 45.1233 14.2002 45.1233 14.6472V16.727C45.1233 17.765 45.1233 17.9165 44.101 18.5075L41.7658 19.697L45.4175 23.4096C46.0022 24.0044 46.0022 24.1522 46.0022 24.8947V26.9745H45.9986ZM115.805 20.7388L111.425 18.5112C110.403 17.9165 110.403 17.7687 110.403 16.7307V14.9501C110.403 14.3553 110.84 13.912 111.425 13.912H113.47C113.907 13.912 114.202 14.2076 114.202 14.6546V15.8441C114.202 16.2911 114.492 16.4388 114.786 16.5866L117.121 17.7761L117.706 17.6283V12.7299C117.706 11.6882 116.831 10.9457 115.956 10.9457H109.237C107.924 10.9457 106.902 11.8359 106.902 13.321V17.7761C106.902 19.4089 107.339 20.1514 108.799 20.8939L112.304 22.6745L113.764 23.417C114.639 23.864 114.786 24.1595 114.786 25.1976V26.6826C114.786 27.7207 114.349 28.1677 113.326 28.1677H111.134C110.697 28.1677 110.403 27.8721 110.403 27.4251V25.4931C110.403 24.7506 110.112 24.4551 109.527 24.1558L107.483 23.1178L106.898 23.5648V29.3572C106.898 30.3952 107.773 31.1377 108.652 31.1377H115.956C117.125 31.1377 118.291 30.0997 118.291 28.7624V24.4551C118.291 22.2275 117.706 21.6328 115.809 20.7425L115.805 20.7388ZM149.064 10.9383H142.345C141.176 10.9383 140.01 11.98 140.01 13.3136V28.7587C140.01 30.096 141.18 31.1341 142.345 31.1341H149.064C150.234 31.1341 151.399 30.096 151.399 28.7587V13.3099C151.399 11.9726 150.23 10.9346 149.064 10.9346V10.9383ZM148.189 27.4215C148.189 27.8684 147.898 28.164 147.457 28.164H143.952C143.515 28.164 143.221 27.8684 143.221 27.4215V14.4994C143.221 14.2039 143.511 13.9046 143.805 13.9046H147.457C147.895 13.9046 148.189 14.2002 148.189 14.6472V27.4178V27.4215ZM178.712 10.9383H167.614C167.614 10.9383 167.466 11.2338 167.323 11.533L169.515 14.5031V29.2537L168.345 30.8385L168.492 31.1341H178.716C179.885 31.1341 181.051 30.096 181.051 28.7587V13.3099C181.051 11.9726 179.882 10.9346 178.716 10.9346L178.712 10.9383ZM177.837 26.9782C177.837 27.5729 177.399 28.1677 176.668 28.1677H173.016V13.9046H176.668C177.399 13.9046 177.837 14.4994 177.837 15.0942V26.9745V26.9782ZM162.943 22.8186L163.965 22.2238C164.988 21.6291 165.425 21.0343 165.425 19.7007V13.3136C165.425 11.9763 164.256 10.9383 163.09 10.9383H152.867C152.867 10.9383 152.72 11.2338 152.576 11.533L154.768 14.5031V28.4632L153.018 30.8385L153.165 31.1341H159.005L159.152 30.8385L158.276 29.3535V13.9046H161.491C161.928 13.9046 162.222 14.2002 162.222 14.6472V18.8068C162.222 19.8448 162.222 19.9963 161.2 20.5873L158.865 21.7768L162.517 29.8448L161.785 30.8348L161.932 31.1304H167.007L167.154 30.8348C167.154 30.8348 166.521 30.1884 166.15 29.8153L162.954 22.8149L162.943 22.8186Z" fill="black"/>
<path d="M93.5192 30.905C93.5339 26.9486 94.1848 20.2142 94.6519 18.0384C94.3393 16.9375 92.7653 14.0746 91.8239 12.97C90.8824 14.0709 89.3085 16.9338 88.9959 18.0384C89.4629 20.2142 90.1102 26.9523 90.1286 30.905C85.8847 30.4691 80.9385 26.2763 80.9385 20.2031C80.9385 18.973 81.7512 17.0668 82.4941 16.0251C81.788 18.9176 83.2001 21.3594 84.616 21.3594C85.2301 21.3594 86.4547 21.0528 86.4547 18.755C86.4547 16.4573 84.4762 14.1263 83.9099 13.5463C84.9543 10.7794 87.9368 6.80085 90.5551 5.15697C89.9704 5.9549 89.5659 7.59878 89.5659 8.48168C89.5659 10.5245 90.7537 11.086 91.8276 11.086C93.1 11.086 93.9495 10.2179 93.9495 8.48168C93.9495 6.30214 92.2541 3.27296 90.9817 2.1167C92.9602 2.54891 98.7597 7.61356 100.032 12.0982C98.0536 13.9785 97.2041 15.7148 97.2041 17.5951C97.2041 18.7957 98.0352 20.0554 99.0244 20.0554C101.032 20.0554 101.304 16.8747 100.882 15.1385C101.588 16.0066 102.72 18.611 102.72 20.3472C102.72 26.4167 97.7704 30.4839 93.5302 30.905H93.5192ZM91.1141 32.0613L91.8202 31.3372L92.5263 32.0613C92.8095 32.3494 92.9492 32.4935 93.2324 32.4935C95.2109 32.4935 96.6267 31.7694 96.6267 31.7694C96.3435 33.5057 95.6375 34.806 95.6375 34.806L94.9314 34.082L92.9529 34.226C92.7543 34.2371 92.6697 34.3701 92.6697 34.5142L92.8131 36.2504L93.3795 37.4067C92.6734 38.2748 91.8239 39.1429 91.8239 39.1429C91.8239 39.1429 90.8346 38.2748 90.2683 37.4067L90.8346 36.2504L90.9744 34.5142C90.9744 34.3701 90.8935 34.2371 90.6912 34.226L88.7127 34.082L88.0066 34.806C88.0066 34.806 87.3006 33.5057 87.0174 31.7694C87.0174 31.7694 88.4332 32.4935 90.4117 32.4935C90.6949 32.4935 90.8346 32.3494 91.1178 32.0613H91.1141Z" fill="#E93249"/>
</svg>
