<svg width="123" height="48" viewBox="0 0 123 48" fill="none" xmlns="http://www.w3.org/2000/svg">
<path d="M44.5233 35.9671C43.9973 42.2137 36.6329 47.474 25.5863 47.2109C15.1973 46.9479 7.89864 42.6082 7.43837 36.3616C7.37262 35.5726 7.43837 34.7835 7.50412 33.9287C7.83289 31.4959 8.68768 29.1945 9.937 27.0904L10.726 27.4192C12.7644 26.6301 14.8685 26.0383 17.0384 25.6438C19.8658 25.2493 22.8247 24.7233 25.6521 24.9863L25.9151 24.9205C28.7425 24.7233 31.3069 25.3151 34.1343 25.7096C36.3041 26.1041 38.4082 26.6959 40.4466 27.4849L41.2356 27.1561L41.7617 26.8931C43.011 28.9972 43.8658 31.2986 44.326 33.7315C44.4576 34.4548 44.5233 35.2438 44.4576 35.9671" fill="#F4A427"/>
<path d="M44.523 35.9671C44.0627 42.1479 36.7641 47.2109 25.6517 47.1452C15.2627 46.8822 7.96407 42.5424 7.5038 36.2959C7.43804 35.5068 7.5038 34.7178 7.56955 33.863C8.68736 33.6 9.80517 33.6 10.923 33.7972C13.0271 34.126 14.2106 35.4411 15.723 36.0986C16.5778 36.4931 17.4326 35.8356 18.2216 35.1123C20.3257 33.0739 23.1531 31.8904 26.0463 31.8246C29.0052 31.7589 31.438 32.9424 34.0024 35.3096C34.5285 35.8356 35.2517 36.1643 35.975 36.0986C36.6326 35.9013 37.2901 35.5726 37.8161 35.1123C39.7887 33.7972 42.1559 33.2712 44.4572 33.6C44.5887 34.4548 44.6545 35.178 44.523 35.9671Z" fill="white"/>
<path d="M14.0139 20.5807C13.2906 21.304 12.37 21.83 11.3837 22.0273L10.9892 22.093C10.5947 22.2245 10.2002 22.2903 9.7399 22.2903C9.67414 22.2903 9.54264 22.2903 9.47688 22.2903C9.27962 22.2245 9.01661 22.1588 8.81935 22.093C8.09606 21.7643 7.43853 21.3697 6.84672 20.8437C5.66316 19.8574 4.54535 18.7396 3.69055 17.4245C0.074115 12.1643 1.19192 5.06286 6.18918 1.11765C6.4522 0.920394 6.91247 0.920394 7.17551 1.24916C7.30702 1.44642 7.37277 1.64368 7.30702 1.84094C6.78096 3.94505 6.4522 7.23276 8.35907 10.0602C10.0687 12.493 13.6193 14.7944 15.7892 14.7286C16.3152 17.3588 15.5262 19.1341 14.0139 20.5807Z" fill="#F79422"/>
<path d="M14.0139 20.5807C13.2906 21.304 12.37 21.83 11.3837 22.0273L10.9892 22.093C10.5947 22.2245 10.2002 22.2903 9.7399 22.2903C9.67414 22.2903 9.54264 22.2903 9.47688 22.2903C9.27962 22.2245 9.01661 22.1588 8.81935 22.093C8.09606 21.7643 7.43853 21.3697 6.84672 20.8437C5.66316 19.8574 4.54535 18.7396 3.69055 17.4245C0.074115 12.1643 1.19192 5.06286 6.18918 1.11765C6.4522 0.920394 6.91247 0.920394 7.17551 1.24916C7.30702 1.44642 7.37277 1.64368 7.30702 1.84094C6.78097 3.94505 6.4522 7.23276 8.35907 10.0602C10.0687 12.493 13.6193 14.7944 15.7892 14.7286C16.3152 17.3588 15.592 19.1341 14.0139 20.5807Z" stroke="#221F1F" stroke-linejoin="round"/>
<path d="M23.4817 11.5068L22.6269 19.9233H22.5612C21.2461 20.1205 19.4708 20.3835 17.0379 20.7781C14.8023 21.1068 11.7776 22.6849 10.0023 23.737L9.73926 22.4219C10.1338 22.3562 10.5941 22.2904 10.9886 22.2246L11.3831 22.1589C12.3694 21.9616 13.2899 21.4356 14.0132 20.7123C15.5256 19.2 16.3146 17.4904 15.7886 14.7945L16.0516 14.8603C16.8406 14.0055 17.7612 13.3479 18.8132 12.8219C20.2598 11.9671 21.8379 11.5726 23.4817 11.5068Z" fill="#5A595C"/>
<path d="M23.4817 11.5068L22.6269 19.9233H22.5612C21.2461 20.1205 19.4708 20.3835 17.0379 20.7781C14.8023 21.1068 11.7776 22.6849 10.0023 23.737L9.73926 22.4219C10.1338 22.3562 10.5941 22.2904 10.9886 22.2246L11.3831 22.1589C12.3694 21.9616 13.2899 21.4356 14.0132 20.7123C15.5256 19.2 16.3146 17.4904 15.7886 14.7945L16.0516 14.8603C16.8406 14.0055 17.7612 13.3479 18.8132 12.8219C20.2598 11.9671 21.8379 11.5726 23.4817 11.5068Z" stroke="#221F1F" stroke-linejoin="round"/>
<path d="M42.6817 26.6301L42.1557 26.8931L41.6297 27.1561L40.8406 27.4849C38.8023 26.6959 36.6981 26.1041 34.5283 25.7096C31.7009 25.1835 28.8735 24.9205 25.9803 24.9205C23.0872 24.9205 20.2598 25.1178 17.4324 25.7096C15.2625 26.1041 13.1584 26.6959 11.1201 27.4849C10.8571 27.3534 10.594 27.2219 10.331 27.1561L9.14746 26.6301C9.21321 25.7096 9.14746 25.1835 9.14746 24.263C9.34472 24.1315 9.67349 23.9342 10.0023 23.737L10.068 23.6712C11.7118 22.6191 14.7365 21.1068 16.9721 20.7123C19.405 20.3178 21.1146 20.0548 22.4954 19.8575C23.3502 19.7917 24.2708 19.7917 25.1913 19.7917C26.5721 19.7917 27.8214 19.7917 29.0707 19.8575C30.3858 20.0548 32.1612 20.3178 34.6598 20.7123C36.9612 21.0411 39.9858 22.6191 41.7612 23.6712H41.8269C42.1557 23.8685 42.4187 24 42.616 24.1972C42.616 25.1835 42.616 25.7096 42.6817 26.6301Z" fill="#929497"/>
<path d="M42.6817 26.6301L42.1557 26.8931L41.6297 27.1561L40.8406 27.4849C38.8023 26.6959 36.6981 26.1041 34.5283 25.7096C31.7009 25.2493 28.8735 24.9863 25.9803 24.9863C23.0872 24.9863 20.2598 25.1835 17.4324 25.7096C15.2625 26.1041 13.1584 26.6959 11.1201 27.4849C10.8571 27.3534 10.594 27.2219 10.331 27.1561L9.14746 26.6301C9.21321 25.7096 9.14746 25.1835 9.14746 24.263C9.34472 24.1315 9.67349 23.9342 10.0023 23.737L10.068 23.6712C11.7118 22.6191 14.7365 21.1068 16.9721 20.7123C19.405 20.3178 21.1146 20.0548 22.4954 19.8575C23.3502 19.7917 24.2708 19.7917 25.1913 19.7917C26.5721 19.7917 27.8214 19.7917 29.0707 19.8575C30.3858 20.0548 32.1612 20.3178 34.6598 20.7123C36.9612 21.0411 39.9858 22.6191 41.7612 23.6712H41.8269C42.1557 23.8685 42.4187 24 42.616 24.1972C42.6817 25.1835 42.616 25.7096 42.6817 26.6301Z" stroke="#221F1F" stroke-linecap="round" stroke-linejoin="round"/>
<path d="M29.1369 19.9233C27.9533 19.8575 26.6382 19.7917 25.2574 19.8575C24.3369 19.8575 23.4163 19.9233 22.5615 19.9233H22.6273L23.4821 11.5068L23.6793 9.79722C24.3369 9.4027 25.1259 9.20544 25.8492 9.20544H25.9807C26.7697 9.20544 27.493 9.4027 28.1506 9.79722L28.3478 11.5068V11.5726L29.1369 19.9233Z" fill="#929497"/>
<path d="M29.1369 19.9233C27.9533 19.8575 26.6382 19.7917 25.2574 19.8575C24.3369 19.8575 23.4163 19.9233 22.5615 19.9233H22.6273L23.4821 11.5068L23.6793 9.79722C24.3369 9.4027 25.1259 9.20544 25.8492 9.20544H25.9807C26.7697 9.20544 27.493 9.4027 28.1506 9.79722L28.3478 11.5068V11.5726L29.1369 19.9233Z" stroke="#221F1F" stroke-linecap="round" stroke-linejoin="round"/>
<path d="M42.0895 27.1561C42.2711 27.1561 42.4183 27.0089 42.4183 26.8273C42.4183 26.6457 42.2711 26.4985 42.0895 26.4985C41.9079 26.4985 41.7607 26.6457 41.7607 26.8273C41.7607 27.0089 41.9079 27.1561 42.0895 27.1561Z" fill="#221F1F"/>
<path d="M44.5887 36.0329C44.0627 42.2794 36.1065 47.2767 25.6517 47.2767C15.2627 47.0137 7.96407 42.674 7.5038 36.4274C7.43804 35.6383 7.5038 34.8493 7.56955 33.9945C7.89832 31.5616 8.75311 29.2603 10.0024 27.1561L10.7915 27.4849C12.8298 26.6959 14.9339 26.1041 17.1038 25.7096C19.9312 25.1835 22.7586 24.9863 25.6517 24.9205C28.5449 24.9205 31.3723 25.1835 34.1997 25.7096C36.3696 26.1041 38.4737 26.6959 40.512 27.4849L41.3668 27.1561L41.8928 26.8931C43.1422 28.9972 43.997 31.2986 44.4572 33.7315C44.5887 34.5205 44.6545 35.3096 44.5887 36.0329Z" stroke="#221F1F" stroke-linecap="round" stroke-linejoin="round"/>
<path d="M47.7449 17.4246C46.8244 18.6739 45.7723 19.8575 44.523 20.8438C43.9312 21.3698 43.2737 21.7643 42.5504 22.0931L42.2216 22.2246L42.0244 22.2903C41.5641 22.4218 41.3011 22.2903 40.4463 22.1588L40.0518 22.0273C39.0655 21.8301 38.1449 21.304 37.4216 20.5808C35.9093 19.0684 35.1203 17.3588 35.6463 14.6629C37.7504 14.7287 41.3668 12.4273 43.0764 9.99445C45.049 7.23281 44.6545 3.94515 44.1942 1.84104C44.1285 1.44652 44.3257 1.11775 44.7203 0.986245C44.9175 0.920491 45.1805 0.986245 45.312 1.11775C50.3093 5.06296 51.3614 12.1643 47.7449 17.4246Z" fill="#F79422"/>
<path d="M47.7449 17.4246C46.8244 18.6739 45.7723 19.8575 44.523 20.8438C43.9312 21.3698 43.2737 21.7643 42.5504 22.0931L42.2216 22.2246L42.0244 22.2903C41.5641 22.4218 41.3011 22.2903 40.4463 22.1588L40.0518 22.0273C39.0655 21.8301 38.1449 21.304 37.4216 20.5808C35.9093 19.0684 35.1203 17.3588 35.6463 14.6629C37.7504 14.7287 41.3668 12.4273 43.0764 9.99445C45.049 7.23281 44.6545 3.94515 44.1942 1.84104C44.1285 1.44652 44.3257 1.11775 44.7203 0.986245C44.9175 0.920491 45.1805 0.986245 45.312 1.11775C50.3093 5.06296 51.3614 12.1643 47.7449 17.4246Z" stroke="#221F1F" stroke-linejoin="round"/>
<path d="M42.0895 22.2904L41.8265 23.737C40.0511 22.6849 37.0265 21.1068 34.7251 20.7781C32.2265 20.3835 30.5169 20.1205 29.136 19.9233L28.2812 11.5068C29.7936 11.5726 31.3059 12.0329 32.6867 12.7562C33.7388 13.2822 34.6593 14.0055 35.4484 14.7945L35.7114 14.7288C35.1854 17.3589 35.9744 19.1342 37.4867 20.6466C38.21 21.3699 39.1306 21.8959 40.1169 22.0931C40.1826 22.0931 40.4456 22.2246 40.5114 22.2246C40.9717 22.4219 41.5634 22.4219 42.0895 22.2904Z" fill="#5A595C"/>
<path d="M42.0895 22.2904L41.8265 23.737C40.0511 22.6849 37.0265 21.1068 34.7251 20.7781C32.2265 20.3835 30.5169 20.1205 29.136 19.9233L28.2812 11.5068C29.7936 11.5726 31.3059 12.0329 32.6867 12.7562C33.7388 13.2822 34.6593 14.0055 35.4484 14.7945L35.7114 14.7288C35.1854 17.3589 35.9744 19.1342 37.4867 20.6466C38.21 21.3699 39.1306 21.8959 40.1169 22.0931L40.5114 22.1589C41.3662 22.2904 41.5634 22.4219 42.0895 22.2904Z" stroke="#221F1F" stroke-linejoin="round"/>
<path d="M28.2816 11.5068H28.0186" stroke="#221F1F" stroke-linejoin="round"/>
<path d="M41.8922 23.7369C41.8265 23.8027 41.8265 23.8027 41.7607 23.8684L41.8922 23.7369Z" fill="#F79422"/>
<path d="M41.8922 23.7369C41.8265 23.8027 41.8265 23.8027 41.7607 23.8684" stroke="#221F1F" stroke-miterlimit="10"/>
<path d="M9.87012 23.7369C9.93587 23.8027 9.93587 23.8027 10.0016 23.8684L9.87012 23.7369Z" fill="#F79422"/>
<path d="M9.87012 23.7369C9.93587 23.8027 9.93587 23.8027 10.0016 23.8684" stroke="#221F1F" stroke-miterlimit="10"/>
<path d="M23.4824 38.5314C23.9427 38.6629 24.4687 38.5972 24.929 38.3342C25.6523 38.0712 26.1126 37.3479 26.0468 36.5588C25.9811 37.3479 26.4413 38.0712 27.1646 38.3342C27.6249 38.5314 28.0852 38.5972 28.5454 38.5314" stroke="#171717" stroke-linecap="round" stroke-linejoin="round"/>
<path d="M28.5445 34.3232C28.5445 35.1122 27.3609 36.1643 25.9143 36.1643C24.4677 36.1643 23.2842 35.1122 23.2842 34.3232C23.2842 33.5341 24.4677 33.2711 25.9143 33.2711C27.3609 33.2711 28.5445 33.5999 28.5445 34.3232Z" fill="#171717"/>
<path d="M27.0335 34.0601C27.0335 34.2574 26.5074 34.5204 25.9157 34.5204C25.3239 34.5204 24.7979 34.2574 24.7979 34.1259C24.7979 33.9944 25.3239 33.9944 25.9157 33.9944C26.5074 33.9944 27.0335 33.8629 27.0335 34.0601Z" fill="white"/>
<path d="M21.838 36.5588C21.7722 37.4794 22.364 38.2684 23.2846 38.4657H23.4818" stroke="#171717" stroke-linecap="round" stroke-linejoin="round"/>
<path d="M25.9805 35.6383C25.9805 35.9671 25.9805 36.23 25.9805 36.5588" stroke="#171717" stroke-linecap="round" stroke-linejoin="round"/>
<path d="M28.5449 38.5314H28.7422C29.6627 38.3342 30.3203 37.5452 30.1888 36.6246" stroke="#171717" stroke-linecap="round" stroke-linejoin="round"/>
<path d="M45.3115 1.1178C50.3088 5.063 51.3608 12.1643 47.7444 17.3589" stroke="#221F1F" stroke-linejoin="round"/>
<path d="M14.0139 20.5807C13.2906 21.304 12.37 21.83 11.3837 22.0273L10.9892 22.093C10.5947 22.2245 10.2002 22.2903 9.7399 22.2903C9.67414 22.2903 9.54264 22.2903 9.47688 22.2903C9.27962 22.2245 9.01661 22.1588 8.81935 22.093C8.09606 21.7643 7.43853 21.3697 6.84672 20.8437C5.66316 19.8574 4.54535 18.7396 3.69055 17.4245C0.074115 12.1643 1.19192 5.06286 6.18918 1.11765C6.4522 0.920394 6.91247 0.920394 7.17551 1.24916C7.30702 1.44642 7.37277 1.64368 7.30702 1.84094C6.78097 3.94505 6.4522 7.23276 8.35907 10.0602C10.0687 12.493 13.6193 14.7944 15.7892 14.7286C16.3152 17.3588 15.592 19.1341 14.0139 20.5807Z" stroke="#221F1F" stroke-linejoin="round"/>
<path d="M21.1145 30.0491C21.1145 31.4957 20.2597 32.6135 19.2076 32.6135C18.1556 32.6135 17.3008 31.4299 17.3008 30.0491C17.3008 28.7998 17.9583 27.7478 18.8131 27.4847L20.9172 29.0628C21.0487 29.3916 21.1145 29.7204 21.1145 30.0491Z" fill="#221F1F"/>
<path d="M20.4567 29.7205C20.4567 30.2465 20.1279 30.641 19.7991 30.641C19.4704 30.641 19.1416 30.2465 19.1416 29.7205C19.1416 29.1944 19.4704 28.7999 19.7991 28.7999C20.1279 28.7999 20.4567 29.1944 20.4567 29.7205Z" fill="white"/>
<path d="M18.8134 32.0218C18.0901 32.6136 17.4326 33.2711 16.8408 33.9944C16.5778 34.3232 16.3147 34.7177 16.1175 35.178C15.9202 35.5725 15.7887 36.0328 15.723 36.4931C15.6572 36.6903 15.6572 36.9533 15.6572 37.1506V37.4794V37.8081C15.6572 38.2684 15.6572 38.7287 15.6572 39.2547C15.723 39.715 15.7887 40.241 15.8545 40.7013C15.9202 40.9643 15.9202 41.1616 15.986 41.4246C16.0517 41.6218 16.1175 41.8848 16.249 42.0821C16.1175 41.8848 16.0517 41.6218 15.9202 41.4246C15.8545 41.2273 15.723 40.9643 15.6572 40.767C15.5257 40.3068 15.3942 39.8465 15.2627 39.3205C15.1969 38.8602 15.1312 38.3342 15.0654 37.8739V37.5451V37.1506C15.0654 36.8876 15.0654 36.6246 15.0654 36.4273C15.1312 35.9013 15.1969 35.3752 15.3942 34.915C15.5915 34.4547 15.7887 33.9944 16.0517 33.5342C16.6435 32.6794 17.2353 31.8903 17.9586 31.2328C18.2216 31.0355 18.5504 31.0355 18.8134 31.2328C19.0764 31.3643 19.0764 31.7588 18.8134 32.0218Z" fill="#221F1F"/>
<path d="M18.4178 31.8246C18.3521 31.8246 18.3521 31.8246 18.2863 31.8246H18.2206H18.0891L17.7603 31.7588C17.5631 31.693 17.3658 31.693 17.1685 31.693C16.774 31.693 16.3137 31.693 15.9192 31.8246C15.722 31.8903 15.5247 31.9561 15.3274 32.0218C14.7357 32.2848 14.2096 32.7451 13.8809 33.2711C14.0781 32.8109 14.2754 32.4163 14.6041 32.0876C14.7357 31.8903 14.9329 31.7588 15.1302 31.6273C15.3274 31.4958 15.5247 31.3643 15.722 31.2328C16.1165 30.9698 16.5767 30.8383 17.1028 30.7067C17.3658 30.641 17.5631 30.641 17.8261 30.641C17.9576 30.641 18.0891 30.641 18.2206 30.641H18.4836C18.8124 30.641 19.0754 30.904 19.1411 31.2328C19.2069 31.5615 18.8124 31.8246 18.4178 31.8246Z" fill="#221F1F"/>
<path d="M34.6594 30.0491C34.6594 31.4957 33.8046 32.6135 32.8183 32.6135C31.832 32.6135 30.8457 31.4957 30.8457 30.0491C30.8457 29.7204 30.9115 29.3916 30.9772 29.0628L33.0813 27.4847C34.0019 27.7478 34.6594 28.7998 34.6594 30.0491Z" fill="#221F1F"/>
<path d="M31.5693 29.7205C31.5693 30.2465 31.8981 30.641 32.2269 30.641C32.5556 30.641 32.8844 30.2465 32.8844 29.7205C32.8844 29.1944 32.5556 28.7999 32.2269 28.7999C31.8981 28.7999 31.5693 29.1944 31.5693 29.7205Z" fill="white"/>
<path d="M34.0029 31.1014C34.7262 31.8246 35.318 32.5479 35.844 33.4027C36.107 33.7973 36.37 34.2575 36.5673 34.7178C36.7645 35.1781 36.8961 35.7041 36.9618 36.1644C37.0276 36.6904 37.0276 37.1507 36.9618 37.6767C36.8961 38.137 36.8303 38.663 36.7645 39.1233C36.6988 39.5836 36.5673 40.0438 36.4358 40.5041C36.37 40.7014 36.3043 40.9644 36.1728 41.1616C36.107 41.3589 35.9755 41.6219 35.844 41.8192C35.9098 41.6219 36.0413 41.3589 36.107 41.1616C36.1728 40.9644 36.2385 40.7014 36.3043 40.5041C36.37 40.0438 36.5015 39.5836 36.5015 39.1233C36.5673 38.663 36.5673 38.2027 36.5673 37.6767C36.5673 37.2164 36.5015 36.7562 36.4358 36.2959C36.3043 35.8356 36.1728 35.4411 35.9755 35.0466C35.7782 34.652 35.5152 34.2575 35.1865 33.9288C34.5947 33.2055 33.9371 32.5479 33.2139 31.9562C32.9508 31.6931 32.9508 31.3644 33.2139 31.1014C33.4111 30.9041 33.7399 30.8383 34.0029 31.0356V31.1014Z" fill="#221F1F"/>
<path d="M33.542 30.641H33.8708C34.0023 30.641 34.1338 30.641 34.2653 30.641C34.5283 30.641 34.7913 30.641 35.0544 30.7068C35.5804 30.7725 36.0407 30.904 36.5009 31.1013C36.9612 31.2986 37.3557 31.6273 37.7502 31.9561C38.079 32.2849 38.342 32.7451 38.5393 33.1397C38.2763 32.7451 37.9475 32.4164 37.553 32.1534C37.1585 31.8903 36.7639 31.6931 36.3037 31.6273C35.8434 31.5616 35.4489 31.5616 34.9886 31.5616C34.7913 31.5616 34.5283 31.6273 34.3311 31.6273L34.0023 31.6931H33.8708H33.805H33.7393H33.6735C33.3448 31.7588 33.016 31.4958 33.016 31.1671C32.9502 30.8383 33.2133 30.5095 33.542 30.5095C33.6078 30.5095 33.6078 30.5095 33.6735 30.5095" fill="#221F1F"/>
<path d="M61.7588 36.1643V16.0796H74.6256V19.1296H65.3972V24.5823H73.7431V27.6322H65.3972V36.1643H61.7588ZM81.3337 16.0796V36.1643H77.7837V16.0796H81.3337ZM91.5551 36.4585C90.0835 36.4585 88.8086 36.1349 87.7302 35.4877C86.6512 34.8404 85.8141 33.9349 85.2197 32.7711C84.6312 31.6074 84.3367 30.2474 84.3367 28.6914C84.3367 27.1354 84.6312 25.7722 85.2197 24.6019C85.8141 23.4316 86.6512 22.5229 87.7302 21.8756C88.8086 21.2283 90.0835 20.9047 91.5551 20.9047C93.026 20.9047 94.3009 21.2283 95.3793 21.8756C96.4583 22.5229 97.2921 23.4316 97.8806 24.6019C98.475 25.7722 98.7728 27.1354 98.7728 28.6914C98.7728 30.2474 98.475 31.6074 97.8806 32.7711C97.2921 33.9349 96.4583 34.8404 95.3793 35.4877C94.3009 36.1349 93.026 36.4585 91.5551 36.4585ZM91.5742 33.6145C92.3717 33.6145 93.0391 33.3955 93.575 32.9575C94.1109 32.5128 94.51 31.9179 94.7717 31.1726C95.0394 30.4273 95.1735 29.5969 95.1735 28.6816C95.1735 27.7597 95.0394 26.9262 94.7717 26.1809C94.51 25.429 94.1109 24.8307 93.575 24.3862C93.0391 23.9416 92.3717 23.7193 91.5742 23.7193C90.7575 23.7193 90.077 23.9416 89.5345 24.3862C88.9986 24.8307 88.5962 25.429 88.3286 26.1809C88.0669 26.9262 87.936 27.7597 87.936 28.6816C87.936 29.5969 88.0669 30.4273 88.3286 31.1726C88.5962 31.9179 88.9986 32.5128 89.5345 32.9575C90.077 33.3955 90.7575 33.6145 91.5742 33.6145ZM105.022 31.4374L105.012 27.1517H105.581L110.994 21.1008H115.143L108.484 28.5149H107.749L105.022 31.4374ZM101.786 36.1643V16.0796H105.336V36.1643H101.786ZM111.24 36.1643L106.336 29.3093L108.729 26.8085L115.486 36.1643H111.24ZM117.509 36.1643V21.1008H121.059V36.1643H117.509ZM119.294 18.9629C118.732 18.9629 118.248 18.7766 117.843 18.4039C117.437 18.0247 117.234 17.5703 117.234 17.0407C117.234 16.5046 117.437 16.0502 117.843 15.6775C118.248 15.2983 118.732 15.1088 119.294 15.1088C119.863 15.1088 120.347 15.2983 120.745 15.6775C121.151 16.0502 121.353 16.5046 121.353 17.0407C121.353 17.5703 121.151 18.0247 120.745 18.4039C120.347 18.7766 119.863 18.9629 119.294 18.9629Z" fill="black"/>
</svg>
