<svg width="147" height="44" viewBox="0 0 147 44" fill="none" xmlns="http://www.w3.org/2000/svg">
<g clip-path="url(#clip0_4552_5801)">
<path d="M20.1075 0.0559082L1.92676 9.99875L20.1075 20.5963L27.0481 16.5371L24.1178 14.832L20.1066 17.1861L7.89854 10.0584L20.1066 3.39587L21.3139 4.06405L32.327 10.0815L35.335 11.7308L38.3036 9.99875L20.1056 0.0559082H20.1075Z" fill="white"/>
<path d="M0.788879 32.5013L19.1872 43.9509V22.1993L12.1594 18.1036V21.5129L16.2664 23.9083V38.6517L3.70961 30.8193V13.1731L0.779297 11.4641L0.787921 32.5023L0.788879 32.5013Z" fill="white"/>
<path d="M37.2071 12.7629L21.0186 22.2128V30.5064L23.9441 28.8013V23.9218L36.5009 16.5958V30.879L23.9441 38.7114L21.0186 40.5224V43.9875L39.4178 32.5379V11.4631L37.2071 12.7629Z" fill="white"/>
<path d="M60.5538 21.5802H69.1914V21.7372C69.1914 25.3351 68.124 28.2717 66.0819 30.2599C63.9144 32.3742 61.3386 32.9432 58.9497 32.9432C55.9035 32.9432 53.7359 32.0603 51.8175 30.0721C49.7755 27.9568 48.708 25.1474 48.708 22.1184C48.708 18.8353 50.0275 15.994 51.7543 14.2591C53.5443 12.4278 56.4046 11.1021 59.6397 11.1021C61.5255 11.1021 63.4717 11.5122 65.1055 12.4278C66.8322 13.407 67.8997 14.6384 68.4996 15.5858L65.9545 17.3834C65.3249 16.5005 64.3839 15.5521 63.3787 14.986C62.2154 14.2928 60.9592 14.0694 59.6732 14.0694C56.9393 14.0694 55.1819 15.2055 54.1441 16.2482C52.7623 17.6366 51.9133 19.877 51.9133 22.1512C51.9133 24.2664 52.6991 26.3807 54.0809 27.8663C55.5259 29.4116 57.3159 29.9807 59.3273 29.9807C61.1498 29.9807 62.6581 29.4444 64.0073 28.1186C65.1706 26.9825 65.6411 25.7511 65.7676 24.5514H60.5538V21.5802Z" fill="white"/>
<path d="M84.1213 27.4504H75.1684L72.8753 32.5331H69.4189L79.8494 10.25L89.7768 32.5331H86.3205L84.1203 27.4504H84.1222H84.1213ZM82.8324 24.4195L79.7229 17.2871L76.4879 24.4195H82.8324Z" fill="white"/>
<path d="M91.416 32.5331L95.8143 9.90051L103.103 26.2508L110.454 9.90051L114.412 32.5331H111.144L109.008 19.8443L102.913 33.5113L96.8808 19.8135L94.6807 32.535H91.4131L91.415 32.5331H91.416Z" fill="white"/>
<path d="M129.928 14.5094H121.57V19.8443H129.675V22.8752H121.57V29.5051H129.928V32.536H118.367V11.4805H129.928V14.5104V14.5094Z" fill="white"/>
<path d="M143.556 16.151C143.366 15.6782 143.085 15.2353 142.614 14.8252C141.955 14.2889 141.263 14.0665 140.354 14.0665C138.405 14.0665 137.4 15.2353 137.4 16.591C137.4 17.2235 137.622 18.3259 139.662 19.1482L141.766 20.0002C145.631 21.5792 146.698 23.7869 146.698 26.1872C146.698 30.1973 143.87 32.9412 139.943 32.9412C137.524 32.9412 136.079 32.0256 135.011 30.8269C133.881 29.5647 133.378 28.1763 133.254 26.7235L136.426 26.0302C136.426 27.073 136.803 28.0521 137.305 28.7145C137.902 29.4732 138.78 29.9768 140.039 29.9768C141.988 29.9768 143.496 28.5576 143.496 26.4404C143.496 24.3232 141.862 23.4095 140.479 22.8424L138.468 21.9903C136.74 21.2644 134.195 19.8115 134.195 16.6555C134.195 13.8152 136.392 11.1001 140.32 11.1001C142.58 11.1001 143.869 11.9531 144.529 12.5193C145.095 13.0247 145.692 13.7517 146.133 14.6345L143.557 16.149H143.555L143.556 16.151Z" fill="white"/>
</g>
<defs>
<clipPath id="clip0_4552_5801">
<rect width="145.941" height="44" fill="white" transform="translate(0.779297)"/>
</clipPath>
</defs>
</svg>
