<svg width="143" height="28" viewBox="0 0 143 28" fill="none" xmlns="http://www.w3.org/2000/svg">
<path d="M26.751 17.5488C26.751 20.1101 26.0021 22.0636 24.5045 23.4093C23.0068 24.755 20.7386 25.5907 17.6998 25.9163V28H9.98354V25.8512C6.35873 25.3953 3.18974 24.4403 0.476562 22.986C1.19284 21.8791 1.77889 20.8481 2.2347 19.893C2.71222 18.938 3.16803 17.831 3.60214 16.5721C5.05641 17.462 6.76028 18.1566 8.71377 18.6558C10.6673 19.155 12.4905 19.4047 14.1835 19.4047C15.8983 19.4047 17.1029 19.2527 17.7975 18.9488C18.5138 18.6233 18.8719 18.276 18.8719 17.907C18.8719 16.5829 16.9401 15.9209 13.0766 15.9209C8.844 15.9209 5.77269 15.4651 3.86261 14.5535C1.95253 13.6202 0.997493 12.1225 0.997493 10.0605C0.997493 7.65117 1.80059 5.76279 3.40679 4.39535C5.0347 3.0062 7.22695 2.11628 9.98354 1.72558V0H17.6998V1.85582C20.8905 2.35504 23.7773 3.31008 26.3603 4.72093C25.9913 5.58915 25.6549 6.45737 25.351 7.32558C25.0471 8.1938 24.7649 9.04031 24.5045 9.86512L24.1463 10.9395C23.0828 10.0496 21.4766 9.31163 19.3277 8.72558C17.2006 8.11783 15.3231 7.81395 13.6952 7.81395C11.72 7.81395 10.3851 7.95504 9.69051 8.23721C9.01764 8.49768 8.68121 8.88837 8.68121 9.4093C8.68121 9.93023 9.14788 10.3535 10.0812 10.6791C11.0363 10.9829 12.4037 11.1349 14.1835 11.1349C18.568 11.1349 21.7587 11.6667 23.7556 12.7302C25.7525 13.7721 26.751 15.3783 26.751 17.5488ZM42.7605 12.307H56.6628V25.786H50.9325L50.2488 20.0233C49.5977 22.0853 48.4364 23.6155 46.7651 24.614C45.0938 25.6124 43.0535 26.1116 40.6442 26.1116C38.4519 26.1116 36.4984 25.6233 34.7837 24.6465C33.0907 23.6698 31.7558 22.2698 30.7791 20.4465C29.824 18.6233 29.3465 16.4961 29.3465 14.0651C29.3465 10.1798 30.5077 7.10853 32.8302 4.85116C35.1527 2.5938 38.7667 1.46512 43.6721 1.46512C46.4721 1.46512 48.9356 1.92093 51.0628 2.83256C53.2116 3.74419 55.0349 5.15504 56.5325 7.06512C55.5558 7.56434 53.6457 8.56279 50.8023 10.0605L49.9884 10.5163C49.1419 9.66977 48.1543 9.04031 47.0256 8.62791C45.8969 8.1938 44.7031 7.97675 43.4442 7.97675C41.3605 7.97675 39.8085 8.53023 38.7884 9.63721C37.7682 10.7225 37.2581 12.0682 37.2581 13.6744C37.2581 15.4109 37.8008 16.8109 38.886 17.8744C39.993 18.938 41.6752 19.4698 43.9325 19.4698C44.9093 19.4698 45.8535 19.3287 46.7651 19.0465C47.6984 18.7643 48.4798 18.276 49.1093 17.5814H42.7605V12.307ZM82.7074 16.8977L84.4005 2.14884H92.3447L87.9819 25.786H77.9865L75.7726 12.6L73.2005 25.786H63.6284L59.2656 2.14884H67.2098L68.8702 16.7023L71.4749 2.14884H80.1679L82.7074 16.8977ZM113.856 8.62791C111.273 8.49768 109.363 8.42171 108.126 8.4V19.5349C109.385 19.5132 111.295 19.4372 113.856 19.307V25.786H94.9396V19.307C97.4358 19.4372 99.335 19.5132 100.637 19.5349V8.4C99.335 8.42171 97.4358 8.49768 94.9396 8.62791V2.14884H113.856V8.62791ZM127.274 19.3721C128.511 19.3504 131.702 19.2636 136.846 19.1116C137.497 19.0899 138.257 19.0574 139.125 19.014C139.994 18.9705 140.959 18.938 142.023 18.9163C141.871 19.9364 141.773 20.9566 141.73 21.9767C141.708 22.9969 141.697 24.2667 141.697 25.786H116.725V18.5256C117.919 17.8527 119.221 17.0279 120.632 16.0512C122.043 15.0527 123.866 13.7504 126.102 12.1442C128.186 10.6248 129.694 9.53954 130.628 8.88837C128.913 8.91008 125.473 9.02946 120.307 9.24651C118.527 9.33333 117.333 9.3876 116.725 9.4093C116.725 7.8031 116.704 6.45737 116.66 5.37209C116.639 4.28682 116.573 3.2124 116.465 2.14884H141.697V9.44186C140.547 10.2016 138.42 11.6775 135.316 13.8698C131.843 16.3442 129.163 18.1783 127.274 19.3721Z" fill="black"/>
</svg>
