<svg width="166" height="44" viewBox="0 0 166 44" fill="none" xmlns="http://www.w3.org/2000/svg">
<g clip-path="url(#clip0_4516_87826)">
<path d="M20.8353 5.85115C20.5993 13.0165 20.6065 20.7293 20.8353 27.9389C21.038 20.7317 21.0446 13.0168 20.8353 5.85115ZM41.387 24.1325C41.3822 23.2672 41.2641 22.4213 40.831 21.6474C40.3217 20.7373 39.6137 20.1741 38.4937 20.2466C37.8302 20.2893 37.7969 20.2853 37.7961 20.9704V29.3343C37.7926 29.7362 37.8161 30.1378 37.8665 30.5365C38.0313 31.7805 38.4499 32.9774 39.0964 34.053C39.7439 35.1303 40.605 36.0636 41.6268 36.7957C42.6504 37.529 43.8128 38.0458 45.043 38.3146C46.2742 38.5837 47.5472 38.5994 48.7846 38.3607C50.8782 37.9545 52.7679 36.8392 54.1353 35.2026C55.499 33.5704 56.2547 31.5159 56.2734 29.389C56.2822 28.0218 56.2734 26.6546 56.2734 25.2874V20.8239C56.2734 20.577 56.2734 20.3093 55.946 20.2698C54.9625 20.1533 54.0953 20.344 53.494 21.2197C52.9947 21.9424 52.73 22.8013 52.7358 23.6797C52.7286 25.449 52.7358 27.2183 52.731 28.9877C52.7371 29.4975 52.6886 30.0066 52.5862 30.5061C51.9641 33.3626 49.3398 35.2453 46.3988 34.9501C43.57 34.6653 41.4161 32.2679 41.3974 29.3591C41.383 27.6173 41.3982 25.8746 41.387 24.1325ZM0.218752 37.9024C0.218752 38.4333 0.295552 38.5015 0.832086 38.4959C1.59323 38.4934 2.32369 38.1956 2.86969 37.6653C3.57849 37.0007 3.80649 36.1621 3.80569 35.2285V21.5688C3.80569 21.2744 3.79982 20.9794 3.80569 20.6842C3.81102 20.389 3.66089 20.2549 3.36115 20.2482C2.83982 20.2362 2.34115 20.3149 1.88035 20.5698C0.763819 21.1853 0.224352 22.1445 0.220352 23.4C0.212352 25.7973 0.220352 28.1946 0.220352 30.5912C0.218752 33.029 0.218219 35.4661 0.218752 37.9024ZM12.8825 43.7701L12.8985 43.8255C12.9678 43.7917 13.0398 43.7618 13.1078 43.7242C14.527 42.9423 16.0353 42.3674 17.5718 41.868C19.5292 41.2319 21.5158 41.1618 23.5006 41.7071C25.2148 42.1775 26.8724 42.8342 28.4436 43.6656C28.5414 43.717 28.6238 43.8199 28.7668 43.7901C28.7529 43.7637 28.7355 43.7394 28.715 43.7178C26.243 41.8197 23.771 39.9213 21.299 38.0224C20.9508 37.7535 20.6694 37.781 20.3292 38.0456C17.8492 39.9602 15.3668 41.8682 12.8825 43.7701ZM11.414 16.5938C11.2524 16.8013 11.3281 16.9565 11.4852 17.1215C12.0798 17.752 12.438 18.5119 12.6844 19.3298C12.9884 20.3375 13.1046 21.3741 13.1524 22.4213C13.226 24.0296 13.203 25.6381 13.1734 27.2466C13.1335 29.3909 13.1224 31.5356 13.1404 33.6802C13.1604 36.0463 12.8332 38.3503 12.0774 40.5965C11.7825 41.4722 11.4881 42.3482 11.0745 43.2762C11.1412 43.2546 11.206 43.2277 11.2684 43.1957C13.4257 41.4602 15.5737 39.7119 17.8214 38.0922C18.1108 37.8839 18.1132 37.6218 17.9369 37.353C17.7597 37.0839 17.567 36.8254 17.3598 36.5786C16.7609 35.8653 16.5241 35.0322 16.5097 34.121C16.491 32.9282 16.4676 31.7357 16.4532 30.5437C16.4014 26.148 16.4345 21.753 16.3812 17.3546C16.3132 11.713 16.3124 6.07062 16.2825 0.429284V0.202884H16.2017C15.9537 2.44262 15.7004 4.67675 15.2716 6.88822C14.5998 10.3626 13.5942 13.7109 11.414 16.5938ZM107.655 21.992C107.14 20.7461 106.35 20.2223 105.006 20.2554C104.538 20.2661 104.462 20.3269 104.462 20.7933C104.462 23.8093 104.413 26.825 104.486 29.84C104.547 32.3637 105.642 34.4917 107.501 36.1701C109.677 38.1341 112.288 38.8088 115.187 38.401C119.241 37.8309 122.662 34.0991 122.886 30.037C122.967 28.5493 122.902 27.0615 122.936 25.8495V21.0319C122.938 20.8848 122.93 20.7376 122.912 20.5914C122.906 20.5033 122.868 20.4205 122.804 20.3594C122.74 20.2982 122.656 20.2631 122.567 20.2607C121.517 20.1407 120.653 20.4272 120.055 21.3472C119.593 22.0613 119.351 22.895 119.357 23.7455C119.348 25.6223 119.369 27.4986 119.347 29.3749C119.298 33.4605 115.12 36.1642 111.391 34.4954C109.171 33.5013 108.078 31.7024 108.019 29.3026C107.976 27.5333 108.005 25.764 108.01 23.9949C108.027 23.31 107.906 22.6289 107.655 21.9914V21.992ZM160.257 38.3061C160.126 38.5642 160.025 38.8383 159.869 39.2029C161.393 38.8151 162.859 38.585 164.112 37.7197C164.573 37.3981 164.866 36.964 164.92 36.3863C164.958 35.9602 165.017 35.5357 165.058 35.1093C165.246 33.1181 165.206 31.1229 165.156 29.1266C165.084 26.3287 163.943 24.053 161.797 22.2749C160.242 20.9879 158.476 20.2754 156.403 20.4122C155.008 20.504 153.66 20.8007 152.322 21.1674C150.303 21.7257 148.186 21.8354 146.121 21.489C144.843 21.2792 143.62 20.8384 142.344 20.6205C140.38 20.2853 138.46 20.2386 136.655 21.2818C133.907 22.8717 132.169 25.1669 131.887 28.3586C131.668 30.8687 131.772 33.3882 131.967 35.9048C132.061 37.0789 132.654 37.7738 133.686 38.1968C133.836 38.2578 133.984 38.3221 134.134 38.3807C134.942 38.6922 135.78 38.8858 136.618 39.0853C136.745 39.116 136.909 39.2069 136.998 39.0933C137.088 38.9799 136.96 38.8418 136.908 38.7242C136.389 37.5461 135.848 36.3791 135.667 35.0837C135.563 34.3405 135.473 33.5957 135.435 32.8471C135.365 31.4541 135.279 30.0509 135.439 28.6706C135.784 25.7202 138.172 23.7167 141.162 23.749C143.593 23.7757 145.329 25.0549 146.059 27.3591C146.119 27.5511 146.176 27.7442 146.225 27.9389C146.942 30.7714 147.658 33.6042 148.374 36.437C148.397 36.5288 148.438 36.6157 148.495 36.7669C148.533 36.6389 148.55 36.589 148.563 36.5376C149.21 33.9642 149.858 31.3906 150.509 28.817C150.71 28.025 150.907 27.2319 151.225 26.4743C151.52 25.7771 152.011 25.1808 152.64 24.7584C153.717 24.0088 154.911 23.7048 156.223 23.7466C158.986 23.8341 161.359 26.1021 161.548 28.8461C161.645 30.2277 161.57 31.6061 161.514 32.9829C161.439 34.8335 161.104 36.6325 160.257 38.3061ZM25.3006 10.4293C25.2318 15.48 25.2926 20.5319 25.2118 25.5826C25.1697 28.2082 25.178 30.8357 25.186 33.4639C25.19 34.7965 24.9153 36.0157 23.9646 37.0162C23.8764 37.1165 23.7966 37.2242 23.7262 37.3378C23.5156 37.6498 23.5646 37.8959 23.8809 38.1234C26.0401 39.6813 28.11 41.3541 30.1806 43.0245C30.2761 43.1047 30.3593 43.2215 30.5476 43.1981C29.8574 41.6509 29.3886 40.0616 28.9926 38.4453C28.839 37.821 28.687 37.1946 28.6329 36.552C28.4988 34.9749 28.5374 33.3922 28.5068 31.8119C28.455 29.1066 28.4809 26.3997 28.4689 23.6893C28.4591 22.7648 28.5155 21.8409 28.6377 20.9245C28.8092 19.6933 29.1025 18.4997 29.8718 17.4808C30.3745 16.8141 30.382 16.8167 29.8905 16.1138C28.1844 13.6695 27.2566 10.9128 26.6196 8.04022C26.0468 5.45355 25.7348 2.83035 25.4702 0.199951H25.367C25.3329 3.61222 25.3468 7.02048 25.3006 10.4293ZM73.9036 38.421C74.3593 38.429 74.614 38.1717 74.807 37.801C77.1626 33.2815 79.52 28.763 81.879 24.2453C82.0428 23.9498 82.1292 23.6178 82.1302 23.28C82.1004 22.7405 81.8393 22.1999 81.5137 21.6861C80.994 20.8666 80.3473 20.1469 79.7017 19.4271C79.615 19.3312 79.5489 19.1544 79.4068 19.1858C79.2644 19.2173 79.2854 19.4045 79.2612 19.5309C78.9913 20.9688 78.6897 22.3978 78.0489 23.7282C76.8116 26.2887 75.435 28.7778 74.1332 31.3053C74.0806 31.4058 74.0425 31.5642 73.8956 31.541C73.7484 31.5178 73.7161 31.3543 73.6532 31.2386C72.4182 28.8581 71.1846 26.4762 69.9524 24.0933C69.3725 22.9724 68.9413 21.7806 68.6697 20.5482C68.5833 20.1557 68.487 19.7655 68.3932 19.3749C68.3577 19.2277 68.302 19.0853 68.1396 19.2719C67.278 20.2658 66.3734 21.2309 65.8668 22.4727C65.6081 23.1074 65.6582 23.7154 65.9806 24.3295C68.3401 28.8165 70.6923 33.3072 73.0372 37.8018C73.2262 38.1629 73.4662 38.4138 73.9036 38.421ZM91.5297 37.4503C91.5297 38.3639 91.6518 38.4629 92.5724 38.2941L92.6118 38.2853C94.0804 37.9933 95.0633 36.7999 95.0649 35.2752C95.0697 30.5343 95.0697 25.7934 95.0649 21.0525C95.0649 20.0352 94.938 19.933 93.914 20.1277C93.8742 20.1349 93.8332 20.1469 93.7958 20.1565C92.4617 20.4855 91.546 21.6186 91.5329 23.0269C91.5161 25.4394 91.5289 27.8482 91.5289 30.2584H91.5249C91.5249 32.6559 91.5265 35.0533 91.5297 37.4503Z" fill="black"/>
</g>
<defs>
<clipPath id="clip0_4516_87826">
<rect width="165.067" height="44" fill="white" transform="translate(0.216797)"/>
</clipPath>
</defs>
</svg>
