<svg width="148" height="44" viewBox="0 0 148 44" fill="none" xmlns="http://www.w3.org/2000/svg">
<path d="M75.6923 6.03971H77.904V5.48919L77.3485 4.93372H74.5916L74.0361 5.48919V9.90118L74.5916 10.4517H77.3485L77.904 9.90118V9.35063H75.6923V8.24515H77.904V7.14436H75.6923V6.03971Z" fill="white"/>
<path d="M77.5301 0H74.4092V3.12072H77.5301V0Z" fill="#3BBFF0"/>
<path d="M71.4605 4.9342V7.1457H69.8046V4.9342H68.7039L68.1484 5.48971V9.90171L68.7039 10.4522H69.8046V8.24571H71.4605V10.4522H72.5663L73.117 9.90171V5.48971L72.5663 4.9342H71.4605Z" fill="white"/>
<path d="M62.8162 4.9342L62.2607 5.48971V6.04023H63.9173V9.90418L64.4728 10.4547H65.0231L65.5735 9.90418V6.04023H67.2297V5.48971L66.6793 4.9342H62.8162Z" fill="white"/>
<path d="M2.74072 12.3551L0.53418 14.5666V23.3988L2.74072 25.6053H11.5721V30.0173H7.16012V27.8107H0.53418V32.2288L2.74072 34.4357H15.9898L18.1964 32.2288V23.3988L15.9898 21.187H7.15902V16.775H11.571V18.9816H18.1969V14.5696L15.9898 12.3551H2.74072Z" fill="white"/>
<path d="M62.3535 12.3551V34.4361H77.8093L80.0162 32.2293V14.5666L77.8093 12.3601H62.3535V12.3551ZM68.9783 16.7732H73.3973V30.0228H68.979L68.9783 16.7732Z" fill="white"/>
<path d="M82.2227 12.3551V34.4361H97.6785L99.885 32.2293V25.6045L97.6785 23.3988L99.885 21.1922V14.5666L97.6785 12.3601H82.2227V12.3551ZM88.8475 25.6048H93.2664V30.0228H88.8481V25.6048M88.8481 21.1865V16.7745H93.2664V21.1865H88.8481Z" fill="white"/>
<path d="M104.304 12.3551L102.098 14.5617V32.2244L104.304 34.4309H117.549L119.756 32.2244V14.5617L117.549 12.3551H104.304ZM108.717 16.7732H113.136V30.0228H108.717V16.7732Z" fill="white"/>
<path d="M143.796 19.2275L139.626 23.3975L143.796 27.5675L147.966 23.3975L143.796 19.2275Z" fill="#3BBFF0"/>
<path d="M28.9884 35.6605L24.8184 39.8306L28.9884 44.0007L33.1583 39.8306L28.9884 35.6605Z" fill="#3BBFF0"/>
<path d="M133.005 12.3551V18.9799L130.798 21.1865L128.592 18.9799V12.3551H124.173L121.967 14.5666V21.1865L124.173 23.3983L121.967 25.6048V32.2293L124.173 34.4361H128.592V27.8107L130.798 25.6042L133.005 27.8107V34.4357H137.422L139.629 32.2288V25.6048L137.422 23.3988L139.629 21.187V14.5666L137.422 12.3551H133.005Z" fill="white"/>
<path d="M53.5227 12.3551V18.9799L46.8979 12.3551H42.4858L40.2793 14.5666V32.2293L42.4858 34.4361H46.8979V21.1865L53.5227 27.8113V34.4361H57.941L60.1475 32.2293V14.5666L57.941 12.3551H53.5227Z" fill="white"/>
<path d="M35.8594 12.4047H22.6148L20.4082 14.6112V32.2739L22.6148 34.4803H27.0328V25.6491H31.4447V34.4855H35.8567L38.0632 32.2789V14.6161L35.8594 12.4047ZM29.2346 22.0472L26.4137 19.2263L29.2346 16.4053L32.0556 19.2263L29.2346 22.0472Z" fill="white"/>
</svg>
