<svg width="168" height="20" viewBox="0 0 168 20" fill="none" xmlns="http://www.w3.org/2000/svg">
<path d="M76.46 0H72.4901L65.0615 12.8722L68.8811 16.7519H72.3698L76.1893 12.9323H70.3548L69.7833 12.3609L74.2345 4.66165C74.4751 4.66165 74.5051 4.66165 74.7457 4.66165L83.5878 20H87.9788L76.46 0Z" fill="white"/>
<path d="M102.325 0H88.6106L85.2422 3.36842L87.2272 6.79699L90.1745 3.81955H100.761L101.393 4.4812V5.83459L100.761 6.46617H93.6332L86.8061 13.3233L88.761 16.7218L95.2272 10.2857H102.325L105.212 7.3985V2.88722L102.325 0Z" fill="white"/>
<path d="M48.6709 6.46612L48.0393 5.83454V4.45108L48.6709 3.8195H58.6859L61.7836 6.91725L63.7686 3.51875L60.2799 0.0300293H47.1069L44.2197 2.91725V4.42101V7.51875V16.7218H48.0393V10.2857H53.543L60.0092 16.7218H65.4227L55.137 6.46612H48.6709Z" fill="white"/>
<path d="M36.5801 6.46617H26.8959C26.6553 6.22556 26.535 6.10526 26.2944 5.86466V0H22.5049V16.7218H26.3244V10.8571C26.565 10.6165 26.6853 10.4962 26.9259 10.2556H36.5801C36.8207 10.4962 36.941 10.6165 37.1816 10.8571V16.7218H41.0011V0H37.1816V5.86466C36.941 6.10526 36.8207 6.22556 36.5801 6.46617Z" fill="white"/>
<path d="M122.656 10.0451L112.551 0H108.431V16.7218H112.25V6.01504L112.731 5.53384L123.107 15.8797V16.7218H126.927V0H123.107V9.59399L122.656 10.0451Z" fill="white"/>
<path d="M155.137 12.9323L154.505 12.3008V0H150.686V13.8346L153.573 16.7218H165.362C166.264 15.8196 166.806 15.2782 167.708 14.3759V12.9023H155.137V12.9323Z" fill="white"/>
<path d="M130.145 2.88722V13.8647L133.032 16.7519H147.468V12.9323H134.596L133.964 12.3008V10.8872C134.205 10.6466 134.325 10.5263 134.566 10.2857H146.896V6.46617H134.566C134.325 6.22556 134.205 6.10526 133.964 5.86466V4.45113L134.596 3.81955H147.468V0H133.032L130.145 2.88722Z" fill="white"/>
<path d="M5.24214 6.46612L4.61056 5.83454V4.48116L5.24214 3.84958H18.9865V3.06762V2.37589C18.0842 1.47364 17.5429 0.932285 16.6406 0.0300293H3.67823L0.791016 2.88717V7.39845L3.67823 10.2857H14.8361L15.4677 10.9172V12.2706L14.8361 12.9022H1.09177V13.6541V14.2255C1.99402 15.1278 2.53538 15.7894 3.43763 16.7218H16.4L19.2873 13.7142V9.35334L16.4 6.46612H5.24214Z" fill="white"/>
</svg>
