<svg width="176" height="72" viewBox="0 0 176 72" fill="none" xmlns="http://www.w3.org/2000/svg">
<g clip-path="url(#clip0_4516_87725)">
<path d="M9.30122 14.7782L8.40137 17.7L10.6278 17.544L9.30122 14.7782Z" fill="#D3811A"/>
<path d="M150.791 13.2284C150.791 13.2284 131.358 26.9379 100.413 30.3496C97.96 30.6208 95.4347 30.8263 92.8411 30.9561C90.7845 31.0582 88.6843 31.1121 86.5436 31.1121C85.3709 31.1121 84.2141 31.0961 83.0719 31.0654C80.7294 31.0028 78.4493 30.8759 76.2345 30.6951C43.7078 28.0416 25.2 13.6162 25.2 13.6162C25.2 13.6162 24.0389 5.06362 25.0055 2.34155C27.5962 4.94261 39.1114 15.7405 59.0822 22.1702L60.281 24.191L60.908 22.7374C64.2505 23.742 67.818 24.6211 71.6075 25.318C73.4798 25.6636 75.4072 25.9639 77.3898 26.2133C80.9732 26.6638 84.7352 26.9495 88.6727 27.0297C91.7162 27.0297 95.0399 26.8125 98.5406 26.3707C100.364 26.1418 102.234 25.8517 104.137 25.5003C120.424 22.4939 139.105 15.0013 150.791 2.53547C151.759 7.97961 151.565 11.0895 150.791 13.2284Z" fill="url(#paint0_linear_4516_87725)"/>
<path d="M11.0719 27.4177C11.8339 17.8154 0.622072 25.6682 0.622072 25.6682C0.622072 25.6682 0.569823 56.7846 21.9732 72.0002L23.1343 65.6492C23.1343 65.6492 10.31 37.0215 11.0719 27.4177Z" fill="url(#paint1_linear_4516_87725)"/>
<path d="M25.1996 13.6162L11.0719 27.419L0.62207 25.6694C1.66706 23.1704 3.78606 20.4148 6.35788 17.6986H10.2345L9.30126 14.7782C16.426 8.0875 25.0051 2.34155 25.0051 2.34155L25.1996 13.6162Z" fill="url(#paint2_linear_4516_87725)"/>
<path d="M25.4562 17.3106C25.4562 17.3106 25.4547 17.3106 25.4533 17.3121C25.3284 17.3762 21.3154 19.4889 16.507 25.2217C15.6202 26.2802 14.7044 27.4626 13.7813 28.7792C13.4577 31.2797 13.5143 33.8428 13.8336 36.3797C14.1079 38.5696 14.5781 40.7376 15.1689 42.827C15.3967 43.6405 15.6449 44.4409 15.9061 45.2268L12.1036 36.4905L11.5782 36.1887L9.84668 35.1944L11.1979 33.7845C10.7799 30.7183 10.7509 28.4409 11.0716 27.4189C12.2327 23.7258 25.1993 13.6161 25.1993 13.6161L25.4562 17.3106Z" fill="url(#paint3_linear_4516_87725)"/>
<g filter="url(#filter0_i_4516_87725)">
<path d="M163.628 29.2332C163.55 30.9084 163.542 33.0283 163.289 35.5915V35.5987C162.699 41.559 160.779 49.906 153.564 60.596C153.461 60.5843 153.358 60.5727 153.255 60.561C130.187 57.9877 112.816 56.0617 88.0277 56.4495C63.128 56.8388 38.2298 58.393 23.7799 60.8555C23.7799 60.8555 23.7785 60.8541 23.7785 60.8512C17.8685 50.3084 15.3388 44.1309 14.092 36.2505C13.7597 34.1568 13.5202 31.9421 13.3301 29.4927C13.3301 29.4927 14.6015 27.5769 16.7655 25.0925C18.9614 22.5716 22.076 19.4675 25.7117 17.1829C25.7132 17.1814 25.7146 17.1814 25.7146 17.1814C25.7146 17.1814 44.0411 30.7626 79.4443 32.6463C79.6345 32.6565 79.826 32.6667 80.0176 32.6755L80.0597 29.6224C81.2019 29.6531 85.6272 30.9827 86.7999 30.9827C88.9406 30.9827 93.6445 30.1123 95.7011 30.0103L97.1844 32.6288C97.2091 32.6274 97.2352 32.6259 97.2599 32.6244C97.5182 32.6113 97.7766 32.5982 98.032 32.5836C98.2947 32.569 98.556 32.5545 98.8158 32.5384C99.3092 32.5093 99.7998 32.4786 100.285 32.4451C100.82 32.4087 101.351 32.3693 101.877 32.327C102.344 32.292 102.808 32.2527 103.267 32.2133C103.299 32.2104 103.331 32.2075 103.363 32.2045C103.608 32.1827 103.853 32.1608 104.096 32.1375C104.348 32.1156 104.598 32.0908 104.846 32.066C105.078 32.0442 105.311 32.0208 105.54 31.9975C106.563 31.894 107.563 31.7803 108.541 31.6593C108.845 31.6213 109.147 31.5834 109.447 31.5441C109.758 31.5047 110.065 31.4639 110.372 31.4216C110.417 31.4158 110.462 31.4099 110.505 31.4026C110.684 31.3793 110.859 31.3545 111.035 31.3283C111.255 31.2977 111.473 31.2671 111.691 31.2335C112.779 31.0746 113.839 30.9055 114.871 30.7261C115.077 30.6911 115.283 30.6547 115.486 30.6182C115.637 30.592 115.785 30.5658 115.933 30.5381C116.135 30.5016 116.335 30.4652 116.534 30.4273C116.833 30.3718 117.129 30.3164 117.422 30.2581C117.579 30.2275 117.734 30.1969 117.888 30.1663C118.28 30.089 118.666 30.0103 119.049 29.9286C122.987 29.1049 126.485 28.1542 129.601 27.1468C129.752 27.0972 129.9 27.0491 130.048 26.9995C130.792 26.756 131.514 26.5067 132.213 26.2559C132.354 26.2064 132.493 26.1568 132.631 26.1058C132.769 26.0562 132.907 26.0052 133.043 25.9541C133.165 25.9104 133.287 25.8652 133.408 25.82C133.557 25.7646 133.707 25.7077 133.853 25.6509C133.987 25.6013 134.119 25.5503 134.251 25.4992C134.456 25.4205 134.657 25.3418 134.858 25.263C135.174 25.1377 135.486 25.0123 135.792 24.8869C135.917 24.8373 136.042 24.7848 136.165 24.7338C136.29 24.6828 136.412 24.6317 136.534 24.5807C136.656 24.5297 136.778 24.4786 136.897 24.4276C137.019 24.3766 137.138 24.3256 137.257 24.2731C138.326 23.8138 139.335 23.3531 140.284 22.8982C140.39 22.8486 140.495 22.7976 140.599 22.748C140.704 22.697 140.807 22.6474 140.91 22.5964C141.084 22.5118 141.254 22.4287 141.424 22.3441C141.625 22.2435 141.826 22.1444 142.022 22.0438C142.12 21.9942 142.218 21.9447 142.315 21.8951C142.633 21.7332 142.942 21.5729 143.245 21.4139C143.406 21.3308 143.564 21.2463 143.72 21.1632C143.743 21.1515 143.766 21.1384 143.788 21.1267C143.924 21.0553 144.059 20.9824 144.193 20.9095C144.498 20.7462 144.794 20.5858 145.083 20.4254C145.165 20.3802 145.248 20.335 145.329 20.2898C145.576 20.1528 145.817 20.0186 146.052 19.886C146.13 19.8422 146.209 19.7985 146.286 19.7548C146.427 19.676 146.567 19.5973 146.705 19.5186C148.448 18.5286 149.889 17.6757 151.112 17.0516C151.336 17.1785 151.617 17.3549 151.942 17.5794C151.952 17.5867 151.962 17.594 151.974 17.6013C152.01 17.6246 152.046 17.6494 152.084 17.6757C153.142 18.4134 154.628 19.5842 156.248 21.0378C156.26 21.0465 156.27 21.0567 156.28 21.0669C158.763 23.3006 161.556 26.1918 163.599 29.1952C163.617 29.22 163.627 29.2332 163.627 29.2332H163.628Z" fill="url(#paint4_radial_4516_87725)"/>
</g>
<path d="M151.094 17.718C151.252 17.8171 151.428 17.9308 151.61 18.0577C151.628 18.0708 151.647 18.0825 151.661 18.0927C151.692 18.1131 151.722 18.1335 151.754 18.1554C152.925 18.9718 154.423 20.182 155.863 21.4737L155.879 21.4883L155.883 21.4927L155.895 21.5029C157.949 23.3502 160.844 26.2122 163.04 29.4067C163.023 29.8047 163.009 30.2261 162.995 30.6678C162.949 32.0806 162.896 33.683 162.712 35.5361L162.709 35.5725C162.349 39.1913 161.581 42.6467 160.364 46.1342C158.786 50.6496 156.404 55.3064 153.279 59.9808C132.439 57.6553 115.973 55.8211 94.3016 55.8197C92.2479 55.8197 90.1348 55.8357 88.0187 55.8692C61.7793 56.2789 37.9377 57.9017 24.0873 60.2155C21.1003 54.8661 19.1323 50.8843 17.7259 47.34C16.2397 43.5958 15.2963 40.1492 14.665 36.1616C14.3587 34.2326 14.1222 32.1608 13.9248 29.6545C14.2775 29.1428 15.4487 27.4923 17.202 25.4788C19.1265 23.2685 22.141 20.1878 25.6968 17.8856C26.8986 18.7196 31.3499 21.6327 39.0872 24.7513C47.3455 28.0799 61.0464 32.2541 79.4135 33.231C79.6051 33.2412 79.7981 33.2514 79.9911 33.2601H80.0056H80.0187H80.592L80.5993 32.6857L80.6326 30.2844C81.2843 30.4025 82.2524 30.6343 83.1333 30.8472C84.6718 31.2175 86.1246 31.5689 86.801 31.5689C88.0419 31.5689 90.0462 31.2948 91.9838 31.0309C93.2741 30.8545 94.5019 30.6868 95.3771 30.6183L96.6804 32.9204L96.859 33.2354L97.2189 33.2135H97.2552L97.2886 33.2091H97.2987C97.5556 33.196 97.811 33.1829 98.0636 33.1683C98.3277 33.1537 98.5904 33.1391 98.8488 33.1231C99.4134 33.0896 99.8821 33.0604 100.323 33.0298C100.863 32.9933 101.4 32.9525 101.92 32.9117C102.396 32.8767 102.871 32.8359 103.32 32.7965L103.415 32.7878H103.424C103.667 32.7659 103.911 32.744 104.146 32.7207C104.392 32.6988 104.625 32.677 104.901 32.6492C105.135 32.6274 105.368 32.6041 105.599 32.5807C106.574 32.4816 107.589 32.3679 108.614 32.241C108.918 32.2031 109.222 32.1652 109.521 32.1258C109.827 32.0865 110.14 32.0456 110.45 32.0034C110.497 31.9975 110.544 31.9902 110.59 31.9829C110.765 31.9596 110.939 31.9363 111.116 31.9086C111.328 31.8794 111.553 31.8474 111.776 31.8138C112.862 31.6549 113.936 31.4843 114.969 31.305C115.177 31.27 115.384 31.2335 115.587 31.1971C115.741 31.1708 115.891 31.1431 116.039 31.1169C116.242 31.0805 116.445 31.044 116.643 31.0061C116.976 30.9449 117.257 30.8909 117.537 30.8355C117.693 30.8049 117.85 30.7743 118.004 30.7437C118.418 30.662 118.801 30.5833 119.172 30.5045C122.853 29.7347 126.423 28.7929 129.786 27.7067L129.904 27.6687C130.015 27.6323 130.126 27.5959 130.233 27.5594C130.937 27.329 131.651 27.0841 132.412 26.8115C132.555 26.7604 132.698 26.7109 132.834 26.6598C132.973 26.6102 133.111 26.5578 133.249 26.5067C133.373 26.463 133.496 26.4163 133.615 26.3711C133.766 26.3157 133.917 26.2574 134.065 26.2006C134.2 26.151 134.332 26.0985 134.465 26.0475C134.671 25.9687 134.875 25.8885 135.078 25.8098C135.416 25.6757 135.724 25.5517 136.013 25.4336C136.113 25.3943 136.211 25.3535 136.31 25.3126L136.391 25.2791C136.513 25.2295 136.634 25.1785 136.754 25.1289L136.769 25.1231C136.891 25.0721 137.013 25.021 137.129 24.9715C137.253 24.919 137.377 24.8665 137.493 24.8155C138.512 24.3781 139.538 23.9115 140.538 23.4333C140.602 23.4027 140.666 23.372 140.729 23.3414L140.862 23.2787L140.969 23.2263C141.039 23.1927 141.107 23.1592 141.172 23.1271C141.348 23.0411 141.519 22.958 141.692 22.872L141.793 22.8209C141.963 22.7364 142.132 22.6533 142.291 22.5702C142.391 22.5206 142.489 22.4696 142.587 22.42C142.876 22.2727 143.174 22.1182 143.52 21.9374C143.682 21.8543 143.841 21.7683 143.998 21.6852C144.017 21.6749 144.036 21.6647 144.055 21.6545L144.068 21.6472C144.207 21.5743 144.345 21.5 144.477 21.4271C144.827 21.239 145.113 21.0845 145.371 20.9416C145.455 20.8964 145.539 20.8497 145.622 20.8045C145.87 20.6675 146.113 20.5319 146.346 20.4007L146.358 20.3948C146.433 20.3525 146.51 20.3103 146.587 20.2665C146.728 20.1878 146.867 20.1091 147.004 20.0318C147.455 19.7752 147.886 19.5288 148.298 19.2911C149.354 18.6861 150.281 18.1554 151.105 17.7223M151.124 17.056C149.902 17.6801 148.461 18.533 146.718 19.523C146.58 19.6017 146.439 19.6804 146.298 19.7591C146.221 19.8029 146.143 19.8466 146.065 19.8904C145.83 20.023 145.589 20.1572 145.342 20.2942C145.261 20.3394 145.178 20.3846 145.095 20.4298C144.806 20.5902 144.51 20.7506 144.206 20.9139C144.072 20.9868 143.937 21.0597 143.801 21.1311C143.779 21.1428 143.756 21.1559 143.732 21.1676C143.577 21.2507 143.419 21.3352 143.258 21.4183C142.954 21.5773 142.645 21.7376 142.327 21.8995C142.23 21.949 142.133 21.9986 142.034 22.0482C141.838 22.1488 141.638 22.2479 141.436 22.3485C141.267 22.4331 141.097 22.5162 140.923 22.6008C140.819 22.6518 140.716 22.7014 140.612 22.7524C140.507 22.802 140.403 22.853 140.297 22.9026C139.348 23.3575 138.339 23.8182 137.269 24.2775C137.15 24.3299 137.031 24.381 136.91 24.432C136.79 24.483 136.669 24.5341 136.547 24.5851C136.425 24.6361 136.303 24.6872 136.178 24.7382C136.055 24.7892 135.93 24.8417 135.805 24.8913C135.499 25.0167 135.187 25.1421 134.87 25.2674C134.67 25.3462 134.468 25.4249 134.264 25.5036C134.132 25.5547 134 25.6057 133.866 25.6553C133.719 25.7121 133.57 25.769 133.42 25.8244C133.3 25.8696 133.178 25.9148 133.056 25.9585C132.92 26.0096 132.782 26.0606 132.644 26.1102C132.506 26.1612 132.367 26.2108 132.226 26.2603C131.526 26.5111 130.805 26.7604 130.06 27.0039C129.912 27.0535 129.764 27.1016 129.613 27.1512C126.497 28.1586 123 29.1092 119.062 29.933C118.679 30.0147 118.293 30.0934 117.901 30.1707C117.747 30.2013 117.592 30.2319 117.435 30.2625C117.142 30.3208 116.846 30.3762 116.547 30.4316C116.348 30.4696 116.148 30.506 115.946 30.5425C115.798 30.5702 115.65 30.5964 115.499 30.6226C115.296 30.6591 115.09 30.6955 114.884 30.7305C113.852 30.9099 112.792 31.079 111.704 31.2379C111.486 31.2714 111.268 31.3021 111.048 31.3327C110.872 31.3589 110.696 31.3837 110.518 31.407C110.474 31.4143 110.429 31.4202 110.384 31.426C110.078 31.4683 109.77 31.5091 109.46 31.5485C109.159 31.5878 107.456 29.681 107.152 29.7189C106.174 29.8399 106.576 31.8984 105.553 32.0019C105.323 32.0252 105.091 32.0486 104.859 32.0704C104.611 32.0952 104.361 32.12 104.109 32.1419C103.866 32.1652 103.621 32.1871 103.376 32.2089C103.344 32.2119 103.312 32.2148 103.28 32.2177C102.821 32.257 102.357 32.2964 101.889 32.3314C101.364 32.3737 100.833 32.4131 100.297 32.4495C99.8125 32.483 99.3219 32.5137 98.8285 32.5428C98.5687 32.5589 98.3074 32.5734 98.0447 32.588C97.7893 32.6026 97.5309 32.6157 97.2726 32.6288C97.2479 32.6303 97.2218 32.6318 97.1971 32.6332L95.7138 30.0147C93.6572 30.1167 88.9533 30.9871 86.8126 30.9871C85.6399 30.9871 81.2146 29.6574 80.0724 29.6268L80.0303 32.6799C79.8387 32.6711 79.6472 32.6609 79.457 32.6507C44.0538 30.767 25.7273 17.1858 25.7273 17.1858C25.7273 17.1858 24.5063 17.1843 25.1153 17.1858C21.4797 19.4705 19.1682 21.6601 16.9723 24.181C14.8083 26.6654 13.3428 29.4971 13.3428 29.4971C13.5329 31.9465 13.2984 34.4827 13.6308 36.5764C14.8775 44.4569 17.1144 50.431 23.0244 60.9738C22.562 61.4399 23.0244 61.4086 23.0244 61.4086C37.4742 58.9461 63.119 57.6404 88.0187 57.2511C90.1638 57.2176 92.2596 57.2511 94.3016 57.2511C115.862 57.2511 131.53 59.0831 152.601 61.4333C152.704 61.445 153.474 60.5887 153.577 60.6004C160.792 49.9104 162.712 41.5634 163.301 35.6031V35.5958C163.555 33.0327 163.562 30.9128 163.641 29.2375C163.641 29.2375 163.631 29.2244 163.613 29.1996C161.57 26.1962 158.777 23.305 156.294 21.0713C156.284 21.0611 156.274 21.0509 156.262 21.0422C154.642 19.5886 153.156 18.4178 152.098 17.6801C152.06 17.6538 152.024 17.629 151.988 17.6057C151.976 17.5984 151.966 17.5911 151.956 17.5838C151.631 17.3593 151.351 17.1829 151.126 17.056H151.124Z" fill="#141414"/>
<path d="M174.864 33.6273L174.652 33.7279C174.417 33.8008 174.157 33.8839 173.88 33.9743L173.858 33.9816C171.822 34.6494 168.927 35.6831 169.034 35.6831C169.136 35.6831 172.217 35.7297 174.593 35.7647C174.507 36.3538 174.411 36.9603 174.303 37.5828C171.84 39.0292 168.744 40.8415 168.587 40.8983C168.722 40.9056 171.242 42.1551 173.085 43.0795C170.57 52.3771 165.149 63.4972 153.564 71.3689L152.661 65.6667C152.661 65.6667 165.485 37.0376 164.723 27.4352C163.96 17.8314 175.173 25.6856 175.173 25.6856C175.173 25.6856 175.39 28.8305 174.864 33.6273Z" fill="url(#paint5_linear_4516_87725)"/>
<path d="M165.627 26.9658C165.309 29.0333 165.074 31.404 164.702 34.0954C164.592 34.9002 164.47 35.7357 164.328 36.5988C163.11 41.3343 160.742 49.1259 157.61 52.6527C159.158 49.4831 160.763 45.6048 161.887 41.3679C162.371 39.5439 162.766 37.6558 163.03 35.7284V35.7211C163.316 33.6347 163.447 31.5031 163.37 29.3628C163.37 29.3628 163.36 29.3497 163.342 29.3249C163.019 28.8948 159.945 24.8357 156.023 21.1966C156.013 21.1864 156.003 21.1761 155.991 21.1674C154.675 19.9471 153.263 18.7748 151.827 17.8053C151.79 17.779 151.753 17.7542 151.717 17.7309C151.705 17.7236 151.695 17.7163 151.685 17.709C151.409 17.5253 151.132 17.3489 150.855 17.1813L150.791 13.2286C150.791 13.2286 159.758 19.2545 165.627 26.9658Z" fill="url(#paint6_linear_4516_87725)"/>
<path d="M164.328 36.5985C163.126 43.973 160.618 53.4937 153.177 65.5207L152.791 60.9849C152.791 60.9849 152.864 60.8843 152.997 60.6904C153.618 59.7835 155.566 56.8354 157.61 52.6525C160.742 49.1256 163.11 41.3341 164.328 36.5985Z" fill="url(#paint7_linear_4516_87725)"/>
<path d="M175.174 26.0574C171.303 26.4467 165.627 26.9658 165.627 26.9658C165.627 26.9658 156.209 16.1445 150.791 13.2286C150.984 9.72792 150.791 2.53564 150.791 2.53564C150.791 2.53564 154.167 4.16422 158.771 7.70423V9.96703L160.591 9.15493C165.206 12.9676 170.673 18.5225 175.174 26.0574Z" fill="url(#paint8_linear_4516_87725)"/>
<path d="M173.086 43.0796L171.261 41.0238L168.588 40.8984L173.086 43.0796Z" fill="#DE7312"/>
<path d="M174.303 37.5829L171.261 41.0237L168.588 40.8984L174.303 37.5829Z" fill="#661F03"/>
<path d="M174.593 35.7648L171.703 35.116L169.034 35.6831L174.593 35.7648Z" fill="#DE7312"/>
<path d="M174.864 33.629L174.652 33.7282L171.703 35.1162L169.034 35.6833L173.859 33.9819L173.88 33.9746L174.864 33.629Z" fill="#661F03"/>
<path d="M23.5214 60.9847L23.1339 65.6502C16.7116 56.185 13.0295 44.2994 11.5781 36.1886L12.1035 36.4904L15.9061 45.2267C18.8074 53.9644 23.3937 60.7951 23.52 60.9803C23.52 60.9832 23.52 60.9847 23.52 60.9847H23.5214Z" fill="url(#paint9_linear_4516_87725)"/>
<g filter="url(#filter1_d_4516_87725)">
<path d="M87.8335 32.2567C95.7361 32.2567 102.143 25.8211 102.143 17.8824C102.143 9.94367 95.7361 3.50806 87.8335 3.50806C79.9308 3.50806 73.5244 9.94367 73.5244 17.8824C73.5244 25.8211 79.9308 32.2567 87.8335 32.2567Z" fill="url(#paint10_radial_4516_87725)"/>
</g>
<path d="M98.5407 26.3693C98.201 26.7265 97.7642 27.5604 97.532 27.7631C97.4086 27.7762 99.1909 25.3501 100.124 23.5933C101.234 21.5083 102.009 18.69 101.313 15.2185C99.6959 7.15439 92.4914 4.51543 88.0806 4.36817C83.6699 4.22237 76.0256 6.56828 74.4073 14.4852C73.6032 18.4203 74.236 21.2998 75.4102 23.4562C76.3811 25.2422 77.7919 27.1916 77.2882 26.7046C74.8079 24.3135 72.4958 20.0241 73.8267 13.4587C75.5292 5.06655 83.5741 2.58067 88.2156 2.73522C92.8556 2.89123 100.436 5.68911 102.139 14.2359C103.337 20.2603 100.388 24.4316 98.5407 26.3693Z" fill="#9F4D13"/>
<path d="M150.791 13.2285C150.791 13.2285 131.357 26.938 100.412 30.3497C100.89 29.908 101.514 29.2781 102.173 28.4675C102.666 27.8595 103.178 27.1494 103.662 26.3417C103.824 26.072 103.982 25.792 104.136 25.5004C105.598 22.7361 106.618 18.9978 105.701 14.3949C103.573 3.70202 94.0899 0.202837 88.2845 0.00892388C82.479 -0.184989 72.4166 2.92491 70.2875 13.4224C69.2294 18.6406 70.0625 22.4591 71.6068 25.3182C71.884 25.8314 72.1844 26.314 72.5008 26.7689C72.9261 27.3798 73.3803 27.9382 73.8462 28.4529C74.6343 29.3189 75.4543 30.0567 76.2337 30.6953C43.7071 28.0417 25.1992 13.6164 25.1992 13.6164L25.4561 17.3109C25.4561 17.3109 43.7826 30.8921 79.1858 32.7758C79.3759 32.786 79.5675 32.7962 79.7591 32.805H79.7606L83.0711 32.2262C83.0711 32.2262 79.5283 29.3583 78.6517 28.24C76.5269 25.5252 72.495 20.0257 73.8259 13.4604C75.5284 5.06815 83.5733 2.58228 88.2148 2.73683C92.8548 2.89283 100.435 5.69072 102.138 14.2375C103.337 20.2619 100.087 24.1824 98.5398 26.3709C96.0261 29.924 92.8403 32.1168 92.8403 32.1168L96.9274 32.7583C96.952 32.7569 96.9782 32.7554 97.0028 32.754C97.2612 32.7408 97.5195 32.7277 97.775 32.7131C98.0377 32.6986 98.2989 32.684 98.5587 32.6679C99.0522 32.6388 99.5427 32.6082 100.027 32.5746C100.563 32.5382 101.094 32.4988 101.62 32.4565C102.087 32.4215 102.551 32.3822 103.01 32.3428C103.042 32.3399 103.074 32.337 103.106 32.3341C103.351 32.3122 103.596 32.2903 103.839 32.267C104.091 32.2451 104.341 32.2203 104.589 32.1955C104.821 32.1737 105.052 32.1503 105.283 32.127C105.728 32.0818 106.168 32.0352 106.605 31.9871L106.518 31.6298L107.219 30.2229L107.55 29.5566H109.271L110.564 31.4884C110.636 31.4782 110.707 31.468 110.778 31.4578C110.784 31.4563 110.791 31.4563 110.797 31.4549C111.01 31.4257 111.222 31.3937 111.434 31.363C112.522 31.2041 113.582 31.035 114.614 30.8557C114.82 30.8207 115.026 30.7842 115.229 30.7478C115.38 30.7215 115.528 30.6953 115.676 30.6676C115.878 30.6311 116.078 30.5947 116.277 30.5568C116.576 30.5014 116.872 30.446 117.165 30.3876C117.321 30.357 117.476 30.3264 117.631 30.2958C118.023 30.2185 118.409 30.1398 118.792 30.0581C122.73 29.2344 126.228 28.2838 129.344 27.2763C129.493 27.2267 129.643 27.1786 129.791 27.129C130.535 26.8855 131.257 26.6362 131.956 26.3855C132.097 26.3359 132.236 26.2863 132.374 26.2353C132.512 26.1857 132.65 26.1347 132.786 26.0836C132.908 26.0399 133.03 25.9947 133.151 25.9495C133.3 25.8941 133.45 25.8372 133.596 25.7804C133.73 25.7308 133.862 25.6798 133.994 25.6288C134.199 25.55 134.4 25.4713 134.601 25.3926C134.917 25.2672 135.229 25.1418 135.535 25.0164C135.66 24.9654 135.785 24.9143 135.908 24.8633C136.032 24.8123 136.155 24.7612 136.277 24.7102C136.399 24.6592 136.519 24.6082 136.64 24.5571C136.76 24.5061 136.881 24.4536 137 24.4026C138.069 23.9433 139.078 23.4826 140.027 23.0277C140.133 22.9781 140.238 22.9271 140.342 22.8775C140.447 22.8265 140.55 22.7769 140.653 22.7259C140.825 22.6413 140.997 22.5568 141.167 22.4737C141.368 22.3731 141.569 22.2739 141.765 22.1733C141.863 22.1237 141.96 22.0742 142.058 22.0246C142.376 21.8628 142.685 21.7024 142.988 21.5435C143.148 21.4604 143.306 21.3758 143.463 21.2927C143.486 21.281 143.509 21.2679 143.531 21.2562C143.667 21.1833 143.802 21.1119 143.936 21.039C144.241 20.8757 144.537 20.7153 144.825 20.5549C144.908 20.5097 144.991 20.4645 145.072 20.4193C145.319 20.2823 145.56 20.1482 145.795 20.0155C145.873 19.9717 145.952 19.928 146.029 19.8843C146.171 19.8041 146.31 19.7253 146.448 19.6481C148.191 18.6581 149.632 17.8052 150.854 17.1811L150.791 13.2285Z" fill="url(#paint11_linear_4516_87725)"/>
<path d="M94.8004 23.4636L93.381 19.3812L91.4463 24.8895L89.7685 21.3262L88.156 25.2147L86.4144 21.3262L84.6727 24.9551L82.6089 19.3827L81.1895 23.7246C81.1895 23.7246 82.6728 25.4742 88.3491 25.5383C93.4448 25.6025 94.799 23.4651 94.799 23.4651L94.8004 23.4636Z" fill="url(#paint12_linear_4516_87725)"/>
<path d="M81.1895 13.0973L82.6089 17.1796L84.5436 11.6713L86.2214 15.2347L87.8338 11.3462L89.5755 15.2347L91.3171 11.6057L93.381 17.1782L94.8004 12.8363C94.8004 12.8363 93.3171 11.0867 87.6408 11.0225C82.545 10.9584 81.1909 13.0958 81.1909 13.0958L81.1895 13.0973Z" fill="url(#paint13_linear_4516_87725)"/>
<path d="M23.5213 60.9849L23.1338 65.6505C23.1338 65.6505 46.8724 59.1712 88.7996 59.1712C118.859 59.1712 153.177 65.5222 153.177 65.5222L152.789 60.9864C152.789 60.9864 124.535 56.7101 88.4121 56.7101C52.2889 56.7101 23.5199 60.9864 23.5199 60.9864L23.5213 60.9849Z" fill="url(#paint14_linear_4516_87725)"/>
<path d="M23.1347 65.6507L21.9736 72.0017C21.9736 72.0017 45.0664 62.2813 89.0588 62.2813C133.051 62.2813 153.564 71.7422 153.564 71.7422L153.176 65.5209C153.176 65.5209 116.021 59.1699 88.799 59.1699C61.5772 59.1699 27.9054 63.0584 23.1333 65.6492L23.1347 65.6507Z" fill="#783B22"/>
<path d="M117.632 30.2943C118.022 30.217 118.41 30.1383 118.793 30.0566C118.41 30.1383 118.024 30.217 117.632 30.2943Z" fill="#1A405D"/>
<path d="M110.507 31.4027C110.464 31.41 110.419 31.4158 110.374 31.4217C110.067 31.4639 109.76 31.5048 109.449 31.5441L107.22 30.2232L107.551 29.5569H109.272L110.507 31.4027Z" fill="#E7A64A"/>
<path d="M156.792 17.3372L158.812 17.4203L158.481 19.1596L157.039 18.9103L156.792 17.3372Z" fill="#C67213"/>
<g filter="url(#filter2_d_4516_87725)">
<path d="M147.595 38.9487C147.595 38.9487 152.04 40.7479 151.862 46.2168C151.738 50.0061 148.152 51.5589 145.925 51.6828C143.699 51.8068 140.422 49.6329 140.422 49.6329L141.287 46.2781L146.233 48.1414L148.15 45.533L147.595 38.9487Z" fill="#E58B2E"/>
<path d="M148.021 32.8034C148.021 32.8034 144.606 32.5191 144.131 34.6638C143.657 36.8085 147.346 39.3221 147.346 39.3221L140.359 39.1354L141.905 31.1223L148.021 32.8034Z" fill="#E58B2E"/>
<path d="M32.8655 45.4004L32.7015 45.2911C32.5288 45.2823 32.3561 45.275 32.1819 45.2663C32.24 44.4877 31.8438 43.957 31.2473 43.5298C30.4983 42.9933 29.748 42.4567 29.0049 41.9114C24.9396 38.924 23.6203 34.6638 26.1239 30.6266C28.1645 27.8316 30.8351 28.6262 30.9468 28.6073C29.7059 33.77 26.0325 38.5945 29.4911 41.0687C30.6087 41.8662 31.8191 42.5413 32.7581 43.5706C32.9947 43.8025 33.4345 45.0826 32.8655 45.4004Z" fill="#E58B2E"/>
<path d="M98.5586 32.6663C99.0535 32.6371 99.5426 32.6051 100.027 32.573C99.5426 32.6065 99.0521 32.6371 98.5586 32.6663Z" fill="#1A405D"/>
<path d="M101.62 32.4549C102.087 32.4185 102.552 32.3806 103.011 32.3412C102.552 32.3806 102.087 32.4199 101.62 32.4549Z" fill="#1A405D"/>
<path d="M108.284 31.7871C108.902 31.7113 109.512 31.6311 110.114 31.5494C109.513 31.6325 108.902 31.7113 108.284 31.7871Z" fill="#1A405D"/>
<path d="M37.6406 31.36C37.6406 31.36 37.6435 31.3717 37.645 31.3775C37.6537 31.3804 37.6638 31.3848 37.6726 31.3891L37.6406 31.36Z" fill="#FAD060"/>
<path d="M82.4608 45.9194C82.455 45.953 82.4492 45.9865 82.4434 46.02L82.4521 45.918C82.4521 45.918 82.4579 45.9194 82.4608 45.9194Z" fill="#FAD060"/>
<path d="M87.4008 45.9486C87.3485 46.6762 87.2542 47.3786 87.2093 47.8306C87.2093 47.8306 86.781 48.4156 86.6127 48.417C84.1163 48.436 81.6214 48.4258 79.1265 48.4272L79.1454 48.4112L79.1846 47.7332V47.707C79.1846 47.707 79.2063 47.6224 79.2412 47.4606L79.8246 46.9007L80.0409 40.6882L79.2992 40.4097V40.4403C79.1976 40.0977 79.0975 39.8338 79.0264 39.6618C79.022 39.653 79.0191 39.6457 79.0162 39.6385C79.0061 39.6166 78.9959 39.5933 78.9872 39.5714C78.9828 39.5612 78.9785 39.551 78.9741 39.5422C78.9669 39.5247 78.9596 39.5087 78.9524 39.4941C78.9495 39.4868 78.9466 39.481 78.9436 39.4752C78.9393 39.465 78.9349 39.4547 78.9306 39.4475C78.9248 39.4358 78.9219 39.43 78.9219 39.43L79.485 38.701C79.5271 38.6966 79.5721 38.6951 79.6214 38.6981C82.1163 38.8059 84.6272 38.561 87.0989 39.0742C87.1134 39.0771 87.1265 39.083 87.141 39.0917C87.3224 39.6764 87.4269 40.4433 87.4792 41.2889C85.9436 41.1227 84.4037 40.974 82.8623 41.1562L82.8377 41.1591L82.8086 41.5149L82.7012 42.6857C82.7245 42.6886 85.3906 42.7542 86.7927 42.9014C87.0568 43.4963 86.9813 44.1028 86.858 44.7108C84.633 44.6335 82.6142 44.7662 82.6142 44.7662C82.5851 44.8172 82.5576 44.8741 82.5314 44.9368L82.5227 45.0505L82.4516 45.918L82.4429 46.0201C82.4487 45.9866 82.4545 45.953 82.4603 45.9195C84.1062 46.1251 85.7549 46.0565 87.4008 45.9486Z" fill="url(#paint15_radial_4516_87725)"/>
<path d="M102.295 39.0421C102.28 39.2652 102.264 39.4883 102.248 39.7128C102.075 40.1793 101.964 40.7669 101.896 41.3924C101.923 40.5147 101.955 39.3876 101.962 38.8322C102.073 38.8905 102.184 38.9605 102.295 39.0421Z" fill="#E58B2E"/>
<path d="M57.7926 47.4518L57.752 47.4591V47.3453C57.7563 47.3672 57.7607 47.3905 57.7665 47.4124C57.7766 47.4255 57.7853 47.4386 57.7926 47.4518Z" fill="#FAD060"/>
<path d="M58.0449 48.4768L58.0754 48.038C58.1146 48.2085 58.1015 48.3543 58.0449 48.4768Z" fill="#FAD060"/>
<path d="M53.1091 48.729L53.0888 48.9141C53.0597 48.9593 53.0263 48.9899 52.9857 49.0016C52.9857 49.0016 48.6418 49.4375 46.2963 49.4157L46.2731 46.959L45.9756 34.6316C46.0482 34.5325 46.1614 34.4479 46.3297 34.3823C46.35 34.4173 46.3704 34.4494 46.3907 34.4815L46.8464 49.0118L53.1091 48.729Z" fill="#E58B2E"/>
<path d="M26.4974 43.0034C26.4916 43.0194 26.4829 43.0515 26.4785 43.0953V43.0005C26.4785 43.0005 26.4916 43.0019 26.4974 43.0019V43.0034Z" fill="#F7B03E"/>
<path d="M41.043 48.1866C41.043 48.1735 41.043 48.1618 41.043 48.1501C41.0502 48.1618 41.0502 48.1749 41.043 48.1866Z" fill="#F4E08E"/>
<path d="M137.014 47.0537C136.9 47.2855 136.784 47.5174 136.669 47.7506L136.673 47.755C136.676 47.4663 136.73 47.2039 137.022 47.061L137.014 47.0537Z" fill="#F4E08E"/>
<path d="M137.022 47.0596C137.045 47.0086 137.068 46.959 137.092 46.908C137.065 46.9561 137.041 47.0042 137.015 47.0523L137.022 47.0596Z" fill="#F4E08E"/>
<path d="M136.32 48.0977C136.291 48.1443 136.262 48.1895 136.233 48.2362C136.264 48.191 136.294 48.1472 136.325 48.102L136.32 48.0977Z" fill="#F4E08E"/>
<path d="M136.669 47.7493C136.553 47.8659 136.436 47.9811 136.32 48.0977L136.325 48.1021C136.441 47.9855 136.557 47.8688 136.673 47.7536L136.669 47.7493Z" fill="#F4E08E"/>
<path d="M128.653 49.0949L128.224 49.2524L128.199 49.2611H128.196C127.498 44.0065 128.221 36.4206 128.378 34.8503C128.386 34.8576 128.394 34.8649 128.402 34.8722C128.546 34.9991 128.693 35.1244 128.836 35.2498C128.315 39.5436 128.14 44.7895 128.653 49.0949Z" fill="#E58B2E"/>
<path d="M69.54 47.8542C69.5429 48.0948 69.45 48.2697 69.3165 48.4141C69.2991 48.4345 69.2788 48.4549 69.2584 48.4753L65.4588 48.2391C65.437 48.226 65.4152 48.2114 65.3934 48.1954L62.3311 43.1259V42.3663C62.5952 42.8008 62.8463 43.1974 63.0814 43.5692C63.3281 43.9585 63.5589 44.32 63.7723 44.6729C63.8144 44.7414 63.8564 44.8099 63.8956 44.8785C63.9769 45.0155 64.0553 45.1511 64.1308 45.2867C64.1656 45.3494 64.2004 45.4121 64.2338 45.4748C64.3093 45.6147 64.3818 45.7562 64.4515 45.899C64.6097 46.2213 64.7781 46.5129 64.9653 46.7651C64.9943 46.8045 65.0233 46.8424 65.0538 46.8803C65.0887 46.9226 65.1235 46.9648 65.1583 47.0042L65.6445 47.8221L66.7156 47.8309H66.7171C66.7577 47.8353 66.7984 47.8382 66.839 47.8411C66.9392 47.8469 67.0422 47.8484 67.1496 47.844C67.1931 47.8426 67.2367 47.8396 67.2831 47.8353H67.2875L69.54 47.8542Z" fill="#E58B2E"/>
<path d="M34.4361 35.9381C33.14 34.5748 31.6669 33.668 29.6553 33.9085C30.2895 32.7057 31.8817 33.1343 32.9557 33.6446C33.9354 34.1097 34.796 34.6463 35.2445 35.7383L34.4361 35.9366V35.9381Z" fill="#E58B2E"/>
<path d="M148.882 28.3914C148.872 29.1365 148.856 31.9635 148.855 32.7071C148.855 32.7071 148.845 32.764 148.022 32.8033L147.997 28.0459C148.308 28.0765 148.596 28.1713 148.882 28.3914Z" fill="#E58B2E"/>
<path d="M33.037 45.2269C32.6045 46.4035 31.1662 46.5231 30.2866 46.4152C30.2852 46.4137 30.2823 46.4137 30.2808 46.4123C26.2838 45.399 26.4173 43.1988 26.4971 43.002C26.5363 42.9889 26.5944 42.9845 26.6771 43.002C26.8063 43.6975 27.9282 44.6014 27.9282 44.6014C30.2257 46.5493 31.8498 45.5229 32.1807 45.2648C32.3548 45.2736 32.8643 45.2167 33.037 45.2269Z" fill="#F4E08E"/>
<path d="M26.4783 43.0953C26.4711 43.1609 26.4682 43.2528 26.4783 43.3665V50.8328L25.5117 50.4552V43.1988C25.5785 43.0355 26.2635 42.983 26.4783 43.0005V43.0953Z" fill="#F7B03E"/>
<path d="M26.4783 43.0953V43.3665C26.4681 43.2528 26.471 43.1609 26.4783 43.0953Z" fill="#F7B03E"/>
<path d="M37.6404 49.7671C37.6317 49.7657 37.6245 49.7642 37.6158 49.7613C37.147 49.6534 37.1441 49.3575 37.1731 48.4958C37.3632 42.9131 37.6666 37.3144 36.832 31.7493C37.0062 31.5947 37.1804 31.4402 37.3545 31.2856C37.3545 31.2856 38.0991 37.3713 37.6404 49.7671Z" fill="#E58B2E"/>
<path d="M58.0352 48.4942C57.9975 48.5744 57.938 48.6429 57.861 48.7042L54.5693 48.7639C54.713 44.7355 54.5055 36.6335 54.6317 36.5095C54.6419 36.5168 54.6535 36.5256 54.6637 36.5314C54.8727 36.4191 55.0788 36.3564 55.2849 36.3287C55.2152 36.5576 55.2776 42.3036 55.0613 48.3295C56.9089 48.4184 57.7145 48.4272 58.0207 48.4242L58.0352 48.4942Z" fill="#E58B2E"/>
<path d="M58.0457 48.4768L58.0297 48.7013L57.8613 48.7043C57.9441 48.6386 58.0065 48.5643 58.0457 48.4768Z" fill="#FAD060"/>
<path d="M59.3586 48.1429L59.0059 48.6853C59.2773 44.9806 59.4922 41.2962 58.752 37.6396C58.8797 37.5288 59.0074 37.4194 59.1351 37.3101H59.2004C59.408 37.8364 59.617 38.4954 59.6982 39.1675C59.884 40.6882 59.3586 48.1429 59.3586 48.1429Z" fill="#E58B2E"/>
<path d="M72.9935 48.2711L72.8222 48.2668L72.8164 48.0656C72.857 48.1516 72.9166 48.2186 72.9935 48.2711Z" fill="#FAD060"/>
<path d="M73.5138 41.2831L73.5182 41.0921L70.4877 41.1023L70.4268 39.1763L70.7359 38.3496L70.8128 40.7815L73.5646 40.8442L73.5138 41.2831Z" fill="#E58B2E"/>
<path d="M78.382 39.1674L78.3616 41.1853L75.7521 41.0453L75.7129 40.7975L78.0931 40.8441L78.0467 38.6382L78.382 39.1674Z" fill="#E58B2E"/>
<path d="M72.8213 48.2668L72.8227 48.4987L76.1464 48.5614L76.1449 48.3441" fill="#E58B2E"/>
<path d="M87.4791 41.2889L86.797 41.5586C86.797 41.5586 83.6402 41.3589 82.8086 41.5149L82.8376 41.1591L82.8623 41.1562C84.4036 40.974 85.9436 41.1227 87.4791 41.2889Z" fill="#E58B2E"/>
<path d="M86.8577 44.7108L86.3018 44.8974L82.5225 45.0505L82.5312 44.9368C82.5573 44.8741 82.5849 44.8173 82.6139 44.7662C82.6139 44.7662 84.6328 44.6335 86.8577 44.7108Z" fill="#E58B2E"/>
<path d="M66.7155 44.3697C66.4876 44.1116 66.3874 43.9818 66.3468 43.9221C66.3497 43.8564 66.3584 43.6786 66.3628 43.422C66.3744 42.7979 66.3686 41.703 66.2351 40.6095C66.1915 40.0117 66.0841 39.4285 65.8766 38.8541C65.8475 38.7724 65.8156 38.6908 65.7822 38.6106L66.9636 37.9866H66.968L66.9956 37.9895C66.997 39.0422 66.9854 43.2966 66.7155 44.3697Z" fill="#E58B2E"/>
<path d="M88.6982 48.019L88.6357 48.4681L92.717 48.4841L92.5472 41.2L91.9913 41.076L88.6982 48.019Z" fill="#E58B2E"/>
<path d="M98.0768 48.5044L94.7692 48.484L94.2031 48.1574L97.2017 47.6209L94.7125 45.0825L94.9288 45.1146L95.9143 46.0127C96.013 46.1264 96.1349 46.2402 96.2757 46.3553C96.3308 46.3991 96.3845 46.4443 96.4382 46.4909C96.8374 46.8292 97.6414 47.7244 98.026 48.0802L98.0783 48.5044H98.0768Z" fill="#E58B2E"/>
<path d="M95.1195 45.2735C95.1195 45.2735 96.6652 44.2689 96.7784 43.1507C96.8611 42.3386 94.6551 43.9788 94.6551 43.9788L94.3154 45.1583L95.253 45.6453L95.1195 45.272V45.2735Z" fill="#E58B2E"/>
<path d="M105.544 48.3951L105.527 48.4943C105.527 48.4943 102.519 48.191 100.431 48.2318C99.8403 48.242 99.3221 48.2814 98.968 48.363C98.9665 48.3601 98.9651 48.3572 98.9636 48.3543C98.8809 48.2129 98.8025 48.0627 98.7445 47.9271C98.7372 47.914 98.7329 47.9009 98.7285 47.8877C99.7024 47.8571 104.593 47.7142 105.094 47.9563C105.277 48.0437 105.427 48.2114 105.544 48.3951Z" fill="#E58B2E"/>
<path d="M106.62 48.1837L106.939 48.5306L110.216 48.5933C110.216 48.5933 111.236 46.6834 111.236 46.6367L111.994 41.4346L113.168 41.3413L112.952 40.5336L111.204 40.8908L106.618 48.1837H106.62Z" fill="#E58B2E"/>
<path d="M114.328 38.3685C114.328 38.3685 115.099 42.1899 115.401 42.8562C115.703 43.5225 117.483 48.4039 117.483 48.4039L117.544 48.7071L114.527 48.6168L114.021 48.2552L114.328 38.37V38.3685Z" fill="#E58B2E"/>
<path d="M121.852 42.655L121.975 49.1153L121.643 49.1649L121.027 42.0966L121.852 42.655Z" fill="#E58B2E"/>
<path fill-rule="evenodd" clip-rule="evenodd" d="M142.935 50.2016C145.884 51.212 147.891 50.4407 149.903 47.6457C150.83 46.2169 150.996 43.9191 150.006 41.5178C149.371 39.9944 147.443 38.8301 145.834 37.8581L145.834 37.8581C145.091 37.4095 144.417 37.0019 143.968 36.6189C143.39 36.2777 142.36 35.0355 143.643 33.4871C144.443 32.5467 145.521 32.5759 146.588 32.6955L146.603 32.6972L146.603 32.6972C147.239 32.7692 147.695 32.8207 148.022 32.8034L147.997 28.0459C147.721 28.0182 147.428 28.0415 147.106 28.0722C138.074 28.9304 138.237 37.2925 140.554 39.3731C141.94 40.5511 143.473 41.579 145.08 42.5311C146.917 43.6902 146.173 46.7141 144.08 46.3277C143.599 46.2387 141.109 45.4689 140.361 44.6714L140.395 49.2145C141.151 49.6286 142.514 50.1258 142.935 50.2016ZM28.2691 51.298C29.7379 51.6318 33.0093 51.174 34.0471 50.2395C36.8061 48.0889 37.5492 45.2881 36.1951 42.2161C35.4951 40.7539 33.942 39.457 32.5075 38.2592C30.7297 36.7747 29.1341 35.4424 29.571 34.1359C30.0645 32.6605 31.7728 33.1926 32.8468 33.7015C33.8264 34.1666 34.796 34.6477 35.243 35.7412L35.5623 35.4598L35.5622 35.4381C35.555 33.9495 35.5477 32.4622 35.542 30.9736C35.5405 30.9736 35.5086 30.8146 35.5086 30.8146C30.7611 27.3957 27.4941 28.1655 26.4012 30.8584C24.7467 34.5544 26.0311 38.5945 29.4897 41.0687C29.7761 41.273 30.0686 41.4694 30.361 41.6657C31.2098 42.2354 32.0584 42.805 32.7568 43.5706C33.2546 44.2296 33.288 45.2983 32.719 45.6162C32.719 45.6162 32.7002 45.291 32.7002 45.2925C32.3448 46.2593 31.5671 46.3145 30.7889 46.3698C30.62 46.3818 30.4512 46.3938 30.2866 46.4152C27.1298 45.6162 26.5449 44.078 26.4782 43.3665V50.8329C26.8565 50.9781 27.3809 51.0968 28.105 51.2608L28.2691 51.298ZM45.0644 34.7991C45.1965 34.9931 45.3213 35.2015 45.4345 35.4261C46.2763 38.3056 45.1776 41.1239 44.8278 41.7027C44.1341 42.8604 43.0572 43.4246 41.3402 43.7935C41.1573 43.8343 40.9687 43.8693 40.7742 43.8999C40.7698 43.9028 40.764 43.9028 40.7597 43.9028C40.7633 43.9728 40.7593 44.1412 40.7539 44.3704C40.7442 44.7817 40.7298 45.3884 40.7466 45.9717L40.7263 47.5624L40.9948 47.5857C41.0049 47.6018 41.0151 47.6163 41.0267 47.6295C41.0297 47.7176 41.0322 47.8053 41.0348 47.8932L41.0348 47.8937C41.0373 47.9788 41.0398 48.064 41.0427 48.15V48.1879C41.0514 48.548 40.9933 49.6021 40.9933 49.6021C40.7151 49.5943 40.2505 49.6501 39.769 49.7079L39.769 49.7079C39.2585 49.7692 38.7289 49.8327 38.3823 49.8252C38.0587 49.8179 37.8177 49.8048 37.6407 49.7669C38.0993 37.371 37.3547 31.2854 37.3547 31.2854C37.4549 31.3043 37.5521 31.335 37.645 31.3772L37.6407 31.3597C39.7771 31.6193 44.0847 32.7171 45.0746 34.8079L45.072 34.8056L45.0695 34.8035C45.0677 34.8021 45.0659 34.8006 45.0644 34.7991ZM41.4882 39.8394C42.153 39.9881 42.6203 39.2314 42.7045 38.7007C42.8903 37.355 42.0775 36.6537 41.1065 36.833C41.0296 36.8462 40.9483 36.8651 40.8642 36.8899L40.8279 39.7199C40.9166 39.7704 41.3855 39.827 41.474 39.8377L41.4882 39.8394ZM105.544 48.3953L106.034 45.6091C105.868 45.6863 105.701 45.7505 105.534 45.803C104.592 46.1019 103.619 46.0417 102.647 45.9817C102.41 45.967 102.173 45.9524 101.936 45.9429C101.913 45.9415 101.872 45.8598 101.88 45.8205C101.881 45.8153 101.877 45.7679 101.872 45.6848C101.838 45.1583 101.71 43.2003 101.886 41.4902V41.4859C101.887 41.4715 101.889 41.4572 101.89 41.4428L101.89 41.4424C101.892 41.4261 101.894 41.4095 101.896 41.3925C101.923 40.5148 101.955 39.3878 101.962 38.8323C101.96 38.8294 101.957 38.8279 101.954 38.8265C100.92 38.273 99.8848 38.5952 98.8506 38.9171C98.7161 38.959 98.5817 39.0009 98.4472 39.0408C98.5851 39.57 98.6911 40.0978 98.7709 40.6286C99.0568 42.2528 99.3413 44.9325 98.7056 47.8325L98.7119 47.8479L98.7155 47.8568C98.7196 47.867 98.724 47.8774 98.7288 47.8879C99.7027 47.8573 104.594 47.7144 105.095 47.9564C105.277 48.0439 105.427 48.2116 105.544 48.3953ZM69.5403 47.8541L67.2878 47.8352H67.2834C67.237 47.8395 67.1934 47.8424 67.1499 47.8439C67.0425 47.8483 66.9394 47.8468 66.8393 47.841C66.7987 47.8381 66.758 47.8352 66.7174 47.8308H66.7159L65.6448 47.822L65.1586 47.0041C65.1238 46.9647 65.0889 46.9225 65.0541 46.8802C65.0236 46.8423 64.9946 46.8044 64.9656 46.765C64.7784 46.5128 64.61 46.2212 64.4518 45.8989C64.3821 45.7561 64.3096 45.6146 64.2341 45.4747C64.2009 45.4123 64.1663 45.35 64.1316 45.2876L64.1314 45.2873L64.1312 45.2869L64.131 45.2866C64.057 45.151 63.9786 45.0154 63.8959 44.8783C63.8567 44.8098 63.8146 44.7413 63.7726 44.6728C63.5846 44.3619 63.3831 44.0442 63.1691 43.7068L63.0817 43.5691L63.063 43.5395C62.8333 43.1763 62.5885 42.7892 62.3313 42.3662V43.8257C62.3343 44.4182 62.3368 45.011 62.3393 45.6041L62.3394 45.6079C62.3419 46.1971 62.3444 46.7865 62.3473 47.3759L62.3197 47.3832C62.3669 47.4546 62.4141 47.5257 62.4612 47.5968C62.5084 47.6679 62.5556 47.7389 62.6027 47.8104C62.6463 47.8964 62.6521 47.9853 62.6231 48.0772C62.4054 48.3265 62.1877 48.5744 61.9685 48.8237C61.0048 48.7785 60.0396 48.7333 59.0063 48.6852L59.3589 48.1428C59.3589 48.1428 59.8843 40.6881 59.6986 39.1674C59.6173 38.4953 59.4083 37.8362 59.2007 37.3099L62.4808 37.7692L62.61 37.9762L66.3458 43.9496C66.3458 43.9496 66.3458 43.9409 66.3473 43.9219C66.3879 43.9817 66.4881 44.1114 66.7159 44.3695C66.9859 43.2964 66.9975 39.042 66.996 37.9893L69.459 38.2518C69.533 38.3028 69.5185 38.399 69.4764 38.5128C69.4602 38.556 69.4401 38.6018 69.4196 38.6487L69.4195 38.6488C69.3555 38.7949 69.2868 38.9516 69.3153 39.0741C69.3146 39.6487 69.3142 40.2237 69.3139 40.7989V40.7994V40.8V40.8005V40.8011V40.8016V40.8022V40.8027V40.8033V40.8038C69.3135 41.377 69.3132 41.9503 69.3124 42.5237C69.205 44.3083 69.1775 46.0899 69.5403 47.8541ZM53.4809 45.3783L53.1384 48.4663L53.1094 48.7288L46.8467 49.0116L46.391 34.4813L46.3909 34.4811C46.3706 34.4491 46.3503 34.4171 46.33 34.3821C47.3327 34.3722 48.293 34.6204 49.2521 34.8682L49.3402 34.891L49.3452 34.8922L49.351 34.8939C49.3547 34.895 49.3583 34.8961 49.3619 34.8968V45.4716L51.7131 45.4002L53.4708 45.3477C53.4737 45.3579 53.4766 45.3681 53.4809 45.3783ZM58.1209 47.3964L58.0759 48.0379L58.0484 48.4243L58.0454 48.4768C58.0454 48.4768 58.0433 48.4812 58.0406 48.4859C58.0389 48.4889 58.037 48.492 58.0353 48.4943L58.0208 48.4243C57.7145 48.4272 56.909 48.4185 55.0614 48.3295C55.1938 44.64 55.2218 41.0555 55.2395 38.7779V38.7779V38.7779V38.7778V38.7778V38.7778C55.2508 37.3356 55.2579 36.4176 55.2849 36.3288C56.2385 36.5504 57.6579 36.931 57.6579 36.931C57.6579 36.931 57.2124 44.3288 57.5534 46.3583C57.6071 46.6878 57.6739 47.0159 57.7508 47.3454V47.4591L57.7929 47.4518H57.8002L58.1209 47.3964ZM76.1615 47.7855L75.7899 47.6878L75.7435 41.0452H75.7522L75.713 40.7973L78.0932 40.844L78.0468 38.638L70.7362 38.3493L70.8132 40.7813L73.565 40.844L73.5142 41.2828L73.3487 47.5682L72.8074 47.7067L72.8161 48.0654C72.8567 48.1514 72.9162 48.2185 72.9931 48.271L75.9815 48.3395L76.1455 48.3439L76.1542 48.0494L76.1615 47.7855ZM94.7114 45.0824L94.9277 45.1145C94.9277 45.1145 95.8406 44.6509 96.4473 43.8898C96.4522 43.8839 96.4564 43.8786 96.4604 43.8731L96.4661 43.865C97.3079 42.7176 97.1845 39.042 93.6911 38.9647L89.3573 38.9939C89.243 39.0329 89.1276 39.1139 89.0109 39.1958C88.8964 39.2761 88.7807 39.3573 88.6636 39.4006C88.7187 39.6033 88.7681 39.806 88.8116 40.0115L89.44 40.2375L89.2238 47.4429L88.7608 47.5202C88.7405 47.6879 88.7202 47.8541 88.6984 48.0188L92.2383 48.0495L92.2542 44.8812L92.649 45.5446L94.202 48.1573L97.7723 48.204L94.7114 45.0824ZM94.0104 42.391C93.9494 42.8051 93.5605 43.0267 93.1686 43.1448C92.964 43.2075 92.7564 43.241 92.5953 43.2585C92.411 43.2804 92.2847 43.2818 92.2847 43.2818L92.2223 43.2512V41.2013C92.2223 41.2013 92.3544 41.1984 92.5474 41.2158C93.0481 41.261 93.9596 41.4477 94.0162 42.2102C94.0206 42.2744 94.0191 42.3356 94.0104 42.391ZM109.976 38.5074C110.567 38.0946 113.013 37.6308 114.328 38.3683C114.225 41.6182 117.153 48.2244 117.153 48.2244L114.02 48.2535L113.298 46.6089C113.298 46.6089 110.884 46.6293 110.804 46.6293C110.724 46.6293 109.933 48.1573 109.884 48.2535C109.883 48.2564 109.881 48.2579 109.881 48.2579C109.126 48.236 107.961 48.2069 106.62 48.1821C107.449 46.7824 108.771 44.3738 109.34 42.4259C109.821 40.7768 109.999 38.6219 109.976 38.5074ZM109.968 38.5127L109.976 38.5074C109.974 38.4997 109.972 38.5012 109.968 38.5127ZM111.623 43.5588L112.613 43.7148L112.148 40.9665L111.623 43.5588ZM128.196 49.2614C127.405 49.1623 124.935 49.4101 124.935 49.4101C124.814 48.9844 122.306 43.9587 121.57 42.5036C121.429 44.1999 121.514 46.1402 121.593 47.9602C121.611 48.3693 121.628 48.7724 121.643 49.1652L118.536 49.1375C118.489 49.0762 118.447 49.0092 118.408 48.9392C118.408 48.9392 118.301 38.4562 118.081 36.9982C119.406 36.6862 120.745 36.4952 122.11 36.5419C122.11 36.5419 122.139 36.5667 122.139 36.5681C122.115 36.8656 124.737 41.572 125.267 42.3549C125.267 42.3549 125.16 36.4544 125.17 36.0097C125.575 35.8503 126.081 35.6797 126.587 35.5092C127.266 35.2805 127.945 35.0519 128.377 34.8506C128.221 36.4209 127.498 44.0068 128.196 49.2614ZM138.907 38.0417C138.961 38.3231 139.006 38.622 139.042 38.9384V39.0477C139.042 40.6923 138.961 43.8635 138.077 46.4076C138.077 46.4076 138.07 46.4135 138.062 46.4514C137.866 47.4589 134.691 51.3604 129.531 48.9752V48.9344C129.531 48.7521 129.531 48.5203 129.534 48.2462L129.89 47.8102C129.894 47.4355 129.898 47.0098 129.9 46.5462C129.926 42.4332 129.89 35.3882 129.89 35.3882C129.822 35.4071 129.478 35.3255 129.478 35.3255C129.481 35.1625 129.474 35.0345 129.468 34.9058C129.461 34.7811 129.455 34.6558 129.457 34.4973C129.749 34.4324 130.062 34.359 130.392 34.2819C131.949 33.9174 133.872 33.4677 135.589 33.4111C135.604 33.4111 138.131 33.9549 138.907 38.0417ZM133.322 37.2442C133.318 37.2442 133.311 37.2456 133.311 37.2456C133.025 37.285 132.83 37.3346 132.83 37.3346C132.836 38.7589 132.86 41.6145 132.878 43.6657L132.878 43.7352C132.89 45.059 132.898 46.03 132.898 46.03C132.991 46.03 133.095 46.0332 133.207 46.0366C133.247 46.0378 133.289 46.0391 133.332 46.0402H133.334C134.244 46.0577 135.562 45.9761 135.583 43.9101C135.587 43.3226 135.602 42.7345 135.617 42.1465C135.625 41.8065 135.634 41.4666 135.64 41.1268C135.656 40.2112 135.656 39.297 135.594 38.3843C135.508 37.1275 134.093 37.1407 133.322 37.2442Z" fill="url(#paint16_radial_4516_87725)"/>
<path d="M139.152 42.0558C138.856 47.7901 137.286 49.3487 135.035 49.8808C134.814 49.9333 134.581 49.9756 134.332 50.0062C132.89 50.1855 131.566 49.8692 130.309 49.6519C130.309 49.6519 129.531 49.2247 129.531 48.9754C134.691 51.3607 137.907 47.3352 138.062 46.4516C138.07 46.4137 138.093 46.4035 138.093 46.4035L138.077 46.4079C138.961 43.8637 139.042 40.6926 139.042 39.0479V38.9386C139.049 39.0028 139.057 39.0684 139.062 39.1354V39.1413C139.168 40.2158 139.154 42.05 139.152 42.0558Z" fill="#E58B2E"/>
<path d="M138.093 46.4034C138.093 46.4034 138.083 46.4195 138.062 46.4516C138.067 46.437 138.071 46.4224 138.077 46.4078L138.093 46.4034Z" fill="#E58B2E"/>
<path d="M133.332 46.0405C133.171 46.0361 133.025 46.0302 132.898 46.0302C132.898 46.0302 132.84 39.7026 132.83 37.3348C132.83 37.3348 133.025 37.2852 133.31 37.2458L133.332 46.0405Z" fill="#E58B2E"/>
</g>
</g>
<defs>
<filter id="filter0_i_4516_87725" x="13.3301" y="17.0516" width="150.298" height="47.804" filterUnits="userSpaceOnUse" color-interpolation-filters="sRGB">
<feFlood flood-opacity="0" result="BackgroundImageFix"/>
<feBlend mode="normal" in="SourceGraphic" in2="BackgroundImageFix" result="shape"/>
<feColorMatrix in="SourceAlpha" type="matrix" values="0 0 0 0 0 0 0 0 0 0 0 0 0 0 0 0 0 0 127 0" result="hardAlpha"/>
<feOffset dy="4"/>
<feGaussianBlur stdDeviation="4.6"/>
<feComposite in2="hardAlpha" operator="arithmetic" k2="-1" k3="1"/>
<feColorMatrix type="matrix" values="0 0 0 0 0 0 0 0 0 0 0 0 0 0 0 0 0 0 0.8 0"/>
<feBlend mode="normal" in2="shape" result="effect1_innerShadow_4516_87725"/>
</filter>
<filter id="filter1_d_4516_87725" x="69.5244" y="3.50806" width="36.6182" height="40.7487" filterUnits="userSpaceOnUse" color-interpolation-filters="sRGB">
<feFlood flood-opacity="0" result="BackgroundImageFix"/>
<feColorMatrix in="SourceAlpha" type="matrix" values="0 0 0 0 0 0 0 0 0 0 0 0 0 0 0 0 0 0 127 0" result="hardAlpha"/>
<feOffset dy="8"/>
<feGaussianBlur stdDeviation="2"/>
<feComposite in2="hardAlpha" operator="out"/>
<feColorMatrix type="matrix" values="0 0 0 0 0 0 0 0 0 0 0 0 0 0 0 0 0 0 0.8 0"/>
<feBlend mode="normal" in2="BackgroundImageFix" result="effect1_dropShadow_4516_87725"/>
<feBlend mode="normal" in="SourceGraphic" in2="effect1_dropShadow_4516_87725" result="shape"/>
</filter>
<filter id="filter2_d_4516_87725" x="18.8535" y="26.0336" width="142.93" height="70.7345" filterUnits="userSpaceOnUse" color-interpolation-filters="sRGB">
<feFlood flood-opacity="0" result="BackgroundImageFix"/>
<feColorMatrix in="SourceAlpha" type="matrix" values="0 0 0 0 0 0 0 0 0 0 0 0 0 0 0 0 0 0 127 0" result="hardAlpha"/>
<feOffset dy="4"/>
<feGaussianBlur stdDeviation="3"/>
<feComposite in2="hardAlpha" operator="out"/>
<feColorMatrix type="matrix" values="0 0 0 0 0 0 0 0 0 0 0 0 0 0 0 0 0 0 0.8 0"/>
<feBlend mode="normal" in2="BackgroundImageFix" result="effect1_dropShadow_4516_87725"/>
<feBlend mode="normal" in="SourceGraphic" in2="effect1_dropShadow_4516_87725" result="shape"/>
</filter>
<linearGradient id="paint0_linear_4516_87725" x1="24.6209" y1="16.7261" x2="151.446" y2="16.7261" gradientUnits="userSpaceOnUse">
<stop stop-color="#FCA713"/>
<stop offset="0.11" stop-color="#FCB827"/>
<stop offset="0.25" stop-color="#FCC83B"/>
<stop offset="0.4" stop-color="#FCD247"/>
<stop offset="0.55" stop-color="#FDD64B"/>
<stop offset="1" stop-color="#FCA713"/>
</linearGradient>
<linearGradient id="paint1_linear_4516_87725" x1="13.2417" y1="47.6051" x2="-6.93432" y2="60.1575" gradientUnits="userSpaceOnUse">
<stop stop-color="#753A20"/>
<stop offset="0.04" stop-color="#7A3D1F"/>
<stop offset="0.28" stop-color="#95501F"/>
<stop offset="0.51" stop-color="#A95E1F"/>
<stop offset="0.75" stop-color="#B5661F"/>
<stop offset="1" stop-color="#B9691F"/>
</linearGradient>
<linearGradient id="paint2_linear_4516_87725" x1="0.62207" y1="14.8803" x2="25.1996" y2="14.8803" gradientUnits="userSpaceOnUse">
<stop stop-color="#FFDC81"/>
<stop offset="0.03" stop-color="#FED679"/>
<stop offset="0.16" stop-color="#FBC45E"/>
<stop offset="0.28" stop-color="#F8B74A"/>
<stop offset="0.41" stop-color="#F7AF3E"/>
<stop offset="0.55" stop-color="#F7AD3B"/>
<stop offset="1" stop-color="#FDCD6C"/>
</linearGradient>
<linearGradient id="paint3_linear_4516_87725" x1="9.84668" y1="29.4207" x2="25.4562" y2="29.4207" gradientUnits="userSpaceOnUse">
<stop stop-color="#4F200B"/>
<stop offset="1" stop-color="#914C2C"/>
</linearGradient>
<radialGradient id="paint4_radial_4516_87725" cx="0" cy="0" r="1" gradientUnits="userSpaceOnUse" gradientTransform="translate(88.0277 45.0451) scale(143.21 143.863)">
<stop stop-color="#1A4462"/>
<stop offset="0.12" stop-color="#163C57"/>
<stop offset="0.41" stop-color="#112F43"/>
<stop offset="0.7" stop-color="#0E2737"/>
<stop offset="1" stop-color="#0D2534"/>
</radialGradient>
<linearGradient id="paint5_linear_4516_87725" x1="162.758" y1="47.4214" x2="194.586" y2="69.0586" gradientUnits="userSpaceOnUse">
<stop stop-color="#753A20"/>
<stop offset="0.04" stop-color="#7A3D1F"/>
<stop offset="0.28" stop-color="#95501F"/>
<stop offset="0.51" stop-color="#A95E1F"/>
<stop offset="0.75" stop-color="#B5661F"/>
<stop offset="1" stop-color="#B9691F"/>
</linearGradient>
<linearGradient id="paint6_linear_4516_87725" x1="150.791" y1="32.9407" x2="165.627" y2="32.9407" gradientUnits="userSpaceOnUse">
<stop stop-color="#C05B2C"/>
<stop offset="1" stop-color="#914C2C"/>
</linearGradient>
<linearGradient id="paint7_linear_4516_87725" x1="152.791" y1="51.0589" x2="164.328" y2="51.0589" gradientUnits="userSpaceOnUse">
<stop stop-color="#B06426"/>
<stop offset="1" stop-color="#C97728"/>
</linearGradient>
<linearGradient id="paint8_linear_4516_87725" x1="150.791" y1="14.7507" x2="175.174" y2="14.7507" gradientUnits="userSpaceOnUse">
<stop stop-color="#FFDC81"/>
<stop offset="0.03" stop-color="#FED679"/>
<stop offset="0.16" stop-color="#FBC45E"/>
<stop offset="0.28" stop-color="#F8B74A"/>
<stop offset="0.41" stop-color="#F7AF3E"/>
<stop offset="0.55" stop-color="#F7AD3B"/>
<stop offset="1" stop-color="#FDCD6C"/>
</linearGradient>
<linearGradient id="paint9_linear_4516_87725" x1="11.5781" y1="50.9187" x2="23.5214" y2="50.9187" gradientUnits="userSpaceOnUse">
<stop stop-color="#B06426"/>
<stop offset="1" stop-color="#C97728"/>
</linearGradient>
<radialGradient id="paint10_radial_4516_87725" cx="0" cy="0" r="1" gradientUnits="userSpaceOnUse" gradientTransform="translate(87.8335 17.8824) scale(14.3091 14.3743)">
<stop stop-color="#1D252B"/>
<stop offset="0.55" stop-color="#111417"/>
<stop offset="0.9" stop-color="#040809"/>
<stop offset="1"/>
</radialGradient>
<linearGradient id="paint11_linear_4516_87725" x1="88.0261" y1="18.1522" x2="88.0261" y2="0.380712" gradientUnits="userSpaceOnUse">
<stop stop-color="#C15A28"/>
<stop offset="0.19" stop-color="#D88935"/>
<stop offset="0.54" stop-color="#FDDC4F"/>
<stop offset="0.7" stop-color="#FFEBB2"/>
<stop offset="1" stop-color="#FFD246"/>
</linearGradient>
<linearGradient id="paint12_linear_4516_87725" x1="88.1923" y1="21.8336" x2="87.6724" y2="26.433" gradientUnits="userSpaceOnUse">
<stop stop-color="white"/>
<stop offset="0.1" stop-color="#D1D1D2"/>
<stop offset="0.22" stop-color="#9EA0A1"/>
<stop offset="0.35" stop-color="#737576"/>
<stop offset="0.48" stop-color="#4F5254"/>
<stop offset="0.61" stop-color="#343639"/>
<stop offset="0.74" stop-color="#202326"/>
<stop offset="0.87" stop-color="#14171A"/>
<stop offset="1" stop-color="#111417"/>
</linearGradient>
<linearGradient id="paint13_linear_4516_87725" x1="88.8832" y1="15.4097" x2="89.0486" y2="9.15259" gradientUnits="userSpaceOnUse">
<stop stop-color="white"/>
<stop offset="0.1" stop-color="#D1D1D2"/>
<stop offset="0.22" stop-color="#9E9FA0"/>
<stop offset="0.35" stop-color="#737476"/>
<stop offset="0.48" stop-color="#4F5153"/>
<stop offset="0.61" stop-color="#343538"/>
<stop offset="0.74" stop-color="#202225"/>
<stop offset="0.87" stop-color="#141619"/>
<stop offset="1" stop-color="#111316"/>
</linearGradient>
<linearGradient id="paint14_linear_4516_87725" x1="23.1338" y1="61.1788" x2="153.177" y2="61.1788" gradientUnits="userSpaceOnUse">
<stop stop-color="#89451A"/>
<stop offset="0.11" stop-color="#EF9135"/>
<stop offset="0.55" stop-color="#C05A2F"/>
<stop offset="0.91" stop-color="#F49731"/>
<stop offset="1" stop-color="#8E491A"/>
</linearGradient>
<radialGradient id="paint15_radial_4516_87725" cx="0" cy="0" r="1" gradientUnits="userSpaceOnUse" gradientTransform="translate(90.0902 39.3221) scale(56.0882 56.3441)">
<stop stop-color="#F6EE9F"/>
<stop offset="1" stop-color="#FFCB4D"/>
</radialGradient>
<radialGradient id="paint16_radial_4516_87725" cx="0" cy="0" r="1" gradientUnits="userSpaceOnUse" gradientTransform="translate(90.0903 39.3218) scale(56.0882 56.3441)">
<stop stop-color="#F6EE9F"/>
<stop offset="1" stop-color="#FFCB4D"/>
</radialGradient>
<clipPath id="clip0_4516_87725">
<rect width="175.256" height="72" fill="white" transform="translate(0.62207)"/>
</clipPath>
</defs>
</svg>
