<svg width="178" height="28" viewBox="0 0 178 28" fill="none" xmlns="http://www.w3.org/2000/svg">
<path fill-rule="evenodd" clip-rule="evenodd" d="M165.96 4.67683C165.438 4.69217 164.941 4.90814 164.574 5.27991C164.206 5.65167 163.996 6.15068 163.987 6.67331C163.978 7.19595 164.17 7.70207 164.524 8.08659C164.878 8.47112 165.367 8.7045 165.889 8.73829H170.958C172.737 8.73421 174.444 9.43699 175.705 10.692C176.966 11.947 177.677 13.6515 177.681 15.4305C177.685 17.2094 176.982 18.9171 175.727 20.1779C174.472 21.4387 172.767 22.1493 170.988 22.1534H160.817C160.68 22.1492 160.548 22.101 160.441 22.016C160.334 21.9311 160.257 21.8138 160.222 21.6816L158.745 18.0714C158.713 18.0103 158.698 17.9421 158.7 17.8733C158.701 17.8045 158.721 17.7373 158.755 17.6779C158.79 17.6185 158.84 17.5689 158.899 17.5337C158.958 17.4985 159.025 17.4788 159.094 17.4766H170.991C171.53 17.4766 172.046 17.2626 172.427 16.8818C172.808 16.501 173.022 15.9844 173.022 15.4459C173.022 14.9073 172.808 14.3907 172.427 14.0099C172.046 13.6291 171.53 13.4151 170.991 13.4151H165.973C164.207 13.4016 162.518 12.6876 161.278 11.43C160.038 10.1723 159.347 8.47388 159.358 6.70756C159.347 4.94124 160.038 3.24278 161.278 1.98516C162.518 0.727535 164.207 0.0135536 165.973 0L176.486 0C176.809 0 177.07 0.212816 176.96 0.471786L175.358 4.20505C175.313 4.33194 175.233 4.44354 175.127 4.527C175.021 4.61046 174.894 4.6624 174.76 4.67683H165.96ZM95.2284 8.73829L89.6388 21.415C89.4542 21.8227 89.3567 22.1509 88.9516 22.1509H85.2594C84.7286 22.1509 84.4363 22.0047 84.6953 21.415L93.7233 0.661526C93.9079 0.315378 94.0233 0.0615373 94.4284 0.0615373H96.0284C96.4335 0.0615373 96.5412 0.317943 96.7335 0.661526L105.762 21.4304C106.018 22.0201 105.726 22.1662 105.197 22.1662H101.505C101.098 22.1662 100.992 21.838 100.818 21.4304L95.2284 8.73829ZM122.846 22.1534C122.784 22.1534 122.723 22.1412 122.665 22.1175C122.608 22.0938 122.556 22.059 122.512 22.0152C122.468 21.9714 122.434 21.9194 122.41 21.8622C122.386 21.8049 122.374 21.7436 122.374 21.6816V0.471786C122.374 0.34666 122.424 0.22666 122.512 0.138183C122.601 0.0497058 122.721 0 122.846 0L126.577 0C126.702 -1.83141e-06 126.822 0.049622 126.911 0.138026C127 0.22643 127.05 0.346425 127.051 0.471786V17.4766H136.538C136.607 17.4777 136.675 17.4966 136.735 17.5315C136.795 17.5663 136.845 17.616 136.88 17.6757C136.915 17.7353 136.935 17.8031 136.936 17.8724C136.938 17.9417 136.922 18.0102 136.889 18.0714L135.351 21.6816C135.308 21.8217 135.22 21.9439 135.101 22.0292C134.982 22.1144 134.838 22.1581 134.692 22.1534H122.846ZM109.574 4.67683H103.638C103.513 4.67683 103.393 4.62713 103.305 4.53865C103.216 4.45017 103.167 4.33017 103.167 4.20505V0.471786C103.167 0.34666 103.216 0.22666 103.305 0.138183C103.393 0.0497058 103.513 0 103.638 0L120.177 0C120.302 -1.83141e-06 120.422 0.049622 120.511 0.138026C120.6 0.22643 120.65 0.346425 120.651 0.471786V4.20505C120.65 4.33041 120.6 4.4504 120.511 4.53881C120.422 4.62721 120.302 4.67683 120.177 4.67683H114.251V21.6816C114.25 21.807 114.2 21.927 114.111 22.0154C114.022 22.1038 113.902 22.1534 113.777 22.1534H110.049C109.924 22.1534 109.803 22.1037 109.715 22.0152C109.627 21.9268 109.577 21.8068 109.577 21.6816V4.67683M147.763 8.73829L142.174 21.415C141.989 21.8227 141.892 22.1509 141.486 22.1509H137.794C137.263 22.1509 136.971 22.0047 137.23 21.415L146.258 0.661526C146.443 0.315378 146.556 0.0615373 146.963 0.0615373H148.561C148.968 0.0615373 149.074 0.317943 149.268 0.661526L158.296 21.4304C158.553 22.0201 158.26 22.1662 157.732 22.1662H154.04C153.632 22.1662 153.527 21.838 153.353 21.4304L147.763 8.75368M58.3548 0H68.2828C72.1288 0 75.2365 3.21276 75.2365 7.17935C75.2463 8.57728 74.8479 9.94769 74.0899 11.1224C73.332 12.297 72.2477 13.2249 70.9699 13.792L76.098 21.4278C76.2211 22.0175 75.8775 22.1637 75.3493 22.1637H71.4673C71.0596 22.1637 70.9032 21.7739 70.6571 21.4278L65.7597 14.351H62.5598V21.6816C62.5591 21.807 62.5088 21.927 62.42 22.0154C62.3311 22.1038 62.2108 22.1534 62.0854 22.1534H58.3548C58.2296 22.1534 58.1096 22.1037 58.0211 22.0152C57.9327 21.9268 57.883 21.8068 57.883 21.6816V0.471786C57.883 0.34666 57.9327 0.22666 58.0211 0.138183C58.1096 0.0497058 58.2296 0 58.3548 0ZM68.2828 4.67683H62.5598V9.66135H68.2828C68.941 9.66135 69.5723 9.39985 70.0378 8.93439C70.5033 8.46892 70.7648 7.83762 70.7648 7.17935C70.7648 6.52108 70.5033 5.88977 70.0378 5.42431C69.5723 4.95884 68.941 4.69734 68.2828 4.69734V4.67683ZM45.8268 8.73829L40.2372 21.415C40.0525 21.8227 39.9577 22.1509 39.55 22.1509H35.8577C35.3296 22.1509 35.0373 22.0047 35.2937 21.415L44.3243 0.661526C44.5089 0.315378 44.6217 0.0615373 45.0294 0.0615373H46.6268C47.0345 0.0615373 47.1396 0.317943 47.3319 0.661526L56.3625 21.4304C56.6189 22.0201 56.3266 22.1662 55.7958 22.1662H52.101C51.6959 22.1662 51.601 21.838 51.4164 21.4304L45.8268 8.73829ZM26.3143 4.67683H19.6478C19.3247 4.67683 19.1196 4.46402 19.2786 4.08197L20.8375 0.471786C20.9145 0.287174 21.1093 0 21.3709 0H36.9167C37.0421 -1.83141e-06 37.1623 0.049622 37.2512 0.138026C37.3401 0.22643 37.3904 0.346425 37.3911 0.471786V4.20505C37.3904 4.33041 37.3401 4.4504 37.2512 4.53881C37.1623 4.62721 37.0421 4.67683 36.9167 4.67683H30.9912V21.6816C30.9905 21.807 30.9402 21.927 30.8513 22.0154C30.7625 22.1038 30.6422 22.1534 30.5168 22.1534H26.7861C26.661 22.1534 26.541 22.1037 26.4525 22.0152C26.3641 21.9268 26.3143 21.8068 26.3143 21.6816V4.67683Z" fill="#17181D"/>
<path fill-rule="evenodd" clip-rule="evenodd" d="M7.87098 4.67683C7.34848 4.69217 6.85197 4.90814 6.48451 5.27991C6.11705 5.65167 5.90689 6.15068 5.89765 6.67331C5.88841 7.19595 6.08081 7.70207 6.4349 8.08659C6.78898 8.47112 7.27756 8.7045 7.79918 8.73829H12.8709C13.7517 8.73627 14.6244 8.90777 15.4389 9.24299C16.2535 9.57821 16.9941 10.0706 17.6183 10.692C18.2426 11.3134 18.7384 12.0517 19.0774 12.8648C19.4163 13.6778 19.5918 14.5496 19.5938 15.4305C19.5958 16.3113 19.4244 17.1839 19.0891 17.9985C18.7539 18.8131 18.2615 19.5537 17.6401 20.1779C17.0187 20.8022 16.2804 21.298 15.4674 21.6369C14.6543 21.9759 13.7825 22.1514 12.9016 22.1534H1.30957C0.986496 22.1534 0.753168 21.8791 0.837781 21.6816L2.37621 17.9484C2.40851 17.8258 2.47642 17.7156 2.57134 17.6316C2.66627 17.5476 2.78396 17.4937 2.90954 17.4766H12.9093C13.4479 17.4766 13.9644 17.2626 14.3453 16.8818C14.7261 16.501 14.9401 15.9844 14.9401 15.4459C14.9401 14.9073 14.7261 14.3907 14.3453 14.0099C13.9644 13.6291 13.4479 13.4151 12.9093 13.4151H7.8838C6.1175 13.4016 4.42877 12.6876 3.18845 11.43C1.94813 10.1723 1.25762 8.47388 1.26854 6.70756C1.25762 4.94124 1.94813 3.24278 3.18845 1.98516C4.42877 0.727535 6.1175 0.0135536 7.8838 0L18.6528 0C18.9092 0 19.1656 0.182048 19.0656 0.471786L17.4528 4.20505C17.4179 4.33782 17.3407 4.45562 17.2329 4.54072C17.1252 4.62581 16.9927 4.67358 16.8554 4.67683H7.88123" fill="#17181D"/>
<path fill-rule="evenodd" clip-rule="evenodd" d="M95.2362 27.9999L91.5439 20.6155H98.8053L95.2362 27.9999Z" fill="#17181D"/>
</svg>
