<svg width="178" height="28" viewBox="0 0 178 28" fill="none" xmlns="http://www.w3.org/2000/svg">
<path fill-rule="evenodd" clip-rule="evenodd" d="M165.959 4.67683C165.437 4.69217 164.94 4.90814 164.573 5.27991C164.205 5.65167 163.995 6.15068 163.986 6.67331C163.977 7.19595 164.169 7.70207 164.523 8.08659C164.877 8.47112 165.366 8.7045 165.888 8.73829H170.957C172.736 8.73421 174.443 9.43699 175.704 10.692C176.965 11.947 177.676 13.6515 177.68 15.4305C177.684 17.2094 176.981 18.9171 175.726 20.1779C174.471 21.4387 172.766 22.1493 170.987 22.1534H160.816C160.679 22.1492 160.547 22.101 160.44 22.016C160.333 21.9311 160.256 21.8138 160.221 21.6816L158.744 18.0714C158.712 18.0103 158.697 17.9421 158.699 17.8733C158.7 17.8045 158.72 17.7373 158.754 17.6779C158.789 17.6185 158.839 17.5689 158.898 17.5337C158.957 17.4985 159.024 17.4788 159.093 17.4766H170.99C171.529 17.4766 172.045 17.2626 172.426 16.8818C172.807 16.501 173.021 15.9844 173.021 15.4459C173.021 14.9073 172.807 14.3907 172.426 14.0099C172.045 13.6291 171.529 13.4151 170.99 13.4151H165.972C164.206 13.4016 162.517 12.6876 161.277 11.43C160.037 10.1723 159.346 8.47388 159.357 6.70756C159.346 4.94124 160.037 3.24278 161.277 1.98516C162.517 0.727535 164.206 0.0135536 165.972 0L176.485 0C176.808 0 177.069 0.212816 176.959 0.471786L175.357 4.20505C175.312 4.33194 175.232 4.44354 175.126 4.527C175.02 4.61046 174.893 4.6624 174.759 4.67683H165.959ZM95.2274 8.73829L89.6378 21.415C89.4532 21.8227 89.3557 22.1509 88.9506 22.1509H85.2584C84.7276 22.1509 84.4353 22.0047 84.6943 21.415L93.7223 0.661526C93.9069 0.315378 94.0223 0.0615373 94.4274 0.0615373H96.0274C96.4325 0.0615373 96.5402 0.317943 96.7325 0.661526L105.761 21.4304C106.017 22.0201 105.725 22.1662 105.196 22.1662H101.504C101.097 22.1662 100.991 21.838 100.817 21.4304L95.2274 8.73829ZM122.845 22.1534C122.783 22.1534 122.722 22.1412 122.664 22.1175C122.607 22.0938 122.555 22.059 122.511 22.0152C122.467 21.9714 122.433 21.9194 122.409 21.8622C122.385 21.8049 122.373 21.7436 122.373 21.6816V0.471786C122.373 0.34666 122.423 0.22666 122.511 0.138183C122.6 0.0497058 122.72 0 122.845 0L126.576 0C126.701 -1.83141e-06 126.821 0.049622 126.91 0.138026C126.999 0.22643 127.049 0.346425 127.05 0.471786V17.4766H136.537C136.606 17.4777 136.674 17.4966 136.734 17.5315C136.794 17.5663 136.844 17.616 136.879 17.6757C136.914 17.7353 136.934 17.8031 136.935 17.8724C136.937 17.9417 136.921 18.0102 136.888 18.0714L135.35 21.6816C135.307 21.8217 135.219 21.9439 135.1 22.0292C134.981 22.1144 134.837 22.1581 134.691 22.1534H122.845ZM109.573 4.67683H103.638C103.512 4.67683 103.392 4.62713 103.304 4.53865C103.215 4.45017 103.166 4.33017 103.166 4.20505V0.471786C103.166 0.34666 103.215 0.22666 103.304 0.138183C103.392 0.0497058 103.512 0 103.638 0L120.176 0C120.301 -1.83141e-06 120.421 0.049622 120.51 0.138026C120.599 0.22643 120.649 0.346425 120.65 0.471786V4.20505C120.649 4.33041 120.599 4.4504 120.51 4.53881C120.421 4.62721 120.301 4.67683 120.176 4.67683H114.25V21.6816C114.249 21.807 114.199 21.927 114.11 22.0154C114.021 22.1038 113.901 22.1534 113.776 22.1534H110.048C109.923 22.1534 109.803 22.1037 109.714 22.0152C109.626 21.9268 109.576 21.8068 109.576 21.6816V4.67683M147.762 8.73829L142.173 21.415C141.988 21.8227 141.891 22.1509 141.485 22.1509H137.793C137.263 22.1509 136.97 22.0047 137.229 21.415L146.257 0.661526C146.442 0.315378 146.555 0.0615373 146.962 0.0615373H148.56C148.967 0.0615373 149.073 0.317943 149.267 0.661526L158.295 21.4304C158.552 22.0201 158.26 22.1662 157.731 22.1662H154.039C153.631 22.1662 153.526 21.838 153.352 21.4304L147.762 8.75368M58.3538 0H68.2818C72.1279 0 75.2355 3.21276 75.2355 7.17935C75.2454 8.57728 74.8469 9.94769 74.089 11.1224C73.3311 12.297 72.2467 13.2249 70.9689 13.792L76.097 21.4278C76.2201 22.0175 75.8765 22.1637 75.3483 22.1637H71.4663C71.0587 22.1637 70.9022 21.7739 70.6561 21.4278L65.7588 14.351H62.5588V21.6816C62.5581 21.807 62.5079 21.927 62.419 22.0154C62.3301 22.1038 62.2098 22.1534 62.0845 22.1534H58.3538C58.2286 22.1534 58.1087 22.1037 58.0202 22.0152C57.9317 21.9268 57.882 21.8068 57.882 21.6816V0.471786C57.882 0.34666 57.9317 0.22666 58.0202 0.138183C58.1087 0.0497058 58.2286 0 58.3538 0ZM68.2818 4.67683H62.5588V9.66135H68.2818C68.9401 9.66135 69.5714 9.39985 70.0368 8.93439C70.5023 8.46892 70.7638 7.83762 70.7638 7.17935C70.7638 6.52108 70.5023 5.88977 70.0368 5.42431C69.5714 4.95884 68.9401 4.69734 68.2818 4.69734V4.67683ZM45.8258 8.73829L40.2362 21.415C40.0516 21.8227 39.9567 22.1509 39.549 22.1509H35.8568C35.3286 22.1509 35.0363 22.0047 35.2927 21.415L44.3233 0.661526C44.5079 0.315378 44.6207 0.0615373 45.0284 0.0615373H46.6258C47.0335 0.0615373 47.1386 0.317943 47.3309 0.661526L56.3615 21.4304C56.6179 22.0201 56.3256 22.1662 55.7949 22.1662H52.1001C51.6949 22.1662 51.6001 21.838 51.4154 21.4304L45.8258 8.73829ZM26.3134 4.67683H19.6468C19.3238 4.67683 19.1186 4.46402 19.2776 4.08197L20.8366 0.471786C20.9135 0.287174 21.1083 0 21.3699 0H36.9157C37.0411 -1.83141e-06 37.1614 0.049622 37.2502 0.138026C37.3391 0.22643 37.3894 0.346425 37.3901 0.471786V4.20505C37.3894 4.33041 37.3391 4.4504 37.2502 4.53881C37.1614 4.62721 37.0411 4.67683 36.9157 4.67683H30.9902V21.6816C30.9895 21.807 30.9393 21.927 30.8504 22.0154C30.7615 22.1038 30.6412 22.1534 30.5159 22.1534H26.7852C26.66 22.1534 26.54 22.1037 26.4516 22.0152C26.3631 21.9268 26.3134 21.8068 26.3134 21.6816V4.67683Z" fill="white"/>
<path fill-rule="evenodd" clip-rule="evenodd" d="M7.87098 4.67683C7.34848 4.69217 6.85197 4.90814 6.48451 5.27991C6.11705 5.65167 5.90689 6.15068 5.89765 6.67331C5.88841 7.19595 6.08081 7.70207 6.4349 8.08659C6.78898 8.47112 7.27756 8.7045 7.79918 8.73829H12.8709C13.7517 8.73627 14.6244 8.90777 15.4389 9.24299C16.2535 9.57821 16.9941 10.0706 17.6183 10.692C18.2426 11.3134 18.7384 12.0517 19.0774 12.8648C19.4163 13.6778 19.5918 14.5496 19.5938 15.4305C19.5958 16.3113 19.4244 17.1839 19.0891 17.9985C18.7539 18.8131 18.2615 19.5537 17.6401 20.1779C17.0187 20.8022 16.2804 21.298 15.4674 21.6369C14.6543 21.9759 13.7825 22.1514 12.9016 22.1534H1.30957C0.986496 22.1534 0.753168 21.8791 0.837781 21.6816L2.37621 17.9484C2.40851 17.8258 2.47642 17.7156 2.57134 17.6316C2.66627 17.5476 2.78396 17.4937 2.90954 17.4766H12.9093C13.4479 17.4766 13.9644 17.2626 14.3453 16.8818C14.7261 16.501 14.9401 15.9844 14.9401 15.4459C14.9401 14.9073 14.7261 14.3907 14.3453 14.0099C13.9644 13.6291 13.4479 13.4151 12.9093 13.4151H7.8838C6.1175 13.4016 4.42877 12.6876 3.18845 11.43C1.94813 10.1723 1.25762 8.47388 1.26854 6.70756C1.25762 4.94124 1.94813 3.24278 3.18845 1.98516C4.42877 0.727535 6.1175 0.0135536 7.8838 0L18.6528 0C18.9092 0 19.1656 0.182048 19.0656 0.471786L17.4528 4.20505C17.4179 4.33782 17.3407 4.45562 17.2329 4.54072C17.1252 4.62581 16.9927 4.67358 16.8554 4.67683H7.88123" fill="white"/>
<path fill-rule="evenodd" clip-rule="evenodd" d="M95.2352 27.9999L91.543 20.6155H98.8044L95.2352 27.9999Z" fill="white"/>
</svg>
