<svg width="53" height="52" viewBox="0 0 53 52" fill="none" xmlns="http://www.w3.org/2000/svg">
<path opacity="0.998" fill-rule="evenodd" clip-rule="evenodd" d="M23.2306 0C25.1932 0 27.139 0 29.1016 0C41.0784 1.99613 48.5932 8.87355 51.6629 20.6323C51.9145 22.0413 52.1158 23.4503 52.25 24.8258C52.25 25.5471 52.25 26.2852 52.25 27.0065C51.3777 37.3226 46.3455 44.8374 37.1532 49.5677C33.9829 50.9935 30.6784 51.7987 27.2565 52C26.5352 52 25.7971 52 25.0758 52C14.0216 50.9768 6.27194 45.391 1.84355 35.2258C1.08871 33.129 0.56871 30.9987 0.25 28.8516C0.25 26.889 0.25 24.9432 0.25 22.9806C2.59839 10.0142 10.2642 2.34839 23.2306 0Z" fill="#231F20"/>
<path fill-rule="evenodd" clip-rule="evenodd" d="M14.5078 34.2193C12.1091 34.2193 9.69363 34.2193 7.29492 34.2193C7.29492 31.8206 7.29492 29.4051 7.29492 27.0064C8.06653 26.1509 8.88847 25.3122 9.72718 24.4903C9.7775 20.9174 9.8446 17.3277 9.89492 13.7548C11.7736 11.8761 13.6356 10.0141 15.5143 8.13542C17.9801 8.05155 20.4291 8.018 22.8949 8.05155C22.9285 10.4503 22.8949 12.8657 22.8111 15.2645C21.922 16.1535 21.0162 17.0593 20.1272 17.9483C20.0769 21.5212 20.0098 25.1109 19.9594 28.6838C18.1143 30.5122 16.2859 32.3574 14.5078 34.2193Z" fill="#71F194"/>
<path fill-rule="evenodd" clip-rule="evenodd" d="M21.7207 42.942C19.322 42.942 16.9065 42.942 14.5078 42.942C14.5078 40.5433 14.5078 38.1278 14.5078 35.7291C16.6214 33.5317 18.7852 31.3511 20.9659 29.1872C21.0162 25.6143 21.0833 22.0246 21.1336 18.4517C24.2872 15.2982 27.4575 12.1278 30.611 8.97429C33.0768 8.89042 35.5259 8.85687 37.9917 8.89042C38.0252 11.2891 37.9917 13.7046 37.9078 16.1033C35.7272 18.284 33.5465 20.4646 31.3659 22.6453C31.3156 26.2182 31.2485 29.8078 31.1981 33.3807C28.011 36.5511 24.8407 39.7382 21.7207 42.942Z" fill="#71F294"/>
<path fill-rule="evenodd" clip-rule="evenodd" d="M37.824 17.6128C40.2898 17.6128 42.7388 17.6128 45.2047 17.6128C45.2382 20.0115 45.2047 22.427 45.1208 24.8257C44.2821 25.6644 43.4434 26.5031 42.6047 27.3418C42.5543 30.9147 42.4872 34.5044 42.4369 38.0773C40.5582 39.956 38.6963 41.818 36.8176 43.6967C34.4188 43.7805 32.0034 43.8141 29.6047 43.7805C29.5711 41.3147 29.6047 38.8657 29.6885 36.3999C30.5272 35.5612 31.3659 34.7225 32.2047 33.8838C32.255 30.3109 32.3221 26.7212 32.3724 23.1483C34.2176 21.3199 36.0459 19.4747 37.824 17.6128Z" fill="#71F194"/>
<path fill-rule="evenodd" clip-rule="evenodd" d="M7.29476 27.0066C7.29476 29.4053 7.29476 31.8208 7.29476 34.2195C9.69347 34.2195 12.109 34.2195 14.5077 34.2195C12.0754 34.3872 9.6096 34.4376 7.12702 34.3872C7.07669 31.9047 7.12702 29.4388 7.29476 27.0066Z" fill="#477E55"/>
<path fill-rule="evenodd" clip-rule="evenodd" d="M14.5076 35.729C14.5076 38.1277 14.5076 40.5432 14.5076 42.9419C16.9064 42.9419 19.3218 42.9419 21.7206 42.9419C19.2883 43.1096 16.8225 43.16 14.3399 43.1096C14.2896 40.6271 14.3399 38.1613 14.5076 35.729Z" fill="#477E55"/>
</svg>
