<svg width="32" height="32" viewBox="0 0 32 32" fill="none" xmlns="http://www.w3.org/2000/svg">
<rect class="icon-bg" width="32" height="32" rx="16" fill="url(#paint0_linear_4385_21189)" fill-opacity="0.16"/>
<mask id="mask0_4385_21189" style="mask-type:alpha" maskUnits="userSpaceOnUse" x="4" y="4" width="24" height="24">
<rect x="4" y="4" width="24" height="24" fill="#D9D9D9"/>
</mask>
<g mask="url(#mask0_4385_21189)">
<path d="M16 25.5C14.6872 25.5 13.4529 25.2503 12.2973 24.751C11.1414 24.2517 10.1359 23.5744 9.28075 22.7193C8.42558 21.8641 7.74833 20.8586 7.249 19.7028C6.74967 18.5471 6.5 17.3128 6.5 16C6.5 14.6872 6.74967 13.4529 7.249 12.2973C7.74833 11.1414 8.42558 10.1359 9.28075 9.28075C10.1359 8.42558 11.1414 7.74833 12.2973 7.249C13.4529 6.74967 14.6872 6.5 16 6.5C17.3128 6.5 18.5471 6.74967 19.7028 7.249C20.8586 7.74833 21.8641 8.42558 22.7193 9.28075C23.5744 10.1359 24.2517 11.1414 24.751 12.2973C25.2503 13.4529 25.5 14.6872 25.5 16C25.5 17.3128 25.2503 18.5471 24.751 19.7028C24.2517 20.8586 23.5744 21.8641 22.7193 22.7193C21.8641 23.5744 20.8586 24.2517 19.7028 24.751C18.5471 25.2503 17.3128 25.5 16 25.5ZM15.25 23.9538V22.5308C14.6218 22.4666 14.0257 22.3131 13.4615 22.0703C12.8975 21.8273 12.3789 21.5198 11.9058 21.148L10.898 22.1615C11.4993 22.6653 12.1677 23.074 12.903 23.3875C13.6382 23.701 14.4205 23.8898 15.25 23.9538ZM16.75 23.9538C17.5795 23.8898 18.3602 23.701 19.0922 23.3875C19.8244 23.074 20.4911 22.6653 21.0922 22.1615L20.0943 21.148C19.6211 21.5198 19.1025 21.8273 18.5385 22.0703C17.9743 22.3131 17.3782 22.4666 16.75 22.5308V23.9538ZM16 21.0865C17.409 21.0865 18.609 20.591 19.6 19.6C20.591 18.609 21.0865 17.409 21.0865 16C21.0865 14.591 20.591 13.391 19.6 12.4C18.609 11.409 17.409 10.9135 16 10.9135C14.591 10.9135 13.391 11.409 12.4 12.4C11.409 13.391 10.9135 14.591 10.9135 16C10.9135 17.409 11.409 18.609 12.4 19.6C13.391 20.591 14.591 21.0865 16 21.0865ZM22.1615 21.102C22.6653 20.5007 23.074 19.8323 23.3875 19.097C23.701 18.3618 23.8898 17.5795 23.9538 16.75H22.5308C22.4666 17.3782 22.3131 17.9743 22.0703 18.5385C21.8273 19.1025 21.5198 19.6211 21.148 20.0943L22.1615 21.102ZM9.8385 21.102L10.852 20.0788C10.4802 19.6058 10.1728 19.0898 9.92975 18.5308C9.68692 17.9718 9.53342 17.3782 9.46925 16.75H8.04625C8.11025 17.5795 8.299 18.3618 8.6125 19.097C8.926 19.8323 9.33467 20.5007 9.8385 21.102ZM15.6385 19.2345L13.623 16.5423C13.5025 16.3783 13.4423 16.1975 13.4423 16C13.4423 15.8025 13.5025 15.6217 13.623 15.4578L15.6385 12.7655C15.732 12.645 15.8525 12.5848 16 12.5848C16.1475 12.5848 16.268 12.645 16.3615 12.7655L18.377 15.4578C18.4975 15.6217 18.5577 15.8025 18.5577 16C18.5577 16.1975 18.4975 16.3783 18.377 16.5423L16.3615 19.2345C16.268 19.355 16.1475 19.4152 16 19.4152C15.8525 19.4152 15.732 19.355 15.6385 19.2345ZM8.04625 15.25H9.46925C9.53342 14.6218 9.68692 14.0283 9.92975 13.4693C10.1728 12.9103 10.4802 12.3942 10.852 11.9212L9.8385 10.9078C9.33467 11.5089 8.926 12.1756 8.6125 12.9078C8.299 13.6398 8.11025 14.4205 8.04625 15.25ZM22.5308 15.25H23.9538C23.8898 14.4205 23.6984 13.6398 23.3798 12.9078C23.0613 12.1756 22.6501 11.5089 22.1462 10.9078L21.148 11.9057C21.5198 12.3789 21.8273 12.8975 22.0703 13.4615C22.3131 14.0257 22.4666 14.6218 22.5308 15.25ZM11.9213 10.852C12.3943 10.4802 12.9102 10.1728 13.4692 9.92975C14.0282 9.68692 14.6218 9.53342 15.25 9.46925V8.04625C14.4205 8.11025 13.6382 8.299 12.903 8.6125C12.1677 8.926 11.4993 9.33467 10.898 9.8385L11.9213 10.852ZM20.0943 10.852L21.0922 9.85375C20.4911 9.34992 19.8244 8.93875 19.0922 8.62025C18.3602 8.30158 17.5795 8.11025 16.75 8.04625V9.46925C17.3782 9.53342 17.9743 9.68692 18.5385 9.92975C19.1025 10.1728 19.6211 10.4802 20.0943 10.852Z" fill="white"/>
</g>
<defs>
<linearGradient id="paint0_linear_4385_21189" x1="16" y1="-7.9362e-07" x2="16" y2="32" gradientUnits="userSpaceOnUse">
<stop stop-color="#3569ED"/>
<stop offset="1" stop-color="#282FE9"/>
</linearGradient>
</defs>
</svg>
