<svg width="76" height="76" viewBox="0 0 76 76" fill="none" xmlns="http://www.w3.org/2000/svg">
<path d="M32.1002 47.9848L21.9542 37.7998C21.4822 37.3538 20.9219 37.1244 20.2732 37.1118C19.6246 37.0984 19.0439 37.3484 18.5312 37.8618C18.0592 38.3331 17.8232 38.8931 17.8232 39.5418C17.8232 40.1904 18.0592 40.7508 18.5312 41.2228L30.0772 52.8308C30.6512 53.4308 31.3256 53.7308 32.1002 53.7308C32.8749 53.7308 33.5492 53.4308 34.1232 52.8308L57.3312 29.6608C57.8179 29.1481 58.0679 28.5674 58.0812 27.9188C58.0939 27.2701 57.8439 26.6894 57.3312 26.1768C56.8179 25.7048 56.2269 25.4791 55.5582 25.4998C54.8889 25.5204 54.3182 25.7668 53.8462 26.2388L32.1002 47.9848ZM38.0072 75.9998C32.7926 75.9998 27.8792 75.0024 23.2672 73.0078C18.6552 71.0131 14.6222 68.2894 11.1682 64.8368C7.71424 61.3841 4.98924 57.3528 2.99324 52.7428C0.99791 48.1334 0.000244141 43.2214 0.000244141 38.0068C0.000244141 32.7508 0.997577 27.8104 2.99224 23.1858C4.98691 18.5611 7.71058 14.5384 11.1632 11.1178C14.6159 7.69709 18.6472 4.98876 23.2572 2.99276C27.8666 0.997422 32.7786 -0.000244141 37.9932 -0.000244141C43.2492 -0.000244141 48.1896 0.997088 52.8142 2.99175C57.4389 4.98642 61.4616 7.69342 64.8822 11.1128C68.3029 14.5321 71.0112 18.5531 73.0072 23.1758C75.0026 27.7984 76.0002 32.7374 76.0002 37.9928C76.0002 43.2074 75.0029 48.1208 73.0082 52.7328C71.0136 57.3448 68.3066 61.3778 64.8872 64.8318C61.4679 68.2858 57.4469 71.0108 52.8242 73.0068C48.2016 75.0021 43.2626 75.9998 38.0072 75.9998Z" fill="url(#paint0_linear_5252_1049)"/>
<defs>
<linearGradient id="paint0_linear_5252_1049" x1="38.0002" y1="-0.000244141" x2="38.0002" y2="75.9998" gradientUnits="userSpaceOnUse">
<stop stop-color="#8CEDC7"/>
<stop offset="1" stop-color="#38BC87"/>
</linearGradient>
</defs>
</svg>
