<svg width="32" height="32" viewBox="0 0 32 32" fill="none" xmlns="http://www.w3.org/2000/svg">
<rect class="icon-bg" width="32" height="32" rx="16" fill="url(#paint0_linear_4974_21794)" fill-opacity="0.16"/>
<mask id="mask0_4974_21794" style="mask-type:alpha" maskUnits="userSpaceOnUse" x="4" y="4" width="24" height="24">
<rect x="4" y="4" width="24" height="24" fill="#D9D9D9"/>
</mask>
<g mask="url(#mask0_4974_21794)">
<path d="M8.30775 23.5C7.80258 23.5 7.375 23.325 7.025 22.975C6.675 22.625 6.5 22.1974 6.5 21.6923V10.3077C6.5 9.80258 6.675 9.375 7.025 9.025C7.375 8.675 7.80258 8.5 8.30775 8.5L9.68275 11.25C9.79942 11.4833 9.96608 11.6667 10.1827 11.8C10.3994 11.9333 10.6328 12 10.8828 12C11.3828 12 11.7661 11.7875 12.0328 11.3625C12.2994 10.9375 12.3161 10.5 12.0827 10.05L11.3078 8.5H13.3078L14.6827 11.25C14.7994 11.4833 14.9661 11.6667 15.1827 11.8C15.3994 11.9333 15.6328 12 15.8828 12C16.3828 12 16.7661 11.7875 17.0328 11.3625C17.2994 10.9375 17.3161 10.5 17.0828 10.05L16.3077 8.5H18.3077L19.6827 11.25C19.7994 11.4833 19.9661 11.6667 20.1827 11.8C20.3994 11.9333 20.6328 12 20.8828 12C21.3828 12 21.7661 11.7875 22.0328 11.3625C22.2994 10.9375 22.3161 10.5 22.0828 10.05L21.3077 8.5H23.6923C24.1974 8.5 24.625 8.675 24.975 9.025C25.325 9.375 25.5 9.80258 25.5 10.3077V13.0288C25.5 13.2738 25.4138 13.4824 25.2413 13.6548C25.0689 13.8273 24.8603 13.9135 24.6152 13.9135H24V13.5H8V21.6923C8 21.7821 8.02883 21.8558 8.0865 21.9135C8.14417 21.9712 8.21792 22 8.30775 22H15.173C15.3858 22 15.5641 22.0718 15.7078 22.2155C15.8513 22.359 15.923 22.5372 15.923 22.75C15.923 22.9628 15.8513 23.141 15.7078 23.2845C15.5641 23.4282 15.3858 23.5 15.173 23.5H8.30775ZM18.1155 23.596V22.2345C18.1155 22.114 18.1372 21.9993 18.1807 21.8905C18.2244 21.7815 18.293 21.6802 18.3865 21.5865L23.5443 16.4538C23.6686 16.3294 23.8032 16.2419 23.948 16.1912C24.0928 16.1407 24.2377 16.1155 24.3827 16.1155C24.5378 16.1155 24.6893 16.1449 24.8375 16.2038C24.9855 16.2628 25.1185 16.3512 25.2365 16.4692L26.1615 17.4038C26.2692 17.5283 26.3525 17.6629 26.4115 17.8077C26.4705 17.9526 26.5 18.0974 26.5 18.2423C26.5 18.3871 26.4731 18.5345 26.4193 18.6845C26.3654 18.8345 26.2795 18.9717 26.1615 19.096L21.0288 24.2288C20.9353 24.3224 20.834 24.391 20.725 24.4345C20.616 24.4782 20.5012 24.5 20.3807 24.5H19.0193C18.7616 24.5 18.5465 24.4138 18.374 24.2413C18.2017 24.0689 18.1155 23.8538 18.1155 23.596ZM19.3077 23.3077H20.2578L23.5038 20.046L23.0443 19.571L22.5788 19.102L19.3077 22.3577V23.3077ZM23.0443 19.571L22.5788 19.102L23.5038 20.046L23.0443 19.571Z" fill="white"/>
</g>
<defs>
<linearGradient id="paint0_linear_4974_21794" x1="16" y1="-7.9362e-07" x2="16" y2="32" gradientUnits="userSpaceOnUse">
<stop stop-color="#3569ED"/>
<stop offset="1" stop-color="#282FE9"/>
</linearGradient>
</defs>
</svg>
