<svg width="32" height="32" viewBox="0 0 32 32" fill="none" xmlns="http://www.w3.org/2000/svg">
<g clip-path="url(#clip0_5341_1097)">
<path d="M20.317 4.48907C18.7873 3.78719 17.147 3.27007 15.4319 2.9739C15.4007 2.96818 15.3695 2.98247 15.3534 3.01104C15.1424 3.38625 14.9087 3.87575 14.7451 4.26049C12.9004 3.98433 11.0652 3.98433 9.25832 4.26049C9.09465 3.8672 8.85248 3.38625 8.64057 3.01104C8.62448 2.98342 8.59328 2.96914 8.56205 2.9739C6.84791 3.26913 5.20756 3.78624 3.67693 4.48907C3.66368 4.49478 3.65233 4.50431 3.64479 4.51669C0.533392 9.16505 -0.31895 13.6992 0.0991801 18.177C0.101072 18.199 0.11337 18.2199 0.130398 18.2332C2.18321 19.7408 4.17171 20.656 6.12328 21.2626C6.15451 21.2721 6.18761 21.2607 6.20748 21.235C6.66913 20.6046 7.08064 19.9398 7.43348 19.2408C7.4543 19.1999 7.43442 19.1513 7.39186 19.1351C6.73913 18.8875 6.1176 18.5856 5.51973 18.2428C5.47244 18.2151 5.46865 18.1475 5.51216 18.1151C5.63797 18.0208 5.76382 17.9227 5.88396 17.8237C5.90569 17.8056 5.93598 17.8018 5.96153 17.8132C9.88928 19.6065 14.1415 19.6065 18.023 17.8132C18.0485 17.8009 18.0788 17.8047 18.1015 17.8228C18.2216 17.9218 18.3475 18.0208 18.4742 18.1151C18.5177 18.1475 18.5149 18.2151 18.4676 18.2428C17.8697 18.5922 17.2482 18.8875 16.5945 19.1341C16.552 19.1503 16.533 19.1999 16.5538 19.2408C16.9143 19.9389 17.3258 20.6036 17.7789 21.234C17.7978 21.2607 17.8319 21.2721 17.8631 21.2626C19.8241 20.656 21.8126 19.7408 23.8654 18.2332C23.8834 18.2199 23.8948 18.1999 23.8967 18.178C24.3971 13.0011 23.0585 8.50413 20.3482 4.51763C20.3416 4.50431 20.3303 4.49478 20.317 4.48907ZM8.02002 15.4505C6.8375 15.4505 5.86313 14.3648 5.86313 13.0315C5.86313 11.6983 6.8186 10.6126 8.02002 10.6126C9.23087 10.6126 10.1958 11.7078 10.1769 13.0315C10.1769 14.3648 9.22141 15.4505 8.02002 15.4505ZM15.9947 15.4505C14.8123 15.4505 13.8379 14.3648 13.8379 13.0315C13.8379 11.6983 14.7933 10.6126 15.9947 10.6126C17.2056 10.6126 18.1705 11.7078 18.1516 13.0315C18.1516 14.3648 17.2056 15.4505 15.9947 15.4505Z" fill="white"/>
</g>
<defs>
<clipPath id="clip0_5341_1097">
<rect width="24" height="24" fill="white" transform="translate(0 0.333008)"/>
</clipPath>
</defs>
</svg>
