<svg width="32" height="32" viewBox="0 0 32 32" fill="none" xmlns="http://www.w3.org/2000/svg">
<rect class="icon-bg" width="32" height="32" rx="16" fill="url(#paint0_linear_4385_21182)" fill-opacity="0.16"/>
<mask id="mask0_4385_21182" style="mask-type:alpha" maskUnits="userSpaceOnUse" x="4" y="4" width="24" height="24">
<rect x="4" y="4" width="24" height="24" fill="#D9D9D9"/>
</mask>
<g mask="url(#mask0_4385_21182)">
<path d="M8.30775 21.5C7.80258 21.5 7.375 21.325 7.025 20.975C6.675 20.625 6.5 20.1963 6.5 19.689V12.311C6.5 11.8037 6.675 11.375 7.025 11.025C7.375 10.675 7.80258 10.5 8.30775 10.5H23.6923C24.1974 10.5 24.625 10.675 24.975 11.025C25.325 11.375 25.5 11.8037 25.5 12.311V19.689C25.5 20.1963 25.325 20.625 24.975 20.975C24.625 21.325 24.1974 21.5 23.6923 21.5H8.30775ZM8.30775 20H23.6923C23.7693 20 23.8398 19.9679 23.9038 19.9038C23.9679 19.8398 24 19.7692 24 19.6923V12.3077C24 12.2307 23.9679 12.1602 23.9038 12.0962C23.8398 12.0321 23.7693 12 23.6923 12H8.30775C8.23075 12 8.16025 12.0321 8.09625 12.0962C8.03208 12.1602 8 12.2307 8 12.3077V19.6923C8 19.7692 8.03208 19.8398 8.09625 19.9038C8.16025 19.9679 8.23075 20 8.30775 20ZM11.25 16.75V18C11.25 18.2125 11.3219 18.3906 11.4658 18.5343C11.6096 18.6781 11.7878 18.75 12.0003 18.75C12.2129 18.75 12.391 18.6781 12.5345 18.5343C12.6782 18.3906 12.75 18.2125 12.75 18V16.75H14C14.2125 16.75 14.3906 16.6781 14.5343 16.5342C14.6781 16.3904 14.75 16.2122 14.75 15.9997C14.75 15.7871 14.6781 15.609 14.5343 15.4655C14.3906 15.3218 14.2125 15.25 14 15.25H12.75V14C12.75 13.7875 12.6781 13.6094 12.5342 13.4658C12.3904 13.3219 12.2122 13.25 11.9997 13.25C11.7871 13.25 11.609 13.3219 11.4655 13.4658C11.3218 13.6094 11.25 13.7875 11.25 14V15.25H10C9.7875 15.25 9.60942 15.3219 9.46575 15.4658C9.32192 15.6096 9.25 15.7878 9.25 16.0003C9.25 16.2129 9.32192 16.391 9.46575 16.5345C9.60942 16.6782 9.7875 16.75 10 16.75H11.25ZM18.4988 18.75C18.8458 18.75 19.141 18.6286 19.3845 18.3857C19.6282 18.1429 19.75 17.8481 19.75 17.5012C19.75 17.1542 19.6286 16.859 19.3857 16.6155C19.1429 16.3718 18.8481 16.25 18.5013 16.25C18.1543 16.25 17.859 16.3714 17.6155 16.6143C17.3718 16.8571 17.25 17.1519 17.25 17.4988C17.25 17.8458 17.3714 18.141 17.6143 18.3845C17.8571 18.6282 18.1519 18.75 18.4988 18.75ZM21.4988 15.75C21.8458 15.75 22.141 15.6286 22.3845 15.3857C22.6282 15.1429 22.75 14.8481 22.75 14.5012C22.75 14.1542 22.6286 13.859 22.3857 13.6155C22.1429 13.3718 21.8481 13.25 21.5013 13.25C21.1543 13.25 20.859 13.3714 20.6155 13.6143C20.3718 13.8571 20.25 14.1519 20.25 14.4988C20.25 14.8458 20.3714 15.141 20.6143 15.3845C20.8571 15.6282 21.1519 15.75 21.4988 15.75Z" fill="white"/>
</g>
<defs>
<linearGradient id="paint0_linear_4385_21182" x1="16" y1="-7.9362e-07" x2="16" y2="32" gradientUnits="userSpaceOnUse">
<stop stop-color="#3569ED"/>
<stop offset="1" stop-color="#282FE9"/>
</linearGradient>
</defs>
</svg>
