<svg width="32" height="32" viewBox="0 0 32 32" fill="none" xmlns="http://www.w3.org/2000/svg">
<rect class="icon-bg" width="32" height="32" rx="16" fill="url(#paint0_linear_4367_77468)" fill-opacity="0.16"/>
<mask id="mask0_4367_77468" style="mask-type:alpha" maskUnits="userSpaceOnUse" x="4" y="4" width="24" height="24">
<rect x="4" y="4" width="24" height="24" fill="#D9D9D9"/>
</mask>
<g mask="url(#mask0_4367_77468)">
<path d="M8.5 22.9999V14.1536C8.5 13.8675 8.564 13.5964 8.692 13.3404C8.82017 13.0842 8.99717 12.8733 9.223 12.7076L14.9155 8.41912C15.2313 8.17812 15.5923 8.05762 15.9985 8.05762C16.4047 8.05762 16.7667 8.17812 17.0845 8.41912L22.777 12.7076C23.0028 12.8733 23.1798 13.0842 23.308 13.3404C23.436 13.5964 23.5 13.8675 23.5 14.1536V22.9999C23.5 23.4089 23.3523 23.7611 23.0568 24.0566C22.7613 24.3521 22.409 24.4999 22 24.4999H18.8077C18.5516 24.4999 18.3369 24.4132 18.1637 24.2399C17.9904 24.0667 17.9038 23.852 17.9038 23.5959V18.7114C17.9038 18.4554 17.8172 18.2407 17.644 18.0674C17.4708 17.8942 17.2562 17.8076 17 17.8076H15C14.7438 17.8076 14.5292 17.8942 14.356 18.0674C14.1828 18.2407 14.0963 18.4554 14.0963 18.7114V23.5959C14.0963 23.852 14.0096 24.0667 13.8363 24.2399C13.6631 24.4132 13.4484 24.4999 13.1923 24.4999H10C9.591 24.4999 9.23875 24.3521 8.94325 24.0566C8.64775 23.7611 8.5 23.4089 8.5 22.9999Z" fill="white"/>
</g>
<defs>
<linearGradient id="paint0_linear_4367_77468" x1="16" y1="-7.9362e-07" x2="16" y2="32" gradientUnits="userSpaceOnUse">
<stop stop-color="#3569ED"/>
<stop offset="1" stop-color="#282FE9"/>
</linearGradient>
</defs>
</svg>
