<svg width="32" height="32" viewBox="0 0 32 32" fill="none" xmlns="http://www.w3.org/2000/svg">
<rect class="icon-bg" width="32" height="32" rx="16" fill="url(#paint0_linear_4385_21175)" fill-opacity="0.16"/>
<mask id="mask0_4385_21175" style="mask-type:alpha" maskUnits="userSpaceOnUse" x="4" y="4" width="24" height="24">
<rect x="4" y="4" width="24" height="24" fill="#D9D9D9"/>
</mask>
<g mask="url(#mask0_4385_21175)">
<path d="M18.1054 23.4999C17.1429 23.4999 16.319 23.1572 15.6337 22.4717C14.9482 21.7864 14.6054 20.9624 14.6054 19.9999C14.6054 19.0374 14.9482 18.2135 15.6337 17.5282C16.319 16.8427 17.1429 16.4999 18.1054 16.4999C18.4888 16.4999 18.8478 16.557 19.1824 16.6712C19.5171 16.7852 19.8248 16.9564 20.1054 17.1847V9.24994C20.1054 8.99394 20.1924 8.77928 20.3664 8.60594C20.5404 8.43278 20.756 8.34619 21.0132 8.34619H24.6447C24.9019 8.34619 25.1167 8.43278 25.2892 8.60594C25.4615 8.77928 25.5477 8.99394 25.5477 9.24994V10.0962C25.5477 10.3522 25.4611 10.5669 25.2879 10.7402C25.1146 10.9134 24.8999 10.9999 24.6439 10.9999H21.6054V19.9999C21.6054 20.9624 21.2628 21.7864 20.5774 22.4717C19.8919 23.1572 19.0679 23.4999 18.1054 23.4999ZM10.9497 12.8192C10.1112 13.6577 9.43235 14.6199 8.91318 15.7057C8.39385 16.7917 8.0836 17.9533 7.98244 19.1904C7.96194 19.4096 7.87977 19.5993 7.73594 19.7594C7.59227 19.9198 7.41419 19.9999 7.20169 19.9999C6.98235 19.9999 6.80252 19.9156 6.66219 19.7469C6.52185 19.5784 6.46194 19.3846 6.48244 19.1654C6.5901 17.7154 6.94327 16.3596 7.54194 15.0979C8.14077 13.8364 8.92027 12.7256 9.88044 11.7654C10.8408 10.8051 11.9501 10.0272 13.2084 9.43169C14.4668 8.83619 15.8209 8.48461 17.2709 8.37694C17.4901 8.35644 17.684 8.41636 17.8527 8.55669C18.0212 8.69703 18.1054 8.87519 18.1054 9.09119C18.1054 9.30736 18.0254 9.48719 17.8652 9.63069C17.7049 9.77436 17.5151 9.85644 17.2959 9.87694C16.0588 9.97811 14.9014 10.2842 13.8237 10.7952C12.7462 11.306 11.7882 11.9807 10.9497 12.8192ZM13.8227 15.7019C13.3574 16.1673 12.9715 16.7015 12.6652 17.3047C12.3587 17.908 12.165 18.5552 12.0842 19.2462C12.0467 19.4652 11.9561 19.6456 11.8124 19.7874C11.6688 19.9291 11.4907 19.9999 11.2782 19.9999C11.0657 19.9999 10.8902 19.9198 10.7517 19.7594C10.6132 19.5993 10.5542 19.4128 10.5747 19.1999C10.6657 18.3064 10.9006 17.4754 11.2794 16.7067C11.6583 15.938 12.1497 15.2518 12.7537 14.6479C13.3575 14.0441 14.0437 13.5528 14.8122 13.1739C15.5809 12.7951 16.4119 12.5602 17.3054 12.4692C17.5183 12.4487 17.7049 12.5074 17.8652 12.6454C18.0254 12.7834 18.1054 12.9591 18.1054 13.1724C18.1054 13.3856 18.0346 13.5639 17.8929 13.7074C17.7511 13.8509 17.5707 13.9414 17.3517 13.9787C16.6607 14.0595 16.0161 14.2506 15.4179 14.5519C14.8199 14.8531 14.2882 15.2364 13.8227 15.7019Z" fill="white"/>
</g>
<defs>
<linearGradient id="paint0_linear_4385_21175" x1="16" y1="-7.9362e-07" x2="16" y2="32" gradientUnits="userSpaceOnUse">
<stop stop-color="#3569ED"/>
<stop offset="1" stop-color="#282FE9"/>
</linearGradient>
</defs>
</svg>
