<svg width="32" height="32" viewBox="0 0 32 32" fill="none" xmlns="http://www.w3.org/2000/svg">
<rect width="32" height="32" rx="16" fill="url(#paint0_linear_5394_563)" fill-opacity="0.16"/>
<mask id="mask0_5394_563" style="mask-type:alpha" maskUnits="userSpaceOnUse" x="4" y="4" width="24" height="24">
<rect x="4" y="4" width="24" height="24" fill="#D9D9D9"/>
</mask>
<g mask="url(#mask0_5394_563)">
<path d="M22.6921 16.7495H20.5769C20.3644 16.7495 20.1862 16.6776 20.0424 16.5338C19.8987 16.39 19.8269 16.2118 19.8269 15.9993C19.8269 15.7866 19.8987 15.6085 20.0424 15.465C20.1862 15.3214 20.3644 15.2495 20.5769 15.2495H22.6921C22.9046 15.2495 23.0828 15.3215 23.2266 15.4653C23.3703 15.6091 23.4421 15.7873 23.4421 15.9998C23.4421 16.2125 23.3703 16.3905 23.2266 16.534C23.0828 16.6777 22.9046 16.7495 22.6921 16.7495ZM18.5326 20.713C18.6608 20.5374 18.8245 20.436 19.0239 20.409C19.2232 20.3822 19.4107 20.4329 19.5864 20.561L21.2729 21.8283C21.4485 21.9566 21.5499 22.1205 21.5769 22.3198C21.6037 22.5191 21.553 22.7066 21.4249 22.8823C21.2967 23.0578 21.1329 23.159 20.9336 23.186C20.7341 23.213 20.5466 23.1624 20.3711 23.034L18.6844 21.7668C18.5089 21.6386 18.4076 21.4749 18.3806 21.2755C18.3538 21.0762 18.4045 20.8887 18.5326 20.713ZM21.2344 10.1323L19.5479 11.3995C19.3722 11.5277 19.1847 11.5784 18.9854 11.5515C18.786 11.5245 18.6223 11.4232 18.4941 11.2475C18.366 11.072 18.3153 10.8845 18.3421 10.685C18.3691 10.4857 18.4705 10.322 18.6461 10.1938L20.3326 8.92655C20.5083 8.79838 20.6958 8.74771 20.8951 8.77455C21.0945 8.80155 21.2582 8.9028 21.3864 9.0783C21.5145 9.25396 21.5652 9.44146 21.5384 9.6408C21.5114 9.8403 21.41 10.0041 21.2344 10.1323ZM11.2691 18.4995H8.46137C8.20537 18.4995 7.9907 18.4129 7.81737 18.2395C7.6442 18.0664 7.55762 17.8517 7.55762 17.5955V14.4035C7.55762 14.1474 7.6442 13.9327 7.81737 13.7595C7.9907 13.5862 8.20537 13.4995 8.46137 13.4995H11.2691L14.2614 10.5073C14.5012 10.2676 14.7772 10.2135 15.0894 10.345C15.4015 10.4765 15.5576 10.7114 15.5576 11.0495V20.9495C15.5576 21.2877 15.4015 21.5225 15.0894 21.654C14.7772 21.7855 14.5012 21.7315 14.2614 21.4918L11.2691 18.4995ZM14.0576 12.8495L11.9076 14.9995H9.05762V16.9995H11.9076L14.0576 19.1495V12.8495Z" fill="#3CADEF"/>
</g>
<defs>
<linearGradient id="paint0_linear_5394_563" x1="16" y1="-7.9362e-07" x2="16" y2="32" gradientUnits="userSpaceOnUse">
<stop stop-color="#3569ED"/>
<stop offset="1" stop-color="#282FE9"/>
</linearGradient>
</defs>
</svg>
