<svg width="32" height="32" viewBox="0 0 32 32" fill="none" xmlns="http://www.w3.org/2000/svg">
<rect class="icon-bg" width="32" height="32" rx="16" fill="url(#paint0_linear_4385_21196)" fill-opacity="0.16"/>
<mask id="mask0_4385_21196" style="mask-type:alpha" maskUnits="userSpaceOnUse" x="4" y="3" width="25" height="25">
<rect x="4.39844" y="3.81042" width="24" height="24" fill="#D9D9D9"/>
</mask>
<g mask="url(#mask0_4385_21196)">
<path d="M9.00619 14.8104L11.0792 12.7374C11.2177 12.5989 11.2885 12.4248 11.2917 12.2152C11.2949 12.0057 11.224 11.8284 11.0792 11.6834C10.9344 11.5386 10.7587 11.4662 10.5522 11.4662C10.3459 11.4662 10.1703 11.5386 10.0254 11.6834L7.53119 14.1777C7.35035 14.3585 7.25994 14.5694 7.25994 14.8104C7.25994 15.0514 7.35035 15.2623 7.53119 15.4432L10.0254 17.9374C10.1639 18.0758 10.3379 18.1466 10.5474 18.1499C10.7571 18.1531 10.9344 18.0823 11.0792 17.9374C11.224 17.7924 11.2964 17.6168 11.2964 17.4104C11.2964 17.2041 11.224 17.0284 11.0792 16.8834L9.00619 14.8104ZM23.7907 14.8104L21.7177 16.8834C21.5792 17.0219 21.5084 17.196 21.5052 17.4057C21.502 17.6152 21.5729 17.7924 21.7177 17.9374C21.8625 18.0823 22.0382 18.1547 22.2447 18.1547C22.451 18.1547 22.6266 18.0823 22.7714 17.9374L25.2657 15.4432C25.4465 15.2623 25.5369 15.0514 25.5369 14.8104C25.5369 14.5694 25.4465 14.3585 25.2657 14.1777L22.7714 11.6834C22.6329 11.5451 22.4589 11.4743 22.2494 11.4709C22.0398 11.4678 21.8625 11.5386 21.7177 11.6834C21.5729 11.8284 21.5004 12.0041 21.5004 12.2104C21.5004 12.4168 21.5729 12.5924 21.7177 12.7374L23.7907 14.8104ZM6.89844 10.1952V9.11817C6.89844 8.61301 7.07344 8.18542 7.42344 7.83542C7.77344 7.48542 8.20102 7.31042 8.70619 7.31042H24.0907C24.5959 7.31042 25.0234 7.48542 25.3734 7.83542C25.7234 8.18542 25.8984 8.61301 25.8984 9.11817V10.1952C25.8984 10.4078 25.8266 10.586 25.6829 10.7297C25.5394 10.8733 25.3613 10.9452 25.1484 10.9452C24.9356 10.9452 24.7574 10.8733 24.6139 10.7297C24.4703 10.586 24.3984 10.4078 24.3984 10.1952V9.11817C24.3984 9.02834 24.3696 8.95459 24.3119 8.89693C24.2543 8.83926 24.1805 8.81042 24.0907 8.81042H8.70619C8.61635 8.81042 8.5426 8.83926 8.48494 8.89693C8.42727 8.95459 8.39844 9.02834 8.39844 9.11817V10.1952C8.39844 10.4078 8.3266 10.586 8.18294 10.7297C8.03944 10.8733 7.86127 10.9452 7.64844 10.9452C7.4356 10.9452 7.25744 10.8733 7.11394 10.7297C6.97027 10.586 6.89844 10.4078 6.89844 10.1952ZM13.8024 24.3104C13.5446 24.3104 13.3295 24.2242 13.1572 24.0517C12.9847 23.8793 12.8984 23.6643 12.8984 23.4064V22.3104H8.70619C8.20102 22.3104 7.77344 22.1354 7.42344 21.7854C7.07344 21.4354 6.89844 21.0078 6.89844 20.5027V19.4412C6.89844 19.2283 6.97027 19.0527 7.11394 18.9142C7.25744 18.7758 7.4356 18.7067 7.64844 18.7067C7.86127 18.7067 8.03944 18.7784 8.18294 18.9219C8.3266 19.0656 8.39844 19.2438 8.39844 19.4564V20.5027C8.39844 20.5925 8.42727 20.6663 8.48494 20.7239C8.5426 20.7816 8.61635 20.8104 8.70619 20.8104H24.0907C24.1805 20.8104 24.2543 20.7816 24.3119 20.7239C24.3696 20.6663 24.3984 20.5925 24.3984 20.5027V19.4412C24.3984 19.2283 24.4703 19.0527 24.6139 18.9142C24.7574 18.7758 24.9356 18.7067 25.1484 18.7067C25.3613 18.7067 25.5394 18.7784 25.6829 18.9219C25.8266 19.0656 25.8984 19.2438 25.8984 19.4564V20.5027C25.8984 21.0078 25.7234 21.4354 25.3734 21.7854C25.0234 22.1354 24.5959 22.3104 24.0907 22.3104H19.8984V23.4064C19.8984 23.6643 19.8122 23.8793 19.6397 24.0517C19.4674 24.2242 19.2523 24.3104 18.9944 24.3104H13.8024Z" fill="white"/>
</g>
<defs>
<linearGradient id="paint0_linear_4385_21196" x1="16" y1="-7.9362e-07" x2="16" y2="32" gradientUnits="userSpaceOnUse">
<stop stop-color="#3569ED"/>
<stop offset="1" stop-color="#282FE9"/>
</linearGradient>
</defs>
</svg>
