<svg width="32" height="32" viewBox="0 0 32 32" fill="none" xmlns="http://www.w3.org/2000/svg">
<g clip-path="url(#clip0_5341_1094)">
<path d="M12 24.333C18.6274 24.333 24 18.9604 24 12.333C24 5.70559 18.6274 0.333008 12 0.333008C5.37258 0.333008 0 5.70559 0 12.333C0 18.9604 5.37258 24.333 12 24.333Z" fill="white"/>
<path fill-rule="evenodd" clip-rule="evenodd" d="M5.43201 12.206C8.93026 10.6818 11.263 9.67704 12.4301 9.19157C15.7627 7.80546 16.4551 7.56468 16.9065 7.55673C17.0058 7.55498 17.2277 7.57958 17.3715 7.69624C17.4929 7.79475 17.5263 7.92782 17.5423 8.02122C17.5583 8.11461 17.5782 8.32737 17.5623 8.49362C17.3817 10.3911 16.6003 14.9958 16.2028 17.121C16.0346 18.0203 15.7034 18.3218 15.3827 18.3513C14.6858 18.4154 14.1567 17.8907 13.4817 17.4483C12.4256 16.756 11.8289 16.325 10.8037 15.6494C9.61896 14.8687 10.387 14.4396 11.0622 13.7383C11.2389 13.5547 14.3093 10.762 14.3687 10.5086C14.3762 10.477 14.3831 10.3589 14.3129 10.2965C14.2427 10.2341 14.1392 10.2554 14.0644 10.2724C13.9585 10.2965 12.2713 11.4116 9.00276 13.618C8.52385 13.9468 8.09007 14.1071 7.70141 14.0987C7.27295 14.0894 6.44876 13.8564 5.83606 13.6572C5.08456 13.413 4.48728 13.2838 4.53929 12.8689C4.56638 12.6529 4.86395 12.4319 5.43201 12.206Z" fill="#1B1B1B"/>
</g>
<defs>
<clipPath id="clip0_5341_1094">
<rect width="24" height="24" fill="white" transform="translate(0 0.333008)"/>
</clipPath>
</defs>
</svg>
