<svg width="141" height="24" viewBox="0 0 141 24" fill="none" xmlns="http://www.w3.org/2000/svg">
<path d="M112.074 0.0219593V17.72H132.341L140.51 0.0219593H112.074ZM132.868 3.0302H135.591L130.19 14.7118L124.634 3.0302H127.423L130.19 8.67337L132.868 3.0302ZM115.083 3.0302H123.339L124.327 5.44557H120.879V14.6898H118.266V5.44557H115.083V3.0302ZM64.272 11.989C64.272 7.04849 60.8685 3.35956 56.0377 3.35956C51.207 3.35956 47.8035 7.07045 47.8035 11.989C47.8035 16.9076 51.207 20.6185 56.0377 20.6185C60.8904 20.6185 64.272 16.9296 64.272 11.989ZM44.0048 11.989C44.0048 5.09424 49.3625 0.0219593 56.0377 0.0219593C62.7129 0.0219593 68.0707 5.09424 68.0707 11.989C68.0707 18.8838 62.7129 23.9561 56.0377 23.9561C49.3625 23.9561 44.0048 18.8618 44.0048 11.989ZM76.6562 15.0192C81.2674 15.0192 83.1338 12.8454 83.1338 9.17841C83.1338 5.55536 81.2454 3.38152 76.6562 3.38152H74.4385V15.0192H76.6562ZM87.0643 23.9561H82.6068L78.5226 18.1372C77.9957 18.2031 77.4028 18.247 76.788 18.247H74.4385V23.9561H70.6837V0.0219593H76.8099C83.3973 0.0219593 87.0203 3.64502 87.0203 9.17841C87.0203 12.8673 85.3735 15.7219 82.2335 17.1711L87.0643 23.9561ZM93.5418 8.21226V23.9341H90.0286V0L105.663 15.7219V0H109.176V23.9341L93.5418 8.21226ZM43.1924 20.2232L41.2601 17.215C39.5034 19.4767 37.2857 20.6185 34.2555 20.6185C29.5565 20.6185 26.1311 17.0174 26.1311 11.989C26.1311 7.04849 29.4906 3.35956 34.1237 3.35956C36.5611 3.35956 38.3177 4.04026 39.701 5.37969C40.0743 5.73101 40.4037 6.14821 40.7331 6.56541L42.7532 3.44739C42.1164 2.81062 41.4138 2.23971 40.6233 1.77859C38.9106 0.680697 36.8026 0.0658744 34.2116 0.0658744C27.5583 0.0658744 22.3104 5.13815 22.3104 12.0329C22.3104 18.9277 27.4485 24 34.1018 24C37.0222 24 39.3278 23.3413 41.2381 22.0238C41.9847 21.4748 42.6215 20.882 43.1924 20.2232ZM16.8429 20.5526L18.2262 23.9341H22.2006L21.1027 21.409L16.8429 20.5526ZM7.97187 16.6002L11.551 8.27813L15.1302 16.6002H7.97187ZM22.0469 19.9378L20.5098 16.6002H18.9728L11.6169 0.0219593L6.30307 11.989L0.989258 23.9561H4.78798L6.52265 19.9597L22.0469 19.9378ZM118.157 17.72H112.052L118.157 23.9561V17.72Z" fill="black"/>
</svg>
