<svg width="140" height="24" viewBox="0 0 140 24" fill="none" xmlns="http://www.w3.org/2000/svg">
<path d="M111.075 0.0219593V17.72H131.342L139.511 0.0219593H111.075ZM131.869 3.0302H134.592L129.191 14.7118L123.635 3.0302H126.424L129.191 8.67337L131.869 3.0302ZM114.084 3.0302H122.34L123.328 5.44557H119.88V14.6898H117.267V5.44557H114.084V3.0302ZM63.2729 11.989C63.2729 7.04849 59.8695 3.35956 55.0387 3.35956C50.208 3.35956 46.8045 7.07045 46.8045 11.989C46.8045 16.9076 50.208 20.6185 55.0387 20.6185C59.8914 20.6185 63.2729 16.9296 63.2729 11.989ZM43.0058 11.989C43.0058 5.09424 48.3635 0.0219593 55.0387 0.0219593C61.7139 0.0219593 67.0716 5.09424 67.0716 11.989C67.0716 18.8838 61.7139 23.9561 55.0387 23.9561C48.3635 23.9561 43.0058 18.8618 43.0058 11.989ZM75.6572 15.0192C80.2684 15.0192 82.1348 12.8454 82.1348 9.17841C82.1348 5.55536 80.2464 3.38152 75.6572 3.38152H73.4394V15.0192H75.6572ZM86.0652 23.9561H81.6078L77.5236 18.1372C76.9966 18.2031 76.4038 18.247 75.7889 18.247H73.4394V23.9561H69.6846V0.0219593H75.8109C82.3983 0.0219593 86.0213 3.64502 86.0213 9.17841C86.0213 12.8673 84.3745 15.7219 81.2345 17.1711L86.0652 23.9561ZM92.5428 8.21226V23.9341H89.0296V0L104.664 15.7219V0H108.177V23.9341L92.5428 8.21226ZM42.1933 20.2232L40.261 17.215C38.5044 19.4767 36.2867 20.6185 33.2565 20.6185C28.5575 20.6185 25.132 17.0174 25.132 11.989C25.132 7.04849 28.4916 3.35956 33.1247 3.35956C35.562 3.35956 37.3187 4.04026 38.702 5.37969C39.0753 5.73101 39.4047 6.14821 39.7341 6.56541L41.7542 3.44739C41.1174 2.81062 40.4147 2.23971 39.6243 1.77859C37.9115 0.680697 35.8036 0.0658744 33.2126 0.0658744C26.5593 0.0658744 21.3114 5.13815 21.3114 12.0329C21.3114 18.9277 26.4495 24 33.1028 24C36.0232 24 38.3287 23.3413 40.2391 22.0238C40.9856 21.4748 41.6224 20.882 42.1933 20.2232ZM15.8438 20.5526L17.2272 23.9341H21.2016L20.1037 21.409L15.8438 20.5526ZM6.97285 16.6002L10.552 8.27813L14.1311 16.6002H6.97285ZM21.0479 19.9378L19.5108 16.6002H17.9738L10.6179 0.0219593L5.30405 11.989L-0.00976562 23.9561H3.78895L5.52363 19.9597L21.0479 19.9378ZM117.158 17.72H111.053L117.158 23.9561V17.72Z" fill="white"/>
</svg>
