<svg width="131" height="40" viewBox="0 0 131 40" fill="none" xmlns="http://www.w3.org/2000/svg">
<path d="M64.6582 40V39.935C64.7232 39.8538 64.8369 39.8051 64.9343 39.8213C65.4054 39.8051 65.8602 39.8051 66.3313 39.8213C66.4288 39.8213 66.5425 39.8538 66.6074 39.935V40H64.6582Z" fill="#D1EFFA"/>
<path d="M66.6063 39.9349C65.9566 39.9187 65.3068 39.9187 64.6571 39.9349C63.7637 39.8862 62.8703 39.8537 61.9769 39.7888C59.6053 39.6101 57.25 39.2527 54.9434 38.7167C46.9678 36.8649 39.9668 33.1451 33.8592 27.736C33.2907 27.2325 32.7547 26.7127 32.2024 26.1929C32.0724 26.0792 31.9587 25.9167 31.8938 25.7543C31.7963 25.5269 31.845 25.2832 32.0075 25.1046C32.1699 24.9259 32.4298 24.8609 32.6572 24.9584C32.8034 25.0233 32.9496 25.0883 33.0795 25.1695C38.911 28.7756 45.2785 31.4071 51.9546 32.9664C54.1962 33.4862 56.4541 33.8923 58.7282 34.1847C61.9931 34.5908 65.2906 34.737 68.5718 34.6233C70.3423 34.5746 72.0966 34.4121 73.851 34.1847C77.9443 33.6649 81.989 32.739 85.9037 31.4396C87.9666 30.7573 89.9808 29.9776 91.9463 29.068C92.2387 28.9056 92.5961 28.8568 92.9209 28.938C93.457 29.068 93.7818 29.6203 93.6519 30.1563C93.6356 30.2213 93.6032 30.3025 93.5707 30.3675C93.4407 30.6111 93.262 30.8223 93.0346 30.9847C91.1666 32.4467 89.1524 33.7299 87.0245 34.802C83.0123 36.8324 78.724 38.2781 74.3058 39.1065C71.7555 39.5613 69.189 39.8375 66.6063 39.9349Z" fill="#00A8E1"/>
<path d="M42.5483 7.00927C42.9544 6.76561 43.3767 6.50571 43.8153 6.2783C44.9524 5.69353 46.2194 5.40115 47.5026 5.46612C48.4285 5.51485 49.2732 5.77475 49.9229 6.45698C50.5402 7.09048 50.7676 7.87018 50.8325 8.71484C50.8488 8.89352 50.8488 9.0722 50.8488 9.26712V17.6813C50.8488 18.4123 50.7513 18.5097 50.0204 18.5097H48.0386C47.9087 18.5097 47.7787 18.5097 47.6488 18.4935C47.4539 18.4772 47.2914 18.3148 47.259 18.1199C47.2265 17.9412 47.2265 17.7625 47.2265 17.5838V10.0631C47.2427 9.75443 47.2102 9.46205 47.129 9.16966C46.9991 8.66611 46.5442 8.30875 46.0244 8.27627C45.0661 8.21129 44.1077 8.40621 43.2305 8.8123C43.1006 8.84479 43.0194 8.97474 43.0356 9.10469V17.6488C43.0356 17.8113 43.0356 17.9574 43.0031 18.1199C43.0031 18.3473 42.8245 18.5097 42.597 18.5097C42.3534 18.526 42.1097 18.526 41.8498 18.526H40.128C39.527 18.526 39.3971 18.3798 39.3971 17.7788V10.0955C39.3971 9.81941 39.3808 9.52702 39.3158 9.25088C39.2021 8.6986 38.7311 8.30875 38.1788 8.27627C37.2042 8.21129 36.2133 8.40621 35.3362 8.82855C35.2062 8.86103 35.125 9.00723 35.1575 9.13718V17.795C35.1575 18.396 35.0275 18.526 34.4265 18.526H32.2499C31.6813 18.526 31.5352 18.3635 31.5352 17.8113V6.5382C31.5352 6.40825 31.5514 6.2783 31.5839 6.14835C31.6489 5.95343 31.8438 5.83973 32.0387 5.83973H34.0692C34.3615 5.83973 34.5402 6.01841 34.6377 6.29455C34.7189 6.52196 34.7676 6.73312 34.8488 6.97678C35.0113 6.97678 35.1087 6.86307 35.2225 6.7981C36.1158 6.24582 37.058 5.77475 38.1138 5.57983C38.926 5.41739 39.7382 5.41739 40.5504 5.57983C41.3138 5.74227 41.996 6.19709 42.4346 6.84683C42.4671 6.89556 42.4996 6.92805 42.5321 6.96053C42.5158 6.97678 42.5321 6.97678 42.5483 7.00927Z" fill="#00A8E1"/>
<path d="M76.2207 15.0987C76.3182 14.7738 76.4156 14.4652 76.5131 14.1403C77.2603 11.6225 78.0075 9.12101 78.7547 6.60326L78.8522 6.31087C78.9334 6.01849 79.2095 5.83981 79.5019 5.83981H81.9709C82.5882 5.83981 82.7181 6.01849 82.507 6.60326L81.5324 9.18599C80.444 12.0124 79.3557 14.855 78.2674 17.6814C78.2349 17.7788 78.1862 17.8763 78.1537 17.9738C78.04 18.3149 77.6989 18.5423 77.3415 18.5098C76.6268 18.4936 75.9121 18.4936 75.1974 18.5098C74.6938 18.5261 74.4014 18.2986 74.2227 17.8438C73.8167 16.7717 73.3943 15.6834 72.9882 14.6113C72.0136 12.0611 71.0228 9.51086 70.0481 6.94437C69.9507 6.74945 69.8857 6.52204 69.837 6.31087C69.7882 5.986 69.902 5.82356 70.2268 5.82356C71.1527 5.80732 72.0786 5.82356 72.9882 5.82356C73.3781 5.82356 73.5568 6.08346 73.6542 6.42458C73.8329 7.04183 74.0116 7.67533 74.2065 8.29259C74.8725 10.5504 75.5222 12.8246 76.1882 15.0824C76.172 15.0987 76.1882 15.0987 76.2207 15.0987Z" fill="#232F3E"/>
<path d="M18.5417 7.62646C18.6554 7.59397 18.7528 7.529 18.8178 7.43153C19.1102 7.13915 19.4188 6.86301 19.7437 6.60311C20.5883 5.95337 21.6442 5.6285 22.7 5.70971C23.1223 5.72596 23.2685 5.85591 23.301 6.262C23.3335 6.81428 23.3173 7.3828 23.3173 7.93509C23.3335 8.1625 23.3173 8.37366 23.2848 8.60107C23.2198 8.89346 23.1061 9.00716 22.8137 9.03965C22.5863 9.05589 22.3751 9.03965 22.1477 9.02341C21.0594 8.92594 20.0036 9.13711 18.9802 9.47823C18.7528 9.55944 18.7528 9.72188 18.7528 9.90056V17.6975C18.7528 17.8437 18.7528 17.9736 18.7366 18.1198C18.7203 18.331 18.5579 18.4934 18.3467 18.4934C18.233 18.5097 18.1031 18.5097 17.9894 18.5097H15.8777C15.764 18.5097 15.6341 18.5097 15.5203 18.4934C15.3092 18.4772 15.1467 18.2985 15.1305 18.0873C15.1143 17.9574 15.1143 17.8274 15.1143 17.6975V6.65184C15.1143 5.90464 15.1955 5.82342 15.9427 5.82342H17.5021C17.9244 5.82342 18.1193 5.96961 18.233 6.3757C18.3467 6.78179 18.4442 7.18788 18.5417 7.62646Z" fill="#00A8E1"/>
<path d="M94.5288 24.0976C95.6009 24.1301 96.6567 24.1951 97.6963 24.4712C97.9887 24.5524 98.2648 24.6499 98.541 24.7798C98.9146 24.926 99.1582 25.2834 99.207 25.6732C99.2719 26.128 99.2882 26.5991 99.2557 27.0702C99.0445 29.8478 98.1836 32.528 96.7542 34.9158C96.2344 35.7767 95.6009 36.5564 94.8699 37.2387C94.7237 37.3849 94.545 37.4986 94.3501 37.5635C94.0415 37.6448 93.8466 37.4823 93.8303 37.1737C93.8466 37.0112 93.879 36.8488 93.944 36.6864C94.5125 35.1595 95.0648 33.6488 95.5034 32.0732C95.7633 31.2123 95.942 30.3351 96.0557 29.4417C96.0882 29.1169 96.1044 28.792 96.0719 28.4671C96.0557 27.9148 95.6983 27.4438 95.1623 27.2813C94.6587 27.1189 94.1389 27.0214 93.6029 26.989C92.1085 26.924 90.6141 26.989 89.1359 27.1839L87.1704 27.4275C86.9593 27.4438 86.7644 27.4275 86.6507 27.2326C86.537 27.0377 86.5857 26.8428 86.6994 26.6478C86.8293 26.4692 86.9918 26.3067 87.1867 26.193C88.3887 25.3321 89.7369 24.8123 91.1664 24.4712C92.2709 24.2438 93.3917 24.1301 94.5288 24.0976Z" fill="#00A8E1"/>
<path d="M87.7226 12.1747V18.0224C87.6901 18.3473 87.5439 18.4935 87.219 18.5097C86.3419 18.526 85.4809 18.526 84.6038 18.5097C84.2789 18.5097 84.1327 18.3473 84.1002 18.0387C84.084 17.9412 84.084 17.8275 84.084 17.73V6.48947C84.1002 5.98591 84.2302 5.83972 84.7337 5.83972H87.0728C87.5764 5.83972 87.7226 5.98591 87.7226 6.48947V12.1747Z" fill="#232F3E"/>
<path d="M24.8766 12.1423V6.3758C24.8928 5.98596 25.039 5.83977 25.4289 5.82352C26.2735 5.80728 27.1182 5.80728 27.9629 5.82352C28.3365 5.82352 28.4502 5.93723 28.4827 6.31083C28.4989 6.45702 28.4989 6.58697 28.4989 6.73316V17.5514C28.4989 17.7301 28.4827 17.9088 28.4664 18.0874C28.4502 18.2986 28.2877 18.4448 28.0766 18.461C27.9791 18.4773 27.8979 18.4773 27.8004 18.4773H25.5426C25.4614 18.4773 25.3964 18.4773 25.3152 18.461C25.0878 18.4448 24.8928 18.2661 24.8766 18.0387C24.8604 17.9088 24.8604 17.7788 24.8604 17.6489C24.8766 15.8458 24.8766 13.994 24.8766 12.1423Z" fill="#00A8E1"/>
<path d="M26.7604 0.00830029C27.0203 -0.0079433 27.2802 0.0407875 27.5238 0.122005C28.401 0.41439 28.8558 1.17784 28.7746 2.1687C28.7096 3.01336 28.0761 3.6956 27.2314 3.82554C26.8741 3.89052 26.5005 3.89052 26.1431 3.82554C25.2172 3.64686 24.535 2.96463 24.6 1.7951C24.6974 0.6418 25.4609 0.00830029 26.7604 0.00830029Z" fill="#00A8E1"/>
<path d="M85.9199 0.00827884C86.2448 -0.0242083 86.5696 0.040766 86.8783 0.170715C87.5118 0.414369 87.9503 0.999138 87.9828 1.68137C88.1128 3.15954 87.1219 3.90674 85.8062 3.87425C85.6275 3.87425 85.4488 3.84177 85.2702 3.80928C84.263 3.56562 83.7432 2.78593 83.8407 1.66513C83.9219 0.771728 84.6204 0.10574 85.5788 0.0245224C85.6925 0.00827884 85.8062 -0.00796475 85.9199 0.00827884Z" fill="#232F3E"/>
<path d="M12.7098 10.8102C12.6448 9.96556 12.4174 9.13714 12.0763 8.37369C11.4103 6.97674 10.387 5.95339 8.82759 5.59603C7.0408 5.20619 5.43268 5.59603 3.97076 6.68435C3.8733 6.78182 3.75959 6.86303 3.62964 6.92801C3.59716 6.91177 3.56467 6.89552 3.56467 6.87928C3.51594 6.71684 3.48345 6.55441 3.43472 6.39197C3.30477 5.98588 3.14234 5.83969 2.70376 5.83969C2.21645 5.83969 1.7129 5.85593 1.22559 5.83969C0.851989 5.82344 0.510874 5.87218 0.250977 6.16456C0.250977 11.8498 0.250977 17.5513 0.26722 23.2203C0.478387 23.5614 0.803259 23.6264 1.17686 23.6102C1.76163 23.5939 2.3464 23.6102 2.93117 23.6102C3.95451 23.6102 3.95451 23.6102 3.95451 22.6031V17.9736C3.95451 17.8599 3.90578 17.73 4.01949 17.6325C4.83167 18.266 5.82253 18.6559 6.84587 18.7533C8.27531 18.8995 9.5748 18.5422 10.6631 17.5676C11.4591 16.8366 12.0438 15.8945 12.3525 14.8549C12.791 13.5229 12.8235 12.1747 12.7098 10.8102ZM8.82759 14.1727C8.71389 14.6762 8.45399 15.131 8.08039 15.4721C7.65805 15.8295 7.13826 16.0407 6.58598 16.0407C5.75755 16.0894 4.94537 15.9107 4.21441 15.5209C4.03573 15.4397 3.92203 15.261 3.93827 15.066V12.126C3.93827 11.1513 3.95451 10.1767 3.93827 9.20211C3.92203 8.9747 4.05198 8.77978 4.26314 8.69856C5.15654 8.27623 6.08243 8.0813 7.05704 8.27623C7.73927 8.37369 8.32404 8.81227 8.60018 9.44577C8.84383 9.96556 8.99003 10.5341 9.02251 11.1026C9.11998 12.1422 9.11998 13.1818 8.82759 14.1727Z" fill="#00A8E1"/>
<path d="M130.233 11.1676V11.2326C130.168 11.1676 130.136 11.0702 130.168 10.989V10.859C130.168 10.859 130.168 10.8428 130.184 10.8428H130.168V10.6803H130.201C130.201 10.6641 130.184 10.6641 130.184 10.6478C130.152 10.3392 130.087 10.0306 130.006 9.7382C129.405 7.59405 128.056 6.18085 125.864 5.62857C124.84 5.38492 123.801 5.35243 122.761 5.51487C120.568 5.83974 118.993 7.00928 118.229 9.08846C117.482 11.0702 117.498 13.2468 118.245 15.2285C118.895 17.0316 120.195 18.1686 122.063 18.6397C123.053 18.8833 124.093 18.9483 125.116 18.8021C128.528 18.396 129.941 15.8133 130.168 13.5717H130.152V13.3443C130.136 13.2468 130.119 13.1656 130.217 13.1006V13.1331C130.217 13.1169 130.233 13.0844 130.249 13.0681V11.2001C130.249 11.1839 130.233 11.1839 130.233 11.1676ZM126.335 14.2539C126.237 14.595 126.091 14.9037 125.88 15.196C125.522 15.6996 124.954 16.0245 124.337 16.0732C124.028 16.1057 123.719 16.1057 123.411 16.0407C122.729 15.9108 122.16 15.4559 121.884 14.8224C121.64 14.3189 121.494 13.7666 121.445 13.2143C121.364 12.256 121.348 11.2976 121.575 10.3555C121.657 9.98185 121.819 9.60825 122.014 9.28338C122.371 8.69861 122.988 8.32501 123.671 8.27628C123.979 8.24379 124.288 8.24379 124.597 8.30876C125.246 8.43871 125.782 8.86105 126.075 9.46206C126.351 10.0306 126.513 10.6641 126.546 11.2976C126.562 11.59 126.578 11.8824 126.562 12.1747C126.611 12.8895 126.53 13.5879 126.335 14.2539Z" fill="#232F3E"/>
<path d="M101.758 0.121948H99.4999C98.8827 0.121948 98.769 0.235653 98.769 0.85291V6.11583C98.769 6.22954 98.8177 6.34324 98.7365 6.45695C98.5903 6.4407 98.5091 6.34324 98.3954 6.27827C96.706 5.28741 94.9355 5.10873 93.1487 5.93715C91.8979 6.52192 91.1182 7.57776 90.6147 8.82851C90.1274 10.0305 90.0137 11.2975 90.0462 12.5808C90.0462 13.7828 90.3223 14.9686 90.8583 16.0407C91.4756 17.2264 92.369 18.1361 93.6685 18.5259C95.439 19.0782 97.0959 18.8021 98.6065 17.6813C98.7202 17.6163 98.7852 17.5026 98.9314 17.4701C99.0126 17.6488 99.0776 17.8437 99.1101 18.0386C99.175 18.2985 99.4025 18.4772 99.6786 18.4772H100.068C100.653 18.4772 101.222 18.4934 101.79 18.4772C102.245 18.4772 102.375 18.331 102.391 17.8599V0.739205C102.375 0.235653 102.245 0.121948 101.758 0.121948ZM98.7852 12.0772V15.0336C98.8177 15.2285 98.704 15.4072 98.5253 15.4884C97.7456 15.927 96.8522 16.1056 95.9751 15.9757C95.2279 15.8945 94.5781 15.4397 94.237 14.7737C93.9771 14.2539 93.8309 13.7016 93.7822 13.1331C93.6522 12.1097 93.7334 11.0701 93.9771 10.0793C94.0583 9.80313 94.1558 9.54323 94.302 9.28333C94.6431 8.64983 95.2928 8.24374 96.0076 8.19501C96.8685 8.11379 97.7294 8.27623 98.5091 8.63359C98.704 8.69856 98.8177 8.89349 98.8015 9.10465C98.769 10.1118 98.7852 11.0864 98.7852 12.0772Z" fill="#232F3E"/>
<path d="M56.7792 13.1981C57.9975 13.4255 59.2482 13.4418 60.4665 13.2468C61.1812 13.1494 61.8635 12.9382 62.497 12.5971C63.2279 12.1748 63.764 11.59 63.9914 10.7778C64.5599 8.73112 63.6827 6.66819 61.5548 5.90474C60.5152 5.56362 59.4107 5.44992 58.3224 5.59611C55.7559 5.88849 54.0828 7.30169 53.3193 9.75447C52.7833 11.4276 52.8483 13.1331 53.2868 14.8225C53.8554 16.9829 55.2848 18.2661 57.4452 18.7209C58.6797 18.9971 59.9305 18.9483 61.165 18.7534C61.8147 18.6397 62.4645 18.4773 63.0817 18.2336C63.4553 18.0874 63.6503 17.86 63.634 17.4377C63.6178 17.0478 63.634 16.6417 63.634 16.2357C63.634 15.7484 63.4391 15.6022 62.968 15.7159C62.497 15.8296 62.0421 15.927 61.5711 16.0245C60.564 16.2357 59.5244 16.2357 58.5173 16.057C57.1366 15.7808 56.2432 14.5951 56.3244 13.1331C56.4706 13.1494 56.633 13.1656 56.7792 13.1981ZM56.3731 10.7128C56.4219 10.323 56.5356 9.94939 56.6817 9.59203C57.1691 8.40625 58.1924 8.00016 59.232 8.06513C59.5244 8.08138 59.8168 8.14635 60.0929 8.26006C60.5152 8.43874 60.7914 8.82858 60.8401 9.2834C60.8888 9.55955 60.8726 9.85193 60.7914 10.1281C60.5965 10.7128 60.1254 10.9565 59.5569 11.0702C59.2157 11.1514 58.8584 11.1839 58.501 11.1514C57.8675 11.1514 57.2178 11.1027 56.5843 11.0052C56.3406 10.9727 56.3406 10.9727 56.3731 10.7128Z" fill="#00A8E1"/>
<path d="M111.568 13.3605C112.51 13.2956 113.453 13.1169 114.297 12.6621C115.158 12.2397 115.759 11.4438 115.938 10.5017C116.051 9.9169 116.051 9.29964 115.922 8.71487C115.58 7.25295 114.655 6.34331 113.258 5.87224C112.478 5.62859 111.649 5.53113 110.837 5.56362C108.108 5.62859 106.029 7.0093 105.185 9.73822C104.616 11.5413 104.697 13.3768 105.249 15.1798C105.818 17.0316 107.118 18.1524 108.969 18.6559C109.765 18.8509 110.594 18.9321 111.406 18.8996C112.592 18.8834 113.777 18.656 114.898 18.2336C115.369 18.0549 115.483 17.8925 115.483 17.3889V16.2194C115.467 15.7483 115.272 15.5859 114.801 15.6996C114.443 15.7971 114.102 15.8783 113.745 15.9595C112.657 16.2194 111.52 16.2681 110.415 16.0732C109.31 15.8621 108.563 15.2286 108.271 14.124C108.19 13.7991 108.125 13.4742 108.092 13.1331C108.173 13.1331 108.255 13.1331 108.32 13.1656C109.392 13.3605 110.48 13.4418 111.568 13.3605ZM108.173 10.7616C108.287 10.1281 108.433 9.51081 108.823 8.99101C109.424 8.19508 110.253 7.96767 111.195 8.06513C111.276 8.06513 111.341 8.09762 111.422 8.09762C112.559 8.2763 112.835 9.18594 112.624 10.0631C112.462 10.7128 111.926 10.9565 111.325 11.0702C111 11.1352 110.659 11.1677 110.317 11.1514C109.652 11.1352 109.002 11.0864 108.352 10.989C108.206 10.9727 108.141 10.9078 108.173 10.7616Z" fill="#232F3E"/>
</svg>
