<svg width="170" height="34" viewBox="0 0 170 34" fill="none" xmlns="http://www.w3.org/2000/svg">
<path d="M8.04901 1L0 33H8.04901L9.36641 26.4132H14.9383L16.0204 33H24L15.6111 1H8.04901ZM13.8938 19.6833H10.3897L12.0835 13.0201L13.8938 19.6833Z" fill="black"/>
<path d="M28.0782 1L28 33H36.6753L36.6492 22.0284H46.0155L51 17.7395V5.39568L45.8943 1H28.0782ZM42.5048 8.70617V14.2948L41.3052 15.285H36.6492V7.72379H41.3697L42.5048 8.70617Z" fill="black"/>
<path d="M28.0782 1L28 33H36.6753L36.6492 22.0284H46.0155L51 17.7395V5.39568L45.8943 1H28.0782ZM42.5048 8.70617V14.2948L41.3052 15.285H36.6492V7.72379H41.3697L42.5048 8.70617Z" fill="black"/>
<path d="M64.3587 19.8499L74.6305 19.8705V13.2279H64.3587V7.72891H77.9967V1H56V30.1559L56.03 33H77.9711L78 26.2917L64.3587 26.2731V19.8499Z" fill="black"/>
<path d="M82.0238 33H90.1145L90.1405 19.8441L100.6 19.8019V13.2279H90.1405V7.72891H103V1H82L82.0238 33Z" fill="black"/>
<path d="M115.307 1H107V33H129V26.3005L115.332 26.2819L115.307 1Z" fill="black"/>
<path d="M141 1H131V33H141V1Z" fill="black"/>
<path d="M169 1H160.008L155.582 9.04722L151.294 1H142.218L151.01 16.9966L142 33H151.212L155.616 24.9469L159.951 33H168.947L160.157 17.0005L169 1Z" fill="black"/>
</svg>
