<svg width="509" height="114" viewBox="0 0 509 114" fill="none" xmlns="http://www.w3.org/2000/svg">
<path d="M24.1541 0.198975L0.461914 113.259H24.1541L28.0341 89.989H44.4342L47.6242 113.259H71.1119L46.4167 0.198975H24.1541ZM41.3611 66.209H31.0477L36.0319 42.667L41.3611 66.209Z" fill="black"/>
<path d="M84.5418 0.128906L84.3018 113.259H110.822L110.742 74.4689H139.372L154.612 59.3089V15.6689L139.002 0.128906H84.5418ZM128.642 27.3689V47.1289L124.972 50.6289H110.742V23.8989H125.172L128.642 27.3689Z" fill="black"/>
<path d="M84.5418 0.128906L84.3018 113.259H110.822L110.742 74.4689H139.372L154.612 59.3089V15.6689L139.002 0.128906H84.5418ZM128.642 27.3689V47.1289L124.972 50.6289H110.742V23.8989H125.172L128.642 27.3689Z" fill="black"/>
<path d="M192.802 66.799L224.822 66.869V43.399H192.802V23.969H235.312V0.198975H166.752V103.209L166.842 113.259H235.232L235.322 89.559L192.802 89.489V66.799Z" fill="black"/>
<path d="M246.101 113.259H271.991L272.071 66.779L305.541 66.629V43.399H272.071V23.969H313.221V0.198975H246.021L246.101 113.259Z" fill="black"/>
<path d="M347.292 0.0489502H321.312V113.259H390.112V89.559L347.372 89.489L347.292 0.0489502Z" fill="black"/>
<path d="M422.872 0.198975H396.892V113.259H422.872V0.198975Z" fill="black"/>
<path d="M508.302 0.0489502H481.772L468.712 28.5189L456.062 0.0489502H429.282L455.222 56.639L428.642 113.259H455.822L468.812 84.769L481.602 113.259H508.142L482.212 56.659L508.302 0.0489502Z" fill="black"/>
</svg>
