<svg width="67" height="32" viewBox="0 0 67 32" fill="none" xmlns="http://www.w3.org/2000/svg">
<path d="M21.212 0C19.4136 0.238563 17.361 1.18901 16.0753 2.61793C14.7897 4.04439 14.0156 5.71321 14.5309 7.37823C16.5843 7.37823 18.3868 6.4246 19.6725 4.99568C20.7005 3.80532 21.4696 1.90358 21.212 0ZM38.5503 1.97531L33.9568 3.20501V9.35354H30.1304V12.7352H33.9568V23.2143C33.9568 26.1656 34.465 28.1322 35.7404 29.6078C37.0158 30.8375 38.8014 31.5773 40.8421 31.5773C42.6278 31.5773 44.1623 31.3333 44.9275 31.0873L44.6685 27.6432C44.1583 27.8891 43.393 27.8882 42.1176 27.8882C39.3116 27.8882 38.5503 26.1656 38.5503 23.2143V12.7352H43.1329V9.35354H38.5503V1.97531ZM9.13516 7.37823C6.56388 7.37823 3.99335 8.85292 2.19498 11.3123C-0.373755 15.0014 0.139171 21.8868 3.99355 27.5435C5.27919 29.757 7.07959 31.9723 9.64833 31.9723C11.962 32.2183 12.4732 30.7426 15.5572 30.7426C18.3836 30.4967 18.8983 31.9723 21.212 31.9723C23.5256 31.9723 25.5801 29.266 27.1208 27.2985C27.8938 25.8229 28.4071 25.086 29.4326 23.3644C23.7798 21.1509 22.7535 13.5287 28.4062 10.5774C26.6079 8.60986 24.2979 7.37823 21.9842 7.37823C18.9028 7.37823 17.6132 8.85292 15.5572 8.85292C13.5012 8.85292 11.7064 7.37823 9.13516 7.37823ZM45.4372 9.35354L53.8734 31.5773H58.1979L66.8931 9.35354H62.0604L58.457 20.7549C57.6943 23.2143 56.9269 25.1809 56.4192 27.1484H56.1652C55.655 24.935 54.8951 22.9684 54.1324 20.7549L50.2699 9.35354H45.4372Z" fill="white"/>
</svg>
