<svg width="112" height="60" viewBox="0 0 112 60" fill="none" xmlns="http://www.w3.org/2000/svg">
<path d="M51.1917 40.654C51.2571 40.654 51.2571 40.654 51.3224 40.6758C52.3246 40.8065 53.305 40.9808 54.0458 41.3294C54.7429 41.6344 55.1569 42.0266 55.5273 42.7237C56.0937 43.7695 56.1373 45.2292 55.6144 46.3403C55.2222 47.1682 54.3943 47.8654 53.6318 48.2358C52.8475 48.6279 52.0632 48.8022 51.1699 48.9112C49.6013 49.0855 47.9019 48.7587 46.5076 48.0833C45.6797 47.6693 44.6557 46.9721 44.1328 46.0789C43.7624 45.4253 43.7624 44.5538 44.22 43.922C44.9607 42.9198 46.5293 42.702 47.7058 42.7455C48.5991 42.7891 50.2331 43.0505 51.0828 43.3556C51.3224 43.4427 52.1939 43.7913 52.3464 43.9438C52.4553 44.0527 52.5207 44.2052 52.4771 44.3577C52.281 44.946 50.8213 45.2728 50.4074 45.3381C49.2745 45.5124 48.708 45.0767 47.4226 44.5756C47.0958 44.4449 46.6819 44.3142 46.3551 44.2924C45.7668 44.227 45.0696 44.4013 44.9607 45.0331C44.8953 45.3599 45.2875 45.6649 45.5707 45.7957C46.2461 46.1007 46.8126 46.1878 47.488 46.2096C49.4706 46.2314 51.7146 45.9046 53.3486 44.7499C53.5665 44.5974 53.7843 44.3577 53.7843 44.0745C53.7843 43.4863 52.7603 43.1159 52.7603 43.1159C51.671 42.6584 49.6231 42.4405 48.5991 42.3534C47.5098 42.2662 45.7668 42.1137 45.3529 42.0483C44.9171 41.983 44.4596 41.8958 44.0892 41.7433C43.7189 41.569 43.3485 41.1987 43.2396 40.7847C43.0435 40.044 43.2831 39.1289 43.6971 38.5189C44.7864 36.9503 47.3355 36.362 49.2527 36.1224C51.1046 35.8827 54.0893 35.9045 55.8976 36.8631C56.1809 37.0156 56.3116 37.1463 56.268 37.4514C56.1591 38.0178 55.7233 38.3664 55.2222 38.5407C54.6776 38.715 53.5665 38.7803 53.0871 38.8021C50.9085 38.9328 48.2723 38.8675 46.1808 39.4339C46.0283 39.4775 45.745 39.5647 45.6361 39.6518C45.3093 40.0004 46.2461 40.1093 46.4422 40.1529C46.5076 40.1747 46.5076 40.1747 46.5729 40.1747L51.1917 40.654ZM38.185 30.9153C38.185 30.9153 38.5336 30.3925 38.8386 29.9785C39.3833 29.2378 40.3637 28.2138 41.1045 27.582C41.3223 27.3859 41.6055 27.168 41.6055 27.168C41.6055 27.168 41.1916 27.2116 40.9519 27.2552C40.3855 27.3641 39.5794 27.9088 39.1654 28.2574C38.49 28.8456 37.7493 29.7824 38.0761 30.6103C38.1197 30.7628 38.185 30.9153 38.185 30.9153ZM41.9541 31.9175C43.0217 31.8522 44.0239 31.5254 44.9607 31.0243C45.8757 30.5232 47.2265 29.521 47.074 28.3445C47.0304 27.9741 46.7908 27.6691 46.464 27.5384C46.05 27.3641 45.854 27.3859 45.3311 27.5384C44.9607 27.6473 44.7864 27.7127 44.416 27.9306C43.3703 28.5406 41.867 29.8478 41.0609 30.8936C40.8648 31.1332 40.6905 31.4164 40.538 31.6125C40.4509 31.7214 40.3637 31.8304 40.3855 31.874C40.4291 31.9611 41.5402 31.9611 41.9541 31.9175ZM39.2308 33.9219C39.1219 34.0308 39.0129 34.3141 38.8822 34.5319C38.8168 34.6409 38.7079 34.7716 38.6208 34.8369C38.3375 35.033 38.0979 35.0548 37.8364 34.8152C37.4661 34.4884 37.2482 33.9655 37.2264 33.4644C37.2264 33.2465 37.2482 33.0069 37.2046 32.8108C37.1393 32.5058 36.8343 32.179 36.66 31.874C36.4639 31.5254 36.3114 30.9153 36.2896 30.5232C36.2242 29.2813 36.8778 28.1484 37.7057 27.2552C38.5554 26.3401 39.6665 25.5994 40.8866 25.0765C42.0195 24.5972 43.6971 24.2704 44.9607 24.7061C45.3747 24.8368 45.9411 25.1854 46.2243 25.5558C46.2897 25.6212 46.3333 25.7083 46.3986 25.7519C46.464 25.7955 46.5947 25.7955 46.7254 25.8172C47.1176 25.8826 47.7058 26.1876 47.9455 26.3837C48.4248 26.7976 48.6862 27.1898 48.7952 27.7563C49.0348 28.8892 48.3812 30.1528 47.6405 30.9153C46.3551 32.2225 45.0914 33.1376 43.4574 33.7912C42.7385 34.0744 41.6273 34.3359 40.7994 34.2705C40.538 34.2487 40.2766 34.1833 40.0369 34.1616C39.9062 34.1398 39.4487 34.0308 39.4051 34.0091C39.3179 33.9437 39.2526 33.9219 39.2308 33.9219ZM40.6905 36.4492C40.7341 36.4492 40.8212 36.471 40.8866 36.5145C41.453 36.7324 41.6927 37.2553 41.8452 37.8435C42.172 39.1943 42.3027 42.2009 42.3681 43.3773C42.4117 44.2488 42.4334 45.1203 42.477 45.9917C42.4988 46.7325 42.5642 47.7129 42.4117 48.3883C42.3463 48.6279 42.1938 48.933 41.9541 49.0637C41.6709 49.238 41.0609 49.2598 40.7123 49.1726C39.8626 48.9983 39.6012 48.4536 39.4705 47.6257C39.1872 45.6432 39.3179 41.7433 39.4922 40.1093C39.5576 39.5647 39.7537 37.8217 40.0369 37.1028C40.1241 36.8849 40.3419 36.3838 40.6905 36.4492ZM15.1347 39.7607C15.1347 39.7607 13.8929 39.8479 13.0214 39.935C11.932 40.044 9.86231 40.4143 8.68583 40.8283C8.33724 40.959 7.59649 41.264 7.55292 41.6344C7.48756 42.0048 7.72721 42.3098 7.98865 42.6148C8.14116 42.7891 8.99084 43.617 9.23049 43.8131C10.2327 44.6628 12.2806 45.9482 13.7839 46.58C14.3068 46.7979 15.1565 47.1029 15.1565 47.1029C15.1565 47.1029 15.0911 44.6628 15.1129 42.2662C15.1129 41.0026 15.1347 39.7607 15.1347 39.7607ZM38.0543 40.7194C38.1197 41.373 37.9672 42.6148 37.9236 42.7673C37.88 43.1377 37.5968 44.0092 37.5314 44.1181C37.2918 44.641 37.0739 45.0767 36.8343 45.5124C36.4203 46.2532 35.4399 47.4297 34.8735 47.9308C32.7166 49.7826 29.3832 50.8502 26.5291 51.1988C24.5901 51.4384 22.3679 51.3948 20.2981 51.0245C19.601 50.8938 18.5334 50.6541 18.5334 50.6541C18.5334 50.6541 18.5334 51.0681 18.5116 51.3731C18.4898 51.5038 18.4027 51.8742 18.3373 51.9831C18.1848 52.2881 17.9452 52.4406 17.5966 52.5278C17.1609 52.6149 16.7033 52.6367 16.3112 52.4624C15.6576 52.1792 15.4179 51.5691 15.309 50.872C15.2218 50.3055 15.1129 49.3251 15.1129 49.3251C15.1129 49.3251 14.6336 49.0855 14.2197 48.8894C12.9778 48.2793 11.7795 47.5168 10.7338 46.7543C10.4506 46.5364 9.20871 45.5124 8.92548 45.251C8.16295 44.532 7.46577 43.7913 6.94289 42.8762C6.52894 42.1573 6.42001 41.5037 6.72502 40.7411C7.16076 39.6736 8.68583 38.8675 9.73159 38.41C10.4941 38.0614 12.9124 37.2771 13.8929 37.1463C14.3722 37.081 15.0911 36.9503 15.1347 36.9285C15.1565 36.9067 15.1565 36.9067 15.1783 36.8849C15.2001 36.8631 15.2436 35.7956 15.2218 35.4034C15.2218 35.0112 15.5051 32.5276 15.5922 31.9829C15.6358 31.6997 15.8537 30.5885 16.0715 30.3053C16.224 30.1092 16.4637 30.131 16.6816 30.2617C17.8145 30.9807 18.163 33.4426 18.2502 34.6844C18.2938 35.447 18.3373 36.6017 18.3373 36.6017C18.3373 36.6017 19.6445 36.5581 20.4507 36.5799C21.235 36.6017 22.1064 36.7324 22.9126 36.8413C23.9583 37.0156 25.9845 37.4514 27.1392 38.0396C28.0978 38.5189 28.991 39.3468 29.2961 40.2183C29.5575 41.0026 29.5357 41.569 29.1218 42.288C28.6642 43.0941 27.7928 43.7041 26.8995 43.7477C26.6381 43.7695 25.6359 43.6388 25.3309 43.3991C25.2219 43.312 25.2219 43.1377 25.3091 43.0288C25.3309 42.9852 25.8102 42.7455 26.0716 42.593C26.2023 42.5277 26.3331 42.4405 26.4202 42.3316C26.6381 42.1355 26.8559 41.9176 26.8342 41.6562C26.8124 41.3294 26.442 41.1115 26.1152 40.9808C24.5248 40.349 21.3439 39.8261 19.8188 39.739C19.2088 39.6954 18.3591 39.6736 18.3591 39.6736L18.5334 48.1486C18.5334 48.1486 19.2306 48.2794 19.7971 48.3665C20.1239 48.4101 21.4746 48.5408 21.8232 48.5408C24.5683 48.6062 27.6185 48.3665 30.124 47.19C31.2351 46.6671 32.2373 46.0353 32.9998 45.1421C34.002 43.9874 34.5467 42.3969 34.3941 40.7411C34.2416 38.9328 32.978 36.7978 31.954 35.4905C29.2743 32.0482 24.6773 29.1942 20.6249 27.5384C16.4855 25.839 12.4114 24.8586 8.03223 24.7061C6.89932 24.6626 4.43742 24.7279 3.19557 25.0765C3.02128 25.1201 2.84699 25.1854 2.67269 25.229C2.54197 25.2508 2.34589 25.3379 2.28053 25.4033C2.25875 25.4251 2.21517 25.4687 2.21517 25.4687C2.21517 25.4687 2.30232 25.5122 2.36768 25.534C2.4984 25.5994 3.06485 25.6212 3.34808 25.6865C3.60952 25.7301 3.87096 25.8608 3.9799 26.0569C4.08883 26.2312 4.08883 26.3837 3.9799 26.5362C3.69667 26.8848 2.62912 26.8194 2.1716 26.7541C1.69229 26.6669 1.08226 26.5362 0.97333 26.1005C0.842609 25.5994 1.08226 25.1201 1.3437 24.6626C1.86658 23.7475 2.58555 23.29 3.67488 22.985C5.19995 22.571 7.13897 22.266 8.57689 22.2224C11.8449 22.0917 14.9386 22.68 18.1195 23.6386C19.9278 24.1832 22.3025 25.0983 24.0455 25.948C25.2873 26.558 27.2699 27.6473 28.3592 28.3881C28.7078 28.6277 30.7558 30.1092 31.0608 30.3707C31.7144 30.9153 32.5858 31.6779 33.2177 32.3097C34.4377 33.508 35.941 35.338 36.66 36.8195C36.8343 37.1681 36.965 37.5167 37.2046 37.9089C37.2918 38.0396 37.6186 38.8675 37.6622 39.1071C37.7275 39.3468 37.7929 39.6954 37.8147 39.7172C37.9236 39.739 38.0761 40.4361 38.0543 40.7194ZM79.2094 38.8457C77.6843 39.1943 73.6538 39.3904 73.6538 39.3904L73.1527 40.9808C73.1527 40.9808 75.1571 40.8065 76.6386 40.959C76.6386 40.959 77.1179 40.8937 77.1615 41.5037C77.1833 42.0483 77.1179 42.6584 77.1179 42.6584C77.1179 42.6584 77.0961 43.0288 76.5732 43.1159C76.0286 43.203 72.2377 43.3556 72.2377 43.3556L71.6276 45.4253C71.6276 45.4253 71.4098 45.9046 71.9109 45.7739C72.3902 45.6432 76.3554 44.9024 76.8782 45.0113C77.4229 45.1421 78.0547 45.8828 77.8586 46.5582C77.6408 47.3861 73.6756 49.9134 71.2791 49.7391C71.2791 49.7391 70.0154 49.8262 68.9479 48.1051C67.9457 46.4711 69.3182 43.3773 69.3182 43.3773C69.3182 43.3773 68.6864 41.9394 69.144 41.4383C69.144 41.4383 69.4054 41.1987 70.2115 41.1333L71.1919 39.1289C71.1919 39.1289 70.0808 39.1943 69.4272 38.3882C68.8172 37.6256 68.7736 37.2553 69.2311 37.0592C69.7322 36.8195 74.351 35.9699 77.5101 36.0788C77.5101 36.0788 78.6212 35.9699 79.558 37.8871C79.5362 37.8871 79.9937 38.6714 79.2094 38.8457ZM67.2921 46.58C66.8781 47.5386 65.8106 48.5626 64.4816 47.9308C63.1744 47.2989 61.0611 43.007 61.0611 43.007C61.0611 43.007 60.255 41.4165 60.1025 41.4383C60.1025 41.4383 59.9282 41.1333 59.8192 42.8762C59.7103 44.6192 59.841 48.0179 59.1439 48.5408C58.4903 49.0855 57.6841 48.8676 57.2702 48.2358C56.8998 47.6257 56.7473 46.1443 56.9434 43.5734C57.1831 41.0026 57.7931 38.2575 58.5556 37.4078C59.3181 36.5581 59.9282 37.1681 60.1678 37.4078C60.1678 37.4078 61.1918 38.3446 62.8694 41.0462L63.1744 41.5473C63.1744 41.5473 64.6995 44.1181 64.8738 44.1181C64.8738 44.1181 65.0045 44.227 65.1134 44.1399C65.2659 44.0963 65.2006 43.2684 65.2006 43.2684C65.2006 43.2684 64.8738 40.4579 63.4794 35.7302C63.4794 35.7302 63.2615 35.142 63.414 34.5755C63.5666 34.0091 64.1112 34.2705 64.1112 34.2705C64.1112 34.2705 66.2681 35.3598 67.3357 38.8893C68.4032 42.4187 67.6842 45.6214 67.2921 46.58ZM90.5821 44.4667C89.6017 46.1878 86.813 49.7826 83.1092 48.9329C81.8892 51.8959 80.8652 54.9025 80.277 59.3688C80.277 59.3688 80.1462 60.2403 79.4273 59.9352C78.7083 59.6738 77.5318 58.4973 77.2922 56.8415C77.0307 54.6629 78.0111 51.0027 79.9719 46.7979C79.4055 45.861 79.0133 44.532 79.3401 42.6148C79.3401 42.6148 79.8412 39.0854 83.3925 35.9045C83.3925 35.9045 83.8282 35.5341 84.0679 35.6431C84.3293 35.752 84.2204 36.9067 84.0025 37.4731C83.7846 38.0396 82.1942 40.7629 82.1942 40.7629C82.1942 40.7629 81.2138 42.6148 81.4752 44.0745C83.3271 41.2205 87.5755 35.447 90.1899 37.2553C91.0614 37.8871 91.4753 39.2597 91.4753 40.7411C91.4753 42.0483 91.1703 43.4209 90.5821 44.4667ZM89.8195 39.935C89.8195 39.935 89.667 38.8021 88.5559 40.044C87.5973 41.1115 85.8762 43.0941 84.4818 45.7739C85.9415 45.5996 87.3359 44.8153 87.7716 44.4231C88.4688 43.8131 90.081 42.1355 89.8195 39.935ZM110.974 39.6736H104.199C104.068 37.3642 103.785 35.1202 103.349 32.8108C103.306 32.5711 103.088 32.3968 102.848 32.3968H101.279C101.149 32.3968 101.018 32.4622 100.931 32.5711C100.844 32.6801 100.8 32.8108 100.844 32.9633C101.279 35.2073 101.563 37.4078 101.715 39.6954H95.2009C94.8959 39.6954 94.6562 39.935 94.6562 40.2401V41.6562C94.6562 41.9612 94.8959 42.2009 95.2009 42.2009H101.824C101.824 42.5494 101.824 42.8545 101.824 43.1595C101.824 45.1856 101.737 46.8632 101.541 48.7587C101.519 48.9112 101.563 49.0419 101.672 49.1508C101.759 49.2598 101.911 49.3251 102.042 49.3251H103.502C103.785 49.3251 104.024 49.1072 104.046 48.824C104.242 46.9286 104.329 45.2292 104.329 43.1595C104.329 42.8762 104.329 42.5494 104.329 42.2009H111.018C111.323 42.2009 111.563 41.9612 111.563 41.6562V40.2401C111.519 39.9133 111.279 39.6736 110.974 39.6736Z" fill="#01147B"/>
<path d="M102.412 29.0853C98.9696 20.5884 93.109 13.3335 85.5272 8.14823C77.7493 2.81049 68.6425 0 59.1653 0C43.5006 0 28.9907 7.77786 20.3196 20.8063C20.2324 20.937 20.2106 21.1331 20.2542 21.2856C20.3196 21.4599 20.4285 21.5688 20.6028 21.6342L21.8229 22.0482C21.8882 22.0699 21.9754 22.0917 22.0407 22.0917C22.2586 22.0917 22.4765 21.9828 22.6072 21.7867C26.5941 15.9479 31.9755 11.0676 38.1847 7.7125C44.59 4.24841 51.8667 2.39654 59.1871 2.39654C68.0543 2.39654 76.5946 5.01094 83.8932 9.95653C91.0174 14.7714 96.5731 21.5035 99.9064 29.4121C100.015 29.6517 100.233 29.8042 100.495 29.8042H101.954C102.129 29.8042 102.281 29.7171 102.368 29.5864C102.477 29.4121 102.477 29.2378 102.412 29.0853Z" fill="url(#paint0_radial_4516_59659)"/>
<defs>
<radialGradient id="paint0_radial_4516_59659" cx="0" cy="0" r="1" gradientUnits="userSpaceOnUse" gradientTransform="translate(101.001 29.7426) scale(78.442 78.442)">
<stop stop-color="#01147B"/>
<stop offset="0.0254902" stop-color="#011098"/>
<stop offset="0.0643085" stop-color="#010ABD"/>
<stop offset="0.1032" stop-color="#0006DA"/>
<stop offset="0.1416" stop-color="#0003EE"/>
<stop offset="0.1794" stop-color="#0001FB"/>
<stop offset="0.2159" stop-color="#0000FF"/>
<stop offset="1" stop-color="#00FFFF" stop-opacity="0"/>
</radialGradient>
</defs>
</svg>
