<svg width="191" height="26" viewBox="0 0 191 26" fill="none" xmlns="http://www.w3.org/2000/svg">
<g clip-path="url(#clip0_4597_1117)">
<path fill-rule="evenodd" clip-rule="evenodd" d="M36.579 7.75364H45.5447V5.04681H33.1035V21.1414H36.579V14.5572H43.6558V11.8505H36.579V7.75364ZM58.8023 21.1414V5.04681H55.3268V21.1414H58.8023ZM75.9136 5.04681C77.7941 5.04681 79.2716 5.48576 80.3461 6.36364C81.4206 7.24153 81.9579 8.42018 81.9579 9.89959C81.9579 11.4765 81.4206 12.6877 80.3461 13.5331C79.8124 13.9448 79.1813 14.2544 78.4529 14.4617L82.9401 21.1414H79.0365L75.1341 14.9718H72.01V21.1414H68.5849V5.04681H75.9136ZM75.5107 12.4113C76.4845 12.4113 77.2064 12.2243 77.6766 11.8505C78.1634 11.4603 78.4069 10.8669 78.4069 10.0703C78.4069 9.27369 78.1634 8.68843 77.6766 8.31451C77.2064 7.92434 76.4845 7.72925 75.5107 7.72925H72.01V12.4113H75.5107ZM92.7234 5.04681V21.1414H105.542V18.4346H96.1987V14.3378H103.276V11.7529H96.1987V7.75364H105.19V5.04681H92.7234ZM122.905 5.04681C124.415 5.04681 125.742 5.29881 126.884 5.80277C128.025 6.30675 128.999 7.05458 129.805 8.04627L127.866 10.2166C127.177 9.37119 126.422 8.75343 125.599 8.36328C124.793 7.95686 123.853 7.75364 122.778 7.75364C122.073 7.75364 121.485 7.84305 121.016 8.02188C120.563 8.20071 120.226 8.43644 120.008 8.72907C119.807 9.02166 119.706 9.34683 119.706 9.70451C119.706 10.1435 119.882 10.5174 120.235 10.8262C120.587 11.1189 121.192 11.3627 122.048 11.5578L125.146 12.2406C126.791 12.5983 127.966 13.1348 128.672 13.8501C129.394 14.5492 129.754 15.4595 129.754 16.5812C129.754 17.638 129.469 18.5484 128.898 19.3125C128.328 20.0603 127.53 20.6374 126.506 21.0439C125.482 21.4341 124.307 21.6291 122.98 21.6291C121.821 21.6291 120.755 21.4991 119.781 21.239C118.825 20.9626 117.968 20.5887 117.213 20.1172C116.457 19.6458 115.828 19.1012 115.324 18.4834L117.288 16.2155C117.675 16.7358 118.153 17.1991 118.724 17.6055C119.294 18.0119 119.941 18.337 120.663 18.5809C121.402 18.8085 122.174 18.9223 122.98 18.9223C123.668 18.9223 124.248 18.8491 124.717 18.7028C125.205 18.5403 125.565 18.3208 125.801 18.0444C126.053 17.7518 126.178 17.4022 126.178 16.9959C126.178 16.5732 126.027 16.2155 125.725 15.9228C125.44 15.614 124.903 15.3782 124.113 15.2157L120.738 14.4841C119.765 14.2565 118.926 13.9639 118.22 13.6062C117.532 13.2323 117.003 12.7608 116.634 12.1918C116.281 11.6066 116.104 10.9157 116.104 10.119C116.104 9.15989 116.373 8.29825 116.911 7.53416C117.448 6.77008 118.22 6.16856 119.228 5.72962C120.252 5.27442 121.477 5.04681 122.905 5.04681ZM143.063 21.1414V5.04681H139.588V21.1414H143.063ZM159.268 5.04681C161.87 5.04681 163.885 5.74588 165.312 7.14399C166.74 8.52586 167.452 10.5092 167.452 13.0941C167.452 15.6628 166.74 17.6461 165.312 19.0442C163.885 20.4423 161.87 21.1414 159.268 21.1414H152.845V5.04681H159.268ZM159.091 18.459C160.67 18.459 161.854 18.0038 162.643 17.0934C163.449 16.1667 163.852 14.8336 163.852 13.0941C163.852 11.3546 163.449 10.0297 162.643 9.11925C161.854 8.19258 160.67 7.72925 159.091 7.72925H156.322V18.459H159.091ZM189.703 5.04681H177.236V21.1414H190.056V18.4346H180.712V14.3378H187.788V11.7529H180.712V7.75364H189.703V5.04681Z" fill="#212121"/>
<path d="M20.7566 15.8576C20.8613 16.2923 21.9699 21.5258 15.5046 24.9011C15.0648 25.1307 14.5108 24.3619 14.7261 23.9191C15.8441 21.6191 15.044 19.0278 13.6424 18.258C12.008 17.3602 10.845 15.3005 10.6023 13.4546C10.5444 13.0145 9.90771 12.7638 9.7016 13.1582C8.95833 14.5803 9.10582 15.9247 9.37426 16.9119C9.44571 17.1748 9.26936 17.4249 9.00308 17.3541C8.54446 17.2323 7.94237 16.9268 7.5477 16.3331C7.29446 15.9521 6.48571 15.7889 6.30034 16.2062C4.73558 19.7289 5.43955 22.5535 6.87537 24.8597C7.08651 25.1988 6.78935 25.6372 6.40227 25.5257C-3.56745 22.6545 1.41499 12.1105 3.99761 8.14862C4.16725 7.8884 4.50936 8.21289 4.49071 8.5218C4.46998 8.86537 5.2257 8.58406 5.35838 8.26575C6.20667 6.23044 8.38612 4.23523 7.6935 1.57891C7.57947 1.14159 8.09915 0.644089 8.48812 0.881677C12.3263 3.22605 14.5483 5.51657 14.6722 5.64554L14.6728 5.64622C14.6768 5.65029 14.6776 5.65124 14.6817 5.6559C14.7894 5.78172 17.0386 8.44767 17.0821 11.7004C17.0885 12.1794 17.6128 12.3748 17.6814 11.9005C17.6937 11.8154 17.7039 11.728 17.7118 11.6382C17.7472 11.2393 18.2425 11.019 18.506 11.3232C20.3626 13.467 20.7056 15.5157 20.7451 15.7961C20.748 15.8179 20.7514 15.8362 20.7566 15.8576Z" fill="#212121"/>
</g>
<defs>
<clipPath id="clip0_4597_1117">
<rect width="189.61" height="26" fill="white" transform="translate(0.445312)"/>
</clipPath>
</defs>
</svg>
