<svg width="102" height="34" viewBox="0 0 102 34" fill="none" xmlns="http://www.w3.org/2000/svg">
<path fill-rule="evenodd" clip-rule="evenodd" d="M88.5376 2.12029L86.5521 10.1098L84.0508 10.1356L85.959 2.14616L83.0967 2.19784L83.6898 0.00012207L94.5458 0.0259264L95.1647 6.90362L98.8264 0.0259264H101.508L95.6031 10.1098L93.3339 10.1356L91.9157 0.310342L92.2029 2.09441L88.5376 2.12029Z" fill="#A6AAAB"/>
<path fill-rule="evenodd" clip-rule="evenodd" d="M0.146936 14.2996L1.3847 8.24937L4.84007 8.32693C5.88862 1.74228 10.2379 -0.783044 17.6559 0.207984L16.5213 6.23249L13.7364 6.18064C12.3581 6.23347 11.621 6.98901 11.4156 8.32678L15.0257 8.30296L13.8911 14.2756L10.2036 14.3275L6.4646 33.4092L-0.0078125 33.4329L3.67964 14.2736L0.146936 14.2996ZM17.1455 8.04183H23.9531L21.3487 21.4868C20.8329 24.3311 20.2914 27.4855 23.6695 28.0802C24.6069 28.2154 25.5706 28.0814 26.4827 27.6532C29.2322 26.3614 29.9017 23.628 30.4576 20.8846L33.0557 8.06783L39.5796 8.04401L34.5771 33.2537L28.5947 33.3312L28.8526 32.0902C24.8736 34.7206 20.0352 34.3686 17.1482 32.457C14.3443 30.4748 13.7051 27.0032 14.4081 22.6079L17.1455 8.04183ZM36.79 33.3322L43.1851 33.3086L43.5719 31.266C47.4999 35.5237 56.4822 34.1188 59.611 31.3178C57.8873 29.5467 57.1566 27.4438 56.8777 25.1899C54.6514 28.1031 50.2848 28.4565 48.0329 26.7155C45.9184 25.2082 45.3703 22.2046 45.9204 19.6015C46.4174 17.2504 47.9571 15.1687 50.2062 14.2637C52.8679 13.1929 56.059 13.8778 57.6254 15.9593C60.2624 20.2605 58.1424 23.8391 59.9867 27.6916C61.0843 29.9846 63.2503 31.9317 65.5537 32.9267C68.3261 34.1244 71.7129 34.3546 74.8475 33.4407C78.529 32.3676 81.5551 29.7112 83.2244 26.2657C85.2101 22.1679 85.3497 17.1092 83.2659 13.3063C79.8163 7.0114 70.4358 5.47382 64.6396 9.93483C66.0986 11.7469 66.756 13.8198 67.2182 16.011C69.6249 12.8222 74.275 13.2014 76.4497 15.1319C78.3155 16.7798 78.8356 20.6315 77.4361 23.663C76.3509 26.0136 74.3715 27.2856 71.8695 27.6737C67.4644 28.3571 65.111 24.8019 64.8974 21.1047C64.8476 17.4147 64.5513 14.7572 63.1925 12.6089C62.2582 11.1312 60.7462 9.78445 59.1982 8.98688C55.8468 7.25986 51.1339 7.13424 47.8784 9.15927L49.6061 0.264771L43.1853 0.240953L36.79 33.3322Z" fill="#FF7F00"/>
</svg>
