<svg width="89" height="24" viewBox="0 0 89 24" fill="none" xmlns="http://www.w3.org/2000/svg">
<path d="M61.3184 23.398H68.8784C70.6613 20.5152 72.6758 17.8871 74.9913 15.4211C77.2721 17.8871 79.1708 20.5036 80.9537 23.398H88.5832C85.9667 19.4153 83.1187 15.6179 79.7033 11.8553C83.0839 8.24311 85.9667 4.52676 88.5832 0.613586H81.1042C79.2402 3.49637 77.2373 5.92763 74.9913 8.32415C72.7105 5.92763 70.6961 3.50794 68.8784 0.613586H61.3184C63.9001 4.64253 66.8292 8.24311 70.2446 11.8553C66.8292 15.6179 63.9001 19.5311 61.3184 23.398Z" fill="white"/>
<path d="M46.4762 24C49.5558 24 52.207 22.8654 54.2562 20.3878V23.3864H60.2186V0.613606H54.2562V3.61216C52.207 1.14617 49.5442 0 46.4762 0C40.2475 0 35.084 5.34877 35.084 11.9942C35.084 18.6512 40.2475 24 46.4762 24ZM40.7106 12.0058C40.7106 8.28944 43.7092 5.29088 47.4255 5.29088C51.1419 5.29088 54.1404 8.28944 54.1404 12.0058C54.1404 15.7221 51.1419 18.7207 47.4255 18.7207C43.7092 18.7323 40.7106 15.7337 40.7106 12.0058ZM42.262 12.0058C42.262 14.8886 44.5775 17.2041 47.4255 17.2041C50.2736 17.2041 52.5891 14.8886 52.5891 12.0058C52.5891 9.12301 50.2736 6.80752 47.4255 6.80752C44.5775 6.80752 42.262 9.12301 42.262 12.0058Z" fill="white"/>
<path d="M0.917969 23.3981H7.18135V9.23888C9.91363 7.0739 11.164 6.39084 12.1944 6.39084C13.41 6.39084 14.2089 7.15495 14.2089 9.05365V23.4097H20.4722V9.20415C23.2045 7.0739 24.4201 6.39084 25.4853 6.39084C26.7009 6.39084 27.4997 7.15495 27.4997 9.05365V23.4097H33.7631V6.85394C33.7631 1.72514 30.834 0.0232544 28.0323 0.0232544C25.6358 0.0232544 23.2161 1.00734 20.0207 3.43859C18.9903 0.891561 16.7559 0.0232544 14.7414 0.0232544C12.3449 0.0232544 9.92521 1.08838 6.81088 3.47333V0.625282H0.929546L0.917969 23.3981Z" fill="white"/>
</svg>
