<svg width="98" height="32" viewBox="0 0 98 32" fill="none" xmlns="http://www.w3.org/2000/svg">
<path d="M97.255 9.99467H89.5207V22.8845C89.5207 23.4699 89.3085 23.9739 88.9353 24.3737C88.5639 24.7451 88.0845 24.9062 87.501 24.9592H83.0086C82.3701 24.9062 81.8926 24.747 81.5193 24.3737C81.148 23.9758 80.9338 23.4699 80.9338 22.8845V9.99467H73.1996V23.5495C73.2526 25.3571 73.5709 26.924 74.3156 28.1746C75.0867 29.4232 76.0701 30.38 77.3718 30.992C78.7265 31.6305 80.2423 31.9754 81.9968 31.9754H89.4923V31.8958C91.1142 31.8958 92.4955 31.5244 93.6645 30.8594C94.7805 30.1413 95.6843 29.1579 96.2697 27.8828C96.9083 26.6341 97.2001 25.1449 97.2001 23.5249L97.255 9.99467ZM19.9654 10.7923C18.6107 10.2069 17.148 9.94162 15.5261 9.99467H10.5316L8.59138 10.2069C8.14043 10.3395 7.92633 10.4191 7.92633 10.4191V0H0.245117V31.9735H7.92633V19.0306C7.97938 18.4982 8.13854 17.9411 8.56485 17.5963C8.96274 17.2249 9.41558 17.0108 10.0541 17.0108H14.5465C15.0789 17.0108 15.5829 17.223 15.9808 17.5963C16.3787 17.9677 16.5663 18.5001 16.6193 19.0306V31.9735H24.3005V18.0472C24.3005 16.107 23.9026 14.5382 23.1315 13.3426C22.3054 12.1736 21.269 11.3229 19.9654 10.7923ZM46.0918 22.8845C46.0387 23.4699 45.8796 23.9739 45.5063 24.3737C45.1084 24.7451 44.6025 24.9062 44.017 24.9592H39.5246C38.9392 24.9062 38.4352 24.747 38.0903 24.3737C37.6925 23.9758 37.5049 23.4699 37.4518 22.8845V9.99467H29.7706V23.5495C29.7706 25.3571 30.142 26.924 30.8601 28.1746C31.5782 29.4232 32.6146 30.38 33.9163 30.992C35.271 31.6305 36.7337 31.9754 38.5413 31.9754H46.0899V31.8958C47.7118 31.8958 49.093 31.5244 50.209 30.8594C51.325 30.1413 52.2288 29.1579 52.8673 27.8828C53.4528 26.6341 53.7711 25.1449 53.7976 23.5249V9.97004H46.0899V22.8845H46.0918ZM59.6731 32H67.3544V0.00189368H59.6731V32Z" fill="white"/>
</svg>
