<svg width="102" height="102" viewBox="0 0 102 102" fill="none" xmlns="http://www.w3.org/2000/svg">
<g clip-path="url(#clip0_7_2)">
<mask id="mask0_7_2" style="mask-type:luminance" maskUnits="userSpaceOnUse" x="0" y="0" width="102" height="102">
<path d="M102 0H0V102H102V0Z" fill="white"/>
</mask>
<g mask="url(#mask0_7_2)">
<path d="M42.16 40.2535C42.0861 40.6527 42.3078 41.0814 42.5887 41.4953C43.0026 42.1161 43.387 42.7666 43.7565 43.417C43.8748 43.6092 43.9339 43.8457 43.993 44.0674C44.2 44.9396 44.333 45.8414 44.6287 46.6987C45.2052 48.3692 45.087 50.084 44.9835 51.784C44.88 53.5135 44.5252 55.2135 43.5791 56.7214C42.8252 57.9335 41.8496 58.8944 40.4157 59.3231C40.0757 59.4266 39.7948 59.7222 39.4696 59.8701C38.9522 60.1066 38.42 60.3727 37.8583 60.4909C37.0009 60.6831 36.1139 60.7422 35.3009 60.2987C35.0496 60.1657 34.9017 59.8405 34.6357 59.7074C34.0739 59.4118 33.4826 59.0422 32.8765 58.9387C32.3444 58.8501 32.0339 58.8353 31.9748 58.2144C31.9157 57.6822 31.7383 57.1944 32.0044 56.6474C32.1226 56.4109 31.9748 56.0414 31.96 55.7161C31.8861 54.3857 31.8417 53.0553 31.753 51.7396C31.6939 50.9414 31.5757 50.1283 31.4722 49.3301C31.3096 48.1179 31.0878 46.9205 31.0139 45.6935C30.94 44.6292 31.0139 43.5501 31.073 42.4857C31.073 42.2344 31.2652 41.9388 31.4426 41.7318C32.0191 41.0961 32.6104 40.4605 33.2609 39.884C34.1922 39.0414 35.3304 38.5683 36.5426 38.2579C38.3461 37.7848 39.913 38.4944 41.4357 39.2927C41.7609 39.4553 41.9383 39.884 42.1896 40.2092L42.16 40.2535ZM41.9383 46.9648C41.9087 46.7579 41.9087 46.4622 41.82 46.1961C41.5096 45.3387 41.1548 44.4961 40.8296 43.6387C40.7113 43.3135 40.6817 42.9144 40.4748 42.6631C39.1296 40.9483 37.1487 40.8596 35.6557 42.4266C34.4139 43.7274 33.3939 44.9987 33.9409 47.1127C34.4435 49.0048 34.3991 51.0301 34.9165 52.9518C35.0939 53.6022 34.9609 54.3561 34.8722 55.0509C34.7983 55.6718 34.9017 55.8935 35.5374 55.7753C36.1435 55.657 36.7644 55.4796 37.3261 55.2283C39.233 54.4153 40.7704 53.1292 41.3913 51.1483C41.7904 49.8622 41.7609 48.4283 41.9235 46.9796L41.9383 46.9648Z" fill="#E2196B"/>
<path d="M86.6113 47.5715C86.567 48.1776 86.5522 48.7985 86.4931 49.4046C86.2713 51.4889 86.0496 53.5881 85.7835 55.6724C85.68 56.5002 85.3548 57.2394 84.7044 57.8011C84.2165 58.2298 83.9061 58.1411 83.6991 57.535C83.5513 57.1211 83.3296 56.722 83.2704 56.2933C83.1374 55.4063 83.0044 54.4898 83.0487 53.6028C83.1078 52.1541 83.2852 50.7055 83.4478 49.2568C83.6252 47.5863 83.8618 45.9159 84.0096 44.2307C84.0539 43.6837 83.9652 43.1072 83.8617 42.5602C83.7287 41.895 83.9652 41.1559 84.5417 40.8307C85.0887 40.5202 85.6061 40.0472 86.3304 40.4168C86.3748 40.4463 86.4487 40.4168 86.5078 40.402C86.8183 40.3281 87.247 40.0915 87.4244 40.2246C87.7348 40.4611 87.9122 40.875 88.1044 41.2446C89.287 43.5063 90.4696 45.7828 91.6374 48.0594C91.7113 48.1924 91.7704 48.3107 91.9035 48.562C92.4504 47.5568 92.5687 46.7141 92.5539 45.842C92.5539 44.3046 92.5096 42.7524 92.5391 41.215C92.5391 40.9785 92.7757 40.742 92.8791 40.4907C92.9531 40.3133 92.9974 40.1063 93.0122 39.9141C93.0861 39.0568 93.4852 38.835 94.2391 39.1307C94.5939 39.2637 95.0078 39.2194 95.5696 39.2637C95.9096 41.5402 95.9539 44.0237 95.5696 46.522C95.3035 48.3698 95.1852 50.2472 95.0078 52.1246C94.8748 53.4255 95.1852 54.6524 95.6731 55.8498C95.8357 56.2489 95.9835 56.6776 96.0722 57.0915C96.3087 58.1263 95.9835 58.6141 94.9635 58.7768C93.3965 59.0133 91.9922 58.8063 91.1496 57.2246C90.6765 56.3228 90.0852 55.4802 89.6713 54.5637C89.4348 54.0463 89.4052 53.4402 89.3313 52.8637C89.1096 51.3855 88.2965 50.1437 87.6313 48.8576C87.3948 48.3994 87.0696 48.0002 86.7739 47.5715C86.7296 47.5715 86.6852 47.5715 86.6409 47.5715H86.6113Z" fill="#E2196B"/>
<path d="M18.3158 47.4676C18.2567 47.7337 18.2123 47.8963 18.1828 48.0737C17.961 49.9511 17.7393 51.8285 17.5175 53.7059C17.4141 54.5485 17.4288 55.4206 17.2219 56.2337C17.0888 56.7954 16.7045 57.3128 16.3349 57.7711C15.9062 58.3033 15.581 58.1406 15.3002 57.5198C14.3837 55.5093 14.6054 53.425 14.8271 51.3259C14.9602 50.0398 15.0193 48.7537 15.1523 47.4676C15.2262 46.7728 15.4775 46.078 15.5071 45.3833C15.5515 44.4224 15.5071 43.4467 15.4184 42.4711C15.3593 41.8798 15.6254 41.1259 16.1428 40.845C16.7193 40.5346 17.2515 40.0467 17.9758 40.4459C18.0054 40.4606 18.0497 40.4459 18.0941 40.4163C19.0697 40.1946 19.3506 40.2389 19.6462 41.1406C20.341 43.2989 21.7454 45.0728 22.721 47.0685C22.928 47.512 23.1941 47.9259 23.5045 48.5024C23.6671 48.2067 23.8297 48.0441 23.8445 47.8667C23.948 47.0537 24.0662 46.2259 24.0958 45.4128C24.1402 43.9937 24.0367 42.5746 24.1549 41.1554C24.2141 40.5493 24.628 39.958 24.7758 39.3076C24.8349 39.0267 25.2488 38.7015 25.7367 39.0711C26.0619 39.3224 26.5349 39.4406 26.9341 39.1302C27.6288 39.6033 27.3184 40.3276 27.3775 40.978C27.5845 43.2989 27.2741 45.5902 27.008 47.8963C26.7862 49.818 26.6532 51.7546 26.7271 53.6911C26.7567 54.7111 27.2888 55.7163 27.5845 56.7363C27.6584 57.0172 27.7175 57.298 27.7471 57.5937C27.8062 58.0667 27.5993 58.4363 27.141 58.5693C25.5297 59.0276 23.948 59.0424 22.9132 57.4606C21.9523 55.9972 21.0802 54.578 20.888 52.7598C20.7254 51.2076 19.8088 49.8919 19.0402 48.5615C18.8332 48.2067 18.5967 47.8667 18.3158 47.438V47.4676Z" fill="#E2196B"/>
<path d="M58.3764 39.0409C59.1007 38.8044 59.8694 38.967 60.579 39.2478C61.1555 39.4696 61.3477 40.0757 61.3625 40.6522C61.392 41.7757 61.4068 42.9141 61.3181 44.0376C61.2738 44.7176 61.0372 45.3976 60.8746 46.1071C61.1999 46.181 61.4955 46.2697 61.8799 46.3584C62.8851 45.1463 63.8459 43.8305 64.5703 42.3374C65.1025 41.2139 65.8416 40.1939 66.9355 39.4252C67.379 39.78 67.8372 40.0906 68.2512 40.4602C68.8868 41.0515 68.739 41.7757 67.8816 42.3818C67.7781 42.4557 67.6599 42.5445 67.6155 42.6628C66.9355 44.4219 66.2703 46.1957 65.5755 47.9548C65.3686 48.5018 65.0729 49.0193 64.8659 49.5515C64.5259 50.4089 64.6294 50.7635 65.3685 51.34C65.7972 51.6652 66.2555 51.9757 66.7285 52.2418C68.1329 53.04 69.1972 54.1931 70.2172 55.4052C70.3946 55.6122 70.6607 55.7454 70.7938 55.9671C70.9268 56.2036 71.0599 56.5289 71.0007 56.7654C70.912 57.1497 70.5572 57.0758 70.232 57.0019C69.6112 56.8541 68.9607 56.7209 68.3251 56.6765C67.4529 56.6174 66.6842 56.2922 66.0338 55.7452C64.9251 54.8287 63.8607 53.8678 62.7816 52.8922C62.5894 52.7148 62.5007 52.4339 62.3381 52.2418C62.2494 52.1383 62.0572 52.0793 61.9094 52.0941C61.8503 52.0941 61.7912 52.3158 61.7468 52.4341C61.7468 52.4489 61.7468 52.4783 61.7468 52.4931C62.1016 54.1339 61.7912 55.7748 61.7468 57.4157C61.7172 58.2878 61.392 59.1452 61.1999 60.0026C61.1703 60.1061 61.1259 60.2097 61.052 60.2689C60.4312 60.8158 59.7807 60.3428 59.1451 60.2689C58.9233 60.2541 58.5833 59.8844 58.539 59.6331C58.3912 58.6722 58.2877 57.6819 58.2877 56.7063C58.2877 53.5576 58.332 50.4087 58.3912 47.2748C58.4355 45.56 58.5981 43.8602 58.6277 42.1602C58.6277 41.1402 58.4799 40.1348 58.3912 39.0261L58.3764 39.0409Z" fill="#E2196B"/>
<path d="M74.5486 43.3134C74.6225 42.8404 74.7112 42.1604 74.859 41.4952C74.9477 41.0665 75.2729 40.8743 75.7164 40.9926C76.2633 41.1404 76.8103 41.2587 77.3277 41.436C77.6972 41.5691 77.8155 41.8352 77.6233 42.2343C77.4164 42.6926 77.4164 43.0917 77.7859 43.5795C78.1555 44.0674 78.3181 44.6882 78.3033 45.4126C78.2885 46.4769 78.5694 47.556 78.8503 48.5908C79.1607 49.6847 79.6486 50.7343 80.0033 51.8282C80.1512 52.2865 80.1955 52.8039 80.1659 53.2917C80.0329 54.9474 79.8407 56.603 79.6781 58.2587C79.6633 58.436 79.5746 58.6134 79.5451 58.8056C79.4416 59.3674 79.1459 59.4708 78.599 59.3673C78.1259 59.2787 77.6086 59.3673 77.1207 59.3673C76.7216 59.3673 76.4555 59.2639 76.3077 58.8056C75.1251 54.9326 75.0512 50.9265 74.7999 46.9352C74.7259 45.7969 74.6225 44.6439 74.5338 43.2987L74.5486 43.3134Z" fill="#E2196B"/>
<path d="M7.11045 40.8601C7.79045 41.0818 8.39654 41.2297 8.97306 41.4514C9.2835 41.5697 9.46089 41.821 9.26871 42.2053C9.03219 42.6932 9.03219 43.0923 9.43132 43.5949C9.83045 44.0827 9.91915 44.7332 9.93393 45.4427C9.9635 46.5662 10.2444 47.7045 10.5548 48.7984C10.88 49.9662 11.3531 51.0749 11.767 52.2131C11.8261 52.361 11.8852 52.5384 11.8705 52.701C11.6635 54.7114 11.4418 56.7071 11.2052 58.7175C11.1313 59.3088 10.8209 59.501 10.2 59.3532C9.74176 59.2497 9.25393 59.3236 8.78089 59.3532C8.32263 59.3827 8.04176 59.2201 7.9235 58.7914C7.42089 56.8401 6.97741 54.874 6.85915 52.8488C6.74089 50.7201 6.51915 48.6062 6.40089 46.4923C6.32697 45.1471 6.31219 43.7871 6.29741 42.4271C6.29741 42.0871 6.38611 41.7175 6.53393 41.4071C6.63741 41.1853 6.91828 41.0375 7.12524 40.8601H7.11045Z" fill="#E2196B"/>
<path d="M52.8036 59.2938C52.1828 59.3382 51.5767 59.3973 50.9558 59.3973C50.601 59.3973 50.3349 59.2347 50.2167 58.8208C49.6549 56.8399 49.2706 54.8147 49.108 52.7599C48.9601 50.9565 48.8123 49.1382 48.7236 47.3347C48.6349 45.6938 48.6054 44.0382 48.561 42.3973C48.561 42.1756 48.6349 41.9538 48.6793 41.7321C48.7975 41.0817 49.1819 40.8599 49.8175 41.0373C50.2167 41.1408 50.6306 41.1999 51.0297 41.333C51.6062 41.5252 51.6654 41.7765 51.488 42.3678C51.3697 42.7521 51.2958 43.1069 51.6506 43.5356C52.0202 43.9791 52.3306 44.5408 52.2123 45.2947C52.1088 45.9747 52.2862 46.7434 52.4784 47.4382C52.8332 48.6947 53.2471 49.9365 53.7054 51.1634C54.0158 51.9912 54.208 52.8043 54.0749 53.7208C53.8532 55.2286 53.7497 56.7365 53.5871 58.2591C53.5575 58.5252 53.5132 58.806 53.3801 59.0425C53.2767 59.2347 53.0549 59.3678 52.8923 59.5304C52.8628 59.4565 52.8184 59.3825 52.7888 59.3234L52.8036 59.2938Z" fill="#E2196B"/>
</g>
</g>
<defs>
<clipPath id="clip0_7_2">
<rect width="102" height="102" fill="white"/>
</clipPath>
</defs>
</svg>
