<svg width="367" height="114" viewBox="0 0 367 114" fill="none" xmlns="http://www.w3.org/2000/svg">
<g clip-path="url(#clip0_21995_1500)">
<path d="M120.255 113.974V114.001C120.234 114.001 120.234 113.993 120.255 113.974Z" fill="black"/>
<path d="M120.271 0C120.265 0.295645 120.255 0.591289 120.255 0.884294V112.16C115.842 112.16 109.494 112.157 106.384 112.168C106.295 111.946 106.203 111.714 106.103 111.469C106.103 111.469 88.5101 63.7088 79.698 39.8355C79.5956 39.553 79.3802 39.3128 79.2147 39.0515C79.1359 39.0911 79.0571 39.128 78.9783 39.1676C79.0729 40.4347 79.1517 41.7044 79.2699 42.9688C80.2863 54.0264 80.704 65.1078 80.7145 76.205C80.7276 87.8909 80.7171 99.5794 80.7171 111.265V112.113H65.6721V0.807743C65.6721 0.538495 65.7063 0.269248 65.722 0H79.3959C79.4458 0.139903 79.4958 0.277167 79.543 0.41443C86.0123 18.3484 92.4815 36.2824 98.9508 54.2191C101.365 60.9107 103.776 67.6076 106.192 74.2992C106.287 74.5579 106.447 74.7901 106.576 75.0356C106.641 75.0066 106.707 74.9802 106.775 74.9538C106.757 74.6159 106.754 74.2754 106.725 73.9375C106.502 71.4905 106.253 69.0436 106.05 66.5939C105.383 58.5746 105.063 50.5394 105.044 42.4963C105.013 28.6221 105.034 14.7479 105.039 0.871095C105.039 0.58073 105.097 0.290365 105.126 0L120.271 0Z" fill="black"/>
<path d="M240.541 0C240.536 0.295645 240.523 0.588649 240.523 0.884294C240.523 37.6128 240.523 74.3414 240.523 111.073V112.121C240.231 112.136 239.977 112.16 239.719 112.163C234.597 112.163 229.478 112.15 224.356 112.181C223.645 112.187 223.524 111.944 223.524 111.3C223.54 94.1285 223.537 76.9573 223.537 59.7862V58.8491C223.448 58.8121 223.361 58.7752 223.272 58.7382C223.119 58.9811 222.92 59.2081 222.817 59.4694C220.141 66.4065 217.475 73.3462 214.806 80.286C210.816 90.6599 206.824 101.034 202.85 111.416C202.635 111.981 202.364 112.184 201.744 112.181C196.257 112.155 190.768 112.165 185.281 112.165C185.042 112.165 184.803 112.165 184.44 112.165C184.574 111.796 184.664 111.529 184.769 111.268C192.541 91.9666 200.315 72.6652 208.101 53.3691C208.308 52.857 208.334 52.4399 208.116 51.912C201.109 34.8702 194.119 17.8179 187.127 0.768148C187.028 0.522657 186.962 0.258689 186.881 0.00527937C192.517 0.00527937 198.154 0.00527937 203.788 0.00527937C203.853 0.237571 203.901 0.475143 203.99 0.699516C207.323 9.14122 210.656 17.5829 213.992 26.0246C216.921 33.4395 219.849 40.8544 222.786 48.2666C222.899 48.5517 223.109 48.7998 223.272 49.0664L223.537 48.9582V48.0238C223.537 32.3335 223.537 16.6432 223.542 0.950286C223.542 0.636164 223.603 0.322041 223.637 0.00791905C229.273 0.00791905 234.91 0.00791905 240.544 0.00791905L240.541 0Z" fill="black"/>
<path d="M56.1009 112.123C55.7516 112.139 55.4994 112.16 55.2446 112.16C49.9573 112.163 43.3174 112.152 37.9303 112.176C37.8594 111.957 37.7727 111.703 37.6703 111.418C31.0539 94.1654 24.4218 76.9177 17.7819 59.6727C17.6611 59.3586 17.4115 59.0946 17.225 58.8069C17.141 59.1553 16.986 59.5037 16.986 59.8495C16.9755 76.9494 16.9755 94.0493 16.9755 111.146V112.123H0V0H16.9099C16.9309 0.343159 16.9729 0.686318 16.9729 1.02684C16.9755 16.6934 16.9755 32.3572 16.986 48.0238C16.986 48.3432 17.1462 48.6652 17.2303 48.9846C17.4115 48.7206 17.6505 48.4778 17.7661 48.1874C23.0587 34.8227 28.3407 21.4553 33.6175 8.08535C34.6786 5.39551 35.7108 2.69512 36.7588 0H53.6661C52.5997 2.63704 51.5438 5.27937 50.4643 7.91113C44.4416 22.6036 38.4188 37.2908 32.3777 51.9754C32.1676 52.4848 32.2333 52.8913 32.4276 53.3691C40.2128 72.6678 47.9848 91.9718 55.7594 111.273C55.8592 111.519 55.9564 111.764 56.1009 112.123Z" fill="black"/>
<path d="M175.113 0V13.4439H150.76V46.9336H169.524V60.3828H150.749V98.711H175.775V112.115H133.769V111.308C133.769 74.476 133.769 37.6419 133.769 0.810383C133.769 0.541135 133.787 0.269248 133.797 0L175.113 0Z" fill="black"/>
<path d="M304.351 0V13.4545H286.425V112.113H269.499V13.4967H251.578C251.549 13.267 251.518 13.1271 251.518 12.9872C251.515 8.82974 251.515 4.67224 251.518 0.514738C251.518 0.343159 251.549 0.174219 251.568 0.00263968C269.163 0.00263968 286.756 0.00263968 304.351 0.00263968V0Z" fill="black"/>
<path d="M356.423 112.445H346.295C342.783 93.0063 339.274 73.5888 335.752 54.1H344.816C346.946 69.4788 349.076 84.8708 351.206 100.265C351.319 100.265 351.43 100.263 351.543 100.26C353.681 84.8866 355.821 69.5131 357.967 54.0947H366.997C363.467 73.5703 359.942 93.0089 356.42 112.445H356.423Z" fill="black"/>
<path d="M315.934 61.0687H306.586V54.1025H334.008V61.0581H324.757V112.437H315.932V61.0687H315.934Z" fill="black"/>
<path d="M306.36 105.663C306.229 106.733 306.198 107.823 305.951 108.863C305.352 111.394 303.371 112.912 300.787 112.93C300.175 112.936 299.552 112.97 298.956 112.872C296.421 112.453 294.683 110.747 294.396 108.179C294.22 106.579 294.186 104.932 294.36 103.335C294.814 99.1144 298.102 97.9054 301.12 98.2538C304.306 98.6234 306.082 100.659 306.24 103.953C306.266 104.518 306.242 105.083 306.242 105.648C306.282 105.653 306.321 105.656 306.36 105.661V105.663ZM304.84 105.835C304.766 104.835 304.74 104.072 304.65 103.317C304.401 101.258 303.248 100.036 301.275 99.6925C298.478 99.2068 296.303 100.447 295.938 103.058C295.691 104.829 295.781 106.69 296.009 108.472C296.227 110.161 297.43 111.18 299.132 111.447C299.776 111.547 300.453 111.545 301.105 111.481C302.917 111.304 304.094 110.301 304.496 108.52C304.711 107.569 304.75 106.579 304.84 105.832V105.835Z" fill="black"/>
<path d="M301.88 106.319C302.452 107.343 302.988 108.304 303.603 109.402C302.943 109.402 302.397 109.434 301.856 109.383C301.698 109.368 301.514 109.148 301.425 108.977C301.155 108.454 300.892 107.924 300.692 107.372C300.498 106.839 300.204 106.604 299.552 106.836V109.365H297.819V101.451C299.087 101.557 300.375 101.509 301.577 101.805C303.188 102.203 303.624 104.78 302.371 105.933C302.229 106.063 302.069 106.174 301.882 106.321L301.88 106.319ZM299.568 105.757C300.133 105.458 300.782 105.329 300.916 104.994C301.12 104.482 301.12 103.764 300.916 103.254C300.784 102.932 300.12 102.826 299.568 102.565V105.757Z" fill="black"/>
</g>
<defs>
<clipPath id="clip0_21995_1500">
<rect width="367" height="114" fill="white"/>
</clipPath>
</defs>
</svg>
