<svg width="131" height="31" viewBox="0 0 131 31" fill="none" xmlns="http://www.w3.org/2000/svg">
<g clip-path="url(#clip0_13_50)">
<mask id="mask0_13_50" style="mask-type:luminance" maskUnits="userSpaceOnUse" x="0" y="0" width="131" height="31">
<path d="M131 0H0V31H131V0Z" fill="white"/>
</mask>
<g mask="url(#mask0_13_50)">
<path d="M42.9253 30.9929V31.001C42.9172 31.001 42.9172 30.9986 42.9253 30.9929Z" fill="black"/>
<path d="M42.9305 0C42.9284 0.0803947 42.9248 0.160789 42.9248 0.240466V30.4996C41.3496 30.4996 39.0837 30.4988 37.9736 30.5018C37.9418 30.4415 37.909 30.3784 37.8733 30.3117C37.8733 30.3117 31.5935 17.3243 28.448 10.8325C28.4115 10.7556 28.3346 10.6903 28.2755 10.6193C28.2474 10.63 28.2193 10.6401 28.1912 10.6508C28.2249 10.9954 28.253 11.3407 28.2952 11.6845C28.658 14.6914 28.8071 17.7048 28.8109 20.7224C28.8156 23.9002 28.8118 27.0786 28.8118 30.2563V30.4869H23.4415V0.219649C23.4415 0.146433 23.4537 0.0732166 23.4593 0H28.3402C28.358 0.0380438 28.3759 0.07537 28.3927 0.112696C30.7019 4.98948 33.0111 9.86627 35.3203 14.7438C36.182 16.5634 37.0427 18.3845 37.905 20.2042C37.9389 20.2745 37.9961 20.3377 38.0421 20.4044C38.0653 20.3965 38.0889 20.3893 38.1131 20.3822C38.1067 20.2903 38.1056 20.1977 38.0953 20.1058C38.0157 19.4404 37.9268 18.775 37.8544 18.1089C37.6163 15.9282 37.502 13.7432 37.4953 11.556C37.4842 7.7832 37.4917 4.01039 37.4935 0.236877C37.4935 0.157918 37.5142 0.0789589 37.5245 0H42.9305Z" fill="black"/>
<path d="M85.8607 0C85.8589 0.0803947 85.8542 0.160071 85.8542 0.240466C85.8542 10.228 85.8542 20.2156 85.8542 30.2041V30.489C85.75 30.4931 85.6593 30.4997 85.5672 30.5005C83.739 30.5005 81.9117 30.4969 80.0835 30.5054C79.8297 30.507 79.7865 30.4409 79.7865 30.2658C79.7922 25.5963 79.7911 20.927 79.7911 16.2577V16.0028C79.7593 15.9928 79.7283 15.9827 79.6965 15.9727C79.6419 16.0387 79.5709 16.1004 79.5341 16.1715C78.5789 18.0579 77.6273 19.945 76.6746 21.8322C75.2504 24.6531 73.8254 27.4742 72.4069 30.2973C72.3302 30.451 72.2335 30.5062 72.0121 30.5054C70.0536 30.4983 68.0943 30.501 66.1357 30.501C66.0504 30.501 65.9651 30.501 65.8355 30.501C65.8833 30.4007 65.9155 30.3281 65.9529 30.2571C68.7271 25.0085 71.5021 19.7598 74.2813 14.5126C74.3551 14.3734 74.3644 14.26 74.2866 14.1164C71.7855 9.48225 69.2904 4.84522 66.7946 0.208882C66.7593 0.142126 66.7357 0.0703453 66.7068 0.00143562C68.7186 0.00143562 70.7307 0.00143562 72.7417 0.00143562C72.7649 0.0646026 72.7821 0.129206 72.8138 0.190219C74.0036 2.48577 75.1933 4.78131 76.384 7.07686C77.4295 9.0932 78.4747 11.1095 79.523 13.1251C79.5634 13.2027 79.6383 13.2701 79.6965 13.3426L79.7911 13.3132V13.0591C79.7911 8.79244 79.7911 4.52578 79.7929 0.258411C79.7929 0.172992 79.8147 0.0875726 79.8268 0.00215343C81.8386 0.00215343 83.8507 0.00215343 85.8617 0.00215343L85.8607 0Z" fill="black"/>
<path d="M20.0251 30.4896C19.9004 30.4939 19.8104 30.4997 19.7195 30.4997C17.8322 30.5005 15.4621 30.4975 13.5392 30.504C13.5138 30.4445 13.4829 30.3754 13.4463 30.2979C11.0846 25.6064 8.71732 20.9162 6.34722 16.2268C6.3041 16.1414 6.215 16.0696 6.14843 15.9914C6.11845 16.0861 6.06312 16.1808 6.06312 16.2749C6.05937 20.9248 6.05937 25.5748 6.05937 30.2239V30.4896H0V0H6.03596C6.04345 0.0933152 6.05845 0.18663 6.05845 0.279228C6.05937 4.53943 6.05937 8.79889 6.06312 13.0591C6.06312 13.146 6.12031 13.2335 6.15033 13.3204C6.215 13.2486 6.30031 13.1826 6.34158 13.1036C8.23076 9.46933 10.1162 5.83434 11.9997 2.19865C12.3785 1.4672 12.7469 0.732884 13.121 0H19.156C18.7754 0.71709 18.3985 1.43562 18.0131 2.15127C15.8633 6.14659 13.7135 10.1405 11.5572 14.1337C11.4822 14.2722 11.5056 14.3827 11.575 14.5127C14.3539 19.7605 17.1281 25.0099 19.9032 30.2585C19.9388 30.3253 19.9735 30.392 20.0251 30.4896Z" fill="black"/>
<path d="M62.5063 0V3.6558H53.8135V12.7626H60.5113V16.4199H53.8096V26.8425H62.7426V30.4874H47.7486V30.268C47.7486 20.2522 47.7486 10.236 47.7486 0.220367C47.7486 0.147151 47.755 0.0732166 47.7586 0H62.5063Z" fill="black"/>
<path d="M108.638 0V3.65868H102.239V30.4869H96.1972V3.67016H89.8003C89.79 3.60769 89.7789 3.56965 89.7789 3.53161C89.7778 2.40107 89.7778 1.27052 89.7789 0.139973C89.7789 0.0933152 89.79 0.0473753 89.7968 0.000717808C96.0773 0.000717808 102.357 0.000717808 108.638 0.000717808V0Z" fill="black"/>
<path d="M127.225 30.5771H123.609C122.356 25.2912 121.103 20.011 119.846 14.7114H123.081C123.842 18.8934 124.602 23.0789 125.362 27.265C125.403 27.265 125.442 27.2645 125.483 27.2637C126.246 23.0832 127.01 18.9027 127.776 14.71H130.999C129.739 20.006 128.481 25.2919 127.224 30.5771H127.225Z" fill="black"/>
<path d="M112.772 16.6064H109.435V14.7121H119.224V16.6035H115.921V30.575H112.771V16.6064H112.772Z" fill="black"/>
<path d="M109.355 28.7329C109.308 29.0239 109.297 29.3203 109.209 29.6031C108.995 30.2914 108.288 30.7041 107.365 30.709C107.147 30.7107 106.925 30.7199 106.712 30.6933C105.807 30.5793 105.187 30.1154 105.084 29.4171C105.021 28.982 105.009 28.5341 105.071 28.0999C105.233 26.9522 106.407 26.6234 107.484 26.7181C108.621 26.8186 109.255 27.3722 109.312 28.2679C109.321 28.4216 109.313 28.5752 109.313 28.7288C109.327 28.7302 109.341 28.731 109.355 28.7324V28.7329ZM108.812 28.7797C108.786 28.5078 108.776 28.3003 108.744 28.095C108.655 27.5351 108.244 27.2028 107.54 27.1094C106.541 26.9773 105.765 27.3145 105.635 28.0245C105.546 28.5061 105.579 29.0122 105.66 29.4968C105.738 29.9561 106.167 30.2332 106.775 30.3058C107.005 30.333 107.246 30.3324 107.479 30.315C108.126 30.2669 108.546 29.9941 108.689 29.5098C108.766 29.2512 108.78 28.982 108.812 28.7789V28.7797Z" fill="black"/>
<path d="M107.756 28.9113C107.96 29.1897 108.151 29.4511 108.371 29.7496C108.135 29.7496 107.94 29.7583 107.747 29.7445C107.691 29.7404 107.625 29.6806 107.593 29.6341C107.497 29.4918 107.403 29.3477 107.331 29.1976C107.262 29.0527 107.157 28.9888 106.925 29.0519V29.7396H106.306V27.5875C106.759 27.6163 107.218 27.6033 107.647 27.6838C108.222 27.792 108.378 28.4928 107.931 28.8063C107.88 28.8417 107.823 28.8718 107.756 28.9118L107.756 28.9113ZM106.93 28.7585C107.132 28.6771 107.364 28.6421 107.411 28.551C107.484 28.4117 107.484 28.2165 107.411 28.0778C107.364 27.9903 107.127 27.9614 106.93 27.8905V28.7585Z" fill="black"/>
</g>
</g>
<defs>
<clipPath id="clip0_13_50">
<rect width="131" height="31" fill="white"/>
</clipPath>
</defs>
</svg>
