<svg width="146" height="48" viewBox="0 0 146 48" fill="none" xmlns="http://www.w3.org/2000/svg">
<path d="M86.6176 28.1334V32.0518H75.3057V11.527H79.224V28.1567H86.6176V28.1334ZM102.571 21.7894C104.857 22.7456 104.857 25.941 104.857 25.941C104.857 32.0518 97.9296 32.0518 97.9296 32.0518H90.9791V11.527H97.9296C97.9296 11.527 104.857 11.527 104.857 17.6144C104.857 20.2733 103.597 21.3462 102.571 21.7894ZM94.8742 19.8302H97.9296C97.9296 19.8302 100.938 19.8302 100.938 17.6378C100.938 15.422 97.9296 15.422 97.9296 15.422H94.8742V19.8302ZM100.938 25.941C100.938 23.7486 97.9296 23.7486 97.9296 23.7486H94.8742V28.18H97.9296C97.9296 28.18 100.938 28.18 100.938 25.941ZM116.379 23.7252H114.116V32.0751H110.198V11.527H117.148C117.148 11.527 124.099 11.527 124.099 17.6144C124.099 20.8098 122.139 22.3258 120.32 23.0722C121.65 25.9176 123.166 29.2529 124.472 32.0751H120.204L116.379 23.7252ZM114.116 19.8302H117.148C117.148 19.8302 120.204 19.8302 120.204 17.6144C120.204 15.422 117.148 15.422 117.148 15.422H114.116V19.8302ZM145.463 11.527L137.673 22.4191V32.0751H133.755V22.4191C131.329 18.9439 128.46 15.0022 126.011 11.527H130.769L135.76 18.4074L140.682 11.527H145.463Z" fill="url(#paint0_linear_4516_59873)"/>
<path d="M64.8767 14.8805V18.1691L32.5036 38.0641L8.10708 26.0991L8.15373 24.2566L32.4103 36.1982L63.2441 17.2595V15.9067L34.1362 1.86589L1.66976 21.9475V30.9271L32.4103 46.1341L64.5036 26.449L65.4132 27.8484L32.5036 48L0.0371094 31.9534V21.0379L34.0429 0L64.8767 14.8805Z" fill="url(#paint1_linear_4516_59873)"/>
<path d="M64.4571 30.0411L64.9236 27.1023L62.0781 26.6125L62.2647 25.4697L66.2531 26.1461L65.6 30.2277L64.4571 30.0411Z" fill="url(#paint2_linear_4516_59873)"/>
<defs>
<linearGradient id="paint0_linear_4516_59873" x1="125.973" y1="23.2825" x2="-0.0296041" y2="22.8611" gradientUnits="userSpaceOnUse">
<stop stop-color="#006149"/>
<stop offset="1" stop-color="#2F4246"/>
</linearGradient>
<linearGradient id="paint1_linear_4516_59873" x1="126.039" y1="23.3474" x2="0.0371154" y2="22.9259" gradientUnits="userSpaceOnUse">
<stop stop-color="#006149"/>
<stop offset="1" stop-color="#2F4246"/>
</linearGradient>
<linearGradient id="paint2_linear_4516_59873" x1="125.97" y1="23.4176" x2="-0.0327416" y2="22.9962" gradientUnits="userSpaceOnUse">
<stop stop-color="#006149"/>
<stop offset="1" stop-color="#2F4246"/>
</linearGradient>
</defs>
</svg>
