<svg width="146" height="48" viewBox="0 0 146 48" fill="none" xmlns="http://www.w3.org/2000/svg">
<path d="M86.6166 28.1334V32.0518H75.3047V11.527H79.2231V28.1567H86.6166V28.1334ZM102.57 21.7894C104.856 22.7456 104.856 25.941 104.856 25.941C104.856 32.0518 97.9286 32.0518 97.9286 32.0518H90.9782V11.527H97.9286C97.9286 11.527 104.856 11.527 104.856 17.6144C104.856 20.2733 103.596 21.3462 102.57 21.7894ZM94.8732 19.8302H97.9286C97.9286 19.8302 100.937 19.8302 100.937 17.6378C100.937 15.422 97.9286 15.422 97.9286 15.422H94.8732V19.8302ZM100.937 25.941C100.937 23.7486 97.9286 23.7486 97.9286 23.7486H94.8732V28.18H97.9286C97.9286 28.18 100.937 28.18 100.937 25.941ZM116.378 23.7252H114.115V32.0751H110.197V11.527H117.147C117.147 11.527 124.098 11.527 124.098 17.6144C124.098 20.8098 122.139 22.3258 120.319 23.0722C121.649 25.9176 123.165 29.2529 124.471 32.0751H120.203L116.378 23.7252ZM114.115 19.8302H117.147C117.147 19.8302 120.203 19.8302 120.203 17.6144C120.203 15.422 117.147 15.422 117.147 15.422H114.115V19.8302ZM145.462 11.527L137.672 22.4191V32.0751H133.754V22.4191C131.328 18.9439 128.459 15.0022 126.01 11.527H130.768L135.759 18.4074L140.681 11.527H145.462Z" fill="url(#paint0_linear_4552_5297)"/>
<path d="M64.8767 14.8805V18.1691L32.5036 38.0641L8.10708 26.0991L8.15373 24.2566L32.4103 36.1982L63.2441 17.2595V15.9067L34.1362 1.86589L1.66976 21.9475V30.9271L32.4103 46.1341L64.5036 26.449L65.4132 27.8484L32.5036 48L0.0371094 31.9534V21.0379L34.0429 0L64.8767 14.8805Z" fill="url(#paint1_linear_4552_5297)"/>
<path d="M64.4571 30.0411L64.9236 27.1023L62.0781 26.6125L62.2647 25.4697L66.2531 26.1461L65.6 30.2277L64.4571 30.0411Z" fill="url(#paint2_linear_4552_5297)"/>
<defs>
<linearGradient id="paint0_linear_4552_5297" x1="125.972" y1="23.2825" x2="-0.0305807" y2="22.8611" gradientUnits="userSpaceOnUse">
<stop stop-color="white"/>
<stop offset="1" stop-color="white"/>
</linearGradient>
<linearGradient id="paint1_linear_4552_5297" x1="126.039" y1="23.3474" x2="0.0371154" y2="22.9259" gradientUnits="userSpaceOnUse">
<stop stop-color="white"/>
<stop offset="1" stop-color="white"/>
</linearGradient>
<linearGradient id="paint2_linear_4552_5297" x1="125.97" y1="23.4176" x2="-0.0327416" y2="22.9962" gradientUnits="userSpaceOnUse">
<stop stop-color="white"/>
<stop offset="1" stop-color="white"/>
</linearGradient>
</defs>
</svg>
