<svg width="149" height="62" viewBox="0 0 149 62" fill="none" xmlns="http://www.w3.org/2000/svg">
<path d="M38.3093 0.000358184L38.2775 0H27.6712L19.3077 8.39718L10.944 0H7.87031H0.347681H0.306641L0.347681 0.0416071V38.1126H0.388721L18.1646 20.248L12.8351 14.8965L7.87031 19.8809V7.59387L13.9888 13.7376L13.9654 13.7611L19.2952 19.1111L19.3178 19.0887L19.3313 19.1026L24.6506 13.7614L24.634 13.7447L30.787 7.56008V19.9229L25.7816 14.8969L20.4631 20.2376L30.787 30.602V30.6041L38.2657 38.1126H38.3086L38.3093 0.000358184Z" fill="url(#paint0_linear_4597_1109)"/>
<path d="M79.0291 31.0049C79.6107 30.6404 80.0661 30.5487 80.3933 30.7311C80.7206 30.9136 80.5925 31.4256 80.0119 32.2658C79.2831 33.2534 77.9837 34.3042 76.11 35.419C74.2356 36.5352 72.5817 37.0192 71.1442 36.8727C69.7071 36.7269 69.2899 35.658 69.89 33.6648C70.4901 31.672 70.8177 30.5576 70.8714 30.3194C70.9259 30.0818 70.8802 29.9449 70.7349 29.9082C70.5895 29.872 70.2626 30.0366 69.7527 30.4022C68.2619 31.426 66.8071 32.5045 65.3888 33.6382C64.7699 34.1133 64.1699 34.6071 63.5883 35.1182C63.2239 35.4468 62.8418 35.7761 62.442 36.1049L62.3879 36.1597C61.9513 36.5978 61.4235 36.8919 60.8057 37.037C60.5142 37.1113 60.2139 37.1384 59.9057 37.1195C59.5954 37.1013 59.3325 36.9818 59.1146 36.7632C58.8599 36.5075 58.7687 36.2422 58.8415 35.9681C58.9144 35.6939 59.1231 35.2825 59.4695 34.7338C59.8144 34.1851 60.1958 33.5831 60.6147 32.9245C61.0321 32.2658 61.2699 31.8647 61.324 31.7172C61.3789 31.5721 61.3509 31.4256 61.2419 31.2791C61.133 31.134 61.0052 31.0874 60.8606 31.1422C60.7148 31.197 60.1873 31.5533 59.2781 32.2111C58.3681 32.8697 57.1319 33.7836 55.5689 34.9532C54.8398 35.5018 54.1308 36.0694 53.4402 36.6532C53.2576 36.8368 53.0581 37.0007 52.8401 37.1472C52.3314 37.5854 51.7675 37.8236 51.1494 37.8598C50.7124 37.8962 50.3855 37.7958 50.1665 37.5583C49.9486 37.3207 49.9129 37.0007 50.0576 36.5978C50.1665 36.3062 50.2946 36.0317 50.4397 35.7757C50.5129 35.6665 50.5671 35.5569 50.6031 35.4464C51.9128 32.7787 53.2039 30.1095 54.4771 27.4408C54.5129 27.3686 54.549 27.2761 54.5861 27.1672C54.7308 26.875 54.877 26.6009 55.0226 26.3444C55.4225 25.9063 55.8955 25.7598 56.4411 25.9063C57.0587 26.0891 57.2951 26.4543 57.1504 27.002C56.8596 27.8433 56.568 28.6661 56.2779 29.4691C56.1314 29.835 55.9857 30.2013 55.841 30.5665C55.5859 31.2244 55.5045 31.645 55.5962 31.8271C55.6864 32.0113 56.095 31.8825 56.8235 31.4437C57.3323 31.1152 57.8233 30.7859 58.2956 30.4569C58.878 30.0548 59.4418 29.6888 59.9881 29.3595C60.8238 28.8482 61.6789 28.4094 62.5517 28.0435C62.9882 27.8615 63.434 27.7249 63.889 27.6324C64.3425 27.5421 64.7703 27.642 65.1708 27.9344C65.4612 28.1907 65.5886 28.4737 65.5529 28.7842C65.5161 29.0946 65.4245 29.3969 65.2801 29.6885C65.0615 30.2364 64.9702 30.585 65.007 30.7311C65.0427 30.8769 65.1708 30.9046 65.3891 30.8129C65.607 30.7219 65.9891 30.5107 66.5353 30.1824C67.0798 29.8531 67.6614 29.4887 68.2803 29.0858C69.0805 28.5743 69.9173 28.0808 70.7908 27.6054C71.5174 27.1314 72.2993 26.8373 73.1371 26.7285C74.2636 26.6549 74.7277 27.1214 74.5282 28.1264C74.3272 29.1327 73.9271 30.3293 73.3271 31.7175C72.727 33.108 72.663 33.9582 73.1371 34.2679C73.609 34.5783 74.6552 34.1498 76.2741 32.9795C77.892 31.8096 78.8111 31.1515 79.0291 31.0049Z" fill="white"/>
<path d="M83.2988 37.5418H83.2443C80.8361 37.5055 79.2479 36.9639 78.4816 35.9195C77.7156 34.8743 77.7528 33.4893 78.592 31.7646C79.2855 30.4442 80.161 29.2885 81.2188 28.2982C81.5833 27.9693 81.9583 27.7033 82.3415 27.5013C82.7246 27.3 83.1534 27.199 83.6278 27.199C83.919 27.1625 84.2477 27.2179 84.6132 27.3637C84.7225 27.4007 84.8317 27.4373 84.9414 27.4743C85.233 27.4373 85.5064 27.3459 85.7626 27.1994C85.8351 27.1628 85.9267 27.1258 86.0353 27.0892C86.5837 26.8691 87.1672 26.7781 87.7881 26.8143H88.554C89.5396 26.9608 90.2783 27.374 90.7712 28.0515C91.2637 28.7306 91.437 29.5468 91.2916 30.5001C91.218 31.0868 91.0351 31.637 90.744 32.1504C88.8466 35.5988 86.4195 37.3962 83.464 37.5421L83.2988 37.5418ZM87.2404 28.5742C85.9264 28.5372 84.7582 28.9227 83.7372 29.7292C82.715 30.5367 81.9582 31.4628 81.4655 32.5078C80.9727 33.553 80.8364 34.4149 81.0547 35.0934C81.2737 35.7726 81.9667 35.965 83.1346 35.6713C84.449 35.2684 85.6065 34.5156 86.6106 33.4153C87.6143 32.3151 88.2263 31.2693 88.4447 30.2789C88.6633 29.2886 88.2617 28.7207 87.2404 28.5742Z" fill="white"/>
<path d="M114.429 30.1279C114.575 30.0916 114.729 30.0916 114.893 30.1279C115.057 30.1652 115.174 30.237 115.248 30.3473C115.356 30.5309 115.356 30.7125 115.248 30.8953C115.138 31.0795 114.974 31.2246 114.756 31.3341C113.264 32.0663 111.773 32.8149 110.282 33.583C108.5 34.4968 106.717 35.411 104.936 36.3243C104.68 36.4341 104.426 36.5626 104.171 36.7083C103.771 36.9277 103.371 37.1293 102.972 37.3118C102.061 37.7499 101.462 38.4447 101.17 39.3946C100.371 41.6622 99.5335 43.9103 98.6599 46.1407C97.533 49.1014 96.132 51.9345 94.46 54.6402C93.5133 56.1757 92.3684 57.5469 91.0226 58.7531C89.4227 60.2513 87.5845 61.2022 85.5116 61.6043C82.0937 62.2988 78.801 62.0786 75.6366 60.9465C74.3266 60.4707 73.1997 59.7206 72.2534 58.6983C70.98 57.3079 70.9263 55.8279 72.0892 54.2562C72.5994 53.5976 73.1626 52.976 73.7807 52.3914C75.2001 51.1112 76.7284 49.9612 78.3647 48.9367C84.2217 45.1716 90.2407 41.6984 96.4239 38.518H96.4784C97.1333 38.1887 97.7694 37.8416 98.3881 37.4753C98.4972 37.4024 98.6421 37.2282 98.824 36.9544C99.0058 36.6802 99.1432 36.4064 99.2331 36.1323C99.324 35.8581 99.2963 35.6579 99.1521 35.5287C99.0058 35.4018 98.6599 35.4655 98.115 35.7211C97.8964 35.7948 97.6958 35.8858 97.5146 35.9953C97.0413 36.214 96.5683 36.4157 96.0963 36.5973C93.2593 37.2925 91.841 36.1966 91.841 33.3073C91.9138 31.5898 92.4324 30.0362 93.3962 28.6465C94.3599 27.2585 95.5964 26.1712 97.1057 25.3839C98.6145 24.5994 100.242 24.2971 101.989 24.4799C102.17 24.4799 102.352 24.4988 102.535 24.5347C103.007 24.6083 103.488 24.6442 103.981 24.6442C104.471 24.6442 104.971 24.5347 105.48 24.316C106.026 24.0966 106.435 24.1602 106.708 24.5077C106.981 24.8554 107.026 25.3024 106.845 25.8511C106.372 26.8745 105.899 27.9161 105.425 28.9758C105.099 29.6336 104.79 30.3107 104.498 31.0045C104.171 31.7359 103.844 32.4859 103.517 33.2533C103.081 34.2401 103.017 34.761 103.325 34.8162C103.634 34.8709 104.171 34.6974 104.936 34.2952C105.045 34.2589 105.154 34.2223 105.263 34.1846C106.645 33.5274 108.045 32.8693 109.463 32.2106C110.446 31.7719 111.428 31.3153 112.41 30.8399C113.064 30.5486 113.737 30.311 114.429 30.1279ZM96.8064 43.5081C97.3155 42.047 97.5337 41.0869 97.4605 40.6291C97.388 40.1729 97.0699 40.0542 96.5063 40.2728C95.9421 40.4923 95.2054 40.8951 94.2969 41.4794C93.7146 41.8453 93.0781 42.2116 92.3879 42.5761C88.2054 44.843 84.1311 47.2746 80.1659 49.8702C78.4203 50.894 76.8565 52.1357 75.4739 53.5982C74.0184 55.17 74.0732 56.5598 75.6374 57.7663C76.5473 58.4978 77.5567 59.0088 78.6662 59.3018C79.7757 59.5941 81.0036 59.7399 82.3484 59.7399C83.9132 59.8505 85.3676 59.5572 86.7127 58.8626C88.0596 58.1681 89.2968 57.1263 90.4232 55.7372C91.1146 54.8234 91.7687 53.8732 92.3879 52.8854C94.2053 49.8887 95.6785 46.7626 96.8064 43.5081ZM95.1694 34.6793C95.606 34.8634 96.2332 34.707 97.0519 34.213C97.8698 33.7192 98.7064 33.0346 99.5622 32.1566C100.416 31.2793 101.098 30.3844 101.607 29.4693C102.117 28.5562 102.243 27.7881 101.989 27.1676C101.916 26.9848 101.807 26.8201 101.662 26.674C101.406 26.3447 101.117 26.19 100.789 26.2078C100.461 26.2266 100.116 26.2896 99.7519 26.3994C98.5512 26.8749 97.4882 27.6971 96.5605 28.8666C95.6335 30.0369 95.0141 31.1976 94.7052 32.349C94.3957 33.5004 94.5502 34.2778 95.1694 34.6793Z" fill="white"/>
<path d="M114.32 39.0671C112.756 39.0671 111.973 38.2449 111.973 36.5988C111.973 34.589 113.265 31.0433 115.848 25.9614C115.956 25.7419 116.138 25.6324 116.393 25.6324C117.447 25.6324 117.974 26.0531 117.974 26.8931C117.974 27.1868 117.883 27.5512 117.701 27.9901C117.628 28.0992 116.756 30.2929 115.084 34.5698C114.829 35.265 114.701 35.7764 114.701 36.1052C114.701 36.4712 114.865 36.6539 115.193 36.6539C116.393 36.6539 119.557 33.6385 124.686 27.606C125.342 26.8027 125.995 26.3998 126.65 26.3998C127.596 26.3998 128.068 26.7476 128.068 27.4414C128.068 27.6978 127.778 28.7031 127.195 30.4572C126.395 32.8341 125.995 34.2049 125.995 34.5694C125.995 35.1181 126.177 35.3922 126.541 35.3922C127.449 35.3922 130.105 33.7657 134.506 30.5109C134.76 30.2923 134.978 30.1824 135.162 30.1824C135.562 30.1824 135.762 30.5304 135.762 31.2243C135.762 31.4077 135.707 31.5535 135.598 31.6631C133.27 33.6736 131.288 35.2095 129.65 36.2692C128.159 37.2208 126.831 37.6958 125.668 37.6958H125.341C123.631 37.3307 122.776 35.9957 122.776 33.6918C120.957 35.3009 119.448 36.5977 118.248 37.5859C117.047 38.5731 115.737 39.0671 114.32 39.0671Z" fill="white"/>
<path d="M146.072 31.6078C146.618 31.0591 147.072 30.7494 147.436 30.6758C147.8 30.6029 148.036 30.6576 148.145 30.8397C148.254 31.0231 148.181 31.2785 147.927 31.6078C146.471 33.3624 144.845 34.8797 143.044 36.1591C141.244 37.4393 139.389 38.1797 137.479 38.3802C135.57 38.5815 134.415 37.5299 134.015 35.2271C133.724 32.9609 135.097 28.327 138.135 21.3267C141.17 14.3263 143.581 8.59543 145.364 4.13513C145.508 3.7333 145.726 3.38623 146.018 3.09286C146.418 2.69103 146.891 2.59893 147.437 2.81869C147.619 2.8923 147.8 3.01996 147.982 3.20274C148.164 3.38587 148.219 3.71481 148.146 4.18989C140.325 22.8341 136.543 32.9694 136.798 34.5959C137.052 36.2232 138.098 36.6247 139.935 35.8032C141.771 34.9803 143.189 34.1389 144.191 33.2798C145.19 32.4218 145.816 31.8642 146.072 31.6078Z" fill="white"/>
<defs>
<linearGradient id="paint0_linear_4597_1109" x1="6.84958" y1="-7.71295" x2="38.1159" y2="58.24" gradientUnits="userSpaceOnUse">
<stop stop-color="#EDCE69"/>
<stop offset="1" stop-color="#B38E4F"/>
</linearGradient>
</defs>
</svg>
