<svg width="149" height="62" viewBox="0 0 149 62" fill="none" xmlns="http://www.w3.org/2000/svg">
<path d="M38.3093 0.000358184L38.2775 0H27.6712L19.3077 8.39718L10.944 0H7.87031H0.347681H0.306641L0.347681 0.0416071V38.1126H0.388721L18.1646 20.248L12.8351 14.8965L7.87031 19.8809V7.59387L13.9888 13.7376L13.9654 13.7611L19.2952 19.1111L19.3178 19.0887L19.3313 19.1026L24.6506 13.7614L24.634 13.7447L30.787 7.56008V19.9229L25.7816 14.8969L20.4631 20.2376L30.787 30.602V30.6041L38.2657 38.1126H38.3086L38.3093 0.000358184Z" fill="url(#paint0_linear_4597_1101)"/>
<path d="M79.0301 31.0049C79.6117 30.6404 80.0671 30.5487 80.3943 30.7311C80.7216 30.9136 80.5935 31.4256 80.0129 32.2658C79.2841 33.2534 77.9847 34.3042 76.111 35.419C74.2366 36.5352 72.5827 37.0192 71.1452 36.8727C69.7081 36.7269 69.2909 35.658 69.891 33.6648C70.491 31.672 70.8186 30.5576 70.8724 30.3194C70.9269 30.0818 70.8812 29.9449 70.7358 29.9082C70.5905 29.872 70.2635 30.0366 69.7537 30.4022C68.2629 31.426 66.8081 32.5045 65.3897 33.6382C64.7709 34.1133 64.1709 34.6071 63.5893 35.1182C63.2249 35.4468 62.8428 35.7761 62.443 36.1049L62.3889 36.1597C61.9523 36.5978 61.4244 36.8919 60.8067 37.037C60.5152 37.1113 60.2148 37.1384 59.9067 37.1195C59.5964 37.1013 59.3335 36.9818 59.1156 36.7632C58.8608 36.5075 58.7696 36.2422 58.8425 35.9681C58.9154 35.6939 59.1241 35.2825 59.4705 34.7338C59.8154 34.1851 60.1967 33.5831 60.6157 32.9245C61.0331 32.2658 61.2709 31.8647 61.325 31.7172C61.3799 31.5721 61.3519 31.4256 61.2429 31.2791C61.134 31.134 61.0062 31.0874 60.8615 31.1422C60.7158 31.197 60.1883 31.5533 59.2791 32.2111C58.3691 32.8697 57.1329 33.7836 55.5699 34.9532C54.8408 35.5018 54.1317 36.0694 53.4411 36.6532C53.2586 36.8368 53.0591 37.0007 52.8411 37.1472C52.3323 37.5854 51.7685 37.8236 51.1504 37.8598C50.7134 37.8962 50.3865 37.7958 50.1675 37.5583C49.9496 37.3207 49.9139 37.0007 50.0586 36.5978C50.1675 36.3062 50.2956 36.0317 50.4407 35.7757C50.5139 35.6665 50.568 35.5569 50.6041 35.4464C51.9138 32.7787 53.2049 30.1095 54.4781 27.4408C54.5139 27.3686 54.55 27.2761 54.5871 27.1672C54.7318 26.875 54.8779 26.6009 55.0236 26.3444C55.4235 25.9063 55.8964 25.7598 56.442 25.9063C57.0597 26.0891 57.2961 26.4543 57.1514 27.002C56.8606 27.8433 56.569 28.6661 56.2789 29.4691C56.1324 29.835 55.9867 30.2013 55.842 30.5665C55.5869 31.2244 55.5055 31.645 55.5972 31.8271C55.6874 32.0113 56.096 31.8825 56.8245 31.4437C57.3332 31.1152 57.8243 30.7859 58.2966 30.4569C58.8789 30.0548 59.4428 29.6888 59.9891 29.3595C60.8248 28.8482 61.6799 28.4094 62.5527 28.0435C62.9892 27.8615 63.435 27.7249 63.89 27.6324C64.3435 27.5421 64.7713 27.642 65.1717 27.9344C65.4622 28.1907 65.5896 28.4737 65.5539 28.7842C65.517 29.0946 65.4254 29.3969 65.281 29.6885C65.0624 30.2364 64.9711 30.585 65.008 30.7311C65.0437 30.8769 65.1717 30.9046 65.39 30.8129C65.608 30.7219 65.9901 30.5107 66.5363 30.1824C67.0808 29.8531 67.6624 29.4887 68.2812 29.0858C69.0815 28.5743 69.9183 28.0808 70.7918 27.6054C71.5184 27.1314 72.3003 26.8373 73.138 26.7285C74.2645 26.6549 74.7287 27.1214 74.5292 28.1264C74.3282 29.1327 73.928 30.3293 73.3281 31.7175C72.728 33.108 72.664 33.9582 73.138 34.2679C73.61 34.5783 74.6562 34.1498 76.2751 32.9795C77.8929 31.8096 78.8121 31.1515 79.0301 31.0049Z" fill="#0B0B0B"/>
<path d="M83.2988 37.5418H83.2443C80.8361 37.5055 79.2479 36.9639 78.4816 35.9195C77.7156 34.8743 77.7528 33.4893 78.592 31.7646C79.2855 30.4442 80.161 29.2885 81.2188 28.2982C81.5833 27.9693 81.9583 27.7033 82.3415 27.5013C82.7246 27.3 83.1534 27.199 83.6278 27.199C83.919 27.1625 84.2477 27.2179 84.6132 27.3637C84.7225 27.4007 84.8317 27.4373 84.9414 27.4743C85.233 27.4373 85.5064 27.3459 85.7626 27.1994C85.8351 27.1628 85.9267 27.1258 86.0353 27.0892C86.5837 26.8691 87.1672 26.7781 87.7881 26.8143H88.554C89.5396 26.9608 90.2783 27.374 90.7712 28.0515C91.2637 28.7306 91.437 29.5468 91.2916 30.5001C91.218 31.0868 91.0351 31.637 90.744 32.1504C88.8466 35.5988 86.4195 37.3962 83.464 37.5421L83.2988 37.5418ZM87.2404 28.5742C85.9264 28.5372 84.7582 28.9227 83.7372 29.7292C82.715 30.5367 81.9582 31.4628 81.4655 32.5078C80.9727 33.553 80.8364 34.4149 81.0547 35.0934C81.2737 35.7726 81.9667 35.965 83.1346 35.6713C84.449 35.2684 85.6065 34.5156 86.6106 33.4153C87.6143 32.3151 88.2263 31.2693 88.4447 30.2789C88.6633 29.2886 88.2617 28.7207 87.2404 28.5742Z" fill="#0B0B0B"/>
<path d="M114.428 30.1279C114.574 30.0916 114.728 30.0916 114.892 30.1279C115.056 30.1652 115.173 30.237 115.247 30.3473C115.355 30.5309 115.355 30.7125 115.247 30.8953C115.137 31.0795 114.973 31.2246 114.755 31.3341C113.263 32.0663 111.772 32.8149 110.281 33.583C108.499 34.4968 106.716 35.411 104.935 36.3243C104.679 36.4341 104.425 36.5626 104.17 36.7083C103.77 36.9277 103.37 37.1293 102.971 37.3118C102.06 37.7499 101.461 38.4447 101.169 39.3946C100.37 41.6622 99.5325 43.9103 98.6589 46.1407C97.5321 49.1014 96.131 51.9345 94.459 54.6402C93.5123 56.1757 92.3674 57.5469 91.0216 58.7531C89.4218 60.2513 87.5835 61.2022 85.5106 61.6043C82.0927 62.2988 78.8 62.0786 75.6356 60.9465C74.3256 60.4707 73.1987 59.7206 72.2524 58.6983C70.9791 57.3079 70.9253 55.8279 72.0883 54.2562C72.5984 53.5976 73.1616 52.976 73.7797 52.3914C75.1991 51.1112 76.7274 49.9612 78.3638 48.9367C84.2208 45.1716 90.2397 41.6984 96.423 38.518H96.4774C97.1323 38.1887 97.7684 37.8416 98.3872 37.4753C98.4962 37.4024 98.6412 37.2282 98.823 36.9544C99.0048 36.6802 99.1422 36.4064 99.2321 36.1323C99.323 35.8581 99.2954 35.6579 99.1511 35.5287C99.0048 35.4018 98.6589 35.4655 98.114 35.7211C97.8954 35.7948 97.6948 35.8858 97.5137 35.9953C97.0403 36.214 96.5673 36.4157 96.0953 36.5973C93.2583 37.2925 91.84 36.1966 91.84 33.3073C91.9128 31.5898 92.4315 30.0362 93.3952 28.6465C94.3589 27.2585 95.5954 26.1712 97.1047 25.3839C98.6135 24.5994 100.241 24.2971 101.988 24.4799C102.169 24.4799 102.351 24.4988 102.534 24.5347C103.006 24.6083 103.487 24.6442 103.98 24.6442C104.47 24.6442 104.97 24.5347 105.479 24.316C106.025 24.0966 106.434 24.1602 106.707 24.5077C106.98 24.8554 107.025 25.3024 106.844 25.8511C106.371 26.8745 105.898 27.9161 105.424 28.9758C105.098 29.6336 104.789 30.3107 104.497 31.0045C104.17 31.7359 103.843 32.4859 103.516 33.2533C103.08 34.2401 103.016 34.761 103.324 34.8162C103.633 34.8709 104.17 34.6974 104.935 34.2952C105.044 34.2589 105.153 34.2223 105.262 34.1846C106.644 33.5274 108.044 32.8693 109.462 32.2106C110.445 31.7719 111.427 31.3153 112.409 30.8399C113.064 30.5486 113.737 30.311 114.428 30.1279ZM96.8054 43.5081C97.3145 42.047 97.5327 41.0869 97.4595 40.6291C97.387 40.1729 97.069 40.0542 96.5054 40.2728C95.9411 40.4923 95.2044 40.8951 94.296 41.4794C93.7136 41.8453 93.0772 42.2116 92.3869 42.5761C88.2045 44.843 84.1301 47.2746 80.1649 49.8702C78.4193 50.894 76.8555 52.1357 75.473 53.5982C74.0174 55.17 74.0722 56.5598 75.6364 57.7663C76.5463 58.4978 77.5557 59.0088 78.6652 59.3018C79.7747 59.5941 81.0027 59.7399 82.3475 59.7399C83.9122 59.8505 85.3666 59.5572 86.7117 58.8626C88.0586 58.1681 89.2959 57.1263 90.4223 55.7372C91.1136 54.8234 91.7677 53.8732 92.3869 52.8854C94.2043 49.8887 95.6775 46.7626 96.8054 43.5081ZM95.1684 34.6793C95.605 34.8634 96.2322 34.707 97.0509 34.213C97.8688 33.7192 98.7054 33.0346 99.5612 32.1566C100.415 31.2793 101.097 30.3844 101.606 29.4693C102.116 28.5562 102.242 27.7881 101.988 27.1676C101.915 26.9848 101.806 26.8201 101.661 26.674C101.405 26.3447 101.116 26.19 100.788 26.2078C100.46 26.2266 100.115 26.2896 99.7509 26.3994C98.5502 26.8749 97.4872 27.6971 96.5595 28.8666C95.6326 30.0369 95.0131 31.1976 94.7042 32.349C94.3947 33.5004 94.5493 34.2778 95.1684 34.6793Z" fill="#0B0B0B"/>
<path d="M114.319 39.0671C112.755 39.0671 111.972 38.2449 111.972 36.5988C111.972 34.589 113.264 31.0433 115.847 25.9614C115.955 25.7419 116.137 25.6324 116.392 25.6324C117.446 25.6324 117.973 26.0531 117.973 26.8931C117.973 27.1868 117.882 27.5512 117.7 27.9901C117.627 28.0992 116.755 30.2929 115.083 34.5698C114.828 35.265 114.7 35.7764 114.7 36.1052C114.7 36.4712 114.864 36.6539 115.192 36.6539C116.392 36.6539 119.556 33.6385 124.685 27.606C125.341 26.8027 125.994 26.3998 126.649 26.3998C127.595 26.3998 128.067 26.7476 128.067 27.4414C128.067 27.6978 127.777 28.7031 127.195 30.4572C126.394 32.8341 125.994 34.2049 125.994 34.5694C125.994 35.1181 126.176 35.3922 126.54 35.3922C127.448 35.3922 130.104 33.7657 134.506 30.5109C134.759 30.2923 134.977 30.1824 135.161 30.1824C135.561 30.1824 135.761 30.5304 135.761 31.2243C135.761 31.4077 135.706 31.5535 135.597 31.6631C133.269 33.6736 131.287 35.2095 129.649 36.2692C128.158 37.2208 126.83 37.6958 125.667 37.6958H125.34C123.63 37.3307 122.775 35.9957 122.775 33.6918C120.956 35.3009 119.447 36.5977 118.247 37.5859C117.046 38.5731 115.736 39.0671 114.319 39.0671Z" fill="#0B0B0B"/>
<path d="M146.072 31.6078C146.618 31.0591 147.072 30.7494 147.436 30.6758C147.8 30.6029 148.036 30.6576 148.145 30.8397C148.254 31.0231 148.181 31.2785 147.927 31.6078C146.471 33.3624 144.845 34.8797 143.044 36.1591C141.244 37.4393 139.389 38.1797 137.479 38.3802C135.57 38.5815 134.415 37.5299 134.015 35.2271C133.724 32.9609 135.097 28.327 138.135 21.3267C141.17 14.3263 143.581 8.59543 145.364 4.13513C145.508 3.7333 145.726 3.38623 146.018 3.09286C146.418 2.69103 146.891 2.59893 147.437 2.81869C147.619 2.8923 147.8 3.01996 147.982 3.20274C148.164 3.38587 148.219 3.71481 148.146 4.18989C140.325 22.8341 136.543 32.9694 136.798 34.5959C137.052 36.2232 138.098 36.6247 139.935 35.8032C141.771 34.9803 143.189 34.1389 144.191 33.2798C145.19 32.4218 145.816 31.8642 146.072 31.6078Z" fill="#0B0B0B"/>
<defs>
<linearGradient id="paint0_linear_4597_1101" x1="6.84958" y1="-7.71295" x2="38.1159" y2="58.24" gradientUnits="userSpaceOnUse">
<stop stop-color="#EDCE69"/>
<stop offset="1" stop-color="#B38E4F"/>
</linearGradient>
</defs>
</svg>
