<svg width="111" height="28" viewBox="0 0 111 28" fill="none" xmlns="http://www.w3.org/2000/svg">
<path d="M59.7217 17.22C59.0961 22.1038 55.4125 26.3575 50.9828 27.3907C45.6773 28.6325 40.6174 26.8811 37.8929 22.3818C33.7134 15.4778 33.5373 8.26798 36.9986 0.970101C37.1654 0.627216 37.411 0.312133 37.55 0.145325H42.4199C40.08 3.551 39.1254 7.21616 39.1254 10.9833C39.1254 13.1703 39.4498 15.3898 40.0104 17.6139C40.4877 19.5044 41.4747 21.154 42.9528 22.4699C46.3816 25.528 51.5944 24.9535 54.1475 21.1308C55.0696 19.7546 55.6441 18.1421 56.4411 16.4926C57.4976 16.7289 58.6143 16.9745 59.7217 17.22Z" fill="black"/>
<path d="M27.2905 0.145325C26.7947 1.51223 26.3453 2.76329 25.8912 4.00509C23.1806 11.4559 20.3633 19.1569 17.6759 26.6169L17.4535 27.2193L14.6548 27.1869L14.4092 26.5382C11.2167 17.8734 7.98243 9.22713 4.76673 0.571614C4.72503 0.460408 4.70649 0.335301 4.66016 0.145325H8.61723C10.9711 6.27091 13.5983 13.3695 15.9197 19.4951C16.0495 19.8473 16.1978 20.1902 16.4248 20.7462C16.6426 20.2365 16.7955 19.9168 16.916 19.5878C19.1493 13.5549 21.9295 6.21067 24.1165 0.145325H27.2905Z" fill="black"/>
<path d="M31.8263 0.145325H27.9805V27.1961H31.8263V0.145325Z" fill="black"/>
<path d="M3.85834 0.145325H0.698242V27.2008H3.85834V0.145325Z" fill="black"/>
<path d="M110.148 25.3474C110.157 26.478 109.277 27.3954 108.146 27.4279C106.96 27.4649 106.019 26.5567 106.01 25.3659C106.001 24.2446 106.89 23.3132 108.012 23.2715C109.17 23.2298 110.138 24.1705 110.148 25.3474Z" fill="black"/>
<path d="M59.9884 4.7789C58.5891 5.04765 57.3751 5.27469 56.2584 5.48784C55.3919 3.68538 54.5672 1.96169 53.6914 0.145325H58.0933C58.3574 0.784758 59.576 3.75025 59.9884 4.7789Z" fill="black"/>
<path d="M84.5193 6.91036C84.5379 7.07254 84.473 7.22544 84.3572 7.32738C84.3572 7.32738 84.3525 7.32738 84.3525 7.33202C84.2784 7.39225 84.1857 7.43859 84.0838 7.44785C84.0514 7.44785 84.0189 7.44785 83.9865 7.44785C83.5231 7.26251 83.5092 6.61844 83.4583 6.31726C83.0783 3.9356 82.7169 1.32227 80.1592 1.20643C78.1945 1.11839 76.3226 1.17399 75.5302 1.11839C75.5024 1.64662 75.4653 3.46298 75.4653 3.86147C75.4653 11.0296 75.4653 16.6084 75.4653 23.7766C75.4653 25.6068 75.5024 26.098 76.5496 26.3528H78.8988C79.0934 26.3528 79.2463 26.5058 79.2463 26.7004C79.2463 26.895 79.0934 27.0479 78.8988 27.0479H78.7691L68.3343 27.0525H68.3296L68.2184 27.0479C68.0238 27.0479 67.8709 26.8903 67.8709 26.7004C67.8709 26.5104 68.0238 26.3528 68.2184 26.3528H70.9337C71.5314 26.1351 71.6241 25.6671 71.6241 24.4531C71.638 17.5907 71.6287 10.7284 71.6287 3.8661V1.18326H68.2184C67.4678 1.2018 66.4021 1.08132 65.3919 2.20728C64.9332 2.84208 64.2938 4.91329 63.8953 6.47017C63.8953 6.47017 63.7748 7.48492 63.2976 7.44785C63.0288 7.42932 62.8342 7.17911 62.862 6.91036L62.9825 5.7427L63.418 0.159241H83.917C84.107 2.28605 84.3062 4.3897 84.4776 6.50261V6.51651L84.5193 6.91036Z" fill="black"/>
<path d="M110.801 0.377003C110.801 0.594781 110.625 0.775491 110.407 0.775491H108.224C107.2 1.05351 107.052 1.77634 106.658 2.9023C106.149 4.36188 99.7543 22.9796 98.6422 26.6169C98.6422 26.6169 98.2993 27.8865 97.8545 27.8541C97.4097 27.8217 96.9417 26.5474 96.7332 25.959C94.1198 18.5128 91.4694 11.0759 88.9395 3.60197C88.4669 2.19336 87.8692 1.13228 86.7108 0.775491H84.7276C84.5098 0.775491 84.3291 0.594781 84.3291 0.377003C84.3291 0.288966 84.3569 0.210195 84.4079 0.145325H97.0529C97.1039 0.210195 97.1317 0.288966 97.1317 0.377003C97.1317 0.594781 96.9556 0.775491 96.7378 0.775491H94.6666C94.5369 0.780124 94.4118 0.789392 94.282 0.794025C92.0394 0.849628 91.9745 0.886697 92.6881 2.96717C94.6388 8.6572 96.6173 14.338 98.5866 20.0234C98.6422 20.1902 98.7256 20.3431 98.8924 20.723C99.5967 18.726 100.25 16.9328 100.862 15.1303C102.284 10.9601 103.707 6.78987 105.092 2.60575C105.518 1.31762 105.287 0.87743 104.101 0.775491H101.923C101.876 0.775491 101.835 0.76159 101.793 0.747689H101.733C101.733 0.747689 101.747 0.733789 101.751 0.729155C101.617 0.664285 101.529 0.534545 101.529 0.377003C101.529 0.288966 101.557 0.210195 101.608 0.145325H110.722C110.773 0.210195 110.801 0.288966 110.801 0.377003Z" fill="black"/>
</svg>
