<svg width="69" height="64" viewBox="0 0 69 64" fill="none" xmlns="http://www.w3.org/2000/svg">
<path d="M24.8057 0V35.8998C27.4867 35.5729 29.8408 35.3767 31.8679 35.3113V2.55026M37.557 22.0696V0H44.6192V35.8998" fill="url(#paint0_linear_4552_5117)"/>
<path d="M24.8057 0H31.8679L44.6192 35.8998C41.9382 35.5729 39.5187 35.3767 37.3608 35.3113" fill="white"/>
<path d="M46.06 45.6227V59.0091C47.7111 59.0859 49.358 59.1787 51.0003 59.2883V62.1264C48.4042 61.9533 45.7972 61.8212 43.1795 61.7312V45.6227H46.06ZM68.9501 45.6243L65.1993 54.3204L68.9492 63.9975L68.945 63.9993C67.8527 63.8435 66.7589 63.6964 65.6619 63.5553L63.5561 58.124L61.4302 63.0511C60.4227 62.9399 59.4139 62.8346 58.4027 62.736L62.0594 54.2622L58.7105 45.6243H61.8266L63.7016 50.4582L65.7865 45.6243H68.9501ZM33.2934 61.5905L33.2933 45.6242H41.3342V48.4878H36.1739V52.1991H40.0784V55.0372H36.1739V61.5898L33.2934 61.5905ZM22.5375 48.488L22.5374 45.6241H31.4468V48.4878H28.4323V61.6682C27.4708 61.6933 26.5104 61.7232 25.5519 61.7593V48.488H22.5375ZM12.6901 62.5844V45.6245H20.6909V48.4881H15.5702V52.3671C16.7466 52.352 18.4193 52.335 19.46 52.3375V55.1758C18.1573 55.1596 16.6869 55.1936 15.5702 55.2048V59.5016C17.2721 59.3677 18.9792 59.2506 20.6909 59.1517V61.9901C18.0119 62.1444 15.3448 62.3432 12.6901 62.5844ZM7.03951 56.0234L7.03932 45.6241H9.91988V62.852C8.86687 62.9603 7.81585 63.0755 6.76666 63.1972L3.43116 53.6148V63.6077C2.46913 63.733 1.50907 63.8636 0.550781 64V45.6243H3.28825L7.03951 56.0234ZM53.3766 62.2976V45.6243H56.2572V62.5355C55.2983 62.4501 54.3384 62.3712 53.3766 62.2976Z" fill="white"/>
<defs>
<linearGradient id="paint0_linear_4552_5117" x1="30.5516" y1="21.8989" x2="40.3386" y2="19.0695" gradientUnits="userSpaceOnUse">
<stop stop-color="white"/>
<stop offset="0.5"/>
<stop offset="1" stop-color="white"/>
</linearGradient>
</defs>
</svg>
