<svg width="104" height="64" viewBox="0 0 104 64" fill="none" xmlns="http://www.w3.org/2000/svg">
<path d="M44.498 1.16546C46.9172 0.378131 49.4366 -0.00837503 51.9847 0.00593999C57.0236 -0.10858 62.0625 1.43744 66.2425 4.24319C77.8663 12.0306 80.9869 27.7628 73.1996 39.3865C72.9848 39.7015 72.7701 40.0164 72.5411 40.317C71.854 40.0021 71.2384 39.544 70.7517 38.9714C68.4899 36.18 66.2138 33.4172 63.8089 30.7546C63.2077 30.0675 62.5062 29.4519 61.6617 29.0941C61.2608 28.8793 60.7312 28.7791 60.5165 28.321C59.1136 25.8445 57.7107 23.3824 56.3078 20.9202C55.7925 20.0756 55.406 19.1165 54.6616 18.4437C54.1176 17.9713 53.5164 17.5848 52.9295 17.1696C52.6718 16.9835 52.2996 16.9979 52.0563 17.1983C51.5839 17.5562 51.0256 17.8424 50.6964 18.3578C50.0522 19.2596 49.408 20.1472 48.7638 21.0633C48.3773 21.6359 47.6759 21.8936 47.2607 22.4376C44.8988 25.4437 42.5368 28.4499 40.1605 31.4417C40.003 31.6564 39.8313 31.8568 39.6452 32.0429C39.273 32.2577 38.8006 32.3292 38.5429 32.7014C37.0255 34.6483 35.5081 36.5808 33.9907 38.5276C33.4324 39.315 32.6881 39.9448 31.8148 40.3457C23.5121 29.0797 25.9028 13.2187 37.1544 4.91599C39.3875 3.26976 41.864 1.99573 44.498 1.16546ZM52.1851 2.52538C52.0133 3.06935 51.8416 3.61333 51.6555 4.14298H49.952C50.4101 4.48654 50.8825 4.81579 51.3405 5.14503C51.1687 5.689 50.9827 6.23297 50.8109 6.77694C51.269 6.4477 51.727 6.10414 52.1994 5.77489C52.6575 6.10414 53.1156 6.4477 53.588 6.77694C53.4162 6.23297 53.2301 5.689 53.0583 5.14503C53.5164 4.81579 53.9888 4.47223 54.4469 4.14298H52.7291C52.5287 3.61333 52.3569 3.06935 52.1851 2.52538ZM45.1564 3.64196C45.1564 4.21456 45.1564 4.78716 45.1564 5.34544C44.6268 5.53154 44.0828 5.67469 43.5675 5.88941C44.0971 6.06119 44.6268 6.23297 45.1564 6.40475C45.1564 6.97735 45.1564 7.54995 45.1564 8.10824L46.1585 6.734C46.7025 6.90578 47.2464 7.09187 47.7904 7.26365C47.4612 6.80557 47.1176 6.34749 46.7884 5.8751C47.1176 5.41702 47.4612 4.95894 47.7904 4.48654L46.1585 5.0162C45.8149 4.55812 45.4857 4.10004 45.1564 3.64196ZM59.2138 3.64196C58.8702 4.10004 58.541 4.55812 58.2117 5.03051L56.5941 4.50086C56.9234 4.95894 57.2669 5.41702 57.5962 5.88941C57.2669 6.34749 56.9234 6.80557 56.5941 7.27797C57.1381 7.10619 57.6821 6.92009 58.2261 6.74831C58.5696 7.20639 58.8989 7.66447 59.2281 8.13687C59.2281 7.56427 59.2281 6.99167 59.2281 6.41907C59.7434 6.23297 60.3017 6.11845 60.7884 5.8751C60.2731 5.70332 59.7434 5.53154 59.2281 5.35976C59.2138 4.77284 59.2138 4.20024 59.2138 3.64196ZM38.8149 6.86283C38.9867 7.4068 39.1728 7.95077 39.3445 8.49474C38.8865 8.8383 38.4284 9.16755 37.9703 9.4968C38.5429 9.4968 39.1155 9.4968 39.6881 9.4968C39.8599 10.0408 40.0317 10.5847 40.2178 11.1287C40.4039 10.5847 40.5756 10.0408 40.7474 9.4968C41.32 9.4968 41.8783 9.4968 42.4509 9.4968C41.9928 9.15324 41.5347 8.82399 41.0767 8.49474C41.2484 7.95077 41.4345 7.4068 41.6063 6.86283C41.1482 7.19208 40.6758 7.53564 40.2178 7.86488L38.8149 6.86283ZM62.7925 6.86283C62.9643 7.4068 63.1504 7.95077 63.3222 8.49474C62.8641 8.8383 62.406 9.16755 61.948 9.4968C62.5206 9.4968 63.0788 9.4968 63.6514 9.4968C63.8232 10.0408 64.0093 10.5847 64.1811 11.1287C64.3529 10.5847 64.539 10.0551 64.6964 9.51111C65.269 9.4968 65.8416 9.51111 66.4142 9.4968C65.9562 9.16755 65.4981 8.82399 65.04 8.49474C65.2118 7.95077 65.3979 7.4068 65.5697 6.86283C65.1116 7.19208 64.6535 7.53564 64.1954 7.86488C63.7087 7.53564 63.2506 7.19208 62.7925 6.86283ZM35.4079 12.4457L33.7903 11.916C34.1196 12.3741 34.4631 12.8322 34.7924 13.3046C34.4631 13.7627 34.1196 14.2208 33.7903 14.6931L35.4222 14.1635C35.7515 14.6216 36.095 15.0797 36.4243 15.5377V13.8199L38.0419 13.2903C37.4979 13.1042 36.9539 12.9324 36.4243 12.7606C36.4243 12.188 36.4243 11.6297 36.4243 11.0571C36.0664 11.5152 35.7372 11.9733 35.4079 12.4457ZM67.9603 11.0571C67.9603 11.6297 67.9603 12.188 67.9603 12.7606C67.4163 12.9324 66.8723 13.1185 66.3284 13.2903C66.8723 13.4621 67.4163 13.6481 67.9603 13.8199C67.9603 14.3925 67.9603 14.9508 67.9603 15.5234C68.2895 15.0653 68.6331 14.6073 68.9623 14.1492L70.5799 14.6788C70.2507 14.2207 69.9071 13.7627 69.5779 13.2903C69.9071 12.8322 70.2507 12.3741 70.5799 11.9017L68.948 12.4314C68.6188 11.9733 68.2895 11.5152 67.9603 11.0571ZM71.5676 16.6257C71.3959 17.1696 71.2098 17.6993 71.0523 18.2433C70.4797 18.2719 69.9071 18.2576 69.3345 18.2576L70.7231 19.2596C70.5513 19.8036 70.3652 20.3476 70.1934 20.8915C70.6515 20.5623 71.1096 20.2187 71.5676 19.8895C72.04 20.2187 72.4981 20.5623 72.9562 20.8915C72.7844 20.3476 72.5983 19.8036 72.4265 19.2596C72.8846 18.9304 73.357 18.5868 73.8151 18.2576H72.1116C71.9255 17.7136 71.7537 17.1696 71.5676 16.6257ZM32.2586 18.2576H30.5551C31.0132 18.6011 31.4713 18.9304 31.9294 19.2596C31.7576 19.8036 31.5715 20.3476 31.3997 20.8915C31.8578 20.5623 32.3159 20.2187 32.774 19.8895C33.232 20.2187 33.6901 20.5623 34.1625 20.8915C33.9907 20.3476 33.8046 19.8036 33.6329 19.2596C34.0909 18.9304 34.549 18.5868 35.0071 18.2576C34.4345 18.2576 33.8762 18.2576 33.3036 18.2576C33.1175 17.7136 32.9457 17.1696 32.774 16.6257C32.6022 17.1696 32.4304 17.7136 32.2586 18.2576ZM72.2834 24.4417C71.7537 24.2556 71.2098 24.0838 70.6658 23.912L71.6678 25.2863C71.3386 25.7443 70.995 26.2024 70.6658 26.6748C71.2098 26.503 71.7394 26.3169 72.2834 26.1452C72.627 26.6032 72.9562 27.0756 73.2998 27.5337V25.8159C73.8437 25.6441 74.3734 25.458 74.9174 25.2863C74.3734 25.1002 73.8437 24.9284 73.2998 24.7566C73.2998 24.184 73.2998 23.6114 73.2998 23.0388C72.9562 23.4969 72.627 23.9836 72.2834 24.4417ZM31.0418 23.0388C31.0418 23.6114 31.0275 24.1697 31.0418 24.7423C30.4979 24.9427 29.9539 25.1002 29.4099 25.2863C29.9539 25.458 30.4836 25.6441 31.0275 25.8159C31.0275 26.3885 31.0275 26.9611 31.0275 27.5194C31.3711 27.0613 31.7003 26.6032 32.0296 26.1452L33.6472 26.6748C33.3179 26.2167 32.9744 25.7443 32.6451 25.2863C32.9744 24.8282 33.3179 24.3701 33.6472 23.8977C33.1032 24.0695 32.5592 24.2556 32.0296 24.4274C31.7003 23.9693 31.3711 23.5112 31.0418 23.0388ZM31.3854 29.681C31.5572 30.2249 31.729 30.7546 31.9151 31.2986C31.457 31.6564 30.9846 31.9857 30.5265 32.3149H32.2443C32.4161 32.8589 32.6022 33.4029 32.774 33.9468C32.9457 33.4029 33.1175 32.8589 33.3036 32.3149H35.0071C34.549 31.9714 34.0766 31.6421 33.6185 31.2986C33.7903 30.7546 33.9764 30.2249 34.1482 29.681C33.6901 30.0102 33.232 30.3538 32.7596 30.683C32.3159 30.3538 31.8435 30.0245 31.3854 29.681ZM70.1791 29.681C70.3509 30.2249 70.537 30.7689 70.7087 31.3129C70.2507 31.6421 69.7783 31.9857 69.3202 32.3149H71.0237C71.2098 32.8589 71.3816 33.4029 71.5533 33.9468C71.7251 33.4029 71.9112 32.8589 72.083 32.3149H73.7865C73.3284 31.9857 72.8703 31.6421 72.3979 31.3129C72.5697 30.7689 72.7558 30.2249 72.9276 29.681C72.4695 30.0102 72.0114 30.3538 71.539 30.683C71.0953 30.3538 70.6372 30.0245 70.1791 29.681ZM49.8947 25.3292C50.8538 23.1533 51.7843 20.9488 52.7434 18.7729C53.3303 19.1594 53.9315 19.5746 54.2751 20.2044C55.5062 22.3803 56.7516 24.5705 57.997 26.7464C58.8416 28.1922 59.6289 29.681 60.5021 31.0982C60.6167 30.7975 60.5737 30.4683 60.5737 30.1677C61.2752 30.454 61.948 30.8262 62.4633 31.3988C65.1116 34.2618 67.5451 37.3252 70.0503 40.317C68.132 40.3027 66.1995 40.2884 64.2813 40.1882C63.6514 39.1861 63.1218 38.1411 62.3774 37.2107C61.7762 36.4377 61.1749 35.679 60.5165 34.9489C60.2874 34.7485 60.0441 35.092 60.1729 35.3068C60.5594 36.4233 61.0032 37.5113 61.3897 38.6135C61.5471 39.043 61.5471 39.5011 61.3754 39.9305C59.6003 39.7444 57.8252 39.4438 56.0788 39.0573C56.1504 39.4724 56.2076 39.8876 56.2792 40.3027C54.7904 40.3027 53.316 40.3027 51.8272 40.3027C51.4407 38.8569 51.9418 37.3824 52.3998 36.0082C52.7577 35.0348 53.1585 34.0757 53.6023 33.1309C52.6575 32.7014 51.6411 32.3722 50.5961 32.3436C49.6657 32.3149 48.7352 32.3436 47.819 32.3292C48.6923 30.2965 49.5798 28.2638 50.453 26.231C50.6534 25.8302 50.2955 25.4151 49.8947 25.3292ZM47.0603 28.5787C47.4612 28.2065 47.7904 27.7771 48.2342 27.4621C48.2485 27.6196 48.2055 27.7771 48.1483 27.9059C47.5757 29.094 47.0031 30.2822 46.4448 31.4703C46.2014 31.9714 46.1442 32.7301 46.7597 32.9877C46.545 33.6892 46.2014 34.3333 45.9295 35.0205C45.4141 35.092 44.9274 35.3068 44.5266 35.6503C43.4816 36.4949 42.7229 37.6401 41.9928 38.7424C41.6349 38.5849 41.3916 38.1411 41.6206 37.769C42.1073 36.8814 42.6513 36.0368 43.1667 35.1493C43.3098 34.9775 43.181 34.8057 43.0235 34.7055C43.7679 33.4744 44.5123 32.2434 45.2566 30.9979C45.7863 30.1677 46.316 29.2801 47.0603 28.5787ZM7.47932 43.7383C9.99877 41.5624 13.3485 40.5317 16.6266 40.3457C18.9743 40.2311 21.4078 40.4602 23.5694 41.4193C24.915 42.0205 26.1461 43.0082 26.733 44.3825C27.4058 46.0144 27.1911 47.8754 26.1891 49.3212C25.2013 50.724 23.6839 51.6402 22.1236 52.2701C20.8782 52.7568 19.5898 53.086 18.2728 53.2578C17.6287 55.5196 16.6409 57.7098 15.1808 59.5707C13.3914 61.9041 10.7002 63.5932 7.75131 63.9225C6.06214 64.0656 4.25845 64.0943 2.74105 63.2497C1.72469 62.7057 0.965993 61.6607 0.880103 60.5012C0.865788 59.9859 0.808527 59.4132 1.08051 58.9409C1.40976 58.3683 2.39749 58.3253 2.71243 58.9265C2.89852 59.2558 2.76968 59.6423 2.74105 60.0002C2.58359 61.0452 2.98441 62.219 3.88626 62.8345C4.81673 63.493 6.03351 63.5217 7.12145 63.3928C8.61021 63.2067 9.95582 62.4194 10.9865 61.3458C12.3035 59.9572 13.2053 58.2537 14.0356 56.5359C15.281 53.902 16.3117 51.1535 17.7861 48.6484C18.7596 47.0021 19.9763 45.4704 21.6082 44.4541L21.7943 44.6831C20.0622 46.9592 19.3035 49.7649 18.5162 52.4562C20.6348 52.2557 22.5244 51.0676 23.598 49.2353C24.3567 47.9326 24.6001 46.4009 24.2708 44.9265C24.0275 43.8099 23.369 42.8222 22.4099 42.178C21.1502 41.3334 19.6041 41.0471 18.1011 40.9898C15.2667 40.8467 12.4609 41.634 10.099 43.223C8.28096 44.4684 6.84946 46.3723 6.46296 48.5768C6.20529 50.0083 6.26255 51.6116 7.12145 52.8427C8.16644 54.3457 10.6429 54.4173 11.8168 53.0574C12.4037 52.3989 12.6184 51.4827 12.5898 50.6095C12.5182 49.8079 13.8925 49.6361 14.1072 50.3662C14.236 51.6116 13.6777 52.814 12.6614 53.5298C11.5305 54.3314 10.0847 54.5175 8.73905 54.3744C7.59384 54.2598 6.42001 53.8304 5.63269 52.9429C4.75947 51.9694 4.43023 50.6238 4.53043 49.3498C4.63064 47.1739 5.8331 45.1412 7.47932 43.7383ZM98.0075 46.1576H100.484C99.7969 47.7608 99.0954 49.3641 98.4083 50.9674C100.155 50.9674 101.887 50.9674 103.633 50.9674C103.347 51.6402 103.061 52.313 102.76 52.9858C101.028 52.9715 99.2958 53.0001 97.5637 52.9715C96.8336 54.5605 96.1752 56.1781 95.4594 57.7957H92.9829C93.67 56.1924 94.3715 54.5891 95.0586 52.9858H89.8336C90.1199 52.313 90.4062 51.6402 90.7068 50.9674H95.9318C96.6189 49.3641 97.3204 47.7608 98.0075 46.1576ZM84.7088 50.9674C85.1812 49.9081 85.6536 48.8345 86.1117 47.7751H88.3735C87.9154 48.8345 87.443 49.9081 86.9849 50.9674C87.4716 50.9674 87.9583 50.9674 88.4594 50.9674C88.3592 51.1964 88.2589 51.4255 88.1587 51.6545C87.6577 51.6545 87.171 51.6545 86.67 51.6545C85.9113 53.3866 85.1383 55.1331 84.3796 56.8652C84.1076 57.5666 83.807 58.2681 83.6925 59.0268C83.6352 59.3989 83.6352 59.9143 84.0217 60.1147C84.4368 60.3151 84.9379 60.1576 85.3244 59.9429C86.1833 59.3989 86.7988 58.583 87.3857 57.7813L87.7866 58.1679C87.0135 59.2701 86.126 60.401 84.852 60.945C83.9788 61.2885 82.8049 61.3744 82.1178 60.63C81.4593 59.8427 81.6311 58.7261 81.9031 57.8243C81.2016 58.7261 80.3141 59.585 79.1975 59.9429C78.6106 60.1147 77.8233 60.1004 77.4654 59.5278C77.1076 58.9122 77.3223 58.1822 77.5227 57.5523C78.1239 56.0349 78.9112 54.5891 79.5697 53.086C79.6986 52.8284 79.7845 52.542 79.8131 52.2414C79.6556 51.7977 79.0973 52.0267 78.8254 52.2128C77.9521 52.8284 77.4511 53.8018 76.9644 54.7179C76.1341 56.4214 75.4184 58.1822 74.6454 59.9143H72.355C72.584 59.3989 72.813 58.8836 73.0278 58.3683C72.4265 59.0697 71.7537 59.8141 70.8376 60.0574C70.3509 60.172 69.7496 60.1863 69.4061 59.7711C69.0339 59.2701 69.1341 58.5973 69.2343 58.0104C68.5901 58.855 67.7885 59.6137 66.7864 59.9859C66.1709 60.2149 65.3406 60.1576 64.9684 59.5564C64.5819 58.9265 64.7966 58.1392 65.0114 57.4807C65.541 56.2353 66.1279 55.0185 66.7149 53.7875C66.1852 54.0308 65.5697 54.0738 65.0114 53.8877C64.8253 55.219 64.3529 56.4787 63.6371 57.6096C62.8927 58.7834 61.7475 59.7854 60.3447 60.0574C59.4858 60.2149 58.5124 60.1863 57.7966 59.628C57.1954 59.1556 56.9806 58.3539 56.9806 57.6096C56.2649 58.54 55.4919 59.5421 54.3467 59.9572C53.7168 60.1576 52.8722 60.2006 52.4142 59.6423C51.9704 59.0411 52.2281 58.2394 52.4714 57.5952C53.1585 56.1065 53.86 54.632 54.5471 53.1576C54.6759 52.857 54.8048 52.5134 54.7189 52.1985C54.6044 52.0267 54.3896 52.0553 54.2178 52.0983C53.7741 52.2128 53.4305 52.542 53.1299 52.8713C52.4857 53.6157 52.0563 54.4889 51.6698 55.3907C50.997 56.9081 50.3385 58.4112 49.6657 59.9286H47.318C48.3201 57.5809 49.3507 55.2333 50.3528 52.8856C50.4244 52.6423 50.6105 52.2844 50.3385 52.0983C49.8947 52.0124 49.5225 52.356 49.2076 52.6136C47.8763 53.8447 47.318 55.6055 46.5736 57.2087C46.1728 58.1106 45.7863 58.9981 45.3855 59.9H43.1094C43.3241 59.3846 43.5532 58.8693 43.7822 58.3683C43.2239 58.9981 42.6513 59.6852 41.8354 59.9572C41.3057 60.129 40.6329 60.129 40.2464 59.6709C39.8885 59.2701 39.8885 58.6832 39.9458 58.1822C39.3446 58.9122 38.6288 59.628 37.7126 59.9429C37.0255 60.1576 36.1523 60.0861 35.6942 59.4705C35.2791 58.8693 35.3363 58.0963 35.4652 57.4092C35.7515 56.1208 36.4529 54.9613 37.2116 53.902C36.7249 54.174 36.1952 54.4459 35.6226 54.403C35.322 54.3887 35.0071 54.2169 34.9498 53.902C34.821 53.4009 35.1932 52.9858 35.2791 52.5277C34.9212 52.585 34.7065 52.8856 34.4918 53.1433C33.8619 53.9306 33.4468 54.8754 33.0459 55.7916C32.4447 57.1658 31.8435 58.5257 31.2422 59.9H29.0234C29.2381 59.3846 29.4672 58.8693 29.6962 58.3539C29.095 59.0411 28.3936 59.6852 27.506 59.9715C27.0193 60.1147 26.4324 60.1147 26.0602 59.7425C25.7167 59.3703 25.7167 58.812 25.8025 58.3396C25.2156 59.0983 24.4569 59.7854 23.4978 60.0002C22.8823 60.129 22.1665 60.0717 21.7084 59.5993C21.2217 59.084 21.2361 58.3253 21.3363 57.6668C21.5796 56.3355 22.2667 55.1331 23.0397 54.0308C23.9416 52.6995 25.2299 51.6831 26.733 51.1249C27.8639 50.7097 29.1236 50.7384 30.2975 50.9817C30.5122 51.0533 30.9846 51.1535 30.8557 51.4684C29.9825 53.5298 29.0234 55.5768 28.1645 57.6525C28.0786 57.9818 27.821 58.3969 28.0786 58.6975C28.5081 58.812 28.866 58.4255 29.1523 58.1535C30.1686 57.0513 30.8701 55.6913 31.457 54.3314C31.958 53.2005 32.459 52.0696 32.96 50.9531H35.0071C34.8067 51.4255 34.6206 51.8979 34.4202 52.3846C35.0214 51.7404 35.6799 51.0962 36.5531 50.8386C36.8824 50.7527 37.4263 50.724 37.5265 51.1535C37.6267 51.9408 36.9539 52.542 36.7678 53.2578L36.8108 53.3723C37.3834 53.4725 37.8701 52.9715 38.3139 52.6709C39.4877 51.6545 40.9478 50.8529 42.5368 50.8099C43.2382 50.8099 43.9683 50.8386 44.6411 51.0533C44.8272 51.1105 45.1278 51.268 44.9847 51.5114C44.2689 53.1576 43.5388 54.7895 42.8231 56.4357C42.5654 57.037 42.2648 57.6382 42.1503 58.2967C42.1073 58.4541 42.1932 58.6116 42.3507 58.6546C42.3793 58.6546 42.408 58.6689 42.4223 58.6689C42.8374 58.6259 43.138 58.311 43.41 58.0247C44.3977 56.9368 45.0706 55.6055 45.6432 54.2598C46.1299 53.1719 46.6166 52.084 47.089 50.9817C47.7904 50.9817 48.4775 50.9817 49.179 50.9817C48.9929 51.4541 48.7925 51.9408 48.592 52.4132C49.2792 51.6688 50.1238 50.9674 51.1688 50.8242C51.5982 50.7813 52.1279 50.7956 52.4285 51.1535C52.7291 51.5114 52.6575 51.9981 52.6432 52.4132C53.4592 51.5257 54.5757 50.7956 55.8211 50.7956C56.3508 50.7813 56.8948 51.1249 57.0093 51.6688C57.1381 52.4418 56.7802 53.1576 56.5083 53.859C55.95 55.1474 55.2915 56.4071 54.7332 57.6955C54.6473 57.9674 54.4469 58.2967 54.633 58.583C54.905 58.7404 55.2056 58.5544 55.4489 58.4112C56.0788 57.9531 56.5083 57.2803 56.9377 56.6505C57.2526 56.2067 57.3528 55.6484 57.5676 55.1474C58.0972 53.902 58.7557 52.6566 59.8293 51.7977C60.7884 51.0103 62.1197 50.6238 63.3508 50.8672C64.1811 51.0533 64.811 51.6975 64.9684 52.5277C65.04 52.7854 65.0114 53.1433 65.3263 53.2578C65.8416 53.4868 66.4572 53.2864 66.858 52.9286C67.4449 52.3989 67.7312 51.6402 68.0462 50.9531C68.8192 50.9388 69.5779 50.9531 70.3509 50.9531C69.3345 53.2149 68.2752 55.448 67.2731 57.7098C67.1872 57.9961 66.9725 58.3683 67.2302 58.6116C67.6453 58.7691 68.0462 58.4112 68.3468 58.1535C69.3631 57.1515 70.0646 55.8631 70.6085 54.5462C71.1239 53.3437 71.6535 52.1412 72.1689 50.9388C72.9419 50.9388 73.7149 50.9388 74.4879 50.9388C73.4859 53.2578 72.4552 55.5768 71.4818 57.9102C71.4102 58.1392 71.267 58.4398 71.4674 58.6259C71.9255 58.7405 72.2977 58.3253 72.5983 58.039C74.402 56.0206 75.2323 53.4009 76.3489 50.9817C77.0646 50.9817 77.7804 50.9817 78.4961 50.9817C78.31 51.4255 78.1382 51.8549 77.9521 52.2987C78.7967 51.4398 79.9562 50.5809 81.2446 50.8672C82.0319 51.0247 82.3468 51.9551 82.1035 52.6423C81.5166 54.5175 80.4 56.1781 79.7415 58.039C79.6986 58.2108 79.6127 58.4398 79.7415 58.5973C80.0421 58.7548 80.3714 58.5544 80.6004 58.3826C81.1444 57.9674 81.5595 57.4235 81.9317 56.8652C83.0483 55.2619 83.7068 53.4153 84.537 51.6688H83.4205C83.5207 51.4398 83.6352 51.2108 83.7354 50.9817C83.9931 50.9817 84.351 50.9817 84.7088 50.9674ZM25.2299 53.9879C24.5142 55.1188 23.8557 56.3212 23.5551 57.6382C23.5121 57.9531 23.3833 58.4398 23.7555 58.6116C24.2565 58.7834 24.7432 58.4398 25.0868 58.0963C25.9171 57.2517 26.4754 56.1781 26.9907 55.1188C27.5347 53.9306 28.0643 52.7425 28.5797 51.54C27.0766 51.6116 25.9743 52.7997 25.2299 53.9879ZM39.23 54.1167C38.5429 55.219 37.913 56.3785 37.6411 57.6525C37.5838 57.9674 37.4979 58.4541 37.8701 58.6116C38.3854 58.7834 38.8722 58.4255 39.2157 58.082C40.0174 57.2517 40.5613 56.1924 41.048 55.1617C41.592 53.9592 42.136 52.7425 42.6656 51.54C41.1196 51.6116 40.003 52.8856 39.23 54.1167ZM62.2629 51.6545C61.676 51.9694 61.3181 52.5564 60.9602 53.086C60.0154 54.5605 59.3283 56.1781 58.9418 57.8815C58.8702 58.3396 58.7271 59.0267 59.2567 59.2558C59.8723 59.4276 60.3876 58.9265 60.7312 58.4685C61.7332 57.0656 62.4204 55.448 62.9214 53.8161C63.0645 53.2149 63.2793 52.585 63.1504 51.9551C63.0645 51.5543 62.5778 51.4684 62.2629 51.6545Z" fill="white"/>
</svg>
