<svg width="104" height="64" viewBox="0 0 104 64" fill="none" xmlns="http://www.w3.org/2000/svg">
<path d="M44.4989 1.16546C46.9182 0.378131 49.4376 -0.00837503 51.9857 0.00593999C57.0246 -0.10858 62.0635 1.43744 66.2434 4.24319C77.8672 12.0306 80.9879 27.7628 73.2005 39.3865C72.9858 39.7015 72.7711 40.0164 72.542 40.317C71.8549 40.0021 71.2394 39.544 70.7527 38.9714C68.4909 36.18 66.2148 33.4172 63.8099 30.7546C63.2087 30.0675 62.5072 29.4519 61.6626 29.0941C61.2618 28.8793 60.7322 28.7791 60.5174 28.321C59.1146 25.8445 57.7117 23.3824 56.3088 20.9202C55.7935 20.0756 55.407 19.1165 54.6626 18.4437C54.1186 17.9713 53.5174 17.5848 52.9305 17.1696C52.6728 16.9835 52.3006 16.9979 52.0573 17.1983C51.5849 17.5562 51.0266 17.8424 50.6973 18.3578C50.0532 19.2596 49.409 20.1472 48.7648 21.0633C48.3783 21.6359 47.6769 21.8936 47.2617 22.4376C44.8997 25.4437 42.5378 28.4499 40.1615 31.4417C40.004 31.6564 39.8322 31.8568 39.6461 32.0429C39.2739 32.2577 38.8016 32.3292 38.5439 32.7014C37.0265 34.6483 35.5091 36.5808 33.9917 38.5276C33.4334 39.315 32.689 39.9448 31.8158 40.3457C23.5131 29.0797 25.9037 13.2187 37.1553 4.91599C39.3885 3.26976 41.865 1.99573 44.4989 1.16546ZM52.1861 2.52538C52.0143 3.06935 51.8425 3.61333 51.6564 4.14298H49.953C50.411 4.48654 50.8834 4.81579 51.3415 5.14503C51.1697 5.689 50.9836 6.23297 50.8119 6.77694C51.2699 6.4477 51.728 6.10414 52.2004 5.77489C52.6585 6.10414 53.1166 6.4477 53.589 6.77694C53.4172 6.23297 53.2311 5.689 53.0593 5.14503C53.5174 4.81579 53.9898 4.47223 54.4479 4.14298H52.7301C52.5297 3.61333 52.3579 3.06935 52.1861 2.52538ZM45.1574 3.64196C45.1574 4.21456 45.1574 4.78716 45.1574 5.34544C44.6278 5.53154 44.0838 5.67469 43.5685 5.88941C44.0981 6.06119 44.6278 6.23297 45.1574 6.40475C45.1574 6.97735 45.1574 7.54995 45.1574 8.10824L46.1595 6.734C46.7034 6.90578 47.2474 7.09187 47.7914 7.26365C47.4621 6.80557 47.1186 6.34749 46.7893 5.8751C47.1186 5.41702 47.4621 4.95894 47.7914 4.48654L46.1595 5.0162C45.8159 4.55812 45.4867 4.10004 45.1574 3.64196ZM59.2148 3.64196C58.8712 4.10004 58.542 4.55812 58.2127 5.03051L56.5951 4.50086C56.9244 4.95894 57.2679 5.41702 57.5972 5.88941C57.2679 6.34749 56.9244 6.80557 56.5951 7.27797C57.1391 7.10619 57.6831 6.92009 58.227 6.74831C58.5706 7.20639 58.8998 7.66447 59.2291 8.13687C59.2291 7.56427 59.2291 6.99167 59.2291 6.41907C59.7444 6.23297 60.3027 6.11845 60.7894 5.8751C60.2741 5.70332 59.7444 5.53154 59.2291 5.35976C59.2148 4.77284 59.2148 4.20024 59.2148 3.64196ZM38.8159 6.86283C38.9876 7.4068 39.1737 7.95077 39.3455 8.49474C38.8874 8.8383 38.4294 9.16755 37.9713 9.4968C38.5439 9.4968 39.1165 9.4968 39.6891 9.4968C39.8609 10.0408 40.0326 10.5847 40.2187 11.1287C40.4048 10.5847 40.5766 10.0408 40.7484 9.4968C41.321 9.4968 41.8793 9.4968 42.4519 9.4968C41.9938 9.15324 41.5357 8.82399 41.0776 8.49474C41.2494 7.95077 41.4355 7.4068 41.6073 6.86283C41.1492 7.19208 40.6768 7.53564 40.2187 7.86488L38.8159 6.86283ZM62.7935 6.86283C62.9653 7.4068 63.1514 7.95077 63.3232 8.49474C62.8651 8.8383 62.407 9.16755 61.9489 9.4968C62.5215 9.4968 63.0798 9.4968 63.6524 9.4968C63.8242 10.0408 64.0103 10.5847 64.1821 11.1287C64.3539 10.5847 64.5399 10.0551 64.6974 9.51111C65.27 9.4968 65.8426 9.51111 66.4152 9.4968C65.9571 9.16755 65.4991 8.82399 65.041 8.49474C65.2128 7.95077 65.3989 7.4068 65.5706 6.86283C65.1126 7.19208 64.6545 7.53564 64.1964 7.86488C63.7097 7.53564 63.2516 7.19208 62.7935 6.86283ZM35.4089 12.4457L33.7913 11.916C34.1205 12.3741 34.4641 12.8322 34.7934 13.3046C34.4641 13.7627 34.1205 14.2208 33.7913 14.6931L35.4232 14.1635C35.7525 14.6216 36.096 15.0797 36.4253 15.5377V13.8199L38.0429 13.2903C37.4989 13.1042 36.9549 12.9324 36.4253 12.7606C36.4253 12.188 36.4253 11.6297 36.4253 11.0571C36.0674 11.5152 35.7381 11.9733 35.4089 12.4457ZM67.9612 11.0571C67.9612 11.6297 67.9612 12.188 67.9612 12.7606C67.4173 12.9324 66.8733 13.1185 66.3293 13.2903C66.8733 13.4621 67.4173 13.6481 67.9612 13.8199C67.9612 14.3925 67.9612 14.9508 67.9612 15.5234C68.2905 15.0653 68.634 14.6073 68.9633 14.1492L70.5809 14.6788C70.2516 14.2207 69.9081 13.7627 69.5788 13.2903C69.9081 12.8322 70.2516 12.3741 70.5809 11.9017L68.949 12.4314C68.6197 11.9733 68.2905 11.5152 67.9612 11.0571ZM71.5686 16.6257C71.3968 17.1696 71.2107 17.6993 71.0533 18.2433C70.4807 18.2719 69.9081 18.2576 69.3355 18.2576L70.724 19.2596C70.5523 19.8036 70.3662 20.3476 70.1944 20.8915C70.6525 20.5623 71.1105 20.2187 71.5686 19.8895C72.041 20.2187 72.4991 20.5623 72.9572 20.8915C72.7854 20.3476 72.5993 19.8036 72.4275 19.2596C72.8856 18.9304 73.358 18.5868 73.8161 18.2576H72.1126C71.9265 17.7136 71.7547 17.1696 71.5686 16.6257ZM32.2596 18.2576H30.5561C31.0142 18.6011 31.4723 18.9304 31.9303 19.2596C31.7586 19.8036 31.5725 20.3476 31.4007 20.8915C31.8588 20.5623 32.3169 20.2187 32.7749 19.8895C33.233 20.2187 33.6911 20.5623 34.1635 20.8915C33.9917 20.3476 33.8056 19.8036 33.6338 19.2596C34.0919 18.9304 34.55 18.5868 35.0081 18.2576C34.4355 18.2576 33.8772 18.2576 33.3046 18.2576C33.1185 17.7136 32.9467 17.1696 32.7749 16.6257C32.6032 17.1696 32.4314 17.7136 32.2596 18.2576ZM72.2844 24.4417C71.7547 24.2556 71.2107 24.0838 70.6668 23.912L71.6688 25.2863C71.3396 25.7443 70.996 26.2024 70.6668 26.6748C71.2107 26.503 71.7404 26.3169 72.2844 26.1452C72.6279 26.6032 72.9572 27.0756 73.3007 27.5337V25.8159C73.8447 25.6441 74.3744 25.458 74.9183 25.2863C74.3744 25.1002 73.8447 24.9284 73.3007 24.7566C73.3007 24.184 73.3007 23.6114 73.3007 23.0388C72.9572 23.4969 72.6279 23.9836 72.2844 24.4417ZM31.0428 23.0388C31.0428 23.6114 31.0285 24.1697 31.0428 24.7423C30.4988 24.9427 29.9549 25.1002 29.4109 25.2863C29.9549 25.458 30.4845 25.6441 31.0285 25.8159C31.0285 26.3885 31.0285 26.9611 31.0285 27.5194C31.3721 27.0613 31.7013 26.6032 32.0306 26.1452L33.6482 26.6748C33.3189 26.2167 32.9753 25.7443 32.6461 25.2863C32.9753 24.8282 33.3189 24.3701 33.6482 23.8977C33.1042 24.0695 32.5602 24.2556 32.0306 24.4274C31.7013 23.9693 31.3721 23.5112 31.0428 23.0388ZM31.3864 29.681C31.5582 30.2249 31.7299 30.7546 31.916 31.2986C31.458 31.6564 30.9856 31.9857 30.5275 32.3149H32.2453C32.4171 32.8589 32.6032 33.4029 32.7749 33.9468C32.9467 33.4029 33.1185 32.8589 33.3046 32.3149H35.0081C34.55 31.9714 34.0776 31.6421 33.6195 31.2986C33.7913 30.7546 33.9774 30.2249 34.1492 29.681C33.6911 30.0102 33.233 30.3538 32.7606 30.683C32.3169 30.3538 31.8445 30.0245 31.3864 29.681ZM70.1801 29.681C70.3519 30.2249 70.5379 30.7689 70.7097 31.3129C70.2516 31.6421 69.7793 31.9857 69.3212 32.3149H71.0247C71.2107 32.8589 71.3825 33.4029 71.5543 33.9468C71.7261 33.4029 71.9122 32.8589 72.084 32.3149H73.7874C73.3294 31.9857 72.8713 31.6421 72.3989 31.3129C72.5707 30.7689 72.7568 30.2249 72.9285 29.681C72.4705 30.0102 72.0124 30.3538 71.54 30.683C71.0962 30.3538 70.6382 30.0245 70.1801 29.681ZM49.8957 25.3292C50.8548 23.1533 51.7853 20.9488 52.7444 18.7729C53.3313 19.1594 53.9325 19.5746 54.2761 20.2044C55.5072 22.3803 56.7526 24.5705 57.998 26.7464C58.8426 28.1922 59.6299 29.681 60.5031 31.0982C60.6176 30.7975 60.5747 30.4683 60.5747 30.1677C61.2761 30.454 61.9489 30.8262 62.4643 31.3988C65.1125 34.2618 67.5461 37.3252 70.0512 40.317C68.133 40.3027 66.2005 40.2884 64.2823 40.1882C63.6524 39.1861 63.1228 38.1411 62.3784 37.2107C61.7772 36.4377 61.1759 35.679 60.5174 34.9489C60.2884 34.7485 60.045 35.092 60.1739 35.3068C60.5604 36.4233 61.0041 37.5113 61.3906 38.6135C61.5481 39.043 61.5481 39.5011 61.3763 39.9305C59.6013 39.7444 57.8262 39.4438 56.0798 39.0573C56.1514 39.4724 56.2086 39.8876 56.2802 40.3027C54.7914 40.3027 53.317 40.3027 51.8282 40.3027C51.4417 38.8569 51.9427 37.3824 52.4008 36.0082C52.7587 35.0348 53.1595 34.0757 53.6033 33.1309C52.6585 32.7014 51.6421 32.3722 50.5971 32.3436C49.6667 32.3149 48.7362 32.3436 47.82 32.3292C48.6932 30.2965 49.5808 28.2638 50.454 26.231C50.6544 25.8302 50.2965 25.4151 49.8957 25.3292ZM47.0613 28.5787C47.4621 28.2065 47.7914 27.7771 48.2351 27.4621C48.2495 27.6196 48.2065 27.7771 48.1493 27.9059C47.5767 29.094 47.0041 30.2822 46.4458 31.4703C46.2024 31.9714 46.1452 32.7301 46.7607 32.9877C46.546 33.6892 46.2024 34.3333 45.9304 35.0205C45.4151 35.092 44.9284 35.3068 44.5276 35.6503C43.4826 36.4949 42.7239 37.6401 41.9938 38.7424C41.6359 38.5849 41.3926 38.1411 41.6216 37.769C42.1083 36.8814 42.6523 36.0368 43.1676 35.1493C43.3108 34.9775 43.1819 34.8057 43.0245 34.7055C43.7689 33.4744 44.5132 32.2434 45.2576 30.9979C45.7873 30.1677 46.3169 29.2801 47.0613 28.5787ZM7.4803 43.7383C9.99974 41.5624 13.3495 40.5317 16.6276 40.3457C18.9753 40.2311 21.4088 40.4602 23.5704 41.4193C24.916 42.0205 26.1471 43.0082 26.734 44.3825C27.4068 46.0144 27.1921 47.8754 26.19 49.3212C25.2023 50.724 23.6849 51.6402 22.1246 52.2701C20.8792 52.7568 19.5908 53.086 18.2738 53.2578C17.6296 55.5196 16.6419 57.7098 15.1818 59.5707C13.3924 61.9041 10.7012 63.5932 7.75229 63.9225C6.06312 64.0656 4.25942 64.0943 2.74203 63.2497C1.72567 62.7057 0.96697 61.6607 0.881079 60.5012C0.866764 59.9859 0.809503 59.4132 1.08149 58.9409C1.41073 58.3683 2.39847 58.3253 2.7134 58.9265C2.8995 59.2558 2.77066 59.6423 2.74203 60.0002C2.58457 61.0452 2.98539 62.219 3.88723 62.8345C4.81771 63.493 6.03448 63.5217 7.12242 63.3928C8.61119 63.2067 9.9568 62.4194 10.9875 61.3458C12.3045 59.9572 13.2063 58.2537 14.0366 56.5359C15.282 53.902 16.3127 51.1535 17.7871 48.6484C18.7605 47.0021 19.9773 45.4704 21.6092 44.4541L21.7953 44.6831C20.0632 46.9592 19.3045 49.7649 18.5172 52.4562C20.6358 52.2557 22.5254 51.0676 23.599 49.2353C24.3577 47.9326 24.6011 46.4009 24.2718 44.9265C24.0285 43.8099 23.37 42.8222 22.4109 42.178C21.1511 41.3334 19.6051 41.0471 18.102 40.9898C15.2677 40.8467 12.4619 41.634 10.0999 43.223C8.28194 44.4684 6.85044 46.3723 6.46394 48.5768C6.20626 50.0083 6.26352 51.6116 7.12242 52.8427C8.16742 54.3457 10.6439 54.4173 11.8177 53.0574C12.4047 52.3989 12.6194 51.4827 12.5908 50.6095C12.5192 49.8079 13.8934 49.6361 14.1082 50.3662C14.237 51.6116 13.6787 52.814 12.6623 53.5298C11.5315 54.3314 10.0856 54.5175 8.74002 54.3744C7.59482 54.2598 6.42099 53.8304 5.63366 52.9429C4.76045 51.9694 4.4312 50.6238 4.53141 49.3498C4.63161 47.1739 5.83407 45.1412 7.4803 43.7383ZM98.0085 46.1576H100.485C99.7978 47.7608 99.0964 49.3641 98.4093 50.9674C100.156 50.9674 101.888 50.9674 103.634 50.9674C103.348 51.6402 103.062 52.313 102.761 52.9858C101.029 52.9715 99.2968 53.0001 97.5647 52.9715C96.8346 54.5605 96.1761 56.1781 95.4604 57.7957H92.9839C93.671 56.1924 94.3724 54.5891 95.0596 52.9858H89.8346C90.1209 52.313 90.4072 51.6402 90.7078 50.9674H95.9328C96.6199 49.3641 97.3213 47.7608 98.0085 46.1576ZM84.7098 50.9674C85.1822 49.9081 85.6546 48.8345 86.1127 47.7751H88.3744C87.9164 48.8345 87.444 49.9081 86.9859 50.9674C87.4726 50.9674 87.9593 50.9674 88.4603 50.9674C88.3601 51.1964 88.2599 51.4255 88.1597 51.6545C87.6587 51.6545 87.172 51.6545 86.671 51.6545C85.9123 53.3866 85.1393 55.1331 84.3806 56.8652C84.1086 57.5666 83.808 58.2681 83.6934 59.0268C83.6362 59.3989 83.6362 59.9143 84.0227 60.1147C84.4378 60.3151 84.9388 60.1576 85.3253 59.9429C86.1842 59.3989 86.7998 58.583 87.3867 57.7813L87.7875 58.1679C87.0145 59.2701 86.127 60.401 84.853 60.945C83.9797 61.2885 82.8059 61.3744 82.1188 60.63C81.4603 59.8427 81.6321 58.7261 81.9041 57.8243C81.2026 58.7261 80.3151 59.585 79.1985 59.9429C78.6116 60.1147 77.8243 60.1004 77.4664 59.5278C77.1085 58.9122 77.3233 58.1822 77.5237 57.5523C78.1249 56.0349 78.9122 54.5891 79.5707 53.086C79.6995 52.8284 79.7854 52.542 79.8141 52.2414C79.6566 51.7977 79.0983 52.0267 78.8263 52.2128C77.9531 52.8284 77.4521 53.8018 76.9654 54.7179C76.1351 56.4214 75.4194 58.1822 74.6463 59.9143H72.3559C72.585 59.3989 72.814 58.8836 73.0288 58.3683C72.4275 59.0697 71.7547 59.8141 70.8386 60.0574C70.3518 60.172 69.7506 60.1863 69.4071 59.7711C69.0349 59.2701 69.1351 58.5973 69.2353 58.0104C68.5911 58.855 67.7895 59.6137 66.7874 59.9859C66.1719 60.2149 65.3416 60.1576 64.9694 59.5564C64.5829 58.9265 64.7976 58.1392 65.0123 57.4807C65.542 56.2353 66.1289 55.0185 66.7158 53.7875C66.1862 54.0308 65.5706 54.0738 65.0123 53.8877C64.8262 55.219 64.3539 56.4787 63.6381 57.6096C62.8937 58.7834 61.7485 59.7854 60.3457 60.0574C59.4868 60.2149 58.5133 60.1863 57.7976 59.628C57.1964 59.1556 56.9816 58.3539 56.9816 57.6096C56.2659 58.54 55.4929 59.5421 54.3477 59.9572C53.7178 60.1576 52.8732 60.2006 52.4151 59.6423C51.9714 59.0411 52.229 58.2394 52.4724 57.5952C53.1595 56.1065 53.861 54.632 54.5481 53.1576C54.6769 52.857 54.8057 52.5134 54.7198 52.1985C54.6053 52.0267 54.3906 52.0553 54.2188 52.0983C53.7751 52.2128 53.4315 52.542 53.1309 52.8713C52.4867 53.6157 52.0573 54.4889 51.6708 55.3907C50.9979 56.9081 50.3395 58.4112 49.6667 59.9286H47.319C48.321 57.5809 49.3517 55.2333 50.3538 52.8856C50.4253 52.6423 50.6114 52.2844 50.3395 52.0983C49.8957 52.0124 49.5235 52.356 49.2086 52.6136C47.8773 53.8447 47.319 55.6055 46.5746 57.2087C46.1738 58.1106 45.7873 58.9981 45.3865 59.9H43.1104C43.3251 59.3846 43.5541 58.8693 43.7832 58.3683C43.2249 58.9981 42.6523 59.6852 41.8363 59.9572C41.3067 60.129 40.6339 60.129 40.2474 59.6709C39.8895 59.2701 39.8895 58.6832 39.9468 58.1822C39.3455 58.9122 38.6298 59.628 37.7136 59.9429C37.0265 60.1576 36.1533 60.0861 35.6952 59.4705C35.2801 58.8693 35.3373 58.0963 35.4662 57.4092C35.7525 56.1208 36.4539 54.9613 37.2126 53.902C36.7259 54.174 36.1962 54.4459 35.6236 54.403C35.323 54.3887 35.0081 54.2169 34.9508 53.902C34.822 53.4009 35.1942 52.9858 35.2801 52.5277C34.9222 52.585 34.7075 52.8856 34.4927 53.1433C33.8629 53.9306 33.4477 54.8754 33.0469 55.7916C32.4457 57.1658 31.8445 58.5257 31.2432 59.9H29.0244C29.2391 59.3846 29.4682 58.8693 29.6972 58.3539C29.096 59.0411 28.3945 59.6852 27.507 59.9715C27.0203 60.1147 26.4334 60.1147 26.0612 59.7425C25.7176 59.3703 25.7176 58.812 25.8035 58.3396C25.2166 59.0983 24.4579 59.7854 23.4988 60.0002C22.8833 60.129 22.1675 60.0717 21.7094 59.5993C21.2227 59.084 21.237 58.3253 21.3372 57.6668C21.5806 56.3355 22.2677 55.1331 23.0407 54.0308C23.9426 52.6995 25.2309 51.6831 26.734 51.1249C27.8649 50.7097 29.1246 50.7384 30.2984 50.9817C30.5132 51.0533 30.9856 51.1535 30.8567 51.4684C29.9835 53.5298 29.0244 55.5768 28.1655 57.6525C28.0796 57.9818 27.8219 58.3969 28.0796 58.6975C28.5091 58.812 28.8669 58.4255 29.1532 58.1535C30.1696 57.0513 30.871 55.6913 31.458 54.3314C31.959 53.2005 32.46 52.0696 32.961 50.9531H35.0081C34.8077 51.4255 34.6216 51.8979 34.4212 52.3846C35.0224 51.7404 35.6809 51.0962 36.5541 50.8386C36.8833 50.7527 37.4273 50.724 37.5275 51.1535C37.6277 51.9408 36.9549 52.542 36.7688 53.2578L36.8118 53.3723C37.3844 53.4725 37.8711 52.9715 38.3148 52.6709C39.4887 51.6545 40.9488 50.8529 42.5378 50.8099C43.2392 50.8099 43.9693 50.8386 44.6421 51.0533C44.8282 51.1105 45.1288 51.268 44.9856 51.5114C44.2699 53.1576 43.5398 54.7895 42.8241 56.4357C42.5664 57.037 42.2658 57.6382 42.1513 58.2967C42.1083 58.4541 42.1942 58.6116 42.3517 58.6546C42.3803 58.6546 42.4089 58.6689 42.4233 58.6689C42.8384 58.6259 43.139 58.311 43.411 58.0247C44.3987 56.9368 45.0715 55.6055 45.6441 54.2598C46.1308 53.1719 46.6176 52.084 47.0899 50.9817C47.7914 50.9817 48.4785 50.9817 49.1799 50.9817C48.9938 51.4541 48.7934 51.9408 48.593 52.4132C49.2801 51.6688 50.1247 50.9674 51.1697 50.8242C51.5992 50.7813 52.1288 50.7956 52.4294 51.1535C52.7301 51.5114 52.6585 51.9981 52.6442 52.4132C53.4601 51.5257 54.5767 50.7956 55.8221 50.7956C56.3518 50.7813 56.8957 51.1249 57.0103 51.6688C57.1391 52.4418 56.7812 53.1576 56.5092 53.859C55.9509 55.1474 55.2924 56.4071 54.7342 57.6955C54.6483 57.9674 54.4479 58.2967 54.634 58.583C54.9059 58.7404 55.2066 58.5544 55.4499 58.4112C56.0798 57.9531 56.5092 57.2803 56.9387 56.6505C57.2536 56.2067 57.3538 55.6484 57.5685 55.1474C58.0982 53.902 58.7567 52.6566 59.8303 51.7977C60.7894 51.0103 62.1207 50.6238 63.3518 50.8672C64.1821 51.0533 64.8119 51.6975 64.9694 52.5277C65.041 52.7854 65.0123 53.1433 65.3273 53.2578C65.8426 53.4868 66.4582 53.2864 66.859 52.9286C67.4459 52.3989 67.7322 51.6402 68.0471 50.9531C68.8201 50.9388 69.5788 50.9531 70.3518 50.9531C69.3355 53.2149 68.2762 55.448 67.2741 57.7098C67.1882 57.9961 66.9735 58.3683 67.2312 58.6116C67.6463 58.7691 68.0471 58.4112 68.3477 58.1535C69.3641 57.1515 70.0656 55.8631 70.6095 54.5462C71.1249 53.3437 71.6545 52.1412 72.1699 50.9388C72.9429 50.9388 73.7159 50.9388 74.4889 50.9388C73.4868 53.2578 72.4562 55.5768 71.4827 57.9102C71.4112 58.1392 71.268 58.4398 71.4684 58.6259C71.9265 58.7405 72.2987 58.3253 72.5993 58.039C74.403 56.0206 75.2333 53.4009 76.3498 50.9817C77.0656 50.9817 77.7813 50.9817 78.4971 50.9817C78.311 51.4255 78.1392 51.8549 77.9531 52.2987C78.7977 51.4398 79.9572 50.5809 81.2456 50.8672C82.0329 51.0247 82.3478 51.9551 82.1045 52.6423C81.5176 54.5175 80.401 56.1781 79.7425 58.039C79.6995 58.2108 79.6137 58.4398 79.7425 58.5973C80.0431 58.7548 80.3724 58.5544 80.6014 58.3826C81.1454 57.9674 81.5605 57.4235 81.9327 56.8652C83.0493 55.2619 83.7078 53.4153 84.538 51.6688H83.4215C83.5217 51.4398 83.6362 51.2108 83.7364 50.9817C83.994 50.9817 84.3519 50.9817 84.7098 50.9674ZM25.2309 53.9879C24.5152 55.1188 23.8567 56.3212 23.5561 57.6382C23.5131 57.9531 23.3843 58.4398 23.7565 58.6116C24.2575 58.7834 24.7442 58.4398 25.0878 58.0963C25.918 57.2517 26.4763 56.1781 26.9917 55.1188C27.5356 53.9306 28.0653 52.7425 28.5806 51.54C27.0776 51.6116 25.9753 52.7997 25.2309 53.9879ZM39.231 54.1167C38.5439 55.219 37.914 56.3785 37.642 57.6525C37.5848 57.9674 37.4989 58.4541 37.8711 58.6116C38.3864 58.7834 38.8731 58.4255 39.2167 58.082C40.0183 57.2517 40.5623 56.1924 41.049 55.1617C41.593 53.9592 42.137 52.7425 42.6666 51.54C41.1206 51.6116 40.004 52.8856 39.231 54.1167ZM62.2639 51.6545C61.6769 51.9694 61.3191 52.5564 60.9612 53.086C60.0164 54.5605 59.3293 56.1781 58.9428 57.8815C58.8712 58.3396 58.7281 59.0267 59.2577 59.2558C59.8733 59.4276 60.3886 58.9265 60.7322 58.4685C61.7342 57.0656 62.4213 55.448 62.9224 53.8161C63.0655 53.2149 63.2802 52.585 63.1514 51.9551C63.0655 51.5543 62.5788 51.4684 62.2639 51.6545Z" fill="#0064FF"/>
</svg>
