<svg width="131" height="40" viewBox="0 0 131 40" fill="none" xmlns="http://www.w3.org/2000/svg">
<path d="M9.16842 12.3553C4.5657 12.3553 0.824219 16.0968 0.824219 20.6995V40H4.78083V29.2872L6.2344 30.8207L12.0487 28.5335C15.3599 27.2413 17.5134 24.2528 17.5134 20.7003C17.5134 16.0975 13.7719 12.3553 9.16842 12.3553ZM10.6496 25.0341L4.78156 27.322V20.7003C4.78156 18.0351 6.77367 16.1244 9.16915 16.1244C11.5646 16.1244 13.5567 18.062 13.5567 20.7003C13.5567 22.369 12.7493 24.1997 10.6496 25.0341ZM78.9942 12.3553C74.3914 12.3553 70.65 16.0968 70.65 20.6995C70.65 25.3023 74.3914 29.0437 78.9942 29.0437C83.5969 29.0437 87.3384 25.3023 87.3384 20.6995C87.3384 16.0968 83.5969 12.3553 78.9942 12.3553ZM78.9942 25.2761C76.4642 25.2761 74.6066 23.2578 74.6066 20.7003C74.6066 18.1427 76.518 16.1244 78.9942 16.1244C81.5241 16.1244 83.3818 18.1427 83.3818 20.7003C83.3818 23.2578 81.5241 25.2761 78.9942 25.2761ZM97.0562 16.1244C98.7779 16.1244 100.178 17.0663 100.905 18.4661L104.001 16.0975C102.493 13.8634 99.9633 12.3829 97.0562 12.3829C92.4528 12.3829 88.7113 16.1244 88.7113 20.7271C88.7113 25.3299 92.4528 29.0714 97.0562 29.0714C99.9364 29.0714 102.493 27.5909 104.001 25.3568L100.905 22.9874C100.178 24.388 98.7779 25.3299 97.0562 25.3299C94.5255 25.3299 92.6686 23.3116 92.6686 20.754C92.6686 18.1965 94.5793 16.1244 97.0562 16.1244ZM63.3007 16.1244C65.0239 16.1244 66.4237 17.0663 67.1505 18.4661L70.2459 16.0975C68.7385 13.8634 66.2079 12.3829 63.3007 12.3829C58.698 12.3829 54.9565 16.1244 54.9565 20.7271C54.9565 25.3299 58.698 29.0714 63.3007 29.0714C66.181 29.0714 68.7385 27.5909 70.2459 25.3568L67.1505 22.9874C66.4237 24.388 65.0239 25.3299 63.3007 25.3299C60.7708 25.3299 58.9131 23.3116 58.9131 20.754C58.9131 18.1965 60.7977 16.1244 63.3007 16.1244ZM49.4649 14.3474C48.1189 12.9477 46.3427 12.3561 44.485 12.3561C40.6084 12.3561 36.6794 15.8824 36.6794 20.7003C36.6794 25.5181 40.6084 29.0445 44.485 29.0445C46.3427 29.0445 48.1189 28.4529 49.4649 27.0531V28.5604H53.4223V12.8663H49.4649V14.3474ZM45.0774 25.2761C42.5481 25.2761 40.636 23.2578 40.636 20.7003C40.636 18.1427 42.6012 16.1244 45.0774 16.1244C47.608 16.1244 49.4649 18.1427 49.4649 20.7003C49.4649 23.2578 47.608 25.2761 45.0774 25.2761ZM115.01 20.1348H113.234L120.097 12.8401H115.01L109.465 18.8164V4.28076H105.508V28.5612H109.465V24.0929L111.645 21.7774L116.301 28.5612H121.093L115.01 20.1348ZM27.1498 12.3553C22.5471 12.3553 18.8056 16.0968 18.8056 20.6995C18.8056 25.3023 22.5471 29.0437 27.1498 29.0437C29.8956 29.0437 32.4793 27.7254 33.9605 25.6795L30.7837 23.4722C30.4065 24.0914 29.1957 25.2746 27.1498 25.2746C25.266 25.2746 23.731 24.1445 23.0856 22.5027H35.1182C35.2534 21.9111 35.3072 21.3188 35.3072 20.6995C35.3326 16.0975 31.7532 12.3553 27.1498 12.3553ZM23.1125 18.8964C23.7586 17.2538 25.2928 16.1244 27.1498 16.1244C29.0343 16.1244 30.461 17.2546 31.0533 18.8964H23.1125Z" fill="white"/>
<path d="M128.281 26.1918C126.962 26.1918 125.885 27.2682 125.885 28.588C125.885 29.9064 126.961 30.9828 128.281 30.9828C129.599 30.9828 130.676 29.9072 130.676 28.588C130.676 27.2682 129.6 26.1918 128.281 26.1918Z" fill="#069DE0"/>
<path d="M128.281 19.6508C126.962 19.6508 125.885 20.7272 125.885 22.047C125.885 23.3654 126.961 24.4418 128.281 24.4418C129.599 24.4418 130.676 23.3661 130.676 22.047C130.65 20.7003 129.6 19.6508 128.281 19.6508Z" fill="#6E55DC"/>
<path d="M128.281 32.7329C126.962 32.7329 125.885 33.8093 125.885 35.1291C125.885 36.4475 126.961 37.5239 128.281 37.5239C129.599 37.5239 130.676 36.4482 130.676 35.1291C130.676 33.8093 129.6 32.7329 128.281 32.7329Z" fill="#05AC3F"/>
<path d="M128.281 13.0821C126.962 13.0821 125.885 14.1585 125.885 15.4783C125.885 16.7967 126.961 17.8738 128.281 17.8738C129.599 17.8738 130.676 16.7974 130.676 15.4783C130.65 14.1592 129.6 13.0821 128.281 13.0821Z" fill="#EF1541"/>
<path d="M128.281 6.54108C126.962 6.54108 125.885 7.61744 125.885 8.93728C125.885 10.2557 126.961 11.3328 128.281 11.3328C129.599 11.3328 130.676 10.2564 130.676 8.93728C130.65 7.61817 129.6 6.54108 128.281 6.54108Z" fill="#FF7112"/>
<path d="M128.281 0C126.962 0 125.885 1.07637 125.885 2.39621C125.885 3.71459 126.961 4.79168 128.281 4.79168C129.599 4.79168 130.676 3.71532 130.676 2.39621C130.65 1.07709 129.6 0 128.281 0Z" fill="#FCCC12"/>
</svg>
