<svg width="131" height="40" viewBox="0 0 131 40" fill="none" xmlns="http://www.w3.org/2000/svg">
<path d="M9.16745 12.3553C4.56472 12.3553 0.823242 16.0968 0.823242 20.6995V40H4.77985V29.2872L6.23342 30.8207L12.0477 28.5335C15.3589 27.2413 17.5124 24.2528 17.5124 20.7003C17.5124 16.0975 13.7709 12.3553 9.16745 12.3553ZM10.6486 25.0341L4.78058 27.322V20.7003C4.78058 18.0351 6.77269 16.1244 9.16817 16.1244C11.5637 16.1244 13.5558 18.062 13.5558 20.7003C13.5558 22.369 12.7483 24.1997 10.6486 25.0341ZM78.9932 12.3553C74.3905 12.3553 70.649 16.0968 70.649 20.6995C70.649 25.3023 74.3905 29.0437 78.9932 29.0437C83.5959 29.0437 87.3374 25.3023 87.3374 20.6995C87.3374 16.0968 83.5959 12.3553 78.9932 12.3553ZM78.9932 25.2761C76.4633 25.2761 74.6056 23.2578 74.6056 20.7003C74.6056 18.1427 76.517 16.1244 78.9932 16.1244C81.5231 16.1244 83.3808 18.1427 83.3808 20.7003C83.3808 23.2578 81.5231 25.2761 78.9932 25.2761ZM97.0552 16.1244C98.777 16.1244 100.177 17.0663 100.904 18.4661L104 16.0975C102.492 13.8634 99.9624 12.3829 97.0552 12.3829C92.4518 12.3829 88.7103 16.1244 88.7103 20.7271C88.7103 25.3299 92.4518 29.0714 97.0552 29.0714C99.9355 29.0714 102.492 27.5909 104 25.3568L100.904 22.9874C100.177 24.388 98.777 25.3299 97.0552 25.3299C94.5246 25.3299 92.6676 23.3116 92.6676 20.754C92.6676 18.1965 94.5783 16.1244 97.0552 16.1244ZM63.2998 16.1244C65.023 16.1244 66.4227 17.0663 67.1495 18.4661L70.2449 16.0975C68.7375 13.8634 66.2069 12.3829 63.2998 12.3829C58.697 12.3829 54.9555 16.1244 54.9555 20.7271C54.9555 25.3299 58.697 29.0714 63.2998 29.0714C66.18 29.0714 68.7375 27.5909 70.2449 25.3568L67.1495 22.9874C66.4227 24.388 65.023 25.3299 63.2998 25.3299C60.7698 25.3299 58.9122 23.3116 58.9122 20.754C58.9122 18.1965 60.7967 16.1244 63.2998 16.1244ZM49.464 14.3474C48.118 12.9477 46.3417 12.3561 44.4841 12.3561C40.6074 12.3561 36.6784 15.8824 36.6784 20.7003C36.6784 25.5181 40.6074 29.0445 44.4841 29.0445C46.3417 29.0445 48.118 28.4529 49.464 27.0531V28.5604H53.4213V12.8663H49.464V14.3474ZM45.0764 25.2761C42.5472 25.2761 40.635 23.2578 40.635 20.7003C40.635 18.1427 42.6002 16.1244 45.0764 16.1244C47.607 16.1244 49.464 18.1427 49.464 20.7003C49.464 23.2578 47.607 25.2761 45.0764 25.2761ZM115.009 20.1348H113.233L120.096 12.8401H115.009L109.464 18.8164V4.28076H105.507V28.5612H109.464V24.0929L111.644 21.7774L116.3 28.5612H121.092L115.009 20.1348ZM27.1488 12.3553C22.5461 12.3553 18.8046 16.0968 18.8046 20.6995C18.8046 25.3023 22.5461 29.0437 27.1488 29.0437C29.8946 29.0437 32.4783 27.7254 33.9595 25.6795L30.7827 23.4722C30.4055 24.0914 29.1947 25.2746 27.1488 25.2746C25.265 25.2746 23.73 24.1445 23.0846 22.5027H35.1173C35.2524 21.9111 35.3062 21.3188 35.3062 20.6995C35.3317 16.0975 31.7523 12.3553 27.1488 12.3553ZM23.1115 18.8964C23.7576 17.2538 25.2919 16.1244 27.1488 16.1244C29.0334 16.1244 30.46 17.2546 31.0524 18.8964H23.1115Z" fill="black"/>
<path d="M128.281 26.1918C126.962 26.1918 125.885 27.2682 125.885 28.588C125.885 29.9064 126.961 30.9828 128.281 30.9828C129.599 30.9828 130.676 29.9072 130.676 28.588C130.676 27.2682 129.6 26.1918 128.281 26.1918Z" fill="#069DE0"/>
<path d="M128.281 19.6508C126.962 19.6508 125.885 20.7272 125.885 22.047C125.885 23.3654 126.961 24.4418 128.281 24.4418C129.599 24.4418 130.676 23.3661 130.676 22.047C130.65 20.7003 129.6 19.6508 128.281 19.6508Z" fill="#6E55DC"/>
<path d="M128.281 32.7329C126.962 32.7329 125.885 33.8093 125.885 35.1291C125.885 36.4475 126.961 37.5239 128.281 37.5239C129.599 37.5239 130.676 36.4482 130.676 35.1291C130.676 33.8093 129.6 32.7329 128.281 32.7329Z" fill="#05AC3F"/>
<path d="M128.281 13.0821C126.962 13.0821 125.885 14.1585 125.885 15.4783C125.885 16.7967 126.961 17.8738 128.281 17.8738C129.599 17.8738 130.676 16.7974 130.676 15.4783C130.65 14.1592 129.6 13.0821 128.281 13.0821Z" fill="#EF1541"/>
<path d="M128.281 6.54108C126.962 6.54108 125.885 7.61744 125.885 8.93728C125.885 10.2557 126.961 11.3328 128.281 11.3328C129.599 11.3328 130.676 10.2564 130.676 8.93728C130.65 7.61817 129.6 6.54108 128.281 6.54108Z" fill="#FF7112"/>
<path d="M128.281 0C126.962 0 125.885 1.07637 125.885 2.39621C125.885 3.71459 126.961 4.79168 128.281 4.79168C129.599 4.79168 130.676 3.71532 130.676 2.39621C130.65 1.07709 129.6 0 128.281 0Z" fill="#FCCC12"/>
</svg>
