<svg width="131" height="32" viewBox="0 0 131 32" fill="none" xmlns="http://www.w3.org/2000/svg">
<path d="M83.7213 5.09397C77.6981 5.09397 72.8153 9.97676 72.8153 16C72.8153 22.0232 77.6981 26.906 83.7213 26.906C89.7446 26.906 94.6273 22.0232 94.6273 16C94.6273 9.97676 89.7446 5.09397 83.7213 5.09397ZM83.7213 21.0089C80.955 21.0089 78.7124 18.7663 78.7124 16C78.7124 13.2337 80.955 10.9911 83.7213 10.9911C86.4876 10.9911 88.7302 13.2337 88.7302 16C88.7302 17.3284 88.2025 18.6025 87.2632 19.5418C86.3238 20.4812 85.0498 21.0089 83.7213 21.0089ZM66.2396 11.1261V17.8797C66.2396 19.9509 67.1629 20.8739 69.2338 20.8739H71.3204V26.493H68.2837C65.7583 26.493 63.6796 25.7522 62.2729 24.3508C60.8661 22.9494 60.1247 20.8845 60.1247 18.3753V11.1261H56.3618V5.50698H60.1247V2.47057L66.2396 0V5.50698H71.3204V11.1261H66.2396ZM53.9669 5.51034V16.9915C53.9788 20.5416 52.0917 23.8271 49.0192 25.6056C45.9467 27.3841 42.1578 27.3841 39.0853 25.6056C36.0129 23.8271 34.1258 20.5416 34.1376 16.9915V8.19218L40.2113 5.73829V17.1678C40.2113 19.2892 41.931 21.0089 44.0523 21.0089C46.1737 21.0089 47.8934 19.2892 47.8934 17.1678V7.96423L53.9669 5.51034ZM31.5081 0.000447831V26.493H25.393V2.47102L31.5081 0.000447831ZM12.8453 5.0961C10.2903 5.0961 8.12351 5.95963 6.51166 7.60652L5.66694 5.56352L0.722656 7.56107V32H6.83656V24.7829C8.42703 26.2179 10.4864 26.9049 12.8453 26.9049C15.6093 26.918 18.2487 25.7561 20.1056 23.7086C21.9629 21.6807 22.9858 18.9504 22.9858 16.021C22.9858 9.89483 18.5317 5.0961 12.8453 5.0961ZM11.9103 21.0089C9.10012 21.0089 6.82156 18.7664 6.82156 16C6.82156 13.2336 9.10012 10.9912 11.9103 10.9912C14.7204 10.9912 16.9991 13.2337 16.9991 16C16.9991 18.7663 14.721 21.0089 11.9103 21.0089Z" fill="white"/>
<path d="M110.335 16C110.335 7.43076 111.141 5.27289 111.141 5.27289L108.595 5.32461C102.572 5.44777 97.6895 9.97679 97.6895 16C97.6895 22.0232 102.572 26.5524 108.595 26.6753L111.141 26.7271C111.141 26.7271 110.335 24.5691 110.335 16Z" fill="#FF2CD2"/>
<path d="M110.334 16C110.334 9.14091 114.051 5.21332 114.051 5.21332L111.14 5.27288C105.117 5.39581 100.234 9.97667 100.234 16C100.234 22.0233 105.117 26.6043 111.14 26.7271L114.052 26.7866C114.052 26.7866 110.335 22.8591 110.335 16" fill="#5E00FF"/>
<path d="M110.334 16C110.334 8.25628 116.962 5.15393 116.962 5.15393L114.051 5.21327C108.027 5.33631 103.145 9.97662 103.145 16C103.145 22.0233 108.027 26.6636 114.051 26.7865L116.962 26.847C116.962 26.847 110.334 23.7435 110.334 16Z" fill="#FFDE2B"/>
<path d="M110.334 16C110.334 10.9543 113.618 5.71331 119.462 5.10236L116.963 5.15397C110.939 5.27712 106.057 9.97677 106.057 16C106.057 22.0232 110.939 26.7231 116.963 26.847L119.471 26.898C113.629 26.29 110.334 21.0457 110.334 16Z" fill="#FF6700"/>
<path d="M119.873 5.09393C113.85 5.09393 108.967 9.97673 108.967 16C108.967 22.0232 113.85 26.906 119.873 26.906C125.896 26.906 130.779 22.0232 130.779 16C130.779 9.97673 125.896 5.09393 119.873 5.09393ZM124.18 21.3268H122.147L119.236 14.2868H116.317V17.9191C116.317 18.7014 116.694 19.187 117.584 19.187H118.875V21.3268H117.288C115.136 21.3268 113.983 20.109 113.983 18.0741V14.287H112.373V12.2401H113.983V10.7854L116.317 9.84229V12.2401H120.912L123.164 18.1206L125.436 12.1841H127.96L124.18 21.3268Z" fill="white"/>
</svg>
