<svg width="131" height="32" viewBox="0 0 131 32" fill="none" xmlns="http://www.w3.org/2000/svg">
<path d="M83.7203 5.09397C77.6971 5.09397 72.8143 9.97676 72.8143 16C72.8143 22.0232 77.6971 26.906 83.7203 26.906C89.7436 26.906 94.6264 22.0232 94.6264 16C94.6264 9.97676 89.7436 5.09397 83.7203 5.09397ZM83.7203 21.0089C80.954 21.0089 78.7115 18.7663 78.7115 16C78.7115 13.2337 80.954 10.9911 83.7203 10.9911C86.4867 10.9911 88.7292 13.2337 88.7292 16C88.7292 17.3284 88.2015 18.6025 87.2622 19.5418C86.3228 20.4812 85.0488 21.0089 83.7203 21.0089ZM66.2386 11.1261V17.8797C66.2386 19.9509 67.1619 20.8739 69.2328 20.8739H71.3195V26.493H68.2827C65.7573 26.493 63.6787 25.7522 62.2719 24.3508C60.8652 22.9494 60.1237 20.8845 60.1237 18.3753V11.1261H56.3608V5.50698H60.1237V2.47057L66.2386 0V5.50698H71.3195V11.1261H66.2386ZM53.9659 5.51034V16.9915C53.9778 20.5416 52.0907 23.8271 49.0182 25.6056C45.9457 27.3841 42.1568 27.3841 39.0844 25.6056C36.0119 23.8271 34.1248 20.5416 34.1367 16.9915V8.19218L40.2103 5.73829V17.1678C40.2103 19.2892 41.93 21.0089 44.0514 21.0089C46.1727 21.0089 47.8924 19.2892 47.8924 17.1678V7.96423L53.9659 5.51034ZM31.5072 0.000447831V26.493H25.392V2.47102L31.5072 0.000447831ZM12.8444 5.0961C10.2894 5.0961 8.12254 5.95963 6.51068 7.60652L5.66596 5.56352L0.72168 7.56107V32H6.83558V24.7829C8.42605 26.2179 10.4854 26.9049 12.8444 26.9049C15.6084 26.918 18.2477 25.7561 20.1046 23.7086C21.962 21.6807 22.9848 18.9504 22.9848 16.021C22.9848 9.89483 18.5307 5.0961 12.8444 5.0961ZM11.9093 21.0089C9.09914 21.0089 6.82058 18.7664 6.82058 16C6.82058 13.2336 9.09914 10.9912 11.9093 10.9912C14.7194 10.9912 16.9981 13.2337 16.9981 16C16.9981 18.7663 14.72 21.0089 11.9093 21.0089Z" fill="black"/>
<path d="M110.333 16C110.333 7.43076 111.139 5.27289 111.139 5.27289L108.594 5.32461C102.57 5.44777 97.6875 9.97679 97.6875 16C97.6875 22.0232 102.57 26.5524 108.594 26.6753L111.139 26.7271C111.139 26.7271 110.333 24.5691 110.333 16Z" fill="#FF2CD2"/>
<path d="M110.333 16C110.333 9.14091 114.05 5.21332 114.05 5.21332L111.139 5.27288C105.116 5.39581 100.233 9.97667 100.233 16C100.233 22.0233 105.116 26.6043 111.139 26.7271L114.051 26.7866C114.051 26.7866 110.334 22.8591 110.334 16" fill="#5E00FF"/>
<path d="M110.333 16C110.333 8.25628 116.961 5.15393 116.961 5.15393L114.05 5.21327C108.026 5.33631 103.144 9.97662 103.144 16C103.144 22.0233 108.026 26.6636 114.05 26.7865L116.961 26.847C116.961 26.847 110.333 23.7435 110.333 16Z" fill="#FFDE2B"/>
<path d="M110.333 16C110.333 10.9543 113.617 5.71331 119.461 5.10236L116.962 5.15397C110.938 5.27712 106.056 9.97677 106.056 16C106.056 22.0232 110.938 26.7231 116.962 26.847L119.47 26.898C113.628 26.29 110.333 21.0457 110.333 16Z" fill="#FF6700"/>
<path d="M119.872 5.09393C113.849 5.09393 108.966 9.97673 108.966 16C108.966 22.0232 113.849 26.906 119.872 26.906C125.895 26.906 130.778 22.0232 130.778 16C130.778 9.97673 125.895 5.09393 119.872 5.09393ZM124.179 21.3268H122.146L119.235 14.2868H116.316V17.9191C116.316 18.7014 116.693 19.187 117.583 19.187H118.874V21.3268H117.287C115.135 21.3268 113.982 20.109 113.982 18.0741V14.287H112.372V12.2401H113.982V10.7854L116.316 9.84229V12.2401H120.911L123.163 18.1206L125.435 12.1841H127.959L124.179 21.3268Z" fill="black"/>
</svg>
