<svg width="156" height="32" viewBox="0 0 156 32" fill="none" xmlns="http://www.w3.org/2000/svg">
<path d="M24.1564 15.7511C25.6545 14.8963 25.6545 12.7378 24.1564 11.8851L3.83238 0.295466C2.34922 -0.550834 0.504883 0.522 0.504883 2.22956V4.36882L22.3976 16.7556L24.1564 15.7533V15.7511Z" fill="white"/>
<path d="M0.504883 25.4066V21.2456L7.54028 25.2249L3.83452 27.3385C2.34922 28.1848 0.504883 27.1141 0.504883 25.4066Z" fill="white"/>
<path d="M0.504883 9.99365V15.6186L22.2052 27.8963V22.2714L0.504883 9.99365Z" fill="white"/>
<path d="M42.709 11.6479C42.709 12.5925 42.1768 13.1054 41.1339 13.1054H39.2255V10.2096H41.1339C42.1768 10.2096 42.709 10.7802 42.709 11.6479ZM35.3701 6.97827V20.8674H39.2276V15.7447H39.6401L42.3948 20.8674H46.7033L43.5745 15.4498C45.6411 14.8194 46.6242 13.2422 46.6242 11.4299C46.6242 8.94656 44.8931 6.97827 41.4502 6.97827H35.3701Z" fill="white"/>
<path d="M48.3789 20.8674H52.2364V6.97827H48.3789V20.8674Z" fill="white"/>
<path d="M53.6641 10.0515H57.3249V20.8674H61.1825V10.0515H64.8818V6.97827H53.6662V10.0515H53.6641Z" fill="white"/>
<path d="M75.179 6.97827H66.3057V20.8674H75.179V17.775H70.161V15.2724H74.5891V12.336H70.161V10.0707H75.179V6.97827Z" fill="white"/>
<path d="M87.4944 16.653C87.4944 12.2014 80.8245 12.8703 80.8245 10.8016C80.8245 10.1327 81.2776 9.79716 81.8482 9.8164C82.5555 9.8164 83.0877 10.2096 83.1262 11.0773H87.3171C87.1803 8.31828 85.0945 6.76245 81.9059 6.76245C78.9737 6.76245 76.7105 8.21997 76.7105 10.9384C76.6507 15.7661 83.3805 14.7211 83.3997 16.948C83.3997 17.5977 82.8676 17.9524 82.1794 17.9524C81.4913 17.9524 80.8608 17.5977 80.7817 16.5526H76.6699C76.8281 19.5275 79.2281 21.0042 82.3162 21.0042C85.6031 21.0042 87.4902 19.0936 87.4902 16.6509L87.4944 16.653Z" fill="white"/>
<path d="M88.5205 10.0515H92.1793V20.8674H96.0368V10.0515H99.7361V6.97827H88.5205V10.0515Z" fill="white"/>
<path d="M108.502 11.6479C108.502 12.5925 107.97 13.1054 106.927 13.1054H105.019V10.2096H106.927C107.97 10.2096 108.502 10.7802 108.502 11.6479ZM101.163 6.97827V20.8674H105.021V15.7447H105.433L108.188 20.8674H112.496L109.368 15.4498C111.432 14.8194 112.417 13.2422 112.417 11.4299C112.417 8.94656 110.686 6.97827 107.241 6.97827H101.161H101.163Z" fill="white"/>
<path d="M123.046 6.97827H114.173V20.8674H123.046V17.775H118.028V15.2724H122.456V12.336H118.028V10.0707H123.046V6.97827Z" fill="white"/>
<path d="M134.474 20.8674H138.548L133.511 6.97827H129.063L124.007 20.8674H128.061L128.809 18.6021H133.726L134.474 20.8674ZM132.763 15.6464H129.792L131.269 11.1542L132.765 15.6464H132.763Z" fill="white"/>
<path d="M139.805 20.8674H143.66V13.146L146.298 20.8696H149.525L152.141 13.2058V20.8696H155.996V6.97827H151.352L147.947 16.0012L144.464 6.97827H139.801V20.8674H139.805Z" fill="white"/>
<path d="M81.3596 32C80.855 32 80.4028 31.9181 80.003 31.7542C79.6032 31.5904 79.2821 31.3479 79.0396 31.0268C78.8036 30.7056 78.6791 30.319 78.666 29.8667H80.4552C80.4814 30.1223 80.5699 30.319 80.7206 30.4566C80.8714 30.5877 81.068 30.6532 81.3105 30.6532C81.5595 30.6532 81.7562 30.5975 81.9003 30.4861C82.0445 30.3681 82.1166 30.2075 82.1166 30.0044C82.1166 29.834 82.0576 29.6931 81.9397 29.5816C81.8282 29.4702 81.6873 29.3785 81.5169 29.3064C81.3531 29.2343 81.1172 29.1524 80.8091 29.0606C80.3635 28.923 79.9997 28.7854 79.7179 28.6477C79.4361 28.5101 79.1936 28.3069 78.9904 28.0382C78.7873 27.7695 78.6857 27.4189 78.6857 26.9863C78.6857 26.3441 78.9183 25.8427 79.3837 25.4822C79.849 25.1152 80.4552 24.9317 81.2024 24.9317C81.9626 24.9317 82.5754 25.1152 83.0407 25.4822C83.506 25.8427 83.7551 26.3473 83.7878 26.9962H81.9692C81.956 26.7733 81.8741 26.5997 81.7234 26.4751C81.5726 26.3441 81.3793 26.2785 81.1434 26.2785C80.9402 26.2785 80.7764 26.3342 80.6518 26.4456C80.5273 26.5505 80.465 26.7045 80.465 26.9077C80.465 27.1305 80.5699 27.3042 80.7796 27.4287C80.9894 27.5532 81.317 27.6876 81.7627 27.8318C82.2084 27.9825 82.5688 28.1267 82.8441 28.2643C83.1259 28.402 83.3684 28.6019 83.5716 28.864C83.7747 29.1262 83.8763 29.4637 83.8763 29.8766C83.8763 30.2698 83.7747 30.627 83.5716 30.9481C83.3749 31.2693 83.0866 31.5249 82.7065 31.7149C82.3263 31.905 81.8774 32 81.3596 32Z" fill="#E7E7E7"/>
<path d="M95.7738 25.03V26.3768H93.9453V31.9312H92.2643V26.3768H90.4357V25.03H95.7738Z" fill="#E7E7E7"/>
<path d="M104.168 25.03V29.1589C104.168 29.5718 104.269 29.8897 104.472 30.1125C104.675 30.3353 104.974 30.4468 105.367 30.4468C105.76 30.4468 106.062 30.3353 106.271 30.1125C106.481 29.8897 106.586 29.5718 106.586 29.1589V25.03H108.267V29.1491C108.267 29.7652 108.136 30.2862 107.874 30.7122C107.612 31.1382 107.258 31.4593 106.812 31.6756C106.373 31.8919 105.881 32 105.337 32C104.793 32 104.305 31.8952 103.873 31.6854C103.447 31.4692 103.109 31.148 102.86 30.722C102.611 30.2895 102.486 29.7652 102.486 29.1491V25.03H104.168Z" fill="#E7E7E7"/>
<path d="M117.931 25.03C118.659 25.03 119.295 25.1742 119.839 25.4626C120.382 25.7509 120.802 26.1573 121.097 26.6816C121.398 27.1993 121.549 27.799 121.549 28.4806C121.549 29.1557 121.398 29.7553 121.097 30.2796C120.802 30.8039 120.379 31.2103 119.829 31.4986C119.285 31.787 118.652 31.9312 117.931 31.9312H115.346V25.03H117.931ZM117.823 30.4762C118.459 30.4762 118.954 30.3026 119.308 29.9552C119.662 29.6079 119.839 29.1163 119.839 28.4806C119.839 27.8449 119.662 27.3501 119.308 26.9962C118.954 26.6423 118.459 26.4653 117.823 26.4653H117.027V30.4762H117.823Z" fill="#E7E7E7"/>
<path d="M130.068 25.03V31.9312H128.387V25.03H130.068Z" fill="#E7E7E7"/>
<path d="M140.449 32C139.8 32 139.203 31.8493 138.659 31.5478C138.122 31.2463 137.693 30.8269 137.372 30.2895C137.057 29.7455 136.9 29.136 136.9 28.4609C136.9 27.7859 137.057 27.1797 137.372 26.6423C137.693 26.1048 138.122 25.6854 138.659 25.3839C139.203 25.0824 139.8 24.9317 140.449 24.9317C141.097 24.9317 141.691 25.0824 142.228 25.3839C142.772 25.6854 143.198 26.1048 143.506 26.6423C143.821 27.1797 143.978 27.7859 143.978 28.4609C143.978 29.136 143.821 29.7455 143.506 30.2895C143.191 30.8269 142.765 31.2463 142.228 31.5478C141.691 31.8493 141.097 32 140.449 32ZM140.449 30.4664C140.999 30.4664 141.438 30.2829 141.766 29.9159C142.1 29.5489 142.267 29.0639 142.267 28.4609C142.267 27.8514 142.1 27.3665 141.766 27.006C141.438 26.639 140.999 26.4555 140.449 26.4555C139.891 26.4555 139.446 26.6357 139.112 26.9962C138.784 27.3566 138.62 27.8449 138.62 28.4609C138.62 29.0705 138.784 29.5587 139.112 29.9257C139.446 30.2862 139.891 30.4664 140.449 30.4664Z" fill="#E7E7E7"/>
<path d="M153.308 32C152.804 32 152.352 31.9181 151.952 31.7542C151.552 31.5904 151.231 31.3479 150.988 31.0268C150.752 30.7056 150.628 30.319 150.615 29.8667H152.404C152.43 30.1223 152.519 30.319 152.669 30.4566C152.82 30.5877 153.017 30.6532 153.259 30.6532C153.508 30.6532 153.705 30.5975 153.849 30.4861C153.993 30.3681 154.065 30.2075 154.065 30.0044C154.065 29.834 154.006 29.6931 153.889 29.5816C153.777 29.4702 153.636 29.3785 153.466 29.3064C153.302 29.2343 153.066 29.1524 152.758 29.0606C152.312 28.923 151.949 28.7854 151.667 28.6477C151.385 28.5101 151.142 28.3069 150.939 28.0382C150.736 27.7695 150.635 27.4189 150.635 26.9863C150.635 26.3441 150.867 25.8427 151.333 25.4822C151.798 25.1152 152.404 24.9317 153.151 24.9317C153.911 24.9317 154.524 25.1152 154.99 25.4822C155.455 25.8427 155.704 26.3473 155.737 26.9962H153.918C153.905 26.7733 153.823 26.5997 153.672 26.4751C153.521 26.3441 153.328 26.2785 153.092 26.2785C152.889 26.2785 152.725 26.3342 152.601 26.4456C152.476 26.5505 152.414 26.7045 152.414 26.9077C152.414 27.1305 152.519 27.3042 152.728 27.4287C152.938 27.5532 153.266 27.6876 153.712 27.8318C154.157 27.9825 154.518 28.1267 154.793 28.2643C155.075 28.402 155.317 28.6019 155.52 28.864C155.724 29.1262 155.825 29.4637 155.825 29.8766C155.825 30.2698 155.724 30.627 155.52 30.9481C155.324 31.2693 155.035 31.5249 154.655 31.7149C154.275 31.905 153.826 32 153.308 32Z" fill="#E7E7E7"/>
</svg>
