<svg width="91" height="44" viewBox="0 0 91 44" fill="none" xmlns="http://www.w3.org/2000/svg">
<path d="M0.0957031 29.5839L3.42456 27.2483C4.68631 29.0201 6.5655 29.8523 8.87422 29.8523C11.344 29.8523 12.4447 29.0201 12.4447 27.6778C12.4447 26.0403 10.9413 25.7986 7.53194 24.8322C4.55207 24 1.54537 22.604 1.54537 18.604C1.54537 14.5503 4.76684 12.6174 8.79369 12.6174C12.0152 12.6174 14.297 13.9597 15.8272 15.651L12.9816 18.4429C12.0152 17.3423 10.6192 16.4564 8.79369 16.4564C6.96819 16.4564 5.94805 17.1275 5.94805 18.3355C5.94805 19.8926 7.20979 20.2147 10.3776 21.047C13.5722 21.8792 17.0353 23.1141 17.0353 27.4094C17.0353 30.8725 14.9145 33.7181 9.16953 33.7181C4.52523 33.7718 1.43799 31.7584 0.0957031 29.5839Z" fill="white"/>
<path d="M20.6855 2.06714H25.5715V33.3423H20.6855V2.06714Z" fill="white"/>
<path d="M29.1953 4.75164C29.1953 2.92613 30.6987 1.55701 32.4168 1.55701C34.1618 1.55701 35.6383 2.89929 35.6383 4.75164C35.6383 6.68452 34.1349 7.97311 32.4168 7.97311C30.6987 7.99996 29.1953 6.68452 29.1953 4.75164Z" fill="#FAA21B"/>
<path d="M39.2891 13.0738H44.175L44.0676 16.8322C45.3293 14.1745 47.8797 12.6443 50.9132 12.6443C55.3964 12.6443 58.4837 15.8389 58.4837 21.3154V33.3423H53.6246V21.7181C53.6246 18.8188 52.2823 17.1275 49.4367 17.1275C46.2421 17.1275 44.175 19.0604 44.175 22.3356V33.3423H39.2891V13.0738Z" fill="white"/>
<path d="M37.3027 1.55707C37.9739 2.41613 38.3229 3.54364 38.3229 4.93962C38.3229 6.09398 38.0276 7.14096 37.4906 8.00002C38.8061 7.54364 39.7725 6.2819 39.7725 4.80539C39.7725 3.27519 38.7256 1.95975 37.3027 1.55707Z" fill="#FAA21B"/>
<path d="M40.3652 0.563721C41.2511 1.69124 41.7075 3.16775 41.7075 4.99325C41.7075 6.49661 41.3317 7.86573 40.6068 8.99325C42.325 8.40265 43.5867 6.73821 43.5867 4.80533C43.5867 2.79191 42.2176 1.10063 40.3652 0.563721Z" fill="#FAA21B"/>
<path d="M44.1758 0C45.1959 1.28859 45.706 2.95302 45.706 5.02013C45.706 6.73825 45.2765 8.26846 44.4711 9.55705C46.4308 8.88591 47.8268 7.00671 47.8268 4.83221C47.7999 2.52349 46.2697 0.590604 44.1758 0Z" fill="#FAA21B"/>
<path d="M73.5717 44C79.3167 43.8926 82.8335 40.4832 82.8335 33.6376V13.0738H77.9476L78.0818 16.8322C76.7664 14.3624 74.4039 12.6443 70.8335 12.6443C65.6791 12.6443 61.4375 17.047 61.4375 23.1678C61.4375 29.2886 65.6791 33.7718 70.9409 33.7718C74.3234 33.7718 76.7395 32.1342 77.9476 29.8523V33.3691C77.9476 37.5033 76.4711 39.7852 73.6523 39.7852H73.3301H64.2831V43.9731H73.5717V44ZM72.2294 29.4765C68.7127 29.4765 66.4845 26.9799 66.4845 23.1678C66.4845 19.4899 68.7127 16.9933 72.2294 16.9933C75.7999 16.9933 78.1086 19.4899 78.1086 23.1678C78.1086 26.9799 75.7999 29.4765 72.2294 29.4765Z" fill="white"/>
<path d="M34.8874 13.0739H29.9746V33.3423H34.8874V13.0739Z" fill="white"/>
<path d="M3.96176 43.7584H3.34432V40.4564H2.2168V39.9195H5.08928V40.4564H3.96176V43.7584Z" fill="white"/>
<path d="M10.9694 43.7584H8.79492V39.9195H10.9694V40.4564H9.43922V41.5034H10.8889V42.0403H9.43922V43.2484H10.9694V43.7584Z" fill="white"/>
<path d="M14.8613 43.7584V39.9195H15.4788V43.2215H17.0895V43.7584H14.8613Z" fill="white"/>
<path d="M23.0222 43.7584H20.8477V39.9195H23.0222V40.4564H21.4919V41.5034H22.9416V42.0403H21.4919V43.2484H23.0222V43.7584Z" fill="white"/>
<path d="M29.2778 39.9195H29.9221L28.5798 43.7584H27.9087L26.5664 39.9195H27.2107L28.0161 42.3088C28.0698 42.4161 28.0966 42.5772 28.1503 42.7383C28.204 42.9262 28.2308 43.0604 28.2308 43.141C28.2577 43.0067 28.2845 42.8457 28.3382 42.6846C28.3919 42.4967 28.4188 42.3893 28.4456 42.3088L29.2778 39.9195Z" fill="white"/>
<path d="M33.5996 43.7584V39.9195H34.2171V43.7584H33.5996Z" fill="white"/>
<path d="M40.5792 42.7114C40.5792 43.0604 40.4449 43.3289 40.2033 43.5168C39.9617 43.7047 39.6127 43.8121 39.1832 43.8121C38.7537 43.8121 38.4047 43.7316 38.1094 43.5973V43.0067C38.2973 43.0873 38.4584 43.141 38.6731 43.1946C38.8879 43.2483 39.049 43.2752 39.21 43.2752C39.4517 43.2752 39.6396 43.2215 39.747 43.141C39.8543 43.0604 39.9349 42.9262 39.9349 42.7651C39.9349 42.6309 39.8812 42.4967 39.7738 42.3893C39.6664 42.2819 39.4517 42.1745 39.1027 42.0403C38.7537 41.9061 38.5121 41.745 38.351 41.5571C38.2168 41.3691 38.1362 41.1544 38.1362 40.9128C38.1362 40.5906 38.2436 40.349 38.4852 40.1611C38.7268 39.9732 39.0221 39.8926 39.398 39.8926C39.7738 39.8926 40.1228 39.9732 40.4986 40.1342L40.3107 40.6443C39.9617 40.5101 39.6664 40.4296 39.398 40.4296C39.1832 40.4296 39.049 40.4832 38.9416 40.5638C38.8342 40.6443 38.7805 40.7785 38.7805 40.9128C38.7805 41.0202 38.8074 41.1007 38.8342 41.1812C38.861 41.2618 38.9416 41.3155 39.049 41.3691C39.1564 41.4228 39.3174 41.5034 39.559 41.6108C39.8275 41.7181 40.0423 41.8255 40.1765 41.9329C40.3107 42.0403 40.3913 42.1477 40.4718 42.2819C40.5523 42.3893 40.5792 42.5504 40.5792 42.7114Z" fill="white"/>
<path d="M44.418 43.7584V39.9195H45.0354V43.7584H44.418Z" fill="white"/>
<path d="M52.5529 41.8255C52.5529 42.443 52.3918 42.9262 52.0965 43.2752C51.8012 43.6242 51.3448 43.7852 50.7811 43.7852C50.1905 43.7852 49.7609 43.6242 49.4388 43.2752C49.1166 42.9262 48.9824 42.443 48.9824 41.7987C48.9824 41.1544 49.1435 40.6711 49.4388 40.349C49.7609 40 50.1905 39.8389 50.7811 39.8389C51.3448 39.8389 51.8012 40 52.0965 40.349C52.4187 40.7248 52.5529 41.2081 52.5529 41.8255ZM49.6267 41.8255C49.6267 42.3087 49.7341 42.6577 49.922 42.8993C50.1099 43.1409 50.4052 43.2752 50.7811 43.2752C51.1569 43.2752 51.4254 43.1678 51.6133 42.9262C51.8012 42.6846 51.9086 42.3356 51.9086 41.8524C51.9086 41.3691 51.8281 41.0201 51.6401 40.7785C51.4522 40.5369 51.1838 40.4027 50.8079 40.4027C50.4321 40.4027 50.1368 40.5369 49.9489 40.7785C49.7341 41.0201 49.6267 41.3691 49.6267 41.8255Z" fill="white"/>
<path d="M59.6668 43.7584H58.8883L57.0091 40.698H56.9822V40.8591C57.0091 41.1812 57.0091 41.4765 57.0091 41.745V43.7316H56.4453V39.8926H57.197L59.0762 42.9262H59.103C59.103 42.8725 59.103 42.7383 59.0762 42.4967C59.0762 42.255 59.0493 42.0403 59.0493 41.9061V39.8926H59.6131V43.7584H59.6668Z" fill="white"/>
<path d="M86.5122 15.7853H86.0559V13.5034H85.2773V13.1007H87.2908V13.5034H86.5122V15.7853ZM88.7404 15.7853L87.9887 13.7182H87.9619L87.9887 14.2014V15.7853H87.5592V13.1007H88.2572L88.982 15.1678L89.7337 13.1007H90.4049V15.7853H89.9216V14.2282L89.9485 13.7182H89.9216L89.1431 15.7853H88.7404Z" fill="white"/>
</svg>
