<svg width="76" height="32" viewBox="0 0 76 32" fill="none" xmlns="http://www.w3.org/2000/svg">
<path d="M75.0092 8.72714H69.9639V31.2718C69.9639 31.6734 70.2863 31.999 70.6846 31.999H75.0092C75.4072 31.999 75.7299 31.6737 75.7299 31.2718V9.45442C75.7299 9.05283 75.4075 8.72714 75.0092 8.72714ZM55.5486 26.1811C52.3641 26.1811 49.7825 23.5763 49.7825 20.3631C49.7825 17.15 52.3641 14.5452 55.5486 14.5452C58.7331 14.5452 61.3147 17.15 61.3147 20.3631C61.3147 23.5763 58.7331 26.1811 55.5486 26.1811ZM55.5486 8.72714C53.8557 8.72714 52.2486 9.09536 50.8004 9.7566C50.7072 9.79764 50.6056 9.82092 50.503 9.82092C50.1049 9.82092 49.7822 9.49552 49.7822 9.09364V0.727277C49.7822 0.32569 49.4598 0 49.0615 0H44.0162V20.3629C44.0162 26.7892 49.1791 31.9988 55.5483 31.9988C61.9175 31.9988 67.0805 26.7892 67.0805 20.3629C67.0805 13.9365 61.9178 8.72714 55.5486 8.72714ZM17.6976 29.7914L15.5281 25.9966C15.3446 25.6759 14.95 25.5466 14.6135 25.6949C13.906 26.0074 13.1244 26.1809 12.3026 26.1809C9.11813 26.1809 6.53657 23.5761 6.53657 20.3629V15.2722C6.53657 14.8706 6.85901 14.545 7.25732 14.545H14.4649C14.8629 14.545 15.1857 14.2196 15.1857 13.8177V9.45442C15.1857 9.05283 14.8632 8.72696 14.4649 8.72696H7.25732C6.85925 8.72696 6.53657 8.40166 6.53657 7.99978V0.727098C6.53657 0.325511 6.2136 8.94559e-05 5.81582 8.94559e-05H0.770508V20.3629C0.770508 26.7893 5.93364 31.9988 12.3026 31.9988C14.1294 31.9988 15.8569 31.5703 17.392 30.8075C17.749 30.6298 17.8962 30.194 17.7197 29.8336C17.7139 29.8219 17.7094 29.8031 17.6976 29.7914ZM40.411 8.72813H35.3657V20.364C35.3657 23.5772 32.7841 26.1821 29.5996 26.1821C26.4151 26.1821 23.8335 23.5772 23.8335 20.364V9.45531C23.8335 9.05373 23.5111 8.72813 23.1128 8.72813H18.0674V20.364C18.0674 26.7903 23.2306 32 29.5996 32C35.9686 32 41.1318 26.7903 41.1318 20.364V9.45531C41.1318 9.05373 40.8093 8.72813 40.411 8.72813ZM72.8452 0.00116293C71.2528 0.00116293 69.9623 1.30345 69.9623 2.91009C69.9623 4.51679 71.2528 5.81911 72.8452 5.81911C74.4376 5.81911 75.7283 4.51679 75.7283 2.91009C75.7283 1.30345 74.4376 0.00116293 72.8452 0.00116293Z" fill="black"/>
</svg>
