<svg width="76" height="32" viewBox="0 0 76 32" fill="none" xmlns="http://www.w3.org/2000/svg">
<path d="M75.0082 8.72714H69.9629V31.2718C69.9629 31.6734 70.2853 31.999 70.6836 31.999H75.0082C75.4063 31.999 75.729 31.6737 75.729 31.2718V9.45442C75.729 9.05283 75.4066 8.72714 75.0082 8.72714ZM55.5476 26.1811C52.3631 26.1811 49.7815 23.5763 49.7815 20.3631C49.7815 17.15 52.3631 14.5452 55.5476 14.5452C58.7322 14.5452 61.3138 17.15 61.3138 20.3631C61.3138 23.5763 58.7322 26.1811 55.5476 26.1811ZM55.5476 8.72714C53.8547 8.72714 52.2476 9.09536 50.7995 9.7566C50.7062 9.79764 50.6046 9.82092 50.502 9.82092C50.104 9.82092 49.7813 9.49552 49.7813 9.09364V0.727277C49.7813 0.32569 49.4588 0 49.0605 0H44.0152V20.3629C44.0152 26.7892 49.1782 31.9988 55.5473 31.9988C61.9166 31.9988 67.0795 26.7892 67.0795 20.3629C67.0795 13.9365 61.9168 8.72714 55.5476 8.72714ZM17.6967 29.7914L15.5271 25.9966C15.3436 25.6759 14.949 25.5466 14.6125 25.6949C13.905 26.0074 13.1235 26.1809 12.3017 26.1809C9.11716 26.1809 6.53559 23.5761 6.53559 20.3629V15.2722C6.53559 14.8706 6.85804 14.545 7.25634 14.545H14.4639C14.862 14.545 15.1847 14.2196 15.1847 13.8177V9.45442C15.1847 9.05283 14.8623 8.72696 14.4639 8.72696H7.25634C6.85827 8.72696 6.53559 8.40166 6.53559 7.99978V0.727098C6.53559 0.325511 6.21262 8.94559e-05 5.81485 8.94559e-05H0.769531V20.3629C0.769531 26.7893 5.93266 31.9988 12.3017 31.9988C14.1284 31.9988 15.8559 31.5703 17.391 30.8075C17.748 30.6298 17.8952 30.194 17.7187 29.8336C17.7129 29.8219 17.7084 29.8031 17.6967 29.7914ZM40.41 8.72813H35.3647V20.364C35.3647 23.5772 32.7831 26.1821 29.5986 26.1821C26.4141 26.1821 23.8325 23.5772 23.8325 20.364V9.45531C23.8325 9.05373 23.5101 8.72813 23.1118 8.72813H18.0665V20.364C18.0665 26.7903 23.2296 32 29.5986 32C35.9676 32 41.1308 26.7903 41.1308 20.364V9.45531C41.1308 9.05373 40.8084 8.72813 40.41 8.72813ZM72.8443 0.00116293C71.2519 0.00116293 69.9613 1.30345 69.9613 2.91009C69.9613 4.51679 71.2519 5.81911 72.8443 5.81911C74.4366 5.81911 75.7273 4.51679 75.7273 2.91009C75.7273 1.30345 74.4366 0.00116293 72.8443 0.00116293Z" fill="white"/>
</svg>
