<svg width="153" height="32" viewBox="0 0 153 32" fill="none" xmlns="http://www.w3.org/2000/svg">
<g clip-path="url(#clip0_4552_5099)">
<path d="M18.3213 26.9336C17.6585 28.0431 16.0008 28.0436 15.3374 26.9345L0.718979 2.49624C0.0554467 1.38699 0.884276 -1.1192e-07 2.21067 0L28.3999 2.20982e-06C31.067 2.43486e-06 32.7227 2.80091 31.367 5.01927L28.1872 10.2227C26.9478 12.2507 24.6911 13.4952 22.2528 13.4952H12.3001C11.7174 13.4952 11.3598 14.1119 11.6644 14.5918C11.8 14.8054 12.0407 14.9355 12.3001 14.9355H19.5226C22.1745 14.9355 23.8323 17.7078 22.507 19.9263L18.3213 26.9336Z" fill="white"/>
<path d="M52.1527 8.19788C54.0253 8.19788 55.3033 10.0928 54.6014 11.829L50.174 22.7818C49.476 24.5087 47.7998 25.6391 45.9372 25.6391C44.072 25.6391 42.3941 24.5056 41.6977 22.7753L37.513 12.3763C36.7084 10.3769 38.1804 8.19788 40.3356 8.19788C41.3195 8.19788 42.2018 8.80405 42.5546 9.72251L46.0605 18.8493L49.7044 9.84806C50.1081 8.85063 51.0766 8.19788 52.1527 8.19788Z" fill="white"/>
<path d="M72.1976 8.19781C73.8489 8.19781 75.1876 9.53647 75.1876 11.1879V22.7907C75.1876 24.3638 73.9124 25.6391 72.3392 25.6391H71.2285C70.2688 25.6391 69.4908 24.8611 69.4908 23.9014C68.3787 25.2529 66.7001 25.9287 64.4551 25.9287C62.9023 25.9287 61.486 25.5639 60.206 24.8345C58.9471 24.0837 57.94 23.0217 57.1846 21.6488C56.4502 20.2758 56.083 18.6883 56.083 16.8862C56.083 15.0842 56.4502 13.5074 57.1846 12.1559C57.94 10.7829 58.9471 9.73167 60.206 9.0023C61.486 8.2729 62.9023 7.9082 64.4551 7.9082C66.4694 7.9082 68.0535 8.50888 69.2076 9.71021C69.2076 8.87495 69.8847 8.19781 70.72 8.19781H72.1976ZM65.714 21.0695C66.7631 21.0695 67.6234 20.7048 68.2949 19.9754C68.9663 19.2246 69.302 18.1948 69.302 16.8862C69.302 15.5991 68.9663 14.5908 68.2949 13.8614C67.6234 13.1319 66.7631 12.7672 65.714 12.7672C64.6648 12.7672 63.8046 13.1319 63.1332 13.8614C62.4616 14.5908 62.1259 15.5991 62.1259 16.8862C62.1259 18.1948 62.4616 19.2246 63.1332 19.9754C63.8046 20.7048 64.6648 21.0695 65.714 21.0695Z" fill="white"/>
<path d="M89.7706 7.90822C91.3234 7.90822 92.7292 8.27292 93.9881 9.00232C95.2679 9.73169 96.275 10.7829 97.01 12.1559C97.7649 13.5074 98.1423 15.0843 98.1423 16.8862C98.1423 18.6883 97.7649 20.2758 97.01 21.6488C96.275 23.0218 95.2679 24.0837 93.9881 24.8346C92.7292 25.564 91.3234 25.9287 89.7706 25.9287C87.5255 25.9287 85.8469 25.2529 84.7348 23.9014C84.7348 24.8611 83.9569 25.6391 82.9971 25.6391H81.8865C80.3133 25.6391 79.0381 24.3638 79.0381 22.7907V4.75198C79.0381 3.10064 80.3767 1.76196 82.0281 1.76196C83.6794 1.76196 85.0181 3.10064 85.0181 4.75198V9.71023C86.1721 8.5089 87.7563 7.90822 89.7706 7.90822ZM88.5117 21.0696C89.5608 21.0696 90.421 20.7049 91.0926 19.9755C91.764 19.2246 92.0997 18.1948 92.0997 16.8862C92.0997 15.5991 91.764 14.5908 91.0926 13.8614C90.421 13.132 89.5608 12.7673 88.5117 12.7673C87.4626 12.7673 86.6023 13.132 85.9308 13.8614C85.2594 14.5908 84.9236 15.5991 84.9236 16.8862C84.9236 18.1948 85.2594 19.2246 85.9308 19.9755C86.6023 20.7049 87.4626 21.0696 88.5117 21.0696Z" fill="white"/>
<path d="M111.655 7.90822C113.208 7.90822 114.613 8.27292 115.873 9.00232C117.153 9.73169 118.16 10.7829 118.894 12.1559C119.649 13.5074 120.027 15.0843 120.027 16.8862C120.027 18.6883 119.649 20.2758 118.894 21.6488C118.16 23.0218 117.153 24.0837 115.873 24.8346C114.613 25.564 113.208 25.9287 111.655 25.9287C109.41 25.9287 107.731 25.2529 106.619 23.9014C106.619 24.8611 105.841 25.6391 104.881 25.6391H103.771C102.198 25.6391 100.923 24.3638 100.923 22.7907V4.75199C100.923 3.10065 102.261 1.76196 103.913 1.76196C105.564 1.76196 106.902 3.10064 106.902 4.75198V9.71023C108.057 8.5089 109.641 7.90822 111.655 7.90822ZM110.396 21.0696C111.445 21.0696 112.305 20.7049 112.977 19.9755C113.649 19.2246 113.985 18.1948 113.985 16.8862C113.985 15.5991 113.649 14.5908 112.977 13.8614C112.305 13.132 111.445 12.7673 110.396 12.7673C109.347 12.7673 108.487 13.132 107.815 13.8614C107.144 14.5908 106.808 15.5991 106.808 16.8862C106.808 18.1948 107.144 19.2246 107.815 19.9755C108.487 20.7049 109.347 21.0696 110.396 21.0696Z" fill="white"/>
<path d="M129.447 25.9287C127.348 25.9287 125.711 25.3816 124.536 24.2875C123.383 23.172 122.806 21.5845 122.806 19.525V4.75199C122.806 3.10065 124.144 1.76196 125.795 1.76196C127.447 1.76196 128.785 3.10065 128.785 4.75199V19.2032C128.785 19.8468 128.943 20.3402 129.257 20.6834C129.593 21.0267 130.055 21.1983 130.642 21.1983C131.303 21.1983 132.037 21.6192 132.072 22.2788L132.164 23.9518C132.214 24.853 131.656 25.7005 130.762 25.8327C130.33 25.8967 129.892 25.9287 129.447 25.9287Z" fill="white"/>
<path d="M143.214 21.2626C144.032 21.2626 144.735 21.1447 145.322 20.9087C146.451 20.4712 147.804 20.4553 148.629 21.3407L148.773 21.4956C149.623 22.4078 149.67 23.857 148.618 24.5261C147.148 25.4612 145.285 25.9287 143.025 25.9287C141.032 25.9287 139.28 25.5425 137.769 24.7702C136.258 23.9978 135.083 22.9253 134.244 21.5523C133.426 20.1793 133.017 18.6239 133.017 16.8862C133.017 15.17 133.426 13.6361 134.244 12.2846C135.062 10.9116 136.185 9.83896 137.611 9.06666C139.059 8.29435 140.675 7.9082 142.458 7.9082C144.116 7.9082 145.626 8.26217 146.991 8.97012C148.376 9.65666 149.477 10.6757 150.296 12.0272C151.114 13.3573 151.523 14.9447 151.523 16.7897L139.342 19.171C139.994 20.5655 141.284 21.2626 143.214 21.2626ZM142.49 12.2524C141.462 12.2524 140.622 12.5849 139.972 13.25C139.322 13.8935 138.954 14.8267 138.871 16.0496L145.795 14.6659C145.585 13.9365 145.186 13.3573 144.599 12.9282C144.011 12.4776 143.308 12.2524 142.49 12.2524Z" fill="white"/>
<path d="M126.121 30.2322C126.121 29.4052 125.451 28.7347 124.623 28.7347C123.796 28.7347 123.126 29.4052 123.126 30.2322C123.126 31.0593 123.796 31.7297 124.623 31.7297C125.451 31.7297 126.121 31.0593 126.121 30.2322Z" fill="#5D45DB"/>
<path d="M149.767 30.2323C149.767 29.4053 149.097 28.7348 148.27 28.7348C147.443 28.7348 146.772 29.4053 146.772 30.2323C146.772 31.0594 147.443 31.7298 148.27 31.7298C149.097 31.7298 149.767 31.0594 149.767 30.2323Z" fill="#10B56B"/>
<path d="M130.848 30.2322C130.848 29.4052 130.177 28.7347 129.35 28.7347C128.523 28.7347 127.853 29.4052 127.853 30.2322C127.853 31.0593 128.523 31.7297 129.35 31.7297C130.177 31.7297 130.848 31.0593 130.848 30.2322Z" fill="#7907F7"/>
<path d="M135.582 30.2322C135.582 29.4052 134.911 28.7347 134.084 28.7347C133.257 28.7347 132.587 29.4052 132.587 30.2322C132.587 31.0593 133.257 31.7297 134.084 31.7297C134.911 31.7297 135.582 31.0593 135.582 30.2322Z" fill="#0757F7"/>
<path d="M140.305 30.2322C140.305 29.4052 139.634 28.7347 138.807 28.7347C137.98 28.7347 137.31 29.4052 137.31 30.2322C137.31 31.0593 137.98 31.7297 138.807 31.7297C139.634 31.7297 140.305 31.0593 140.305 30.2322Z" fill="#D04C37"/>
<path d="M145.033 30.2322C145.033 29.4052 144.363 28.7347 143.536 28.7347C142.709 28.7347 142.038 29.4052 142.038 30.2322C142.038 31.0593 142.709 31.7297 143.536 31.7297C144.363 31.7297 145.033 31.0593 145.033 30.2322Z" fill="#E1A707"/>
</g>
<defs>
<clipPath id="clip0_4552_5099">
<rect width="151.529" height="32" fill="white" transform="translate(0.485352)"/>
</clipPath>
</defs>
</svg>
