<svg width="97" height="40" viewBox="0 0 97 40" fill="none" xmlns="http://www.w3.org/2000/svg">
<path d="M95.6354 8.62785C95.6354 8.62785 95.0757 4.71359 93.3722 2.98203C91.1877 0.718833 88.7653 0.718833 87.6459 0.585924C79.6564 8.92619e-07 67.6478 0 67.6478 0H67.6216C67.6216 0 55.6373 8.92619e-07 47.6235 0.585924C46.5059 0.718833 44.0817 0.718833 41.8971 2.98203C40.1936 4.71359 39.6339 8.62785 39.6339 8.62785C39.6339 8.62785 39.0742 13.2347 39.0742 17.8416V22.1565C39.0742 26.7634 39.6339 31.3703 39.6339 31.3703C39.6339 31.3703 40.1936 35.2845 41.8971 37.0161C44.0817 39.2793 46.9308 39.2007 48.2075 39.4403C52.7882 39.8671 67.6216 40 67.6216 40C67.6216 40 79.6321 39.9738 87.6197 39.4141C88.7373 39.2812 91.1614 39.2812 93.346 37.018C95.0495 35.2864 95.6092 31.3721 95.6092 31.3721C95.6092 31.3721 96.1689 26.7653 96.1689 22.1584V17.8435C96.2214 13.2347 95.6354 8.62785 95.6354 8.62785Z" fill="url(#paint0_linear_4552_5207)"/>
<path d="M36.1207 32.3811H32.4723V30.2771C31.087 31.8476 29.9152 32.6469 28.6647 32.6469C27.5471 32.6469 26.774 32.1134 26.3753 31.155C26.1357 30.5691 25.9766 29.663 25.9766 28.3321V13.0195H29.625V27.3736C29.625 28.173 29.625 28.5193 29.625 28.7046C29.7055 29.2381 29.9451 29.4496 30.3981 29.4496C31.0908 29.4496 31.7291 28.8375 32.5022 27.7724V13.0457H36.1507V32.3793H36.1207V32.3811Z" fill="white"/>
<path d="M23.3098 19.3598C23.3098 17.2819 22.883 15.7376 22.1641 14.7791C21.2057 13.4482 19.6875 12.9147 18.1432 12.9147C16.4116 12.9147 15.0806 13.4482 14.1222 14.7791C13.3772 15.7638 12.9766 17.3362 12.9766 19.386V26.2561C12.9766 28.3059 13.3229 29.7174 14.0679 30.7039C15.0264 32.0086 16.5969 32.7275 18.1432 32.7275C19.6613 32.7275 21.2581 32.0349 22.2446 30.7039C22.9897 29.7454 23.3098 28.3078 23.3098 26.2561V19.3598ZM19.6613 26.6286C19.8485 28.5455 19.2626 29.504 18.1432 29.504C17.0256 29.504 16.4116 28.5455 16.625 26.6286V18.9854C16.4378 17.0685 17.0237 16.1625 18.1432 16.1625C19.2607 16.1625 19.8747 17.0685 19.6875 18.9854L19.6613 26.6286Z" fill="white"/>
<path d="M8.95785 21.8626V32.3811H5.12221V21.8626C5.12221 21.8626 1.15366 8.94797 0.328125 6.54999H4.34909L7.0653 16.6155L9.7291 6.54999H13.7501L8.95785 21.8626Z" fill="white"/>
<path d="M91.4295 23.3808V19.4665C91.4295 17.4167 91.0308 15.9248 90.3119 14.9663C89.3535 13.6616 87.9683 12.9689 86.2105 12.9689C84.4527 12.9689 83.0675 13.6616 82.0566 14.9663C81.3116 15.9248 80.8848 17.5234 80.8848 19.547V26.258C80.8848 28.2816 81.364 29.7192 82.0828 30.6777C83.0956 31.9824 84.4527 32.6488 86.2629 32.6488C88.0731 32.6488 89.4845 31.9562 90.443 30.571C90.8698 29.9588 91.1356 29.2662 91.2423 28.4931C91.2685 28.1468 91.3752 27.3474 91.3752 26.2299V25.6964H87.7268C87.7268 27.0816 87.7268 27.9072 87.7006 28.0925C87.5134 29.0247 87.0079 29.4777 86.1562 29.4777C84.9581 29.4777 84.4527 28.5998 84.4789 26.8139V23.3789L91.4295 23.3808ZM84.5313 18.3995C84.5313 16.6155 85.0106 16.1363 86.1824 16.1363C87.328 16.1363 87.7811 16.6698 87.7811 18.4257V20.5036H84.5313V18.3995Z" fill="white"/>
<path d="M75.3726 12.9408C74.094 12.9408 72.8435 13.714 71.7241 15.0973V6.73529H68.2891V32.3792H71.7241V30.4624C72.8697 31.9 74.1483 32.6469 75.3726 32.6469C76.7578 32.6469 77.7687 31.9019 78.2217 30.4904C78.4613 29.6911 78.5942 28.4406 78.5942 26.6567V19.0135C78.5942 17.2033 78.3546 15.9509 78.1412 15.2059C77.6882 13.7402 76.7559 12.9408 75.3726 12.9408ZM74.9719 26.842C74.9719 28.7589 74.5189 29.4777 73.5343 29.4777C72.9746 29.4777 72.31 29.1857 71.7241 28.5998V16.9899C72.31 16.4302 72.9484 16.1119 73.5343 16.1119C74.547 16.1119 74.9719 16.6716 74.9719 18.5885V26.842Z" fill="white"/>
<path d="M65.4117 32.3811H61.7633V30.2771C60.378 31.8476 59.2062 32.6469 57.9557 32.6469C56.8381 32.6469 56.065 32.1134 55.6663 31.155C55.4267 30.5691 55.2676 29.663 55.2676 28.3321V13.2067H58.916V27.3736C58.916 28.173 58.916 28.5193 58.916 28.7046C58.9965 29.2381 59.2361 29.4496 59.6891 29.4496C60.3818 29.4496 61.0201 28.8375 61.7932 27.7724V13.2329H65.4417V32.3793H65.4117V32.3811Z" fill="white"/>
<path d="M51.6176 32.3811H47.81V10.3856H43.7891V6.73718H55.852V10.3856H51.6176V32.3811Z" fill="white"/>
<defs>
<linearGradient id="paint0_linear_4552_5207" x1="67.6231" y1="-0.00087982" x2="67.6231" y2="39.9972" gradientUnits="userSpaceOnUse">
<stop stop-color="#E32E28"/>
<stop offset="1" stop-color="#BE2126"/>
</linearGradient>
</defs>
</svg>
