<svg width="107" height="26" viewBox="0 0 107 26" fill="none" xmlns="http://www.w3.org/2000/svg">
<path d="M45.2717 25.2464V8.28988H45.1461L38.3635 25.2464H35.7258L28.9432 8.28988H28.8176V25.2464H25.6775V2.2609H29.6968L36.9818 20.5991H37.1074L44.3924 2.2609H48.5374V25.2464H45.2717ZM66.2475 25.2464H62.9818V22.3575H62.8562C61.977 24.3672 60.2185 25.4976 57.7065 25.4976C54.0639 25.4976 51.9287 23.1111 51.9287 19.2174V8.41548H55.32V18.5894C55.32 21.1015 56.576 22.4831 58.8369 22.4831C61.349 22.4831 62.7306 20.7247 62.7306 18.087V8.41548H66.1219L66.2475 25.2464ZM75.5422 8.16428C79.4359 8.16428 81.8224 10.2995 81.948 13.4396H78.8079C78.5567 11.8068 77.4263 10.802 75.5422 10.802C73.6581 10.802 72.4021 11.6812 72.4021 13.0628C72.4021 14.0677 73.1557 14.8213 74.9142 15.1981L77.5519 15.8261C80.9432 16.5797 82.1992 17.9614 82.1992 20.3479C82.1992 23.3623 79.4359 25.4976 75.5422 25.4976C71.3973 25.4976 68.8852 23.4879 68.634 20.2222H72.0253C72.2765 21.9807 73.5325 22.8599 75.5422 22.8599C77.5519 22.8599 78.8079 21.9807 78.8079 20.5991C78.8079 19.4686 78.1799 18.8406 76.4214 18.4638L73.7837 17.8358C70.6436 17.0822 69.1364 15.5749 69.1364 13.0628C69.1364 10.1739 71.6485 8.16428 75.5422 8.16428ZM84.7113 4.01935C84.7113 2.88891 85.5905 2.00969 86.7209 2.00969C87.8514 2.00969 88.7306 2.88891 88.7306 4.01935C88.7306 5.14978 87.8514 6.02901 86.7209 6.02901C85.5905 6.02901 84.7113 5.14978 84.7113 4.01935ZM84.9625 8.41548H88.3538V25.2464H84.9625V8.41548ZM102.673 14.1933C102.296 12.4348 101.04 10.9276 98.7789 10.9276C96.1412 10.9276 94.3828 13.1884 94.3828 16.7053C94.3828 20.3479 96.1412 22.4831 98.7789 22.4831C100.914 22.4831 102.17 21.3527 102.673 19.343H105.938C105.562 22.8599 102.798 25.372 98.7789 25.372C94.006 25.372 90.9915 22.1063 90.9915 16.7053C90.9915 11.43 94.006 8.03867 98.7789 8.03867C103.049 8.03867 105.562 10.802 105.938 14.0677L102.673 14.1933ZM15.2523 4.52176C14.3731 5.5266 12.9915 6.40582 11.6098 6.28022C11.3586 4.77297 12.1122 3.26573 12.8659 2.3865C13.7451 1.25606 15.2523 0.502441 16.5084 0.502441C16.634 1.88408 16.1316 3.39133 15.2523 4.52176ZM16.5084 6.53143C17.262 6.53143 19.5229 6.78263 21.0301 9.0435C20.9045 9.16911 18.3924 10.6764 18.3924 13.8165C18.3924 17.5846 21.6581 18.8406 21.6581 18.8406C21.6581 18.9662 21.1557 20.5991 20.0253 22.3575C19.0205 23.8648 17.89 25.372 16.2572 25.372C14.6243 25.372 14.1219 24.3672 12.2379 24.3672C10.3538 24.3672 9.72577 25.372 8.21853 25.372C6.58568 25.372 5.32964 23.7392 4.32481 22.2319C2.18954 19.0918 0.55669 13.4396 2.81756 9.67152C3.82239 7.78747 5.83205 6.53143 7.84171 6.53143C9.47456 6.53143 10.9818 7.66186 11.861 7.66186C12.7403 7.66186 14.4987 6.40582 16.5084 6.53143Z" fill="black"/>
</svg>
