<svg width="121" height="44" viewBox="0 0 121 44" fill="none" xmlns="http://www.w3.org/2000/svg">
<g clip-path="url(#clip0_4552_5656)">
<path d="M21.9598 18.0299C21.7983 18.0314 21.6383 17.9988 21.4904 17.934C21.3424 17.8692 21.2099 17.7737 21.1016 17.6539C20.864 17.4021 20.747 17.0245 20.747 16.5226V6.65127C20.747 4.58728 19.9662 2.96303 18.4046 1.77854C16.843 0.594049 14.5556 0.00298493 11.5423 0.00534919H10.6646C8.99898 -0.0231823 7.34164 0.245834 5.77057 0.79974C4.35202 1.33052 3.24318 2.06935 2.44407 3.01623C1.67072 3.9096 1.24738 5.05299 1.25248 6.23457C1.26166 6.4869 1.28952 6.7382 1.33582 6.98641H7.23346V6.65305C7.25902 6.25226 7.41325 5.87042 7.67321 5.56431C8.01308 5.13844 8.45117 4.80135 8.94991 4.58196C9.58123 4.30226 10.2669 4.16658 10.9572 4.18476C12.2965 4.18476 13.2659 4.47734 13.8652 5.06249C14.4645 5.64765 14.7642 6.41603 14.7642 7.36764V8.7862C11.5843 8.7862 8.99069 8.96766 6.98344 9.33057C4.97618 9.69348 3.4075 10.3974 2.27739 11.4424C1.14727 12.4886 0.582804 14.0017 0.583986 15.9818C0.583986 18.4075 1.26726 20.0531 2.6338 20.9184C4.00034 21.7837 5.74279 22.2158 7.86117 22.2146C10.7066 22.2146 13.1051 21.0153 15.0568 18.6168C15.1975 19.7611 15.6703 20.6477 16.4753 21.2766C17.2804 21.9055 18.4519 22.2193 19.9898 22.2181C21.4084 22.2181 22.6354 21.9256 23.671 21.3404V17.5688C23.4759 17.6539 23.2099 17.7461 22.8766 17.8632C22.5818 17.9673 22.2723 18.0236 21.9598 18.0299ZM14.7642 13.3433C14.7724 14.2081 14.517 15.0548 14.0319 15.7708C13.5742 16.4696 12.9511 17.0445 12.2179 17.4447C11.5531 17.8188 10.805 18.02 10.0422 18.0299C8.97828 18.0299 8.19039 17.8413 7.67853 17.4642C7.16667 17.0871 6.90896 16.4369 6.90542 15.5137C6.90542 14.3434 7.55559 13.4999 8.85593 12.9833C10.1563 12.4668 12.1292 12.2091 14.7748 12.2102L14.7642 13.3433ZM40.6794 9.30752C39.1881 8.88644 37.672 8.55836 36.14 8.32517C34.4957 8.07338 33.2893 7.80799 32.521 7.52901C31.7526 7.25002 31.3684 6.76239 31.3684 6.06612C31.3684 5.47506 31.723 5.01462 32.4323 4.6848C33.1416 4.35499 34.0873 4.18772 35.2694 4.18299C37.8358 4.18299 39.1184 5.01935 39.1172 6.69206H44.4723C44.4723 6.66546 44.4847 6.56084 44.5131 6.3782C44.5429 6.17746 44.5571 5.97471 44.5556 5.77177C44.555 4.65552 44.1201 3.58331 43.3428 2.78217C42.4528 1.85352 41.3526 1.15233 40.135 0.737678C38.7882 0.245942 37.3646 -0.00203774 35.9308 0.00534919H35.0921C33.5177 -0.0107807 31.9528 0.250933 30.4694 0.778461C29.1552 1.23224 27.9855 2.0279 27.0808 3.08361C26.2297 4.10142 25.8047 5.33557 25.8059 6.78604C25.8059 8.37482 26.2196 9.61605 27.0471 10.5097C27.8452 11.3884 28.8631 12.0385 29.9959 12.3929C31.4348 12.8199 32.9003 13.1516 34.3828 13.3859C36.0827 13.6377 37.3381 13.9302 38.1491 14.2636C38.96 14.597 39.3643 15.1549 39.3619 15.9375C39.3619 16.6645 38.9222 17.1929 38.0445 17.5334C37.0863 17.8817 36.0725 18.0517 35.0531 18.0352C33.7693 18.0352 32.6953 17.8188 31.8312 17.3862C31.4282 17.2059 31.0889 16.9082 30.8576 16.5321C30.6264 16.156 30.514 15.7189 30.535 15.2779V14.9764H25.1799L25.1374 15.8116C25.123 17.0269 25.5296 18.2097 26.2882 19.1594C27.0566 20.1346 28.1205 20.8876 29.4799 21.4184C30.9654 21.9684 32.5401 22.2377 34.1239 22.2128H35.5035C38.2649 22.2128 40.5382 21.6483 42.3232 20.5194C44.1082 19.3905 45.0001 17.5582 44.9989 15.0225C44.9989 13.377 44.5668 12.1015 43.7027 11.196C42.8779 10.3124 41.8353 9.66116 40.6794 9.30752ZM48.1871 24.6758V24.9666L48.2705 24.7042L48.1871 24.6758ZM46.7242 0.418503L51.8044 13.6075L54.6752 4.58551L53.207 0.418503H46.7242Z" fill="white"/>
<path d="M47.1845 39.6504C46.677 39.646 46.1717 39.5823 45.679 39.4607C45.2369 39.3637 44.8034 39.2308 44.3828 39.0635V43.3723C45.3013 43.7908 46.5 44 47.9788 44C50.0984 44 51.9112 43.1985 53.4172 41.5956C54.9233 39.9926 56.1923 37.7962 57.2243 35.0064L64.8384 14.8009H58.8095L54.3765 28.2293H54.1247L50.3656 17.5511L47.4735 26.6387L50.988 35.76C50.2373 38.3524 48.9695 39.6492 47.1845 39.6504ZM85.2726 16.1396C83.8647 14.974 82.0732 14.3913 79.8981 14.3913C77.1083 14.3913 74.835 15.5763 73.0784 17.9465L72.4081 14.8097H67.8492V36.1767H73.9561V23.0427C73.9451 22.4915 74.0429 21.9435 74.2441 21.4302C74.4452 20.9169 74.7456 20.4483 75.1282 20.0513C75.4806 19.6573 75.9129 19.3428 76.3962 19.1288C76.8796 18.9147 77.403 18.8061 77.9316 18.8101C78.3862 18.7978 78.8379 18.887 79.2538 19.071C79.6697 19.255 80.0394 19.5293 80.3361 19.874C80.9638 20.5832 81.2776 21.4823 81.2776 22.571V36.1661H87.3845V21.2429C87.3845 19.0122 86.6805 17.3111 85.2726 16.1396ZM98.5237 20.0513C98.8561 19.5761 99.3018 19.1914 99.8204 18.9319C100.339 18.6724 100.914 18.5465 101.494 18.5654C102.749 18.5654 103.695 18.998 104.331 19.8633C104.967 20.7286 105.293 21.886 105.31 23.3352H111.374C111.374 21.4947 110.949 19.8988 110.099 18.5476C109.275 17.222 108.099 16.1514 106.702 15.4552C105.28 14.7419 103.709 14.3772 102.118 14.3913H101.448C99.4676 14.3913 97.711 14.8097 96.1778 15.6467C94.6477 16.4789 93.3909 17.7357 92.5587 19.2658C91.6804 20.8415 91.2412 22.717 91.2412 24.8921V26.0943C91.2412 29.3854 92.1615 31.9577 94.0021 33.8113C95.8426 35.6648 98.3251 36.5922 101.449 36.5934H102.118C103.706 36.6136 105.28 36.2855 106.728 35.6323C108.119 34.9946 109.29 33.9616 110.097 32.6622C110.946 31.3241 111.371 29.6649 111.372 27.6849H105.593C105.593 29.2453 105.224 30.4233 104.485 31.2189C103.746 32.0144 102.735 32.4116 101.451 32.4104C100.887 32.4296 100.326 32.3123 99.816 32.0684C99.3063 31.8245 98.8631 31.4613 98.5237 31.0096C97.7991 30.0757 97.4361 28.9113 97.435 27.5164V23.7892C97.435 22.2867 97.7979 21.0407 98.5237 20.0513ZM114.807 30.029H120.914V36.1785H114.807V30.029Z" fill="white"/>
</g>
<defs>
<clipPath id="clip0_4552_5656">
<rect width="120.331" height="44" fill="white" transform="translate(0.583984)"/>
</clipPath>
</defs>
</svg>
