<svg width="121" height="44" viewBox="0 0 121 44" fill="none" xmlns="http://www.w3.org/2000/svg">
<g clip-path="url(#clip0_4516_72358)">
<path d="M21.9608 18.0299C21.7993 18.0314 21.6393 17.9988 21.4914 17.934C21.3434 17.8692 21.2109 17.7737 21.1026 17.6539C20.865 17.4021 20.7479 17.0245 20.7479 16.5226V6.65127C20.7479 4.58728 19.9671 2.96303 18.4055 1.77854C16.844 0.594049 14.5565 0.00298493 11.5433 0.00534919H10.6656C8.99995 -0.0231823 7.34262 0.245834 5.77155 0.79974C4.353 1.33052 3.24416 2.06935 2.44504 3.01623C1.6717 3.9096 1.24836 5.05299 1.25346 6.23457C1.26264 6.4869 1.29049 6.7382 1.3368 6.98641H7.23444V6.65305C7.26 6.25226 7.41423 5.87042 7.67419 5.56431C8.01406 5.13844 8.45215 4.80135 8.95089 4.58196C9.58221 4.30226 10.2679 4.16658 10.9581 4.18476C12.2975 4.18476 13.2668 4.47734 13.8662 5.06249C14.4655 5.64765 14.7652 6.41603 14.7652 7.36764V8.7862C11.5853 8.7862 8.99167 8.96766 6.98442 9.33057C4.97716 9.69348 3.40848 10.3974 2.27836 11.4424C1.14825 12.4886 0.583781 14.0017 0.584963 15.9818C0.584963 18.4075 1.26823 20.0531 2.63477 20.9184C4.00131 21.7837 5.74377 22.2158 7.86215 22.2146C10.7075 22.2146 13.1061 21.0153 15.0578 18.6168C15.1984 19.7611 15.6713 20.6477 16.4763 21.2766C17.2813 21.9055 18.4528 22.2193 19.9908 22.2181C21.4093 22.2181 22.6364 21.9256 23.6719 21.3404V17.5688C23.4769 17.6539 23.2109 17.7461 22.8775 17.8632C22.5828 17.9673 22.2733 18.0236 21.9608 18.0299ZM14.7652 13.3433C14.7734 14.2081 14.5179 15.0548 14.0329 15.7708C13.5752 16.4696 12.9521 17.0445 12.2189 17.4447C11.5541 17.8188 10.806 18.02 10.0432 18.0299C8.97926 18.0299 8.19137 17.8413 7.67951 17.4642C7.16764 17.0871 6.90994 16.4369 6.90639 15.5137C6.90639 14.3434 7.55657 13.4999 8.85691 12.9833C10.1572 12.4668 12.1302 12.2091 14.7758 12.2102L14.7652 13.3433ZM40.6804 9.30752C39.1891 8.88644 37.673 8.55836 36.141 8.32517C34.4967 8.07338 33.2903 7.80799 32.5219 7.52901C31.7536 7.25002 31.3694 6.76239 31.3694 6.06612C31.3694 5.47506 31.724 5.01462 32.4333 4.6848C33.1426 4.35499 34.0883 4.18772 35.2704 4.18299C37.8368 4.18299 39.1194 5.01935 39.1182 6.69206H44.4733C44.4733 6.66546 44.4857 6.56084 44.514 6.3782C44.5438 6.17746 44.5581 5.97471 44.5566 5.77177C44.556 4.65552 44.121 3.58331 43.3437 2.78217C42.4537 1.85352 41.3536 1.15233 40.136 0.737678C38.7892 0.245942 37.3656 -0.00203774 35.9318 0.00534919H35.0931C33.5187 -0.0107807 31.9538 0.250933 30.4704 0.778461C29.1561 1.23224 27.9865 2.0279 27.0818 3.08361C26.2306 4.10142 25.8057 5.33557 25.8069 6.78604C25.8069 8.37482 26.2206 9.61605 27.0481 10.5097C27.8461 11.3884 28.864 12.0385 29.9969 12.3929C31.4358 12.8199 32.9013 13.1516 34.3838 13.3859C36.0837 13.6377 37.3391 13.9302 38.1501 14.2636C38.961 14.597 39.3653 15.1549 39.3629 15.9375C39.3629 16.6645 38.9232 17.1929 38.0454 17.5334C37.0872 17.8817 36.0734 18.0517 35.0541 18.0352C33.7703 18.0352 32.6963 17.8188 31.8322 17.3862C31.4291 17.2059 31.0899 16.9082 30.8586 16.5321C30.6274 16.156 30.5149 15.7189 30.536 15.2779V14.9764H25.1809L25.1384 15.8116C25.124 17.0269 25.5306 18.2097 26.2892 19.1594C27.0575 20.1346 28.1215 20.8876 29.4809 21.4184C30.9664 21.9684 32.5411 22.2377 34.1249 22.2128H35.5044C38.2659 22.2128 40.5391 21.6483 42.3241 20.5194C44.1092 19.3905 45.0011 17.5582 44.9999 15.0225C44.9999 13.377 44.5678 12.1015 43.7037 11.196C42.8788 10.3124 41.8362 9.66116 40.6804 9.30752ZM48.1881 24.6758V24.9666L48.2714 24.7042L48.1881 24.6758ZM46.7252 0.418503L51.8054 13.6075L54.6762 4.58551L53.208 0.418503H46.7252Z" fill="black"/>
<path d="M47.1864 39.6504C46.6789 39.646 46.1737 39.5823 45.681 39.4607C45.2388 39.3637 44.8053 39.2308 44.3848 39.0635V43.3723C45.3033 43.7908 46.502 44 47.9808 44C50.1004 44 51.9131 43.1985 53.4192 41.5956C54.9252 39.9926 56.1942 37.7962 57.2262 35.0064L64.8403 14.8009H58.8115L54.3785 28.2293H54.1267L50.3675 17.5511L47.4754 26.6387L50.9899 35.76C50.2393 38.3524 48.9714 39.6492 47.1864 39.6504ZM85.2746 16.1396C83.8667 14.974 82.0752 14.3913 79.9 14.3913C77.1102 14.3913 74.837 15.5763 73.0803 17.9465L72.4101 14.8097H67.8512V36.1767H73.9581V23.0427C73.947 22.4915 74.0449 21.9435 74.246 21.4302C74.4471 20.9169 74.7476 20.4483 75.1302 20.0513C75.4826 19.6573 75.9148 19.3428 76.3982 19.1288C76.8816 18.9147 77.405 18.8061 77.9336 18.8101C78.3882 18.7978 78.8398 18.887 79.2557 19.071C79.6716 19.255 80.0413 19.5293 80.338 19.874C80.9657 20.5832 81.2796 21.4823 81.2796 22.571V36.1661H87.3865V21.2429C87.3865 19.0122 86.6825 17.3111 85.2746 16.1396ZM98.5257 20.0513C98.8581 19.5761 99.3038 19.1914 99.8224 18.9319C100.341 18.6724 100.916 18.5465 101.496 18.5654C102.751 18.5654 103.697 18.998 104.333 19.8633C104.969 20.7286 105.295 21.886 105.312 23.3352H111.376C111.376 21.4947 110.951 19.8988 110.101 18.5476C109.277 17.222 108.101 16.1514 106.704 15.4552C105.282 14.7419 103.711 14.3772 102.12 14.3913H101.45C99.4696 14.3913 97.7129 14.8097 96.1797 15.6467C94.6497 16.4789 93.3928 17.7357 92.5606 19.2658C91.6823 20.8415 91.2432 22.717 91.2432 24.8921V26.0943C91.2432 29.3854 92.1634 31.9577 94.004 33.8113C95.8446 35.6648 98.3271 36.5922 101.451 36.5934H102.12C103.708 36.6136 105.282 36.2855 106.73 35.6323C108.121 34.9946 109.292 33.9616 110.099 32.6622C110.948 31.3241 111.373 29.6649 111.374 27.6849H105.595C105.595 29.2453 105.226 30.4233 104.487 31.2189C103.748 32.0144 102.737 32.4116 101.453 32.4104C100.889 32.4296 100.328 32.3123 99.8179 32.0684C99.3083 31.8245 98.865 31.4613 98.5257 31.0096C97.801 30.0757 97.4381 28.9113 97.4369 27.5164V23.7892C97.4369 22.2867 97.7998 21.0407 98.5257 20.0513ZM114.809 30.029H120.916V36.1785H114.809V30.029Z" fill="black"/>
</g>
<defs>
<clipPath id="clip0_4516_72358">
<rect width="120.331" height="44" fill="white" transform="translate(0.584961)"/>
</clipPath>
</defs>
</svg>
