<svg width="163" height="34" viewBox="0 0 163 34" fill="none" xmlns="http://www.w3.org/2000/svg">
<path d="M48.3304 8.63464L41.3145 25.0942H46.1712L47.2508 22.126H53.457L54.5366 25.0942H59.3934L52.3781 8.63464H48.0605H48.3304ZM48.6003 18.6187L50.4889 14.0319L52.3775 18.6187H48.6003Z" fill="#111111"/>
<path d="M76.3924 17.809C76.3924 19.9675 75.3128 21.0471 73.4242 21.0471C71.5356 21.0471 70.456 19.9675 70.456 17.5392V8.36475H65.8691V17.5392C65.8691 22.6658 68.8373 25.0942 73.4242 25.0942C78.0111 25.0942 80.9792 22.6658 80.9792 17.5392V8.36475H76.3924V17.5392V17.809Z" fill="#111111"/>
<path d="M95.8215 8.63464H89.6152V25.0942H95.8215C101.758 25.0942 104.996 21.5862 104.996 16.9994C104.996 12.4125 101.758 8.90454 95.8215 8.90454V8.63464ZM100.408 16.7295C100.408 19.4278 98.5197 20.7772 95.8215 20.7772H93.9329V12.4125H95.8215C98.5197 12.4125 100.408 14.0312 100.408 16.4602V16.7295Z" fill="#111111"/>
<path d="M117.678 8.63464H113.091V25.0942H117.678V8.63464Z" fill="#111111"/>
<path d="M137.105 17.809C137.105 19.9675 136.026 21.0471 134.137 21.0471C132.248 21.0471 131.169 19.9675 131.169 17.5392V8.36475H126.582V17.5392C126.582 22.6658 129.55 25.0942 134.137 25.0942C138.724 25.0942 141.692 22.6658 141.692 17.5392V8.36475H137.105V17.5392V17.809Z" fill="#111111"/>
<path d="M156.804 14.8409C154.645 14.3011 153.836 14.0312 153.836 13.2222C153.836 12.6824 154.375 12.1426 155.454 12.1426C156.804 12.1426 158.423 12.6824 160.041 13.7613L162.2 10.5232C160.311 9.17378 158.152 8.36475 155.454 8.36475C151.406 8.36475 149.247 10.5232 149.247 13.4914C149.247 16.7295 151.946 17.809 155.454 18.6181C157.612 19.1579 158.152 19.4278 158.152 20.2368C158.152 21.0465 157.612 21.3164 156.263 21.3164C154.375 21.3164 152.486 20.5067 150.867 19.4278L148.438 22.3959C150.597 24.2845 153.295 25.0942 155.994 25.0942C160.041 25.0942 162.47 23.2056 162.47 19.6976C162.47 16.4596 160.311 15.38 156.533 14.571L156.804 14.8409Z" fill="#111111"/>
<path d="M24.0455 16.4596L19.7279 8.90452L14.8711 0.539788C14.6012 0.269895 14.3313 0 14.0615 0C13.7916 0 13.5217 0.269895 13.2518 0.539788L4.07802 16.4596L0.300166 22.9357C0.300166 23.2056 0.0302734 23.2056 0.0302734 23.4755C0.0302734 24.0153 0.570059 24.2852 0.839952 24.2852H7.85587C8.12576 24.2852 8.39565 24.0153 8.66555 23.7454L12.4434 17.2692L12.9832 16.1897C13.2531 15.9198 13.523 15.9198 13.7929 15.9198C14.0628 15.9198 14.3326 16.1897 14.6025 16.4596L18.3804 23.2056L19.1901 24.5551V24.8249V25.0948C19.1901 25.6346 18.6503 25.9045 18.3804 25.9045H10.0144C9.74447 25.9045 9.47457 26.1744 9.20468 26.4443L5.69672 32.6505C5.69672 32.9204 5.69672 32.9204 5.69672 33.1903C5.69672 33.7301 6.23651 34 6.5064 34H32.4103C32.9501 34 33.2199 33.4602 33.2199 33.1903C33.2199 32.9204 33.2199 32.9204 33.2199 32.6505L24.0455 16.7295V16.4596Z" fill="url(#paint0_linear_4516_56192)"/>
<mask id="mask0_4516_56192" style="mask-type:luminance" maskUnits="userSpaceOnUse" x="0" y="0" width="34" height="34">
<path d="M24.0455 16.4596L19.7279 8.90452L14.8711 0.539788C14.6012 0.269895 14.3313 0 14.0615 0C13.7916 0 13.5217 0.269895 13.2518 0.539788L4.07802 16.4596L0.300166 22.9357C0.300166 23.2056 0.0302734 23.2056 0.0302734 23.4755C0.0302734 24.0153 0.570059 24.2852 0.839952 24.2852H7.85587C8.12576 24.2852 8.39565 24.0153 8.66555 23.7454L12.4434 17.2692L12.9832 16.1897C13.2531 15.9198 13.523 15.9198 13.7929 15.9198C14.0628 15.9198 14.3326 16.1897 14.6025 16.4596L18.3804 23.2056L19.1901 24.5551V24.8249V25.0948C19.1901 25.6346 18.6503 25.9045 18.3804 25.9045H10.0144C9.74447 25.9045 9.47457 26.1744 9.20468 26.4443L5.69672 32.6505C5.69672 32.9204 5.69672 32.9204 5.69672 33.1903C5.69672 33.7301 6.23651 34 6.5064 34H32.4103C32.9501 34 33.2199 33.4602 33.2199 33.1903C33.2199 32.9204 33.2199 32.9204 33.2199 32.6505L24.0455 16.7295V16.4596Z" fill="white"/>
</mask>
<g mask="url(#mask0_4516_56192)">
<path fill-rule="evenodd" clip-rule="evenodd" d="M1.92061 19.9676L5.42857 13.7613L7.85695 13.4915L11.095 18.0783L12.7137 21.8562L15.412 25.634L18.1103 28.0624L19.9989 28.8721L24.3165 28.6022L27.8245 27.2527L29.1739 26.713H29.9836L31.3331 29.1413C27.8251 31.8396 24.0479 32.9192 19.7303 32.3794C15.6825 31.8396 13.2542 28.8714 12.9843 28.6016C12.7144 28.3317 11.0957 25.9033 11.0957 25.9033C11.0957 25.9033 9.20707 22.1254 7.8576 20.7766C6.50814 19.4271 4.34965 18.888 1.65137 19.697L1.92061 19.9676Z" fill="#811BC7"/>
<path fill-rule="evenodd" clip-rule="evenodd" d="M1.65137 19.6976L5.15932 13.4914C5.15932 13.4914 5.15932 13.4914 5.42922 13.2215L7.8576 12.9516H8.12749L11.3656 17.5385L12.9843 21.3163L15.6825 25.0942L18.3808 27.5226L20.2694 28.3322H24.5871L28.095 26.9828L29.4445 26.443C29.4445 26.443 29.4445 26.443 29.7144 26.443H30.5241C30.5241 26.443 30.7939 26.443 30.7939 26.7129L32.1434 29.1413V29.4112C28.3656 32.1094 24.8583 33.189 20.2707 32.6492C16.223 32.1094 14.0645 29.4112 13.5247 28.8714C13.2548 28.6015 11.6361 26.1731 11.6361 26.1731C11.6361 26.1731 9.7475 22.3952 8.39804 21.0464C7.58836 20.5066 6.77933 19.9669 5.96965 19.697C4.89008 19.4271 3.81116 19.4271 2.4617 19.9669C2.1918 19.9669 2.19181 19.9669 2.19181 19.697V19.4271L1.65137 19.6976ZM1.92126 19.9675L5.42922 13.7613L7.8576 13.4914L11.0957 18.0783L12.7144 21.8561L15.4127 25.634L18.1109 28.0623L19.9995 28.872L24.3172 28.6021L27.8251 27.2527L29.1746 26.7129H29.9843L31.3337 29.1413C27.8258 31.8396 24.0486 32.9191 19.7309 32.3793C15.6832 31.8395 13.2548 28.8714 12.9849 28.6015C12.715 28.3316 11.0963 25.9032 11.0963 25.9032C11.0963 25.9032 9.20772 22.1254 7.85825 20.7765C6.50879 19.4271 4.3503 18.8879 1.65202 19.697L1.92126 19.9675Z" fill="#7319BC"/>
<path fill-rule="evenodd" clip-rule="evenodd" d="M5.42969 13.7613L7.58818 9.98346L9.74667 9.71356L12.445 14.0312L14.8733 16.4596L20 26.1738L27.8249 25.0942L28.6346 24.8243L29.7142 26.9828C26.4761 29.951 22.429 30.7607 18.3813 29.4112C14.8733 28.0617 13.5245 24.5544 11.3654 21.3164C11.3654 21.3164 10.0159 18.3482 9.20689 16.9987C8.39786 15.9198 7.31829 14.0312 5.42969 13.7613Z" fill="#5312B7"/>
<path fill-rule="evenodd" clip-rule="evenodd" d="M5.16019 13.4915L7.31869 9.71361C7.31869 9.71361 7.31869 9.71362 7.58858 9.44372L9.74707 9.17383C9.74707 9.17383 10.017 9.17383 10.017 9.44372L12.7152 13.4915L15.1436 15.9198L20.0004 25.634L27.5554 24.5545L28.3651 24.2846C28.3651 24.2846 28.635 24.2846 28.635 24.5545L29.7146 26.713V26.9829C28.0959 28.6016 26.2066 29.4112 24.318 29.951C22.4294 30.4908 20.2703 30.2209 18.1118 29.4112C15.1436 28.3317 13.7942 25.6334 12.1755 22.9351C11.9056 22.3953 11.3658 21.8555 11.0959 21.0465C11.0959 21.0465 9.74642 18.0783 8.93739 16.7289C8.12771 15.6493 7.04879 14.0306 5.15954 13.7607C4.88965 13.7607 4.88965 13.4908 4.88965 13.4908H5.16019V13.4915ZM5.43009 13.7614L7.58858 9.98351L9.74707 9.71361L12.4453 14.0313L14.8737 16.4596L20.0004 26.1738L27.8253 25.0943L28.635 24.8244L29.7146 26.9829C26.4765 29.951 22.4294 30.7607 18.3817 29.4112C14.8737 28.0618 13.5249 24.5545 11.3658 21.3164C11.3658 21.3164 10.0163 18.3482 9.20728 16.9988C8.39826 15.9198 7.31868 14.0313 5.43009 13.7614Z" fill="#A823D8"/>
<path fill-rule="evenodd" clip-rule="evenodd" d="M7.58789 9.71425L10.0163 5.6665L14.064 5.93639L19.4606 18.8887L22.1589 22.6665L25.9367 23.2063L27.8253 22.6665L28.9049 24.2852C28.9049 24.2852 27.2862 26.1738 25.127 26.7136C22.9685 27.2534 21.3492 27.2534 18.9208 25.9039C16.4924 24.2852 12.7146 20.5074 12.7146 20.5074L12.9844 16.7295C11.635 13.7613 10.0163 11.0631 7.85778 9.44435L7.58789 9.71425Z" fill="#791AC4"/>
<path fill-rule="evenodd" clip-rule="evenodd" d="M7.31738 9.7143L9.74577 5.66656L10.0157 5.39667L14.0634 5.66656C14.0634 5.66656 14.3333 5.66656 14.3333 5.93645L19.7299 18.8887L22.1582 22.6666L25.9361 22.9365L27.8247 22.3967C27.8247 22.3967 28.0946 22.3967 28.0946 22.6666L29.1742 24.2853V24.5552C28.9043 24.8251 27.2856 26.4438 25.1264 26.9835C24.0468 27.2534 23.2378 27.5233 22.1582 27.2534C21.0787 27.2534 19.9997 26.7137 18.9202 25.904C16.4918 24.2853 12.7139 20.5074 12.7139 20.5074V20.2375L12.9838 16.7296C12.444 15.1109 11.6344 13.7614 10.5554 12.6818C9.74577 11.6023 8.66685 10.5233 7.85717 9.71365C7.85717 9.71365 7.58728 9.44376 7.85717 9.44376L7.31738 9.7143ZM7.58728 9.98354L10.0157 5.9358L14.0634 6.20569L19.46 19.158L22.1582 22.9358L25.9361 23.4756L27.8247 22.9358L28.9043 24.5545C28.9043 24.5545 27.2856 26.4431 25.1264 26.9829C22.9679 27.5227 21.3486 27.5227 18.9202 26.1732C16.4918 24.5545 12.7139 20.7767 12.7139 20.7767L12.9838 16.9988C11.6344 14.0306 10.0157 11.3324 7.85717 9.71365L7.58728 9.98354Z" fill="#5710AF"/>
<path fill-rule="evenodd" clip-rule="evenodd" d="M10.0163 5.93641L12.4447 1.61877L16.7623 6.74544L18.6509 10.7932L19.7305 13.2216L26.2066 21.3164H26.7464L27.826 23.205C27.826 23.205 26.2073 24.8237 25.3976 25.0936C24.5879 25.3635 24.0481 25.9033 21.6198 25.0936C19.4613 24.014 17.572 19.697 17.572 19.4272C17.572 19.1573 15.1436 14.3005 14.3339 12.4112C13.5243 10.5226 11.9056 8.63339 11.6357 8.36349C11.3658 8.0936 9.74707 6.205 9.74707 6.205L10.0163 5.93641Z" fill="#A11FD0"/>
<path fill-rule="evenodd" clip-rule="evenodd" d="M9.74609 5.66642L12.1745 1.34878C12.1745 1.07889 12.4444 1.07889 12.4444 1.34878L16.762 6.47545L18.6506 10.5232L19.7302 12.6817L26.2063 20.5066H26.7461C26.7461 20.5066 27.016 20.5066 27.016 20.7765L28.0956 22.6651V22.935C28.0956 22.935 26.4769 24.5537 25.3973 24.8236H25.1274C24.3177 25.0935 23.7779 25.3634 21.6194 24.5537C20.8098 24.2838 20.0007 23.4741 19.4609 22.6651C18.3814 21.0464 17.3024 19.1572 17.3024 18.8873C17.3024 18.8873 16.7627 17.8077 16.2229 16.4589C15.4132 14.8402 14.6042 12.9509 14.0644 11.872C13.2547 9.98341 11.9059 8.36405 11.636 7.82426C11.3655 7.55502 9.74609 5.66642 9.74609 5.66642ZM10.016 5.93631L12.4444 1.61868L16.762 6.74534L18.6506 10.7931L19.7302 13.2215L26.2063 21.3163H26.7461L27.8257 23.2049C27.8257 23.2049 26.207 24.8236 25.3973 25.0935C24.5876 25.3634 24.0478 25.9032 21.6194 25.0935C19.4609 24.0139 17.5717 19.6969 17.5717 19.4271C17.5717 19.1572 15.1433 14.3004 14.3336 12.4111C13.5239 10.5225 11.9052 8.63329 11.6353 8.3634C11.3655 8.0935 9.74675 6.2049 9.74675 6.2049L10.016 5.93631Z" fill="#901FCE"/>
<path fill-rule="evenodd" clip-rule="evenodd" d="M12.4444 1.34885L12.9842 0.26928C12.9842 0.26928 12.9842 -0.000610352 13.524 -0.000610352C14.0638 -0.000610352 14.3337 0.26928 14.3337 0.26928L15.1433 1.61875L26.2063 21.0465C25.1268 22.6652 23.5081 22.9351 21.8887 22.3959C20.0001 21.5863 19.1904 18.6181 18.9205 16.7295C18.6506 15.38 17.0319 10.2534 16.4922 8.90455C15.1427 5.3966 14.3337 4.04778 11.9053 1.3495H12.4444V1.34885Z" fill="#D100D2"/>
<path fill-rule="evenodd" clip-rule="evenodd" d="M12.1745 1.34891L12.7143 0.269337C12.7143 0.269337 12.9842 -0.270447 13.524 -0.270447C14.0638 -0.270447 14.6036 -0.000552803 14.6036 -0.000552803L14.8734 0.269337L15.6831 1.88804L27.016 21.3158V21.5857C26.4762 22.3954 25.6666 22.9351 24.8575 23.2044C24.0479 23.4743 23.2388 23.4743 22.1593 22.9345C20.0008 22.1248 19.461 19.1566 19.1911 17.268C19.1911 16.9981 19.1911 17.268 19.1911 16.9981C18.9212 16.1885 18.6513 14.8397 18.1115 13.2203C17.5717 11.6016 17.0319 9.98223 16.762 9.44244C15.9524 7.82374 15.4126 6.47427 14.8734 5.3947C14.3343 4.31512 13.524 3.2362 12.1752 1.88674L11.9053 1.61685V1.34696H12.1745V1.34891ZM12.4444 1.6188L12.9842 0.539231C12.9842 0.539231 12.9842 0.269337 13.524 0.269337C14.0638 0.269337 14.3337 0.539231 14.3337 0.539231L15.1433 1.8887L26.2063 21.3164C25.1268 22.9351 23.5081 23.205 21.8887 22.6659C20.0001 21.8562 19.1904 18.888 18.9205 16.9994C18.6506 15.65 17.0319 10.5233 16.4922 9.17451C15.1427 5.66655 14.3337 4.31773 11.9053 1.61946H12.4444V1.6188Z" fill="#C02BDC"/>
<path fill-rule="evenodd" clip-rule="evenodd" d="M12.7129 1.61877C13.7925 1.07899 17.0305 7.55512 17.5697 9.17382C18.1094 10.7925 18.9191 12.6818 19.7282 15.1102C19.998 16.1897 20.5378 18.888 21.3469 19.9669C22.4264 21.5856 23.7752 21.8555 24.8548 21.8555C25.6645 21.8555 27.0133 20.776 26.7434 21.0459C26.4735 21.8555 24.8548 23.2043 22.4258 22.3953C20.2673 21.5856 19.7275 18.6175 19.4576 16.7289C19.1877 15.3794 17.569 10.2527 17.0292 8.90393C15.6811 5.39662 15.1413 4.31705 12.7129 1.61877Z" fill="url(#paint1_linear_4516_56192)"/>
</g>
<defs>
<linearGradient id="paint0_linear_4516_56192" x1="0.030814" y1="16.9961" x2="33.2204" y2="16.9961" gradientUnits="userSpaceOnUse">
<stop stop-color="#270C84"/>
<stop offset="1" stop-color="#3112A1"/>
</linearGradient>
<linearGradient id="paint1_linear_4516_56192" x1="12.6863" y1="12.668" x2="26.7177" y2="11.3188" gradientUnits="userSpaceOnUse">
<stop stop-color="#E200DB"/>
<stop offset="1" stop-color="#D100D2"/>
</linearGradient>
</defs>
</svg>
