<svg width="92" height="60" viewBox="0 0 92 60" fill="none" xmlns="http://www.w3.org/2000/svg">
<path d="M45.7639 0.000302145C45.9295 0.00126997 46.0951 0.00223779 46.2657 0.00323495C50.4648 0.073878 53.9764 1.81319 56.983 4.68742C59.8411 7.68991 61.0618 11.6273 60.9722 15.7087C60.8093 19.7766 58.975 23.3987 56.025 26.1488C52.765 29.0365 48.5705 30.1622 44.2838 29.9142C40.1402 29.4999 36.5004 27.4033 33.8155 24.2511C31.2708 20.9925 30.3332 16.9822 30.7655 12.9C31.3047 8.98849 33.428 5.37109 36.5613 2.97131C37.0003 2.67187 37.4479 2.38936 37.902 2.11326C38.0108 2.04698 38.1197 1.9807 38.2319 1.91241C38.8212 1.56797 39.3246 1.36949 39.9935 1.25521C39.9953 1.48057 39.997 1.70593 39.9988 1.93813C40.0156 4.05693 40.0332 6.17573 40.0517 8.29453C40.0612 9.38394 40.0704 10.4734 40.0788 11.5628C40.087 12.6132 40.096 13.6636 40.1055 14.714C40.109 15.1157 40.1123 15.5174 40.1152 15.9191C40.1193 16.4797 40.1244 17.0402 40.1299 17.6008C40.1313 17.8526 40.1313 17.8526 40.1329 18.1095C40.1345 18.2613 40.1362 18.4132 40.1379 18.5696C40.139 18.7024 40.1402 18.8351 40.1413 18.9718C40.1325 19.2789 40.1325 19.2789 40.3367 19.446C40.5901 19.4628 40.8443 19.4682 41.0982 19.4674C41.236 19.4678 41.3739 19.4683 41.5159 19.4687C41.8905 19.4693 41.8905 19.4693 42.2244 19.2743C42.2811 13.0449 42.3377 6.8154 42.396 0.397152C43.6213 0.124875 44.5469 -0.00719649 45.7639 0.000302145ZM46.3431 10.3506C45.9372 10.9594 45.9565 11.2178 45.9555 11.9397C45.9544 12.1613 45.9533 12.3829 45.9522 12.6112C45.9528 12.8534 45.9535 13.0955 45.9543 13.3377C45.954 13.5858 45.9537 13.8339 45.9533 14.082C45.9528 14.602 45.9535 15.1219 45.9551 15.6418C45.9571 16.3083 45.9559 16.9748 45.9539 17.6413C45.9526 18.1537 45.953 18.666 45.9539 19.1783C45.9542 19.4241 45.9539 19.6698 45.9531 19.9156C45.9522 20.259 45.9538 20.6025 45.9555 20.9459C45.9557 21.1413 45.956 21.3368 45.9563 21.5382C45.9644 22.0557 45.9644 22.0557 46.3431 22.5349C46.7946 22.6041 46.7946 22.6041 47.2977 22.5778C47.5528 22.5739 47.5528 22.5739 47.8132 22.5698C48.2217 22.581 48.2217 22.581 48.4024 22.3633C48.4195 21.9957 48.4244 21.6276 48.4246 21.2596C48.4249 21.1444 48.4252 21.0291 48.4255 20.9104C48.4263 20.5277 48.4258 20.145 48.4252 19.7624C48.4253 19.4975 48.4255 19.2327 48.4257 18.9679C48.426 18.4122 48.4256 17.8565 48.4248 17.3007C48.4238 16.5868 48.4244 15.873 48.4254 15.1591C48.426 14.612 48.4258 14.065 48.4254 13.5179C48.4253 13.2546 48.4254 12.9913 48.4258 12.728C48.4262 12.3607 48.4256 11.9933 48.4246 11.6259C48.4245 11.4165 48.4243 11.207 48.4242 10.9912C48.4559 10.5371 48.4559 10.5371 48.2308 10.3506C47.9205 10.3247 47.609 10.3125 47.2977 10.3077C47.128 10.3033 46.9583 10.2988 46.7835 10.2943C46.6382 10.3129 46.4928 10.3314 46.3431 10.3506ZM43.0825 11.3802C43.0825 14.7215 43.0825 18.0628 43.0825 21.5053C43.5077 21.7179 43.8095 21.7056 44.2838 21.7091C44.436 21.7115 44.5881 21.7139 44.745 21.7164C45.1753 21.7159 45.1753 21.7159 45.485 21.3337C45.5377 20.9058 45.5377 20.9058 45.5294 20.4022C45.5311 20.1102 45.5311 20.1102 45.5327 19.8122C45.5317 19.4955 45.5317 19.4955 45.5306 19.1724C45.5311 18.8487 45.5311 18.8487 45.5316 18.5185C45.5318 18.0614 45.5314 17.6044 45.5298 17.1474C45.5278 16.5611 45.5289 15.9748 45.531 15.3884C45.5325 14.83 45.5315 14.2715 45.5306 13.7131C45.5313 13.502 45.532 13.2908 45.5327 13.0733C45.5316 12.8786 45.5306 12.6839 45.5294 12.4833C45.5292 12.3113 45.5289 12.1394 45.5286 11.9622C45.5251 11.52 45.5251 11.52 45.1418 11.2086C44.7349 11.1604 44.7349 11.1604 44.2838 11.1765C44.1316 11.1776 43.9794 11.1787 43.8225 11.1798C43.4212 11.1836 43.4212 11.1836 43.0825 11.3802ZM49.0889 12.4099C49.0364 12.768 49.0364 12.768 49.0444 13.1838C49.0434 13.3442 49.0423 13.5045 49.0412 13.6697C49.0419 13.8433 49.0426 14.0169 49.0433 14.1957C49.0429 14.3735 49.0426 14.5512 49.0423 14.7343C49.042 15.1105 49.0427 15.4868 49.0441 15.863C49.0459 16.4404 49.0441 17.0177 49.0419 17.5951C49.0422 17.96 49.0426 18.3249 49.0433 18.6898C49.0422 18.9502 49.0422 18.9502 49.0412 19.2158C49.0422 19.3761 49.0433 19.5365 49.0444 19.7017C49.0447 19.8432 49.045 19.9847 49.0453 20.1304C49.058 20.5149 49.058 20.5149 49.4321 20.8188C49.8842 20.8671 49.8842 20.8671 50.3867 20.851C50.5568 20.8499 50.7269 20.8488 50.9022 20.8477C51.3108 20.8654 51.3108 20.8654 51.4914 20.6472C51.5092 20.391 51.5152 20.1339 51.5163 19.877C51.5174 19.7132 51.5185 19.5494 51.5197 19.3807C51.5198 19.2025 51.52 19.0242 51.5202 18.8406C51.5208 18.6588 51.5214 18.4771 51.522 18.2898C51.5228 17.9044 51.5232 17.5191 51.5232 17.1338C51.5236 16.5424 51.5267 15.9511 51.53 15.3598C51.5305 14.9863 51.5308 14.6128 51.531 14.2393C51.5322 14.0614 51.5334 13.8836 51.5347 13.7003C51.5342 13.536 51.5336 13.3716 51.5331 13.2023C51.5333 13.0573 51.5336 12.9122 51.5338 12.7627C51.5236 12.3715 51.5236 12.3715 51.1482 12.0667C50.7415 12.0119 50.7415 12.0119 50.2901 12.0238C50.1379 12.0229 49.9857 12.022 49.8289 12.0211C49.3988 12.0288 49.3988 12.0288 49.0889 12.4099Z" fill="white"/>
<path d="M88.5312 41.9755C89.9746 43.1219 90.9148 44.382 91.3052 46.2175C91.3228 46.4852 91.3323 46.7535 91.3355 47.0217C91.3388 47.2598 91.3388 47.2598 91.3422 47.5028C91.3435 47.6735 91.3447 47.8442 91.3461 48.0201C91.3474 48.1975 91.3488 48.3749 91.3502 48.5577C91.3526 48.9334 91.3545 49.3092 91.3558 49.685C91.3578 50.0669 91.3613 50.4489 91.3664 50.8308C91.3737 51.3848 91.3765 51.9387 91.3782 52.4927C91.3812 52.661 91.3842 52.8293 91.3873 53.0027C91.3811 55.0161 90.6714 56.6197 89.2659 58.0426C87.8409 59.3614 86.3905 59.8429 84.4729 60C83.8659 59.9405 83.5494 59.7998 83.0678 59.4316C82.7993 58.8945 82.7766 58.2971 82.8962 57.7155C83.2532 57.2426 83.4718 57.0555 84.0519 56.9171C84.2227 56.9009 84.3935 56.8848 84.5694 56.8681C85.809 56.6945 86.6519 56.2561 87.5083 55.3451C87.9441 54.6914 88.0707 54.1922 88.2162 53.4252C88.1022 53.4852 87.9883 53.5451 87.8709 53.6069C87.7194 53.685 87.5679 53.763 87.4117 53.8435C87.2624 53.9211 87.1131 53.9988 86.9592 54.0788C85.2982 54.8184 83.1357 54.6302 81.4751 53.9963C79.51 53.0364 78.3355 51.4864 77.5763 49.4782C77.4369 48.9526 77.4369 48.9526 77.4047 48.4485C77.3961 48.3242 77.3874 48.1998 77.3785 48.0717C77.2997 46.0587 77.9426 44.247 79.2931 42.7464C81.8087 40.3433 85.6735 39.9156 88.5312 41.9755ZM81.0789 45.3595C80.4818 46.2064 80.2421 47.0845 80.3643 48.12C80.6571 49.4726 81.4393 50.4078 82.553 51.1943C83.6041 51.697 84.7627 51.7006 85.8565 51.323C87.0088 50.8278 87.6561 50.0662 88.2162 48.9633C88.5901 47.7574 88.4442 46.6369 87.8729 45.5311C87.1757 44.524 86.342 43.8891 85.1272 43.6434C83.3826 43.4399 82.1829 44.0232 81.0789 45.3595Z" fill="white"/>
<path d="M2.75458 36.9501C3.20634 37.5541 3.33635 38.008 3.35722 38.7553C3.36635 39.0183 3.36635 39.0183 3.37566 39.2866C3.37953 39.4676 3.3834 39.6487 3.38739 39.8353C3.39618 40.1118 3.39618 40.1118 3.40516 40.394C3.41927 40.8477 3.43115 41.3014 3.44102 41.7552C3.53253 41.7081 3.62405 41.661 3.71834 41.6125C3.83985 41.5508 3.96137 41.489 4.08657 41.4253C4.2064 41.3641 4.32623 41.3029 4.44969 41.2398C6.10357 40.4628 7.91819 40.5843 9.64381 41.062C10.4218 41.3451 11.0392 41.7493 11.6783 42.27C11.7858 42.3563 11.8934 42.4425 12.0041 42.5314C13.1471 43.5547 14.0265 45.1681 14.1218 46.7051C14.1729 48.8284 13.9709 50.515 12.5552 52.2C10.9577 53.8181 9.37709 54.4901 7.14138 54.5294C4.99146 54.5128 3.46638 53.7769 1.93942 52.2703C0.241947 50.4116 0.127055 48.2697 0.128796 45.849C0.128128 45.6188 0.127383 45.3886 0.126568 45.1584C0.125297 44.6795 0.125331 44.2005 0.126241 43.7215C0.127241 43.1091 0.124312 42.4968 0.120347 41.8843C0.117816 41.4104 0.117668 40.9365 0.118203 40.4626C0.118073 40.1275 0.115698 39.7924 0.113281 39.4574C0.114885 39.1514 0.114885 39.1514 0.11652 38.8392C0.116412 38.6604 0.116304 38.4815 0.116193 38.2972C0.190626 37.7303 0.359875 37.4092 0.695246 36.9501C1.43614 36.4767 1.96829 36.6152 2.75458 36.9501ZM4.21461 44.8931C3.34804 45.8786 3.15263 46.8205 3.20505 48.1229C3.37109 49.4044 4.00837 50.1247 4.96876 50.9457C5.95478 51.6251 6.91283 51.6424 8.07451 51.537C9.16594 51.2096 10.0855 50.6039 10.705 49.6365C11.2725 48.4915 11.3576 47.4168 10.9812 46.1956C10.5701 45.2242 9.82725 44.5826 8.96474 44.0076C7.21477 43.3899 5.58377 43.5908 4.21461 44.8931Z" fill="white"/>
<path d="M55.5447 41.9636C56.9967 43.0496 57.8624 44.4853 58.3247 46.2277C58.3353 46.394 58.3459 46.5604 58.3568 46.7318C58.3655 46.8541 58.3741 46.9765 58.383 47.1025C58.4615 49.0851 57.9427 50.7217 56.6407 52.2233C55.681 53.2525 54.7262 53.8712 53.3801 54.2827C53.2255 54.3318 53.2255 54.3318 53.0677 54.3819C50.9207 54.7974 48.9699 54.3928 47.1485 53.2101C45.7644 52.1792 44.7778 50.6761 44.4564 48.9627C44.3119 46.839 44.4685 44.9966 45.8715 43.2842C48.4879 40.4346 52.2266 39.8435 55.5447 41.9636ZM48.4034 44.8441C47.5957 45.9538 47.2341 46.8799 47.3737 48.2763C47.627 49.3411 48.131 50.2458 49.0449 50.8887C50.0689 51.5004 51.0028 51.6671 52.1788 51.5369C53.4048 51.2156 54.2232 50.5209 54.9246 49.4776C55.4281 48.447 55.4621 47.2595 55.1559 46.1573C54.6615 45.056 53.809 44.3024 52.7044 43.8359C51.1494 43.3325 49.5699 43.6775 48.4034 44.8441Z" fill="white"/>
<path d="M71.977 41.8948C72.1882 42.0726 72.3957 42.255 72.5991 42.4418C72.7066 42.5358 72.8141 42.6298 72.9249 42.7267C73.6545 43.4024 74.1223 44.0918 74.4868 45.0159C74.545 45.1577 74.6033 45.2995 74.6633 45.4456C74.8808 46.2285 74.889 46.9587 74.8937 47.7677C74.8953 47.9319 74.8968 48.096 74.8984 48.265C74.9009 48.6108 74.9024 48.9565 74.903 49.3022C74.9051 49.8307 74.9136 50.3588 74.9222 50.8872C74.9238 51.2239 74.9251 51.5605 74.9259 51.8971C74.9292 52.0546 74.9326 52.2121 74.936 52.3744C74.9306 53.148 74.9102 53.4899 74.4325 54.125C73.972 54.4545 73.972 54.4545 73.3713 54.5618C72.598 54.4237 72.3885 54.2167 71.9126 53.5965C71.7968 53.0863 71.809 52.5925 71.8215 52.0714C71.8209 51.9243 71.8203 51.7773 71.8198 51.6257C71.8175 50.9995 71.8251 50.3734 71.8319 49.7472C71.9182 47.2361 71.9182 47.2361 70.883 45.0159C70.512 44.6238 70.512 44.6238 70.1 44.4046C69.9724 44.3265 69.8447 44.2484 69.7132 44.1679C68.7652 43.7084 67.7217 43.6537 66.706 43.9199C65.6873 44.3152 64.936 44.9403 64.3618 45.874C64.0337 46.8143 63.9726 47.6419 63.9776 48.6325C63.975 48.9305 63.9722 49.2285 63.9693 49.5264C63.9664 49.9919 63.9649 50.4573 63.9661 50.9228C63.9666 51.3751 63.9618 51.827 63.9562 52.2792C63.9579 52.4183 63.9597 52.5574 63.9615 52.7007C63.9498 53.374 63.9135 53.696 63.4493 54.199C62.8445 54.5347 62.4693 54.5537 61.7876 54.4545C61.3817 54.1341 61.1595 53.8847 60.9295 53.4249C60.9062 52.9379 60.893 52.4554 60.8887 51.9682C60.8873 51.8216 60.8859 51.675 60.8845 51.524C60.8821 51.2122 60.8802 50.9005 60.8789 50.5887C60.8769 50.2734 60.8734 49.958 60.8683 49.6427C60.8261 47.037 60.9168 44.7742 62.8173 42.785C62.9091 42.6883 63.0009 42.5917 63.0955 42.4921C65.4249 40.2855 69.3687 40.0202 71.977 41.8948Z" fill="white"/>
<path d="M38.02 40.8974C38.42 41.4307 38.5007 41.9538 38.4491 42.6136C38.0048 43.4466 37.4098 43.6764 36.5614 43.9864C36.618 44.213 36.6746 44.4395 36.733 44.6729C36.8657 44.6877 36.9984 44.7025 37.1352 44.7178C38.894 44.9551 39.9821 45.4968 41.1131 46.8757C41.9465 48.0972 42.059 49.4744 41.8129 50.9052C41.4567 52.2352 40.5263 53.3235 39.35 54.0257C38.1104 54.5978 36.7014 54.6697 35.3775 54.3253C33.7914 53.718 33.0541 52.85 32.2711 51.3657C32.0064 50.5715 32.0151 49.7924 32.0995 48.9632C32.3462 48.502 32.3462 48.502 32.7859 48.2767C33.324 48.176 33.7933 48.1659 34.3304 48.2767C34.9249 48.7493 35.0452 49.2004 35.1777 49.9177C35.2867 50.4765 35.3486 50.6654 35.7248 51.119C36.4917 51.5025 37.1518 51.4844 37.9879 51.2585C38.4388 50.891 38.5969 50.5379 38.7923 49.9928C38.7923 49.284 38.6935 48.9045 38.3096 48.3089C37.7314 47.912 37.4552 47.8609 36.7759 47.7726C35.5741 47.6113 34.6924 47.2084 33.9114 46.2603C33.3365 45.2987 33.3029 44.2156 33.4724 43.1284C33.8875 42.0804 34.5965 41.3979 35.5746 40.8545C36.3968 40.6303 37.2203 40.5776 38.02 40.8974Z" fill="white"/>
<path d="M27.2786 36.6708C27.8807 36.8513 28.1241 37.1357 28.4966 37.6368C28.5983 38.1743 28.5782 38.6903 28.5502 39.2349C28.5464 39.3783 28.5425 39.5218 28.5385 39.6696C28.5284 40.0218 28.5131 40.3738 28.4966 40.7258C28.6353 40.7158 28.774 40.7058 28.9169 40.6956C30.4091 40.6326 30.4091 40.6326 31.1137 41.0797C31.495 41.7198 31.545 42.0517 31.414 42.7851C31.1137 43.2892 31.1137 43.2892 30.5559 43.6431C30.051 43.6777 30.051 43.6777 29.4914 43.6653C29.3053 43.6621 29.1192 43.6589 28.9275 43.6556C28.7853 43.6515 28.6431 43.6474 28.4966 43.6431C28.4995 43.8273 28.4995 43.8273 28.5024 44.0152C28.5196 45.1741 28.5327 46.333 28.5411 47.492C28.5455 48.0878 28.5516 48.6835 28.5613 49.2793C28.5725 49.9647 28.5766 50.65 28.5804 51.3355C28.5848 51.5487 28.5893 51.762 28.5938 51.9818C28.5944 53.6301 28.5944 53.6301 28.0999 54.1609C27.4898 54.5493 27.1483 54.5689 26.4373 54.4546C25.9768 54.1683 25.9768 54.1683 25.5792 53.7682C25.476 53.3012 25.476 53.3012 25.4818 52.7608C25.4819 52.5581 25.4819 52.3555 25.482 52.1467C25.4864 51.9288 25.4909 51.7108 25.4954 51.4863C25.4966 51.2625 25.4979 51.0388 25.4991 50.8082C25.5024 50.2145 25.5108 49.6211 25.5203 49.0275C25.5291 48.4212 25.533 47.815 25.5373 47.2088C25.5465 46.0201 25.5612 44.8316 25.5792 43.6431C25.4369 43.6462 25.2946 43.6494 25.148 43.6526C24.8687 43.6562 24.8687 43.6562 24.5838 43.6599C24.399 43.663 24.2142 43.6661 24.0238 43.6693C23.5199 43.6431 23.5199 43.6431 22.9729 43.375C22.5639 42.825 22.5024 42.4367 22.4902 41.7554C22.6794 41.1723 22.8199 41.078 23.3483 40.7258C23.8866 40.6922 23.8866 40.6922 24.4959 40.7043C24.6983 40.7074 24.9008 40.7105 25.1093 40.7137C25.3419 40.7197 25.3419 40.7197 25.5792 40.7258C25.5756 40.6306 25.572 40.5354 25.5683 40.4373C25.554 40.0044 25.5451 39.5715 25.5363 39.1384C25.5306 38.9886 25.5248 38.8388 25.5189 38.6845C25.502 37.5775 25.502 37.5775 25.8829 37.0234C26.3417 36.7301 26.7387 36.689 27.2786 36.6708Z" fill="white"/>
<path d="M18.5259 40.6181C19.1017 40.7907 19.3638 41.1277 19.7439 41.5841C19.8529 42.1375 19.8529 42.1375 19.8549 42.7706C19.8572 42.9445 19.8572 42.9445 19.8595 43.1219C19.8633 43.5032 19.8608 43.8842 19.8579 44.2655C19.8585 44.5316 19.8593 44.7976 19.8604 45.0636C19.8616 45.6205 19.8598 46.1772 19.8558 46.7341C19.8509 47.4468 19.8537 48.1593 19.8588 48.872C19.8619 49.4212 19.861 49.9703 19.8587 50.5194C19.8582 50.7822 19.8589 51.0449 19.8609 51.3076C19.863 51.6754 19.8597 52.0426 19.8549 52.4103C19.8543 52.6192 19.8536 52.8281 19.8529 53.0434C19.7137 53.7502 19.437 54.0066 18.8859 54.4549C18.3665 54.6106 18.0708 54.5346 17.513 54.4549C17.1331 54.1807 17.1331 54.1807 16.8265 53.7685C16.7394 53.2214 16.7394 53.2214 16.7377 52.5672C16.7365 52.4477 16.7353 52.3282 16.7341 52.205C16.731 51.8108 16.733 51.4169 16.7354 51.0227C16.7349 50.7483 16.7342 50.4739 16.7334 50.1995C16.7324 49.6247 16.7338 49.0501 16.737 48.4753C16.7409 47.7389 16.7387 47.0027 16.7346 46.2663C16.7321 45.6998 16.7329 45.1333 16.7347 44.5668C16.7351 44.2953 16.7346 44.0238 16.733 43.7523C16.7312 43.3727 16.7339 42.9934 16.7377 42.6137C16.7383 42.3978 16.7388 42.1819 16.7394 41.9595C16.8265 41.4125 16.8265 41.4125 17.1331 41.0002C17.5901 40.6704 17.9685 40.6369 18.5259 40.6181Z" fill="white"/>
<path d="M18.7146 36.607C19.159 36.7551 19.3436 36.8697 19.6156 37.2505C19.7886 37.7696 19.8221 38.1216 19.7443 38.6663C19.4017 39.1588 19.1484 39.4646 18.5477 39.6014C17.9733 39.6326 17.577 39.5626 17.0843 39.2669C16.7254 38.6687 16.6746 38.1339 16.8269 37.465C17.3745 36.692 17.7741 36.4669 18.7146 36.607Z" fill="white"/>
</svg>
