<svg width="151" height="40" viewBox="0 0 151 40" fill="none" xmlns="http://www.w3.org/2000/svg">
<g clip-path="url(#clip0_4552_5533)">
<path fill-rule="evenodd" clip-rule="evenodd" d="M0.824219 6.01806L8.61134 1.50336L13.1074 9.32316L5.32025 13.8381L0.824219 6.01806Z" fill="#3C91C3"/>
<path fill-rule="evenodd" clip-rule="evenodd" d="M5.82031 14.7069L13.6074 10.192L18.1035 18.0118L10.3162 22.5267L5.82031 14.7069Z" fill="#31BBDE"/>
<path fill-rule="evenodd" clip-rule="evenodd" d="M10.8145 23.3955L18.6016 18.8808L23.0974 26.7006L15.3103 31.2153L10.8145 23.3955Z" fill="#3C91C3"/>
<path fill-rule="evenodd" clip-rule="evenodd" d="M15.8105 32.0842L23.5979 27.5695L28.0937 35.3893L20.3066 39.9042L15.8105 32.0842Z" fill="#31BBDE"/>
<path fill-rule="evenodd" clip-rule="evenodd" d="M14.4727 9.69043L22.2598 5.17572L26.7558 12.9955L18.9687 17.5102L14.4727 9.69043Z" fill="#3C91C3"/>
<path fill-rule="evenodd" clip-rule="evenodd" d="M23.125 4.67395L30.9123 0.159241L35.4082 7.97904L27.621 12.4937L23.125 4.67395Z" fill="#31BBDE"/>
<path fill-rule="evenodd" clip-rule="evenodd" d="M24.4629 27.0679L32.25 22.553L36.7459 30.3728L28.9587 34.8877L24.4629 27.0679Z" fill="#3C91C3"/>
<path fill-rule="evenodd" clip-rule="evenodd" d="M33.1152 22.0514L40.9024 17.5365L45.3984 25.3565L37.6111 29.8712L33.1152 22.0514Z" fill="#31BBDE"/>
<path fill-rule="evenodd" clip-rule="evenodd" d="M28.1191 13.3627L35.9063 8.84784L40.4023 16.6676L32.6152 21.1825L28.1191 13.3627Z" fill="#3C91C3"/>
<path fill-rule="evenodd" clip-rule="evenodd" d="M59.4713 15.8924C59.8077 15.5645 60.192 15.2851 60.6291 15.0649C61.7134 14.5187 63.041 14.3742 64.2391 14.3742C66.115 14.3742 68.4114 14.6602 69.8028 16.0651C71.2024 17.4785 71.4733 19.8514 71.4733 21.7445V25.8345C71.4733 27.7255 71.2003 30.0859 69.8028 31.4973C68.4114 32.9022 66.1151 33.1883 64.2391 33.1883C62.9803 33.1883 61.5883 33.0263 60.4614 32.4242C60.0481 32.2034 59.6857 31.9328 59.3713 31.6179V32.954H55.8047V7.47749H59.4713V15.8924ZM74.9133 32.954H78.5799V7.47749H74.9133V32.954ZM89.4765 33.1883C87.572 33.1883 85.1412 32.9281 83.7074 31.5196C82.283 30.1204 82.009 27.7304 82.009 25.8345V21.7445C82.009 19.8436 82.2783 17.4528 83.7 16.0443C85.1226 14.6353 87.5472 14.3742 89.4431 14.3742H90.6323C92.5362 14.3742 94.9733 14.6343 96.4069 16.0428C97.8379 17.4485 98.1109 19.8398 98.1109 21.7445V25.8345C98.1109 27.731 97.8438 30.1304 96.418 31.5308C94.9906 32.933 92.555 33.1883 90.66 33.1883H89.4765ZM90.3372 13.7038L85.0902 6.87494H89.0362L93.1097 13.7038H90.3372ZM105.212 21.2465L110.754 14.6085H115.136L108.177 22.851L116.372 32.954H111.709L105.212 24.8593V32.954H101.545V7.47749H105.212V21.2465ZM129.205 31.7508C128.86 32.0549 128.464 32.3067 128.021 32.5073C126.838 33.0442 125.423 33.1883 124.138 33.1883C122.424 33.1883 120.299 32.9373 119.024 31.6542C117.749 30.3694 117.509 28.1918 117.509 26.4706V14.6085H121.176V25.9294C121.176 26.7316 121.233 28.443 121.822 29.0716C122.38 29.6677 123.765 29.7408 124.515 29.7408C125.696 29.7408 127.137 29.5559 128.017 28.6785C128.892 27.8059 129.078 26.3704 129.078 25.1928V14.6085H132.777V32.954H129.205V31.7508ZM140.451 15.6763C140.698 15.4434 140.978 15.2394 141.292 15.0681C142.283 14.5269 143.478 14.3742 144.591 14.3742C146.141 14.3742 147.904 14.6702 148.954 15.9345C150.045 17.2479 150.219 19.4722 150.219 21.1085V21.8112H146.519V20.7345C146.519 20.11 146.469 18.8396 146.018 18.3461C145.592 17.8798 144.558 17.8216 143.98 17.8216C143.03 17.8216 141.994 18.014 141.374 18.8043C140.668 19.7049 140.551 21.2887 140.551 22.3863V32.954H136.851V14.6085H140.451V15.6763ZM59.4713 22.3863V25.1928C59.4713 26.374 59.6593 27.8175 60.5452 28.6861C61.4408 29.5644 62.9553 29.7408 64.1446 29.7408C64.9389 29.7408 66.4473 29.6659 67.034 29.0259C67.6604 28.3426 67.7067 26.1257 67.7067 25.2598V22.3193C67.7067 21.4528 67.6608 19.2202 67.034 18.5363C66.4473 17.8963 64.9389 17.8216 64.1446 17.8216C62.9553 17.8216 61.4408 17.9981 60.5452 18.8763C59.656 19.7483 59.4713 21.2012 59.4713 22.3863ZM94.3443 25.2598V22.3193C94.3443 21.4606 94.2988 19.242 93.6736 18.5665C93.0751 17.9202 91.4359 17.8551 90.6323 17.8551H89.4431C88.6594 17.8551 87.0131 17.9181 86.4319 18.553C85.8182 19.2232 85.7756 21.4698 85.7756 22.3193V25.2598C85.7756 26.1106 85.8197 28.3718 86.4363 29.0418C87.0209 29.6769 88.6562 29.7408 89.4431 29.7408H90.6323C91.4398 29.7408 93.0673 29.6726 93.6679 29.024C94.2971 28.3445 94.3443 26.1236 94.3443 25.2598Z" fill="white"/>
</g>
<defs>
<clipPath id="clip0_4552_5533">
<rect width="150" height="40" fill="white" transform="translate(0.75)"/>
</clipPath>
</defs>
</svg>
