<svg width="151" height="40" viewBox="0 0 151 40" fill="none" xmlns="http://www.w3.org/2000/svg">
<path fill-rule="evenodd" clip-rule="evenodd" d="M0.824219 6.01806L8.61134 1.50336L13.1074 9.32316L5.32025 13.8381L0.824219 6.01806Z" fill="#3C91C3"/>
<path fill-rule="evenodd" clip-rule="evenodd" d="M5.81934 14.7069L13.6065 10.192L18.1025 18.0118L10.3152 22.5267L5.81934 14.7069Z" fill="#31BBDE"/>
<path fill-rule="evenodd" clip-rule="evenodd" d="M10.8154 23.3955L18.6026 18.8808L23.0984 26.7006L15.3113 31.2153L10.8154 23.3955Z" fill="#3C91C3"/>
<path fill-rule="evenodd" clip-rule="evenodd" d="M15.8105 32.0842L23.5979 27.5695L28.0937 35.3893L20.3066 39.9042L15.8105 32.0842Z" fill="#31BBDE"/>
<path fill-rule="evenodd" clip-rule="evenodd" d="M14.4717 9.69043L22.2588 5.17572L26.7548 12.9955L18.9677 17.5102L14.4717 9.69043Z" fill="#3C91C3"/>
<path fill-rule="evenodd" clip-rule="evenodd" d="M23.124 4.67395L30.9113 0.159241L35.4072 7.97904L27.6201 12.4937L23.124 4.67395Z" fill="#31BBDE"/>
<path fill-rule="evenodd" clip-rule="evenodd" d="M24.4629 27.0679L32.25 22.553L36.7459 30.3728L28.9587 34.8877L24.4629 27.0679Z" fill="#3C91C3"/>
<path fill-rule="evenodd" clip-rule="evenodd" d="M33.1152 22.0514L40.9024 17.5365L45.3984 25.3565L37.6111 29.8712L33.1152 22.0514Z" fill="#31BBDE"/>
<path fill-rule="evenodd" clip-rule="evenodd" d="M28.1201 13.3627L35.9072 8.84784L40.4033 16.6676L32.6162 21.1825L28.1201 13.3627Z" fill="#3C91C3"/>
<path fill-rule="evenodd" clip-rule="evenodd" d="M59.4722 15.8924C59.8087 15.5645 60.1929 15.2851 60.6301 15.0649C61.7144 14.5187 63.042 14.3742 64.2401 14.3742C66.1159 14.3742 68.4124 14.6602 69.8038 16.0651C71.2034 17.4785 71.4742 19.8514 71.4742 21.7445V25.8345C71.4742 27.7255 71.2013 30.0859 69.8038 31.4973C68.4124 32.9022 66.1161 33.1883 64.2401 33.1883C62.9812 33.1883 61.5892 33.0263 60.4624 32.4242C60.049 32.2034 59.6866 31.9328 59.3723 31.6179V32.954H55.8057V7.47749H59.4722V15.8924ZM74.9143 32.954H78.5809V7.47749H74.9143V32.954ZM89.4775 33.1883C87.5729 33.1883 85.1422 32.9281 83.7084 31.5196C82.284 30.1204 82.01 27.7304 82.01 25.8345V21.7445C82.01 19.8436 82.2793 17.4528 83.701 16.0443C85.1236 14.6353 87.5481 14.3742 89.4441 14.3742H90.6332C92.5372 14.3742 94.9742 14.6343 96.4078 16.0428C97.8389 17.4485 98.1119 19.8398 98.1119 21.7445V25.8345C98.1119 27.731 97.8447 30.1304 96.419 31.5308C94.9916 32.933 92.556 33.1883 90.661 33.1883H89.4775ZM90.3382 13.7038L85.0912 6.87494H89.0372L93.1107 13.7038H90.3382ZM105.213 21.2465L110.755 14.6085H115.137L108.178 22.851L116.373 32.954H111.71L105.213 24.8593V32.954H101.546V7.47749H105.213V21.2465ZM129.206 31.7508C128.861 32.0549 128.465 32.3067 128.022 32.5073C126.839 33.0442 125.424 33.1883 124.139 33.1883C122.425 33.1883 120.3 32.9373 119.025 31.6542C117.75 30.3694 117.51 28.1918 117.51 26.4706V14.6085H121.177V25.9294C121.177 26.7316 121.234 28.443 121.823 29.0716C122.381 29.6677 123.766 29.7408 124.516 29.7408C125.696 29.7408 127.138 29.5559 128.018 28.6785C128.892 27.8059 129.079 26.3704 129.079 25.1928V14.6085H132.778V32.954H129.206V31.7508ZM140.452 15.6763C140.699 15.4434 140.979 15.2394 141.293 15.0681C142.284 14.5269 143.479 14.3742 144.592 14.3742C146.142 14.3742 147.905 14.6702 148.955 15.9345C150.046 17.2479 150.22 19.4722 150.22 21.1085V21.8112H146.52V20.7345C146.52 20.11 146.47 18.8396 146.019 18.3461C145.593 17.8798 144.559 17.8216 143.981 17.8216C143.031 17.8216 141.995 18.014 141.375 18.8043C140.669 19.7049 140.552 21.2887 140.552 22.3863V32.954H136.852V14.6085H140.452V15.6763ZM59.4722 22.3863V25.1928C59.4722 26.374 59.6603 27.8175 60.5462 28.6861C61.4418 29.5644 62.9562 29.7408 64.1456 29.7408C64.9399 29.7408 66.4483 29.6659 67.035 29.0259C67.6614 28.3426 67.7077 26.1257 67.7077 25.2598V22.3193C67.7077 21.4528 67.6618 19.2202 67.035 18.5363C66.4483 17.8963 64.9399 17.8216 64.1456 17.8216C62.9562 17.8216 61.4418 17.9981 60.5462 18.8763C59.657 19.7483 59.4722 21.2012 59.4722 22.3863ZM94.3453 25.2598V22.3193C94.3453 21.4606 94.2998 19.242 93.6746 18.5665C93.0761 17.9202 91.4369 17.8551 90.6332 17.8551H89.4441C88.6603 17.8551 87.0141 17.9181 86.4328 18.553C85.8191 19.2232 85.7766 21.4698 85.7766 22.3193V25.2598C85.7766 26.1106 85.8207 28.3718 86.4373 29.0418C87.0219 29.6769 88.6572 29.7408 89.4441 29.7408H90.6332C91.4408 29.7408 93.0683 29.6726 93.6689 29.024C94.298 28.3445 94.3453 26.1236 94.3453 25.2598Z" fill="black"/>
</svg>
