<svg width="101" height="28" viewBox="0 0 101 28" fill="none" xmlns="http://www.w3.org/2000/svg">
<path fill-rule="evenodd" clip-rule="evenodd" d="M95.0827 7.20044H92.677C89.5596 7.20044 87.0234 9.73937 87.0234 12.8603V22.1835C87.0234 25.3043 89.5596 27.8433 92.677 27.8433H95.0827C98.2001 27.8433 100.736 25.3043 100.736 22.1835V21.6908H97.2403V22.1835C97.2403 23.3744 96.2723 24.3433 95.0827 24.3433H92.677C91.4874 24.3433 90.5196 23.3744 90.5196 22.1835V12.8603C90.5196 11.6693 91.4874 10.7004 92.677 10.7004H95.0827C96.2723 10.7004 97.2403 11.6693 97.2403 12.8603V13.3584H100.736V12.8603C100.736 9.73937 98.2001 7.20044 95.0827 7.20044Z" fill="white"/>
<path fill-rule="evenodd" clip-rule="evenodd" d="M55.0469 20.4978V22.1814C55.0469 23.3724 54.0791 24.3412 52.8895 24.3412H50.4838C49.2942 24.3412 48.3262 23.3724 48.3262 22.1814V7.19824H44.8301V22.1814C44.8301 25.3023 47.3664 27.8412 50.4838 27.8412H55.0469V27.8435H58.5431V7.19824H55.0469V20.4978Z" fill="white"/>
<path fill-rule="evenodd" clip-rule="evenodd" d="M69.2365 7.19757H67.0698C63.9523 7.19757 61.4238 9.73062 61.4238 12.8517C61.4238 16.146 63.9361 17.3123 66.3658 18.4402C66.6364 18.5657 66.9168 18.6959 67.2053 18.8333L67.2381 18.8486C67.4366 18.9382 67.6297 19.0249 67.8175 19.1092C71.0333 20.5512 71.4018 20.8684 71.4018 22.1949C71.4018 23.3859 70.4339 24.3547 69.2441 24.3547H67.0776C65.8878 24.3547 64.92 23.3859 64.92 22.1949V21.6876H61.4238V22.1949C61.4238 25.3158 63.96 27.8433 67.0776 27.8433H69.2441C72.3617 27.8433 74.898 25.3158 74.898 22.1949C74.898 18.4491 72.2791 17.2747 69.2468 15.915C69.0667 15.8343 68.8817 15.7513 68.6918 15.6655C68.398 15.5255 68.1124 15.393 67.8366 15.2649C65.329 14.1007 64.92 13.7625 64.92 12.8517C64.92 11.6605 65.8878 10.6915 67.0776 10.6915H69.2441C70.4339 10.6915 71.4018 11.6605 71.4018 12.8517V13.3555H74.898V12.8517C74.898 9.73062 72.3539 7.19757 69.2365 7.19757Z" fill="white"/>
<path fill-rule="evenodd" clip-rule="evenodd" d="M77.127 10.6981H80.1567V27.8433H83.6528V7.19806H77.127V10.6981Z" fill="white"/>
<path fill-rule="evenodd" clip-rule="evenodd" d="M79.6895 3.72846H83.6541V0.156555H79.6895V3.72846Z" fill="white"/>
<path fill-rule="evenodd" clip-rule="evenodd" d="M35.9203 7.20699H33.5147C32.0024 7.20699 30.6281 7.80565 29.6126 8.77706C28.5964 7.80183 27.2192 7.20063 25.7038 7.20063H21.1407V7.19824H17.6445V27.8435H21.1407V12.8604C21.1407 11.6695 22.1085 10.7006 23.2981 10.7006H25.7038C26.8925 10.7006 27.8596 11.6681 27.8612 12.8577C27.8612 12.8608 27.8609 12.8638 27.8609 12.867V27.8435H31.3571L31.3575 12.8604C31.3613 11.6727 32.3274 10.707 33.5147 10.707H35.9203C37.11 10.707 38.0778 11.6759 38.0778 12.867V27.8435H41.5739V12.867C41.5739 9.74608 39.0378 7.20699 35.9203 7.20699Z" fill="white"/>
<path fill-rule="evenodd" clip-rule="evenodd" d="M3.89458 12.3165C3.89458 11.3986 4.64069 10.6516 5.5578 10.6516H8.72245C9.63955 10.6516 10.3857 11.3986 10.3857 12.3165V12.7795H3.89458V12.3165ZM10.3628 17.6715C10.2363 18.4647 9.54992 19.0736 8.72245 19.0736H5.5578C4.64069 19.0736 3.89458 18.3267 3.89458 17.4085V16.0111H13.8818V12.3633C13.8818 9.51524 11.5674 7.19824 8.72245 7.19824H5.5578C2.71305 7.19824 0.398438 9.51524 0.398438 12.3633V17.3649C0.398438 20.2128 2.71305 22.5298 5.5578 22.5298H8.72245C11.4792 22.5298 13.7378 20.3952 13.8751 17.6715H10.3628Z" fill="white"/>
<path fill-rule="evenodd" clip-rule="evenodd" d="M0.398438 27.8433H13.8816V24.5112H0.398438V27.8433Z" fill="#DC3D2E"/>
</svg>
