<svg width="111" height="72" viewBox="0 0 111 72" fill="none" xmlns="http://www.w3.org/2000/svg">
<g clip-path="url(#clip0_4516_72193)">
<path d="M34.6523 52.3845H46.9235V48.4843H39.5875V46.1136H46.3709V42.3473H39.5875V40.0531H46.9235V36.1721H34.6523V52.3845Z" fill="black"/>
<path d="M74.0378 42.3282L71.7131 41.8693C70.627 41.659 70.1697 41.2958 70.1697 40.6075C70.1697 39.881 70.8175 39.4031 71.6941 39.4031C72.704 39.4031 73.3137 39.9575 73.3328 40.9134H78.3251C78.1726 37.9692 75.8861 35.8661 71.8274 35.8661C67.7688 35.8661 65.1583 37.9883 65.1583 41.1428C65.1583 43.8576 66.6065 45.5018 70.0172 46.1901L72.4181 46.6681C73.2946 46.8592 73.6567 47.2034 73.6567 47.8725C73.6567 48.6181 73.1231 49.1152 72.037 49.1152C70.8175 49.1152 70.0744 48.3887 70.0554 47.2416H64.9678C65.0249 50.8741 67.8641 52.7095 71.9418 52.7095C76.0195 52.7095 78.6299 50.5682 78.6299 47.1651C78.649 44.1827 76.7626 42.8635 74.0378 42.3282Z" fill="black"/>
<path d="M102.353 55.9405C102.353 64.1997 95.6267 71.025 87.3189 71.025C79.0111 71.025 72.2848 64.2188 72.2848 55.9405H71.313C71.313 64.1997 64.5296 71.025 56.279 71.025C48.0283 71.025 41.283 64.2188 41.283 55.9405H40.3112C40.3112 64.1997 33.5277 71.025 25.2771 71.025C17.0264 71.025 10.243 64.2188 10.243 55.9405V52.3845H11.9389L15.0067 41.5826V52.3845H19.4083V36.1721H12.5296L10.2621 44.1445V32.444C10.2621 24.1848 16.9883 17.3595 25.2961 17.3595C33.604 17.3595 40.3302 24.1657 40.3302 32.444H41.302C41.302 24.1848 48.0855 17.3595 56.3361 17.3595C64.5868 17.3595 71.3702 24.1657 71.3702 32.444H72.342C72.342 24.1848 79.1254 17.3595 87.3761 17.3595C95.6267 17.3595 102.41 24.1657 102.41 32.444V42.137H100.295V36.153H95.36V52.3845H100.295V46.2284H102.41L102.353 55.9405ZM105.44 36.1721V42.1561H103.325V32.4631C103.325 23.6304 96.1984 16.4036 87.3189 16.4036C80.3259 16.4036 74.3618 20.9156 72.2277 27.1673C72.0943 27.5114 72.0181 27.6644 71.8085 27.6644C71.5989 27.6644 71.5226 27.5306 71.3893 27.1673C69.2361 20.9156 63.291 16.4036 56.298 16.4036C49.305 16.4036 43.3409 20.9156 41.2068 27.1673C41.0734 27.5114 40.9972 27.6644 40.7875 27.6644C40.5779 27.6644 40.5208 27.5306 40.3683 27.1673C38.2342 20.9156 32.2701 16.4036 25.2771 16.4036C16.4167 16.4036 9.27122 23.6304 9.27122 32.4631V44.1636L6.98466 36.1721H0.125V52.3845H4.52662V41.6399L7.57535 52.3845H9.29027V55.9405C9.29027 64.7733 16.4167 72 25.2961 72C32.2892 72 38.2533 67.4881 40.3874 61.2363C40.5208 60.8922 40.597 60.7584 40.8066 60.7584C41.0162 60.7584 41.0924 60.8922 41.2258 61.2363C43.379 67.4881 49.324 72 56.3171 72C63.3101 72 69.2742 67.4881 71.4083 61.2363C71.5417 60.8922 71.6179 60.7584 71.8275 60.7584C72.0371 60.7584 72.1133 60.8922 72.2467 61.2363C74.3999 67.4881 80.3449 72 87.338 72C96.1984 72 103.344 64.7733 103.344 55.9405V46.2093H105.459V52.3845H110.394V36.1721H105.44Z" fill="black"/>
<path d="M99.571 8.46946C101.667 8.46946 102.925 7.39883 102.925 5.69729C102.925 4.20605 101.972 3.53691 100.6 3.26925L99.4185 3.03983C98.885 2.94424 98.6373 2.75305 98.6373 2.40892C98.6373 2.06479 98.9612 1.79713 99.3995 1.79713C99.914 1.79713 100.219 2.08391 100.219 2.54275H102.734C102.696 1.05151 101.553 0 99.5138 0C97.475 0 96.1602 1.07063 96.1602 2.65746C96.1602 4.03399 96.8843 4.83696 98.5992 5.20021L99.7996 5.44875C100.238 5.54434 100.428 5.71641 100.428 6.06054C100.428 6.42379 100.162 6.69145 99.6281 6.69145C99.0184 6.69145 98.6373 6.3282 98.6373 5.75465H96.084C96.103 7.55178 97.5321 8.46946 99.571 8.46946ZM90.6915 0.152947L89.4911 2.88688L88.2716 0.152947H85.4515L88.2335 5.50611V8.2974H90.7106V5.52523L93.3973 0.152947H90.6915ZM79.4493 8.46946C81.5453 8.46946 82.8029 7.39883 82.8029 5.69729C82.8029 4.20605 81.8502 3.53691 80.4783 3.26925L79.3159 3.03983C78.7633 2.94424 78.5347 2.75305 78.5347 2.40892C78.5347 2.06479 78.8586 1.79713 79.2969 1.79713C79.8113 1.79713 80.1162 2.08391 80.1162 2.54275H82.6314C82.5552 1.05151 81.4119 0 79.3731 0C77.3342 0 76.0195 1.07063 76.0195 2.65746C76.0195 4.03399 76.7436 4.83696 78.4585 5.20021L79.6589 5.44875C80.0972 5.54434 80.2877 5.71641 80.2877 6.06054C80.2877 6.42379 80.0209 6.69145 79.4874 6.69145C78.8777 6.69145 78.4966 6.3282 78.4966 5.75465H75.9433C75.9623 7.55178 77.4105 8.46946 79.4493 8.46946ZM69.9982 4.83696L67.6354 0.172066H64.3962V8.31652H66.7018V3.05895L69.4456 8.2974H72.3038V0.152947H69.9982V4.83696ZM60.5662 0.152947H54.4115V8.2974H60.5662V6.34732H56.8886V5.14286H60.2994V3.25013H56.8886V2.10303H60.5662V0.152947ZM47.4375 8.46946C49.5336 8.46946 50.7912 7.39883 50.7912 5.69729C50.7912 4.20605 49.8384 3.53691 48.4665 3.26925L47.3042 3.03983C46.7516 2.94424 46.5229 2.75305 46.5229 2.40892C46.5229 2.06479 46.8469 1.79713 47.2851 1.79713C47.7996 1.79713 48.1045 2.08391 48.1045 2.54275H50.6197C50.5625 1.05151 49.4002 0 47.3804 0C45.3606 0 44.0268 1.07063 44.0268 2.65746C44.0268 4.03399 44.7508 4.83696 46.4658 5.20021L47.6662 5.44875C48.1045 5.54434 48.295 5.71641 48.295 6.06054C48.295 6.42379 48.0282 6.69145 47.4947 6.69145C46.885 6.69145 46.5039 6.3282 46.5039 5.75465H43.9506C43.9696 7.55178 45.3987 8.46946 47.4375 8.46946ZM37.9865 4.83696L35.6237 0.152947H32.4035V8.2974H34.7091V3.05895L37.4529 8.2974H40.3111V0.152947H38.0055L37.9865 4.83696ZM24.7626 6.46203C23.7908 6.46203 23.3144 5.73553 23.3144 4.22517C23.3144 2.71482 23.8289 1.98832 24.7626 1.98832C25.6962 1.98832 26.2107 2.71482 26.2107 4.22517C26.2107 5.73553 25.7343 6.46203 24.7626 6.46203ZM24.7626 8.46946C27.2015 8.46946 28.764 7.01646 28.764 4.24429C28.764 1.47212 27.2206 0 24.7626 0C22.3045 0 20.7611 1.453 20.7611 4.22517C20.7611 6.99734 22.2474 8.46946 24.7626 8.46946ZM13.7299 8.46946C15.9403 8.46946 17.4646 7.39883 17.5218 5.02815H14.9875C14.9494 5.79288 14.6255 6.46203 13.768 6.46203C12.7772 6.46203 12.339 5.67817 12.339 4.22517C12.339 2.77217 12.8344 1.98832 13.749 1.98832C14.5493 1.98832 14.9304 2.50451 14.9685 3.38396H17.5028C17.4837 1.22358 15.9974 0 13.6918 0C11.3862 0 9.80469 1.49124 9.80469 4.24429C9.80469 6.99734 11.2147 8.46946 13.7299 8.46946Z" fill="black"/>
</g>
<defs>
<clipPath id="clip0_4516_72193">
<rect width="110.25" height="72" fill="white" transform="translate(0.125)"/>
</clipPath>
</defs>
</svg>
