<svg width="141" height="32" viewBox="0 0 141 32" fill="none" xmlns="http://www.w3.org/2000/svg">
<g clip-path="url(#clip0_4516_72167)">
<path d="M10.9222 22.3201C8.00113 22.3201 5.25486 23.4493 3.73462 25.082C1.96459 22.5752 0.925781 19.54 0.925781 16.2668C0.925781 7.67283 8.07133 0.705444 16.8852 0.705444C17.8643 0.705444 18.8214 0.79625 19.7513 0.961098L15.5173 23.5294C14.3763 22.7783 12.7782 22.3201 10.9222 22.3201ZM26.3524 3.74023C30.2903 6.57384 32.8455 11.129 32.8455 16.2668C32.8455 24.8608 25.7 31.8286 16.8852 31.8286C15.5106 31.8286 14.1771 31.6591 12.9043 31.3406C15.1156 30.5149 16.7973 29.0523 17.2348 27.3679L17.242 27.3745L17.2596 27.2799C17.2668 27.2487 17.2792 27.2189 17.2854 27.1877C17.2955 27.1388 17.2964 27.0913 17.3041 27.0424L21.0619 7.96899C23.1046 8.31685 24.7137 9.14062 26.1743 10.4878C28.1845 12.3426 28.4658 14.5345 28.4658 14.5345C30.8434 9.87266 28.4038 5.53539 26.7211 4.05921C26.5936 3.94792 26.4747 3.84593 26.3524 3.74023Z" fill="#EAB200"/>
<mask id="mask0_4516_72167" style="mask-type:luminance" maskUnits="userSpaceOnUse" x="0" y="0" width="33" height="32">
<path d="M10.9222 22.3201C8.00113 22.3201 5.25486 23.4493 3.73462 25.082C1.96459 22.5752 0.925781 19.54 0.925781 16.2668C0.925781 7.67283 8.07133 0.705444 16.8852 0.705444C17.8643 0.705444 18.8214 0.79625 19.7513 0.961098L15.5173 23.5294C14.3763 22.7783 12.7782 22.3201 10.9222 22.3201ZM26.3524 3.74023C30.2903 6.57384 32.8455 11.129 32.8455 16.2668C32.8455 24.8608 25.7 31.8286 16.8852 31.8286C15.5106 31.8286 14.1771 31.6591 12.9043 31.3406C15.1156 30.5149 16.7973 29.0523 17.2348 27.3679L17.242 27.3745L17.2596 27.2799C17.2668 27.2487 17.2792 27.2189 17.2854 27.1877C17.2955 27.1388 17.2964 27.0913 17.3041 27.0424L21.0619 7.96899C23.1046 8.31685 24.7137 9.14062 26.1743 10.4878C28.1845 12.3426 28.4658 14.5345 28.4658 14.5345C30.8434 9.87266 28.4038 5.53539 26.7211 4.05921C26.5936 3.94792 26.4747 3.84593 26.3524 3.74023Z" fill="white"/>
</mask>
<g mask="url(#mask0_4516_72167)">
<path d="M38.2594 -4.57141H-4.40723V37.0286H38.2594V-4.57141Z" fill="url(#paint0_linear_4516_72167)"/>
</g>
<path fill-rule="evenodd" clip-rule="evenodd" d="M47.7797 23.1735L48.8888 15.7623C49.2398 13.3486 48.8888 12.1417 47.8351 12.1417H46.2267C45.5978 12.1582 44.7474 12.5659 43.6754 13.365L42.2059 23.1735H39.1553L41.1518 9.84229H43.9528V10.8942C44.8215 10.1934 45.6997 9.84229 46.5872 9.84229H48.1956C49.8964 9.84229 50.9689 10.4215 51.4129 11.5794C52.4107 10.6007 53.5662 10.0219 54.8789 9.84229H56.2376C59.3061 9.84229 60.5451 11.8158 59.9538 15.7623L58.8443 23.1735H55.8218L56.9308 15.7623C57.2819 13.3486 56.9308 12.1417 55.8772 12.1417H54.5461C53.9172 12.1582 53.0668 12.6231 51.9948 13.536C52.0502 14.1719 52.0131 14.9143 51.8836 15.7623L50.7746 23.1735H47.7797Z" fill="#121212"/>
<path fill-rule="evenodd" clip-rule="evenodd" d="M71.8031 9.98907H74.8537L72.968 22.6359C70.3613 22.9294 68.2906 23.0926 66.7563 23.1255C62.874 23.1255 61.2191 21.1923 61.7922 17.3276L62.9017 9.98907H65.9524L64.8429 17.3276C64.5101 19.5621 65.2676 20.6794 67.1168 20.6794C68.6139 20.6629 69.6681 20.5075 70.2777 20.214L71.8031 9.98907Z" fill="#121212"/>
<path fill-rule="evenodd" clip-rule="evenodd" d="M87.9035 10.0379L87.5712 12.2395L81.5535 12.2153C80.13 12.2153 79.3903 12.4192 79.3349 12.827L79.1406 14.1477C79.1218 14.5879 79.5658 14.8896 80.4716 15.0528L83.7443 15.5909C86.2214 15.9986 87.3211 17.0752 87.0437 18.8201L86.878 20.043C86.5631 22.1138 84.8252 23.1497 81.6638 23.1497L75.0645 22.9783L75.3972 20.7278L81.9139 20.7762C83.1896 20.7762 83.8645 20.5321 83.9381 20.043L84.1043 18.8201C84.1784 18.3634 83.726 18.0453 82.746 17.8656L79.1406 17.2791C77.0511 16.7895 76.0627 15.7783 76.1735 14.2455L76.4232 12.827C76.7189 10.837 78.5488 9.84229 81.9139 9.84229L87.9035 10.0379Z" fill="#121212"/>
<path fill-rule="evenodd" clip-rule="evenodd" d="M94.6085 4.48505L94.2204 7.00482H91.1697L91.5578 4.48505H94.6085ZM93.8045 9.8423L91.8075 23.1255H88.7568L90.7538 9.8423H93.8045Z" fill="#121212"/>
<path fill-rule="evenodd" clip-rule="evenodd" d="M105.249 23.0272L99.7587 23.296C95.8946 23.296 94.2956 21.0702 94.9611 16.6185C95.6445 12.117 97.9189 9.86652 101.783 9.86652L107.162 10.1605L106.83 12.3616L101.478 12.2885C99.6104 12.2885 98.4553 13.7317 98.0113 16.6185C97.5861 19.4885 98.307 20.9234 100.175 20.9234L105.554 20.8741L105.249 23.0272Z" fill="#121212"/>
<path fill-rule="evenodd" clip-rule="evenodd" d="M113.025 12.1907C111.268 12.1907 110.205 13.4058 109.835 15.8355L109.641 17.254C109.271 19.6842 109.965 20.8997 111.721 20.8997H113.33C115.086 20.8997 116.149 19.6842 116.519 17.254L116.713 15.8355C117.082 13.4058 116.389 12.1907 114.633 12.1907H113.025ZM119.735 15.8355L119.541 17.254C118.949 21.1685 116.768 23.1255 112.997 23.1255H111.388C107.672 23.1255 106.11 21.1685 106.702 17.254L106.896 15.8355C107.488 11.889 109.641 9.91547 113.357 9.91547H114.966C118.737 9.91547 120.327 11.889 119.735 15.8355Z" fill="#121212"/>
<path fill-rule="evenodd" clip-rule="evenodd" d="M126.963 4.48505L126.574 7.00482H123.524L123.912 4.48505H126.963ZM126.159 9.8423L124.162 23.1255H121.111L123.108 9.8423H126.159Z" fill="#121212"/>
<path fill-rule="evenodd" clip-rule="evenodd" d="M130.223 23.1735H127.173L129.169 9.84229H131.97L131.998 10.8699C132.848 10.1847 133.717 9.84229 134.604 9.84229H136.435C139.689 9.84229 141.02 11.8158 140.428 15.7623L139.319 23.1735H136.324L137.433 15.7623C137.784 13.3486 137.331 12.1417 136.075 12.1417H134.244C133.596 12.1582 132.747 12.5659 131.693 13.365L130.223 23.1735Z" fill="#121212"/>
</g>
<defs>
<linearGradient id="paint0_linear_4516_72167" x1="-118.342" y1="2864.66" x2="3881.85" y2="2479.1" gradientUnits="userSpaceOnUse">
<stop stop-color="#FECE00"/>
<stop offset="1" stop-color="#FF9000"/>
</linearGradient>
<clipPath id="clip0_4516_72167">
<rect width="139.733" height="32" fill="white" transform="translate(0.883789)"/>
</clipPath>
</defs>
</svg>
