<svg width="141" height="32" viewBox="0 0 141 32" fill="none" xmlns="http://www.w3.org/2000/svg">
<g clip-path="url(#clip0_4552_5465)">
<path d="M10.9222 22.3201C8.00113 22.3201 5.25486 23.4493 3.73462 25.082C1.96459 22.5752 0.925781 19.54 0.925781 16.2668C0.925781 7.67283 8.07133 0.705444 16.8852 0.705444C17.8643 0.705444 18.8214 0.79625 19.7513 0.961098L15.5173 23.5294C14.3763 22.7783 12.7782 22.3201 10.9222 22.3201ZM26.3524 3.74023C30.2903 6.57384 32.8455 11.129 32.8455 16.2668C32.8455 24.8608 25.7 31.8286 16.8852 31.8286C15.5106 31.8286 14.1771 31.6591 12.9043 31.3406C15.1156 30.5149 16.7973 29.0523 17.2348 27.3679L17.242 27.3745L17.2596 27.2799C17.2668 27.2487 17.2792 27.2189 17.2854 27.1877C17.2955 27.1388 17.2964 27.0913 17.3041 27.0424L21.0619 7.96899C23.1046 8.31685 24.7137 9.14062 26.1743 10.4878C28.1845 12.3426 28.4658 14.5345 28.4658 14.5345C30.8434 9.87266 28.4038 5.53539 26.7211 4.05921C26.5936 3.94792 26.4747 3.84593 26.3524 3.74023Z" fill="#EAB200"/>
<mask id="mask0_4552_5465" style="mask-type:luminance" maskUnits="userSpaceOnUse" x="0" y="0" width="33" height="32">
<path d="M10.9222 22.3201C8.00113 22.3201 5.25486 23.4493 3.73462 25.082C1.96459 22.5752 0.925781 19.54 0.925781 16.2668C0.925781 7.67283 8.07133 0.705444 16.8852 0.705444C17.8643 0.705444 18.8214 0.79625 19.7513 0.961098L15.5173 23.5294C14.3763 22.7783 12.7782 22.3201 10.9222 22.3201ZM26.3524 3.74023C30.2903 6.57384 32.8455 11.129 32.8455 16.2668C32.8455 24.8608 25.7 31.8286 16.8852 31.8286C15.5106 31.8286 14.1771 31.6591 12.9043 31.3406C15.1156 30.5149 16.7973 29.0523 17.2348 27.3679L17.242 27.3745L17.2596 27.2799C17.2668 27.2487 17.2792 27.2189 17.2854 27.1877C17.2955 27.1388 17.2964 27.0913 17.3041 27.0424L21.0619 7.96899C23.1046 8.31685 24.7137 9.14062 26.1743 10.4878C28.1845 12.3426 28.4658 14.5345 28.4658 14.5345C30.8434 9.87266 28.4038 5.53539 26.7211 4.05921C26.5936 3.94792 26.4747 3.84593 26.3524 3.74023Z" fill="white"/>
</mask>
<g mask="url(#mask0_4552_5465)">
<path d="M38.2585 -4.57141H-4.4082V37.0286H38.2585V-4.57141Z" fill="url(#paint0_linear_4552_5465)"/>
</g>
<path fill-rule="evenodd" clip-rule="evenodd" d="M47.7788 23.1735L48.8878 15.7623C49.2389 13.3486 48.8878 12.1417 47.8341 12.1417H46.2257C45.5968 12.1582 44.7464 12.5659 43.6744 13.365L42.205 23.1735H39.1543L41.1508 9.84229H43.9518V10.8942C44.8206 10.1934 45.6987 9.84229 46.5862 9.84229H48.1946C49.8955 9.84229 50.9679 10.4215 51.4119 11.5794C52.4097 10.6007 53.5652 10.0219 54.8779 9.84229H56.2366C59.3051 9.84229 60.5442 11.8158 59.9528 15.7623L58.8433 23.1735H55.8208L56.9298 15.7623C57.2809 13.3486 56.9298 12.1417 55.8762 12.1417H54.5451C53.9162 12.1582 53.0658 12.6231 51.9938 13.536C52.0492 14.1719 52.0122 14.9143 51.8826 15.7623L50.7736 23.1735H47.7788Z" fill="white"/>
<path fill-rule="evenodd" clip-rule="evenodd" d="M71.8011 9.98907H74.8518L72.966 22.6359C70.3593 22.9294 68.2886 23.0926 66.7544 23.1255C62.872 23.1255 61.2172 21.1923 61.7902 17.3276L62.8997 9.98907H65.9504L64.8409 17.3276C64.5081 19.5621 65.2656 20.6794 67.1148 20.6794C68.612 20.6629 69.6661 20.5075 70.2758 20.214L71.8011 9.98907Z" fill="white"/>
<path fill-rule="evenodd" clip-rule="evenodd" d="M87.9016 10.0379L87.5693 12.2395L81.5515 12.2153C80.128 12.2153 79.3883 12.4192 79.333 12.827L79.1387 14.1477C79.1199 14.5879 79.5639 14.8896 80.4697 15.0528L83.7424 15.5909C86.2195 15.9986 87.3191 17.0752 87.0418 18.8201L86.8761 20.043C86.5612 22.1138 84.8232 23.1497 81.6618 23.1497L75.0625 22.9783L75.3953 20.7278L81.912 20.7762C83.1876 20.7762 83.8625 20.5321 83.9362 20.043L84.1023 18.8201C84.1765 18.3634 83.7241 18.0453 82.7441 17.8656L79.1387 17.2791C77.0492 16.7895 76.0608 15.7783 76.1715 14.2455L76.4212 12.827C76.7169 10.837 78.5468 9.84229 81.912 9.84229L87.9016 10.0379Z" fill="white"/>
<path fill-rule="evenodd" clip-rule="evenodd" d="M94.6075 4.48505L94.2194 7.00482H91.1687L91.5568 4.48505H94.6075ZM93.8035 9.8423L91.8065 23.1255H88.7559L90.7529 9.8423H93.8035Z" fill="white"/>
<path fill-rule="evenodd" clip-rule="evenodd" d="M105.247 23.0272L99.7567 23.296C95.8927 23.296 94.2937 21.0702 94.9592 16.6185C95.6425 12.117 97.9169 9.86652 101.781 9.86652L107.16 10.1605L106.828 12.3616L101.476 12.2885C99.6084 12.2885 98.4534 13.7317 98.0094 16.6185C97.5842 19.4885 98.3051 20.9234 100.173 20.9234L105.553 20.8741L105.247 23.0272Z" fill="white"/>
<path fill-rule="evenodd" clip-rule="evenodd" d="M113.025 12.1907C111.268 12.1907 110.205 13.4058 109.835 15.8355L109.641 17.254C109.271 19.6842 109.965 20.8997 111.721 20.8997H113.33C115.086 20.8997 116.149 19.6842 116.519 17.254L116.713 15.8355C117.082 13.4058 116.389 12.1907 114.633 12.1907H113.025ZM119.735 15.8355L119.541 17.254C118.949 21.1685 116.768 23.1255 112.997 23.1255H111.388C107.672 23.1255 106.11 21.1685 106.702 17.254L106.896 15.8355C107.488 11.889 109.641 9.91547 113.357 9.91547H114.966C118.737 9.91547 120.327 11.889 119.735 15.8355Z" fill="white"/>
<path fill-rule="evenodd" clip-rule="evenodd" d="M126.961 4.48505L126.572 7.00482H123.522L123.91 4.48505H126.961ZM126.157 9.8423L124.16 23.1255H121.109L123.106 9.8423H126.157Z" fill="white"/>
<path fill-rule="evenodd" clip-rule="evenodd" d="M130.222 23.1735H127.172L129.168 9.84229H131.969L131.997 10.8699C132.847 10.1847 133.716 9.84229 134.603 9.84229H136.434C139.688 9.84229 141.019 11.8158 140.427 15.7623L139.318 23.1735H136.323L137.432 15.7623C137.783 13.3486 137.33 12.1417 136.074 12.1417H134.243C133.595 12.1582 132.746 12.5659 131.692 13.365L130.222 23.1735Z" fill="white"/>
</g>
<defs>
<linearGradient id="paint0_linear_4552_5465" x1="-118.343" y1="2864.66" x2="3881.85" y2="2479.1" gradientUnits="userSpaceOnUse">
<stop stop-color="#FECE00"/>
<stop offset="1" stop-color="#FF9000"/>
</linearGradient>
<clipPath id="clip0_4552_5465">
<rect width="139.733" height="32" fill="white" transform="translate(0.882812)"/>
</clipPath>
</defs>
</svg>
