<svg width="104" height="48" viewBox="0 0 104 48" fill="none" xmlns="http://www.w3.org/2000/svg">
<g clip-path="url(#clip0_4516_72215)">
<path d="M52.2501 20.0435C57.7924 20.0435 62.2853 15.5566 62.2853 10.0217C62.2853 4.48688 57.7924 0 52.2501 0C46.7078 0 42.2148 4.48688 42.2148 10.0217C42.2148 15.5566 46.7078 20.0435 52.2501 20.0435Z" fill="black"/>
<path d="M54.8947 8.35697L53.35 7.21385L52.172 6.33708L49.4492 4.3172V8.36807V11.8307V15.8816L52.172 13.8617L53.35 12.9849L54.8947 11.8418L57.2396 10.0994L54.8947 8.35697Z" fill="white"/>
<path d="M49.4494 8.3681V11.8308L47.1045 10.0994L49.4494 8.3681Z" fill="#3ABEEF"/>
<path d="M54.8946 4.3172V8.35697L53.3499 7.21385L52.1719 6.33708L54.8946 4.3172Z" fill="#E42226"/>
<path d="M54.8946 11.8419V15.8816L52.1719 13.8617L53.3499 12.985L54.8946 11.8419Z" fill="#69B42F"/>
<path d="M103.393 47.1676C102.726 45.6139 102.059 44.0601 101.393 42.5175C101.337 42.3843 101.282 42.2622 101.226 42.129C100.126 39.5764 99.0256 37.0238 97.9254 34.4712L97.6031 33.7498L97.1363 32.6955H95.3249L94.5469 34.4601C93.4245 37.0238 92.3021 39.5764 91.1574 42.129C90.8907 42.7283 90.624 43.3276 90.3573 43.9269C90.3462 43.9491 90.335 43.9824 90.3239 44.0046C89.8127 45.1699 89.2904 46.3464 88.7236 47.6227C89.3571 47.6227 90.3906 47.6116 91.0796 47.6227L92.0909 45.1478L92.491 44.1822L92.5132 44.1267L92.591 43.9269H99.6812L99.7479 44.0934L101.059 47.3008L101.182 47.6005C101.915 47.6227 102.882 47.6116 103.571 47.6116C103.493 47.4007 103.449 47.2897 103.393 47.1676ZM93.3134 42.129C93.5468 41.563 93.7801 40.997 94.0135 40.431L94.1802 40.0426C94.8248 38.4777 95.4805 36.9128 96.1584 35.2925C96.814 36.9128 97.4586 38.4777 98.0921 40.0426L98.2588 40.431L98.9478 42.129H93.3134Z" fill="black"/>
<path d="M56.5402 45.7249H64.4861V47.5783H54.5176V32.7621H64.1194V34.6044H56.5513V39.0548H63.5859V40.9526H56.5513V45.7249H56.5402Z" fill="black"/>
<path d="M49.5726 34.6821C49.0169 35.1038 48.4835 35.5144 47.95 35.914C47.9056 35.8918 47.85 35.8918 47.8278 35.8585C46.0386 33.5501 41.5266 33.5168 39.5929 36.9239C38.326 39.1658 38.326 41.4853 39.6818 43.7161C41.3821 46.5128 46.0052 47.0788 48.0723 44.2821C48.1056 44.2266 48.1278 44.1711 48.1723 44.0823C48.7946 44.5484 49.3503 44.9591 49.906 45.3808C48.2945 47.6116 44.7717 48.5882 41.8378 47.6449C38.7039 46.6349 36.5368 43.594 36.5479 40.2423C36.559 36.6354 38.5816 33.7498 41.7822 32.7288C44.705 31.8076 48.139 32.64 49.5837 34.6821H49.5726Z" fill="black"/>
<path d="M33.6355 32.7288C33.0577 33.5944 32.5353 34.3824 32.013 35.1704C30.7572 37.0682 29.2125 39.421 27.9789 41.3188V41.7738C27.9456 43.5385 27.9567 45.3031 27.9567 47.0566V47.6004H25.9119C25.9008 45.8025 25.9341 43.4941 25.9119 41.6962V41.2633L25.0784 40.0203C23.5003 37.612 21.9 35.2037 20.2441 32.7288H22.8446C22.8446 32.7288 26.2342 38.1558 26.5564 38.6663C26.6676 38.8328 26.7787 39.0104 26.9343 39.2434C27.0565 39.0659 27.1566 38.9327 27.2455 38.7884C27.6122 38.2224 31.0573 32.7288 31.0573 32.7288H33.6244H33.6355Z" fill="black"/>
<path d="M22.0673 32.7288H20.2559C20.9004 32.7288 21.4894 32.7177 22.0673 32.7288Z" fill="black"/>
<path d="M69.5537 32.7621H71.5541V45.7249H78.4109V47.6005H69.5648V32.7732L69.5537 32.7621Z" fill="black"/>
<path d="M84.6231 32.7732V47.5894H82.6338V32.7732H84.6231Z" fill="black"/>
<path d="M5.9084 42.3177H5.89729C5.00823 40.1646 4.11918 38.0115 3.23012 35.8585C3.18567 35.7586 3.14121 35.6587 3.09676 35.5588L2.98563 35.3036V47.6226H0.929688V32.7288H3.98582L4.15252 33.1283L4.80819 34.671C5.98619 37.4677 7.17531 40.2534 8.3533 43.0501C8.47555 43.3498 8.60891 43.6495 8.78672 44.0601C8.89785 43.8048 8.97564 43.6606 9.03121 43.5052C10.2648 40.553 11.5095 37.612 12.7319 34.671C12.7319 34.671 13.4432 32.9951 13.4543 32.984L13.5543 32.7288H16.5548V47.5893H14.5545V35.237C14.5545 35.237 14.3544 35.7475 14.31 35.8585C13.4209 38.0115 12.5319 40.1646 11.6428 42.3177H11.6317L9.59798 47.2675L9.45351 47.6004H8.08659" fill="black"/>
</g>
<defs>
<clipPath id="clip0_4516_72215">
<rect width="102.642" height="48" fill="white" transform="translate(0.929688)"/>
</clipPath>
</defs>
</svg>
