<svg width="144" height="28" viewBox="0 0 144 28" fill="none" xmlns="http://www.w3.org/2000/svg">
<g clip-path="url(#clip0_4516_72309)">
<path d="M8.77986 14.5849H3.58391V11.3077H8.77986C9.58285 11.3077 10.2365 11.1769 10.7406 10.9155C11.2448 10.6447 11.6137 10.2712 11.8471 9.79511C12.0805 9.31891 12.1972 8.78206 12.1972 8.1845C12.1972 7.57758 12.0805 7.01273 11.8471 6.48983C11.6137 5.96696 11.2448 5.54681 10.7406 5.22936C10.2365 4.9119 9.58285 4.75317 8.77986 4.75317H5.04047V21.8537H0.838867V1.46192H8.77986C10.3765 1.46192 11.7444 1.75136 12.8834 2.33025C14.0319 2.8998 14.9095 3.68877 15.5165 4.69715C16.1234 5.70553 16.4268 6.85866 16.4268 8.1565C16.4268 9.47297 16.1234 10.6121 15.5165 11.5738C14.9095 12.5355 14.0319 13.2778 12.8834 13.8006C11.7444 14.3235 10.3765 14.5849 8.77986 14.5849ZM27.0849 18.4364V11.6858C27.0849 11.2003 27.0055 10.7848 26.8468 10.4393C26.688 10.0845 26.4406 9.80911 26.1045 9.61304C25.7777 9.41697 25.3529 9.31891 24.83 9.31891C24.3818 9.31891 23.9944 9.39826 23.6676 9.55697C23.3407 9.7064 23.0887 9.92582 22.9113 10.2152C22.7339 10.4954 22.6452 10.8268 22.6452 11.2097H18.6116C18.6116 10.5654 18.761 9.95382 19.0598 9.37491C19.3586 8.79606 19.7927 8.28721 20.3623 7.84836C20.9319 7.40016 21.6088 7.05002 22.3931 6.79795C23.1867 6.54585 24.0737 6.41981 25.0541 6.41981C26.2306 6.41981 27.2763 6.61588 28.1913 7.00802C29.1063 7.40016 29.8253 7.98843 30.3481 8.7727C30.8803 9.55697 31.1464 10.5374 31.1464 11.7138V18.1983C31.1464 19.0293 31.1978 19.7109 31.3005 20.2431C31.4032 20.7659 31.5525 21.2234 31.7487 21.6156V21.8537H27.6731C27.477 21.4428 27.3276 20.9293 27.2249 20.3131C27.1315 19.6875 27.0849 19.062 27.0849 18.4364ZM27.6171 12.6242L27.6451 14.907H25.3902C24.858 14.907 24.3959 14.9677 24.0037 15.0891C23.6115 15.2105 23.2894 15.3832 23.0373 15.6073C22.7853 15.8221 22.5985 16.0741 22.4771 16.3636C22.3651 16.6531 22.3091 16.9705 22.3091 17.316C22.3091 17.6614 22.3884 17.9742 22.5471 18.2543C22.7058 18.5251 22.9346 18.7398 23.2334 18.8986C23.5322 19.048 23.8823 19.1227 24.2838 19.1227C24.8907 19.1227 25.4182 19.0012 25.8664 18.7585C26.3146 18.5157 26.66 18.217 26.9028 17.8622C27.1549 17.5073 27.2856 17.1713 27.295 16.8538L28.3594 18.5625C28.2099 18.9452 28.0045 19.3421 27.7431 19.7529C27.491 20.1637 27.1689 20.5512 26.7768 20.9153C26.3846 21.2701 25.9131 21.5643 25.3622 21.7977C24.8114 22.0218 24.1577 22.1338 23.4015 22.1338C22.4398 22.1338 21.5668 21.9424 20.7824 21.5595C20.0075 21.1674 19.3912 20.6306 18.9338 19.9489C18.4856 19.258 18.2615 18.4737 18.2615 17.596C18.2615 16.8024 18.4109 16.0975 18.7097 15.4812C19.0085 14.865 19.4473 14.3468 20.0262 13.9267C20.6144 13.4972 21.3474 13.1751 22.225 12.9603C23.1027 12.7362 24.1204 12.6242 25.2781 12.6242H27.6171ZM38.2891 9.61304V27.6799H34.2556V6.69992H37.995L38.2891 9.61304ZM47.8828 14.1088V14.4028C47.8828 15.5046 47.7521 16.527 47.4906 17.47C47.2385 18.413 46.8651 19.2347 46.3702 19.9349C45.8754 20.6259 45.2591 21.1674 44.5215 21.5595C43.7932 21.9424 42.9529 22.1338 42.0006 22.1338C41.0762 22.1338 40.2732 21.947 39.5916 21.5736C38.91 21.2001 38.3358 20.6772 37.869 20.005C37.4115 19.3234 37.0427 18.5344 36.7626 17.638C36.4824 16.7417 36.2677 15.78 36.1183 14.753V13.9827C36.2677 12.8809 36.4824 11.8726 36.7626 10.9575C37.0427 10.0332 37.4115 9.23491 37.869 8.56263C38.3358 7.881 38.9053 7.35351 39.5776 6.98002C40.2592 6.60655 41.0575 6.41981 41.9726 6.41981C42.9343 6.41981 43.7792 6.60188 44.5075 6.96602C45.2451 7.33016 45.8614 7.853 46.3562 8.53463C46.8604 9.21619 47.2385 10.0285 47.4906 10.9715C47.7521 11.9146 47.8828 12.9603 47.8828 14.1088ZM43.8352 14.4028V14.1088C43.8352 13.4645 43.7792 12.8716 43.6672 12.3301C43.5645 11.7792 43.3964 11.2983 43.163 10.8875C42.9389 10.4767 42.6401 10.1592 42.2666 9.93518C41.9025 9.70176 41.459 9.58504 40.9362 9.58504C40.3852 9.58504 39.9137 9.67369 39.5216 9.85111C39.1388 10.0285 38.826 10.2852 38.5833 10.6214C38.3405 10.9575 38.1584 11.359 38.0371 11.8259C37.9156 12.2927 37.841 12.8203 37.8129 13.4085V15.3552C37.8596 16.0461 37.9903 16.6671 38.2051 17.2179C38.4198 17.7595 38.7513 18.189 39.1995 18.5064C39.6477 18.8239 40.2359 18.9826 40.9642 18.9826C41.4964 18.9826 41.9445 18.8659 42.3086 18.6325C42.6728 18.3897 42.9669 18.0583 43.191 17.638C43.4244 17.2179 43.5878 16.7324 43.6812 16.1815C43.7839 15.6307 43.8352 15.0377 43.8352 14.4028ZM57.3644 22.1338C56.188 22.1338 55.1329 21.947 54.1992 21.5736C53.2655 21.1908 52.4719 20.6632 51.8183 19.991C51.174 19.3187 50.6792 18.5391 50.3337 17.6521C49.9883 16.7558 49.8155 15.8034 49.8155 14.795V14.2348C49.8155 13.0863 49.9789 12.0359 50.3057 11.0836C50.6325 10.1312 51.0993 9.30491 51.7062 8.60463C52.3225 7.90436 53.0694 7.36751 53.9471 6.99402C54.8248 6.61121 55.8145 6.41981 56.9162 6.41981C57.99 6.41981 58.9423 6.59721 59.7733 6.95202C60.6043 7.3068 61.2999 7.811 61.8601 8.46456C62.4296 9.11819 62.8591 9.90247 63.1486 10.8175C63.438 11.7232 63.5828 12.7316 63.5828 13.8426V15.5233H51.5382V12.8343H59.6193V12.5261C59.6193 11.9659 59.5165 11.4664 59.3111 11.0276C59.1151 10.5794 58.8163 10.2246 58.4148 9.96318C58.0133 9.70175 57.4998 9.57097 56.8742 9.57097C56.342 9.57097 55.8845 9.68769 55.5017 9.92111C55.1189 10.1545 54.8061 10.4814 54.5633 10.9015C54.3299 11.3217 54.1525 11.8165 54.0311 12.3861C53.9191 12.9463 53.8631 13.5625 53.8631 14.2348V14.795C53.8631 15.4019 53.9471 15.9621 54.1151 16.4756C54.2926 16.9892 54.54 17.4327 54.8574 17.8061C55.1843 18.1796 55.5764 18.469 56.0339 18.6745C56.5007 18.8799 57.0283 18.9826 57.6165 18.9826C58.3448 18.9826 59.0217 18.8425 59.6473 18.5625C60.2822 18.273 60.8284 17.8388 61.2859 17.2599L63.2466 19.3887C62.9292 19.8462 62.495 20.2851 61.9441 20.7053C61.4026 21.1254 60.749 21.4709 59.9834 21.7416C59.2178 22.0031 58.3448 22.1338 57.3644 22.1338ZM69.9135 10.0052V21.8537H65.8796V6.69992H69.6751L69.9135 10.0052ZM74.4789 6.60188L74.4092 10.3413C74.2125 10.3133 73.9749 10.29 73.6949 10.2712C73.4237 10.2432 73.1765 10.2292 72.9525 10.2292C72.383 10.2292 71.8878 10.304 71.4678 10.4533C71.0567 10.5934 70.7112 10.8035 70.4312 11.0836C70.1607 11.3637 69.9551 11.7045 69.8151 12.106C69.6847 12.5075 69.6096 12.965 69.5911 13.4785L68.7785 13.2264C68.7785 12.246 68.8768 11.345 69.0728 10.5234C69.2688 9.6924 69.5536 8.96877 69.9271 8.35256C70.3103 7.73629 70.7767 7.26015 71.3278 6.92402C71.8783 6.58787 72.5086 6.41981 73.2182 6.41981C73.4429 6.41981 73.671 6.43848 73.9045 6.47583C74.1381 6.50384 74.3293 6.54586 74.4789 6.60188ZM82.3639 18.9826C82.8591 18.9826 83.2975 18.8892 83.6806 18.7025C84.063 18.5064 84.3622 18.2356 84.5766 17.8902C84.8006 17.5354 84.9174 17.1199 84.927 16.6437H88.7227C88.7131 17.7081 88.4283 18.6558 87.8683 19.4868C87.3076 20.3084 86.5564 20.9573 85.6133 21.4335C84.6702 21.9004 83.6151 22.1338 82.4479 22.1338C81.2712 22.1338 80.2441 21.9377 79.3666 21.5455C78.4986 21.1534 77.7747 20.6119 77.1962 19.9209C76.6171 19.2207 76.1828 18.4084 75.8932 17.484C75.6043 16.5504 75.4595 15.5513 75.4595 14.4869V14.0808C75.4595 13.007 75.6043 12.0079 75.8932 11.0836C76.1828 10.1499 76.6171 9.33762 77.1962 8.64663C77.7747 7.94636 78.4986 7.40016 79.3666 7.00802C80.2352 6.61588 81.2528 6.41981 82.4199 6.41981C83.6615 6.41981 84.7494 6.6579 85.683 7.13409C86.6261 7.61029 87.3636 8.29185 87.8963 9.17884C88.4379 10.0565 88.7131 11.0976 88.7227 12.3021H84.927C84.9174 11.7979 84.8102 11.3404 84.6046 10.9295C84.4086 10.5187 84.1191 10.1919 83.7366 9.94918C83.3631 9.69704 82.9007 9.57097 82.3496 9.57097C81.7616 9.57097 81.2808 9.69704 80.9072 9.94918C80.5337 10.1919 80.2441 10.528 80.0392 10.9575C79.8337 11.3777 79.6889 11.8586 79.6049 12.4001C79.5305 12.9323 79.4929 13.4925 79.4929 14.0808V14.4869C79.4929 15.0751 79.5305 15.64 79.6049 16.1815C79.6793 16.7231 79.8193 17.2039 80.0249 17.624C80.24 18.0443 80.5337 18.3757 80.9072 18.6185C81.2808 18.8612 81.7664 18.9826 82.3639 18.9826ZM94.9967 0.341492V21.8537H90.9633V0.341492H94.9967ZM94.4224 13.7446H93.316C93.3256 12.6896 93.4656 11.7185 93.736 10.8315C94.0071 9.93518 94.3944 9.16019 94.8984 8.50663C95.4031 7.84372 96.0054 7.33016 96.7054 6.96602C97.415 6.60188 98.199 6.41981 99.0581 6.41981C99.8052 6.41981 100.482 6.52718 101.089 6.74193C101.705 6.94737 102.233 7.28344 102.671 7.75029C103.12 8.20785 103.465 8.81006 103.708 9.55697C103.951 10.304 104.072 11.2097 104.072 12.2741V21.8537H100.011V12.246C100.011 11.5738 99.9124 11.0462 99.7164 10.6635C99.53 10.2712 99.2541 9.99582 98.8901 9.83711C98.5356 9.66904 98.0965 9.58504 97.5734 9.58504C96.995 9.58504 96.4998 9.6924 96.0894 9.90711C95.6878 10.1219 95.3655 10.4207 95.1231 10.8035C94.8799 11.1769 94.7024 11.6158 94.5904 12.12C94.4784 12.6242 94.4224 13.1657 94.4224 13.7446ZM115.319 18.4364V11.6858C115.319 11.2003 115.239 10.7848 115.08 10.4393C114.922 10.0845 114.675 9.80911 114.338 9.61304C114.011 9.41697 113.587 9.31891 113.064 9.31891C112.616 9.31891 112.228 9.39826 111.901 9.55697C111.574 9.7064 111.322 9.92582 111.145 10.2152C110.968 10.4954 110.879 10.8268 110.879 11.2097H106.845C106.845 10.5654 106.994 9.95382 107.293 9.37491C107.592 8.79606 108.026 8.28721 108.596 7.84836C109.165 7.40016 109.842 7.05002 110.627 6.79795C111.42 6.54585 112.308 6.41981 113.288 6.41981C114.464 6.41981 115.51 6.61588 116.425 7.00802C117.34 7.40016 118.059 7.98843 118.582 8.7727C119.114 9.55697 119.38 10.5374 119.38 11.7138V18.1983C119.38 19.0293 119.431 19.7109 119.534 20.2431C119.637 20.7659 119.786 21.2234 119.982 21.6156V21.8537H115.907C115.711 21.4428 115.561 20.9293 115.459 20.3131C115.365 19.6875 115.319 19.062 115.319 18.4364ZM115.851 12.6242L115.879 14.907H113.624C113.092 14.907 112.629 14.9677 112.237 15.0891C111.845 15.2105 111.523 15.3832 111.271 15.6073C111.019 15.8221 110.832 16.0741 110.711 16.3636C110.599 16.6531 110.543 16.9705 110.543 17.316C110.543 17.6614 110.622 17.9742 110.781 18.2543C110.94 18.5251 111.168 18.7398 111.467 18.8986C111.766 19.048 112.116 19.1227 112.517 19.1227C113.124 19.1227 113.652 19.0012 114.1 18.7585C114.548 18.5157 114.894 18.217 115.136 17.8622C115.388 17.5073 115.519 17.1713 115.528 16.8538L116.593 18.5625C116.443 18.9452 116.238 19.3421 115.977 19.7529C115.725 20.1637 115.403 20.5512 115.011 20.9153C114.618 21.2701 114.147 21.5643 113.596 21.7977C113.045 22.0218 112.392 22.1338 111.635 22.1338C110.673 22.1338 109.801 21.9424 109.016 21.5595C108.241 21.1674 107.625 20.6306 107.167 19.9489C106.719 19.258 106.495 18.4737 106.495 17.596C106.495 16.8024 106.645 16.0975 106.943 15.4812C107.242 14.865 107.681 14.3468 108.26 13.9267C108.848 13.4972 109.581 13.1751 110.459 12.9603C111.336 12.7362 112.354 12.6242 113.512 12.6242H115.851ZM126.747 6.69992V21.8537H122.699V6.69992H126.747ZM122.447 2.75041C122.447 2.16219 122.653 1.67667 123.064 1.29385C123.474 0.911039 124.025 0.719635 124.716 0.719635C125.398 0.719635 125.944 0.911039 126.355 1.29385C126.775 1.67667 126.985 2.16219 126.985 2.75041C126.985 3.33863 126.775 3.82415 126.355 4.20697C125.944 4.58977 125.398 4.78119 124.716 4.78119C124.025 4.78119 123.474 4.58977 123.064 4.20697C122.653 3.82415 122.447 3.33863 122.447 2.75041ZM134.029 9.93518V21.8537H129.996V6.69992H133.777L134.029 9.93518ZM133.441 13.7446H132.349C132.349 12.6242 132.493 11.6158 132.783 10.7195C133.073 9.81376 133.479 9.04348 134.001 8.40856C134.525 7.76429 135.145 7.27416 135.864 6.93802C136.592 6.59254 137.405 6.41981 138.301 6.41981C139.011 6.41981 139.659 6.52251 140.248 6.72792C140.836 6.93331 141.34 7.26016 141.761 7.70829C142.19 8.1565 142.517 8.74934 142.741 9.48697C142.974 10.2246 143.091 11.1256 143.091 12.19V21.8537H139.03V12.176C139.03 11.5037 138.936 10.9809 138.749 10.6074C138.563 10.234 138.287 9.97247 137.923 9.82311C137.568 9.6644 137.129 9.58504 136.607 9.58504C136.065 9.58504 135.593 9.6924 135.192 9.90711C134.8 10.1219 134.473 10.4207 134.212 10.8035C133.96 11.1769 133.768 11.6158 133.637 12.12C133.507 12.6242 133.441 13.1657 133.441 13.7446Z" fill="#0E0E0E"/>
</g>
<defs>
<clipPath id="clip0_4516_72309">
<rect width="142.732" height="28" fill="white" transform="translate(0.383789)"/>
</clipPath>
</defs>
</svg>
