<svg width="144" height="28" viewBox="0 0 144 28" fill="none" xmlns="http://www.w3.org/2000/svg">
<g clip-path="url(#clip0_4552_5607)">
<path d="M8.78084 14.5849H3.58489V11.3077H8.78084C9.58382 11.3077 10.2375 11.1769 10.7416 10.9155C11.2458 10.6447 11.6146 10.2712 11.8481 9.79511C12.0815 9.31891 12.1982 8.78206 12.1982 8.1845C12.1982 7.57758 12.0815 7.01273 11.8481 6.48983C11.6146 5.96696 11.2458 5.54681 10.7416 5.22936C10.2375 4.9119 9.58382 4.75317 8.78084 4.75317H5.04144V21.8537H0.839844V1.46192H8.78084C10.3775 1.46192 11.7454 1.75136 12.8844 2.33025C14.0329 2.8998 14.9105 3.68877 15.5174 4.69715C16.1243 5.70553 16.4278 6.85866 16.4278 8.1565C16.4278 9.47297 16.1243 10.6121 15.5174 11.5738C14.9105 12.5355 14.0329 13.2778 12.8844 13.8006C11.7454 14.3235 10.3775 14.5849 8.78084 14.5849ZM27.0859 18.4364V11.6858C27.0859 11.2003 27.0064 10.7848 26.8477 10.4393C26.689 10.0845 26.4416 9.80911 26.1055 9.61304C25.7787 9.41697 25.3538 9.31891 24.831 9.31891C24.3828 9.31891 23.9954 9.39826 23.6686 9.55697C23.3417 9.7064 23.0897 9.92582 22.9122 10.2152C22.7349 10.4954 22.6462 10.8268 22.6462 11.2097H18.6126C18.6126 10.5654 18.762 9.95382 19.0608 9.37491C19.3596 8.79606 19.7937 8.28721 20.3633 7.84836C20.9328 7.40016 21.6098 7.05002 22.394 6.79795C23.1877 6.54585 24.0747 6.41981 25.0551 6.41981C26.2315 6.41981 27.2772 6.61588 28.1923 7.00802C29.1073 7.40016 29.8263 7.98843 30.3491 8.7727C30.8813 9.55697 31.1474 10.5374 31.1474 11.7138V18.1983C31.1474 19.0293 31.1987 19.7109 31.3014 20.2431C31.4042 20.7659 31.5535 21.2234 31.7496 21.6156V21.8537H27.6741C27.478 21.4428 27.3286 20.9293 27.2259 20.3131C27.1325 19.6875 27.0859 19.062 27.0859 18.4364ZM27.6181 12.6242L27.6461 14.907H25.3912C24.859 14.907 24.3968 14.9677 24.0046 15.0891C23.6125 15.2105 23.2904 15.3832 23.0383 15.6073C22.7862 15.8221 22.5995 16.0741 22.4781 16.3636C22.366 16.6531 22.31 16.9705 22.31 17.316C22.31 17.6614 22.3894 17.9742 22.5481 18.2543C22.7068 18.5251 22.9356 18.7398 23.2344 18.8986C23.5331 19.048 23.8833 19.1227 24.2848 19.1227C24.8917 19.1227 25.4192 19.0012 25.8674 18.7585C26.3155 18.5157 26.661 18.217 26.9038 17.8622C27.1559 17.5073 27.2866 17.1713 27.2959 16.8538L28.3604 18.5625C28.2109 18.9452 28.0055 19.3421 27.7441 19.7529C27.492 20.1637 27.1699 20.5512 26.7777 20.9153C26.3856 21.2701 25.914 21.5643 25.3632 21.7977C24.8123 22.0218 24.1587 22.1338 23.4024 22.1338C22.4407 22.1338 21.5678 21.9424 20.7834 21.5595C20.0085 21.1674 19.3922 20.6306 18.9347 19.9489C18.4866 19.258 18.2625 18.4737 18.2625 17.596C18.2625 16.8024 18.4119 16.0975 18.7107 15.4812C19.0094 14.865 19.4483 14.3468 20.0271 13.9267C20.6153 13.4972 21.3483 13.1751 22.226 12.9603C23.1037 12.7362 24.1214 12.6242 25.2791 12.6242H27.6181ZM38.2901 9.61304V27.6799H34.2566V6.69992H37.996L38.2901 9.61304ZM47.8838 14.1088V14.4028C47.8838 15.5046 47.7531 16.527 47.4916 17.47C47.2395 18.413 46.866 19.2347 46.3712 19.9349C45.8763 20.6259 45.2601 21.1674 44.5225 21.5595C43.7942 21.9424 42.9539 22.1338 42.0015 22.1338C41.0772 22.1338 40.2742 21.947 39.5926 21.5736C38.911 21.2001 38.3368 20.6772 37.87 20.005C37.4125 19.3234 37.0436 18.5344 36.7636 17.638C36.4834 16.7417 36.2686 15.78 36.1193 14.753V13.9827C36.2686 12.8809 36.4834 11.8726 36.7636 10.9575C37.0436 10.0332 37.4125 9.23491 37.87 8.56263C38.3368 7.881 38.9063 7.35351 39.5786 6.98002C40.2602 6.60655 41.0585 6.41981 41.9735 6.41981C42.9352 6.41981 43.7802 6.60188 44.5085 6.96602C45.2461 7.33016 45.8623 7.853 46.3572 8.53463C46.8614 9.21619 47.2395 10.0285 47.4916 10.9715C47.7531 11.9146 47.8838 12.9603 47.8838 14.1088ZM43.8362 14.4028V14.1088C43.8362 13.4645 43.7802 12.8716 43.6682 12.3301C43.5654 11.7792 43.3974 11.2983 43.1639 10.8875C42.9399 10.4767 42.6411 10.1592 42.2676 9.93518C41.9035 9.70176 41.46 9.58504 40.9371 9.58504C40.3862 9.58504 39.9147 9.67369 39.5226 9.85111C39.1397 10.0285 38.827 10.2852 38.5842 10.6214C38.3415 10.9575 38.1594 11.359 38.038 11.8259C37.9166 12.2927 37.842 12.8203 37.8139 13.4085V15.3552C37.8606 16.0461 37.9913 16.6671 38.2061 17.2179C38.4208 17.7595 38.7523 18.189 39.2004 18.5064C39.6487 18.8239 40.2369 18.9826 40.9651 18.9826C41.4973 18.9826 41.9455 18.8659 42.3096 18.6325C42.6738 18.3897 42.9679 18.0583 43.1919 17.638C43.4254 17.2179 43.5888 16.7324 43.6822 16.1815C43.7849 15.6307 43.8362 15.0377 43.8362 14.4028ZM57.3653 22.1338C56.1889 22.1338 55.1339 21.947 54.2002 21.5736C53.2665 21.1908 52.4729 20.6632 51.8193 19.991C51.175 19.3187 50.6802 18.5391 50.3347 17.6521C49.9893 16.7558 49.8165 15.8034 49.8165 14.795V14.2348C49.8165 13.0863 49.9799 12.0359 50.3067 11.0836C50.6335 10.1312 51.1003 9.30491 51.7072 8.60463C52.3234 7.90436 53.0704 7.36751 53.9481 6.99402C54.8257 6.61121 55.8154 6.41981 56.9172 6.41981C57.991 6.41981 58.9433 6.59721 59.7743 6.95202C60.6053 7.3068 61.3008 7.811 61.8611 8.46456C62.4306 9.11819 62.8601 9.90247 63.1496 10.8175C63.439 11.7232 63.5837 12.7316 63.5837 13.8426V15.5233H51.5392V12.8343H59.6202V12.5261C59.6202 11.9659 59.5175 11.4664 59.3121 11.0276C59.116 10.5794 58.8172 10.2246 58.4158 9.96318C58.0143 9.70175 57.5008 9.57097 56.8752 9.57097C56.343 9.57097 55.8855 9.68769 55.5027 9.92111C55.1199 10.1545 54.8071 10.4814 54.5643 10.9015C54.3309 11.3217 54.1535 11.8165 54.0321 12.3861C53.9201 12.9463 53.864 13.5625 53.864 14.2348V14.795C53.864 15.4019 53.948 15.9621 54.1161 16.4756C54.2935 16.9892 54.541 17.4327 54.8584 17.8061C55.1852 18.1796 55.5774 18.469 56.0349 18.6745C56.5017 18.8799 57.0293 18.9826 57.6175 18.9826C58.3458 18.9826 59.0227 18.8425 59.6482 18.5625C60.2831 18.273 60.8294 17.8388 61.2868 17.2599L63.2476 19.3887C62.9302 19.8462 62.496 20.2851 61.9451 20.7053C61.4036 21.1254 60.75 21.4709 59.9844 21.7416C59.2187 22.0031 58.3458 22.1338 57.3653 22.1338ZM69.9145 10.0052V21.8537H65.8806V6.69992H69.6761L69.9145 10.0052ZM74.4798 6.60188L74.4102 10.3413C74.2135 10.3133 73.9758 10.29 73.6958 10.2712C73.4247 10.2432 73.1775 10.2292 72.9535 10.2292C72.3839 10.2292 71.8888 10.304 71.4688 10.4533C71.0577 10.5934 70.7121 10.8035 70.4321 11.0836C70.1617 11.3637 69.9561 11.7045 69.8161 12.106C69.6857 12.5075 69.6106 12.965 69.5921 13.4785L68.7794 13.2264C68.7794 12.246 68.8778 11.345 69.0738 10.5234C69.2698 9.6924 69.5546 8.96877 69.9281 8.35256C70.3112 7.73629 70.7777 7.26015 71.3288 6.92402C71.8792 6.58787 72.5096 6.41981 73.2192 6.41981C73.4438 6.41981 73.6719 6.43848 73.9055 6.47583C74.1391 6.50384 74.3303 6.54586 74.4798 6.60188ZM82.3649 18.9826C82.86 18.9826 83.2985 18.8892 83.6816 18.7025C84.064 18.5064 84.3632 18.2356 84.5776 17.8902C84.8016 17.5354 84.9184 17.1199 84.9279 16.6437H88.7236C88.7141 17.7081 88.4293 18.6558 87.8693 19.4868C87.3086 20.3084 86.5574 20.9573 85.6143 21.4335C84.6712 21.9004 83.616 22.1338 82.4489 22.1338C81.2722 22.1338 80.2451 21.9377 79.3675 21.5455C78.4995 21.1534 77.7756 20.6119 77.1972 19.9209C76.6181 19.2207 76.1837 18.4084 75.8942 17.484C75.6053 16.5504 75.4605 15.5513 75.4605 14.4869V14.0808C75.4605 13.007 75.6053 12.0079 75.8942 11.0836C76.1837 10.1499 76.6181 9.33762 77.1972 8.64663C77.7756 7.94636 78.4995 7.40016 79.3675 7.00802C80.2362 6.61588 81.2538 6.41981 82.4209 6.41981C83.6625 6.41981 84.7504 6.6579 85.6839 7.13409C86.6271 7.61029 87.3646 8.29185 87.8973 9.17884C88.4389 10.0565 88.7141 11.0976 88.7236 12.3021H84.9279C84.9184 11.7979 84.8111 11.3404 84.6056 10.9295C84.4096 10.5187 84.12 10.1919 83.7376 9.94918C83.364 9.69704 82.9017 9.57097 82.3506 9.57097C81.7626 9.57097 81.2818 9.69704 80.9082 9.94918C80.5347 10.1919 80.2451 10.528 80.0402 10.9575C79.8347 11.3777 79.6899 11.8586 79.6059 12.4001C79.5314 12.9323 79.4939 13.4925 79.4939 14.0808V14.4869C79.4939 15.0751 79.5314 15.64 79.6059 16.1815C79.6803 16.7231 79.8203 17.2039 80.0259 17.624C80.241 18.0443 80.5347 18.3757 80.9082 18.6185C81.2818 18.8612 81.7673 18.9826 82.3649 18.9826ZM94.9977 0.341492V21.8537H90.9643V0.341492H94.9977ZM94.4233 13.7446H93.317C93.3266 12.6896 93.4666 11.7185 93.737 10.8315C94.0081 9.93518 94.3953 9.16019 94.8993 8.50663C95.404 7.84372 96.0064 7.33016 96.7064 6.96602C97.4159 6.60188 98.1999 6.41981 99.0591 6.41981C99.8062 6.41981 100.483 6.52718 101.09 6.74193C101.706 6.94737 102.234 7.28344 102.672 7.75029C103.121 8.20785 103.466 8.81006 103.709 9.55697C103.952 10.304 104.073 11.2097 104.073 12.2741V21.8537H100.012V12.246C100.012 11.5738 99.9134 11.0462 99.7174 10.6635C99.531 10.2712 99.2551 9.99582 98.8911 9.83711C98.5366 9.66904 98.0975 9.58504 97.5744 9.58504C96.9959 9.58504 96.5008 9.6924 96.0904 9.90711C95.6888 10.1219 95.3665 10.4207 95.124 10.8035C94.8809 11.1769 94.7034 11.6158 94.5914 12.12C94.4793 12.6242 94.4233 13.1657 94.4233 13.7446ZM115.32 18.4364V11.6858C115.32 11.2003 115.24 10.7848 115.081 10.4393C114.923 10.0845 114.676 9.80911 114.339 9.61304C114.012 9.41697 113.588 9.31891 113.065 9.31891C112.617 9.31891 112.229 9.39826 111.902 9.55697C111.575 9.7064 111.323 9.92582 111.146 10.2152C110.969 10.4954 110.88 10.8268 110.88 11.2097H106.846C106.846 10.5654 106.995 9.95382 107.294 9.37491C107.593 8.79606 108.027 8.28721 108.597 7.84836C109.166 7.40016 109.843 7.05002 110.628 6.79795C111.421 6.54585 112.309 6.41981 113.289 6.41981C114.465 6.41981 115.511 6.61588 116.426 7.00802C117.341 7.40016 118.06 7.98843 118.583 8.7727C119.115 9.55697 119.381 10.5374 119.381 11.7138V18.1983C119.381 19.0293 119.432 19.7109 119.535 20.2431C119.638 20.7659 119.787 21.2234 119.983 21.6156V21.8537H115.908C115.712 21.4428 115.562 20.9293 115.46 20.3131C115.366 19.6875 115.32 19.062 115.32 18.4364ZM115.852 12.6242L115.88 14.907H113.625C113.093 14.907 112.63 14.9677 112.238 15.0891C111.846 15.2105 111.524 15.3832 111.272 15.6073C111.02 15.8221 110.833 16.0741 110.712 16.3636C110.6 16.6531 110.544 16.9705 110.544 17.316C110.544 17.6614 110.623 17.9742 110.781 18.2543C110.941 18.5251 111.169 18.7398 111.468 18.8986C111.767 19.048 112.117 19.1227 112.518 19.1227C113.125 19.1227 113.653 19.0012 114.101 18.7585C114.549 18.5157 114.895 18.217 115.137 17.8622C115.389 17.5073 115.52 17.1713 115.529 16.8538L116.594 18.5625C116.444 18.9452 116.239 19.3421 115.978 19.7529C115.726 20.1637 115.404 20.5512 115.012 20.9153C114.619 21.2701 114.148 21.5643 113.597 21.7977C113.046 22.0218 112.393 22.1338 111.636 22.1338C110.674 22.1338 109.801 21.9424 109.017 21.5595C108.242 21.1674 107.626 20.6306 107.168 19.9489C106.72 19.258 106.496 18.4737 106.496 17.596C106.496 16.8024 106.646 16.0975 106.944 15.4812C107.243 14.865 107.682 14.3468 108.261 13.9267C108.849 13.4972 109.582 13.1751 110.46 12.9603C111.337 12.7362 112.355 12.6242 113.513 12.6242H115.852ZM126.748 6.69992V21.8537H122.7V6.69992H126.748ZM122.448 2.75041C122.448 2.16219 122.653 1.67667 123.065 1.29385C123.475 0.911039 124.026 0.719635 124.717 0.719635C125.399 0.719635 125.945 0.911039 126.356 1.29385C126.776 1.67667 126.986 2.16219 126.986 2.75041C126.986 3.33863 126.776 3.82415 126.356 4.20697C125.945 4.58977 125.399 4.78119 124.717 4.78119C124.026 4.78119 123.475 4.58977 123.065 4.20697C122.653 3.82415 122.448 3.33863 122.448 2.75041ZM134.03 9.93518V21.8537H129.997V6.69992H133.778L134.03 9.93518ZM133.442 13.7446H132.35C132.35 12.6242 132.494 11.6158 132.784 10.7195C133.074 9.81376 133.48 9.04348 134.002 8.40856C134.525 7.76429 135.146 7.27416 135.865 6.93802C136.593 6.59254 137.406 6.41981 138.302 6.41981C139.012 6.41981 139.66 6.52251 140.249 6.72792C140.837 6.93331 141.341 7.26016 141.762 7.70829C142.191 8.1565 142.518 8.74934 142.742 9.48697C142.975 10.2246 143.092 11.1256 143.092 12.19V21.8537H139.031V12.176C139.031 11.5037 138.937 10.9809 138.75 10.6074C138.564 10.234 138.288 9.97247 137.924 9.82311C137.569 9.6644 137.13 9.58504 136.608 9.58504C136.066 9.58504 135.594 9.6924 135.193 9.90711C134.801 10.1219 134.474 10.4207 134.213 10.8035C133.961 11.1769 133.769 11.6158 133.638 12.12C133.508 12.6242 133.442 13.1657 133.442 13.7446Z" fill="white"/>
</g>
<defs>
<clipPath id="clip0_4552_5607">
<rect width="142.732" height="28" fill="white" transform="translate(0.384766)"/>
</clipPath>
</defs>
</svg>
