<svg width="163" height="24" viewBox="0 0 163 24" fill="none" xmlns="http://www.w3.org/2000/svg">
<g clip-path="url(#clip0_4552_5449)">
<path d="M11.3343 17.878C9.22451 19.9634 7.17607 21.9756 5.12764 24C-1.2998 18.122 -1.66779 6.39024 5.26256 0C7.29874 2.02439 9.33491 4.04878 11.4569 6.15854C10.0586 7.68293 9.11412 9.64634 9.07732 11.9756C9.04052 14.2683 9.89915 16.2317 11.322 17.878H11.3343Z" fill="white"/>
<path d="M23.8082 6.07317C25.8934 4.02439 27.9418 2.01219 29.9903 0C36.4423 5.67073 37.1046 17.4146 30.2601 23.9512C28.2117 21.939 26.1755 19.9268 24.0535 17.8415C27.0709 13.9634 27.0342 9.93902 23.7959 6.06098L23.8082 6.07317Z" fill="white"/>
<path d="M46.1074 3.95126H48.6833V6.8537C49.7137 5.03663 51.0997 3.76834 54.0191 3.67078V6.07322C50.7563 6.23175 48.6833 7.24395 48.6833 11.2318V20.0976H46.1074V3.95126Z" fill="white"/>
<path d="M55.1719 12.1952V11.9513C55.1719 7.07323 58.312 3.68298 62.7769 3.68298C66.5303 3.68298 70.0752 5.93908 70.0752 11.7074V12.5366H57.8459C57.9685 16.2074 59.7349 18.244 63.059 18.244C65.5735 18.244 67.0332 17.3171 67.3766 15.4391H69.9525C69.3883 18.683 66.6897 20.3781 63.0222 20.3781C58.4224 20.3781 55.1719 17.1708 55.1719 12.1952ZM67.438 10.4635C67.1927 7.1342 65.4509 5.80493 62.7769 5.80493C60.1028 5.80493 58.3733 7.59762 57.9317 10.4635H67.438Z" fill="white"/>
<path d="M71.915 15.1342H74.4296C74.6136 17.0488 75.6439 18.2562 78.2443 18.2562C80.6976 18.2562 81.7893 17.4269 81.7893 15.6952C81.7893 13.9635 80.5136 13.4391 77.999 12.9757C73.7795 12.2074 72.3444 11.0366 72.3444 8.21957C72.3444 5.21957 75.3005 3.68298 77.8396 3.68298C80.7589 3.68298 83.2734 4.85372 83.7028 8.34152H81.225C80.857 6.58542 79.8635 5.80493 77.815 5.80493C75.9506 5.80493 74.7362 6.73176 74.7362 8.12201C74.7362 9.51225 75.5458 10.1586 78.5265 10.683C81.8751 11.3049 84.2425 12.0366 84.2425 15.4635C84.2425 18.4025 82.2186 20.3781 78.2811 20.3781C74.3437 20.3781 72.0745 18.4269 71.915 15.1342Z" fill="white"/>
<path d="M86.0088 12.1708V11.9269C86.0088 7.08542 89.3942 3.68298 93.994 3.68298C98.5938 3.68298 101.979 7.04884 101.979 11.8903V12.1342C101.979 17.0123 98.5938 20.3781 93.9695 20.3781C89.3452 20.3781 86.0211 16.8903 86.0211 12.1708H86.0088ZM99.293 12.1708V11.9513C99.293 8.21957 97.2077 5.80493 93.9818 5.80493C90.7558 5.80493 88.6705 8.20737 88.6705 11.9147V12.1586C88.6705 15.8293 90.6944 18.244 93.9818 18.244C97.2691 18.244 99.293 15.8049 99.293 12.1586V12.1708Z" fill="white"/>
<path d="M105.059 3.95126H107.634V6.51224C108.383 5.00004 110.186 3.67078 112.848 3.67078C116.196 3.67078 118.564 5.48785 118.564 10.183V20.0976H115.988V10.0122C115.988 7.17078 114.773 5.90248 112.173 5.90248C109.781 5.90248 107.634 7.41468 107.634 10.3171V20.0976H105.059V3.95126Z" fill="white"/>
<path d="M121.36 15.622C121.36 11.8903 125.334 10.622 129.492 10.622H131.823V9.45126C131.823 6.89029 130.829 5.80492 128.339 5.80492C126.107 5.80492 124.868 6.73175 124.61 8.70736H122.035C122.378 5.03663 125.322 3.67078 128.462 3.67078C131.602 3.67078 134.387 4.93907 134.387 9.43907V20.0854H131.811V18.0488C130.596 19.561 129.137 20.3659 126.745 20.3659C123.727 20.3659 121.348 18.9147 121.348 15.6098L121.36 15.622ZM131.823 14.4513V12.4391H129.59C126.328 12.4391 123.936 13.2439 123.936 15.622C123.936 17.2927 124.745 18.3415 127.015 18.3415C129.75 18.3415 131.823 16.9513 131.823 14.4513Z" fill="white"/>
<path d="M139.097 16.061V6.12198H136.767V3.96344H139.097V0.280518H141.673V3.95125H145.463V6.10979H141.673V15.8049C141.673 17.3781 142.384 18.1464 143.697 18.1464C144.507 18.1464 145.12 18.0244 145.684 17.8049V19.9634C145.157 20.1464 144.531 20.3049 143.476 20.3049C140.532 20.3049 139.097 18.5732 139.097 16.0488V16.061Z" fill="white"/>
<path d="M147.413 12.1952V11.9513C147.413 7.07323 150.553 3.68298 155.018 3.68298C158.772 3.68298 162.316 5.93908 162.316 11.7074V12.5366H150.087C150.21 16.2074 151.976 18.244 155.3 18.244C157.815 18.244 159.274 17.3171 159.618 15.4391H162.194C161.63 18.683 158.931 20.3781 155.263 20.3781C150.664 20.3781 147.413 17.1708 147.413 12.1952ZM159.679 10.4635C159.434 7.1342 157.692 5.80493 155.018 5.80493C152.344 5.80493 150.615 7.59762 150.173 10.4635H159.679Z" fill="white"/>
</g>
<defs>
<clipPath id="clip0_4552_5449">
<rect width="162.133" height="24" fill="white" transform="translate(0.183594)"/>
</clipPath>
</defs>
</svg>
