<svg width="161" height="28" viewBox="0 0 161 28" fill="none" xmlns="http://www.w3.org/2000/svg">
<path d="M0.460938 1.80652H8.67987C14.3513 1.80652 18.3262 4.11798 18.3262 9.39133V9.53692C18.3262 13.5832 15.798 15.6475 12.5835 16.471L19.8415 27.6355H14.6396L7.8728 17.1958H4.81747V27.6273H0.460938V1.80652ZM8.67987 13.7643C11.8972 13.7643 13.5936 12.3918 13.5936 9.64662V9.50395C13.5936 6.54193 11.7517 5.52893 8.67987 5.52893H4.81747V13.7643H8.67987Z" fill="white"/>
<path d="M20.248 18.392V18.1175C20.248 12.2648 24.2559 8.36401 29.6392 8.36401C34.3361 8.36401 38.5609 11.1448 38.5609 17.9006V19.1633H24.7282C24.8708 22.732 26.6772 24.7635 29.9275 24.7635C32.5628 24.7635 33.938 23.7149 34.262 21.8729H38.4895C37.8746 25.8285 34.6601 28 29.8341 28C24.2559 28 20.248 24.3462 20.248 18.392ZM34.2262 16.2179C34.0094 12.9676 32.3486 11.5237 29.6392 11.5237C27.0011 11.5237 25.2333 13.2916 24.7968 16.2179H34.2262Z" fill="white"/>
<path d="M39.0742 8.74042H43.7684L48.7097 23.1551L53.5878 8.74042H57.8867L51.0595 27.6351H45.9728L39.0742 8.74042Z" fill="white"/>
<path d="M58.0762 18.392V18.1175C58.0762 12.2648 62.0895 8.36401 67.47 8.36401C72.167 8.36401 76.3917 11.1448 76.3917 17.9006V19.1633H62.5562C62.7018 22.732 64.508 24.7635 67.772 24.7635C70.41 24.7635 71.7827 23.7149 72.1065 21.8729H76.3341C75.7054 25.8285 72.4909 28 67.6484 28C62.0895 28 58.0762 24.3462 58.0762 18.392ZM72.0598 16.2233C71.8348 12.9676 70.1877 11.5291 67.47 11.5291C64.832 11.5291 63.0614 13.2971 62.6304 16.2233H72.0598Z" fill="white"/>
<path d="M79.3262 0H83.6937V27.6353H79.3262V0Z" fill="white"/>
<path d="M86.5488 22.3977C86.5488 17.989 90.812 16.3996 96.2309 16.3996H98.5807V15.425C98.5807 12.8967 97.7133 11.6312 95.1465 11.6312C92.8708 11.6312 91.7508 12.7294 91.5339 14.5933H87.3092C87.6689 10.2011 91.1716 8.34534 95.4018 8.34534C99.6321 8.34534 102.951 10.0775 102.951 15.2438V27.6354H98.6494V25.324C97.4222 26.9491 95.7643 27.9978 92.8708 27.9978C89.4037 28.0006 86.5488 26.3342 86.5488 22.3977ZM98.5807 21.0251V19.1447H96.3379C93.0163 19.1447 90.886 19.9052 90.886 22.2165C90.886 23.806 91.7508 24.8518 93.9195 24.8518C96.5932 24.8518 98.5807 23.4436 98.5807 21.0251Z" fill="white"/>
<path d="M107.614 22.3593V12.0294H105.086V8.73519H107.614V4.58734H111.985V8.74066H116.141V12.0348H111.985V21.9613C111.985 23.6084 112.781 24.3826 114.153 24.3826C114.881 24.4074 115.605 24.2841 116.283 24.0201V27.4872C115.332 27.8202 114.329 27.9792 113.321 27.9567C109.566 27.9594 107.614 25.9363 107.614 22.3593Z" fill="white"/>
<path d="M117.875 18.392V18.1175C117.875 12.2648 122.028 8.36401 127.593 8.36401C133.158 8.36401 137.274 12.2292 137.274 18.0077V18.2822C137.274 24.1568 133.119 28 127.56 28C122.001 28 117.875 24.1293 117.875 18.392ZM132.795 18.3206V18.0626C132.795 14.1617 130.846 11.7763 127.593 11.7763C124.34 11.7763 122.344 14.1234 122.344 18.0242V18.3151C122.344 22.1803 124.266 24.5987 127.582 24.5987C130.854 24.5987 132.795 22.1803 132.795 18.3151V18.3206Z" fill="white"/>
<path d="M140.137 8.74059H144.507V12.2819C145.698 9.89638 147.467 8.4881 150.649 8.43872V12.5344C146.805 12.5702 144.507 13.7999 144.507 17.8079V27.6354H140.137V8.74059Z" fill="white"/>
<path d="M154.675 8.8889H153.707V8.45239H156.177V8.8889H155.219V11.6341H154.67L154.675 8.8889ZM156.749 8.45239H157.508L158.398 10.687L159.268 8.45239H160.04V11.6341H159.49V9.16341L158.474 11.6341H158.286L157.259 9.16341V11.6341H156.754L156.749 8.45239Z" fill="white"/>
</svg>
