<svg width="122" height="32" viewBox="0 0 122 32" fill="none" xmlns="http://www.w3.org/2000/svg">
<g clip-path="url(#clip0_4552_5629)">
<path d="M107.619 8.1905V6.02755H112.71V25.949H107.655V23.8501C106.831 24.4682 106.111 25.1204 105.293 25.6013C102.201 27.4206 97.192 26.6978 94.4037 23.5037C90.459 18.9844 90.6735 12.1126 94.9374 7.91344C97.904 4.99246 102.873 4.54158 106.155 6.91625C106.653 7.27566 107.087 7.72393 107.619 8.1892V8.1905ZM96.6662 15.9667C96.6545 19.2 98.9351 21.644 101.97 21.6544C105.333 21.6662 107.679 19.3699 107.712 16.0347C107.744 12.7948 105.406 10.3705 102.236 10.3587C98.9751 10.3469 96.6765 12.6602 96.6649 15.9667H96.6662Z" fill="white"/>
<path d="M61.4724 26.5397C55.5352 26.5161 50.8295 21.8099 50.8359 15.9C50.8424 10.0555 55.5843 5.24467 61.3457 5.23945C67.2454 5.23422 71.9175 10.0489 71.8891 16.1052C71.862 21.9485 67.2544 26.5632 61.4724 26.541V26.5397ZM56.0727 15.9915C56.0611 19.085 58.3042 21.5328 61.1558 21.5394C64.3886 21.5472 66.7932 19.166 66.8061 15.9458C66.8177 12.8523 64.5152 10.458 61.5176 10.4475C58.392 10.4371 56.0844 12.7856 56.0727 15.9915Z" fill="white"/>
<path d="M92.0072 5.98045C91.4206 7.50955 90.8611 8.98245 90.2926 10.4514C88.4152 15.3067 86.5495 20.1671 84.6488 25.0132C83.6216 27.6349 82.0492 29.8083 79.465 31.0799C77.8796 31.8614 76.2012 32.1202 74.3936 31.9503V27.6976C75.2321 27.5081 76.0449 27.4048 76.8007 27.1369C78.1535 26.6599 78.9327 25.5608 79.434 24.2669C79.5296 24.0225 79.3901 23.6357 79.266 23.3573C77.5592 19.5372 75.8355 15.7249 74.1158 11.91C73.3134 10.1312 72.5123 8.35121 71.7138 6.57118C71.635 6.39867 71.5807 6.21439 71.4941 5.98176C72.9374 5.98176 75.2657 5.9713 77.0062 5.98829L77.7504 7.73696C78.9352 10.5638 80.1059 13.3972 81.2791 16.228C81.5582 16.9024 81.8411 17.5755 82.1965 18.4276C82.6681 17.0841 83.0815 15.9118 83.4924 14.7394C84.4537 11.9949 86.5443 5.98045 86.5443 5.98045C88.2395 5.99221 90.6131 5.98045 92.0072 5.98045Z" fill="white"/>
<path d="M18.6048 5.9844C20.9021 5.9844 23.1568 5.97003 25.4102 6.00401C25.666 6.00793 25.9813 6.21834 26.1609 6.42876C28.3755 9.03345 30.5746 11.6538 32.7686 14.2768C33.2247 14.8218 33.1795 15.2805 32.6187 15.883C30.8654 17.7676 29.1004 19.6417 27.3393 21.5198C24.5574 24.4852 21.7743 27.4506 18.9898 30.416C18.8904 30.5219 18.7792 30.6186 18.6035 30.7859V5.9844H18.6048Z" fill="white"/>
<path d="M14.5367 30.8029C13.1231 29.2986 11.8052 27.9015 10.4924 26.4966C7.24285 23.0189 3.99844 19.5372 0.746269 16.0621C-0.10392 15.1538 -0.12847 14.8728 0.673913 13.9161C2.75804 11.4291 4.84087 8.94069 6.94309 6.46799C7.1369 6.24059 7.46122 5.99227 7.72868 5.98704C9.98207 5.94914 12.2367 5.96482 14.5367 5.96482V30.8029Z" fill="white"/>
<path d="M39.6953 25.9463V6.01443H44.7848V9.34447C45.8598 6.78813 48.1727 5.7073 50.7801 5.55701V11.1519C49.9816 11.2578 49.1624 11.28 48.391 11.4826C46.0381 12.1021 44.7551 13.9357 44.7835 16.3836C44.8184 19.4522 44.7926 22.5222 44.7926 25.5921C44.7926 25.6967 44.7732 25.8025 44.759 25.945H39.6966L39.6953 25.9463Z" fill="white"/>
<path d="M116.391 0H121.409V25.9516H116.391V0Z" fill="white"/>
</g>
<defs>
<clipPath id="clip0_4552_5629">
<rect width="121.319" height="32" fill="white" transform="translate(0.0898438)"/>
</clipPath>
</defs>
</svg>
