<svg width="122" height="32" viewBox="0 0 122 32" fill="none" xmlns="http://www.w3.org/2000/svg">
<g clip-path="url(#clip0_4516_72331)">
<path d="M107.62 8.1905V6.02755H112.711V25.949H107.656V23.8501C106.832 24.4682 106.112 25.1204 105.294 25.6013C102.202 27.4206 97.193 26.6978 94.4047 23.5037C90.46 18.9844 90.6745 12.1126 94.9383 7.91344C97.905 4.99246 102.874 4.54158 106.156 6.91625C106.654 7.27566 107.088 7.72393 107.62 8.1892V8.1905ZM96.6671 15.9667C96.6555 19.2 98.936 21.644 101.971 21.6544C105.334 21.6662 107.68 19.3699 107.713 16.0347C107.745 12.7948 105.407 10.3705 102.237 10.3587C98.9761 10.3469 96.6775 12.6602 96.6659 15.9667H96.6671Z" fill="black"/>
<path d="M61.4724 26.5397C55.5352 26.5161 50.8295 21.8099 50.8359 15.9C50.8424 10.0555 55.5843 5.24467 61.3457 5.23945C67.2454 5.23422 71.9175 10.0489 71.8891 16.1052C71.862 21.9485 67.2544 26.5632 61.4724 26.541V26.5397ZM56.0727 15.9915C56.0611 19.085 58.3042 21.5328 61.1558 21.5394C64.3886 21.5472 66.7932 19.166 66.8061 15.9458C66.8177 12.8523 64.5152 10.458 61.5176 10.4475C58.392 10.4371 56.0844 12.7856 56.0727 15.9915Z" fill="black"/>
<path d="M92.0082 5.98045C91.4216 7.50955 90.8621 8.98245 90.2936 10.4514C88.4162 15.3067 86.5504 20.1671 84.6498 25.0132C83.6226 27.6349 82.0501 29.8083 79.466 31.0799C77.8806 31.8614 76.2022 32.1202 74.3945 31.9503V27.6976C75.2331 27.5081 76.0458 27.4048 76.8017 27.1369C78.1545 26.6599 78.9336 25.5608 79.435 24.2669C79.5306 24.0225 79.391 23.6357 79.267 23.3573C77.5602 19.5372 75.8365 15.7249 74.1167 11.91C73.3144 10.1312 72.5133 8.35121 71.7148 6.57118C71.636 6.39867 71.5817 6.21439 71.4951 5.98176C72.9384 5.98176 75.2667 5.9713 77.0071 5.98829L77.7514 7.73696C78.9362 10.5638 80.1068 13.3972 81.28 16.228C81.5591 16.9024 81.8421 17.5755 82.1974 18.4276C82.669 17.0841 83.0825 15.9118 83.4934 14.7394C84.4547 11.9949 86.5453 5.98045 86.5453 5.98045C88.2405 5.99221 90.614 5.98045 92.0082 5.98045Z" fill="black"/>
<path d="M18.6048 5.9844C20.9021 5.9844 23.1568 5.97003 25.4102 6.00401C25.666 6.00793 25.9813 6.21834 26.1609 6.42876C28.3755 9.03345 30.5746 11.6538 32.7686 14.2768C33.2247 14.8218 33.1795 15.2805 32.6187 15.883C30.8654 17.7676 29.1004 19.6417 27.3393 21.5198C24.5574 24.4852 21.7743 27.4506 18.9898 30.416C18.8904 30.5219 18.7792 30.6186 18.6035 30.7859V5.9844H18.6048Z" fill="black"/>
<path d="M14.5376 30.8029C13.1241 29.2986 11.8062 27.9015 10.4934 26.4966C7.24383 23.0189 3.99941 19.5372 0.747246 16.0621C-0.102944 15.1538 -0.127493 14.8728 0.674889 13.9161C2.75902 11.4291 4.84185 8.94069 6.94407 6.46799C7.13788 6.24059 7.46219 5.99227 7.72965 5.98704C9.98304 5.94914 12.2377 5.96482 14.5376 5.96482V30.8029Z" fill="black"/>
<path d="M39.6973 25.9463V6.01443H44.7868V9.34447C45.8618 6.78813 48.1746 5.7073 50.782 5.55701V11.1519C49.9835 11.2578 49.1643 11.28 48.393 11.4826C46.0401 12.1021 44.7571 13.9357 44.7855 16.3836C44.8204 19.4522 44.7945 22.5222 44.7945 25.5921C44.7945 25.6967 44.7751 25.8025 44.7609 25.945H39.6986L39.6973 25.9463Z" fill="black"/>
<path d="M116.393 0H121.411V25.9516H116.393V0Z" fill="black"/>
</g>
<defs>
<clipPath id="clip0_4516_72331">
<rect width="121.319" height="32" fill="white" transform="translate(0.0908203)"/>
</clipPath>
</defs>
</svg>
