<svg width="54" height="64" viewBox="0 0 54 64" fill="none" xmlns="http://www.w3.org/2000/svg">
<path d="M11.6225 52.8948C10.4917 52.8947 9.39098 52.8731 8.29158 52.9024C7.572 52.9216 7.15464 52.3752 7.16374 51.7517C7.18293 50.4384 7.16882 49.1247 7.17145 47.8112C7.17212 47.4758 7.12071 47.1684 6.8661 46.9149C6.64449 46.6943 6.40002 46.5744 6.08128 46.5761C4.7774 46.5829 3.47345 46.5803 2.16954 46.577C2.00783 46.5765 1.8435 46.5647 1.685 46.5342C1.14716 46.4307 0.831729 46.0533 0.814553 45.5094C0.813591 45.4789 0.813982 45.4483 0.813982 45.4177C0.813949 41.4245 0.814605 37.4312 0.811986 33.4379C0.811856 33.2393 0.843954 33.0549 0.937046 32.8793C1.12396 32.5267 1.417 32.336 1.81168 32.299C1.88243 32.2924 1.95421 32.2961 2.02551 32.2961C4.73521 32.296 7.44493 32.296 10.1546 32.2961C10.2259 32.2961 10.2975 32.2936 10.3685 32.2986C10.9278 32.338 11.3348 32.7385 11.3813 33.297C11.3897 33.3983 11.3879 33.5006 11.3879 33.6024C11.3884 34.5599 11.4025 35.5178 11.3828 36.475C11.3717 37.0182 11.7755 37.5567 12.4765 37.5922C12.5781 37.5973 12.6802 37.5935 12.782 37.5935C16.3475 37.5935 19.9129 37.5956 23.4783 37.5908C23.8764 37.5903 24.192 37.7241 24.4225 38.0489C24.5647 38.2493 24.592 38.4788 24.5917 38.7177C24.5898 40.1642 24.5908 41.6108 24.5909 43.0573C24.5909 43.149 24.5921 43.2407 24.5912 43.3323C24.5861 43.8581 24.9956 44.4676 25.7131 44.4587C25.8047 44.4575 25.8964 44.4595 25.9881 44.4595C29.4822 44.4595 32.9763 44.4596 36.4704 44.4593C36.5926 44.4592 36.7153 44.462 36.8368 44.4518C37.3972 44.4044 37.793 43.9998 37.8316 43.4383C37.8365 43.3673 37.834 43.2957 37.834 43.2244C37.8341 39.6285 37.8332 36.0325 37.8358 32.4365C37.836 32.1318 37.7853 31.8536 37.5814 31.6117C37.386 31.3798 37.1462 31.2502 36.844 31.2385C36.7321 31.2342 36.6199 31.2369 36.5078 31.2369C30.3855 31.2369 24.2632 31.2369 18.1409 31.2367C18.0085 31.2367 17.876 31.237 17.7437 31.2321C17.0467 31.2067 16.6733 30.6506 16.6814 30.1259C16.6969 29.1278 16.6887 28.1293 16.6823 27.1311C16.6813 26.9711 16.6615 26.8038 16.6111 26.653C16.471 26.234 16.0813 25.9581 15.6382 25.9409C15.5263 25.9365 15.4141 25.9394 15.3021 25.9394C10.8912 25.9394 6.48024 25.9407 2.06933 25.9353C1.86012 25.935 1.63588 25.9129 1.44494 25.8358C1.04006 25.6722 0.847618 25.3352 0.814777 24.9048C0.811684 24.8643 0.813919 24.8234 0.813919 24.7826C0.813904 19.0372 0.81509 13.2918 0.811524 7.54642C0.811255 7.11482 0.957039 6.77151 1.32342 6.53672C1.52724 6.40611 1.75974 6.37917 1.99756 6.37935C3.32186 6.38035 4.64617 6.3834 5.97042 6.3755C6.15957 6.37437 6.36639 6.35631 6.53376 6.27868C6.93213 6.09391 7.161 5.77442 7.16072 5.31461C7.1602 4.43869 7.16439 3.56278 7.16606 2.68686C7.16706 2.16738 7.17124 1.64785 7.1663 1.12841C7.16051 0.520361 7.57619 0.052118 8.28661 0.00428669C8.40831 -0.00390737 8.53102 0.00270175 8.65326 0.00270151C19.4402 0.0026803 30.2272 0.00267913 41.0141 0.0026839C42.7044 0.00268461 44.3948 -0.000981012 46.085 0.00770375C46.2829 0.00872035 46.4895 0.0526907 46.6761 0.120617C47.1046 0.276599 47.3115 0.606122 47.3276 1.05796C47.3309 1.14953 47.3287 1.24131 47.3287 1.33299C47.3288 2.57579 47.3273 3.81859 47.3306 5.06138C47.331 5.21293 47.3458 5.36628 47.3722 5.51559C47.4587 6.00651 47.843 6.34495 48.3415 6.37642C48.443 6.38283 48.5452 6.3796 48.647 6.37961C49.9204 6.3798 51.1938 6.37732 52.4671 6.3827C52.6378 6.38342 52.8149 6.40158 52.9777 6.44975C53.3807 6.56894 53.6545 6.93392 53.683 7.35509C53.6878 7.42611 53.6854 7.49766 53.6854 7.56896C53.6855 11.5418 53.6844 15.5147 53.6881 19.4876C53.6883 19.74 53.644 19.9685 53.5058 20.1827C53.2909 20.5159 52.9657 20.6274 52.5965 20.6588C52.5257 20.6648 52.454 20.6624 52.3827 20.6624C49.724 20.6625 47.0652 20.6632 44.4064 20.6607C44.2549 20.6606 44.1012 20.6463 43.9524 20.6181C43.525 20.5372 43.2253 20.2301 43.1546 19.8017C43.1283 19.6421 43.1137 19.4786 43.1131 19.3168C43.1092 18.3694 43.0884 17.4213 43.1194 16.4749C43.1385 15.8909 42.6757 15.3655 42.0348 15.3658C41.9329 15.3658 41.8311 15.3651 41.7292 15.3651C38.2453 15.3651 34.7614 15.3651 31.2775 15.365C31.1654 15.365 31.0532 15.3682 30.9413 15.3632C30.3371 15.3362 29.9122 14.9049 29.9103 14.2994C29.9057 12.8325 29.9088 11.3656 29.9083 9.89868C29.9083 9.77648 29.911 9.65385 29.9024 9.53213C29.8576 8.89968 29.4404 8.50099 28.8051 8.50056C25.1174 8.498 21.4298 8.50552 17.7421 8.49194C17.2425 8.4901 16.6713 8.95145 16.6776 9.58884C16.699 11.7381 16.6856 13.8876 16.6856 16.0371C16.6855 17.5447 16.7037 19.0527 16.6767 20.5599C16.6659 21.1672 17.0889 21.732 17.8402 21.7241C18.8588 21.7133 19.8776 21.7216 20.8963 21.7217C23.4115 21.7217 25.9268 21.7216 28.442 21.7216C31.1819 21.7216 33.9218 21.72 36.6616 21.7256C36.8403 21.726 37.0314 21.7509 37.1952 21.8174C37.6745 22.0119 37.8305 22.4194 37.8326 22.9008C37.8371 23.9093 37.8381 24.9178 37.8327 25.9263C37.8304 26.3578 38.0246 26.6745 38.3898 26.8715C38.5531 26.9596 38.7555 26.981 38.9434 27.015C39.0519 27.0346 39.1668 27.0191 39.2789 27.0191C43.6796 27.0192 48.0803 27.0185 52.4811 27.0218C52.6619 27.0219 52.8543 27.0266 53.0211 27.086C53.45 27.2387 53.6528 27.5747 53.6841 28.0203C53.6891 28.0913 53.6855 28.1629 53.6855 28.2342C53.6855 33.9389 53.686 39.6435 53.6833 45.3482C53.6832 45.5086 53.6762 45.6774 53.6275 45.8278C53.4612 46.3413 53.0653 46.5479 52.5542 46.5764C52.4222 46.5837 52.2894 46.5788 52.157 46.5788C50.9244 46.5789 49.6914 46.5967 48.4594 46.571C47.9098 46.5595 47.3746 46.9833 47.3466 47.5587C47.3406 47.6805 47.3296 47.8023 47.3295 47.9241C47.3282 49.2179 47.3244 50.5116 47.3308 51.8053C47.333 52.258 47.1575 52.5959 46.749 52.7943C46.6337 52.8503 46.4984 52.8741 46.3694 52.8901C46.2389 52.9063 46.105 52.8947 45.9726 52.8947C34.5327 52.8948 23.0929 52.8948 11.6225 52.8948Z" fill="black"/>
<path d="M27.5198 62.1144C26.6788 61.5206 26.4807 60.675 26.5107 59.7379C26.5248 59.2946 26.6399 58.8772 26.8571 58.4859C27.4328 57.4484 28.8533 57.152 29.7124 57.9011C29.8473 58.0186 29.9549 58.1673 30.1065 58.3365C30.1532 58.0238 30.1261 57.7436 30.1308 57.4658C30.1359 57.1708 30.132 56.8756 30.132 56.5805C30.132 56.2986 30.132 56.0167 30.132 55.7106C30.4925 55.7106 30.8099 55.7106 31.1498 55.7106C31.1498 57.886 31.1498 60.0374 31.1498 62.2164C30.8193 62.2674 30.5016 62.2529 30.1549 62.2278C30.1412 62.0045 30.1286 61.7985 30.116 61.5924C29.7751 62.0655 29.3301 62.3397 28.7674 62.4008C28.3318 62.448 27.9179 62.3536 27.5198 62.1144ZM28.9421 61.5536C29.462 61.5311 29.7903 61.2432 29.976 60.7815C30.1897 60.2503 30.1815 59.7057 30.0077 59.1666C29.8513 58.6811 29.4413 58.3602 28.9797 58.3361C28.4335 58.3076 28.0431 58.5383 27.8202 59.0548C27.5609 59.6557 27.5782 60.2682 27.8353 60.8634C28.0302 61.3144 28.3841 61.5593 28.9421 61.5536Z" fill="#010201"/>
<path d="M11.8705 58.9448C12.2433 57.8786 13.3027 57.3973 14.3425 57.5034C15.5965 57.6313 16.3352 58.6048 16.3971 59.7334C16.4225 60.197 16.3635 60.6468 16.1798 61.0753C15.9009 61.7262 15.4151 62.1459 14.7294 62.3142C13.8057 62.5411 12.9649 62.387 12.3013 61.6657C12.1081 61.4557 11.9667 61.1784 11.8649 60.9081C11.624 60.2683 11.6469 59.6146 11.8705 58.9448ZM14.2439 61.5481C14.7278 61.462 15.0178 61.1498 15.1571 60.7058C15.3187 60.1909 15.3126 59.6636 15.1482 59.1469C15.07 58.9011 14.9331 58.6881 14.7146 58.5359C14.01 58.0452 13.1017 58.4372 12.9075 59.3148C12.8136 59.7392 12.8118 60.1637 12.9196 60.5833C13.0341 61.0285 13.2522 61.3982 13.7401 61.5134C13.8858 61.5477 14.0415 61.5398 14.2439 61.5481Z" fill="#010201"/>
<path d="M39.8662 58.0674C40.1982 58.9343 40.5219 59.7788 40.873 60.6949C40.9446 60.546 40.9924 60.4626 41.0262 60.374C41.3343 59.5656 41.64 58.7563 41.9463 57.9472C42.0612 57.6439 42.0611 57.6426 42.3803 57.6415C42.5942 57.6407 42.8081 57.6433 43.0219 57.6467C43.0512 57.6472 43.0803 57.6613 43.1496 57.6797C43.1103 57.7945 43.0775 57.9066 43.0342 58.0147C42.565 59.1864 42.0942 60.3575 41.6238 61.5288C41.3621 62.1804 41.1009 62.8323 40.8383 63.4836C40.6761 63.886 40.5105 63.9976 40.0755 63.9989C39.6986 64 39.3217 64.0004 38.9448 63.9982C38.8353 63.9976 38.7259 63.987 38.5928 63.9797C38.5928 63.687 38.5928 63.4179 38.5928 63.1125C39.0095 63.1125 39.4227 63.1125 39.8679 63.1125C40.0157 62.7595 40.1653 62.4279 40.2888 62.087C40.3176 62.0076 40.2715 61.8904 40.2357 61.8002C39.8946 60.9392 39.5478 60.0805 39.2036 59.2208C39.0181 58.7577 38.8341 58.2942 38.6505 57.8305C38.6326 57.7852 38.6221 57.737 38.6001 57.6632C38.9742 57.6632 39.3253 57.6632 39.7051 57.6632C39.7542 57.7859 39.806 57.9154 39.8662 58.0674Z" fill="#010201"/>
<path d="M7.44115 59.6852C7.28625 59.3897 7.2139 59.1078 7.26107 58.787C7.3324 58.3021 7.57228 57.943 8.00989 57.7449C8.83617 57.371 9.66646 57.3555 10.4603 57.8368C10.9131 58.1114 11.0993 58.551 11.1303 59.1009C10.7763 59.1508 10.4376 59.1307 10.1037 59.1158C10.0795 59.0718 10.0588 59.0475 10.0519 59.0198C9.89235 58.3864 9.24048 58.1092 8.66541 58.4313C8.45764 58.5476 8.32375 58.7806 8.3487 58.9822C8.37888 59.2263 8.52718 59.3932 8.81471 59.4306C9.10544 59.4685 9.40342 59.4481 9.69553 59.4788C9.94561 59.5051 10.2051 59.533 10.4371 59.6214C10.9188 59.805 11.1642 60.183 11.2047 60.6975C11.2772 61.6183 10.6947 62.1311 10.0114 62.3019C9.29877 62.48 8.59958 62.4683 7.93752 62.1098C7.44907 61.8453 7.14136 61.2769 7.20447 60.7431C7.52704 60.695 7.85668 60.7196 8.20455 60.7277C8.24428 60.8417 8.2806 60.9451 8.31635 61.0487C8.39488 61.2761 8.5489 61.4285 8.77786 61.4995C9.13209 61.6092 9.48182 61.6144 9.80588 61.4083C10.0524 61.2514 10.1386 61.0286 10.0818 60.7512C10.0372 60.5331 9.85645 60.3656 9.578 60.3358C9.27593 60.3034 8.97042 60.3016 8.66627 60.2905C8.17554 60.2725 7.74818 60.1261 7.44115 59.6852Z" fill="#010201"/>
<path d="M20.879 62.236C20.5687 62.2411 20.2854 62.2411 19.9707 62.2411C19.955 62.0514 19.9412 61.8857 19.9232 61.669C19.8538 61.7448 19.8112 61.7827 19.7788 61.8279C19.3032 62.4922 18.3076 62.5468 17.7101 62.2026C17.2901 61.9607 17.0996 61.5607 17.0118 61.1072C16.9715 60.8991 16.9539 60.6838 16.9521 60.4716C16.9454 59.6678 16.9494 58.864 16.9494 58.0602C16.9494 57.9403 16.9494 57.8204 16.9494 57.6766C17.3122 57.617 17.6417 57.6421 18.0061 57.6556C18.015 57.7891 18.0293 57.9068 18.0296 58.0246C18.0316 58.8487 18.0291 59.6729 18.0325 60.4971C18.033 60.6282 18.0392 60.7634 18.0708 60.8897C18.2399 61.5656 19.0116 61.7979 19.5362 61.3345C19.7676 61.1301 19.9044 60.8734 19.9222 60.5647C19.9386 60.2806 19.942 59.9956 19.9435 59.7109C19.9466 59.1513 19.9445 58.5917 19.9445 58.0321C19.9445 57.9222 19.9445 57.8124 19.9445 57.6782C20.2945 57.616 20.6127 57.6398 20.9761 57.6586C20.9815 57.8517 20.99 58.0296 20.9908 58.2075C20.9958 59.428 21.0019 60.6486 20.9987 61.8691C20.9984 61.9898 20.9384 62.1103 20.879 62.236Z" fill="#010201"/>
<path d="M25.7523 60.2189C25.7523 60.898 25.7523 61.5466 25.7523 62.2206C25.3948 62.2206 25.0772 62.2206 24.7324 62.2206C24.725 62.0835 24.7133 61.9645 24.713 61.8454C24.7113 61.0721 24.715 60.2988 24.7095 59.5255C24.7083 59.3541 24.6974 59.1779 24.6565 59.0124C24.4879 58.3293 23.6967 58.0959 23.165 58.5666C22.8496 58.8458 22.7648 59.2202 22.7601 59.6153C22.7513 60.358 22.7581 61.1009 22.7563 61.8437C22.756 61.9628 22.7444 62.0819 22.7369 62.2229C22.3936 62.2229 22.0757 62.2229 21.7344 62.2229C21.7344 60.7003 21.7344 59.2009 21.7344 57.673C22.0641 57.6176 22.3823 57.6386 22.7323 57.6582C22.7455 57.8589 22.7576 58.0444 22.7709 58.2473C22.8119 58.223 22.8457 58.215 22.8572 58.1945C23.2238 57.5422 24.2172 57.2738 24.9601 57.6626C25.3489 57.8661 25.5623 58.2051 25.6703 58.6097C25.7271 58.8228 25.7398 59.0505 25.7491 59.2726C25.7618 59.5774 25.7523 59.883 25.7523 60.2189Z" fill="#010201"/>
<path d="M34.5199 60.9896C34.7956 60.6248 35.0576 60.2769 35.3311 59.9139C34.7911 59.1696 34.2628 58.4415 33.6866 57.6473C34.0116 57.6449 34.2603 57.6378 34.5087 57.6423C35.0576 57.6523 34.9194 57.5545 35.2544 58.0532C35.4471 58.3402 35.6326 58.6321 35.824 58.92C35.8621 58.9774 35.9123 59.0267 35.9793 59.1063C36.052 59.0105 36.1147 58.9355 36.1692 58.8549C36.397 58.5181 36.628 58.1831 36.846 57.84C36.938 57.6953 37.0465 57.6324 37.2197 57.6384C37.5436 57.6496 37.8681 57.6416 38.2013 57.6416C38.2212 57.7938 38.1302 57.8698 38.0685 57.9536C37.6645 58.502 37.2564 59.0475 36.8516 59.5954C36.7804 59.6918 36.7187 59.7953 36.6456 59.9062C37.2042 60.6705 37.7535 61.4221 38.3308 62.212C38.0762 62.2694 37.8657 62.2466 37.659 62.2452C36.9034 62.2402 37.1309 62.3297 36.7045 61.7502C36.4584 61.4158 36.2356 61.0643 35.9759 60.6815C35.7586 60.9958 35.5633 61.2768 35.3697 61.5588C35.249 61.7347 35.1285 61.9109 35.0121 62.0897C34.9395 62.201 34.8498 62.2533 34.7098 62.2494C34.3688 62.24 34.0275 62.2463 33.6863 62.2463C33.6756 62.2238 33.665 62.2013 33.6543 62.1788C33.9383 61.7881 34.2222 61.3974 34.5199 60.9896Z" fill="#010201"/>
<path d="M43.5449 61.2902C44.2657 60.3797 44.9715 59.487 45.6753 58.5927C45.6904 58.5736 45.683 58.5367 45.6907 58.465C44.9962 58.4602 44.3114 58.4555 43.6037 58.4506C43.6037 58.1659 43.6037 57.9174 43.6037 57.6715C43.9283 57.57 46.904 57.586 47.1823 57.6993C47.1823 57.8991 47.1965 58.1126 47.1757 58.3225C47.1666 58.4136 47.0962 58.506 47.0353 58.5833C46.3995 59.3903 45.7597 60.194 45.1219 60.9995C45.0414 61.1011 44.9665 61.2071 44.8694 61.3373C45.1688 61.4308 45.4409 61.3794 45.7075 61.3882C45.9718 61.397 46.2367 61.3901 46.5014 61.3901C46.7739 61.3901 47.0464 61.3901 47.3442 61.3901C47.3442 61.6837 47.3442 61.9406 47.3442 62.236C46.0352 62.2598 44.7398 62.2423 43.411 62.2478C43.4247 61.9002 43.2879 61.586 43.5449 61.2902Z" fill="#010201"/>
<path d="M33.03 61.5551C33.0287 61.792 33.0287 62.0012 33.0287 62.2287C32.6538 62.2287 32.3116 62.2287 31.9331 62.2287C31.8802 61.8747 31.9072 61.5288 31.9171 61.1609C32.2917 61.1609 32.6311 61.1609 32.9999 61.1609C33.0111 61.2918 33.0212 61.4097 33.03 61.5551Z" fill="#010201"/>
</svg>
