<svg width="54" height="64" viewBox="0 0 54 64" fill="none" xmlns="http://www.w3.org/2000/svg">
<path d="M11.6235 52.8948C10.4927 52.8947 9.39196 52.8731 8.29256 52.9024C7.57297 52.9216 7.15561 52.3752 7.16472 51.7517C7.1839 50.4384 7.1698 49.1247 7.17243 47.8112C7.1731 47.4758 7.12168 47.1684 6.86708 46.9149C6.64546 46.6943 6.401 46.5744 6.08226 46.5761C4.77837 46.5829 3.47443 46.5803 2.17052 46.577C2.00881 46.5765 1.84447 46.5647 1.68597 46.5342C1.14814 46.4307 0.832706 46.0533 0.81553 45.5094C0.814567 45.4789 0.814959 45.4483 0.814959 45.4177C0.814925 41.4245 0.815582 37.4312 0.812963 33.4379C0.812832 33.2393 0.844931 33.0549 0.938022 32.8793C1.12494 32.5267 1.41798 32.336 1.81266 32.299C1.8834 32.2924 1.95518 32.2961 2.02648 32.2961C4.73619 32.296 7.4459 32.296 10.1556 32.2961C10.2269 32.2961 10.2985 32.2936 10.3695 32.2986C10.9287 32.338 11.3358 32.7385 11.3823 33.297C11.3907 33.3983 11.3889 33.5006 11.3889 33.6024C11.3894 34.5599 11.4035 35.5178 11.3838 36.475C11.3726 37.0182 11.7764 37.5567 12.4774 37.5922C12.5791 37.5973 12.6811 37.5935 12.783 37.5935C16.3484 37.5935 19.9138 37.5956 23.4792 37.5908C23.8774 37.5903 24.193 37.7241 24.4235 38.0489C24.5657 38.2493 24.593 38.4788 24.5927 38.7177C24.5907 40.1642 24.5918 41.6108 24.5919 43.0573C24.5919 43.149 24.5931 43.2407 24.5922 43.3323C24.5871 43.8581 24.9966 44.4676 25.714 44.4587C25.8057 44.4575 25.8974 44.4595 25.9891 44.4595C29.4832 44.4595 32.9773 44.4596 36.4714 44.4593C36.5935 44.4592 36.7163 44.462 36.8378 44.4518C37.3982 44.4044 37.794 43.9998 37.8325 43.4383C37.8374 43.3673 37.835 43.2957 37.835 43.2244C37.8351 39.6285 37.8341 36.0325 37.8368 32.4365C37.837 32.1318 37.7862 31.8536 37.5824 31.6117C37.387 31.3798 37.1472 31.2502 36.845 31.2385C36.7331 31.2342 36.6209 31.2369 36.5088 31.2369C30.3865 31.2369 24.2642 31.2369 18.1419 31.2367C18.0095 31.2367 17.877 31.237 17.7447 31.2321C17.0477 31.2067 16.6742 30.6506 16.6824 30.1259C16.6979 29.1278 16.6897 28.1293 16.6833 27.1311C16.6823 26.9711 16.6625 26.8038 16.6121 26.653C16.4719 26.234 16.0823 25.9581 15.6392 25.9409C15.5273 25.9365 15.4151 25.9394 15.3031 25.9394C10.8921 25.9394 6.48122 25.9407 2.0703 25.9353C1.86109 25.935 1.63686 25.9129 1.44592 25.8358C1.04103 25.6722 0.848595 25.3352 0.815754 24.9048C0.812661 24.8643 0.814895 24.8234 0.814895 24.7826C0.814881 19.0372 0.816067 13.2918 0.8125 7.54642C0.812232 7.11482 0.958015 6.77151 1.3244 6.53672C1.52821 6.40611 1.76072 6.37917 1.99854 6.37935C3.32283 6.38035 4.64715 6.3834 5.9714 6.3755C6.16055 6.37437 6.36736 6.35631 6.53474 6.27868C6.93311 6.09391 7.16198 5.77442 7.1617 5.31461C7.16118 4.43869 7.16536 3.56278 7.16704 2.68686C7.16803 2.16738 7.17222 1.64785 7.16727 1.12841C7.16148 0.520361 7.57717 0.052118 8.28759 0.00428669C8.40929 -0.00390737 8.53199 0.00270175 8.65424 0.00270151C19.4412 0.0026803 30.2281 0.00267913 41.0151 0.0026839C42.7054 0.00268461 44.3958 -0.000981012 46.086 0.00770375C46.2839 0.00872035 46.4905 0.0526907 46.6771 0.120617C47.1056 0.276599 47.3125 0.606122 47.3286 1.05796C47.3319 1.14953 47.3297 1.24131 47.3297 1.33299C47.3297 2.57579 47.3283 3.81859 47.3316 5.06138C47.332 5.21293 47.3468 5.36628 47.3731 5.51559C47.4597 6.00651 47.844 6.34495 48.3425 6.37642C48.444 6.38283 48.5461 6.3796 48.648 6.37961C49.9214 6.3798 51.1947 6.37732 52.4681 6.3827C52.6388 6.38342 52.8158 6.40158 52.9787 6.44975C53.3816 6.56894 53.6555 6.93392 53.684 7.35509C53.6888 7.42611 53.6864 7.49766 53.6864 7.56896C53.6865 11.5418 53.6854 15.5147 53.6891 19.4876C53.6893 19.74 53.645 19.9685 53.5068 20.1827C53.2919 20.5159 52.9667 20.6274 52.5975 20.6588C52.5267 20.6648 52.455 20.6624 52.3837 20.6624C49.7249 20.6625 47.0662 20.6632 44.4074 20.6607C44.2559 20.6606 44.1022 20.6463 43.9534 20.6181C43.526 20.5372 43.2262 20.2301 43.1556 19.8017C43.1293 19.6421 43.1147 19.4786 43.114 19.3168C43.1102 18.3694 43.0893 17.4213 43.1203 16.4749C43.1395 15.8909 42.6767 15.3655 42.0358 15.3658C41.9339 15.3658 41.832 15.3651 41.7302 15.3651C38.2463 15.3651 34.7624 15.3651 31.2784 15.365C31.1664 15.365 31.0542 15.3682 30.9423 15.3632C30.338 15.3362 29.9131 14.9049 29.9113 14.2994C29.9067 12.8325 29.9097 11.3656 29.9093 9.89868C29.9092 9.77648 29.9119 9.65385 29.9033 9.53213C29.8586 8.89968 29.4414 8.50099 28.8061 8.50056C25.1184 8.498 21.4307 8.50552 17.7431 8.49194C17.2435 8.4901 16.6722 8.95145 16.6786 9.58884C16.6999 11.7381 16.6866 13.8876 16.6865 16.0371C16.6865 17.5447 16.7047 19.0527 16.6777 20.5599C16.6669 21.1672 17.0899 21.732 17.8412 21.7241C18.8598 21.7133 19.8785 21.7216 20.8972 21.7217C23.4125 21.7217 25.9278 21.7216 28.443 21.7216C31.1829 21.7216 33.9227 21.72 36.6626 21.7256C36.8413 21.726 37.0324 21.7509 37.1962 21.8174C37.6755 22.0119 37.8315 22.4194 37.8336 22.9008C37.8381 23.9093 37.8391 24.9178 37.8337 25.9263C37.8313 26.3578 38.0256 26.6745 38.3908 26.8715C38.554 26.9596 38.7565 26.981 38.9443 27.015C39.0529 27.0346 39.1678 27.0191 39.2799 27.0191C43.6806 27.0192 48.0813 27.0185 52.4821 27.0218C52.6628 27.0219 52.8553 27.0266 53.0221 27.086C53.451 27.2387 53.6537 27.5747 53.6851 28.0203C53.6901 28.0913 53.6865 28.1629 53.6865 28.2342C53.6865 33.9389 53.6869 39.6435 53.6843 45.3482C53.6842 45.5086 53.6772 45.6774 53.6285 45.8278C53.4621 46.3413 53.0662 46.5479 52.5552 46.5764C52.4232 46.5837 52.2904 46.5788 52.158 46.5788C50.9254 46.5789 49.6924 46.5967 48.4603 46.571C47.9107 46.5595 47.3756 46.9833 47.3475 47.5587C47.3416 47.6805 47.3306 47.8023 47.3305 47.9241C47.3292 49.2179 47.3254 50.5116 47.3318 51.8053C47.334 52.258 47.1585 52.5959 46.75 52.7943C46.6347 52.8503 46.4993 52.8741 46.3704 52.8901C46.2399 52.9063 46.106 52.8947 45.9735 52.8947C34.5337 52.8948 23.0939 52.8948 11.6235 52.8948Z" fill="white"/>
<path d="M27.5218 62.1144C26.6807 61.5206 26.4827 60.675 26.5126 59.7379C26.5268 59.2946 26.6419 58.8772 26.859 58.4859C27.4348 57.4484 28.8552 57.152 29.7144 57.9011C29.8492 58.0186 29.9569 58.1673 30.1084 58.3365C30.1552 58.0238 30.1281 57.7436 30.1328 57.4658C30.1378 57.1708 30.1339 56.8756 30.1339 56.5805C30.1339 56.2986 30.1339 56.0167 30.1339 55.7106C30.4945 55.7106 30.8119 55.7106 31.1518 55.7106C31.1518 57.886 31.1518 60.0374 31.1518 62.2164C30.8212 62.2674 30.5036 62.2529 30.1569 62.2278C30.1432 62.0045 30.1305 61.7985 30.1179 61.5924C29.7771 62.0655 29.3321 62.3397 28.7694 62.4008C28.3337 62.448 27.9199 62.3536 27.5218 62.1144ZM28.944 61.5536C29.464 61.5311 29.7922 61.2432 29.978 60.7815C30.1917 60.2503 30.1834 59.7057 30.0097 59.1666C29.8532 58.6811 29.4433 58.3602 28.9817 58.3361C28.4355 58.3076 28.045 58.5383 27.8221 59.0548C27.5628 59.6557 27.5801 60.2682 27.8373 60.8634C28.0321 61.3144 28.3861 61.5593 28.944 61.5536Z" fill="white"/>
<path d="M11.8705 58.9448C12.2433 57.8786 13.3027 57.3973 14.3425 57.5034C15.5965 57.6313 16.3352 58.6048 16.3971 59.7334C16.4225 60.197 16.3635 60.6468 16.1798 61.0753C15.9009 61.7262 15.4151 62.1459 14.7294 62.3142C13.8057 62.5411 12.9649 62.387 12.3013 61.6657C12.1081 61.4557 11.9667 61.1784 11.8649 60.9081C11.624 60.2683 11.6469 59.6146 11.8705 58.9448ZM14.2439 61.5481C14.7278 61.462 15.0178 61.1498 15.1571 60.7058C15.3187 60.1909 15.3126 59.6636 15.1482 59.1469C15.07 58.9011 14.9331 58.6881 14.7146 58.5359C14.01 58.0452 13.1017 58.4372 12.9075 59.3148C12.8136 59.7392 12.8118 60.1637 12.9196 60.5833C13.0341 61.0285 13.2522 61.3982 13.7401 61.5134C13.8858 61.5477 14.0415 61.5398 14.2439 61.5481Z" fill="white"/>
<path d="M39.8672 58.0674C40.1992 58.9343 40.5229 59.7788 40.874 60.6949C40.9456 60.546 40.9934 60.4626 41.0271 60.374C41.3352 59.5656 41.6409 58.7563 41.9473 57.9472C42.0622 57.6439 42.0621 57.6426 42.3813 57.6415C42.5952 57.6407 42.8091 57.6433 43.0229 57.6467C43.0522 57.6472 43.0812 57.6613 43.1505 57.6797C43.1113 57.7945 43.0785 57.9066 43.0352 58.0147C42.566 59.1864 42.0952 60.3575 41.6248 61.5288C41.363 62.1804 41.1018 62.8323 40.8393 63.4836C40.677 63.886 40.5114 63.9976 40.0765 63.9989C39.6996 64 39.3227 64.0004 38.9458 63.9982C38.8363 63.9976 38.7269 63.987 38.5938 63.9797C38.5938 63.687 38.5938 63.4179 38.5938 63.1125C39.0105 63.1125 39.4236 63.1125 39.8689 63.1125C40.0166 62.7595 40.1663 62.4279 40.2898 62.087C40.3185 62.0076 40.2725 61.8904 40.2367 61.8002C39.8956 60.9392 39.5488 60.0805 39.2045 59.2208C39.0191 58.7577 38.8351 58.2942 38.6515 57.8305C38.6336 57.7852 38.623 57.737 38.601 57.6632C38.9752 57.6632 39.3263 57.6632 39.7061 57.6632C39.7552 57.7859 39.807 57.9154 39.8672 58.0674Z" fill="white"/>
<path d="M7.44212 59.6852C7.28723 59.3897 7.21487 59.1078 7.26205 58.787C7.33337 58.3021 7.57326 57.943 8.01086 57.7449C8.83715 57.371 9.66744 57.3555 10.4612 57.8368C10.9141 58.1114 11.1003 58.551 11.1312 59.1009C10.7773 59.1508 10.4386 59.1307 10.1047 59.1158C10.0804 59.0718 10.0598 59.0475 10.0528 59.0198C9.89332 58.3864 9.24146 58.1092 8.66638 58.4313C8.45862 58.5476 8.32472 58.7806 8.34967 58.9822C8.37986 59.2263 8.52816 59.3932 8.81568 59.4306C9.10642 59.4685 9.4044 59.4481 9.69651 59.4788C9.94659 59.5051 10.2061 59.533 10.4381 59.6214C10.9198 59.805 11.1651 60.183 11.2057 60.6975C11.2782 61.6183 10.6957 62.1311 10.0124 62.3019C9.29975 62.48 8.60056 62.4683 7.9385 62.1098C7.45004 61.8453 7.14233 61.2769 7.20544 60.7431C7.52801 60.695 7.85766 60.7196 8.20553 60.7277C8.24526 60.8417 8.28157 60.9451 8.31733 61.0487C8.39585 61.2761 8.54988 61.4285 8.77884 61.4995C9.13307 61.6092 9.4828 61.6144 9.80686 61.4083C10.0534 61.2514 10.1396 61.0286 10.0828 60.7512C10.0382 60.5331 9.85743 60.3656 9.57898 60.3358C9.2769 60.3034 8.9714 60.3016 8.66725 60.2905C8.17652 60.2725 7.74916 60.1261 7.44212 59.6852Z" fill="white"/>
<path d="M20.88 62.236C20.5697 62.2411 20.2864 62.2411 19.9717 62.2411C19.956 62.0514 19.9422 61.8857 19.9242 61.669C19.8548 61.7448 19.8122 61.7827 19.7798 61.8279C19.3041 62.4922 18.3086 62.5468 17.711 62.2026C17.2911 61.9607 17.1006 61.5607 17.0128 61.1072C16.9725 60.8991 16.9549 60.6838 16.9531 60.4716C16.9464 59.6678 16.9504 58.864 16.9504 58.0602C16.9504 57.9403 16.9504 57.8204 16.9504 57.6766C17.3132 57.617 17.6427 57.6421 18.0071 57.6556C18.0159 57.7891 18.0302 57.9068 18.0305 58.0246C18.0326 58.8487 18.0301 59.6729 18.0334 60.4971C18.034 60.6282 18.0402 60.7634 18.0718 60.8897C18.2408 61.5656 19.0125 61.7979 19.5372 61.3345C19.7685 61.1301 19.9053 60.8734 19.9232 60.5647C19.9396 60.2806 19.9429 59.9956 19.9445 59.7109C19.9476 59.1513 19.9455 58.5917 19.9455 58.0321C19.9455 57.9222 19.9455 57.8124 19.9455 57.6782C20.2955 57.616 20.6137 57.6398 20.9771 57.6586C20.9825 57.8517 20.991 58.0296 20.9918 58.2075C20.9968 59.428 21.0029 60.6486 20.9997 61.8691C20.9994 61.9898 20.9394 62.1103 20.88 62.236Z" fill="white"/>
<path d="M25.7542 60.2189C25.7542 60.898 25.7542 61.5466 25.7542 62.2206C25.3967 62.2206 25.0792 62.2206 24.7344 62.2206C24.727 62.0835 24.7152 61.9645 24.715 61.8454C24.7132 61.0721 24.717 60.2988 24.7115 59.5255C24.7103 59.3541 24.6993 59.1779 24.6585 59.0124C24.4899 58.3293 23.6986 58.0959 23.1669 58.5666C22.8515 58.8458 22.7668 59.2202 22.7621 59.6153C22.7532 60.358 22.7601 61.1009 22.7583 61.8437C22.758 61.9628 22.7464 62.0819 22.7389 62.2229C22.3956 62.2229 22.0776 62.2229 21.7363 62.2229C21.7363 60.7003 21.7363 59.2009 21.7363 57.673C22.066 57.6176 22.3843 57.6386 22.7343 57.6582C22.7474 57.8589 22.7596 58.0444 22.7728 58.2473C22.8138 58.223 22.8476 58.215 22.8591 58.1945C23.2258 57.5422 24.2192 57.2738 24.9621 57.6626C25.3508 57.8661 25.5643 58.2051 25.6722 58.6097C25.729 58.8228 25.7418 59.0505 25.751 59.2726C25.7637 59.5774 25.7542 59.883 25.7542 60.2189Z" fill="white"/>
<path d="M34.5199 60.9896C34.7956 60.6248 35.0576 60.2769 35.3311 59.9139C34.7911 59.1696 34.2628 58.4415 33.6866 57.6473C34.0116 57.6449 34.2603 57.6378 34.5087 57.6423C35.0576 57.6523 34.9194 57.5545 35.2544 58.0532C35.4471 58.3402 35.6326 58.6321 35.824 58.92C35.8621 58.9774 35.9123 59.0267 35.9793 59.1063C36.052 59.0105 36.1147 58.9355 36.1692 58.8549C36.397 58.5181 36.628 58.1831 36.846 57.84C36.938 57.6953 37.0465 57.6324 37.2197 57.6384C37.5436 57.6496 37.8681 57.6416 38.2013 57.6416C38.2212 57.7938 38.1302 57.8698 38.0685 57.9536C37.6645 58.502 37.2564 59.0475 36.8516 59.5954C36.7804 59.6918 36.7187 59.7953 36.6456 59.9062C37.2042 60.6705 37.7535 61.4221 38.3308 62.212C38.0762 62.2694 37.8657 62.2466 37.659 62.2452C36.9034 62.2402 37.1309 62.3297 36.7045 61.7502C36.4584 61.4158 36.2356 61.0643 35.9759 60.6815C35.7586 60.9958 35.5633 61.2768 35.3697 61.5588C35.249 61.7347 35.1285 61.9109 35.0121 62.0897C34.9395 62.201 34.8498 62.2533 34.7098 62.2494C34.3688 62.24 34.0275 62.2463 33.6863 62.2463C33.6756 62.2238 33.665 62.2013 33.6543 62.1788C33.9383 61.7881 34.2222 61.3974 34.5199 60.9896Z" fill="white"/>
<path d="M43.5469 61.2902C44.2676 60.3797 44.9734 59.487 45.6773 58.5927C45.6924 58.5736 45.6849 58.5367 45.6926 58.465C44.9982 58.4602 44.3134 58.4555 43.6057 58.4506C43.6057 58.1659 43.6057 57.9174 43.6057 57.6715C43.9302 57.57 46.906 57.586 47.1842 57.6993C47.1842 57.8991 47.1984 58.1126 47.1776 58.3225C47.1686 58.4136 47.0981 58.506 47.0372 58.5833C46.4015 59.3903 45.7616 60.194 45.1239 60.9995C45.0434 61.1011 44.9685 61.2071 44.8714 61.3373C45.1708 61.4308 45.4429 61.3794 45.7094 61.3882C45.9738 61.397 46.2387 61.3901 46.5033 61.3901C46.7758 61.3901 47.0483 61.3901 47.3462 61.3901C47.3462 61.6837 47.3462 61.9406 47.3462 62.236C46.0371 62.2598 44.7418 62.2423 43.4129 62.2478C43.4267 61.9002 43.2899 61.586 43.5469 61.2902Z" fill="white"/>
<path d="M33.031 61.5551C33.0297 61.792 33.0297 62.0012 33.0297 62.2287C32.6548 62.2287 32.3126 62.2287 31.9341 62.2287C31.8812 61.8747 31.9081 61.5288 31.9181 61.1609C32.2927 61.1609 32.632 61.1609 33.0008 61.1609C33.0121 61.2918 33.0222 61.4097 33.031 61.5551Z" fill="white"/>
</svg>
