<svg width="129" height="40" viewBox="0 0 129 40" fill="none" xmlns="http://www.w3.org/2000/svg">
<g clip-path="url(#clip0_4516_56232)">
<path d="M20.1638 0C9.16594 0 0.25 8.9157 0.25 19.9135C0.25 30.9119 9.16594 39.8269 20.1638 39.8269C31.1628 39.8269 40.0778 30.9119 40.0778 19.9135C40.0778 8.91641 31.1628 0.000951186 20.1635 0.000951186L20.1638 0ZM29.2961 28.7211C28.9394 29.306 28.1737 29.4915 27.5887 29.1324C22.9132 26.2765 17.0273 25.6297 10.0955 27.2134C9.42752 27.3656 8.76168 26.9471 8.6095 26.2789C8.45659 25.6107 8.87345 24.9448 9.54308 24.7927C17.1288 23.0596 23.6356 23.8058 28.8847 27.0137C29.4697 27.3727 29.6552 28.1361 29.2961 28.7211ZM31.7335 23.2988C31.2841 24.0293 30.3282 24.26 29.5981 23.8106C24.2453 20.5204 16.0858 19.5676 9.75448 21.4894C8.93337 21.7374 8.06613 21.2747 7.81692 20.455C7.56961 19.6339 8.0326 18.7683 8.85228 18.5186C16.0844 16.3242 25.0752 17.3872 31.2223 21.1646C31.9523 21.614 32.183 22.5697 31.7335 23.2988ZM31.9428 17.6526C25.5247 13.8405 14.9356 13.49 8.80782 15.3498C7.82381 15.6482 6.78322 15.0927 6.48502 14.1087C6.18682 13.1242 6.74184 12.0843 7.72656 11.7852C14.7608 9.64978 26.4544 10.0624 33.8437 14.449C34.7307 14.9743 35.0208 16.1174 34.4953 17.0013C33.9721 17.8863 32.826 18.1781 31.9437 17.6526H31.9428ZM54.4288 18.3831C50.9903 17.5632 50.3791 16.9877 50.3791 15.7785C50.3791 14.6361 51.454 13.8673 53.0544 13.8673C54.6048 13.8673 56.141 14.4511 57.7532 15.6529C57.8008 15.6893 57.8626 15.7038 57.922 15.6943C57.9839 15.6853 58.0362 15.6522 58.0719 15.6025L59.7507 13.236C59.8197 13.1385 59.8006 13.0041 59.7079 12.9297C57.7889 11.3904 55.6297 10.6421 53.1043 10.6421C49.3923 10.6421 46.7979 12.87 46.7979 16.0577C46.7979 19.476 49.0356 20.6864 52.9022 21.6207C56.1909 22.3785 56.7473 23.0135 56.7473 24.1482C56.7473 25.4062 55.6249 26.1885 53.8177 26.1885C51.8107 26.1885 50.1723 25.5108 48.3412 23.9271C48.2961 23.8866 48.2342 23.87 48.1772 23.8724C48.1153 23.8771 48.0606 23.9057 48.0226 23.9509L46.1392 26.1909C46.0608 26.286 46.0703 26.4239 46.1606 26.5048C48.2913 28.4072 50.9118 29.4107 53.7416 29.4107C57.7413 29.4107 60.3262 27.2253 60.3262 23.8415C60.3333 20.9862 58.6235 19.4049 54.436 18.3862L54.4288 18.3831ZM69.3767 14.9921C67.6432 14.9921 66.2211 15.6751 65.0464 17.0745V15.4993C65.0464 15.375 64.9466 15.2737 64.8229 15.2737H61.7434C61.6198 15.2737 61.5199 15.375 61.5199 15.4993V33.0014C61.5199 33.125 61.6198 33.2273 61.7434 33.2273H64.8229C64.9466 33.2273 65.0464 33.125 65.0464 33.0014V27.4774C66.2211 28.7924 67.6432 29.4368 69.3767 29.4368C72.5988 29.4368 75.8614 26.9566 75.8614 22.2152C75.8662 17.4728 72.6036 14.9919 69.3791 14.9919L69.3767 14.9921ZM72.2802 22.2152C72.2802 24.6286 70.794 26.3146 68.6633 26.3146C66.5588 26.3146 64.9703 24.5525 64.9703 22.2152C64.9703 19.8776 66.5588 18.116 68.6633 18.116C70.7583 18.1158 72.2802 19.8396 72.2802 22.2152ZM84.22 14.9921C80.0704 14.9921 76.8197 18.1871 76.8197 22.2668C76.8197 26.3027 80.049 29.463 84.17 29.463C88.3338 29.463 91.594 26.2789 91.594 22.2152C91.594 18.1653 88.3552 14.9926 84.22 14.9926V14.9921ZM84.22 26.3383C82.0132 26.3383 80.3486 24.5644 80.3486 22.214C80.3486 19.8529 81.9561 18.1396 84.17 18.1396C86.391 18.1396 88.0651 19.9128 88.0651 22.2656C88.0651 24.6262 86.4481 26.3383 84.22 26.3383ZM100.454 15.2737H97.0657V11.8099C97.0657 11.6858 96.9658 11.5845 96.8422 11.5845H93.7627C93.6391 11.5845 93.5368 11.6858 93.5368 11.8099V15.2737H92.0577C91.9341 15.2737 91.8342 15.375 91.8342 15.4993V18.1453C91.8342 18.2694 91.9341 18.371 92.0577 18.371H93.5368V25.2183C93.5368 27.9839 94.9137 29.3869 97.6317 29.3869C98.735 29.3869 99.6506 29.1586 100.514 28.6687C100.585 28.6307 100.628 28.5546 100.628 28.4737V25.9531C100.628 25.877 100.587 25.8033 100.521 25.7629C100.454 25.7201 100.371 25.7177 100.302 25.7534C99.71 26.0506 99.1369 26.1885 98.4949 26.1885C97.508 26.1885 97.0657 25.7391 97.0657 24.7356V18.3722H100.454C100.578 18.3722 100.678 18.2708 100.678 18.1465V15.5008C100.683 15.3764 100.583 15.2751 100.457 15.2751L100.454 15.2737ZM112.259 15.2872V14.8618C112.259 13.6103 112.739 13.0522 113.814 13.0522C114.456 13.0522 114.972 13.1796 115.55 13.3722C115.621 13.3946 115.695 13.3834 115.752 13.3409C115.811 13.2983 115.844 13.23 115.844 13.1578V10.5634C115.844 10.4642 115.783 10.3765 115.685 10.3472C115.076 10.1658 114.296 9.9796 113.126 9.9796C110.285 9.9796 108.78 11.5809 108.78 14.6088V15.2603H107.3C107.177 15.2603 107.075 15.3616 107.075 15.4858V18.1453C107.075 18.2694 107.177 18.371 107.3 18.371H108.78V28.9303C108.78 29.0563 108.882 29.1562 109.005 29.1562H112.083C112.209 29.1562 112.308 29.0563 112.308 28.9303V18.3717H115.183L119.587 28.9303C119.088 30.0384 118.596 30.2596 117.925 30.2596C117.383 30.2596 116.81 30.0979 116.227 29.7769C116.173 29.7483 116.106 29.7436 116.049 29.7602C115.99 29.7816 115.94 29.8244 115.916 29.8815L114.872 32.1715C114.822 32.2809 114.865 32.4069 114.969 32.464C116.059 33.0537 117.041 33.3058 118.256 33.3058C120.529 33.3058 121.787 32.2452 122.893 29.3964L128.234 15.5954C128.262 15.526 128.253 15.4475 128.21 15.3859C128.169 15.3248 128.101 15.2879 128.027 15.2879H124.821C124.724 15.2879 124.638 15.349 124.607 15.4392L121.323 24.8164L117.728 15.433C117.695 15.3457 117.611 15.2879 117.519 15.2879H112.259V15.2872ZM105.415 15.2737H102.335C102.212 15.2737 102.109 15.375 102.109 15.4993V28.9303C102.109 29.0563 102.212 29.1562 102.335 29.1562H105.415C105.538 29.1562 105.641 29.0563 105.641 28.9303V15.5003C105.641 15.3759 105.541 15.2746 105.415 15.2746V15.2737ZM103.893 9.15778C102.673 9.15778 101.684 10.1451 101.684 11.3648C101.684 12.5851 102.673 13.5737 103.893 13.5737C105.113 13.5737 106.1 12.5851 106.1 11.3648C106.1 10.1453 105.11 9.15778 103.893 9.15778Z" fill="#1ED760"/>
</g>
<defs>
<clipPath id="clip0_4516_56232">
<rect width="128" height="40" fill="white" transform="translate(0.25)"/>
</clipPath>
</defs>
</svg>
