<svg width="98" height="26" viewBox="0 0 98 26" fill="none" xmlns="http://www.w3.org/2000/svg">
<path d="M53.3496 16.0724C53.3496 10.7524 56.9772 6.6936 62.0344 6.6936C67.3248 6.6936 70.1732 10.6841 70.1732 15.7312V17.1607H57.89C58.2344 19.9099 59.8971 21.5578 62.2354 21.5578C64.0676 21.5578 65.5288 20.6675 66.0681 18.9156L70.0696 20.3456C68.7702 23.6438 65.763 25.4998 62.2033 25.4998C56.945 25.4636 53.3496 21.6715 53.3496 16.0724ZM58.0557 13.8757H65.4671C65.4349 12.0912 64.314 10.5382 62.0114 10.5382C60.1309 10.5382 58.6563 11.6851 58.0817 13.8757H58.0557Z" fill="white"/>
<path d="M76.4675 25.2426H71.7129V7.17766H76.4675V9.03314C76.7634 8.67863 77.095 8.3616 77.4623 8.08204C77.8296 7.80204 78.2234 7.56702 78.6436 7.37608C79.0625 7.18472 79.4977 7.04318 79.9492 6.95146C80.4003 6.85975 80.8563 6.8205 81.3166 6.83329C83.4927 6.83329 85.1554 7.78881 86.1334 9.30964C86.3061 9.11518 86.4882 8.92997 86.6803 8.75491C86.8725 8.57942 87.0732 8.41495 87.2831 8.26106C87.4931 8.10717 87.7107 7.96475 87.935 7.83379C88.1594 7.70282 88.3905 7.58422 88.6275 7.47795C88.8654 7.37124 89.1076 7.27776 89.3548 7.19707C89.602 7.11637 89.8526 7.04891 90.1074 6.99467C90.3614 6.94044 90.6179 6.89987 90.877 6.87297C91.1352 6.84607 91.3951 6.83285 91.6542 6.83329C95.3183 6.83329 97.6896 9.41014 97.6896 13.3328V25.2589H92.9537V14.7006C92.9537 12.6731 92.2036 11.2299 90.2386 11.2299C88.6766 11.2299 87.085 12.4324 87.085 14.8046V25.2263H82.3396V14.7006C82.3396 12.6731 81.5926 11.2299 79.6247 11.2299C78.0655 11.2299 76.4675 12.4324 76.4675 14.8046V25.2426Z" fill="white"/>
<path d="M23.6895 17.7885L28.3013 16.7972C28.7104 19.5792 30.3375 21.4346 33.6539 21.4346C36.333 21.4346 37.8759 20.2321 37.8759 18.344C37.8759 13.398 24.4783 16.3197 24.4783 7.50304C24.4624 3.07378 27.8564 0.5 33.4136 0.5C37.9606 0.5 41.4519 2.83347 42.1305 6.78166L37.8208 8.1596C37.2458 5.99545 35.8167 4.44863 33.1375 4.44863C30.7339 4.44863 29.1717 5.40372 29.1717 7.04798C29.1717 11.7864 42.5692 8.67285 42.5692 18.0971C42.5692 22.5916 39.5488 25.4771 33.6213 25.4771C28.2298 25.4639 24.3064 22.9227 23.6895 17.7885Z" fill="white"/>
<path d="M52.3424 12.8941V8.26333H48.2438V3.83716H43.9336V18.2529C43.9336 22.7826 46.1066 25.4019 50.0398 25.4019C50.8175 25.3965 51.5848 25.3057 52.3424 25.1289V21.1318C51.9424 21.231 51.5363 21.2764 51.1244 21.2685C49.4617 21.2685 48.2438 20.4818 48.2438 18.6687V12.8941H52.3424Z" fill="white"/>
<path d="M2.53295 15.5981L0.938501 17.8402C0.911163 17.8778 0.888234 17.9175 0.869273 17.9598C0.850313 18.0016 0.835762 18.0453 0.82562 18.0903C0.815478 18.1352 0.809746 18.1811 0.808864 18.2274C0.807541 18.2737 0.811069 18.3191 0.819447 18.365C0.827384 18.4104 0.840171 18.4545 0.857368 18.4973C0.874124 18.5405 0.895289 18.581 0.920864 18.6198C0.945997 18.6587 0.975099 18.6944 1.00729 18.727C1.03992 18.7601 1.07519 18.7891 1.11356 18.8152L10.2336 25.0999C10.2719 25.1251 10.3116 25.1466 10.354 25.1643C10.3958 25.1819 10.4395 25.1952 10.484 25.2044C10.5285 25.2137 10.574 25.2189 10.6194 25.2195C10.6653 25.2203 10.7102 25.2167 10.7552 25.2089C10.8001 25.2009 10.8438 25.1886 10.8866 25.1722C10.9293 25.156 10.97 25.1356 11.0087 25.1119C11.0475 25.0876 11.0837 25.0602 11.1172 25.0294C11.1507 24.9985 11.1811 24.9645 11.208 24.9275L12.7994 22.6889C12.8263 22.6514 12.8493 22.6112 12.8681 22.5693C12.8871 22.5275 12.9017 22.4838 12.9118 22.4389C12.922 22.3939 12.9277 22.3484 12.929 22.3021C12.9299 22.2563 12.9264 22.2104 12.9184 22.165C12.9105 22.1196 12.8982 22.0755 12.8814 22.0323C12.8643 21.9896 12.8435 21.9485 12.8184 21.9101C12.7936 21.8714 12.765 21.8352 12.7329 21.8021C12.7006 21.7695 12.6654 21.74 12.6275 21.7139L3.51713 15.4288C3.47921 15.4023 3.43908 15.3798 3.39675 15.3613C3.35442 15.3428 3.31032 15.3282 3.26535 15.3185C3.21993 15.3084 3.17452 15.3026 3.12822 15.3014C3.08192 15.3004 3.03606 15.304 2.99064 15.3114C2.94478 15.3194 2.90025 15.3317 2.85704 15.3481C2.81383 15.3643 2.77282 15.3851 2.73357 15.4098C2.69433 15.434 2.65773 15.4623 2.62422 15.494C2.59027 15.5258 2.55985 15.5602 2.53295 15.5981Z" fill="white"/>
<path d="M9.14509 1.07194L7.55374 3.31104C7.5264 3.34852 7.50347 3.38821 7.48451 3.43054C7.46555 3.47287 7.45099 3.51608 7.44085 3.56149C7.43071 3.60647 7.42498 3.65188 7.4241 3.69819C7.42278 3.74449 7.42631 3.79035 7.43468 3.83576C7.44262 3.88118 7.45541 3.92527 7.4726 3.96848C7.48936 4.01125 7.51097 4.05226 7.5361 4.09062C7.56123 4.12943 7.59034 4.16514 7.62253 4.19822C7.65515 4.23085 7.69043 4.26038 7.72879 4.28596L16.612 10.4085C16.6499 10.434 16.6896 10.4556 16.7319 10.4732C16.7738 10.4909 16.8175 10.5046 16.862 10.5138C16.907 10.5235 16.952 10.5284 16.9978 10.5293C17.0432 10.5297 17.0887 10.5261 17.1336 10.5183C17.1786 10.5103 17.2223 10.4984 17.265 10.482C17.3078 10.4654 17.3483 10.445 17.3872 10.4213C17.426 10.397 17.4621 10.3692 17.4956 10.3384C17.5292 10.307 17.5591 10.2731 17.5861 10.236L19.1809 7.99693C19.2078 7.95945 19.2308 7.91976 19.2497 7.87787C19.2687 7.83554 19.2837 7.79189 19.2938 7.74691C19.3039 7.70194 19.3097 7.65608 19.3106 7.60978C19.3115 7.56393 19.3079 7.51807 19.3 7.47265C19.2916 7.42679 19.2789 7.38269 19.2621 7.33992C19.2449 7.29671 19.2237 7.25615 19.1986 7.21734C19.173 7.17854 19.1443 7.14282 19.1117 7.1102C19.0795 7.07713 19.0438 7.04802 19.0054 7.02244L10.1324 0.89997C10.094 0.873514 10.0539 0.851466 10.0111 0.832947C9.96837 0.814427 9.92468 0.800318 9.8793 0.790616C9.83384 0.780916 9.78796 0.775625 9.74173 0.774302C9.69542 0.77342 9.64953 0.776948 9.60365 0.784885C9.55785 0.792822 9.51332 0.805168 9.47005 0.821924C9.42688 0.838238 9.38539 0.858963 9.34619 0.883655C9.30691 0.908348 9.27032 0.936568 9.23637 0.967875C9.20286 0.999623 9.172 1.03446 9.14509 1.07194Z" fill="white"/>
<path d="M2.98442 3.18479L1.38953 5.42389C1.36264 5.46137 1.33971 5.50106 1.32075 5.54295C1.30179 5.58528 1.28724 5.62893 1.27709 5.6739C1.26651 5.71888 1.26122 5.76474 1.2599 5.81104C1.25902 5.8569 1.26254 5.90276 1.27092 5.94817C1.27886 5.99403 1.29165 6.03812 1.30884 6.08089C1.3256 6.12411 1.34676 6.16467 1.37234 6.20348C1.39747 6.24228 1.42613 6.278 1.45876 6.31063C1.49139 6.3437 1.52667 6.3728 1.56503 6.39837L16.7004 16.8333C16.7383 16.8588 16.778 16.88 16.8198 16.8976C16.8622 16.9157 16.9054 16.9289 16.9499 16.9387C16.9945 16.9479 17.0399 16.9532 17.0853 16.9541C17.1307 16.955 17.1762 16.9514 17.2211 16.9435C17.2661 16.9355 17.3098 16.9237 17.3525 16.9078C17.3948 16.8915 17.4358 16.8716 17.4747 16.8474C17.5134 16.8235 17.5496 16.7963 17.5831 16.7654C17.6171 16.7345 17.6475 16.701 17.6744 16.6644L19.2693 14.4222C19.2962 14.3847 19.3191 14.3446 19.3381 14.3027C19.357 14.2603 19.3716 14.2167 19.3822 14.1718C19.3923 14.1267 19.3976 14.0809 19.3989 14.035C19.3998 13.9887 19.3963 13.9429 19.3883 13.8975C19.38 13.8521 19.3672 13.8075 19.3504 13.7647C19.3332 13.722 19.3121 13.681 19.2869 13.6421C19.2614 13.6038 19.2327 13.5681 19.2001 13.535C19.1675 13.5024 19.1322 13.4728 19.0938 13.4472L3.9686 3.01238C3.93024 2.98637 3.89011 2.96388 3.84778 2.9458C3.80501 2.92728 3.76136 2.91317 3.71594 2.90347C3.67097 2.89377 3.62511 2.88804 3.57881 2.88716C3.53295 2.88628 3.48709 2.8898 3.44123 2.89774C3.39582 2.90567 3.35128 2.91802 3.30851 2.93478C3.2653 2.95109 3.22385 2.97182 3.18461 2.9965C3.14581 3.0212 3.10921 3.04898 3.07525 3.08072C3.04174 3.11247 3.01132 3.14731 2.98442 3.18479Z" fill="white"/>
<path d="M2.56223 9.27437L0.967778 11.4971C0.940881 11.5346 0.917511 11.5743 0.898551 11.6166C0.87959 11.6585 0.865039 11.7022 0.854897 11.7471C0.844755 11.7926 0.839023 11.838 0.838141 11.8843C0.836819 11.9306 0.840787 11.9764 0.848724 12.0219C0.857102 12.0672 0.869448 12.1114 0.886645 12.1541C0.903842 12.1974 0.925007 12.2379 0.95014 12.2767C0.975274 12.3156 1.00438 12.3513 1.03701 12.3839C1.06919 12.417 1.10491 12.446 1.14327 12.4721L16.2781 22.9065C16.3161 22.9321 16.3562 22.9537 16.3981 22.9713C16.4404 22.989 16.4836 23.0026 16.5286 23.0124C16.5732 23.0216 16.6181 23.0269 16.664 23.0274C16.7098 23.0282 16.7549 23.0246 16.7998 23.0168C16.8448 23.0088 16.8889 22.9965 16.9312 22.9801C16.974 22.9639 17.0145 22.9435 17.0534 22.9193C17.0922 22.895 17.1283 22.8677 17.1618 22.8364C17.1954 22.8055 17.2257 22.7712 17.2527 22.7345L18.8471 20.4954C18.874 20.458 18.8974 20.4183 18.9163 20.3759C18.9353 20.334 18.9499 20.2904 18.9599 20.245C18.9701 20.2 18.9759 20.1546 18.9767 20.1083C18.9781 20.062 18.9745 20.0161 18.9661 19.9708C18.9577 19.9253 18.9455 19.8812 18.9282 19.838C18.911 19.7953 18.8898 19.7542 18.8647 19.7158C18.8396 19.6771 18.8105 19.6413 18.7778 19.6082C18.7457 19.5756 18.7104 19.5461 18.672 19.5205L3.54641 9.08566C3.50804 9.0601 3.46704 9.03842 3.42427 9.02039C3.3815 9.0027 3.3374 8.98906 3.29155 8.97984C3.24613 8.97052 3.20026 8.96612 3.15397 8.9657C3.10767 8.9657 3.06137 8.96968 3.01595 8.97848C2.9701 8.98729 2.926 9.00007 2.88279 9.01776C2.84002 9.03495 2.79901 9.05654 2.76021 9.08168C2.72141 9.10725 2.68525 9.13587 2.65174 9.16855C2.61866 9.20072 2.58868 9.23602 2.56223 9.27437Z" fill="white"/>
</svg>
