<svg width="98" height="26" viewBox="0 0 98 26" fill="none" xmlns="http://www.w3.org/2000/svg">
<path d="M53.3496 16.0724C53.3496 10.7524 56.9772 6.6936 62.0344 6.6936C67.3248 6.6936 70.1732 10.6841 70.1732 15.7312V17.1607H57.89C58.2344 19.9099 59.8971 21.5578 62.2354 21.5578C64.0676 21.5578 65.5288 20.6675 66.0681 18.9156L70.0696 20.3456C68.7702 23.6438 65.763 25.4998 62.2033 25.4998C56.945 25.4636 53.3496 21.6715 53.3496 16.0724ZM58.0557 13.8757H65.4671C65.4349 12.0912 64.314 10.5382 62.0114 10.5382C60.1309 10.5382 58.6563 11.6851 58.0817 13.8757H58.0557Z" fill="black"/>
<path d="M76.4685 25.2426H71.7139V7.17766H76.4685V9.03314C76.7644 8.67863 77.096 8.3616 77.4633 8.08204C77.8306 7.80204 78.2244 7.56702 78.6445 7.37608C79.0634 7.18472 79.4987 7.04318 79.9502 6.95146C80.4013 6.85975 80.8572 6.8205 81.3175 6.83329C83.4937 6.83329 85.1564 7.78881 86.1344 9.30964C86.3071 9.11518 86.4891 8.92997 86.6813 8.75491C86.8735 8.57942 87.0741 8.41495 87.2841 8.26106C87.4941 8.10717 87.7116 7.96475 87.936 7.83379C88.1603 7.70282 88.3915 7.58422 88.6285 7.47795C88.8664 7.37124 89.1085 7.27776 89.3558 7.19707C89.603 7.11637 89.8535 7.04891 90.1084 6.99467C90.3624 6.94044 90.6189 6.89987 90.878 6.87297C91.1362 6.84607 91.3961 6.83285 91.6551 6.83329C95.3193 6.83329 97.6906 9.41014 97.6906 13.3328V25.2589H92.9547V14.7006C92.9547 12.6731 92.2046 11.2299 90.2396 11.2299C88.6776 11.2299 87.086 12.4324 87.086 14.8046V25.2263H82.3406V14.7006C82.3406 12.6731 81.5936 11.2299 79.6257 11.2299C78.0665 11.2299 76.4685 12.4324 76.4685 14.8046V25.2426Z" fill="black"/>
<path d="M23.6904 17.7885L28.3022 16.7972C28.7114 19.5792 30.3385 21.4346 33.6548 21.4346C36.334 21.4346 37.8769 20.2321 37.8769 18.344C37.8769 13.398 24.4793 16.3197 24.4793 7.50304C24.4634 3.07378 27.8574 0.5 33.4146 0.5C37.9615 0.5 41.4529 2.83347 42.1315 6.78166L37.8218 8.1596C37.2467 5.99545 35.8177 4.44863 33.1385 4.44863C30.7349 4.44863 29.1726 5.40372 29.1726 7.04798C29.1726 11.7864 42.5702 8.67285 42.5702 18.0971C42.5702 22.5916 39.5498 25.4771 33.6222 25.4771C28.2308 25.4639 24.3074 22.9227 23.6904 17.7885Z" fill="black"/>
<path d="M52.3433 12.8941V8.26333H48.2447V3.83716H43.9346V18.2529C43.9346 22.7826 46.1076 25.4019 50.0407 25.4019C50.8185 25.3965 51.5858 25.3057 52.3433 25.1289V21.1318C51.9434 21.231 51.5373 21.2764 51.1254 21.2685C49.4627 21.2685 48.2447 20.4818 48.2447 18.6687V12.8941H52.3433Z" fill="black"/>
<path d="M2.53393 15.5981L0.939478 17.8402C0.912139 17.8778 0.88921 17.9175 0.87025 17.9598C0.85129 18.0016 0.836738 18.0453 0.826597 18.0903C0.816455 18.1352 0.810723 18.1811 0.809841 18.2274C0.808518 18.2737 0.812046 18.3191 0.820423 18.365C0.82836 18.4104 0.841148 18.4545 0.858345 18.4973C0.8751 18.5405 0.896265 18.581 0.92184 18.6198C0.946974 18.6587 0.976076 18.6944 1.00826 18.727C1.04089 18.7601 1.07617 18.7891 1.11453 18.8152L10.2346 25.0999C10.2729 25.1251 10.3126 25.1466 10.3549 25.1643C10.3968 25.1819 10.4405 25.1952 10.485 25.2044C10.5295 25.2137 10.575 25.2189 10.6204 25.2195C10.6662 25.2203 10.7112 25.2167 10.7562 25.2089C10.8011 25.2009 10.8448 25.1886 10.8875 25.1722C10.9303 25.156 10.9709 25.1356 11.0097 25.1119C11.0485 25.0876 11.0846 25.0602 11.1182 25.0294C11.1517 24.9985 11.1821 24.9645 11.209 24.9275L12.8004 22.6889C12.8273 22.6514 12.8502 22.6112 12.8691 22.5693C12.8881 22.5275 12.9026 22.4838 12.9128 22.4389C12.923 22.3939 12.9287 22.3484 12.93 22.3021C12.9309 22.2563 12.9274 22.2104 12.9194 22.165C12.9115 22.1196 12.8992 22.0755 12.8824 22.0323C12.8652 21.9896 12.8445 21.9485 12.8193 21.9101C12.7946 21.8714 12.766 21.8352 12.7338 21.8021C12.7016 21.7695 12.6664 21.74 12.6284 21.7139L3.51811 15.4288C3.48018 15.4023 3.44006 15.3798 3.39773 15.3613C3.3554 15.3428 3.3113 15.3282 3.26633 15.3185C3.22091 15.3084 3.1755 15.3026 3.12919 15.3014C3.08289 15.3004 3.03704 15.304 2.99162 15.3114C2.94576 15.3194 2.90123 15.3317 2.85802 15.3481C2.81481 15.3643 2.7738 15.3851 2.73455 15.4098C2.69531 15.434 2.65871 15.4623 2.6252 15.494C2.59124 15.5258 2.56082 15.5602 2.53393 15.5981Z" fill="black"/>
<path d="M9.14705 1.07194L7.55569 3.31104C7.52836 3.34852 7.50542 3.38821 7.48646 3.43054C7.4675 3.47287 7.45295 3.51608 7.44281 3.56149C7.43266 3.60647 7.42693 3.65188 7.42605 3.69819C7.42473 3.74449 7.42826 3.79035 7.43663 3.83576C7.44457 3.88118 7.45736 3.92527 7.47455 3.96848C7.49132 4.01125 7.51292 4.05226 7.53805 4.09062C7.56318 4.12943 7.59229 4.16514 7.62448 4.19822C7.65711 4.23085 7.69239 4.26038 7.73075 4.28596L16.614 10.4085C16.6518 10.434 16.6915 10.4556 16.7339 10.4732C16.7758 10.4909 16.8195 10.5046 16.864 10.5138C16.909 10.5235 16.9539 10.5284 16.9998 10.5293C17.0452 10.5297 17.0906 10.5261 17.1356 10.5183C17.1805 10.5103 17.2242 10.4984 17.267 10.482C17.3097 10.4654 17.3503 10.445 17.3891 10.4213C17.4279 10.397 17.4641 10.3692 17.4976 10.3384C17.5311 10.307 17.5611 10.2731 17.588 10.236L19.1829 7.99693C19.2098 7.95945 19.2327 7.91976 19.2517 7.87787C19.2707 7.83554 19.2856 7.79189 19.2958 7.74691C19.3059 7.70194 19.3116 7.65608 19.3126 7.60978C19.3134 7.56393 19.3099 7.51807 19.302 7.47265C19.2936 7.42679 19.2808 7.38269 19.264 7.33992C19.2469 7.29671 19.2257 7.25615 19.2006 7.21734C19.175 7.17854 19.1463 7.14282 19.1137 7.1102C19.0814 7.07713 19.0458 7.04802 19.0074 7.02244L10.1343 0.89997C10.096 0.873514 10.0558 0.851466 10.0131 0.832947C9.97032 0.814427 9.92664 0.800318 9.88126 0.790616C9.83579 0.780916 9.78991 0.775625 9.74368 0.774302C9.69737 0.77342 9.65149 0.776948 9.6056 0.784885C9.5598 0.792822 9.51527 0.805168 9.47201 0.821924C9.42883 0.838238 9.38735 0.858963 9.34815 0.883655C9.30887 0.908348 9.27228 0.936568 9.23833 0.967875C9.20481 0.999623 9.17395 1.03446 9.14705 1.07194Z" fill="black"/>
<path d="M2.9854 3.18479L1.39051 5.42389C1.36361 5.46137 1.34068 5.50106 1.32172 5.54295C1.30276 5.58528 1.28821 5.62893 1.27807 5.6739C1.26749 5.71888 1.2622 5.76474 1.26087 5.81104C1.25999 5.8569 1.26352 5.90276 1.2719 5.94817C1.27983 5.99403 1.29262 6.03812 1.30982 6.08089C1.32657 6.12411 1.34774 6.16467 1.37331 6.20348C1.39845 6.24228 1.42711 6.278 1.45974 6.31063C1.49237 6.3437 1.52764 6.3728 1.56601 6.39837L16.7013 16.8333C16.7393 16.8588 16.779 16.88 16.8208 16.8976C16.8631 16.9157 16.9064 16.9289 16.9509 16.9387C16.9955 16.9479 17.0408 16.9532 17.0863 16.9541C17.1317 16.955 17.1771 16.9514 17.2221 16.9435C17.267 16.9355 17.3107 16.9237 17.3535 16.9078C17.3958 16.8915 17.4368 16.8716 17.4757 16.8474C17.5144 16.8235 17.5506 16.7963 17.5841 16.7654C17.618 16.7345 17.6484 16.701 17.6754 16.6644L19.2703 14.4222C19.2971 14.3847 19.3201 14.3446 19.339 14.3027C19.358 14.2603 19.3726 14.2167 19.3831 14.1718C19.3933 14.1267 19.3986 14.0809 19.3999 14.035C19.4008 13.9887 19.3973 13.9429 19.3893 13.8975C19.3809 13.8521 19.3682 13.8075 19.3514 13.7647C19.3342 13.722 19.313 13.681 19.2879 13.6421C19.2623 13.6038 19.2336 13.5681 19.201 13.535C19.1684 13.5024 19.1331 13.4728 19.0948 13.4472L3.96958 3.01238C3.93122 2.98637 3.89109 2.96388 3.84876 2.9458C3.80599 2.92728 3.76234 2.91317 3.71692 2.90347C3.67195 2.89377 3.62608 2.88804 3.57978 2.88716C3.53393 2.88628 3.48807 2.8898 3.44221 2.89774C3.3968 2.90567 3.35226 2.91802 3.30949 2.93478C3.26628 2.95109 3.22483 2.97182 3.18559 2.9965C3.14679 3.0212 3.11019 3.04898 3.07623 3.08072C3.04272 3.11247 3.01229 3.14731 2.9854 3.18479Z" fill="black"/>
<path d="M2.5632 9.27437L0.968754 11.4971C0.941858 11.5346 0.918488 11.5743 0.899527 11.6166C0.880566 11.6585 0.866015 11.7022 0.855874 11.7471C0.845732 11.7926 0.84 11.838 0.839118 11.8843C0.837795 11.9306 0.841764 11.9764 0.8497 12.0219C0.858078 12.0672 0.870425 12.1114 0.887621 12.1541C0.904818 12.1974 0.925984 12.2379 0.951117 12.2767C0.976251 12.3156 1.00535 12.3513 1.03798 12.3839C1.07017 12.417 1.10589 12.446 1.14425 12.4721L16.2791 22.9065C16.317 22.9321 16.3572 22.9537 16.3991 22.9713C16.4414 22.989 16.4846 23.0026 16.5296 23.0124C16.5742 23.0216 16.6191 23.0269 16.665 23.0274C16.7108 23.0282 16.7558 23.0246 16.8008 23.0168C16.8457 23.0088 16.8899 22.9965 16.9322 22.9801C16.9749 22.9639 17.0155 22.9435 17.0544 22.9193C17.0931 22.895 17.1293 22.8677 17.1628 22.8364C17.1963 22.8055 17.2267 22.7712 17.2536 22.7345L18.8481 20.4954C18.875 20.458 18.8984 20.4183 18.9173 20.3759C18.9363 20.334 18.9508 20.2904 18.9609 20.245C18.9711 20.2 18.9768 20.1546 18.9777 20.1083C18.979 20.062 18.9755 20.0161 18.9671 19.9708C18.9587 19.9253 18.9464 19.8812 18.9292 19.838C18.912 19.7953 18.8908 19.7542 18.8657 19.7158C18.8406 19.6771 18.8115 19.6413 18.7788 19.6082C18.7466 19.5756 18.7113 19.5461 18.673 19.5205L3.54739 9.08566C3.50902 9.0601 3.46802 9.03842 3.42525 9.02039C3.38247 9.0027 3.33837 8.98906 3.29252 8.97984C3.2471 8.97052 3.20124 8.96612 3.15495 8.9657C3.10865 8.9657 3.06235 8.96968 3.01693 8.97848C2.97107 8.98729 2.92697 9.00007 2.88376 9.01776C2.84099 9.03495 2.79998 9.05654 2.76118 9.08168C2.72238 9.10725 2.68622 9.13587 2.65272 9.16855C2.61964 9.20072 2.58966 9.23602 2.5632 9.27437Z" fill="black"/>
</svg>
