<svg width="133" height="20" viewBox="0 0 133 20" fill="none" xmlns="http://www.w3.org/2000/svg">
<path d="M36.434 18.1283V19.6791H33.7728C30.7724 19.6791 29.3896 18.262 29.3896 15.3207V8.31517H25.3457V6.79108H29.3896V0.694702H31.0333V6.79108H36.434V8.31517H31.0333V15.0533C31.0333 17.1389 31.7638 18.1283 34.0337 18.1283H36.434ZM45.9307 20C42.3303 20 40.1648 17.6202 40.1648 14.2244V6.79108H41.8085V13.9838C41.8085 16.6576 43.2956 18.3956 45.9046 18.3956C48.5139 18.3956 50.0267 16.6576 50.0267 13.9838V6.79108H51.6705V14.2244C51.6705 17.6202 49.4529 20 45.9307 20ZM58.3234 12.6736V19.6791H56.68V6.79108H58.3234V9.51841C58.8453 8.18151 60.3848 6.47023 62.8372 6.47023C66.0724 6.47023 68.3157 8.93017 68.3157 12.3795V19.6791H66.6724V12.6736C66.6724 9.83932 64.9762 8.04779 62.4976 8.04779C60.1238 8.04779 58.3234 9.89279 58.3234 12.6736ZM78.6738 6.47023C82.4048 6.47023 84.9614 9.33127 85.0133 13.2084H74.0295V13.2351C74.0295 16.0159 75.9343 18.4224 78.9086 18.4224C81.8043 18.4224 82.9005 16.8181 83.2657 16.2298H84.8571C84.57 17.3261 82.9262 20 78.9086 20C75.021 20 72.36 16.9517 72.36 13.2351C72.36 9.43822 74.9691 6.47023 78.6738 6.47023ZM78.6738 7.94084C76.2214 7.94084 74.6038 9.51841 74.1338 11.7645H83.2133C82.7176 9.4917 81.1 7.94084 78.6738 7.94084Z" fill="white"/>
<path d="M88.4053 19.6796V14.4388H93.2838V19.6796H88.4053ZM106.72 9.38522H102.259V19.6796H98.0062V9.38522H94.51V5.82899H98.0062V3.95731C98.0062 1.5241 99.3891 0 102.207 0H108.364V3.2621H103.981C102.729 3.2621 102.259 3.82362 102.259 4.97337V5.82899H106.72V9.38522ZM113.478 12.38V19.6796H109.251V5.82899H113.478V7.91461C113.973 7.03223 115.434 5.5349 117.782 5.5349C120.026 5.5349 121.696 6.63118 122.557 8.42265C123.183 7.24613 124.644 5.5349 127.462 5.5349C130.828 5.5349 132.941 7.99484 132.941 11.4976V19.6796H128.688V12.38C128.688 10.535 127.644 9.38522 125.975 9.38522C124.305 9.38522 123.209 10.5617 123.209 12.38V19.6796H118.957V12.38C118.957 10.535 117.913 9.38522 116.243 9.38522C114.573 9.38522 113.478 10.5617 113.478 12.38Z" fill="white"/>
<path d="M9.95198 19.4656C4.76469 19.4656 0.55957 15.156 0.55957 9.83975C0.55957 4.52352 4.76469 0.213867 9.95198 0.213867C15.1393 0.213867 19.3444 4.52352 19.3444 9.83975C19.3444 15.156 15.1393 19.4656 9.95198 19.4656ZM16.4228 9.94637C16.4228 6.10785 13.5161 2.9802 9.91737 2.9802C6.31861 2.9802 3.41189 6.10785 3.41189 9.94637C3.41189 12.5765 4.79604 14.8867 6.83766 16.0595C7.3567 16.4505 7.94499 16.5927 8.3948 16.3794C9.22532 15.9885 9.3637 14.5668 8.74084 13.2873C8.11799 11.9723 6.97608 11.2614 6.14556 11.6524C5.97256 11.759 5.79956 11.9012 5.69575 12.0789C5.38428 11.5457 5.21128 10.9416 5.21128 10.2663C5.21128 7.99156 7.32208 6.17894 9.91737 6.17894C12.5126 6.17894 14.6235 8.02713 14.6235 10.2663C14.6235 10.9416 14.4158 11.5813 14.1044 12.15C13.966 11.9012 13.793 11.7235 13.5854 11.6168C12.7549 11.2259 11.6129 11.9723 11.0247 13.2873C10.4364 14.6024 10.6095 15.9885 11.4399 16.3794C11.8552 16.5927 12.3742 16.4861 12.8587 16.1306C14.9695 14.9933 16.4228 12.6476 16.4228 9.94637Z" fill="white"/>
</svg>
