<svg width="159" height="44" viewBox="0 0 159 44" fill="none" xmlns="http://www.w3.org/2000/svg">
<g clip-path="url(#clip0_4552_5501)">
<path d="M63.1174 30.0539H67.9V15.5722H64.6382V26.0078L58.8991 15.5722H55.3887L63.1174 30.0539ZM71.0565 30.0539H74.5191V15.5722H71.0565V30.0539ZM86.3608 25.5392C86.3608 26.5626 85.6435 27.1748 84.2278 27.1748H81.1382V23.9035H84.2469C85.6626 23.9035 86.38 24.5252 86.38 25.5392M85.8826 19.8861C85.8826 20.7852 85.2417 21.3687 84.0748 21.3687H81.1382V18.4513H84.0748C85.2417 18.4513 85.8826 18.987 85.8826 19.8861ZM87.6617 22.3444C88.7252 21.7194 89.3633 20.5643 89.3261 19.3313C89.3261 16.2992 87.04 15.5722 83.96 15.5722H77.8287V30.0539H84.2087C87.6235 30.0539 89.8904 28.8583 89.8904 25.5965C89.9883 24.1277 89.0669 22.7832 87.6617 22.3444ZM92.1956 30.0539H102.976V27.0409H95.5052V24.1235H102.574V21.1105H95.5052V18.5661H102.976V15.5722H92.1956V30.0539ZM113.87 20.087C113.87 21.4644 112.665 21.7322 111.097 21.7322H108.896V18.4513H111.097C112.665 18.4513 113.87 18.7478 113.87 20.087ZM118.098 30.0539L114.626 24.0374C116.352 23.4759 117.483 21.8224 117.381 20.0105C117.381 16.4331 114.645 15.5339 110.991 15.5339H105.587V30.0539H108.896V24.6018H111.154L114.196 30.0539H118.098ZM128.362 30.0539H131.652V15.5722H126.812L118.921 30.0539H122.642L128.381 19.6183L128.362 30.0539ZM141.543 18.5757H146.057V15.5722H133.699V18.5661H138.204V30.0444H141.543V18.5757ZM151.385 27.0505V24.1235H158.454V21.1105H151.385V18.5661H158.856V15.5722H148.066V30.0539H158.856V27.0409L151.385 27.0505Z" fill="white"/>
<path d="M44.6269 0.210449H1.18164V43.6557H44.6269V0.210449Z" fill="#FF1F43"/>
<path d="M25.391 34.8365H33.6458V10.0817H28.0214L27.9927 27.9304L18.2362 10.0817H12.1719L25.391 34.8365Z" fill="white"/>
</g>
<defs>
<clipPath id="clip0_4552_5501">
<rect width="158.4" height="44" fill="white" transform="translate(0.550781)"/>
</clipPath>
</defs>
</svg>
