<svg width="158" height="44" viewBox="0 0 158 44" fill="none" xmlns="http://www.w3.org/2000/svg">
<path d="M62.1154 30.0539H66.898V15.5722H63.6363V26.0078L57.8972 15.5722H54.3867L62.1154 30.0539ZM70.0545 30.0539H73.5172V15.5722H70.0545V30.0539ZM85.3589 25.5392C85.3589 26.5626 84.6415 27.1748 83.2259 27.1748H80.1363V23.9035H83.245C84.6606 23.9035 85.378 24.5252 85.378 25.5392M84.8806 19.8861C84.8806 20.7852 84.2398 21.3687 83.0728 21.3687H80.1363V18.4513H83.0728C84.2398 18.4513 84.8806 18.987 84.8806 19.8861ZM86.6598 22.3444C87.7233 21.7194 88.3613 20.5643 88.3241 19.3313C88.3241 16.2992 86.038 15.5722 82.958 15.5722H76.8267V30.0539H83.2067C86.6215 30.0539 88.8885 28.8583 88.8885 25.5965C88.9863 24.1277 88.0649 22.7832 86.6598 22.3444ZM91.1937 30.0539H101.974V27.0409H94.5032V24.1235H101.572V21.1105H94.5032V18.5661H101.974V15.5722H91.1937V30.0539ZM112.868 20.087C112.868 21.4644 111.663 21.7322 110.095 21.7322H107.895V18.4513H110.095C111.663 18.4513 112.868 18.7478 112.868 20.087ZM117.096 30.0539L113.624 24.0374C115.35 23.4759 116.481 21.8224 116.379 20.0105C116.379 16.4331 113.643 15.5339 109.989 15.5339H104.585V30.0539H107.895V24.6018H110.152L113.194 30.0539H117.096ZM127.36 30.0539H130.65V15.5722H125.81L117.919 30.0539H121.64L127.379 19.6183L127.36 30.0539ZM140.541 18.5757H145.055V15.5722H132.697V18.5661H137.202V30.0444H140.541V18.5757ZM150.383 27.0505V24.1235H157.452V21.1105H150.383V18.5661H157.854V15.5722H147.064V30.0539H157.854V27.0409L150.383 27.0505Z" fill="black"/>
<path d="M43.6259 0.210449H0.180664V43.6557H43.6259V0.210449Z" fill="#FF1F43"/>
<path d="M24.39 34.8365H32.6448V10.0817H27.0205L26.9918 27.9304L17.2352 10.0817H11.1709L24.39 34.8365Z" fill="white"/>
</svg>
