<svg width="125" height="32" viewBox="0 0 125 32" fill="none" xmlns="http://www.w3.org/2000/svg">
<path d="M44.7045 4.9984C44.1797 3.0272 42.6437 1.4912 40.6725 0.9536C37.1205 0 22.8613 0 22.8613 0C22.8613 0 8.60205 0 5.05005 0.9536C3.07885 1.4848 1.54285 3.0272 1.01805 4.9984C0.0644531 8.5568 0.0644531 16 0.0644531 16C0.0644531 16 0.0644531 23.4368 1.01805 27.0016C1.54285 28.9728 3.07885 30.5088 5.05005 31.04C8.60205 32 22.8613 32 22.8613 32C22.8613 32 37.1205 32 40.6725 31.0464C42.6437 30.5152 44.1797 28.9728 44.7045 27.0016C45.6581 23.4368 45.6581 16 45.6581 16C45.6581 16 45.6517 8.5632 44.7045 4.9984Z" fill="#FF0000"/>
<path d="M18.2979 22.8608L30.1443 16.0064L18.2979 9.13922V22.8608Z" fill="white"/>
<path d="M65.7093 12.4096C64.8965 16.5632 64.2757 21.632 63.9493 23.7184H63.7189C63.4629 21.5616 62.8357 16.5248 61.9909 12.4416L59.9109 2.27841H53.5557V29.7024H57.4981V7.09761L57.8885 9.20961L61.8949 29.7024H65.8373L69.7797 9.20961L70.2021 7.09121V29.7088H74.1445V2.27841H67.7253L65.7093 12.4096ZM84.8133 25.5872C84.4549 26.3424 83.6741 26.8608 82.8869 26.8608C81.9717 26.8608 81.6133 26.1376 81.6133 24.3776V9.67041H77.1141V24.64C77.1141 28.3328 78.3173 30.0352 80.9925 30.0352C82.8165 30.0352 84.2821 29.216 85.2997 27.2576H85.3957L85.7861 29.7088H89.3061V9.66401H84.8069L84.8133 25.5872ZM98.0165 17.5808C96.5509 16.4992 95.6357 15.7824 95.6357 14.2144C95.6357 13.1072 96.1541 12.48 97.3957 12.48C98.6693 12.48 99.0917 13.3632 99.1237 16.3712L102.906 16.2112C103.2 11.3408 101.6 9.31201 97.4597 9.31201C93.6133 9.31201 91.7189 11.0464 91.7189 14.6048C91.7189 17.8432 93.2805 19.3152 95.8213 21.2416C98.0037 22.944 99.2773 23.8912 99.2773 25.2608C99.2773 26.304 98.6245 27.0272 97.4853 27.0272C96.1477 27.0272 95.3669 25.7536 95.5653 23.5328L91.7509 23.5968C91.1685 27.7504 92.8261 30.1632 97.2613 30.1632C101.14 30.1632 103.162 28.3648 103.162 24.7744C103.168 21.504 101.536 20.1984 98.0165 17.5808ZM105.645 9.67041H109.952V29.7088H105.645V9.67041ZM107.828 1.76001C106.164 1.76001 105.383 2.38081 105.383 4.53761C105.383 6.75841 106.164 7.31521 107.828 7.31521C109.524 7.31521 110.272 6.75841 110.272 4.53761C110.272 2.47681 109.524 1.76001 107.828 1.76001ZM124.423 22.4832L120.48 22.2848C120.48 25.8112 120.09 26.9568 118.752 26.9568C117.415 26.9568 117.191 25.6832 117.191 21.5296V17.6384C117.191 13.6192 117.447 12.3456 118.791 12.3456C120.026 12.3456 120.352 13.5552 120.352 17.28L124.263 17.024C124.519 13.92 124.135 11.7952 122.925 10.5856C122.042 9.70241 120.711 9.28001 118.848 9.28001C114.477 9.28001 112.685 11.6352 112.685 18.2336V21.0432C112.685 27.84 114.215 30.0288 118.682 30.0288C120.576 30.0288 121.876 29.6384 122.759 28.7872C124.032 27.6096 124.519 25.5872 124.423 22.4832Z" fill="white"/>
</svg>
