<svg width="120" height="24" viewBox="0 0 120 24" fill="none" xmlns="http://www.w3.org/2000/svg">
<path d="M54.3065 11.2709C54.3065 11.2709 57.0762 10.3712 57.0762 7.0026C57.0762 3.63398 55.2037 1.08667 50.4881 1.01086C45.77 0.937575 38.6562 1.08667 38.6562 1.08667V23.6991H51.3852C51.3852 23.6991 57.4502 22.9511 57.4502 17.2601C57.9759 12.3929 54.3065 11.2709 54.3065 11.2709ZM44.4964 5.95386L49.5126 6.02967C49.5126 6.02967 51.1982 5.87804 51.1982 7.78853C51.1982 9.69901 49.3635 9.6232 49.3635 9.6232H44.4964V5.95386ZM49.6996 18.7687L44.4787 18.7283L44.514 14.2377L49.8942 14.3716C49.8942 14.3716 51.7036 14.2023 51.6859 16.5398C51.6657 18.8774 49.6996 18.7687 49.6996 18.7687Z" fill="white"/>
<path d="M65.6138 6.25488C57.0015 6.25488 58.1993 17.0355 58.1993 17.0355C58.1993 17.0355 58.2751 24.0001 65.912 24.0001C70.4052 23.9243 72.5759 21.9785 72.5759 21.9785L70.5543 18.4203C70.5543 18.4203 63.7033 21.6777 63.2535 16.8106H73.0258C73.0258 16.8106 74.2236 6.25488 65.6138 6.25488ZM63.2914 13.2928C63.2914 13.2928 63.0665 10.5964 65.538 10.5964C68.0095 10.5964 68.0853 13.2928 68.0853 13.2928H63.2914Z" fill="white"/>
<path d="M112.112 6.25488C103.5 6.25488 104.697 17.0355 104.697 17.0355C104.697 17.0355 104.773 24.0001 112.41 24.0001C116.903 23.9243 119.074 21.9785 119.074 21.9785L117.052 18.4203C117.052 18.4203 110.201 21.6777 109.752 16.8106H119.524C119.524 16.8106 120.722 6.25488 112.112 6.25488ZM109.789 13.2928C109.789 13.2928 109.565 10.5964 112.036 10.5964C114.508 10.5964 114.583 13.2928 114.583 13.2928H109.789Z" fill="white"/>
<path d="M98.0918 2.4716V23.6992H103.763V0.0582275L98.0918 2.4716Z" fill="white"/>
<path d="M93.204 11.2329V18.2532C94.4953 20.3861 96.8556 18.0839 96.8556 18.0839C96.8556 18.0839 96.4614 21.172 96.1253 23.0825C95.6199 23.363 94.6646 23.924 91.1267 23.924C87.5888 23.924 87.6444 19.4889 87.6444 19.4889V11.2329H81.0739V18.2532C82.3653 20.3861 84.7256 18.0839 84.7256 18.0839C84.7256 18.0839 84.3314 21.172 83.9953 23.0825C83.4898 23.363 82.5346 23.924 78.9967 23.924C75.4587 23.924 75.5143 19.4889 75.5143 19.4889V11.2329H72.9316V6.62857H75.5725V2.36031L81.0183 0V6.62857H87.7025V2.36031L93.1484 0V6.62857H96.8556V11.2329H93.204Z" fill="white"/>
<path d="M37.0853 1.08655H30.1965L19.1152 14.7884L18.0664 19.4307H27.3889L26.5271 23.5878H32.9661L33.7167 19.5065H35.7384L36.6355 13.9646H34.7629L37.0853 1.08655ZM28.4275 14.1895H25.7791L29.4838 8.85231L28.4275 14.1895Z" fill="#FD4100"/>
<path d="M3.76543 5.43083L7.73296 9.24927C7.73296 9.24927 10.3536 5.65574 12.8983 6.77777C13.2724 8.27634 12.8225 8.94854 10.4268 10.2222C8.03116 11.4959 1.59466 15.2385 0.919922 23.4743H16.7926L17.8413 18.084H9.30734C9.30734 18.084 10.8059 15.9865 14.6243 13.9648C18.4428 11.8673 21.963 6.70196 18.6677 2.35788C14.3994 -1.60965 6.68675 2.05716 3.76796 5.4283L3.76543 5.43083Z" fill="#FD4100"/>
</svg>
