<svg width="119" height="48" viewBox="0 0 119 48" fill="none" xmlns="http://www.w3.org/2000/svg">
<g clip-path="url(#clip0_4516_59226)">
<path d="M49.157 28.4487L49.5071 26.4595C49.5475 26.2287 49.6726 25.5284 49.1224 25.0359C48.8284 24.7897 48.4531 24.6621 48.0701 24.6781H38.7128C38.3929 24.6682 38.0769 24.7511 37.8029 24.9166C37.5387 24.7515 37.2313 24.6684 36.9199 24.6781H31.6815C30.9712 24.6673 30.2654 24.7921 29.6019 25.0455C29.0193 25.273 28.4872 25.6129 28.0359 26.0459C27.6166 26.4549 27.2751 26.9366 27.0279 27.4676C26.7991 27.9573 26.6349 28.4746 26.5392 29.0066L25.6466 34.0661C25.6572 33.8873 25.6572 33.7081 25.6466 33.5294C25.6279 33.1225 25.5448 32.7212 25.4003 32.3405C25.2767 32.014 25.1049 31.708 24.8905 31.4325C24.9944 31.317 25.0964 31.1939 25.1926 31.065C25.6096 30.5277 25.8919 29.8984 26.0159 29.2297C26.1532 28.5623 26.1248 27.8714 25.9332 27.2175C25.7497 26.6347 25.4104 26.1132 24.9521 25.7092C24.4992 25.3208 23.9626 25.0423 23.3842 24.8955C22.8101 24.7466 22.219 24.6735 21.6259 24.6781H17.0089C16.1855 24.6781 15.5641 24.9051 15.1601 25.3514C14.8117 25.7649 14.587 26.2684 14.5118 26.8039L12.7323 36.8921C12.6092 37.5943 12.6746 38.1483 12.9247 38.5812C13.4249 39.42 14.4637 39.42 14.8081 39.42H19.4251C20.1436 39.4212 20.8578 39.3088 21.5413 39.0871C22.2052 38.8694 22.8291 38.5445 23.3881 38.1253C23.9427 37.7115 24.4189 37.202 24.7944 36.6209C25.0975 36.1465 25.3235 35.627 25.4638 35.0818C25.425 35.4312 25.416 35.7833 25.4369 36.1342C25.4662 36.7074 25.6367 37.2644 25.9332 37.7559C26.2658 38.2914 26.7471 38.7185 27.3183 38.9852C28.0062 39.2914 28.7552 39.4355 29.5076 39.4065H35.0192C35.8137 39.4065 36.4197 38.8717 36.5582 38.0445L36.9122 36.036C36.9564 35.7898 37.0565 35.2146 36.6679 34.7356C36.5246 34.5732 36.3461 34.4456 36.1461 34.3626C35.9461 34.2796 35.7298 34.2433 35.5136 34.2566H35.1038C35.8964 34.2566 36.5043 33.7217 36.6429 32.8945L36.9699 31.0477C37.0213 30.8387 37.0308 30.6216 36.9978 30.409C36.9648 30.1963 36.8899 29.9923 36.7775 29.8088L36.7487 29.7703C36.9558 29.7328 37.1526 29.6514 37.3258 29.5318C37.5847 29.7101 37.8926 29.8035 38.2069 29.7992H39.7959L38.407 37.6866C38.3629 37.8984 38.3668 38.1173 38.4184 38.3274C38.47 38.5375 38.568 38.7333 38.7051 38.9005C38.8512 39.0689 39.0331 39.2024 39.2375 39.2913C39.4419 39.3802 39.6636 39.4222 39.8863 39.4142H42.4084C42.6302 39.4289 42.8527 39.3973 43.0616 39.3214C43.2706 39.2456 43.4615 39.1272 43.6223 38.9736C43.8467 38.7265 43.9915 38.4174 44.0378 38.0868L45.498 29.8146H47.566C47.9532 29.8239 48.33 29.6895 48.6239 29.4372C48.9177 29.185 49.1076 28.8328 49.157 28.4487ZM19.7675 34.2008C19.7179 34.2131 19.6667 34.2183 19.6156 34.2162H18.9076V34.1969H19.7714L19.7675 34.2008Z" fill="#CCCCCC"/>
<path d="M60.3386 34.3662C60.3145 33.8382 60.2187 33.316 60.0539 32.8138C60.0219 32.7201 59.9846 32.6282 59.9423 32.5387C60.1578 32.3418 60.356 32.1268 60.5348 31.8961C61.0395 31.2473 61.3764 30.4842 61.516 29.6742C61.7814 28.1698 61.4832 26.9386 60.631 26.019C59.8115 25.1302 58.5149 24.6724 56.7931 24.6724H52.2645C51.4315 24.6724 50.8025 24.9128 50.3946 25.3842C50.0608 25.7896 49.844 26.2785 49.7675 26.7981L47.8437 37.704C47.8016 37.9131 47.8066 38.1289 47.8581 38.3358C47.9097 38.5428 48.0066 38.7357 48.1419 38.9006C48.2875 39.0706 48.4698 39.2051 48.6751 39.2941C48.8805 39.3831 49.1034 39.4242 49.3269 39.4142H51.849C52.2746 39.4427 52.6947 39.3048 53.0206 39.0295C53.2687 38.7803 53.4282 38.4566 53.4746 38.108L54.1017 34.5509H54.5288C54.5558 34.6778 54.5744 34.8063 54.5846 34.9357L54.777 37.9041C54.8578 38.9987 55.6061 39.2757 55.8312 39.3353C56.0761 39.3949 56.3276 39.4227 56.5796 39.4181H59.0304C59.9096 39.4181 60.3771 38.8948 60.5079 38.4042C60.5747 38.1779 60.5995 37.9412 60.581 37.7059L60.3386 34.3662Z" fill="#CCCCCC"/>
<path d="M117.626 25.4457C116.967 25.083 116.252 24.8333 115.51 24.707C114.728 24.559 113.934 24.4843 113.138 24.4838C112.305 24.4726 111.475 24.5987 110.683 24.8571C109.988 25.0864 109.341 25.4425 108.775 25.9074C108.249 26.3439 107.811 26.8759 107.484 27.4753C107.175 28.0425 106.959 28.6557 106.845 29.2914C106.709 29.964 106.762 30.6614 106.999 31.3055C107.224 31.8749 107.578 32.3846 108.032 32.7945C108.485 33.1994 108.992 33.5387 109.539 33.8026C109.796 33.9315 110.068 34.0565 110.348 34.1873C110.116 34.1508 109.889 34.1065 109.673 34.0585C109.394 33.993 109.136 33.9238 108.904 33.8507C108.629 33.7641 108.463 33.6987 108.373 33.6583C108.131 33.5475 107.869 33.4886 107.603 33.4852C107.473 33.4835 107.344 33.5004 107.218 33.5352C106.784 33.6804 106.425 33.9917 106.22 34.4009L106.147 34.5221C105.875 34.3508 105.558 34.2651 105.237 34.2758H101.357L102.746 26.3884C102.826 26.0185 102.771 25.6319 102.59 25.2995C102.334 24.8744 101.884 24.6589 101.243 24.6589H98.725C98.3761 24.6431 98.0319 24.7448 97.7476 24.9478C97.4634 25.1508 97.2554 25.4433 97.1572 25.7785C97.1253 25.5484 97.0308 25.3315 96.884 25.1514C96.741 24.9887 96.5626 24.8609 96.3625 24.7779C96.1624 24.6948 95.9459 24.6587 95.7297 24.6724H90.5009C89.7913 24.6616 89.0861 24.7863 88.4232 25.0398C87.8404 25.2668 87.3082 25.6068 86.8573 26.0402C86.4375 26.4487 86.0959 26.9305 85.8492 27.4618C85.6191 27.9512 85.4541 28.4686 85.3587 29.0009L84.4603 34.0642C84.4603 33.8872 84.4718 33.7083 84.4603 33.5294C84.4401 33.1226 84.3564 32.7214 84.2121 32.3405C84.0885 32.0141 83.9166 31.708 83.7023 31.4325C83.8081 31.3152 83.9082 31.194 84.0063 31.0651C84.4217 30.5269 84.7039 29.898 84.8296 29.2298C84.9662 28.5622 84.9372 27.8713 84.745 27.2175C84.5622 26.6349 84.2236 26.1134 83.7658 25.7093C83.3119 25.3212 82.7748 25.0428 82.196 24.8955C81.6219 24.7465 81.0308 24.6734 80.4377 24.6781H75.8206C74.9972 24.6781 74.3759 24.9052 73.9699 25.3534C73.7841 25.5628 73.6364 25.803 73.5333 26.0633C73.5499 25.7359 73.4466 25.4138 73.2428 25.1572C73.0997 24.9946 72.9212 24.8669 72.7212 24.7838C72.5211 24.7008 72.3047 24.6646 72.0885 24.6781H66.8635C66.1533 24.6674 65.4475 24.7921 64.7839 25.0456C63.6435 25.4873 62.7201 26.3561 62.2099 27.4676C61.9804 27.957 61.8161 28.4744 61.7213 29.0066L60.719 34.6914C60.6348 35.1719 60.607 35.6607 60.6363 36.1477C60.6659 36.7214 60.8364 37.2791 61.1326 37.7713C61.4658 38.3059 61.9469 38.7323 62.5177 38.9987C63.2056 39.3051 63.9546 39.4492 64.707 39.42H70.1936C70.5162 39.425 70.8319 39.3267 71.0946 39.1394C71.3573 38.9522 71.5532 38.6858 71.6537 38.3792C71.6835 38.4486 71.7175 38.5161 71.7557 38.5812C72.2559 39.42 73.2947 39.42 73.6391 39.42H78.2561C78.9746 39.4209 79.6887 39.3085 80.3723 39.0872C81.0359 38.8687 81.6596 38.5438 82.2191 38.1253C82.7726 37.711 83.2481 37.2016 83.6234 36.6209C83.9255 36.1494 84.1515 35.6333 84.2929 35.0915C84.2541 35.4402 84.2451 35.7916 84.266 36.1419C84.2956 36.7157 84.4661 37.2733 84.7623 37.7656C85.0954 38.3002 85.5766 38.7265 86.1474 38.9929C86.8353 39.2991 87.5843 39.4433 88.3367 39.4142H93.8252C94.6178 39.4142 95.2257 38.8794 95.3642 38.0522L95.5912 36.7671C95.6717 37.1179 95.8074 37.4536 95.9933 37.7617C96.3236 38.297 96.8029 38.7243 97.3726 38.991C98.058 39.2989 98.8053 39.4438 99.5561 39.4142H104.75C105.037 39.4209 105.32 39.3474 105.567 39.2019C105.814 39.0564 106.016 38.8448 106.149 38.5909C106.811 38.9485 107.525 39.201 108.265 39.3392C109.157 39.5151 110.063 39.6053 110.972 39.6085C112.736 39.6085 114.211 39.2238 115.352 38.4543C116.574 37.6367 117.334 36.4132 117.615 34.8183C117.753 34.132 117.723 33.4223 117.526 32.7503C117.332 32.1401 116.993 31.5862 116.537 31.1362C116.093 30.7053 115.587 30.344 115.035 30.0647C115.135 30.0897 115.227 30.1166 115.325 30.1436C115.531 30.2119 115.745 30.2482 115.962 30.2513C116.16 30.2541 116.357 30.2155 116.539 30.1378C116.922 29.9451 117.228 29.6284 117.407 29.2394V29.2221L118.145 27.7523C118.339 27.452 118.457 27.1095 118.49 26.7539C118.511 26.4461 118.405 25.8593 117.626 25.4457ZM70.6957 34.2701H70.2859C71.0785 34.2701 71.6845 33.7353 71.8249 32.908L72.152 31.0612C72.2034 30.8523 72.2129 30.6352 72.1799 30.4225C72.1469 30.2098 72.072 30.0058 71.9596 29.8223L71.9308 29.7838C72.2071 29.7357 72.4636 29.6088 72.6695 29.4183C72.771 29.3201 72.8572 29.2073 72.9253 29.0836L71.9096 34.8434C71.8878 34.8126 71.8647 34.7818 71.8403 34.751C71.6985 34.5893 71.5218 34.4619 71.3235 34.3786C71.1251 34.2953 70.9105 34.2582 70.6957 34.2701ZM78.5832 34.2008C78.5342 34.2133 78.4836 34.2185 78.4331 34.2162H77.7271V34.197H78.5908L78.5832 34.2008ZM95.5951 34.6914C95.5951 34.751 95.5777 34.8106 95.5681 34.8703C95.5425 34.8281 95.5142 34.7876 95.4835 34.7491C95.3403 34.5866 95.1618 34.459 94.9618 34.3759C94.7618 34.2929 94.5454 34.2567 94.3292 34.2701H93.9195C94.712 34.2701 95.32 33.7353 95.4585 32.908L95.7836 31.0612C95.8355 30.852 95.8452 30.6345 95.8122 30.4215C95.7792 30.2084 95.704 30.0041 95.5912 29.8204L95.5623 29.7838C95.8386 29.7357 96.0952 29.6088 96.3011 29.4183C96.4073 29.3162 96.4969 29.198 96.5666 29.0682L95.5951 34.6914Z" fill="#CCCCCC"/>
<path d="M5.89357 35.7706C6.46167 32.6029 7.97224 29.6803 10.2278 27.3849C12.446 25.1478 15.2886 23.6336 18.3827 23.041C19.3166 22.8614 20.2654 22.7712 21.2164 22.7717C23.3326 22.7728 25.4255 23.213 27.3629 24.0644L28.4556 24.5492L30.8872 18.5124L29.7772 18.0988C27.3898 17.2066 24.8616 16.7504 22.313 16.7522C21.7166 16.7522 21.1228 16.7772 20.5315 16.8272C21.9005 14.7995 22.7839 12.4837 23.1132 10.0594C23.2158 9.28078 23.2614 8.49573 23.2498 7.71047C23.2313 6.93165 23.158 6.1551 23.0305 5.38656C22.8909 4.62185 22.6981 3.86782 22.4534 3.12997C22.2054 2.40558 21.9091 1.69861 21.5665 1.01383L21.076 0L17.7055 1.56018L18.1114 2.57593C18.3259 3.1157 18.5046 3.66902 18.6462 4.2323C18.7789 4.78951 18.8734 5.35513 18.929 5.92521C18.9754 6.49412 18.9825 7.06556 18.9502 7.63545C18.912 8.19898 18.833 8.75899 18.7136 9.31105C18.2361 11.4903 17.1124 13.4749 15.4893 15.0054C15.2906 15.1939 15.0847 15.3729 14.8718 15.5421C15.0523 15.0898 15.1457 14.6075 15.1469 14.1205C15.1568 13.3902 14.9667 12.6711 14.5971 12.0412C14.2276 11.4113 13.6926 10.8945 13.0503 10.5469C12.408 10.1993 11.6828 10.0341 10.9533 10.0693C10.2238 10.1044 9.51787 10.3385 8.91194 10.7462C8.30601 11.154 7.82323 11.7198 7.5159 12.3823C7.20858 13.0448 7.08845 13.7788 7.16851 14.5048C7.24858 15.2307 7.5258 15.9209 7.97013 16.5005C8.41446 17.0801 9.00895 17.5271 9.68917 17.793C9.20689 17.863 8.72021 17.8983 8.23288 17.8988C6.65742 17.899 5.10267 17.5397 3.68701 16.8484L2.59815 16.3136L0.00683594 22.3157L1.11878 22.7524C2.83473 23.4261 4.65172 23.8065 6.49379 23.8778L6.47263 23.9009C3.71496 27.0548 1.97189 30.9667 1.47083 35.1261C1.35317 36.1477 1.30945 37.1763 1.34001 38.2042C1.40641 40.2539 1.7866 42.2814 2.46734 44.2159C2.80834 45.1675 3.21325 46.095 3.67931 46.9919L4.19873 47.9981L7.55571 46.3436L7.10747 45.3298C6.77295 44.5799 6.48825 43.8087 6.25524 43.0213C5.80475 41.45 5.59778 39.8189 5.64156 38.1849C5.66755 37.3751 5.75177 36.5683 5.89357 35.7706Z" fill="#CCCCCC"/>
<path d="M22.9461 30.9035C23.2301 31.0301 23.4844 31.2149 23.6925 31.446C23.8821 31.6597 24.0314 31.9061 24.133 32.1732C24.2342 32.4407 24.2926 32.7224 24.3062 33.0081C24.3201 33.2965 24.302 33.5855 24.2523 33.8699C24.1577 34.4235 23.9522 34.9522 23.6482 35.4244C23.3482 35.8911 22.9663 36.2997 22.5209 36.6306C22.0626 36.9729 21.5511 37.2374 21.0069 37.4135C20.4378 37.5981 19.843 37.691 19.2447 37.6886H14.6277C14.141 37.6886 13.8447 37.5963 13.7351 37.4135C13.6254 37.2308 13.6062 36.9307 13.6793 36.5151L15.4588 26.4288C15.4971 26.1073 15.6243 25.8028 15.8262 25.5496C16.0032 25.3534 16.3341 25.2553 16.8189 25.2553H21.4359C21.9284 25.2502 22.4194 25.3104 22.8961 25.4342C23.3038 25.5351 23.6825 25.7293 24.0022 26.0017C24.3038 26.2678 24.5262 26.612 24.6448 26.9963C24.7788 27.4708 24.794 27.9709 24.689 28.4526C24.5975 28.9438 24.3889 29.4057 24.0811 29.7992C23.7822 30.2086 23.4008 30.5507 22.9615 30.8035L22.9461 30.9035ZM18.2136 29.8377H20.0662C20.3056 29.8366 20.541 29.7757 20.751 29.6607C20.8704 29.5862 20.9707 29.4847 21.0439 29.3644C21.117 29.2442 21.161 29.1085 21.1724 28.9682C21.2024 28.862 21.2065 28.7502 21.1844 28.6421C21.1623 28.5339 21.1146 28.4327 21.0454 28.3468C20.9645 28.2709 20.8686 28.2127 20.7639 28.176C20.6593 28.1392 20.5481 28.1247 20.4375 28.1333H18.5137L18.2136 29.8377ZM20.8299 33.6391C20.8647 33.4949 20.8683 33.345 20.8404 33.1994C20.8125 33.0537 20.7539 32.9157 20.6683 32.7946C20.501 32.5752 20.222 32.4656 19.8353 32.4656H17.75L17.3402 34.7934H19.4236C19.6296 34.7987 19.8345 34.762 20.0258 34.6856C20.327 34.56 20.57 34.3259 20.7068 34.0296C20.7634 33.9049 20.8048 33.7738 20.8299 33.6391Z" fill="black"/>
<path d="M34.8268 37.6885H29.3325C28.7572 37.714 28.1834 37.6108 27.653 37.3865C27.2808 37.2155 26.9656 36.941 26.745 36.5958C26.5456 36.2648 26.4319 35.8892 26.4141 35.5031C26.3892 35.1056 26.4118 34.7064 26.4815 34.3142L27.4838 28.6295C27.561 28.197 27.6949 27.7766 27.882 27.3791C28.0705 26.9737 28.3312 26.606 28.6515 26.294C28.9956 25.9676 29.4001 25.7114 29.8423 25.5399C30.3687 25.341 30.9283 25.2444 31.491 25.2552H36.7294C36.8718 25.2552 36.9602 25.2764 36.9949 25.3187C37.0276 25.3591 37.0276 25.4803 36.9949 25.6823L36.6428 27.6888C36.6324 27.803 36.5882 27.9115 36.5159 28.0004C36.4352 28.0605 36.3351 28.0885 36.235 28.0793H32.0027C31.8057 28.0739 31.6096 28.1072 31.4256 28.1774C31.2889 28.2303 31.1655 28.3124 31.0639 28.4179C30.9798 28.5109 30.9144 28.6194 30.8715 28.7372C30.8282 28.852 30.7953 28.9705 30.7734 29.0912L30.6426 29.8376H35.402C35.5444 29.8376 35.6309 29.8626 35.6656 29.9088C35.7019 30.0306 35.7019 30.1603 35.6656 30.282L35.3404 32.1288C35.2923 32.402 35.1481 32.5367 34.9307 32.5367H30.152L29.9173 33.8699C29.8784 34.0449 29.8732 34.2257 29.9019 34.4027C29.9228 34.5173 29.9834 34.6209 30.0731 34.6952C30.1656 34.7637 30.2744 34.8068 30.3886 34.8202C30.5283 34.8387 30.6691 34.8477 30.81 34.8471H35.3212C35.4636 34.8471 35.5501 34.8664 35.5848 34.9087C35.6194 34.951 35.6194 35.0703 35.5848 35.2723L35.2308 37.2788C35.182 37.552 35.0474 37.6885 34.8268 37.6885Z" fill="black"/>
<path d="M47.3838 28.087H44.3462L42.7148 37.3211C42.7041 37.4274 42.6642 37.5286 42.5994 37.6136C42.5494 37.6674 42.4243 37.6944 42.2146 37.6944H39.7041C39.4309 37.6944 39.3194 37.5693 39.3617 37.3211L40.9834 28.087H38.0247C37.7746 28.087 37.6745 27.9524 37.7226 27.6792L38.0728 25.69C38.1087 25.4874 38.1568 25.3662 38.217 25.3264C38.3102 25.2767 38.4157 25.2547 38.521 25.263H47.8821C47.9802 25.2517 48.0792 25.2741 48.1629 25.3264C48.2091 25.3668 48.2149 25.488 48.1783 25.69L47.8282 27.6792C47.8262 27.7353 47.8131 27.7905 47.7896 27.8414C47.7662 27.8924 47.7328 27.9382 47.6914 27.9762C47.65 28.0141 47.6016 28.0435 47.5487 28.0625C47.4959 28.0815 47.4399 28.0899 47.3838 28.087Z" fill="black"/>
<path d="M59.2318 37.2269C59.2397 37.3257 59.2279 37.4251 59.1972 37.5193C59.1664 37.6328 59.0433 37.6886 58.8317 37.6886H56.3731C56.2205 37.6923 56.0681 37.6774 55.9191 37.6443C55.8056 37.6136 55.7402 37.4808 55.7267 37.2442L55.5343 34.2777C55.5285 33.8885 55.4253 33.5069 55.2342 33.1677C55.0726 32.9369 54.7674 32.8214 54.3185 32.8214H52.9314L52.1408 37.3327C52.1313 37.4362 52.0926 37.535 52.0292 37.6174C51.9116 37.6809 51.777 37.7058 51.6444 37.6886H49.1339C48.8607 37.6886 48.7492 37.5693 48.7876 37.3327L50.7114 26.4288C50.7531 26.1141 50.8787 25.8164 51.075 25.5669C51.2546 25.3591 51.5867 25.2552 52.0715 25.2552H56.6001C57.9967 25.2552 58.9939 25.5759 59.5915 26.2171C60.1892 26.8584 60.3873 27.7497 60.186 28.8912C60.0786 29.516 59.8189 30.1047 59.4299 30.6053C59.0592 31.0923 58.5733 31.4796 58.016 31.7326V31.7672C58.1923 31.8481 58.3505 31.9637 58.4811 32.1072C58.6117 32.2506 58.7119 32.419 58.7759 32.6021C58.9057 33.0051 58.9808 33.4238 58.999 33.8468L59.2318 37.2269ZM56.6751 29.1624C56.7234 28.9265 56.6844 28.6811 56.5655 28.4718C56.4423 28.2583 56.1807 28.1524 55.7959 28.1524H53.7644L53.4028 30.2032H55.4285C55.7127 30.2028 55.9894 30.1126 56.2192 29.9454C56.345 29.8534 56.4505 29.7363 56.529 29.6016C56.6074 29.4668 56.6572 29.3173 56.6751 29.1624Z" fill="#D61F24"/>
<path d="M70.0017 37.6885H64.5151C63.9398 37.714 63.3661 37.6108 62.8357 37.3865C62.4628 37.2164 62.1474 36.9418 61.9276 36.5958C61.7282 36.2648 61.6145 35.8892 61.5968 35.5031C61.5718 35.1056 61.5944 34.7064 61.6641 34.3142L62.6664 28.6295C62.7436 28.197 62.8775 27.7766 63.0646 27.3791C63.2531 26.9737 63.5139 26.606 63.8341 26.294C64.1782 25.9676 64.5827 25.7114 65.0249 25.5399C65.5514 25.341 66.1109 25.2444 66.6736 25.2552H71.912C72.0544 25.2552 72.1429 25.2764 72.1756 25.3187C72.2083 25.361 72.2102 25.4803 72.1756 25.6823L71.8216 27.6888C71.8117 27.8028 71.7682 27.9112 71.6966 28.0004C71.6159 28.0605 71.5158 28.0885 71.4157 28.0793H67.1834C66.9864 28.0737 66.7903 28.107 66.6063 28.1774C66.4693 28.2308 66.3454 28.3128 66.2427 28.4179C66.1591 28.5113 66.0938 28.6197 66.0503 28.7372C66.0069 28.852 65.9741 28.9705 65.9522 29.0912L65.8214 29.8376H70.5808C70.7231 29.8376 70.8097 29.8626 70.8443 29.9088C70.8807 30.0306 70.8807 30.1603 70.8443 30.282L70.5173 32.1288C70.4711 32.402 70.3345 32.5367 70.1094 32.5367H65.3346L65.098 33.8699C65.0596 34.045 65.055 34.2259 65.0846 34.4027C65.1054 34.5173 65.166 34.6209 65.2558 34.6952C65.3482 34.7637 65.457 34.8068 65.5713 34.8202C65.7109 34.8387 65.8517 34.8477 65.9926 34.8471H70.5038C70.6462 34.8471 70.7327 34.8664 70.7674 34.9087C70.802 34.951 70.802 35.0703 70.7674 35.2723L70.4172 37.2788C70.3659 37.552 70.2274 37.6885 70.0017 37.6885Z" fill="#D61F24"/>
<path d="M81.7671 30.9035C82.0517 31.0301 82.3067 31.2149 82.5155 31.446C82.7044 31.6602 82.8536 31.9065 82.956 32.1732C83.0565 32.4408 83.1143 32.7225 83.1272 33.0081C83.1411 33.2965 83.1231 33.5855 83.0734 33.8699C82.9794 34.4234 82.7746 34.9521 82.4712 35.4244C82.1706 35.8906 81.7888 36.2992 81.3439 36.6306C80.8854 36.9725 80.3739 37.237 79.8299 37.4135C79.2608 37.598 78.666 37.6908 78.0677 37.6886H73.4507C72.9659 37.6886 72.6683 37.5969 72.558 37.4135C72.4484 37.2212 72.4311 36.9307 72.5042 36.5151L74.2817 26.4288C74.321 26.1075 74.4481 25.8033 74.6492 25.5496C74.8262 25.3534 75.1577 25.2553 75.6438 25.2553H80.2608C80.7533 25.2502 81.2443 25.3104 81.7209 25.4342C82.1291 25.5354 82.5084 25.7297 82.829 26.0017C83.1295 26.2684 83.3511 26.6124 83.4697 26.9963C83.6035 27.4707 83.6194 27.9707 83.5158 28.4526C83.4235 28.9439 83.2143 29.4058 82.906 29.7992C82.6074 30.2081 82.2267 30.5501 81.7883 30.8035L81.7671 30.9035ZM77.0346 29.8377H78.8815C79.1203 29.8365 79.355 29.7756 79.5644 29.6607C79.6837 29.5859 79.7841 29.4844 79.8575 29.3643C79.9309 29.2441 79.9755 29.1085 79.9876 28.9682C80.0174 28.8618 80.0212 28.7499 79.9988 28.6418C79.9764 28.5337 79.9283 28.4325 79.8587 28.3468C79.7781 28.2711 79.6826 28.213 79.5782 28.1762C79.4739 28.1394 79.363 28.1248 79.2527 28.1333H77.3424L77.0346 29.8377ZM79.651 33.6391C79.686 33.4951 79.6899 33.3452 79.6624 33.1996C79.6348 33.0539 79.5765 32.9158 79.4913 32.7946C79.3233 32.5752 79.045 32.4656 78.6564 32.4656H76.5729L76.1612 34.7934H78.2466C78.4525 34.7981 78.6573 34.7615 78.8488 34.6856C79.0064 34.6209 79.1491 34.5247 79.2681 34.4028C79.3762 34.2944 79.4647 34.1681 79.5298 34.0296C79.5858 33.9048 79.6265 33.7737 79.651 33.6391Z" fill="#D61F24"/>
<path d="M93.6402 37.6885H88.1517C87.577 37.714 87.0039 37.6108 86.4742 37.3865C86.101 37.2161 85.7851 36.9415 85.5642 36.5958C85.3656 36.2644 85.2519 35.8891 85.2333 35.5031C85.2103 35.1056 85.2329 34.7067 85.3007 34.3142L86.3029 28.6295C86.3802 28.197 86.5141 27.7766 86.7012 27.3791C86.8891 26.9734 87.15 26.6056 87.4707 26.294C87.8137 25.9672 88.2177 25.7109 88.6596 25.5399C89.186 25.341 89.7456 25.2444 90.3082 25.2552H95.5467C95.689 25.2552 95.7775 25.2764 95.8121 25.3187C95.8468 25.3591 95.8449 25.4803 95.8121 25.6823L95.4582 27.6888C95.4486 27.8032 95.4043 27.9119 95.3312 28.0004C95.2511 28.0602 95.1518 28.0882 95.0523 28.0793H90.82C90.623 28.0739 90.4269 28.1072 90.2428 28.1774C90.1065 28.2308 89.9831 28.3128 89.8812 28.4179C89.7963 28.5104 89.7309 28.619 89.6888 28.7372C89.6454 28.852 89.6126 28.9705 89.5907 29.0912L89.4579 29.8376H94.2173C94.3597 29.8376 94.4482 29.8626 94.4809 29.9088C94.5183 30.0304 94.5183 30.1604 94.4809 30.282L94.1558 32.1288C94.1077 32.402 93.9634 32.5367 93.746 32.5367H88.9712L88.7365 33.8699C88.6971 34.0449 88.6925 34.226 88.7231 34.4027C88.7432 34.5171 88.8032 34.6207 88.8923 34.6952C88.9848 34.7637 89.0935 34.8068 89.2078 34.8202C89.3475 34.8387 89.4883 34.8477 89.6291 34.8471H94.1404C94.2828 34.8471 94.3712 34.8664 94.4059 34.9087C94.4405 34.951 94.4386 35.0703 94.4059 35.2723L94.0538 37.2788C94.0038 37.552 93.8659 37.6885 93.6402 37.6885Z" fill="#D61F24"/>
<path d="M97.7077 37.3865C97.3363 37.2158 97.0223 36.9412 96.8036 36.5958C96.6055 36.2643 96.4925 35.8889 96.4746 35.5031C96.4513 35.1055 96.4745 34.7065 96.5438 34.3142L98.0598 25.6111C98.066 25.5554 98.0832 25.5014 98.1104 25.4524C98.1376 25.4034 98.1743 25.3602 98.2183 25.3255C98.2624 25.2908 98.3129 25.2652 98.3669 25.2501C98.4209 25.2351 98.4774 25.2309 98.533 25.2379H101.059C101.251 25.2379 101.374 25.2648 101.407 25.3187C101.438 25.4137 101.438 25.5161 101.407 25.6111L99.9509 33.8699C99.9124 34.045 99.9078 34.2259 99.9374 34.4027C99.9582 34.5173 100.019 34.6209 100.109 34.6952C100.202 34.7647 100.312 34.8078 100.428 34.8202C100.568 34.8387 100.708 34.8477 100.849 34.8471H105.064C105.162 34.8354 105.261 34.8571 105.345 34.9087C105.391 34.951 105.397 35.0703 105.36 35.2723L105.008 37.2788C105.006 37.335 104.993 37.3903 104.969 37.4414C104.946 37.4925 104.912 37.5384 104.871 37.5765C104.829 37.6146 104.78 37.6441 104.728 37.6633C104.675 37.6826 104.618 37.6911 104.562 37.6885H99.3679C98.799 37.7127 98.2318 37.6095 97.7077 37.3865Z" fill="#D61F24"/>
<path d="M107.795 28.9143C107.887 28.4012 108.061 27.9062 108.311 27.4484C108.569 26.9769 108.915 26.5585 109.329 26.2153C109.785 25.8414 110.307 25.5551 110.868 25.3707C111.539 25.1543 112.242 25.0497 112.947 25.061C113.671 25.0609 114.393 25.1292 115.104 25.2649C115.723 25.3674 116.32 25.5742 116.87 25.8767C117.062 25.9729 117.145 26.0691 117.143 26.1441C117.103 26.3208 117.031 26.4889 116.931 26.6404L116.202 28.116C116.137 28.2701 116.031 28.4033 115.895 28.5007C115.757 28.5328 115.613 28.52 115.483 28.4642C114.986 28.3197 114.481 28.2104 113.969 28.1371C113.479 28.0623 112.985 28.0231 112.489 28.0198C112.074 28.0198 111.789 28.0794 111.631 28.1987C111.486 28.2985 111.386 28.4511 111.352 28.6238C111.337 28.7078 111.342 28.7941 111.366 28.8759C111.39 28.9577 111.433 29.0328 111.491 29.0952C111.59 29.2045 111.705 29.2974 111.833 29.3703C112.04 29.4895 112.257 29.5905 112.482 29.6723C113.144 29.9455 113.735 30.2148 114.257 30.4803C114.728 30.7115 115.16 31.0139 115.539 31.3768C115.863 31.699 116.105 32.095 116.243 32.531C116.382 33.0254 116.4 33.5461 116.295 34.0489C116.068 35.3314 115.478 36.2933 114.525 36.9345C113.572 37.5758 112.326 37.8964 110.787 37.8964C109.952 37.8935 109.119 37.8104 108.299 37.6482C107.501 37.5048 106.742 37.1961 106.07 36.7421C106.025 36.7189 105.987 36.6849 105.959 36.6432C105.931 36.6016 105.913 36.5536 105.908 36.5036C105.925 36.36 105.976 36.2226 106.058 36.1035L107.049 34.4163C107.168 34.2143 107.27 34.1027 107.357 34.0777C107.489 34.0599 107.624 34.0849 107.742 34.1489C107.907 34.2201 108.126 34.297 108.384 34.3798C108.642 34.4625 108.932 34.5394 109.24 34.6106C109.548 34.6818 109.871 34.7414 110.202 34.7895C110.537 34.8359 110.874 34.8596 111.212 34.8607C111.444 34.8671 111.676 34.8399 111.901 34.7799C112.052 34.7394 112.196 34.6744 112.326 34.5875C112.423 34.5229 112.502 34.4349 112.557 34.3317C112.598 34.2528 112.627 34.1686 112.645 34.0816C112.662 33.9883 112.667 33.8933 112.661 33.7988C112.65 33.697 112.608 33.601 112.541 33.5237C112.436 33.4088 112.312 33.3126 112.174 33.239C111.946 33.1132 111.711 33.0033 111.468 32.91C110.891 32.6849 110.358 32.4521 109.867 32.2078C109.418 31.9919 109.001 31.7141 108.628 31.3825C108.304 31.0927 108.052 30.731 107.892 30.3264C107.728 29.8739 107.695 29.3848 107.795 28.9143Z" fill="#D61F24"/>
<path d="M10.9526 16.3366C12.5251 16.3366 13.7998 15.086 13.7998 13.5433C13.7998 12.0006 12.5251 10.75 10.9526 10.75C9.3802 10.75 8.10547 12.0006 8.10547 13.5433C8.10547 15.086 9.3802 16.3366 10.9526 16.3366Z" fill="black"/>
<path d="M4.51637 45.8858C3.61536 44.1849 2.9759 42.358 2.61954 40.4665C2.44748 39.5131 2.3427 38.5489 2.30596 37.5808C2.27678 36.6102 2.31792 35.6387 2.42908 34.674C2.77954 31.7259 3.79596 28.8961 5.40142 26.3988C7.00688 23.9014 9.15932 21.8019 11.6959 20.2592C12.5487 19.7385 13.4393 19.2826 14.3603 18.8952C14.8162 18.6875 15.2933 18.5336 15.7647 18.3585L16.4842 18.1373C16.6053 18.1007 16.7246 18.0623 16.8458 18.0296L17.2113 17.9391C21.1759 16.9408 25.3502 17.171 29.181 18.599L27.642 22.4292C24.6058 21.0907 21.2346 20.7063 17.9751 21.3269C14.6508 21.9632 11.5968 23.5901 9.21422 25.994C6.79484 28.4548 5.17487 31.5888 4.56639 34.9857C4.41631 35.8394 4.32759 36.7028 4.30091 37.5693C4.28475 38.4414 4.32846 39.3137 4.43173 40.1798C4.54838 41.0468 4.72385 41.9049 4.95692 42.7481C5.20569 43.5918 5.50966 44.4182 5.86686 45.2221L4.51637 45.8858Z" fill="#D61F24"/>
<path d="M20.3507 0.940674C20.6697 1.58029 20.9461 2.2403 21.178 2.91639C21.4007 3.5985 21.5755 4.29531 21.7012 5.00175C21.8164 5.71578 21.8807 6.43709 21.8936 7.16022C21.9573 10.8794 20.6022 14.4831 18.1038 17.2389C16.0595 19.4837 13.3835 21.0571 10.4279 21.752C7.40671 22.4582 4.24224 22.2301 1.35352 21.0979L2.98487 17.3139C5.08289 18.3375 7.44231 18.6998 9.75077 18.3527C12.1256 17.9906 14.3349 16.9174 16.0877 15.2747C17.8841 13.5824 19.1261 11.386 19.6505 8.97434C19.7808 8.36244 19.8676 7.74207 19.9102 7.1179C19.9467 6.49227 19.939 5.86484 19.8871 5.2403C19.8269 4.61254 19.7234 3.98968 19.5774 3.37617C19.4212 2.76021 19.2239 2.15543 18.9868 1.5659L20.3507 0.940674Z" fill="#D61F24"/>
</g>
<defs>
<clipPath id="clip0_4516_59226">
<rect width="118.487" height="48" fill="white" transform="translate(0.00683594)"/>
</clipPath>
</defs>
</svg>
