<svg width="128" height="44" viewBox="0 0 128 44" fill="none" xmlns="http://www.w3.org/2000/svg">
<g clip-path="url(#clip0_4516_107834)">
<mask id="mask0_4516_107834" style="mask-type:luminance" maskUnits="userSpaceOnUse" x="0" y="0" width="128" height="44">
<path d="M127.265 0H0.235352V44H127.265V0Z" fill="white"/>
</mask>
<g mask="url(#mask0_4516_107834)">
<path d="M0.235352 7.90891L5.97008 7.8905V15.4773L6.38431 15.2969L6.79853 15.1164C8.09276 14.6488 9.41644 14.415 10.7714 14.415C12.1264 14.415 13.4685 14.6488 14.7627 15.1164C16.022 15.5841 17.1542 16.2726 18.1612 17.1839C19.1554 18.0823 19.9286 19.1317 20.4809 20.3302C21.0442 21.5416 21.3259 22.8413 21.3259 24.2313C21.3259 25.6212 21.0497 26.9633 20.4993 28.1508C19.947 29.3382 19.1682 30.3913 18.1612 31.3155C17.1431 32.2378 16.0091 32.9282 14.7627 33.3829C13.5035 33.8745 12.1743 34.1193 10.7714 34.1193C8.93778 34.1193 7.20539 33.6885 5.5761 32.8251C3.94682 31.9745 2.65075 30.8 1.69343 29.3014C0.732423 27.8286 0.246398 26.1809 0.235352 24.3583V7.90891ZM7.4079 27.5414C8.35418 28.4637 9.47535 28.9258 10.7696 28.9258C12.0638 28.9258 13.2034 28.4637 14.1497 27.5414C15.1088 26.6191 15.5875 25.5163 15.5875 24.2331C15.5875 23.3936 15.3647 22.6278 14.9229 21.9319C14.4792 21.2249 13.8864 20.6616 13.1426 20.2418C12.4118 19.8221 11.6201 19.6122 10.7696 19.6122C9.91903 19.6122 9.15686 19.8221 8.41493 20.2418C7.67117 20.6616 7.07836 21.2249 6.63468 21.9319C6.191 22.6278 5.97008 23.3936 5.97008 24.2331C5.97008 25.5163 6.44874 26.6191 7.4079 27.5414Z" fill="#161616"/>
<path d="M27.7972 11.4492C27.534 11.8929 27.1731 12.2518 26.7184 12.528C26.2618 12.8041 25.7592 12.9422 25.2088 12.9422C24.6583 12.9422 24.1594 12.8097 23.7157 12.5464C23.2591 12.2703 22.9001 11.9057 22.6369 11.4492C22.3607 10.9705 22.2227 10.4605 22.2227 9.92113C22.2227 9.38172 22.3552 8.86624 22.6185 8.41151C22.9057 7.9439 23.272 7.57938 23.7157 7.31427C24.1594 7.05101 24.6565 6.91846 25.2088 6.91846C25.7611 6.91846 26.2637 7.05101 26.7184 7.31427C27.1621 7.57754 27.5211 7.9439 27.7972 8.41151C28.0605 8.86808 28.193 9.37067 28.193 9.92113C28.193 10.4716 28.0605 11.0055 27.7972 11.4492ZM28.1746 15.1349V33.5633H22.4399V15.1533L28.1746 15.1349Z" fill="#161616"/>
<path d="M32.8842 20.0263H29.0898L30.3841 15.0998H32.8823V8.01562L38.617 8.05245V15.0998H42.4279L41.1521 20.0263H38.617V26.1219C38.617 27.7512 39.6351 28.5668 41.6731 28.5668C42.3322 28.5668 42.8348 28.4894 43.1827 28.3329L41.5295 34.0493C41.2294 34.0971 40.9367 34.1211 40.6477 34.1211C38.9337 34.1211 37.5069 33.8449 36.3692 33.2945C35.2185 32.744 34.3496 31.91 33.7623 30.7962C33.175 29.6934 32.8805 28.2851 32.8805 26.5711V20.0263H32.8842Z" fill="#161616"/>
<path d="M44.084 33.5283V8.03403L49.8371 8.01562V22.1104H49.9089L55.8591 15.1348H62.6008L55.9493 23.0272L63.7698 33.5264H56.5973L49.8371 24.5018V33.5264H44.084V33.5283Z" fill="#161616"/>
<path d="M70.2435 11.4492C69.9802 11.8929 69.6194 12.2518 69.1647 12.528C68.71 12.8041 68.2055 12.9422 67.6551 12.9422C67.1046 12.9422 66.6057 12.8097 66.162 12.5464C65.7073 12.2703 65.3464 11.9057 65.0832 11.4492C64.807 10.9705 64.6689 10.4605 64.6689 9.92113C64.6689 9.38172 64.8015 8.86624 65.0648 8.41151C65.352 7.9439 65.7183 7.57938 66.162 7.31427C66.6057 7.05101 67.1028 6.91846 67.6551 6.91846C68.2074 6.91846 68.71 7.05101 69.1647 7.31427C69.6084 7.57754 69.9674 7.9439 70.2435 8.41151C70.5068 8.86808 70.6393 9.37067 70.6393 9.92113C70.6393 10.4716 70.5068 11.0055 70.2435 11.4492ZM70.6209 15.1349V33.5633H64.8862V15.1533L70.6209 15.1349Z" fill="#161616"/>
<path d="M79.4848 19.5938C78.0231 19.6545 77.2922 20.6726 77.2922 22.6498V33.5265H71.5391V22.6498C71.5391 17.4122 74.1883 14.6617 79.4848 14.3984H79.8089C85.1073 14.6617 87.7546 17.4122 87.7546 22.6498V33.5265H82.0015V22.6498C82.0015 20.6726 81.2706 19.6545 79.8089 19.5938H79.4848Z" fill="#161616"/>
<path d="M108.737 24.3767L108.719 34.1211V35.4521C108.719 37.8141 107.879 39.8319 106.202 41.5109C105.423 42.2896 104.38 42.9064 103.074 43.3629C101.852 43.7937 100.64 44.011 99.4419 44.011H98.4349C95.7029 43.9502 93.5268 43.1181 91.9086 41.5127C90.8187 40.3989 90.1578 39.4213 89.9313 38.5818L95.4157 35.3988C95.4764 36.345 95.8538 37.1477 96.5479 37.8086C97.2438 38.4677 98.0704 38.7972 99.0296 38.7972C99.7844 38.7972 100.473 38.5818 101.097 38.1492C101.708 37.7295 102.146 37.19 102.41 36.531L102.428 36.4592L102.465 36.369C102.489 36.2843 102.513 36.2014 102.537 36.1167C102.585 35.9731 102.614 35.8295 102.627 35.6859V35.6326L102.645 35.5792L102.664 35.5074V35.3988H102.682V33.5117L102.539 33.5835L102.395 33.6369C101.196 34.1285 99.9372 34.3733 98.619 34.3733C96.8682 34.3733 95.2334 33.9352 93.7109 33.0607C92.1884 32.2101 90.966 31.0172 90.0436 29.4836C89.1213 27.95 88.6592 26.2416 88.6592 24.3601C88.6592 22.9333 88.928 21.6152 89.4674 20.4056C89.9829 19.2071 90.7137 18.1412 91.66 17.2059C92.5824 16.3186 93.6501 15.63 94.8597 15.1385C96.0821 14.647 97.334 14.4021 98.6172 14.4021C100.847 14.4021 102.5 14.6893 103.579 15.2655C107.018 16.7402 108.739 19.7778 108.739 24.3803L108.737 24.3767ZM95.7029 27.5598C96.6491 28.4821 97.7409 28.9442 98.9743 28.9442C100.208 28.9442 101.318 28.4821 102.264 27.5598C103.199 26.6485 103.667 25.5531 103.667 24.2699C103.667 23.4543 103.452 22.6885 103.019 21.9686C102.586 21.2488 102.012 20.6854 101.292 20.2786C100.561 19.8717 99.7881 19.6674 98.9725 19.6674C98.1569 19.6674 97.3966 19.8717 96.6896 20.2786C95.9698 20.6854 95.3899 21.2488 94.9462 21.9686C94.5154 22.6885 94.2982 23.4543 94.2982 24.2699C94.2982 25.5531 94.7658 26.6485 95.701 27.5598H95.7029Z" fill="#161616"/>
<path d="M119.271 28.3312H127.343L125.959 33.5265H109.635L117.761 19.9344H111.109L112.26 15.1165H127.093L119.272 28.3312H119.271Z" fill="#161616"/>
<path d="M87.0282 5.3182L86.9005 8.11523C86.8867 8.21082 86.9019 8.30857 86.9434 8.39558C86.9866 8.4826 87.0538 8.55518 87.1379 8.60216L89.5198 9.94578C89.5858 9.98336 89.6572 10.0044 89.7327 10.009C89.8081 10.0135 89.882 9.99963 89.9505 9.96911C90.0188 9.9386 90.0801 9.89326 90.1268 9.83488C90.1754 9.77652 90.2075 9.70877 90.2248 9.63531L90.6788 6.97455C90.7019 6.86804 90.6904 6.75928 90.6436 6.66117C90.5968 6.56305 90.5186 6.48482 90.4216 6.43769L87.7118 4.95226C87.644 4.91833 87.5687 4.90275 87.4933 4.90373C87.4178 4.90471 87.344 4.92411 87.2771 4.96017C87.2105 4.99624 87.1529 5.04713 87.1098 5.10924C87.0667 5.17134 87.0384 5.24282 87.0282 5.3182Z" fill="#FFE001"/>
<path d="M102.989 2.23054L104.153 4.78458C104.2 4.86798 104.221 4.96211 104.215 5.05777C104.208 5.15345 104.172 5.24323 104.112 5.31805L102.403 7.45448C102.356 7.51286 102.297 7.56005 102.228 7.59241C102.16 7.62478 102.086 7.63866 102.011 7.63595C101.935 7.63509 101.862 7.61401 101.796 7.57827C101.73 7.54254 101.674 7.49217 101.63 7.42908L100.217 5.12994C100.155 5.04087 100.125 4.93372 100.132 4.82518C100.139 4.71663 100.182 4.61403 100.255 4.53386L102.215 2.1462C102.266 2.08972 102.33 2.04628 102.401 2.01945C102.471 1.99265 102.549 1.98248 102.622 1.99068C102.698 1.99891 102.769 2.02551 102.833 2.06673C102.897 2.10797 102.95 2.1638 102.988 2.22868L102.989 2.23054Z" fill="#FFE001"/>
<path d="M109.016 2.36022C104.587 4.56869 101.983 9.10124 101.983 9.10124C96.8982 0.371465 94.7284 0.134949 94.3377 0.176513L94.2915 0.185192C93.9128 0.291335 91.9882 1.32063 90.5244 11.3141C90.5244 11.3141 86.4172 8.07836 81.4855 7.68142C81.4855 7.68142 79.5951 7.48123 80.2822 8.57902C80.2822 8.57902 85.7678 14.9549 88.5091 18.1971C88.5091 18.1971 89.0308 18.6136 89.3983 18.1926C89.6483 17.9064 92.1316 14.2267 96.8575 13.454L96.9035 13.4453C101.577 12.3996 105.253 14.8884 105.592 15.0598C106.092 15.3141 106.42 14.7324 106.42 14.7324C107.755 10.7027 110.468 2.7395 110.468 2.7395C110.694 1.46619 109.016 2.36022 109.016 2.36022Z" fill="#FFE001"/>
</g>
</g>
<defs>
<clipPath id="clip0_4516_107834">
<rect width="127.029" height="44" fill="white" transform="translate(0.235352)"/>
</clipPath>
</defs>
</svg>
