<svg width="128" height="44" viewBox="0 0 128 44" fill="none" xmlns="http://www.w3.org/2000/svg">
<g clip-path="url(#clip0_4552_19289)">
<mask id="mask0_4552_19289" style="mask-type:luminance" maskUnits="userSpaceOnUse" x="0" y="0" width="128" height="44">
<path d="M127.266 0H0.236328V44H127.266V0Z" fill="white"/>
</mask>
<g mask="url(#mask0_4552_19289)">
<path d="M0.236328 7.90891L5.97106 7.8905V15.4773L6.38528 15.2969L6.79951 15.1164C8.09373 14.6488 9.41742 14.415 10.7724 14.415C12.1274 14.415 13.4695 14.6488 14.7637 15.1164C16.0229 15.5841 17.1552 16.2726 18.1622 17.1839C19.1563 18.0823 19.9296 19.1317 20.4819 20.3302C21.0452 21.5416 21.3269 22.8413 21.3269 24.2313C21.3269 25.6212 21.0507 26.9633 20.5003 28.1508C19.948 29.3382 19.1692 30.3913 18.1622 31.3155C17.1441 32.2378 16.0101 32.9282 14.7637 33.3829C13.5044 33.8745 12.1752 34.1193 10.7724 34.1193C8.93876 34.1193 7.20637 33.6885 5.57708 32.8251C3.94779 31.9745 2.65173 30.8 1.6944 29.3014C0.733399 27.8286 0.247374 26.1809 0.236328 24.3583V7.90891ZM7.40888 27.5414C8.35516 28.4637 9.47633 28.9258 10.7706 28.9258C12.0648 28.9258 13.2044 28.4637 14.1506 27.5414C15.1098 26.6191 15.5885 25.5163 15.5885 24.2331C15.5885 23.3936 15.3657 22.6278 14.9239 21.9319C14.4802 21.2249 13.8874 20.6616 13.1436 20.2418C12.4127 19.8221 11.6211 19.6122 10.7706 19.6122C9.92001 19.6122 9.15784 19.8221 8.41591 20.2418C7.67214 20.6616 7.07934 21.2249 6.63566 21.9319C6.19198 22.6278 5.97106 23.3936 5.97106 24.2331C5.97106 25.5163 6.44972 26.6191 7.40888 27.5414Z" fill="white"/>
<path d="M27.7972 11.4492C27.534 11.8929 27.1731 12.2518 26.7184 12.528C26.2618 12.8041 25.7592 12.9422 25.2088 12.9422C24.6583 12.9422 24.1594 12.8097 23.7157 12.5464C23.2591 12.2703 22.9001 11.9057 22.6369 11.4492C22.3607 10.9705 22.2227 10.4605 22.2227 9.92113C22.2227 9.38172 22.3552 8.86624 22.6185 8.41151C22.9057 7.9439 23.272 7.57938 23.7157 7.31427C24.1594 7.05101 24.6565 6.91846 25.2088 6.91846C25.7611 6.91846 26.2637 7.05101 26.7184 7.31427C27.1621 7.57754 27.5211 7.9439 27.7972 8.41151C28.0605 8.86808 28.193 9.37067 28.193 9.92113C28.193 10.4716 28.0605 11.0055 27.7972 11.4492ZM28.1746 15.1349V33.5633H22.4399V15.1533L28.1746 15.1349Z" fill="white"/>
<path d="M32.8842 20.0263H29.0898L30.3841 15.0998H32.8823V8.01562L38.617 8.05245V15.0998H42.4279L41.1521 20.0263H38.617V26.1219C38.617 27.7512 39.6351 28.5668 41.6731 28.5668C42.3322 28.5668 42.8348 28.4894 43.1827 28.3329L41.5295 34.0493C41.2294 34.0971 40.9367 34.1211 40.6477 34.1211C38.9337 34.1211 37.5069 33.8449 36.3692 33.2945C35.2185 32.744 34.3496 31.91 33.7623 30.7962C33.175 29.6934 32.8805 28.2851 32.8805 26.5711V20.0263H32.8842Z" fill="white"/>
<path d="M44.0859 33.5283V8.03403L49.8391 8.01562V22.1104H49.9109L55.861 15.1348H62.6028L55.9512 23.0272L63.7718 33.5264H56.5992L49.8391 24.5018V33.5264H44.0859V33.5283Z" fill="white"/>
<path d="M70.2445 11.4492C69.9812 11.8929 69.6204 12.2518 69.1657 12.528C68.7109 12.8041 68.2065 12.9422 67.656 12.9422C67.1056 12.9422 66.6067 12.8097 66.163 12.5464C65.7083 12.2703 65.3474 11.9057 65.0841 11.4492C64.808 10.9705 64.6699 10.4605 64.6699 9.92113C64.6699 9.38172 64.8025 8.86624 65.0657 8.41151C65.3529 7.9439 65.7193 7.57938 66.163 7.31427C66.6067 7.05101 67.1037 6.91846 67.656 6.91846C68.2083 6.91846 68.7109 7.05101 69.1657 7.31427C69.6093 7.57754 69.9683 7.9439 70.2445 8.41151C70.5077 8.86808 70.6403 9.37067 70.6403 9.92113C70.6403 10.4716 70.5077 11.0055 70.2445 11.4492ZM70.6219 15.1349V33.5633H64.8872V15.1533L70.6219 15.1349Z" fill="white"/>
<path d="M79.4868 19.5938C78.025 19.6545 77.2942 20.6726 77.2942 22.6498V33.5265H71.541V22.6498C71.541 17.4122 74.1902 14.6617 79.4868 14.3984H79.8108C85.1092 14.6617 87.7566 17.4122 87.7566 22.6498V33.5265H82.0034V22.6498C82.0034 20.6726 81.2726 19.6545 79.8108 19.5938H79.4868Z" fill="white"/>
<path d="M108.738 24.3767L108.72 34.1211V35.4521C108.72 37.8141 107.88 39.8319 106.203 41.5109C105.424 42.2896 104.38 42.9064 103.075 43.3629C101.853 43.7937 100.641 44.011 99.4429 44.011H98.4359C95.7038 43.9502 93.5278 43.1181 91.9095 41.5127C90.8197 40.3989 90.1587 39.4213 89.9323 38.5818L95.4166 35.3988C95.4774 36.345 95.8548 37.1477 96.5489 37.8086C97.2448 38.4677 98.0714 38.7972 99.0305 38.7972C99.7853 38.7972 100.474 38.5818 101.098 38.1492C101.709 37.7295 102.147 37.19 102.411 36.531L102.429 36.4592L102.466 36.369C102.49 36.2843 102.514 36.2014 102.538 36.1167C102.586 35.9731 102.615 35.8295 102.628 35.6859V35.6326L102.646 35.5792L102.665 35.5074V35.3988H102.683V33.5117L102.539 33.5835L102.396 33.6369C101.197 34.1285 99.9382 34.3733 98.62 34.3733C96.8692 34.3733 95.2344 33.9352 93.7119 33.0607C92.1894 32.2101 90.9669 31.0172 90.0446 29.4836C89.1223 27.95 88.6602 26.2416 88.6602 24.3601C88.6602 22.9333 88.9289 21.6152 89.4684 20.4056C89.9838 19.2071 90.7147 18.1412 91.661 17.2059C92.5833 16.3186 93.6511 15.63 94.8607 15.1385C96.0831 14.647 97.335 14.4021 98.6182 14.4021C100.848 14.4021 102.501 14.6893 103.58 15.2655C107.019 16.7402 108.74 19.7778 108.74 24.3803L108.738 24.3767ZM95.7038 27.5598C96.6501 28.4821 97.7418 28.9442 98.9753 28.9442C100.209 28.9442 101.319 28.4821 102.265 27.5598C103.2 26.6485 103.668 25.5531 103.668 24.2699C103.668 23.4543 103.453 22.6885 103.02 21.9686C102.587 21.2488 102.013 20.6854 101.293 20.2786C100.562 19.8717 99.789 19.6674 98.9735 19.6674C98.1579 19.6674 97.3976 19.8717 96.6906 20.2786C95.9708 20.6854 95.3909 21.2488 94.9472 21.9686C94.5164 22.6885 94.2992 23.4543 94.2992 24.2699C94.2992 25.5531 94.7668 26.6485 95.702 27.5598H95.7038Z" fill="white"/>
<path d="M119.273 28.3312H127.345L125.961 33.5265H109.637L117.763 19.9344H111.111L112.262 15.1165H127.095L119.274 28.3312H119.273Z" fill="white"/>
<path d="M87.0292 5.3182L86.9014 8.11523C86.8876 8.21082 86.9029 8.30857 86.9443 8.39558C86.9876 8.4826 87.0548 8.55518 87.1389 8.60216L89.5208 9.94578C89.5867 9.98336 89.6582 10.0044 89.7336 10.009C89.8091 10.0135 89.8829 9.99963 89.9514 9.96911C90.0197 9.9386 90.081 9.89326 90.1278 9.83488C90.1764 9.77652 90.2084 9.70877 90.2257 9.63531L90.6797 6.97455C90.7029 6.86804 90.6913 6.75928 90.6446 6.66117C90.5978 6.56305 90.5196 6.48482 90.4225 6.43769L87.7128 4.95226C87.645 4.91833 87.5697 4.90275 87.4942 4.90373C87.4188 4.90471 87.3449 4.92411 87.2781 4.96017C87.2115 4.99624 87.1538 5.04713 87.1108 5.10924C87.0677 5.17134 87.0393 5.24282 87.0292 5.3182Z" fill="#FFE001"/>
<path d="M102.991 2.23054L104.155 4.78458C104.202 4.86798 104.223 4.96211 104.217 5.05777C104.21 5.15345 104.174 5.24323 104.114 5.31805L102.405 7.45448C102.358 7.51286 102.299 7.56005 102.23 7.59241C102.162 7.62478 102.088 7.63866 102.013 7.63595C101.937 7.63509 101.864 7.61401 101.798 7.57827C101.732 7.54254 101.676 7.49217 101.632 7.42908L100.219 5.12994C100.157 5.04087 100.127 4.93372 100.134 4.82518C100.141 4.71663 100.184 4.61403 100.257 4.53386L102.217 2.1462C102.268 2.08972 102.332 2.04628 102.403 2.01945C102.473 1.99265 102.551 1.98248 102.624 1.99068C102.7 1.99891 102.771 2.02551 102.835 2.06673C102.899 2.10797 102.952 2.1638 102.989 2.22868L102.991 2.23054Z" fill="#FFE001"/>
<path d="M109.017 2.36022C104.588 4.56869 101.984 9.10124 101.984 9.10124C96.8992 0.371465 94.7294 0.134949 94.3387 0.176513L94.2925 0.185192C93.9138 0.291335 91.9892 1.32063 90.5254 11.3141C90.5254 11.3141 86.4181 8.07836 81.4865 7.68142C81.4865 7.68142 79.5961 7.48123 80.2832 8.57902C80.2832 8.57902 85.7688 14.9549 88.5101 18.1971C88.5101 18.1971 89.0318 18.6136 89.3993 18.1926C89.6493 17.9064 92.1326 14.2267 96.8585 13.454L96.9045 13.4453C101.578 12.3996 105.254 14.8884 105.593 15.0598C106.093 15.3141 106.421 14.7324 106.421 14.7324C107.756 10.7027 110.469 2.7395 110.469 2.7395C110.695 1.46619 109.017 2.36022 109.017 2.36022Z" fill="#FFE001"/>
</g>
</g>
<defs>
<clipPath id="clip0_4552_19289">
<rect width="127.029" height="44" fill="white" transform="translate(0.236328)"/>
</clipPath>
</defs>
</svg>
