<svg width="191" height="32" viewBox="0 0 191 32" fill="none" xmlns="http://www.w3.org/2000/svg">
<g clip-path="url(#clip0_4600_1923)">
<path d="M54.2396 9.35849L49.292 23.3499L35.1172 20.9856L39.8753 6.90161L54.2396 9.35849Z" fill="url(#paint0_linear_4600_1923)"/>
<path d="M39.8753 6.90159L35.1172 20.9855L28.7441 12.9512L33.1202 0L39.8753 6.90159Z" fill="url(#paint1_linear_4600_1923)"/>
<path d="M54.2395 9.35846L39.8752 6.90159L33.1201 0L46.9129 2.08037L54.2395 9.35846Z" fill="url(#paint2_linear_4600_1923)"/>
<path d="M34.8796 19.237L23.1801 30.2993L12.7617 16.6397L24.4644 5.48169L30.3173 13.2129L30.9081 13.9914L34.8796 19.237Z" fill="url(#paint3_linear_4600_1923)"/>
<path d="M24.4641 5.48169L12.7614 16.6397L0.0634766 18.5287L12.3344 6.90157L24.4641 5.48169Z" fill="url(#paint4_linear_4600_1923)"/>
<path d="M23.1798 30.2994L10.7644 32L0.0634766 18.5287L12.7614 16.6398L23.1798 30.2994Z" fill="url(#paint5_linear_4600_1923)"/>
<path d="M49.5168 11.1134C48.8683 10.9889 48.2198 11.5218 48.0689 12.3035C47.918 13.0853 48.3193 13.8191 48.9678 13.9436C49.6164 14.068 50.2649 13.5351 50.4158 12.7534C50.5667 11.9717 50.1654 11.2378 49.5168 11.1134Z" fill="url(#paint6_linear_4600_1923)"/>
<path d="M44.9514 13.6213C44.3029 13.4969 43.6543 14.0297 43.5034 14.8115C43.3525 15.5932 43.7539 16.3271 44.4024 16.4515C45.0509 16.5759 45.6995 16.0431 45.8504 15.2613C46.0013 14.4796 45.6 13.7457 44.9514 13.6213Z" fill="url(#paint7_linear_4600_1923)"/>
<path d="M40.6682 16.7865C40.0197 16.662 39.3711 17.1949 39.2202 17.9766C39.0693 18.7583 39.4707 19.4922 40.1192 19.6167C40.7677 19.7411 41.4163 19.2082 41.5672 18.4265C41.7181 17.6448 41.3168 16.9109 40.6682 16.7865Z" fill="url(#paint8_linear_4600_1923)"/>
<path d="M45.0589 5.08785C45.1886 4.71847 44.63 4.18894 43.8113 3.90513C42.9926 3.62131 42.2238 3.69068 42.0941 4.06006C41.9645 4.42944 42.5231 4.95896 43.3418 5.24278C44.1605 5.52659 44.9293 5.45723 45.0589 5.08785Z" fill="url(#paint9_linear_4600_1923)"/>
<path d="M34.4653 5.35086C34.7639 4.55317 34.6932 3.79378 34.308 3.65019C33.9227 3.50661 33.3673 4.03627 33.0687 4.83396C32.7701 5.63165 32.8407 6.39104 33.226 6.53463C33.6113 6.67821 34.1667 6.14855 34.4653 5.35086Z" fill="url(#paint10_linear_4600_1923)"/>
<path d="M37.4291 7.02605C37.0438 6.88246 36.4883 7.41213 36.1898 8.20981C35.8912 9.0075 35.9618 9.7669 36.3471 9.91048C36.7324 10.0541 37.2878 9.5244 37.5864 8.72671C37.885 7.92903 37.8143 7.16963 37.4291 7.02605Z" fill="url(#paint11_linear_4600_1923)"/>
<path d="M31.7397 11.1038C31.3544 10.9602 30.8022 11.4899 30.5036 12.2844C30.3816 12.613 30.3206 12.9385 30.3174 13.2129L30.9081 13.9914C31.2549 13.9021 31.6594 13.4362 31.897 12.8013C32.1956 12.0068 32.125 11.2442 31.7397 11.1038Z" fill="url(#paint12_linear_4600_1923)"/>
<path d="M34.9056 14.4795C34.5203 14.336 33.9649 14.8656 33.6663 15.6633C33.3677 16.461 33.4384 17.2204 33.8236 17.364C34.2089 17.5076 34.7644 16.9779 35.0629 16.1802C35.3615 15.3825 35.2909 14.6231 34.9056 14.4795Z" fill="url(#paint13_linear_4600_1923)"/>
<path d="M34.7192 10.6125C35.0178 9.81477 34.9471 9.05537 34.5619 8.91179C34.1766 8.76821 33.6212 9.29787 33.3226 10.0956C33.024 10.8932 33.0946 11.6526 33.4799 11.7962C33.8652 11.9398 34.4206 11.4101 34.7192 10.6125Z" fill="url(#paint14_linear_4600_1923)"/>
<path d="M11.2137 14.0074C10.3982 14.6583 9.923 15.4177 10.1542 15.7016C10.3853 15.9856 11.2329 15.6889 12.0484 15.038C12.8639 14.3871 13.3391 13.6277 13.1079 13.3437C12.8768 13.0597 12.0292 13.3564 11.2137 14.0074Z" fill="url(#paint15_linear_4600_1923)"/>
<path d="M14.4849 8.28631C14.2537 8.00234 13.4061 8.29908 12.5906 8.94999C11.7751 9.6009 11.2999 10.3603 11.5311 10.6443C11.7623 10.9283 12.6099 10.6315 13.4254 9.9806C14.2409 9.32969 14.716 8.57029 14.4849 8.28631Z" fill="url(#paint16_linear_4600_1923)"/>
<path d="M24.2262 13.7075C25.0933 13.7075 25.7962 12.9247 25.7962 11.959C25.7962 10.9933 25.0933 10.2104 24.2262 10.2104C23.3592 10.2104 22.6562 10.9933 22.6562 11.959C22.6562 12.9247 23.3592 13.7075 24.2262 13.7075Z" fill="url(#paint17_linear_4600_1923)"/>
<path d="M29.1257 20.1368C29.9927 20.1368 30.6956 19.354 30.6956 18.3883C30.6956 17.4226 29.9927 16.6398 29.1257 16.6398C28.2586 16.6398 27.5557 17.4226 27.5557 18.3883C27.5557 19.354 28.2586 20.1368 29.1257 20.1368Z" fill="url(#paint18_linear_4600_1923)"/>
<path d="M18.5182 19.0488C19.3853 19.0488 20.0882 18.266 20.0882 17.3003C20.0882 16.3346 19.3853 15.5518 18.5182 15.5518C17.6511 15.5518 16.9482 16.3346 16.9482 17.3003C16.9482 18.266 17.6511 19.0488 18.5182 19.0488Z" fill="url(#paint19_linear_4600_1923)"/>
<path d="M23.4655 25.4781C24.3326 25.4781 25.0355 24.6953 25.0355 23.7296C25.0355 22.7639 24.3326 21.9811 23.4655 21.9811C22.5984 21.9811 21.8955 22.7639 21.8955 23.7296C21.8955 24.6953 22.5984 25.4781 23.4655 25.4781Z" fill="url(#paint20_linear_4600_1923)"/>
<path d="M9.80162 18.9275C9.46451 19.1795 9.62504 19.9517 10.1548 20.6505C10.6845 21.3493 11.3877 21.7162 11.7248 21.4641C12.0619 21.2121 11.9014 20.4399 11.3716 19.7411C10.8419 19.0392 10.1387 18.6754 9.80162 18.9275Z" fill="url(#paint21_linear_4600_1923)"/>
<path d="M12.8456 22.852C12.5085 23.1041 12.669 23.8763 13.1987 24.575C13.7285 25.2738 14.4316 25.6408 14.7687 25.3887C15.1058 25.1366 14.9453 24.3645 14.4156 23.6657C13.8858 22.9637 13.1827 22.6 12.8456 22.852Z" fill="url(#paint22_linear_4600_1923)"/>
<path d="M17.648 27.8264C17.1182 27.1245 16.4151 26.7607 16.078 27.0128C15.7409 27.2649 15.9014 28.037 16.4312 28.7358C16.9609 29.4378 17.664 29.8015 18.0011 29.5494C18.3383 29.2974 18.1777 28.5252 17.648 27.8264Z" fill="url(#paint23_linear_4600_1923)"/>
<path d="M5.80748 19.5433C5.47037 19.7954 5.6309 20.5676 6.16065 21.2663C6.6904 21.9683 7.39352 22.332 7.73064 22.08C8.06775 21.8279 7.90722 21.0557 7.37747 20.357C6.84772 19.655 6.1446 19.2913 5.80748 19.5433Z" fill="url(#paint24_linear_4600_1923)"/>
<path d="M8.85143 23.4647C8.51432 23.7168 8.67485 24.489 9.2046 25.1877C9.73435 25.8897 10.4375 26.2534 10.7746 26.0014C11.1117 25.7493 10.9512 24.9771 10.4214 24.2784C9.89167 23.5796 9.18854 23.2127 8.85143 23.4647Z" fill="url(#paint25_linear_4600_1923)"/>
<path d="M12.0839 27.6255C11.7467 27.8776 11.9073 28.6497 12.437 29.3485C12.9668 30.0505 13.6699 30.4142 14.007 30.1621C14.3441 29.9101 14.1836 29.1379 13.6538 28.4391C13.1241 27.7404 12.421 27.3734 12.0839 27.6255Z" fill="url(#paint26_linear_4600_1923)"/>
<path d="M27.4014 9.368C20.993 14.6774 19.0217 23.353 18.7809 24.54L12.7578 16.6429L24.4605 5.48486L27.4014 9.368Z" fill="url(#paint27_linear_4600_1923)"/>
<g filter="url(#filter0_d_4600_1923)">
<path d="M51.0964 24.8016H41.4164V15.006H51.0964V17.9638L54.5157 17.4788V15.4048C54.5157 14.9645 54.4707 14.5625 54.3808 14.2019C54.2909 13.8414 54.1111 13.5287 53.8382 13.2639C53.5653 12.999 53.164 12.798 52.6407 12.6576C52.1141 12.5172 51.4174 12.447 50.5442 12.447H41.7086C41.0729 12.447 40.5174 12.4949 40.0423 12.5906C39.5671 12.6863 39.1754 12.8586 38.864 13.1075C38.5525 13.3596 38.3214 13.701 38.1641 14.1349C38.01 14.5689 37.9297 15.1304 37.9297 15.8228V24.0741C37.9297 24.5304 37.9746 24.9643 38.0645 25.3759C38.1544 25.7875 38.315 26.1481 38.5525 26.4576C38.7901 26.7671 39.1112 27.0096 39.5189 27.1851C39.9267 27.3606 40.4468 27.4499 41.0857 27.4499H50.6533C51.1863 27.4499 51.6903 27.4212 52.1623 27.3606C52.6375 27.3031 53.0516 27.1723 53.4048 26.9745C53.7612 26.7767 54.0405 26.4767 54.2492 26.0811C54.4579 25.6822 54.5606 25.1558 54.5606 24.4921V22.2649L51.0964 21.5375V24.8048V24.8016Z" fill="url(#paint28_linear_4600_1923)"/>
<path d="M50.5409 12.7629C51.3821 12.7629 52.0596 12.8299 52.5572 12.9607C53.026 13.0852 53.3823 13.2639 53.6167 13.4872C53.8479 13.7106 53.9988 13.969 54.0726 14.2721C54.1561 14.6072 54.1978 14.9869 54.1978 15.3985V17.1949L51.4207 17.5905V14.6837H41.0986V25.1175H51.4207V21.9267L54.2428 22.5202V24.4889C54.2428 25.0951 54.1497 25.5801 53.9667 25.9311C53.7869 26.2757 53.5525 26.5246 53.2507 26.6937C52.9328 26.8724 52.554 26.9873 52.1238 27.0415C51.6647 27.0989 51.1702 27.1276 50.6533 27.1276H41.0857C40.495 27.1276 40.0134 27.0479 39.6474 26.8883C39.2942 26.7352 39.0117 26.5246 38.8094 26.2598C38.6039 25.9917 38.4594 25.6695 38.3792 25.3057C38.2957 24.9197 38.254 24.5017 38.254 24.0709V15.8196C38.254 15.1687 38.3246 14.6359 38.4691 14.2402C38.6039 13.8637 38.8062 13.567 39.0695 13.3564C39.3391 13.1394 39.6891 12.9863 40.1065 12.9033C40.5592 12.814 41.0953 12.7661 41.7086 12.7661H50.5442M50.5442 12.447H41.7086C41.0729 12.447 40.5174 12.4949 40.0423 12.5906C39.5671 12.6863 39.1754 12.8586 38.864 13.1075C38.5525 13.3596 38.3214 13.701 38.1641 14.1349C38.01 14.5689 37.9297 15.1304 37.9297 15.8228V24.0741C37.9297 24.5304 37.9746 24.9643 38.0645 25.3759C38.1544 25.7875 38.315 26.1481 38.5525 26.4576C38.7901 26.7671 39.1112 27.0096 39.5189 27.1851C39.9267 27.3606 40.4468 27.4499 41.0857 27.4499H50.6533C51.1863 27.4499 51.6903 27.4212 52.1623 27.3606C52.6375 27.3031 53.0516 27.1723 53.4048 26.9745C53.7612 26.7767 54.0405 26.4767 54.2492 26.0811C54.4579 25.6822 54.5606 25.1558 54.5606 24.4921V22.2649L51.0964 21.5375V24.8048H41.4164V15.0092H51.0964V17.967L54.5157 17.482V15.408C54.5157 14.9677 54.4707 14.5657 54.3808 14.2051C54.2909 13.8446 54.1111 13.5319 53.8382 13.267C53.5653 13.0022 53.164 12.8012 52.6407 12.6608C52.1141 12.5204 51.4174 12.4502 50.5442 12.4502V12.447Z" fill="white"/>
<path d="M66.2693 12.4438L57.7002 27.4467H61.0745L62.8275 24.2688H72.6616L74.482 27.4467H78.3219L69.5955 12.4438H66.2661H66.2693ZM64.314 21.5343L67.7558 15.5325L71.1976 21.5343H64.314Z" fill="url(#paint29_linear_4600_1923)"/>
<path d="M69.4125 12.7629L77.7665 27.1277H74.6682L72.9409 24.1124L72.8478 23.9497H62.6349L62.545 24.1156L60.8819 27.1277H58.2492L66.4555 12.7629H69.4125ZM63.7618 21.8534H71.7498L71.4769 21.3747L68.0351 15.373L67.7558 14.888L67.4765 15.373L64.0347 21.3747L63.7618 21.8534ZM69.5987 12.4438H66.2693L57.7002 27.4467H61.0745L62.8275 24.2688H72.6616L74.482 27.4467H78.3219L69.5955 12.4438H69.5987ZM64.314 21.5343L67.7558 15.5325L71.1976 21.5343H64.314Z" fill="white"/>
<path d="M97.8047 19.0423C97.2782 18.6307 96.5044 18.4233 95.4835 18.4233H85.248V15.0028H95.5059V16.6141L98.4147 16.0845V15.9313C98.4147 15.8866 98.4179 15.8292 98.4244 15.7558C98.4308 15.6824 98.434 15.6091 98.434 15.5357C98.434 14.8879 98.3441 14.3615 98.1675 13.9594C97.9909 13.5542 97.7405 13.2415 97.4226 13.0214C97.1048 12.8012 96.7163 12.6512 96.2572 12.5683C95.7981 12.4885 95.2876 12.447 94.7257 12.447H85.8677C85.3347 12.447 84.8339 12.4853 84.3683 12.5587C83.9028 12.6321 83.5015 12.7757 83.1708 12.9894C82.8369 13.2032 82.5736 13.4936 82.3842 13.8605C82.1915 14.2275 82.0952 14.7061 82.0952 15.2964V18.1872C82.0952 20.1431 83.0648 21.1227 85.004 21.1227H95.4385V24.808H84.3812V22.9318L81.5847 23.3945C81.5687 23.4966 81.5558 23.6019 81.5398 23.704C81.5237 23.7933 81.5141 23.889 81.5077 23.9911C81.5013 24.0932 81.498 24.1826 81.498 24.256C81.498 25.2993 81.7324 26.0938 82.198 26.6395C82.6635 27.1851 83.4148 27.4563 84.4518 27.4563H94.4432C95.0661 27.4563 95.6311 27.4244 96.1416 27.3574C96.6521 27.2904 97.0887 27.1564 97.4515 26.949C97.8143 26.7448 98.0969 26.448 98.2959 26.0651C98.495 25.6822 98.5945 25.1749 98.5945 24.5431V21.279C98.5945 20.2037 98.3313 19.4635 97.8047 19.0519V19.0423Z" fill="url(#paint30_linear_4600_1923)"/>
<path d="M94.7287 12.7629C95.2681 12.7629 95.7657 12.8012 96.2056 12.8778C96.6165 12.9512 96.9665 13.0852 97.2426 13.2766C97.5091 13.4617 97.7242 13.7329 97.8751 14.0807C98.0356 14.4445 98.1159 14.9295 98.1159 15.5293C98.1159 15.5899 98.1159 15.6538 98.1062 15.7176C98.103 15.7527 98.0998 15.7846 98.0966 15.8133L95.8267 16.2281V14.6806H84.9267V18.7392H95.4832C96.4239 18.7392 97.1398 18.9243 97.6054 19.288C98.0484 19.6358 98.27 20.2995 98.27 21.2663V24.5304C98.27 25.1079 98.1801 25.5706 98.0067 25.9056C97.8333 26.2343 97.599 26.4832 97.2875 26.6586C96.9633 26.8437 96.5619 26.9681 96.0964 27.0288C95.602 27.0926 95.0465 27.1245 94.4397 27.1245H84.4483C83.514 27.1245 82.8398 26.8884 82.4385 26.4193C82.0243 25.9375 81.8156 25.2037 81.8156 24.2432C81.8156 24.1762 81.8188 24.0965 81.8253 24.0007C81.8317 23.9082 81.8413 23.8221 81.8574 23.7359L81.867 23.6593L84.0598 23.2956V25.1143H95.7593V20.7909H85.0037C83.2379 20.7909 82.416 19.9613 82.416 18.1744V15.2836C82.416 14.7508 82.4995 14.3168 82.6696 13.9978C82.8334 13.6819 83.0613 13.4298 83.3471 13.2479C83.6392 13.0597 84.002 12.932 84.4226 12.865C84.8689 12.7948 85.3569 12.7597 85.8706 12.7597H94.7287M94.7287 12.4407H85.8706C85.3377 12.4407 84.8368 12.479 84.3713 12.5523C83.9057 12.6257 83.5044 12.7693 83.1737 12.9831C82.8398 13.1969 82.5765 13.4872 82.3871 13.8542C82.1945 14.2211 82.0981 14.6997 82.0981 15.29V18.1808C82.0981 20.1368 83.0678 21.1163 85.007 21.1163H95.4414V24.8016H84.3841V22.9255L81.5877 23.3881C81.5716 23.4902 81.5588 23.5955 81.5427 23.6976C81.5267 23.787 81.517 23.8827 81.5106 23.9848C81.5042 24.0869 81.501 24.1762 81.501 24.2496C81.501 25.293 81.7354 26.0875 82.2009 26.6331C82.6664 27.1787 83.4177 27.4499 84.4547 27.4499H94.4461C95.069 27.4499 95.6341 27.418 96.1446 27.351C96.655 27.284 97.0917 27.15 97.4545 26.9426C97.8173 26.7384 98.0998 26.4417 98.2989 26.0588C98.4979 25.6759 98.5975 25.1686 98.5975 24.5368V21.2727C98.5975 20.1974 98.3342 19.4571 97.8076 19.0455C97.2811 18.6339 96.5073 18.4265 95.4864 18.4265H85.251V15.006H95.5089V16.6174L98.4177 16.0877V15.9345C98.4177 15.8899 98.4209 15.8324 98.4273 15.759C98.4337 15.6857 98.4369 15.6123 98.4369 15.5389C98.4369 14.8912 98.347 14.3647 98.1704 13.9627C97.9939 13.5574 97.7434 13.2447 97.4256 13.0246C97.1077 12.8044 96.7192 12.6545 96.2601 12.5715C95.801 12.4917 95.2905 12.4502 94.7287 12.4502V12.4407Z" fill="white"/>
<path d="M109.231 12.4438H105.744V27.4467H109.231V12.4438Z" fill="url(#paint31_linear_4600_1923)"/>
<path d="M108.91 12.7629V27.1277H106.065V12.7629H108.91ZM109.231 12.4438H105.744V27.4467H109.231V12.4438Z" fill="white"/>
<path d="M130.941 22.7053L118.552 12.4438H116.176V27.4499H119.284V17.1438L131.673 27.4499H134.049V12.4438H130.941V22.7053Z" fill="url(#paint32_linear_4600_1923)"/>
<path d="M133.728 12.7629V27.1277H131.789L119.489 16.8981L118.963 16.461V27.1277H116.497V12.7629H118.436L130.736 22.9478L131.262 23.3849V12.7629H133.728ZM134.049 12.4438H130.941V22.7053L118.552 12.4438H116.176V27.4467H119.284V17.1438L131.673 27.4467H134.049V12.4438Z" fill="white"/>
<path d="M159.04 13.2511C158.774 12.9927 158.411 12.7948 157.952 12.6544C157.493 12.514 156.902 12.4438 156.176 12.4438H144.676C144.201 12.4438 143.748 12.4821 143.311 12.5555C142.875 12.6289 142.49 12.7757 142.156 12.9958C141.822 13.216 141.555 13.5223 141.356 13.9116C141.157 14.3009 141.058 14.8114 141.058 15.4463V24.0741C141.058 25.3089 141.343 26.18 141.912 26.6873C142.48 27.1947 143.401 27.4499 144.676 27.4499H156.176C156.841 27.4499 157.406 27.3925 157.865 27.2744C158.324 27.1564 158.69 26.9617 158.963 26.6905C159.236 26.4193 159.438 26.0683 159.564 25.6408C159.689 25.2132 159.753 24.6931 159.753 24.0741V15.4463C159.753 14.9773 159.702 14.5561 159.599 14.1892C159.496 13.8223 159.31 13.5096 159.043 13.2511H159.04ZM156.266 24.6931H144.544V15.1177H156.266V24.6931Z" fill="url(#paint33_linear_4600_1923)"/>
<path d="M156.177 12.7629C156.867 12.7629 157.432 12.8299 157.859 12.9576C158.267 13.082 158.588 13.2575 158.816 13.4777C159.044 13.6978 159.198 13.9563 159.285 14.2721C159.381 14.6104 159.429 15.006 159.429 15.4432V24.0709C159.429 24.6548 159.371 25.1526 159.252 25.5482C159.143 25.9216 158.967 26.2279 158.735 26.4608C158.504 26.6905 158.183 26.8596 157.782 26.9617C157.352 27.0734 156.812 27.1277 156.173 27.1277H144.673C143.488 27.1277 142.628 26.8979 142.124 26.448C141.626 26.0045 141.376 25.2068 141.376 24.0709V15.4432C141.376 14.8656 141.466 14.3966 141.639 14.0552C141.812 13.717 142.047 13.4489 142.329 13.2607C142.621 13.066 142.968 12.9352 143.36 12.8682C143.777 12.798 144.217 12.7629 144.673 12.7629H156.173M144.217 25.009H156.581V14.7954H144.217V25.009ZM156.173 12.4438H144.673C144.198 12.4438 143.745 12.4821 143.309 12.5555C142.872 12.6289 142.487 12.7757 142.153 12.9958C141.819 13.216 141.552 13.5223 141.353 13.9116C141.154 14.3009 141.055 14.8114 141.055 15.4463V24.0741C141.055 25.3089 141.34 26.18 141.909 26.6873C142.477 27.1947 143.398 27.4499 144.673 27.4499H156.173C156.838 27.4499 157.403 27.3925 157.862 27.2744C158.321 27.1564 158.687 26.9617 158.96 26.6905C159.233 26.4193 159.435 26.0683 159.561 25.6408C159.686 25.2132 159.75 24.6931 159.75 24.0741V15.4463C159.75 14.9773 159.699 14.5561 159.596 14.1892C159.493 13.8223 159.307 13.5096 159.04 13.2511C158.774 12.9927 158.411 12.7948 157.952 12.6544C157.493 12.514 156.902 12.4438 156.177 12.4438H156.173ZM144.538 24.6899V15.1145H156.26V24.6899H144.538Z" fill="white"/>
<path d="M169.144 19.1764H162.151V21.3652H169.144V19.1764Z" fill="url(#paint34_linear_4600_1923)"/>
<path d="M168.826 19.4955V21.0462H162.475V19.4955H168.826ZM169.147 19.1764H162.154V21.3652H169.147V19.1764Z" fill="white"/>
<path d="M182.112 19.3965L188.905 12.4438H184.754L180.047 17.565L175.296 12.4438H170.566L177.829 19.8815L170.769 27.4499H174.785L179.871 21.7576L185.576 27.4499H190.437L182.112 19.3965Z" fill="url(#paint35_linear_4600_1923)"/>
<path d="M188.147 12.7629L181.883 19.1731L181.659 19.4029L181.89 19.6262L189.65 27.1309H185.71L180.098 21.5311L179.857 21.2918L179.63 21.547L174.64 27.1309H171.5L178.06 20.0985L178.265 19.8751L178.053 19.6581L171.32 12.7629H175.151L179.806 17.7788L180.044 18.034L180.278 17.7788L184.889 12.7629H188.138M188.899 12.4438H184.747L180.04 17.5618L175.289 12.4438H170.56L177.819 19.8783L170.759 27.4467H174.778L179.864 21.7544L185.569 27.4467H190.43L182.105 19.3933L188.899 12.4438Z" fill="white"/>
</g>
</g>
<defs>
<filter id="filter0_d_4600_1923" x="35.3297" y="9.84067" width="157.707" height="20.2156" filterUnits="userSpaceOnUse" color-interpolation-filters="sRGB">
<feFlood flood-opacity="0" result="BackgroundImageFix"/>
<feColorMatrix in="SourceAlpha" type="matrix" values="0 0 0 0 0 0 0 0 0 0 0 0 0 0 0 0 0 0 127 0" result="hardAlpha"/>
<feOffset/>
<feGaussianBlur stdDeviation="1.3"/>
<feComposite in2="hardAlpha" operator="out"/>
<feColorMatrix type="matrix" values="0 0 0 0 0 0 0 0 0 0 0 0 0 0 0 0 0 0 0.46 0"/>
<feBlend mode="normal" in2="BackgroundImageFix" result="effect1_dropShadow_4600_1923"/>
<feBlend mode="normal" in="SourceGraphic" in2="effect1_dropShadow_4600_1923" result="shape"/>
</filter>
<linearGradient id="paint0_linear_4600_1923" x1="47.1024" y1="20.3857" x2="42.4881" y2="10.3418" gradientUnits="userSpaceOnUse">
<stop stop-color="#181C20"/>
<stop offset="0.52" stop-color="#2C383E"/>
<stop offset="1" stop-color="#4A5A62"/>
</linearGradient>
<linearGradient id="paint1_linear_4600_1923" x1="28.7441" y1="10.4944" x2="39.8753" y2="10.4944" gradientUnits="userSpaceOnUse">
<stop stop-color="#181C20"/>
<stop offset="0.52" stop-color="#2C383E"/>
<stop offset="1" stop-color="#4A5A62"/>
</linearGradient>
<linearGradient id="paint2_linear_4600_1923" x1="46.64" y1="1.64643" x2="40.5916" y2="7.92185" gradientUnits="userSpaceOnUse">
<stop stop-color="#181C20"/>
<stop offset="0.52" stop-color="#2C383E"/>
<stop offset="1" stop-color="#4A5A62"/>
</linearGradient>
<linearGradient id="paint3_linear_4600_1923" x1="35.3965" y1="20.7239" x2="15.7167" y2="15.846" gradientUnits="userSpaceOnUse">
<stop stop-color="#181C20"/>
<stop offset="0.52" stop-color="#2C383E"/>
<stop offset="1" stop-color="#4A5A62"/>
</linearGradient>
<linearGradient id="paint4_linear_4600_1923" x1="8.59085" y1="5.26472" x2="14.1016" y2="15.5037" gradientUnits="userSpaceOnUse">
<stop stop-color="#181C20"/>
<stop offset="0.52" stop-color="#2C383E"/>
<stop offset="1" stop-color="#4A5A62"/>
</linearGradient>
<linearGradient id="paint5_linear_4600_1923" x1="9.57008" y1="31.3619" x2="13.379" y2="18.3021" gradientUnits="userSpaceOnUse">
<stop stop-color="#181C20"/>
<stop offset="0.52" stop-color="#2C383E"/>
<stop offset="1" stop-color="#4A5A62"/>
</linearGradient>
<linearGradient id="paint6_linear_4600_1923" x1="48.1042" y1="7.90348" x2="51.2076" y2="20.6753" gradientUnits="userSpaceOnUse">
<stop stop-color="white"/>
<stop offset="1" stop-color="#4A5A62"/>
</linearGradient>
<linearGradient id="paint7_linear_4600_1923" x1="43.2145" y1="9.09363" x2="46.3179" y2="21.8655" gradientUnits="userSpaceOnUse">
<stop stop-color="white"/>
<stop offset="1" stop-color="#4A5A62"/>
</linearGradient>
<linearGradient id="paint8_linear_4600_1923" x1="38.4401" y1="10.2518" x2="41.5435" y2="23.0237" gradientUnits="userSpaceOnUse">
<stop stop-color="white"/>
<stop offset="1" stop-color="#4A5A62"/>
</linearGradient>
<linearGradient id="paint9_linear_4600_1923" x1="41.8419" y1="4.93491" x2="50.3167" y2="3.16869" gradientUnits="userSpaceOnUse">
<stop stop-color="white"/>
<stop offset="1" stop-color="#4A5A62"/>
</linearGradient>
<linearGradient id="paint10_linear_4600_1923" x1="38.3276" y1="3.41727" x2="28.2102" y2="7.18171" gradientUnits="userSpaceOnUse">
<stop stop-color="white"/>
<stop offset="1" stop-color="#4A5A62"/>
</linearGradient>
<linearGradient id="paint11_linear_4600_1923" x1="39.8081" y1="7.39617" x2="29.6906" y2="11.1606" gradientUnits="userSpaceOnUse">
<stop stop-color="white"/>
<stop offset="1" stop-color="#4A5A62"/>
</linearGradient>
<linearGradient id="paint12_linear_4600_1923" x1="40.4565" y1="9.1415" x2="30.339" y2="12.9059" gradientUnits="userSpaceOnUse">
<stop stop-color="white"/>
<stop offset="1" stop-color="#4A5A62"/>
</linearGradient>
<linearGradient id="paint13_linear_4600_1923" x1="41.9433" y1="13.1362" x2="31.8258" y2="16.9007" gradientUnits="userSpaceOnUse">
<stop stop-color="white"/>
<stop offset="1" stop-color="#4A5A62"/>
</linearGradient>
<linearGradient id="paint14_linear_4600_1923" x1="40.0777" y1="8.12687" x2="29.9634" y2="11.8913" gradientUnits="userSpaceOnUse">
<stop stop-color="white"/>
<stop offset="1" stop-color="#4A5A62"/>
</linearGradient>
<linearGradient id="paint15_linear_4600_1923" x1="10.9536" y1="19.2242" x2="12.6473" y2="7.31023" gradientUnits="userSpaceOnUse">
<stop stop-color="white"/>
<stop offset="1" stop-color="#4A5A62"/>
</linearGradient>
<linearGradient id="paint16_linear_4600_1923" x1="11.5921" y1="19.3167" x2="13.2859" y2="7.39953" gradientUnits="userSpaceOnUse">
<stop stop-color="white"/>
<stop offset="1" stop-color="#4A5A62"/>
</linearGradient>
<linearGradient id="paint17_linear_4600_1923" x1="15.625" y1="5.11802" x2="33.6099" y2="19.598" gradientUnits="userSpaceOnUse">
<stop stop-color="white"/>
<stop offset="1" stop-color="#4A5A62"/>
</linearGradient>
<linearGradient id="paint18_linear_4600_1923" x1="14.3793" y1="6.6655" x2="32.3674" y2="21.1423" gradientUnits="userSpaceOnUse">
<stop stop-color="white"/>
<stop offset="1" stop-color="#4A5A62"/>
</linearGradient>
<linearGradient id="paint19_linear_4600_1923" x1="10.7742" y1="11.1421" x2="28.7623" y2="25.6222" gradientUnits="userSpaceOnUse">
<stop stop-color="white"/>
<stop offset="1" stop-color="#4A5A62"/>
</linearGradient>
<linearGradient id="paint20_linear_4600_1923" x1="9.55073" y1="12.6641" x2="27.5356" y2="27.1441" gradientUnits="userSpaceOnUse">
<stop stop-color="white"/>
<stop offset="1" stop-color="#4A5A62"/>
</linearGradient>
<linearGradient id="paint21_linear_4600_1923" x1="9.0375" y1="14.5434" x2="14.1164" y2="31.3889" gradientUnits="userSpaceOnUse">
<stop stop-color="white"/>
<stop offset="1" stop-color="#4A5A62"/>
</linearGradient>
<linearGradient id="paint22_linear_4600_1923" x1="10.7298" y1="14.0328" x2="15.8087" y2="30.8783" gradientUnits="userSpaceOnUse">
<stop stop-color="white"/>
<stop offset="1" stop-color="#4A5A62"/>
</linearGradient>
<linearGradient id="paint23_linear_4600_1923" x1="12.5271" y1="13.4904" x2="17.606" y2="30.3359" gradientUnits="userSpaceOnUse">
<stop stop-color="white"/>
<stop offset="1" stop-color="#4A5A62"/>
</linearGradient>
<linearGradient id="paint24_linear_4600_1923" x1="5.2071" y1="15.6985" x2="10.286" y2="32.544" gradientUnits="userSpaceOnUse">
<stop stop-color="white"/>
<stop offset="1" stop-color="#4A5A62"/>
</linearGradient>
<linearGradient id="paint25_linear_4600_1923" x1="6.89938" y1="15.1879" x2="11.9783" y2="32.0334" gradientUnits="userSpaceOnUse">
<stop stop-color="white"/>
<stop offset="1" stop-color="#4A5A62"/>
</linearGradient>
<linearGradient id="paint26_linear_4600_1923" x1="8.69666" y1="14.6455" x2="13.7756" y2="31.491" gradientUnits="userSpaceOnUse">
<stop stop-color="white"/>
<stop offset="1" stop-color="#4A5A62"/>
</linearGradient>
<linearGradient id="paint27_linear_4600_1923" x1="18.553" y1="13.0406" x2="31.1596" y2="21.2419" gradientUnits="userSpaceOnUse">
<stop stop-color="white" stop-opacity="0"/>
<stop offset="1" stop-color="white"/>
</linearGradient>
<linearGradient id="paint28_linear_4600_1923" x1="44.2417" y1="39.9959" x2="48.7515" y2="-5.38841" gradientUnits="userSpaceOnUse">
<stop stop-color="white"/>
<stop offset="1" stop-color="#4A5A62"/>
</linearGradient>
<linearGradient id="paint29_linear_4600_1923" x1="66.5262" y1="42.2135" x2="71.0359" y2="-3.17402" gradientUnits="userSpaceOnUse">
<stop stop-color="white"/>
<stop offset="1" stop-color="#4A5A62"/>
</linearGradient>
<linearGradient id="paint30_linear_4600_1923" x1="87.8872" y1="44.3353" x2="92.4001" y2="-1.04901" gradientUnits="userSpaceOnUse">
<stop stop-color="white"/>
<stop offset="1" stop-color="#4A5A62"/>
</linearGradient>
<linearGradient id="paint31_linear_4600_1923" x1="104.864" y1="46.0233" x2="109.374" y2="0.635738" gradientUnits="userSpaceOnUse">
<stop stop-color="white"/>
<stop offset="1" stop-color="#4A5A62"/>
</linearGradient>
<linearGradient id="paint32_linear_4600_1923" x1="122.314" y1="47.7558" x2="126.824" y2="2.3715" gradientUnits="userSpaceOnUse">
<stop stop-color="white"/>
<stop offset="1" stop-color="#4A5A62"/>
</linearGradient>
<linearGradient id="paint33_linear_4600_1923" x1="147.344" y1="50.2446" x2="151.854" y2="4.86028" gradientUnits="userSpaceOnUse">
<stop stop-color="white"/>
<stop offset="1" stop-color="#4A5A62"/>
</linearGradient>
<linearGradient id="paint34_linear_4600_1923" x1="162.482" y1="51.7475" x2="166.992" y2="6.36319" gradientUnits="userSpaceOnUse">
<stop stop-color="white"/>
<stop offset="1" stop-color="#4A5A62"/>
</linearGradient>
<linearGradient id="paint35_linear_4600_1923" x1="177.155" y1="53.2056" x2="181.667" y2="7.82129" gradientUnits="userSpaceOnUse">
<stop stop-color="white"/>
<stop offset="1" stop-color="#4A5A62"/>
</linearGradient>
<clipPath id="clip0_4600_1923">
<rect width="190.373" height="32" fill="white" transform="translate(0.0634766)"/>
</clipPath>
</defs>
</svg>
