<svg width="191" height="24" viewBox="0 0 191 24" fill="none" xmlns="http://www.w3.org/2000/svg">
<g clip-path="url(#clip0_4516_107662)">
<path d="M27.0312 12.0317C27.0312 7.13441 30.7711 3.55994 35.8094 3.55994C38.3674 3.55994 40.5899 4.43532 42.1024 6.13744L40.5656 7.63045C39.2866 6.28334 37.7255 5.66571 35.9018 5.66571C32.162 5.66571 29.3948 8.3648 29.3948 12.0317C29.3948 15.6985 32.162 18.3976 35.9018 18.3976C37.7255 18.3976 39.2866 17.7605 40.5656 16.4086L42.1024 17.9016C40.5899 19.6037 38.3626 20.5034 35.785 20.5034C30.7662 20.5034 27.0312 16.9289 27.0312 12.0317Z" fill="#2D8741"/>
<path d="M57.7765 16.1752H48.9741L47.1503 20.3186H44.7139L52.2178 3.74963H54.5619L62.0853 20.3138H59.6002L57.7765 16.1703V16.1752ZM56.9497 14.2834L53.3753 6.16666L49.8008 14.2834H56.9497Z" fill="#2D8741"/>
<path d="M65.708 18.4219L66.5834 16.5739C67.8138 17.6876 69.9196 18.49 72.0497 18.49C74.9141 18.49 76.1445 17.3764 76.1445 15.9368C76.1445 11.8906 66.1117 14.4438 66.1117 8.29185C66.1117 5.73866 68.1007 3.55994 72.4533 3.55994C74.3937 3.55994 76.4071 4.0803 77.7785 5.02863L76.9955 6.92042C75.5512 5.99641 73.9171 5.57331 72.4533 5.57331C69.6375 5.57331 68.4314 6.75507 68.4314 8.19945C68.4314 12.2457 78.4642 9.71191 78.4642 15.7958C78.4642 18.3295 76.4266 20.5034 72.0497 20.5034C69.5159 20.5034 67.0308 19.6523 65.708 18.4219Z" fill="#2D8741"/>
<path d="M81.7861 3.74963H84.1545V20.3138H81.7861V3.74963Z" fill="#2D8741"/>
<path d="M103.238 3.74963V20.3138H101.297L91.3567 7.96118V20.3138H88.9883V3.74963H90.9287L100.869 16.1022V3.74963H103.238Z" fill="#2D8741"/>
<path d="M106.404 12.0317C106.404 7.17817 110.144 3.55994 115.231 3.55994C120.318 3.55994 124.009 7.15872 124.009 12.0317C124.009 16.9046 120.269 20.5034 115.231 20.5034C110.193 20.5034 106.404 16.8803 106.404 12.0317ZM121.646 12.0317C121.646 8.3648 118.903 5.66571 115.231 5.66571C111.559 5.66571 108.773 8.3648 108.773 12.0317C108.773 15.6985 111.516 18.3976 115.231 18.3976C118.947 18.3976 121.646 15.6985 121.646 12.0317Z" fill="#2D8741"/>
<path d="M126.207 3.5647H130.89V16.4133H138.793V20.1288H126.202V3.5647H126.207Z" fill="#63C429"/>
<path d="M140.004 12.8584V3.67175H144.687V12.7125C144.687 15.5526 145.869 16.6857 147.834 16.6857C149.798 16.6857 150.956 15.5477 150.956 12.7125V3.67175H155.571V12.8584C155.571 17.8043 152.682 20.5714 147.785 20.5714C142.888 20.5714 139.999 17.8043 139.999 12.8584H140.004Z" fill="#63C429"/>
<path d="M156.554 11.8468C156.554 6.80848 160.41 3.23401 165.663 3.23401C168.717 3.23401 171.177 4.34769 172.787 6.3562L169.806 9.05529C168.765 7.80057 167.486 7.11486 165.901 7.11486C163.177 7.11486 161.286 9.00665 161.286 11.8468C161.286 14.6869 163.177 16.5787 165.901 16.5787C167.486 16.5787 168.765 15.893 169.806 14.6383L172.787 17.3374C171.177 19.3507 168.717 20.4595 165.663 20.4595C160.41 20.4595 156.554 16.8851 156.554 11.8468Z" fill="#63C429"/>
<path d="M179.882 14.1228L178.132 15.9902V20.1337H173.492V3.5647H178.132V10.451L184.546 3.5647H189.706L182.937 10.8984L190.061 20.1288H184.619L179.887 14.1179L179.882 14.1228Z" fill="#63C429"/>
<path d="M22.8251 11.9685C23.6081 11.7253 24.3716 11.0542 24.3716 9.86269C24.3716 7.29491 22.8835 6.32227 21.264 6.32227C18.7594 6.32227 17.3734 7.9174 17.3734 7.9174L13.1035 11.9441V12.0025L17.7236 16.5156C17.7236 16.5156 18.4239 17.7022 20.9382 17.7022C22.5576 17.7022 24.2889 16.5934 24.2889 14.0548C24.2889 12.8584 23.6567 12.09 22.8202 11.9733L22.8251 11.9685Z" fill="url(#paint0_linear_4516_107662)"/>
<path d="M8.34223 6.9982L12.369 11.2681H12.4273L16.9404 6.64804C16.9404 6.64804 18.127 5.94774 18.127 3.43345C18.127 1.814 17.0182 0.0826944 14.4796 0.0826944C13.2833 0.0826944 12.5149 0.714913 12.3982 1.55139C12.155 0.768409 11.4839 0.00488281 10.2924 0.00488281C7.7246 0.00488281 6.75195 1.49303 6.75195 3.11248C6.75195 5.61704 8.34709 7.00306 8.34709 7.00306L8.34223 6.9982Z" fill="url(#paint1_linear_4516_107662)"/>
<path d="M7.44253 16.0827L11.7124 12.056V11.9976L7.09238 7.49426C7.09238 7.49426 6.39208 6.30763 3.87779 6.30763C2.25347 6.30277 0.52703 7.41158 0.52703 9.95019C0.52703 11.1465 1.15925 11.9149 1.99572 12.0316C1.21274 12.2748 0.449219 12.9459 0.449219 14.1374C0.449219 16.7052 1.93736 17.6778 3.55682 17.6778C6.06138 17.6778 7.44739 16.0827 7.44739 16.0827H7.44253Z" fill="url(#paint2_linear_4516_107662)"/>
<path d="M16.4733 17.0018L12.4465 12.7319H12.3882L7.8751 17.352C7.8751 17.352 6.68848 18.0523 6.68848 20.5666C6.68848 22.186 7.79729 23.9173 10.3359 23.9173C11.5322 23.9173 12.3006 23.2851 12.4174 22.4487C12.6605 23.2316 13.3316 23.9952 14.5231 23.9952C17.0909 23.9952 18.0636 22.507 18.0636 20.8876C18.0636 18.383 16.4684 16.997 16.4684 16.997L16.4733 17.0018Z" fill="url(#paint3_linear_4516_107662)"/>
</g>
<defs>
<linearGradient id="paint0_linear_4516_107662" x1="11.5278" y1="24.0438" x2="20.8944" y2="10.4998" gradientUnits="userSpaceOnUse">
<stop stop-color="#328D3F"/>
<stop offset="1" stop-color="#5BBC2B"/>
</linearGradient>
<linearGradient id="paint1_linear_4516_107662" x1="2.57445" y1="17.8529" x2="11.941" y2="4.30397" gradientUnits="userSpaceOnUse">
<stop stop-color="#328D3F"/>
<stop offset="1" stop-color="#5BBC2B"/>
</linearGradient>
<linearGradient id="paint2_linear_4516_107662" x1="1.45104" y1="17.0748" x2="10.8176" y2="3.53073" gradientUnits="userSpaceOnUse">
<stop stop-color="#328D3F"/>
<stop offset="1" stop-color="#5BBC2B"/>
</linearGradient>
<linearGradient id="paint3_linear_4516_107662" x1="10.4088" y1="23.2657" x2="19.7754" y2="9.7216" gradientUnits="userSpaceOnUse">
<stop stop-color="#328D3F"/>
<stop offset="1" stop-color="#5BBC2B"/>
</linearGradient>
<clipPath id="clip0_4516_107662">
<rect width="189.612" height="24" fill="white" transform="translate(0.444336)"/>
</clipPath>
</defs>
</svg>
