<svg width="172" height="40" viewBox="0 0 172 40" fill="none" xmlns="http://www.w3.org/2000/svg">
<g clip-path="url(#clip0_4552_16539)">
<path fill-rule="evenodd" clip-rule="evenodd" d="M36.1704 7.95715H0.0361328V23.6657C0.0361328 28.2943 3.78756 32.0457 8.41613 32.0457H44.5504V16.3372C44.5504 11.7086 40.799 7.95715 36.1704 7.95715ZM40.2447 16.92C40.2447 14.3172 38.1333 12.2057 35.5304 12.2057H29.7704V17.84H33.2047V27.7914H40.2447V16.92ZM4.34185 12.2086V23.08C4.34185 25.6829 6.45328 27.7943 9.05613 27.7943H11.3818V19.2686L20.2847 27.7943H27.4276V12.2086H20.3876V20.0857L12.279 12.2086H4.34185Z" fill="#FF230A"/>
<path d="M62.9217 28.0658C53.8931 28.0658 52.4902 23.0172 52.4902 20.2515V19.6429C52.4902 16.8143 53.7045 11.9343 62.9217 11.9343H63.7817C72.8102 11.9343 74.2131 16.2515 74.2131 18.0715V18.3029H69.0388C68.9131 17.8829 68.2845 15.7058 63.3417 15.7058C58.6702 15.7058 57.6017 17.8 57.6017 19.7486V20C57.6017 21.8429 58.8388 24.2743 63.3845 24.2743C68.4331 24.2743 68.9359 21.8658 69.0617 21.5086H74.236V21.74C74.236 23.7086 72.6845 28.0658 63.7817 28.0658H62.9217ZM89.7331 24.9458H80.2845L78.8817 27.7943H73.9159L81.7931 12.2086H88.1188L96.4559 27.7943H91.1988L89.7331 24.9458ZM84.9159 15.5829L82.0245 21.4258H87.9331L84.9159 15.5829ZM105.587 28.0658C97.4188 28.0658 96.4759 24.5458 96.4759 22.4943V22.2629H101.567C101.63 23.2058 102.176 24.7343 106.196 24.7343H106.49C110.596 24.7343 111.059 23.9172 111.059 23.08C111.059 22.18 110.576 21.6143 106.973 21.5086L104.29 21.4458C98.4674 21.28 96.6874 19.3086 96.6874 16.88V16.6915C96.6874 14.3658 98.0702 11.9372 105.173 11.9372H106.619C113.993 11.9372 115.667 14.5143 115.667 16.86V17.0686H110.599C110.493 16.4829 110.179 15.2058 106.096 15.2058H105.762C101.99 15.2058 101.719 15.8743 101.719 16.5458C101.719 17.2172 102.139 17.8229 105.322 17.8858L107.939 17.9286C113.805 18.0343 116.17 19.4572 116.17 22.5572V22.8515C116.17 25.4286 114.873 28.0686 107.039 28.0686H105.593L105.587 28.0658ZM118.345 12.2086H123.225V27.7943H118.345V12.2086ZM131.582 12.2086L141.533 22.0115V12.2086H146.35V27.7943H141.533L130.953 17.4658V27.7943H126.136V12.2086H131.582ZM160.507 11.9343C170.31 11.9343 171.465 16.8572 171.465 19.6429V20.2715C171.465 23.0143 170.333 28.0629 160.507 28.0629H159.607C149.742 28.0629 148.63 23.0143 148.63 20.2715V19.6429C148.63 16.8572 149.742 11.9343 159.607 11.9343H160.507ZM166.353 19.7915C166.353 18.0115 165.327 15.7058 160.047 15.7058C154.767 15.7058 153.742 18.0086 153.742 19.7915V20.0429C153.742 21.8229 154.767 24.2743 160.047 24.2743C165.327 24.2743 166.353 21.8858 166.353 20.0858V19.7915Z" fill="white"/>
</g>
<defs>
<clipPath id="clip0_4552_16539">
<rect width="171.429" height="40" fill="white" transform="translate(0.0361328)"/>
</clipPath>
</defs>
</svg>
