<svg width="163" height="32" viewBox="0 0 163 32" fill="none" xmlns="http://www.w3.org/2000/svg">
<path d="M18.4283 17.0733C18.4283 17.0733 10.8601 16.288 18.2693 28.0453C14.013 25.5053 11.4435 20.9173 11.5217 16C11.4786 11.0347 14.0305 6.40133 18.2693 3.74533C9.80108 15.556 18.4808 14.98 18.4808 14.98L30.653 14.0107C30.1248 4.66133 27.2131 0 15.5166 0C3.82011 0 0.407227 4.71333 0.407227 16C0.407227 27.2867 4.27013 32 15.5705 32C26.8709 32 30.0453 27.2347 30.6543 17.7813L18.4552 17.0747H18.4283V17.0733Z" fill="#0DD0CD"/>
<path d="M74.6341 0.52417H65.1877C57.672 0.52417 54.6553 3.64017 54.6553 9.0615C54.6553 14.4828 57.3541 16.0268 70.0032 22.9922C56.745 18.0428 54.9733 18.6708 54.9733 18.6708L56.4028 29.1975C56.5524 30.4908 57.6545 31.4682 58.9696 31.4762H67.2518C76.5662 31.4762 77.1226 27.1295 77.1226 22.8348C77.1226 18.5402 76.329 16.0268 62.8863 9.06017C76.5406 13.6162 77.2291 12.9095 77.2291 12.9095V3.14284C77.2385 1.72017 76.0798 0.558837 74.6408 0.550837C74.6394 0.550837 74.6367 0.550837 74.6354 0.550837V0.52417H74.6341Z" fill="#0DD0CD"/>
<path d="M51.665 2.77617C51.5033 1.4935 50.4039 0.52817 49.0983 0.52417H36.1312C34.8283 0.537503 33.7342 1.4975 33.5645 2.77617L30.1246 28.5442C29.9306 29.9588 30.9317 31.2615 32.3599 31.4535C32.4691 31.4682 32.5795 31.4762 32.6914 31.4775H39.6775L43.1443 3.61484C42.8007 28.1775 43.4622 31.4775 49.5753 31.4775H52.4856C53.9367 31.4562 55.0954 30.2748 55.0739 28.8388C55.0725 28.7402 55.0658 28.6428 55.0523 28.5442L51.6125 2.77617H51.665Z" fill="#0DD0CD"/>
<path d="M128.113 0.52417H123.006C119.327 0.52417 116.919 0.524172 115.808 19.6148C114.698 0.524172 112.051 0.52417 108.453 0.52417H103.451C102.014 0.529503 100.852 1.68817 100.857 3.11084C100.857 3.11217 100.857 3.11484 100.857 3.11617V28.8842C100.848 30.3068 102.007 31.4682 103.446 31.4762C103.447 31.4762 103.45 31.4762 103.451 31.4762H108.082C112.024 31.4762 114.248 31.0575 103.345 20.7135C103.345 20.7135 113.666 28.4388 115.914 28.4388C118.163 28.4388 127.954 20.9495 127.954 20.9495C118.349 30.8215 119.063 31.5028 123.165 31.5028H128.113C129.551 31.4975 130.712 30.3388 130.707 28.9162V28.9108V3.14284C130.717 1.72017 129.558 0.558837 128.119 0.550837C128.117 0.550837 128.115 0.550837 128.113 0.550837V0.52417Z" fill="#0DD0CD"/>
<path d="M97.2586 0.524235H95.0355C91.9662 0.524235 91.1982 0.524233 89.1609 23.3856C87.9443 0.760234 87.3097 0.524235 83.4454 0.524235H80.8261C79.3885 0.529568 78.2271 1.68823 78.2324 3.1109C78.2324 3.11223 78.2324 3.1149 78.2324 3.11623V24.1176C78.2324 27.4429 81.5402 31.4762 89.1354 31.4762C96.7305 31.4762 99.8267 28.3602 99.8267 24.7989V3.0909C99.8361 1.66823 98.6774 0.506901 97.2384 0.498901C97.2371 0.498901 97.2344 0.498901 97.233 0.498901L97.26 0.525568L97.2586 0.524235Z" fill="#0DD0CD"/>
<path d="M146.876 0C134.836 0 131.767 4.71333 131.767 16C131.767 27.2867 135.63 32 146.93 32C158.23 32 162.093 27.2867 162.093 16C162.093 4.71333 158.943 0 146.903 0H146.876ZM147.326 27.496C147.326 27.496 145.896 24.2747 145.896 16C145.896 7.72533 147.326 4.504 147.326 4.504C147.326 4.504 149.02 9.03467 149.02 16C149.02 22.9653 147.326 27.496 147.326 27.496Z" fill="#0DD0CD"/>
</svg>
