<svg width="185" height="44" viewBox="0 0 185 44" fill="none" xmlns="http://www.w3.org/2000/svg">
<g clip-path="url(#clip0_4516_107588)">
<path d="M32.1037 10.6318L23.7668 14.4789L19.8776 6.22754L15.1123 8.42587L19.0015 16.6772L10.6631 20.5258L12.8846 25.2398L21.2231 21.3927L25.1107 29.644L29.876 27.4457L25.9883 19.1943L34.3267 15.3457L32.1037 10.6318Z" fill="#FFDE00"/>
<path d="M10.5254 32.6273L7.60888 26.4376L4.03417 28.0864L6.95071 34.276L0.697266 37.1606L2.36342 40.6979L8.61686 37.8119L11.5334 44L15.1066 42.3512L12.1916 36.1631L18.445 33.277L16.7789 29.7412L10.5254 32.6273Z" fill="#FFDE00"/>
<path d="M14.0697 2.20137L9.89971 4.12491L7.95587 0L5.57324 1.09916L7.51708 5.22407L3.34863 7.14913L4.4594 9.50687L8.62938 7.58181L10.5732 11.7082L12.9559 10.6091L11.0105 6.48264L15.1805 4.55911L14.0697 2.20137Z" fill="#FFDE00"/>
<path d="M62.8189 14.8964H46.0469C46.3492 16.2552 47.0626 17.3301 48.1902 18.118C49.3163 18.9075 50.7171 19.3007 52.3939 19.3007C53.5477 19.3007 54.571 19.1306 55.4639 18.7906C56.3553 18.4505 57.1868 17.9146 57.957 17.1798L61.3767 20.8492C59.2887 23.2146 56.2387 24.3972 52.2282 24.3972C49.729 24.3972 47.5167 23.9144 45.5943 22.9489C43.6704 21.9848 42.1868 20.6458 41.1436 18.9318C40.0988 17.2192 39.5771 15.276 39.5771 13.1004C39.5771 10.9249 40.0926 9.0165 41.1221 7.29032C42.1531 5.56415 43.5661 4.21903 45.3657 3.25347C47.1654 2.28942 49.1782 1.80664 51.4028 1.80664C53.6274 1.80664 55.5375 2.26969 57.2957 3.19274C59.054 4.11732 60.4347 5.44269 61.4366 7.16887C62.4384 8.89504 62.9416 10.9006 62.9416 13.1839C62.9416 13.2659 62.9002 13.8367 62.8174 14.8964H62.8189ZM47.779 7.84142C46.7895 8.65669 46.185 9.77255 45.9656 11.1845H56.8861C56.6652 9.79836 56.0622 8.69009 55.0727 7.86116C54.0846 7.03223 52.8742 6.61776 51.4458 6.61776C49.9898 6.61776 48.7671 7.02616 47.779 7.84142Z" fill="#FFDE00"/>
<path d="M85.4712 4.25395C87.1604 5.88448 88.0057 8.30447 88.0057 11.5124V24.0723H81.5774V12.4901C81.5774 10.7503 81.1923 9.45221 80.4236 8.59596C79.6535 7.7397 78.5412 7.31157 77.0852 7.31157C75.4635 7.31157 74.1733 7.80802 73.2113 8.79939C72.2494 9.79229 71.7692 11.2664 71.7692 13.2234V24.0708H65.3408V2.13305H71.4807V4.70182C72.3322 3.77724 73.3893 3.0637 74.6535 2.56118C75.9161 2.05866 77.3046 1.80664 78.8158 1.80664C81.5636 1.80664 83.782 2.62191 85.4712 4.25395Z" fill="#FFDE00"/>
<path d="M113.77 14.8964H96.9981C97.3003 16.2552 98.0137 17.3301 99.1414 18.118C100.267 18.9075 101.668 19.3007 103.345 19.3007C104.499 19.3007 105.522 19.1306 106.415 18.7906C107.306 18.4505 108.138 17.9146 108.908 17.1798L112.328 20.8492C110.24 23.2146 107.19 24.3972 103.179 24.3972C100.68 24.3972 98.4679 23.9144 96.5455 22.9489C94.6216 21.9848 93.138 20.6458 92.0947 18.9318C91.0499 17.2192 90.5283 15.276 90.5283 13.1004C90.5283 10.9249 91.0438 9.0165 92.0733 7.29032C93.1043 5.56415 94.5173 4.21903 96.3169 3.25347C98.1165 2.28942 100.129 1.80664 102.354 1.80664C104.579 1.80664 106.489 2.26969 108.247 3.19274C110.005 4.11732 111.386 5.44269 112.388 7.16887C113.39 8.89504 113.893 10.9006 113.893 13.1839C113.893 13.2659 113.851 13.8367 113.769 14.8964H113.77ZM98.7302 7.84142C97.7406 8.65669 97.1362 9.77255 96.9168 11.1845H107.837C107.616 9.79836 107.013 8.69009 106.024 7.86116C105.036 7.03223 103.825 6.61776 102.397 6.61776C100.941 6.61776 99.7182 7.02616 98.7302 7.84142Z" fill="#FFDE00"/>
<path d="M126.352 2.62191C127.656 2.0784 129.161 1.80664 130.864 1.80664V7.67898C130.149 7.62432 129.669 7.59699 129.422 7.59699C127.581 7.59699 126.139 8.1071 125.095 9.1258C124.051 10.146 123.529 11.6748 123.529 13.7138V24.0708H117.101V2.13305H123.24V5.02823C124.009 3.96853 125.046 3.16693 126.352 2.62191Z" fill="#FFDE00"/>
<path d="M156.823 2.133V20.4013C156.823 24.4245 155.765 27.4153 153.651 29.3722C151.535 31.3292 148.444 32.3084 144.378 32.3084C142.235 32.3084 140.202 32.0488 138.279 31.5341C136.357 31.018 134.763 30.2695 133.5 29.2918L136.055 24.7251C136.988 25.4857 138.171 26.0915 139.599 26.5393C141.027 26.9872 142.456 27.2119 143.884 27.2119C146.109 27.2119 147.75 26.7154 148.809 25.7241C149.866 24.7312 150.395 23.2297 150.395 21.2181V20.2798C148.718 22.1017 146.383 23.0126 143.39 23.0126C141.357 23.0126 139.496 22.5708 137.805 21.6872C136.116 20.8036 134.777 19.5602 133.787 17.957C132.799 16.3538 132.304 14.5047 132.304 12.4111C132.304 10.3175 132.798 8.4699 133.787 6.86518C134.777 5.26197 136.116 4.01706 137.805 3.13348C139.495 2.2499 141.356 1.80811 143.39 1.80811C146.604 1.80811 149.048 2.85413 150.725 4.94771V2.133H156.823ZM148.85 16.3037C149.935 15.3123 150.478 14.0143 150.478 12.4096C150.478 10.8049 149.935 9.50833 148.85 8.51544C147.764 7.52407 146.371 7.02762 144.668 7.02762C142.965 7.02762 141.563 7.52407 140.464 8.51544C139.366 9.50833 138.816 10.8064 138.816 12.4096C138.816 14.0128 139.366 15.3123 140.464 16.3037C141.563 17.2966 142.963 17.7915 144.668 17.7915C146.372 17.7915 147.765 17.2951 148.85 16.3037Z" fill="#FFDE00"/>
<path d="M184.803 2.13306L174.789 25.4174C173.772 27.9452 172.516 29.726 171.018 30.7584C169.521 31.7908 167.715 32.3085 165.599 32.3085C164.446 32.3085 163.306 32.1309 162.18 31.7786C161.053 31.4249 160.133 30.936 159.418 30.3105L161.767 25.7848C162.261 26.219 162.832 26.5591 163.477 26.8051C164.122 27.0495 164.762 27.1725 165.394 27.1725C166.273 27.1725 166.986 26.9614 167.537 26.5409C168.086 26.1188 168.58 25.419 169.021 24.4412L169.103 24.2378L159.502 2.13609H166.136L172.359 17.0204L178.623 2.13609H184.805L184.803 2.13306Z" fill="#FFDE00"/>
<path d="M42.9923 41.3098C41.9199 40.7602 41.0837 39.9981 40.4808 39.0234C39.8779 38.0488 39.5771 36.942 39.5771 35.7032C39.5771 34.4643 39.8779 33.3576 40.4808 32.3829C41.0822 31.4082 41.9199 30.6446 42.9923 30.095C44.0632 29.5454 45.2721 29.2706 46.6176 29.2706C47.9631 29.2706 49.1092 29.5454 50.1018 30.095C51.0945 30.6446 51.8186 31.4295 52.2727 32.4512L49.4329 33.9603C48.7763 32.8156 47.8297 32.2417 46.5931 32.2417C45.6388 32.2417 44.8487 32.5514 44.2227 33.1708C43.5968 33.7903 43.2838 34.6344 43.2838 35.7017C43.2838 36.7689 43.5968 37.613 44.2227 38.2325C44.8487 38.8519 45.6388 39.1616 46.5931 39.1616C47.845 39.1616 48.7901 38.5892 49.4329 37.443L52.2727 38.9749C51.8186 39.9662 51.096 40.739 50.1018 41.2962C49.1077 41.8533 47.9463 42.1327 46.6176 42.1327C45.2721 42.1327 44.0632 41.8579 42.9923 41.3083V41.3098Z" fill="#FFDE00"/>
<path d="M63.7103 30.6521C64.7581 31.5736 65.2828 32.9628 65.2828 34.8195V41.9474H61.8569V40.3912C61.1681 41.5527 59.8855 42.1326 58.0091 42.1326C57.0395 42.1326 56.1988 41.9702 55.4869 41.6453C54.775 41.3204 54.2319 40.871 53.856 40.2986C53.4801 39.7263 53.293 39.0765 53.293 38.3478C53.293 37.1864 53.7348 36.2739 54.6185 35.6074C55.5022 34.9425 56.8677 34.6085 58.7133 34.6085H61.6222C61.6222 33.819 61.3798 33.2117 60.895 32.7851C60.4102 32.36 59.683 32.146 58.7133 32.146C58.0413 32.146 57.3801 32.2507 56.7311 32.4587C56.0822 32.6682 55.5298 32.9506 55.0773 33.3059L53.764 30.7751C54.4528 30.2953 55.2782 29.9234 56.2402 29.6607C57.2021 29.3981 58.1917 29.266 59.2089 29.266C61.1635 29.266 62.6655 29.726 63.7133 30.6475L63.7103 30.6521ZM60.5897 39.2663C61.0745 38.9809 61.4181 38.5573 61.6222 38.0016V36.7248H59.1107C57.6087 36.7248 56.8585 37.2122 56.8585 38.1884C56.8585 38.6529 57.0426 39.0203 57.4093 39.2906C57.7759 39.5608 58.2807 39.6974 58.922 39.6974C59.5479 39.6974 60.1033 39.5547 60.5881 39.2678L60.5897 39.2663Z" fill="#FFDE00"/>
<path d="M69.2254 41.7516C68.2236 41.4965 67.4258 41.1746 66.832 40.7875L68.0517 38.1869C68.6148 38.5436 69.296 38.8336 70.0938 39.0568C70.8915 39.2815 71.674 39.3938 72.4396 39.3938C73.9876 39.3938 74.7624 39.0143 74.7624 38.2567C74.7624 37.9014 74.5506 37.6449 74.1287 37.49C73.7068 37.3352 73.0563 37.2046 72.1818 37.0953C71.1493 36.9404 70.2963 36.7628 69.6243 36.5609C68.9523 36.3605 68.3693 36.0037 67.8768 35.4936C67.3843 34.982 67.1373 34.2548 67.1373 33.3104C67.1373 32.521 67.3675 31.8211 67.8293 31.2093C68.2911 30.5975 68.963 30.1223 69.8468 29.7807C70.7305 29.4406 71.7753 29.269 72.9796 29.269C73.871 29.269 74.7593 29.3662 75.643 29.559C76.5267 29.7533 77.2585 30.0205 77.8369 30.3606L76.6172 32.9385C75.5065 32.3191 74.2944 32.0094 72.9796 32.0094C72.1972 32.0094 71.6111 32.1172 71.2199 32.3343C70.8287 32.5514 70.6338 32.8292 70.6338 33.1708C70.6338 33.5579 70.8455 33.8297 71.2674 33.983C71.6893 34.1379 72.3629 34.2851 73.2849 34.4248C74.3174 34.5948 75.1613 34.777 75.8194 34.9698C76.4761 35.1642 77.0468 35.5149 77.5316 36.0265C78.0164 36.5381 78.2588 37.2501 78.2588 38.1626C78.2588 38.9368 78.0241 39.6261 77.5546 40.2288C77.0852 40.8315 76.4009 41.3007 75.5019 41.6331C74.6028 41.9656 73.535 42.1326 72.2984 42.1326C71.2506 42.1326 70.2257 42.0051 69.2254 41.75V41.7516Z" fill="#FFDE00"/>
<path d="M79.9727 29.4558H83.6333V41.9474H79.9727V29.4558Z" fill="#FFDE00"/>
<path d="M97.4201 30.6643C98.382 31.5934 98.8638 32.9704 98.8638 34.7968V41.949H95.2032V35.3555C95.2032 34.3657 94.9838 33.6263 94.5465 33.1374C94.1077 32.6501 93.4741 32.4057 92.6456 32.4057C91.722 32.4057 90.9872 32.6881 90.4394 33.2528C89.8917 33.8176 89.6186 34.6571 89.6186 35.7715V41.9475H85.958V29.4558H89.4545V30.9194C89.9393 30.3926 90.5422 29.9872 91.2618 29.7003C91.9813 29.4149 92.7714 29.2706 93.6321 29.2706C95.1955 29.2706 96.4597 29.7352 97.4216 30.6643H97.4201Z" fill="#FFDE00"/>
<path d="M103.663 41.3098C102.607 40.7602 101.782 39.9981 101.186 39.0234C100.591 38.0488 100.295 36.942 100.295 35.7032C100.295 34.4643 100.593 33.3576 101.186 32.3829C101.78 31.4082 102.605 30.6446 103.663 30.095C104.718 29.5454 105.912 29.2706 107.24 29.2706C108.569 29.2706 109.759 29.5454 110.807 30.095C111.855 30.6446 112.676 31.4067 113.271 32.3829C113.865 33.3576 114.163 34.4643 114.163 35.7032C114.163 36.942 113.865 38.0488 113.271 39.0234C112.676 39.9981 111.855 40.7618 110.807 41.3098C109.759 41.8594 108.57 42.1342 107.24 42.1342C105.91 42.1342 104.718 41.8594 103.663 41.3098ZM109.552 38.2218C110.154 37.5948 110.456 36.7553 110.456 35.7032C110.456 34.6511 110.154 33.8115 109.552 33.1845C108.949 32.5575 108.179 32.2448 107.24 32.2448C106.301 32.2448 105.528 32.5575 104.917 33.1845C104.307 33.8115 104.002 34.6511 104.002 35.7032C104.002 36.7553 104.307 37.5963 104.917 38.2218C105.528 38.8489 106.301 39.1616 107.24 39.1616C108.179 39.1616 108.949 38.8489 109.552 38.2218Z" fill="#FFDE00"/>
</g>
<defs>
<clipPath id="clip0_4516_107588">
<rect width="184.105" height="44" fill="white" transform="translate(0.697266)"/>
</clipPath>
</defs>
</svg>
