<svg width="137" height="56" viewBox="0 0 137 56" fill="none" xmlns="http://www.w3.org/2000/svg">
<g clip-path="url(#clip0_4552_19194)">
<mask id="mask0_4552_19194" style="mask-type:luminance" maskUnits="userSpaceOnUse" x="0" y="0" width="137" height="56">
<path d="M136.75 0H0.75V56H136.75V0Z" fill="white"/>
</mask>
<g mask="url(#mask0_4552_19194)">
<path d="M13.921 35.7555C12.5193 35.3811 11.6993 33.9102 12.0961 32.4928L13.7095 26.4757C14.0797 25.0583 15.5344 24.2292 16.9362 24.6304C18.338 25.0048 19.1579 26.4757 18.7612 27.893L17.1478 33.8835C16.7511 35.3009 15.2964 36.1299 13.921 35.7555Z" fill="white"/>
<path d="M22.6496 35.7555C21.2478 35.3811 20.4279 33.9102 20.8246 32.4928L22.4644 26.4757C22.8347 25.0583 24.2894 24.2292 25.6912 24.6304C27.093 25.0048 27.9129 26.4757 27.5162 27.893L25.8763 33.8835C25.5061 35.3009 24.0514 36.1299 22.6496 35.7555Z" fill="white"/>
<path d="M41.4801 26.1017C41.5065 25.9947 41.5594 25.8877 41.5859 25.7807L45.6854 10.6977C46.1351 9.01284 45.9235 7.30128 45.1829 5.8839C44.8391 5.10835 43.9663 3.9584 42.8025 2.83519C42.2471 2.30033 41.6917 1.81896 41.1627 1.44455C40.8188 1.17712 40.4486 0.936434 40.0518 0.722489C39.9725 0.669003 39.8667 0.64226 39.7873 0.588774C39.47 0.455058 39.1526 0.321343 38.8352 0.241114C35.3175 -0.721637 31.694 1.36432 30.7154 4.89441L27.0919 18.1857H21.6963L22.3575 15.7788C22.913 13.7731 22.4633 11.7139 21.3525 10.1361C20.9029 9.46747 20.2416 8.69193 19.4482 7.91638C18.9456 7.435 18.4696 7.00711 17.9935 6.65945C17.5439 6.25831 17.0149 5.93739 16.4595 5.6967C16.4595 5.6967 16.4595 5.6967 16.433 5.6967C16.1421 5.56298 15.8247 5.45601 15.4808 5.34904C11.9631 4.38629 8.33964 6.47225 7.36104 10.0023L4.82195 19.3357L1.35715 31.7445C-0.150439 37.2803 1.19845 42.9498 4.47811 47.1485C5.21868 48.1112 6.14439 49.1809 7.22879 50.2239C7.81067 50.7855 8.39254 51.3204 8.97442 51.8018C9.55629 52.3099 10.1911 52.7913 10.8523 53.2191C11.4871 53.647 12.0689 53.9679 12.545 54.2086C13.4972 54.69 14.5287 55.0912 15.5866 55.3853C17.0942 55.8132 18.6283 56.0004 20.1623 56.0004C26.0604 56.0004 31.6675 52.8982 34.8414 47.6031L43.9663 44.8753L38.3856 37.1733L41.4801 26.1017ZM40.6337 7.67569L36.5341 22.732C36.5341 22.7855 36.5077 22.839 36.4812 22.8658L32.99 35.5152L36.9573 40.9976L30.6889 42.8696L30.398 43.4044C27.1712 49.2077 20.5061 52.0424 14.1584 50.2774C6.56757 48.1647 2.07127 40.1953 4.16073 32.5467L7.65197 20.1112L10.1911 10.7779C10.6671 9.11981 12.1483 8.02335 13.7617 8.02335C14.0791 8.02335 14.4229 8.07683 14.7403 8.15706C16.6975 8.69193 17.8612 10.7511 17.3323 12.7569L15.0312 21.1275L29.3136 21.1007L33.519 5.66996C34.0479 3.69097 36.0845 2.51427 38.0682 3.04914C40.0254 3.61074 41.1627 5.66996 40.6337 7.67569Z" fill="#8E7BFF"/>
<path d="M54.6533 23.8548C54.0186 23.2932 53.7012 22.5711 53.7012 21.7154C53.7012 20.8596 54.0186 20.1375 54.6533 19.5759C55.2881 19.0143 56.1345 18.7469 57.166 18.7469C58.2239 18.7469 59.0703 19.0143 59.7051 19.5492C60.3398 20.084 60.6572 20.7794 60.6572 21.6351C60.6572 22.5444 60.3398 23.2665 59.7051 23.8548C59.0703 24.4432 58.2239 24.7106 57.166 24.7106C56.1345 24.6839 55.2881 24.4164 54.6533 23.8548ZM54.283 25.8338H60.0753V40.0076H54.283V25.8338Z" fill="white"/>
<path d="M62.8262 21.8491H68.883V35.2473H76.9764V39.9809H62.8262V21.8491Z" fill="white"/>
<path d="M93.773 25.8337V40.0075H90.414L88.2716 38.6704C87.7691 39.2052 87.1608 39.6064 86.4731 39.8738C85.7855 40.1412 85.0713 40.275 84.3043 40.275C82.5322 40.275 81.104 39.7401 80.0196 38.6169C78.9352 37.5204 78.4062 35.8624 78.4062 33.6427V25.8337H84.1985V32.6264C84.1985 33.5892 84.3572 34.2845 84.6482 34.7124C84.9655 35.1135 85.4152 35.3275 85.997 35.3275C86.5525 35.3275 87.0285 35.0868 87.3988 34.6322C87.7691 34.1775 87.9543 33.4555 87.9543 32.466V25.8337H93.773Z" fill="white"/>
<path d="M99.6168 39.3123C98.3737 38.6972 97.3686 37.8147 96.6809 36.6915C95.9668 35.5683 95.623 34.3114 95.623 32.894C95.623 31.4766 95.9668 30.2197 96.6809 29.0965C97.395 27.9733 98.3737 27.1175 99.6168 26.5024C100.859 25.8873 102.288 25.5664 103.875 25.5664C105.594 25.5664 107.048 25.9408 108.265 26.6896C109.482 27.4384 110.328 28.4546 110.778 29.765L106.281 31.9847C105.726 30.7278 104.933 30.1127 103.848 30.1127C103.16 30.1127 102.605 30.3534 102.155 30.8348C101.706 31.3161 101.468 32.0115 101.468 32.894C101.468 33.8032 101.706 34.4718 102.155 34.9799C102.605 35.4613 103.187 35.702 103.848 35.702C104.933 35.702 105.726 35.0869 106.281 33.83L110.778 36.0497C110.328 37.3601 109.482 38.4031 108.265 39.1251C107.048 39.8739 105.594 40.2483 103.875 40.2483C102.288 40.2483 100.859 39.9542 99.6168 39.3123Z" fill="white"/>
<path d="M118.818 35.6485L117.892 36.6647V40.0076H112.1V20.7794H117.892V29.9522L121.912 25.8338H123.235H128.762L122.97 31.9847L129.212 40.0076H122.203L118.818 35.6485Z" fill="white"/>
<path d="M130.747 23.8548C130.112 23.2932 129.795 22.5711 129.795 21.7154C129.795 20.8596 130.112 20.1375 130.747 19.5759C131.382 19.0143 132.228 18.7469 133.26 18.7469C134.318 18.7469 135.164 19.0143 135.799 19.5492C136.434 20.084 136.751 20.7794 136.751 21.6351C136.751 22.5444 136.434 23.2665 135.799 23.8548C135.164 24.4432 134.318 24.7106 133.26 24.7106C132.228 24.6839 131.382 24.4164 130.747 23.8548ZM130.377 25.8338H136.169V40.0076H130.377V25.8338Z" fill="white"/>
</g>
</g>
<defs>
<clipPath id="clip0_4552_19194">
<rect width="136" height="56" fill="white" transform="translate(0.75)"/>
</clipPath>
</defs>
</svg>
