<svg width="122" height="64" viewBox="0 0 122 64" fill="none" xmlns="http://www.w3.org/2000/svg">
<g clip-path="url(#clip0_4552_19135)">
<path d="M0.443359 38.2037H4.43919V48.9234L9.52622 38.2037H13.522L8.76081 47.5417L13.5927 63.635H9.41631L6.03674 52.299L4.43919 55.5334V63.635H0.443359V38.2037Z" fill="white"/>
<path d="M16.2109 38.2037H20.2068V63.635H16.2109V38.2037Z" fill="white"/>
<path d="M24.375 38.2037H29.3875L33.2734 53.4256H33.348V38.2037H36.9081V63.635H32.8024L28.0058 45.0689H27.9312V63.635H24.3711V38.2037H24.375Z" fill="white"/>
<path d="M40.4414 57.6059V44.2368C40.4414 40.1664 42.4746 37.8427 46.3998 37.8427C50.325 37.8427 52.3582 40.1664 52.3582 44.2368V46.4152H48.5783V43.9816C48.5783 42.1643 47.7776 41.4734 46.5058 41.4734C45.234 41.4734 44.4333 42.1643 44.4333 43.9816V57.8964C44.4333 59.7137 45.234 60.3653 46.5058 60.3653C47.7776 60.3653 48.5783 59.7098 48.5783 57.8964V52.9193H46.5804V49.2845H52.3582V57.6059C52.3582 61.6763 50.325 64 46.3998 64C42.4746 64 40.4414 61.6763 40.4414 57.6059Z" fill="white"/>
<path d="M63.7129 38.2037H69.742C73.883 38.2037 75.6651 40.131 75.6651 44.0522V45.0689C75.6651 47.683 74.8643 49.3198 73.0862 50.046V50.1166C75.2294 50.8428 76.0654 52.7347 76.0654 55.4196V57.598C76.0654 61.5232 73.9929 63.631 69.9971 63.631H63.7129V38.2037ZM69.2709 48.5583C70.7586 48.5583 71.6692 47.9028 71.6692 45.8696V44.4526C71.6692 42.6353 71.053 41.8384 69.636 41.8384H67.7087V48.5583H69.2709ZM69.9971 60.0042C71.3395 60.0042 72.0696 59.3879 72.0696 57.496V55.2783C72.0696 52.9153 71.3081 52.1891 69.4908 52.1891H67.7087V60.0002H69.9971V60.0042Z" fill="white"/>
<path d="M78.6523 38.2037H82.6482V63.635H78.6523V38.2037Z" fill="white"/>
<path d="M85.541 38.2037H89.5369V60.0042H96.1115V63.6389H85.5371V38.2037H85.541Z" fill="white"/>
<path d="M97.9492 38.2037H101.945V60.0042H108.52V63.6389H97.9453V38.2037H97.9492Z" fill="white"/>
<path d="M112.228 52.8093L107.396 38.2037H111.647L114.372 47.5417H114.446L117.17 38.2037H121.056L116.224 52.8093V63.635H112.228V52.8093Z" fill="white"/>
<path d="M59.8869 1.09516C59.5846 0.659462 59.1489 0.321897 58.6387 0.145264C59.1921 0.239468 59.6553 0.604509 59.8869 1.09516Z" fill="#BF993C"/>
<path d="M79.9747 34.467C78.0985 34.467 75.8337 33.9881 73.4589 32.4102C73.1803 32.5162 72.8976 32.6182 72.6229 32.7124C67.1276 34.573 62.1034 33.9724 57.7504 31.111V31.1973C53.4091 34.0234 48.4359 34.5062 42.9603 32.6418C42.6973 32.5476 42.4265 32.4534 42.1596 32.3513C39.7809 33.9292 37.5161 34.412 35.6399 34.412C33.9795 34.412 32.6175 34.0352 31.7461 33.7055L31.9698 36.4021L57.876 36.4885L83.6134 36.457L83.8332 33.7722C82.9579 34.1019 81.6115 34.467 79.9747 34.467Z" fill="url(#paint0_linear_4552_19135)"/>
<path d="M42.9612 32.6379C42.6983 32.5476 42.4274 32.4534 42.1605 32.3513C39.7818 33.9292 37.517 34.412 35.6408 34.412C33.9804 34.412 32.6184 34.0352 31.747 33.7055L31.7195 33.3719L30.8246 22.4795L30.7775 21.9261L30.3418 16.631L35.9234 25.5882H39.2951L41.7405 13.4908L41.7719 13.5733L42.2155 20.6661L42.2665 21.51V21.5178L42.9416 32.3081L42.9612 32.6379Z" fill="#715B2D"/>
<path d="M57.7901 2.09607V31.2091C57.7901 31.2091 57.7705 31.2013 57.7627 31.1934C53.4175 34.0235 48.4404 34.5102 42.9608 32.6418L42.9412 32.3082L42.2661 21.5178V21.51L42.215 20.67L41.7715 13.5733L46.623 25.4705H48.9506L57.7901 2.09607Z" fill="#967836"/>
<path d="M85.2425 16.6859L84.8029 22.0281L84.7558 22.5737L83.8608 33.4386L83.8334 33.7722C82.958 34.1019 81.6117 34.467 79.9749 34.467C78.0987 34.467 75.8338 33.9881 73.4591 32.4102C73.1804 32.5162 72.8978 32.6182 72.623 32.7124L72.6427 32.3749L73.3217 21.5178V21.51L73.3728 20.67L73.8124 13.6282L73.8438 13.5458L76.2852 25.6432H79.6609L85.2425 16.6859Z" fill="#967836"/>
<path d="M73.8136 13.6282L73.3739 20.67L73.3229 21.51V21.5178L72.6439 32.3749L72.6242 32.7124C67.129 34.573 62.1479 34.0745 57.7949 31.213V2.151L66.6344 25.5254H68.962L73.8136 13.6282Z" fill="#BF993C"/>
<path d="M60.345 2.55921C60.345 3.97228 59.2027 5.11843 57.7897 5.11843C56.3766 5.11843 55.2305 3.97228 55.2305 2.55921C55.2305 1.14615 56.3766 0 57.7897 0C58.088 0 58.3706 0.0510273 58.6375 0.145232C58.5433 0.125606 58.4413 0.117755 58.3392 0.117755C57.3932 0.117755 56.6239 0.88709 56.6239 1.83306C56.6239 2.77902 57.3932 3.54836 58.3392 3.54836C59.2852 3.54836 60.0545 2.77902 60.0545 1.83306C60.0545 1.57007 59.9956 1.31886 59.8857 1.09512C60.1762 1.51119 60.345 2.01362 60.345 2.55921Z" fill="#917127"/>
<path d="M60.0556 1.8331C60.0556 2.77907 59.2902 3.5484 58.3403 3.5484C57.3904 3.5484 56.625 2.77907 56.625 1.8331C56.625 0.887132 57.3943 0.117798 58.3403 0.117798C58.4424 0.117798 58.5444 0.125648 58.6386 0.145274C59.1489 0.321907 59.5846 0.659472 59.8868 1.09517C59.9967 1.3189 60.0556 1.57011 60.0556 1.8331Z" fill="#BF993C"/>
<path d="M75.8145 13.7813C75.8145 14.9039 74.9078 15.8145 73.7813 15.8145C72.6548 15.8145 71.748 14.9039 71.748 13.7813C71.748 12.6587 72.6587 11.748 73.7813 11.748C74.0168 11.748 74.2445 11.7873 74.4564 11.8619C74.3818 11.8462 74.2994 11.8383 74.2209 11.8383C73.4673 11.8383 72.8549 12.4507 72.8549 13.2043C72.8549 13.9579 73.4673 14.5702 74.2209 14.5702C74.9745 14.5702 75.5869 13.9579 75.5869 13.2043C75.5869 12.9963 75.5398 12.7961 75.4534 12.6155C75.685 12.9452 75.8185 13.3456 75.8185 13.7813H75.8145Z" fill="#917127"/>
<path d="M75.5835 13.2003C75.5835 13.9539 74.9751 14.5663 74.2175 14.5663C73.46 14.5663 72.8516 13.9539 72.8516 13.2003C72.8516 12.4467 73.4639 11.8344 74.2175 11.8344C74.3 11.8344 74.3785 11.8422 74.453 11.8579C74.8573 11.9992 75.2067 12.2661 75.4461 12.6115C75.5325 12.7882 75.5796 12.9884 75.5796 13.2003H75.5835Z" fill="#BF993C"/>
<path d="M43.8595 13.7264C43.8595 14.849 42.9527 15.7596 41.8262 15.7596C40.6997 15.7596 39.793 14.849 39.793 13.7264C39.793 12.6038 40.7036 11.6931 41.8262 11.6931C42.0617 11.6931 42.2894 11.7324 42.5013 11.8069C42.4268 11.7912 42.3443 11.7834 42.2658 11.7834C41.5122 11.7834 40.8999 12.3957 40.8999 13.1494C40.8999 13.903 41.5122 14.5153 42.2658 14.5153C43.0195 14.5153 43.6318 13.903 43.6318 13.1494C43.6318 12.9413 43.5847 12.7411 43.4983 12.5606C43.7299 12.8903 43.8634 13.2907 43.8634 13.7264H43.8595Z" fill="#917127"/>
<path d="M43.6284 13.1454C43.6284 13.899 43.02 14.5113 42.2624 14.5113C41.5049 14.5113 40.8965 13.899 40.8965 13.1454C40.8965 12.3917 41.5088 11.7794 42.2624 11.7794C42.3449 11.7794 42.4234 11.7873 42.498 11.803C42.9023 11.9443 43.2516 12.2112 43.491 12.5566C43.5774 12.7332 43.6245 12.9334 43.6245 13.1454H43.6284Z" fill="#BF993C"/>
<path d="M87.0688 16.788C87.0688 17.6005 86.4133 18.256 85.6047 18.256C84.7962 18.256 84.1367 17.5965 84.1367 16.788C84.1367 15.9794 84.7962 15.3199 85.6047 15.3199C85.7774 15.3199 85.9384 15.3474 86.0915 15.4024C86.0365 15.3906 85.9776 15.3867 85.9187 15.3867C85.3771 15.3867 84.9335 15.8263 84.9335 16.3719C84.9335 16.9175 85.3731 17.3571 85.9187 17.3571C86.4643 17.3571 86.904 16.9175 86.904 16.3719C86.904 16.2227 86.8686 16.0775 86.8058 15.948C86.9707 16.1874 87.0688 16.4739 87.0688 16.788Z" fill="#917127"/>
<path d="M86.904 16.3719C86.904 16.9136 86.4644 17.3572 85.9188 17.3572C85.3732 17.3572 84.9336 16.9175 84.9336 16.3719C84.9336 15.8263 85.3732 15.3867 85.9188 15.3867C85.9777 15.3867 86.0366 15.3906 86.0915 15.4024C86.3859 15.5045 86.6332 15.6968 86.8059 15.948C86.8687 16.0775 86.904 16.2189 86.904 16.3719Z" fill="#BF993C"/>
<path d="M31.6489 16.733C31.6489 17.5455 30.9934 18.201 30.1848 18.201C29.3762 18.201 28.7168 17.5416 28.7168 16.733C28.7168 15.9244 29.3762 15.265 30.1848 15.265C30.3575 15.265 30.5185 15.2925 30.6715 15.3474C30.6166 15.3357 30.5577 15.3317 30.4988 15.3317C29.9572 15.3317 29.5136 15.7714 29.5136 16.317C29.5136 16.8626 29.9532 17.3022 30.4988 17.3022C31.0444 17.3022 31.484 16.8626 31.484 16.317C31.484 16.1678 31.4487 16.0226 31.3859 15.893C31.5508 16.1325 31.6489 16.419 31.6489 16.733Z" fill="#917127"/>
<path d="M31.4802 16.317C31.4802 16.8587 31.0406 17.3022 30.495 17.3022C29.9494 17.3022 29.5098 16.8626 29.5098 16.317C29.5098 15.7714 29.9494 15.3318 30.495 15.3318C30.5539 15.3318 30.6127 15.3357 30.6677 15.3475C30.9621 15.4495 31.2094 15.6419 31.3821 15.8931C31.4449 16.0226 31.4802 16.1639 31.4802 16.317Z" fill="#BF993C"/>
<path d="M84.8035 22.0281L84.7564 22.5737V22.5776L80.7566 27.9394H75.2535L73.3263 21.4982L73.3223 21.51V21.5139L70.4844 27.853H65.6722L57.7943 11.3281L57.7904 11.3359L49.944 27.7981H45.1317L42.2899 21.4432L42.2663 21.5139V21.5178L40.3666 27.8884H34.8635L30.8244 22.4795L30.7773 21.926L35.0087 27.5901H40.1467L42.2153 20.67V20.6661L42.2349 20.5993L45.324 27.5037H49.7595L57.6334 10.9866L57.7904 10.6412L57.7943 10.6333L57.9592 10.9866L65.8606 27.5587H70.2921L73.3734 20.67L73.3812 20.6543L75.4694 27.645H80.6075L84.8035 22.0281Z" fill="white"/>
<path d="M83.8608 33.4385L83.8333 33.7722C82.958 34.1019 81.6117 34.4669 79.9749 34.4669C78.0986 34.4669 75.8338 33.9881 73.4591 32.4101C73.1804 32.5161 72.8978 32.6182 72.623 32.7124C67.1278 34.5729 62.1467 34.0744 57.7937 31.213H57.7898C57.7898 31.213 57.7701 31.2012 57.7623 31.1933C53.4171 34.0234 48.44 34.5101 42.9605 32.6417C42.6975 32.5475 42.4266 32.4533 42.1597 32.3513C39.7811 33.9292 37.5162 34.412 35.64 34.412C33.9797 34.412 32.6176 34.0352 31.7462 33.7054L31.7188 33.3718C33.4537 34.0509 37.5437 35.0793 42.0537 32.0529L42.1205 32.0098L42.195 32.0372C42.4463 32.1314 42.6935 32.2256 42.9408 32.3081C48.4204 34.2118 53.3818 33.7251 57.7034 30.8715L57.7858 30.8204L57.7937 30.8283L57.9154 30.9264C62.2252 33.78 67.1749 34.2667 72.6426 32.3748C72.9017 32.2885 73.1608 32.1942 73.4237 32.0922L73.4983 32.0647L73.5651 32.1118C78.0437 35.1185 82.1102 34.1215 83.8608 33.4385Z" fill="white"/>
</g>
<defs>
<linearGradient id="paint0_linear_4552_19135" x1="31.7461" y1="33.7997" x2="83.8332" y2="33.7997" gradientUnits="userSpaceOnUse">
<stop stop-color="#715B2D"/>
<stop offset="0.34" stop-color="#967836"/>
<stop offset="0.65" stop-color="#BF993C"/>
<stop offset="0.66" stop-color="#BC973B"/>
<stop offset="0.78" stop-color="#A78538"/>
<stop offset="0.89" stop-color="#9A7B36"/>
<stop offset="1" stop-color="#967836"/>
</linearGradient>
<clipPath id="clip0_4552_19135">
<rect width="120.613" height="64" fill="white" transform="translate(0.443359)"/>
</clipPath>
</defs>
</svg>
