<svg width="143" height="74" viewBox="0 0 143 74" fill="none" xmlns="http://www.w3.org/2000/svg">
<mask id="mask0_24_214" style="mask-type:luminance" maskUnits="userSpaceOnUse" x="0" y="0" width="143" height="74">
<path d="M142.042 0H0.695648V73.8857H142.042V0Z" fill="white"/>
</mask>
<g mask="url(#mask0_24_214)">
<path d="M75.572 31.0063C75.4549 31.163 75.3333 31.3229 75.2071 31.4843C75.124 31.5904 75.0401 31.6981 74.9538 31.8074C73.4816 33.6574 71.5702 35.7146 70.3265 37.0001C64.5442 30.8138 57.1895 28.9084 48.9478 28.8301C49.0644 28.494 49.0465 24.3372 49.3108 22.0973C49.3177 22.0484 49.3223 22.0027 49.3287 21.957C49.3774 21.5687 49.4375 21.2474 49.5086 21.0239C49.773 20.6128 50.013 20.6128 50.2094 20.9227C50.2741 21.0532 50.3388 21.1838 50.4054 21.3126C50.6536 21.8102 50.9015 22.3012 51.1433 22.7907C51.3801 23.267 51.6087 23.7418 51.8276 24.223C51.9538 24.5036 52.3076 25.4711 52.5182 25.4711C52.6073 25.4711 53.0028 24.3976 53.102 24.1267C53.1653 23.9522 53.23 23.7777 53.2933 23.6047C53.7523 22.3665 54.2369 21.138 54.7316 19.9145C54.7848 19.784 54.8367 19.6535 54.8904 19.523C54.9698 19.3289 55.2309 19.0629 55.38 19.0793C55.5746 19.1005 55.8357 19.3386 55.9037 19.5393C55.9509 19.6764 55.9964 19.8117 56.0418 19.9488C56.6058 21.603 57.1427 23.2638 57.6696 24.9294C57.6888 24.9914 57.7265 25.1382 57.7715 25.3013C57.8623 25.6211 57.9871 26.0029 58.0844 25.9246C58.1528 25.8691 58.2969 25.7239 58.4543 25.5591C58.6957 25.303 58.9734 24.9979 59.0541 24.9017C59.894 23.9131 60.7356 22.9277 61.5851 21.9472C62.4497 20.9455 63.3202 19.9472 64.1972 18.9553C64.3418 18.7921 64.7438 18.7007 64.9384 18.7823C65.1655 18.8786 65.334 19.1837 65.4574 19.4349C65.5304 19.585 65.5432 20.771 65.5093 21.7825C65.496 22.1512 65.4849 22.6552 65.4735 23.2263C65.4441 24.8495 65.4299 27.0241 65.4588 28.2118C65.4716 28.7224 65.4927 29.0519 65.5253 29.0781C65.6777 29.2004 65.7621 29.047 65.9273 28.9296C66.0944 28.8138 66.2601 28.6963 66.4253 28.5772C67.5863 27.7501 68.7244 26.8904 69.8823 26.06C70.2402 25.8038 70.612 25.5624 70.9975 25.3503C71.1062 25.29 71.2164 25.2328 71.3283 25.1774C71.5248 25.0795 71.8717 25.0746 72.0337 25.1904C72.1636 25.2834 72.2072 25.6521 72.1406 25.8495C72.0663 26.073 71.9901 26.2965 71.9121 26.52C71.4986 27.7419 71.0704 28.9573 70.6248 30.1678C70.5665 30.3309 70.5064 30.4941 70.4463 30.6572C70.3311 30.9688 69.8561 32.1646 69.9631 32.3718C70.0282 32.4975 70.3573 32.4811 70.5519 32.3979C71.4596 32.0113 72.3435 31.5659 73.2448 31.1597C73.3292 31.1222 73.4137 31.0847 73.4995 31.0471C73.9033 30.871 74.3297 30.7404 74.756 30.6262C74.8212 30.6099 74.884 30.592 74.9492 30.5756C75.0593 30.5479 75.6206 30.4974 75.572 31.0063Z" fill="#FEC810"/>
<path d="M48.7615 24.9538C48.7693 24.74 48.7776 24.5263 48.7872 24.3126C49.2884 23.9374 48.9024 23.2816 49.2461 22.8558C49.3921 22.9504 49.426 23.1201 49.5137 23.2538C49.5706 23.337 49.6206 23.4235 49.6564 23.5181C49.6725 23.5867 49.6757 23.6536 49.6647 23.7237C49.6371 23.8248 49.5848 23.9162 49.5316 24.0059C49.3742 24.3697 49.3595 24.7531 49.3792 25.1414C49.3792 25.2148 49.3696 25.2882 49.3563 25.36C49.2705 25.6846 49.2916 26.0158 49.2916 26.3453C49.2948 26.4155 49.2929 26.4856 49.2916 26.5558C49.2998 26.7793 49.225 27.0191 49.4196 27.2051C49.5008 27.2703 49.5752 27.3372 49.627 27.4302C49.6385 27.502 49.6289 27.5722 49.5995 27.6374C49.3141 28.0518 49.0516 28.3128 49.0208 28.334C48.818 27.3731 48.6156 26.9571 48.8556 25.9766C48.9478 25.5965 48.7014 25.3013 48.7629 24.9554L48.7615 24.9538Z" fill="#210603"/>
<path d="M72.6225 35.3947C72.4779 35.5611 72.3338 35.7275 72.1911 35.8939C71.946 35.8418 71.6643 35.9478 71.4596 35.7194C71.4192 35.6851 71.3981 35.646 71.3981 35.6019C71.3981 35.5546 71.4031 35.5318 71.4128 35.5318C71.5927 35.3148 71.8552 35.1794 72.0112 34.938C72.3742 34.5415 72.4747 33.9281 73.0341 33.6965C73.1103 33.6834 73.1787 33.7014 73.2384 33.7503C73.1883 34.168 72.8882 34.4616 72.6822 34.7944C72.5445 35.0179 72.4325 35.1729 72.6207 35.398L72.6225 35.3947Z" fill="#35140F"/>
<path d="M71.3059 35.7048C71.064 35.4781 71.1907 35.1632 71.1145 34.8973C71.1452 34.8826 71.176 34.8696 71.2067 34.8549C71.3577 34.8842 71.4321 34.9985 71.5036 35.1176C71.5358 35.1796 71.5569 35.2448 71.5684 35.3133C71.5766 35.4226 71.5261 35.5124 71.4646 35.5956C71.4646 35.6363 71.4646 35.6787 71.4596 35.7195C71.4077 35.7212 71.3559 35.7179 71.3059 35.7048Z" fill="#681B00"/>
<path d="M74.0589 32.6522C73.9488 32.8023 73.8368 32.954 73.7266 33.1041C73.5321 33.2379 73.3081 33.3064 73.0924 33.3928C72.9791 33.4287 72.8625 33.4499 72.7455 33.4663C72.3871 33.5005 72.0433 33.6539 71.6739 33.5935C71.5913 33.5788 71.5133 33.5495 71.4385 33.5087C71.3334 33.4304 71.2604 33.3325 71.254 33.1971C71.5344 32.7484 72.1117 32.9654 72.4536 32.6539C72.6578 32.5837 72.8689 32.5657 73.0814 32.5592C73.404 32.6261 73.7588 32.3537 74.0589 32.6522Z" fill="#431A07"/>
<path d="M72.7391 33.2855C72.851 33.274 72.963 33.261 73.0745 33.2496C73.3779 33.2545 73.3389 33.4274 73.2563 33.6232C73.248 33.6639 73.2416 33.7064 73.2384 33.7471C73.1787 33.757 73.1168 33.7651 73.0571 33.7749C72.9369 33.8418 72.8203 33.8483 72.7083 33.757C72.611 33.5922 72.6207 33.4355 72.7391 33.2855Z" fill="#B67B66"/>
<path d="M73.2563 33.6228C73.2416 33.476 73.214 33.3357 73.0745 33.2492C73.2627 33.0697 73.4963 33.0975 73.7248 33.104C73.6372 33.3389 73.4706 33.5021 73.2563 33.6212V33.6228Z" fill="#A77871"/>
<path d="M64.0545 28.6458C64.0903 28.6148 64.1261 28.5821 64.1619 28.5479C64.1376 28.6001 64.0999 28.6295 64.0545 28.6458Z" fill="#580800"/>
<path d="M64.6415 26.8575C64.6401 26.8754 64.6382 26.8933 64.635 26.9129C64.3936 27.2245 64.4923 27.7514 64.0091 27.9113C63.959 27.9635 63.9104 28.0157 63.8599 28.0679C63.8003 28.1773 63.7401 28.2882 63.6819 28.3975C63.6511 28.404 63.6204 28.4122 63.5892 28.4187C63.5827 28.3387 63.5974 28.2653 63.6249 28.1968C63.641 28.1544 63.664 28.1136 63.6897 28.0728C63.7011 28.0565 63.7126 28.0386 63.7241 28.0223C63.792 27.9276 63.8714 27.8428 63.9508 27.758C63.9705 27.7482 63.9898 27.7368 64.0059 27.7237C64.2234 27.5655 64.2362 27.2359 64.3936 27.0271C64.4505 26.9488 64.5281 26.8868 64.6415 26.8575Z" fill="#580800"/>
<path d="M64.8315 27.5577C64.8916 27.4043 64.9269 27.2542 64.9466 27.1106C64.9774 27.2705 64.9416 27.419 64.8315 27.5577Z" fill="#580800"/>
<path d="M64.825 26.9245C64.7617 26.9212 64.6984 26.9163 64.635 26.913C64.3968 26.4383 64.0288 26.0304 63.9168 25.4937C63.7108 25.634 63.5474 25.5818 63.4157 25.3812C63.4111 25.3844 63.406 25.386 63.4014 25.3893C63.2294 25.4594 63.0527 25.51 62.8677 25.5361C62.6732 25.541 62.5029 25.4741 62.3423 25.3713C62.1578 25.2213 62.0394 25.0385 62.0587 24.789C62.1335 24.7302 62.2078 24.6715 62.2826 24.6144C62.3652 24.6698 62.4478 24.7253 62.5304 24.7808C62.8466 24.8885 63.1858 24.8575 63.5065 24.9439C64.7956 24.9488 65.1118 26.2588 65.0063 26.7597C65.0324 26.9098 64.9691 26.9619 64.825 26.9245Z" fill="#691701"/>
<path d="M66.6345 29.1025C66.8989 29.0503 67.1178 28.8268 67.4142 28.8937C67.5033 28.9475 67.6203 28.9769 67.6139 29.1172C67.4987 29.3864 67.21 29.3994 67.0072 29.5397C66.7415 29.7208 66.4771 29.9019 66.5079 30.282C66.5405 30.6263 66.8874 30.7878 66.9783 31.0994C66.9718 31.2609 66.9053 31.3946 66.7883 31.5056C66.7139 31.5382 66.6377 31.5431 66.5583 31.5251C66.2601 31.3734 66.0669 31.119 65.9113 30.8318C65.78 30.5528 65.7557 30.2771 65.9485 30.0129C66.1384 29.6801 66.2922 29.3195 66.6345 29.1025Z" fill="#361A05"/>
<path d="M59.424 26.2687C59.435 26.2149 59.4451 26.161 59.4561 26.1072C59.5635 26.011 59.6769 26.0207 59.7921 26.0893C59.9477 26.2393 59.972 26.4433 60.011 26.6407C60.0546 26.9033 60.1487 27.1513 60.2331 27.4009C60.3625 27.9409 60.6236 28.4205 60.9077 28.8904C61.0679 29.2786 61.4492 29.2117 61.7539 29.2999C61.8595 29.3635 61.9325 29.4516 61.9614 29.5739C61.9499 29.6571 61.9114 29.7224 61.843 29.7713C61.5447 29.9279 61.2413 30.0111 60.9155 29.8529C60.6498 29.4695 60.3822 29.0877 60.1161 28.7044C59.6526 28.1366 59.3864 27.502 59.4548 26.7532C59.4676 26.701 59.463 26.6521 59.4401 26.6032C59.435 26.4922 59.4305 26.3813 59.424 26.2704V26.2687Z" fill="#611103"/>
<path d="M57.3823 27.2461C57.0744 27.8872 56.4828 27.8807 55.9023 27.9019C55.8665 27.8709 55.8371 27.835 55.816 27.7942C55.8032 27.7714 55.7935 27.7469 55.7871 27.7208C55.7839 27.7176 55.7839 27.7126 55.782 27.7094C55.7692 27.5903 55.7917 27.4826 55.8665 27.388C55.878 27.3798 55.8908 27.3717 55.9037 27.3652C55.9119 27.3619 55.9216 27.357 55.9312 27.3537C56.2102 27.2363 56.6141 27.4875 56.7907 27.0731C56.8054 27.0323 56.8132 26.9899 56.8164 26.9491C56.8183 26.9247 56.8197 26.9018 56.8197 26.879C56.8197 26.8056 56.8068 26.7338 56.7889 26.662C56.7857 26.6424 56.7811 26.6245 56.7761 26.6066C56.7761 26.6 56.7728 26.5951 56.771 26.5886C56.7646 26.5511 56.7632 26.5136 56.7632 26.476C56.7632 26.4548 56.7646 26.4336 56.7678 26.4108C56.7678 26.401 56.7678 26.3896 56.771 26.3782C56.7907 26.3211 56.8215 26.2738 56.8637 26.2363C56.8733 26.2264 56.8848 26.2167 56.8963 26.2085C57.6223 26.419 57.3823 27.2461 57.3823 27.2461Z" fill="#190100"/>
<path d="M49.1328 26.6227C49.1227 26.5623 49.1149 26.5036 49.1053 26.4432C49.2897 26.0778 49.0497 25.6585 49.2512 25.2947C49.2723 25.236 49.2929 25.1773 49.3141 25.1185C49.4003 25.0418 49.4958 25.0369 49.5995 25.0712C49.773 25.1642 49.8721 25.3632 50.0782 25.4105C50.2466 25.4529 50.4283 25.4628 50.5642 25.5916C50.6582 25.8543 50.4637 26.0125 50.3489 26.2001C50.0295 26.5492 49.9125 27.1333 49.2897 27.1317C49.0938 27.006 49.2269 26.7776 49.1342 26.6194L49.1328 26.6227Z" fill="#B03626"/>
<path d="M49.5591 25.1495C49.4765 25.1398 49.3953 25.13 49.3127 25.1202C48.9804 24.6716 49.259 24.2621 49.3971 23.8445C49.7505 23.9554 50.0052 24.2066 50.2548 24.4627C50.2709 24.5345 50.2581 24.6014 50.2204 24.665C50.0052 24.8331 49.7941 25.0092 49.5573 25.1495H49.5591Z" fill="#BC797F"/>
<path d="M49.2558 27.0679C49.7684 26.9357 49.9029 26.4235 50.2223 26.0956C50.3246 26.1788 50.3631 26.2897 50.3765 26.4153C50.365 26.8329 50.1268 27.0858 49.7698 27.2539C49.7115 27.3077 49.6532 27.3599 49.5949 27.4137C49.4779 27.4088 49.3595 27.4056 49.2429 27.4007C49.1617 27.2865 49.1603 27.1755 49.2558 27.0679Z" fill="#540500"/>
<path d="M50.214 24.4613C49.7473 24.5167 49.6514 24.0746 49.3971 23.8446C49.4618 23.7777 49.5265 23.7108 49.5917 23.6439C49.8574 23.5901 49.9937 23.7712 50.1346 23.9441C50.2204 24.1072 50.3177 24.2704 50.2126 24.4613H50.214Z" fill="#511802"/>
<path d="M49.2494 25.2965C49.2333 25.6831 49.3595 26.0877 49.1034 26.445C49.1328 26.06 48.9478 25.6472 49.2494 25.2965Z" fill="#432211"/>
<path d="M49.2558 27.0683C49.2512 27.1792 49.2461 27.2901 49.2429 27.4011C48.969 27.1743 49.1227 26.8872 49.1328 26.6212C49.2801 26.7403 49.2397 26.9116 49.2558 27.0666V27.0683Z" fill="#7F504B"/>
<path d="M72.7358 33.7455C72.8428 33.7553 72.9515 33.7651 73.0585 33.7749C72.7358 34.204 72.4132 34.633 72.0906 35.0605C71.8942 35.1649 71.7161 35.3427 71.4646 35.2138L71.4256 35.2024C71.3398 34.8663 71.2054 34.5417 71.1503 34.1991C71.1016 33.8891 71.0218 33.5481 71.4192 33.3768C71.4679 33.3801 71.5119 33.3964 71.5505 33.4274C71.891 33.7358 72.371 33.5253 72.7358 33.7455Z" fill="#AC2E1A"/>
<path d="M71.4646 35.2137C71.6611 35.1093 71.8621 35.0261 72.0906 35.0603C71.9561 35.3263 71.7662 35.5253 71.4628 35.5922C71.4628 35.4666 71.4628 35.3393 71.4628 35.212L71.4646 35.2137Z" fill="#964445"/>
<path d="M71.1714 34.9086C71.0869 34.4567 71.0287 33.3506 71.126 33.2396C71.192 33.1923 71.2508 33.1989 71.2976 33.269C71.338 33.3049 71.3802 33.3408 71.421 33.3766C71.0837 33.9868 71.6234 34.5937 71.4256 35.2022C71.3398 35.1043 71.2554 35.0065 71.1696 34.9086H71.1714Z" fill="#5D0000"/>
<path d="M72.7358 33.7455C72.2967 33.8075 71.8084 34.0538 71.5523 33.4274C71.9479 33.38 72.3435 33.3327 72.7409 33.2854C72.7409 33.4388 72.7377 33.5921 72.7377 33.7455H72.7358Z" fill="#F1D3BF"/>
<path d="M69.5009 31.6114C69.4592 31.6375 69.4151 31.6603 69.3715 31.6815C69.1705 31.5543 69.1187 31.3406 69.0489 31.1367C68.8786 30.5493 69.0875 29.9245 68.8718 29.3421C68.752 29.241 68.5996 29.2116 68.4569 29.1627C68.2054 29.0534 67.8814 29.1202 67.6946 28.8527C68.2963 28.6798 68.8979 28.5444 69.4766 28.9278C69.4931 29.0175 69.5074 29.1072 69.5239 29.1986C69.595 29.3013 69.6244 29.4172 69.6244 29.5412C69.545 29.9735 69.5303 30.4041 69.6437 30.8332C69.6744 31.0029 69.6097 31.153 69.556 31.3079C69.5386 31.4091 69.5207 31.5119 69.5028 31.613L69.5009 31.6114Z" fill="#321803"/>
<path d="M54.2676 27.0843C54.2566 27.1267 54.2529 27.1659 54.258 27.2099C54.3163 27.3339 54.3732 27.453 54.4301 27.5737C54.4025 27.5737 54.3732 27.5737 54.3456 27.577C54.3392 27.5737 54.3342 27.5689 54.3277 27.564C54.2451 27.4824 54.1933 27.3845 54.18 27.267C54.18 27.2556 54.18 27.2426 54.1836 27.2311C54.1836 27.2083 54.1882 27.1871 54.1965 27.1659C54.2011 27.1431 54.2093 27.1202 54.2176 27.099C54.2254 27.0843 54.2323 27.0697 54.2401 27.0566C54.2401 27.055 54.2419 27.055 54.2419 27.0533C54.3489 26.9228 54.587 26.8983 54.5967 26.6977C54.5985 26.6748 54.5967 26.6487 54.5889 26.6194C54.5889 26.6194 54.5889 26.6161 54.5889 26.6145C54.5889 26.6112 54.5889 26.6063 54.587 26.6014C54.587 26.5998 54.587 26.5982 54.587 26.5966C54.4833 26.3828 54.2823 26.2817 54.1038 26.1561C54.0896 26.1447 54.073 26.1332 54.0584 26.1218C54.0506 26.1169 54.0441 26.1104 54.0359 26.1039C54.0051 26.0794 53.979 26.0533 53.9533 26.0239C53.945 26.0141 53.9367 26.006 53.9289 25.9962C53.9207 25.9848 53.9143 25.975 53.906 25.9636C53.8817 25.8885 53.8964 25.8216 53.9533 25.7661C53.9533 25.8314 53.9546 25.8983 53.9565 25.9636C54.0051 25.9571 54.0538 25.9571 54.1024 25.9636C54.3667 26.1283 54.7041 26.2148 54.7688 26.5916C54.9927 27.1545 54.5627 27.0501 54.2695 27.0843H54.2676Z" fill="#0C0905"/>
<path d="M56.3626 24.4741C56.2589 24.4774 56.1565 24.479 56.0528 24.4822C56.1079 24.6585 56.1891 24.833 56.2134 25.0141C56.285 25.5443 56.0175 25.9163 55.5521 26.0794C55.0524 26.2539 54.9422 25.7825 54.7591 25.4692C54.7233 25.4432 54.6843 25.4333 54.6389 25.4399C54.6357 25.4138 54.6325 25.386 54.6292 25.36C54.6504 25.36 54.6715 25.3632 54.6907 25.3681C54.7252 25.373 54.7573 25.3828 54.788 25.3974C54.8027 25.4007 54.816 25.4072 54.8289 25.4138C54.8335 25.417 54.8385 25.4187 54.8436 25.4236C55.0882 25.572 55.2001 26.0043 55.604 25.8037C55.9619 25.6275 56.0432 25.3012 56.006 24.9293C55.9931 24.7857 55.967 24.6405 56.0221 24.5002C56.0221 24.4921 56.0271 24.4822 56.0317 24.4741C56.0317 24.4692 56.0349 24.4643 56.0386 24.4594C56.1437 24.386 56.257 24.3778 56.3754 24.4154C56.3786 24.417 56.3837 24.4186 56.3869 24.4203C56.3786 24.4382 56.3708 24.4562 56.3626 24.4741Z" fill="#0C0905"/>
<path d="M56.8734 26.2538C56.8683 26.3158 56.8637 26.3794 56.8587 26.4414C56.8279 26.4577 56.7953 26.4691 56.7632 26.4756C56.5943 26.5181 56.408 26.4708 56.246 26.5507C56.2295 26.5588 56.2153 26.567 56.2006 26.5768C56.1955 26.5784 56.1891 26.5817 56.1841 26.5849C55.9055 26.704 55.7917 26.8933 55.9491 27.1935C55.9509 27.1935 55.9509 27.1951 55.9509 27.1951C55.9541 27.2131 55.9555 27.2277 55.9555 27.2457C55.9555 27.2832 55.9477 27.3191 55.9312 27.3534C55.9234 27.368 55.9151 27.3811 55.9055 27.3941C55.9005 27.5083 55.8972 27.6225 55.894 27.7367C55.8679 27.7595 55.8422 27.7791 55.816 27.7938C55.3686 28.0809 54.9684 27.5475 54.532 27.6617C54.4897 27.6535 54.4507 27.6389 54.4136 27.6193C54.42 27.6046 54.4269 27.5899 54.4333 27.5752C54.9147 27.3468 55.341 27.6372 55.7871 27.7204C55.7839 27.7171 55.7839 27.7122 55.782 27.709C55.7692 27.5899 55.7917 27.4822 55.8665 27.3876C55.878 27.3794 55.8908 27.3713 55.9037 27.3648C55.9037 27.3256 55.9023 27.2864 55.9005 27.2473C55.2148 26.678 55.7531 26.5703 56.2052 26.4284C56.3984 26.1429 56.5833 26.3272 56.7678 26.4104C56.7678 26.4006 56.7678 26.3892 56.771 26.3778C56.7907 26.3207 56.8215 26.2733 56.8637 26.2358C56.8669 26.2424 56.8701 26.2473 56.8734 26.2538Z" fill="#0C0905"/>
<path d="M56.8958 26.2085C56.8541 26.2461 56.7907 26.3211 56.771 26.3782C56.7696 26.3896 56.7678 26.4011 56.7678 26.4108C56.5833 26.3276 56.3984 26.1433 56.2052 26.4288C55.7531 26.5707 55.2148 26.6784 55.9005 27.2477C55.9005 27.2869 55.9037 27.3261 55.9037 27.3652C55.8908 27.3717 55.878 27.3799 55.8665 27.3881C55.7917 27.4826 55.7692 27.5903 55.782 27.7094C55.7839 27.7127 55.7839 27.7176 55.7871 27.7209C55.341 27.6377 54.9147 27.3473 54.4333 27.5757C54.4264 27.5903 54.42 27.605 54.4136 27.6197C54.3892 27.6083 54.3667 27.5936 54.3456 27.5773C54.3732 27.5757 54.4021 27.5757 54.4301 27.574C54.3732 27.4533 54.3163 27.3342 54.258 27.2118C54.2529 27.1662 54.2561 27.127 54.2676 27.0846C54.5613 27.0503 54.9909 27.1547 54.7669 26.5919C54.7022 26.2151 54.3649 26.1286 54.1006 25.9638C54.0519 25.9573 54.0033 25.9573 53.9546 25.9638C53.9546 25.8986 53.9514 25.8317 53.9514 25.7664C53.9386 25.7616 53.9271 25.7566 53.9143 25.7534C54.2727 25.7158 54.2401 24.8137 54.2791 24.6098C54.3098 24.396 54.5742 24.1383 54.5742 24.1383C54.9569 23.812 55.9202 23.4923 56.4746 24.4678C56.9303 25.2835 56.3126 26.0813 56.8945 26.2085H56.8958Z" fill="#0C0905"/>
<path d="M56.3869 24.4201C56.3786 24.438 56.3708 24.456 56.3626 24.4739C56.2589 24.4772 56.1565 24.4788 56.0528 24.4821C56.0432 24.4886 56.0317 24.4951 56.0221 24.5C55.8991 24.5636 55.7674 24.531 55.6379 24.5245C55.5976 24.5228 55.5553 24.5196 55.5145 24.5196C55.3507 24.5147 55.1951 24.5278 55.0638 24.6142C55.0381 24.6306 55.0138 24.6485 54.9909 24.6713C54.9601 24.6991 54.9326 24.7333 54.9064 24.7724C54.7899 24.9535 54.8013 25.1869 54.6907 25.3679C54.6765 25.3924 54.6586 25.4169 54.6389 25.4397C54.6357 25.4136 54.6325 25.3859 54.6292 25.3598C54.5985 25.1004 54.5659 24.8394 54.7463 24.606C54.9826 24.2276 55.3525 24.3271 55.6981 24.3451C55.8096 24.3875 55.9202 24.4315 56.0317 24.4739C56.0317 24.469 56.0349 24.4641 56.0386 24.4592C56.1437 24.3858 56.257 24.3777 56.3754 24.4152C56.3786 24.4168 56.3837 24.4184 56.3869 24.4201Z" fill="#0C0905"/>
<path d="M54.4301 27.5738C54.4021 27.5738 54.3732 27.5738 54.3456 27.577C54.1607 27.5835 53.9776 27.5917 53.7926 27.5966C53.3709 27.5378 52.4581 26.8217 53.2979 25.926C53.4989 25.8608 53.6729 25.6846 53.906 25.7515C53.906 25.7515 53.911 25.7515 53.9124 25.7531C53.9257 25.7564 53.9367 25.7613 53.9501 25.7662C53.9501 25.8314 53.9514 25.8983 53.9533 25.9636C53.9533 25.9848 53.9533 26.0044 53.9501 26.0223C53.9239 26.2899 53.7132 26.3796 53.5122 26.4807C53.5334 26.5052 53.5526 26.5313 53.5673 26.559C53.577 26.577 53.5852 26.5966 53.5916 26.6161C53.593 26.6227 53.5948 26.6292 53.5962 26.6357C53.6288 26.7662 53.6205 26.8951 53.5852 27.024C53.593 27.0223 53.6013 27.0207 53.6109 27.0191C53.6256 27.0158 53.6417 27.0158 53.6582 27.0158C53.6646 27.0158 53.6729 27.0158 53.6807 27.0174C53.8574 27.0517 54.0409 27.068 54.1947 27.1659C54.2158 27.179 54.2369 27.1936 54.2561 27.2099C54.3149 27.3339 54.3713 27.453 54.4282 27.5738H54.4301Z" fill="#1D1302"/>
<path d="M59.7287 26.1233C59.6379 26.1184 59.547 26.1135 59.4561 26.107C59.4516 25.89 59.4465 25.6747 59.4419 25.4577C59.4695 25.3027 59.497 25.1478 59.5245 24.9911C59.7301 24.4724 60.34 24.2276 60.6498 24.0645C60.6691 24.0955 60.4924 24.5621 60.5135 24.5931C60.541 24.7056 60.5199 24.8117 60.4616 24.9096C60.2799 25.164 60.0252 25.3712 59.9816 25.709C59.9655 25.815 59.9412 25.9178 59.8972 26.0157C59.8618 26.0825 59.8049 26.1168 59.7301 26.1201L59.7287 26.1233Z" fill="#452B13"/>
<path d="M62.2826 24.6144C62.2436 24.7253 62.1757 24.8101 62.0669 24.8607C61.6388 24.8607 61.2303 24.6193 60.7893 24.7498C60.614 24.7465 60.5282 24.6225 60.4437 24.4969L60.4534 24.5034C60.4488 24.4463 60.4437 24.3876 60.4391 24.3305L60.4488 24.3207C60.5103 24.2114 60.5603 24.0907 60.687 24.0368C61.0614 23.9912 61.7879 23.9732 62.2808 24.616L62.2826 24.6144Z" fill="#652B09"/>
<path d="M64.3936 27.0272C64.3854 27.0566 64.3776 27.0876 64.3675 27.1186C64.2817 27.4024 64.1357 27.6504 64.0091 27.9114C63.959 27.9636 63.9104 28.0158 63.8599 28.068C63.7824 28.1121 63.7043 28.1545 63.6249 28.1969C63.4175 28.3079 63.2037 28.4107 62.9893 28.5101C62.9701 28.5183 62.9522 28.5281 62.9324 28.5363C62.9214 28.5411 62.9118 28.5477 62.9003 28.5526C62.6961 28.6553 62.4882 28.7336 62.2565 28.6113C62.245 28.5901 62.234 28.5689 62.2275 28.5477C62.2257 28.546 62.2239 28.5428 62.2239 28.5411C62.2174 28.5264 62.2129 28.5118 62.2096 28.4987C62.1853 28.4123 62.1931 28.3405 62.2174 28.2769C62.2615 28.1627 62.3588 28.0713 62.4464 27.975C62.49 27.9277 62.529 27.8804 62.5598 27.8282C62.8402 27.4661 63.1628 27.1235 63.0981 26.6063C63.1192 26.5786 63.1385 26.5508 63.1564 26.5199C63.2959 26.2898 63.3574 25.9913 63.5859 25.8396C63.6121 25.82 63.641 25.8037 63.6736 25.7923C63.6754 25.789 63.6768 25.789 63.68 25.7873C63.7305 25.7661 63.7856 25.7515 63.8503 25.7433C63.9265 25.7759 63.9948 25.8118 64.0545 25.8493C64.4827 26.1218 64.5267 26.5346 64.3936 27.0272Z" fill="#ED2009"/>
<path d="M64.6415 26.8578C64.6401 26.8757 64.6382 26.8937 64.635 26.9133C64.3936 27.2249 64.4923 27.7518 64.0091 27.9117C63.9994 27.8464 63.9994 27.7844 64.0059 27.7241C64.0288 27.5169 64.1307 27.3325 64.2105 27.1384C64.4147 26.6327 64.4083 26.202 63.9962 25.9344C63.9104 25.8773 63.8049 25.8284 63.68 25.7876H63.6786C63.6786 25.7876 63.6754 25.7909 63.6736 25.7925C63.6479 25.8153 63.6185 25.8316 63.5859 25.8398C63.552 25.8528 63.5162 25.8545 63.479 25.848C63.2376 25.7599 62.9861 25.6864 62.8466 25.4401C62.9797 25.2639 63.1826 25.321 63.3574 25.2835C63.5616 25.3879 63.7677 25.4841 64.0077 25.4205C64.0467 25.5201 64.0986 25.6147 64.155 25.706C64.3808 26.0633 64.6901 26.3847 64.6415 26.8578Z" fill="#CF2F18"/>
<path d="M63.8599 28.0681C63.8003 28.1774 63.7401 28.2883 63.6819 28.3976C63.6511 28.4041 63.6199 28.4123 63.5892 28.4188C63.4015 28.4613 63.2133 28.5037 63.0251 28.5477C62.9715 28.5608 62.9292 28.5624 62.9003 28.5526C62.8485 28.5347 62.8338 28.4825 62.8664 28.3829C63.1096 28.1839 63.3882 28.0926 63.6897 28.073C63.7466 28.0681 63.8035 28.0665 63.8599 28.0681Z" fill="#E0270F"/>
<path d="M67.6946 28.8526C67.9718 28.9391 68.3077 28.7515 68.5413 29.037C68.4551 29.1414 68.3385 29.1887 68.2086 29.2116C67.9915 29.2328 67.7791 29.2262 67.6056 29.0631C67.5409 29.0076 67.4757 28.9505 67.4129 28.8951C67.5065 28.8804 67.6006 28.8673 67.6933 28.8526H67.6946Z" fill="#1A0201"/>
<path d="M69.042 29.032C69.3633 29.7205 69.1053 30.453 69.2013 31.1577C69.2953 31.3421 69.321 31.5183 69.1462 31.6716C68.9415 31.7924 68.8314 31.3013 68.6042 31.5917C68.5767 31.7597 68.6386 31.931 68.5721 32.0942C68.0806 32.4563 67.7938 32.1056 67.4968 31.7875C67.3527 31.5313 67.1012 31.3715 66.9214 31.1447C66.6474 30.9179 66.3638 30.6993 66.2972 30.3143C66.3927 30.2295 66.5028 30.1756 66.6281 30.1544C66.8695 30.1218 67.1095 30.1365 67.3463 30.1903C67.6607 30.2523 67.9025 30.4823 68.1701 30.6161C68.4018 30.3714 68.2541 30.1104 68.3123 29.8836C68.4486 29.5068 68.6336 29.1724 69.042 29.0288V29.032Z" fill="#35342C"/>
<path d="M67.6074 29.0633C67.7984 29.0665 67.9897 29.0698 68.1811 29.0731C68.4519 29.3488 68.2362 29.5951 68.1357 29.848C67.9961 30.0144 67.813 30.096 67.6006 30.1172C67.4303 30.1172 67.2844 30.0421 67.1467 29.9491C66.9925 29.7893 66.6813 29.6832 66.9425 29.3749C67.1646 29.2705 67.3849 29.1677 67.6074 29.0633Z" fill="#DFD7D4"/>
<path d="M66.92 31.1466C67.3137 31.0765 67.445 31.3522 67.5652 31.6426C67.6446 31.7861 67.5505 31.8449 67.4436 31.902C67.244 31.9574 67.0659 31.902 66.897 31.7959C66.8016 31.7258 66.73 31.6409 66.7415 31.5121C66.7561 31.3685 66.7786 31.2298 66.92 31.1483V31.1466Z" fill="#060201"/>
<path d="M66.9425 29.3734C66.892 29.6345 67.1972 29.6557 67.2587 29.8433C67.0902 30.0782 66.7575 30.0912 66.5955 30.3343C66.4964 30.3294 66.3959 30.3245 66.2972 30.318C66.2339 29.8106 66.5827 29.5887 66.9425 29.3751V29.3734Z" fill="#5F544C"/>
<path d="M66.2665 31.809C66.3766 31.7062 66.4868 31.6034 66.5955 31.499C66.6442 31.5007 66.6928 31.5039 66.7415 31.5105C66.7901 31.561 66.8401 31.6133 66.8888 31.6638C67.0755 31.8922 66.9278 32.0146 66.7318 32.0652C66.5226 32.119 66.2922 32.1255 66.2665 31.8074V31.809Z" fill="#D4C4A3"/>
<path d="M63.0251 28.5477C62.9568 28.8071 62.6667 28.8381 62.5336 29.0307C62.318 29.2639 62.0683 29.4124 61.7379 29.3683C61.6823 29.383 61.6291 29.3961 61.5754 29.4059C61.2432 29.4776 60.943 29.458 60.7875 29.0307C60.7939 28.4433 60.1436 28.0257 60.3676 27.3813C60.4942 27.2051 60.6576 27.1154 60.8797 27.1692C60.8797 27.1708 60.8834 27.1708 60.8848 27.1725C61.2836 27.4188 61.3795 27.905 61.6892 28.2214C61.7393 28.2672 61.7975 28.2981 61.859 28.3259C61.9114 28.3504 61.9664 28.3699 62.0183 28.3944C62.083 28.427 62.1445 28.4629 62.1931 28.52C62.2032 28.5282 62.211 28.538 62.2174 28.5477H62.2275C62.4607 28.5706 62.6686 28.4972 62.8664 28.383C62.9067 28.4254 62.9471 28.4678 62.9893 28.5102C63.0008 28.5233 63.0123 28.5347 63.0251 28.5477Z" fill="#E5280F"/>
<path d="M59.8292 26.7613C59.7953 26.5476 59.7627 26.3355 59.7287 26.1234L59.7677 26.0957L59.8063 26.1234C59.9899 26.006 60.1583 26.112 60.3304 26.1593C60.5346 26.2392 60.765 26.2605 60.9366 26.4187C61.0096 26.5166 61.0293 26.6259 61.0096 26.745C60.8912 27.1267 60.6383 27.2002 60.2927 27.055C60.1275 26.975 59.9752 26.8722 59.8274 26.763L59.8292 26.7613Z" fill="#F16B68"/>
<path d="M60.4323 27.4221C60.3643 27.9996 61.0211 28.4156 60.7875 29.029C60.4892 28.5314 60.1294 28.0583 60.1161 27.4384C60.1486 27.3764 60.1991 27.3405 60.267 27.3307C60.335 27.3372 60.39 27.3682 60.4323 27.4221Z" fill="#D52F1C"/>
<path d="M62.5337 29.0306C62.318 29.2639 62.0683 29.4123 61.7379 29.3683C62.0018 29.2557 62.2679 29.1431 62.5337 29.0306Z" fill="#5D0700"/>
<path d="M60.2721 27.3913C60.2198 27.4076 60.1679 27.4239 60.1161 27.4386C59.9118 27.2591 59.938 26.9818 59.8292 26.7599C59.9963 26.7599 60.1716 26.7355 60.2753 26.9182C60.4033 27.0764 60.4098 27.233 60.2721 27.3897V27.3913Z" fill="#FA7B55"/>
<path d="M55.7967 28.4156C55.565 28.4858 55.0914 28.3863 54.8578 28.3781C54.1869 28.3488 54.1267 28.2525 54.4136 27.6179C54.42 27.6032 54.4264 27.5885 54.4333 27.5738C54.9147 27.3455 55.341 27.6358 55.7871 27.719C55.8229 27.7255 55.8582 27.7321 55.894 27.7354C55.8972 27.7892 55.9004 27.8446 55.9023 27.9001C55.9395 28.1677 55.9688 28.4156 55.7967 28.4156Z" fill="#2E170E"/>
<path d="M57.0193 27.068C56.8279 27.7989 56.3465 27.5281 55.9055 27.3943C55.9055 27.3845 55.9055 27.3747 55.9037 27.3649C55.9037 27.3258 55.9023 27.2866 55.9005 27.2475C55.9151 27.2279 55.9312 27.2099 55.9491 27.1937C55.9766 27.1675 56.0074 27.1463 56.0432 27.13C56.0464 27.1267 56.0514 27.1251 56.0546 27.1235C56.0836 27.1153 56.1143 27.1088 56.1437 27.1006C56.3332 27.0517 56.52 26.9914 56.687 26.8853C56.6902 26.8837 56.6916 26.882 56.6948 26.8804C56.7013 26.8788 56.7081 26.8771 56.7146 26.8771C56.755 26.869 56.7889 26.8706 56.8197 26.8788C56.9092 26.9032 56.9642 26.9848 57.0193 27.068Z" fill="#432D30"/>
<path d="M56.8573 26.5949C56.8362 26.621 56.8132 26.6422 56.7889 26.6617C56.7338 26.7025 56.6705 26.7254 56.6026 26.7368C56.5847 26.7401 56.5668 26.7417 56.5489 26.7433H56.5425C56.4273 26.7433 56.3254 26.7172 56.2313 26.6519C56.2263 26.6503 56.2199 26.6454 56.2153 26.6422C56.2052 26.6291 56.1974 26.6161 56.1909 26.6014C56.1877 26.5965 56.1859 26.5916 56.1841 26.5851C56.1666 26.5345 56.173 26.4823 56.2052 26.4285C56.3984 26.143 56.5833 26.3273 56.7678 26.4105C56.799 26.4252 56.8279 26.435 56.8587 26.4415C56.872 26.4921 56.872 26.5443 56.8555 26.5949H56.8573Z" fill="#FCE6DA"/>
<path d="M56.5246 26.6391C56.6352 26.6245 56.7467 26.6098 56.8573 26.5935C57.0583 26.7011 57.0078 26.8953 57.0193 27.0682C56.9238 27.0111 56.8279 26.954 56.7325 26.8969C56.5962 26.8659 56.5296 26.7778 56.5246 26.6391Z" fill="#867567"/>
<path d="M49.5591 25.1494C49.6013 24.735 49.8478 24.5996 50.2319 24.6534C50.2626 24.673 50.2939 24.6909 50.326 24.7089C50.4962 24.9014 50.678 25.0906 50.6146 25.3843C50.4219 25.6502 50.141 25.4952 49.8996 25.5311C49.7863 25.4039 49.6725 25.2766 49.561 25.1477L49.5591 25.1494Z" fill="#F6DDDE"/>
<path d="M50.7413 26.1135C50.6376 26.3256 50.4673 26.4398 50.2337 26.4545C50.2305 26.3354 50.2255 26.2163 50.2223 26.0956C50.331 25.9439 50.4393 25.7905 50.5481 25.6388C50.5889 25.5784 50.6454 25.5539 50.717 25.567C50.8124 25.6111 50.8822 25.6812 50.9226 25.7791C50.9501 25.9373 50.8221 26.0124 50.7427 26.1119L50.7413 26.1135Z" fill="#551205"/>
<path d="M50.6991 25.5964C50.6504 25.6144 50.5999 25.6274 50.5481 25.6388C50.3324 25.5932 50.0924 25.7041 49.8978 25.5312C50.0924 25.4007 50.3797 25.5524 50.5403 25.3191C50.8156 25.2832 50.8042 25.4121 50.6972 25.5964H50.6991Z" fill="#EBA5A2"/>
<path d="M67.4142 32.1531C67.3592 32.2542 67.3023 32.3554 67.2472 32.4566C66.6992 32.9133 65.9842 32.0259 66.0425 31.9296C66.1008 31.8334 66.1628 31.8122 66.2679 31.8089C66.5386 32.0373 66.7901 32.1776 66.8906 31.6653C67.0622 31.711 67.2343 31.7567 67.4078 31.8023C67.5083 31.9166 67.5083 32.034 67.4142 32.1531Z" fill="#432500"/>
<path d="M67.4142 32.1531C67.4129 32.0356 67.4096 31.9198 67.4078 31.8023C67.4615 31.7485 67.5134 31.6963 67.5666 31.6424C67.8667 31.8399 68.0645 32.3456 68.556 31.9769C68.5996 31.9279 68.6547 31.9067 68.7194 31.9133C68.846 31.9443 68.9415 32.0193 69.0145 32.1254C69.0631 32.1727 69.1118 32.22 69.159 32.2673C69.008 32.3342 68.8575 32.4027 68.7052 32.4696C68.2527 32.4533 67.813 32.388 67.4142 32.1547V32.1531Z" fill="#2E1C03"/>
<path d="M69.1572 32.2657C69.0342 32.2608 68.7713 32.1042 68.7052 31.9786C68.7052 31.8856 68.7506 31.8155 68.8089 31.7502C68.8736 31.6899 68.9447 31.6458 69.0374 31.6474C69.2058 31.5235 69.1866 31.3358 69.1994 31.158C69.3926 31.2869 69.4638 31.4288 69.4996 31.6099C69.4445 31.8432 69.2756 32.1172 69.1558 32.2641L69.1572 32.2657Z" fill="#14100B"/>
<path d="M68.0613 29.8527C68.1017 29.5933 68.1425 29.3323 68.1811 29.0729C68.3013 29.0615 68.4211 29.05 68.5413 29.037C68.7084 29.037 68.8754 29.0337 69.042 29.0337C68.6919 29.1985 68.8282 29.7613 68.3807 29.8478C68.2752 29.9538 68.1682 29.9375 68.0595 29.8543L68.0613 29.8527Z" fill="#645855"/>
<path d="M55.5521 26.0792C55.0524 26.2538 54.9422 25.7823 54.7591 25.4691C54.7669 25.443 54.777 25.4185 54.788 25.3973C54.8468 25.2831 54.9505 25.2358 55.0914 25.2439H55.0946C55.1042 25.2472 55.1157 25.2505 55.1253 25.2537C55.252 25.301 55.3782 25.4348 55.5099 25.3092C55.6604 25.1689 55.5553 25.0139 55.5035 24.8638C55.4984 24.8475 55.492 24.8296 55.4888 24.8132C55.4856 24.8035 55.4837 24.792 55.4824 24.7823C55.4626 24.6811 55.4723 24.593 55.5145 24.5196C55.5503 24.4511 55.6118 24.3924 55.6981 24.3451C55.8096 24.3875 55.9202 24.4315 56.0317 24.4739C56.0381 24.4772 56.0464 24.4788 56.0528 24.4821C56.1079 24.6583 56.1891 24.8328 56.2134 25.0139C56.285 25.5441 56.0175 25.9161 55.5521 26.0792Z" fill="#322A2A"/>
<path d="M55.2277 24.9181C55.2277 24.9458 55.2277 24.9735 55.2258 24.9997C55.2194 25.0942 55.1905 25.1824 55.1253 25.2541C55.1125 25.2672 55.0996 25.2802 55.085 25.2933C55.0037 25.3373 54.9243 25.3797 54.8436 25.4238C54.816 25.4385 54.7867 25.4548 54.7591 25.4695C54.7233 25.4434 54.6843 25.4336 54.6389 25.4401C54.6357 25.414 54.6325 25.3863 54.6292 25.3602C54.5985 25.1008 54.5659 24.8398 54.7463 24.6065C54.8839 24.5559 54.9877 24.5624 55.0638 24.6146C55.1464 24.6652 55.1969 24.7713 55.2258 24.9115C55.2258 24.9115 55.2277 24.9165 55.2277 24.9181Z" fill="#DDD1D4"/>
<path d="M56.2474 26.5803C56.241 26.6047 56.2359 26.6276 56.2313 26.652C56.202 26.8021 56.1987 26.9587 56.1437 27.1007C56.1258 27.1496 56.1015 27.197 56.0675 27.241C56.0303 27.2426 55.9931 27.2442 55.9555 27.2459C55.9376 27.2459 55.9183 27.2475 55.9004 27.2475C55.2148 26.6781 55.7531 26.5705 56.2052 26.4285C56.2295 26.4677 56.2428 26.5068 56.246 26.5509C56.2474 26.5607 56.2474 26.5705 56.2474 26.5803Z" fill="#2F2F2C"/>
<path d="M54.7669 26.5916C54.7201 26.6438 54.6632 26.6781 54.5971 26.6977C54.5921 26.7009 54.587 26.7025 54.5806 26.7025C54.576 26.7042 54.5691 26.7058 54.5645 26.7074C54.5306 26.7091 54.498 26.7074 54.4672 26.7074C54.258 26.6813 54.1396 26.5345 54.0519 26.3469C54.0455 26.3322 54.0391 26.3175 54.0327 26.3028C54.0294 26.2914 54.0262 26.28 54.0244 26.2686C54.0147 26.2115 54.018 26.156 54.034 26.1055C54.0455 26.0565 54.0698 26.0108 54.1006 25.9651C54.3649 26.1299 54.7022 26.2164 54.7669 26.5933V26.5916Z" fill="#20241E"/>
<path d="M54.2676 27.0843C54.2497 27.0925 54.2323 27.0974 54.2176 27.099C54.112 27.1219 54.0863 27.0419 54.0781 26.9359C54.0813 26.931 54.0845 26.9261 54.0877 26.9212C54.0896 26.9163 54.0928 26.9114 54.096 26.9082C54.1818 26.7826 54.3424 26.7695 54.4672 26.7059C54.5141 26.6798 54.5563 26.6488 54.587 26.6015C54.5889 26.5999 54.5889 26.5982 54.5902 26.5966C54.649 26.5966 54.7086 26.5933 54.7674 26.5917C54.9909 27.1545 54.5613 27.0501 54.2676 27.0843Z" fill="#353932"/>
<path d="M54.258 27.2101C54.2337 27.2183 54.208 27.2248 54.1836 27.2313C53.979 27.2819 53.783 27.2884 53.6274 27.0845C53.621 27.06 53.616 27.0388 53.6127 27.0192C53.5898 26.8283 53.7587 26.8332 53.9014 26.8104C53.911 26.812 53.9193 26.8137 53.9289 26.8169H53.9303C53.9482 26.8185 53.9629 26.8234 53.979 26.8316C54.023 26.8463 54.062 26.8724 54.096 26.9083C54.1024 26.9115 54.107 26.9181 54.112 26.9229C54.1556 26.967 54.1979 27.0127 54.2401 27.0567C54.2497 27.0665 54.2598 27.0747 54.2676 27.0845C54.2566 27.1269 54.2529 27.166 54.258 27.2101Z" fill="#D8D8C8"/>
<path d="M54.1038 26.2542C54.0909 26.2884 54.073 26.3194 54.0519 26.3455C54.0019 26.414 53.9303 26.4646 53.8606 26.5168L53.8413 26.5315C53.8266 26.5396 53.8137 26.5494 53.7991 26.5576C53.7344 26.5967 53.6696 26.6326 53.5981 26.6359C53.5609 26.6359 53.5219 26.631 53.4797 26.6114C53.4732 26.5511 53.4682 26.4907 53.4636 26.432C53.5301 26.1938 53.783 26.153 53.9271 25.9964C53.9367 25.985 53.9468 25.9752 53.9546 25.9637C54.0033 25.9572 54.0519 25.9572 54.1006 25.9637C54.1024 26.0274 54.1024 26.0927 54.1024 26.1563C54.1024 26.1889 54.1024 26.2215 54.1024 26.2542H54.1038Z" fill="#3B3A2D"/>
<path d="M55.6976 24.3451C55.6783 24.4054 55.6591 24.4641 55.638 24.5245C55.6104 24.611 55.5829 24.6974 55.5535 24.7823C55.5388 24.8132 55.5228 24.8394 55.503 24.8638C55.4351 24.9568 55.341 25.0009 55.2258 24.9992C55.1937 24.9976 55.1611 24.9943 55.1253 24.9862C55.1074 24.854 55.0721 24.7415 54.9909 24.6713C54.934 24.6256 54.8564 24.5995 54.7458 24.606C54.9826 24.2276 55.3525 24.3271 55.6976 24.3451Z" fill="#716062"/>
<path d="M60.932 26.4626C60.6984 26.443 60.4387 26.5295 60.2588 26.2962C60.1812 26.0532 59.9233 25.9765 59.7921 25.784C59.7921 25.3174 60.0156 24.9976 60.4309 24.8035C60.6204 24.9389 60.7663 25.1249 60.9674 25.2472C61.089 25.381 61.1638 25.536 61.1798 25.7171C61.0601 25.9226 60.9788 26.1396 60.9967 26.3827C60.9756 26.4088 60.9545 26.4349 60.9334 26.4626H60.932Z" fill="#FBF0F1"/>
<path d="M60.8976 25.3013C60.5397 25.3259 60.4066 25.1399 60.4309 24.8038C60.4355 24.701 60.4405 24.5982 60.4456 24.4938C60.5539 24.5477 60.6608 24.5999 60.7696 24.6537C61.0614 24.8201 61.1408 25.0289 60.8994 25.3013H60.8976Z" fill="#F7E9CF"/>
<path d="M59.7921 25.7839C60.0188 25.8884 60.4047 25.8492 60.2588 26.2962C60.1083 26.2375 59.9591 26.1804 59.8081 26.1216C59.8031 26.009 59.7967 25.8949 59.7921 25.7823V25.7839Z" fill="#F4E9D1"/>
<path d="M60.8976 25.3014C60.9462 25.0665 60.8393 24.8641 60.7682 24.6537C61.2367 24.3323 61.6438 24.595 62.0587 24.7891C62.1642 24.9588 62.2693 25.1284 62.3767 25.2981C62.3069 25.3879 62.211 25.4335 62.1073 25.4645C61.8154 25.4955 61.7521 25.7435 61.6516 25.9572C61.5575 26.0844 61.441 26.1644 61.2758 26.1497C61.1087 26.06 61.1702 25.8805 61.1183 25.7451C61.0454 25.5983 60.9724 25.4499 60.8994 25.303L60.8976 25.3014Z" fill="#D97667"/>
<path d="M62.0816 25.3226C62.1789 25.3144 62.2776 25.3047 62.3749 25.2965C62.5323 25.3438 62.6897 25.3911 62.8466 25.4384C63.1013 25.489 63.3459 25.5591 63.5194 25.7761C63.0674 26.1122 62.5905 26.2704 62.0522 25.9735C61.8838 25.7484 61.8756 25.5298 62.0816 25.3226Z" fill="#ED2009"/>
<path d="M61.5722 28.388C61.2964 28.034 61.0454 27.667 60.9091 27.2314C60.8655 27.1579 60.8783 27.096 60.9463 27.0454C61.201 27.0356 61.329 27.2151 61.4423 27.3978C61.6438 27.7241 61.8545 27.7583 62.1578 27.5071C62.4772 27.2428 62.7705 27.0323 62.2142 26.7061C62.0605 26.6163 61.9453 26.4352 62.0619 26.2199C62.1624 26.1416 62.2794 26.1188 62.4024 26.1155C62.7672 26.1106 63.0816 26.184 63.1826 26.6033C63.5327 27.2265 62.965 27.5104 62.7039 27.9068C62.3345 28.0813 62.1073 28.5968 61.5741 28.388H61.5722Z" fill="#C01003"/>
<path d="M63.1807 26.6032C62.9343 26.4416 62.7172 26.2084 62.3799 26.2671C62.289 26.1529 62.083 26.223 62.0343 26.0452C62.0522 26.0126 62.0683 25.9816 62.0862 25.9489C62.5644 25.8918 63.043 25.8348 63.5212 25.776C63.5749 25.7777 63.6268 25.7809 63.68 25.7858C63.5993 26.1088 63.4744 26.4074 63.1839 26.6032H63.1807Z" fill="#F81D14"/>
<path d="M61.5722 28.3878C62.0196 28.396 62.2693 27.9359 62.7025 27.9066C62.5401 28.1203 62.3799 28.334 62.2174 28.5477C61.9939 28.5249 61.7425 28.6228 61.5722 28.3878Z" fill="#E0270F"/>
<path d="M68.0613 29.8528C68.1682 29.8511 68.2752 29.8478 68.3821 29.8462C68.4844 30.0387 68.5592 30.2345 68.5427 30.4613C68.528 30.6603 68.4812 30.8397 68.2899 30.9311C68.0613 31.0388 67.9379 30.9213 67.8764 30.706C67.8066 30.458 67.4822 30.5428 67.3899 30.3275C67.3348 30.1545 67.45 30.086 67.573 30.0224C67.7355 29.9653 67.8993 29.9098 68.0613 29.8528Z" fill="#090A04"/>
<path d="M67.573 30.0226C67.5115 30.1237 67.4514 30.2265 67.3899 30.3276C67.1256 30.3293 66.8599 30.3309 66.5955 30.3342C66.5483 29.8056 66.92 29.8463 67.2587 29.8431C67.3642 29.9035 67.4679 29.9622 67.573 30.0226Z" fill="#4F4E46"/>
<path d="M69.0374 31.6473C68.9805 31.7011 68.9222 31.755 68.8653 31.8088C68.6694 31.7468 68.517 31.6212 68.3789 31.476C68.4018 31.2998 68.4587 31.1481 68.674 31.1791C68.9383 31.2166 69.0081 31.4205 69.0374 31.6489V31.6473Z" fill="#373446"/>
<path d="M68.3807 31.4745C68.6189 31.4745 68.8557 31.4745 68.8672 31.8073C68.8135 31.8644 68.7602 31.9215 68.7066 31.977L68.6304 31.9721L68.5542 31.9737C68.3596 31.8546 68.3821 31.6589 68.3807 31.4713V31.4745Z" fill="#262E41"/>
<path d="M60.9481 27.0894C60.9316 27.1351 60.9205 27.1825 60.9109 27.2314C60.7517 27.295 60.5929 27.3586 60.4341 27.4222C60.3804 27.4125 60.3272 27.401 60.2735 27.3913C60.2735 27.2346 60.2753 27.0764 60.2767 26.9198C60.4956 26.9345 60.7484 27.0829 60.8783 26.7615C61.0096 26.848 61.021 26.9606 60.9495 27.0911L60.9481 27.0894Z" fill="#FC5F46"/>
<path d="M60.9481 27.0895C60.9251 26.9802 60.9008 26.8708 60.8765 26.7599C60.8944 26.6604 60.9141 26.5609 60.932 26.4614L60.9219 26.4288C61.0582 26.339 60.9463 26.0388 61.2253 26.0715C61.3423 26.0291 61.4589 25.985 61.5773 25.9426C61.6241 25.8888 61.6824 25.8692 61.7521 25.8888C61.9049 25.9785 61.9907 26.1188 62.0573 26.2771C62.1188 26.3619 62.1624 26.494 62.245 26.5266C63.0623 26.848 63.0187 27.078 62.3313 27.6343C61.736 28.1156 61.5254 28.0748 61.2528 27.4402C61.1945 27.3048 61.0518 27.2053 60.9463 27.0895H60.9481Z" fill="#AE1606"/>
<path d="M56.0675 27.2412C56.0285 26.9932 55.8486 26.7077 56.2492 26.5805C56.3415 26.6 56.4342 26.6196 56.5246 26.6392C56.5943 26.7256 56.6627 26.8105 56.7325 26.897C56.6724 27.3244 56.3479 27.2395 56.0675 27.2412Z" fill="#17140D"/>
<path d="M53.4797 26.6097C53.5687 26.5591 53.6582 26.5069 53.7472 26.4564C53.9565 26.5314 54.0129 26.6864 53.9679 26.8903C53.8298 26.9099 53.6807 26.9115 53.6256 27.0828C53.5802 27.0844 53.5347 27.0812 53.4893 27.0714C53.4861 26.918 53.4815 26.7631 53.4783 26.6097H53.4797Z" fill="#746F60"/>
<path d="M51.0524 25.616C50.9859 25.6682 50.9212 25.7204 50.8546 25.7726C50.8028 25.7139 50.7509 25.6552 50.6991 25.5964C50.6959 25.4757 50.6729 25.3664 50.5417 25.3191C50.4476 25.0875 50.0295 24.7563 49.9598 24.4904C49.7147 24.1494 50.052 24.0401 50.1929 24.1102C50.2792 24.3908 51.0543 25.293 51.0524 25.616Z" fill="#431703"/>
<path d="M55.1253 24.9865C55.2584 24.8968 55.3672 24.7581 55.5535 24.7826C55.9656 25.0175 55.9734 25.272 55.6086 25.5722C55.1919 25.9164 55.2359 25.4287 55.085 25.2932C55.0978 25.1921 55.1125 25.0893 55.1253 24.9882V24.9865Z" fill="#0C0805"/>
<path d="M53.9679 26.8921C53.895 26.7469 53.822 26.6017 53.7472 26.4581C53.8298 26.3276 53.9565 26.2721 54.1038 26.2542C54.2759 26.3537 54.3328 26.618 54.5902 26.5968C54.5902 26.9427 54.3277 26.8986 54.1107 26.9231C54.0602 26.9231 54.0134 26.9133 53.9679 26.8921Z" fill="#080D07"/>
<path d="M61.2253 26.073C61.0486 26.1269 61.1509 26.4205 60.9219 26.4303C60.8182 26.153 60.9027 25.9311 61.1165 25.7451C61.1523 25.8544 61.1895 25.9637 61.2253 26.073Z" fill="#EADFCD"/>
<path d="M61.731 25.9716C61.6791 25.9634 61.6273 25.9536 61.5754 25.9438C61.5626 25.5882 61.5268 25.2146 62.0816 25.3239C62.0816 25.5327 62.083 25.7415 62.0848 25.9504L62.0701 25.9634C61.96 26.0482 61.8462 26.0319 61.731 25.9732V25.9716Z" fill="#FE6052"/>
<path d="M61.731 25.9718C61.8448 25.9685 61.9568 25.9653 62.0701 25.962C62.1739 26.0648 62.2762 26.166 62.3799 26.2671C62.2725 26.2704 62.1656 26.2736 62.0573 26.2769C61.9485 26.1741 61.8398 26.0729 61.731 25.9702V25.9718Z" fill="#D02B19"/>
<path d="M64.9466 27.1106C64.9269 27.2542 64.8916 27.4043 64.8314 27.5577C64.8282 27.5642 64.8232 27.569 64.8186 27.5756C64.6938 27.8236 64.6171 28.1091 64.3175 28.22C64.2298 28.2428 64.1651 28.282 64.1972 28.3896C64.194 28.4565 64.183 28.5088 64.1633 28.5479C64.1275 28.5822 64.0921 28.6148 64.0563 28.6458C62.9407 29.6361 61.2156 29.9248 61.2156 29.9248L61.5773 29.406C61.6305 29.3962 61.6842 29.3832 61.7393 29.3685C62.0701 29.4126 62.3198 29.2641 62.5355 29.0308C62.6686 28.8383 62.9586 28.8073 63.0265 28.5479C63.2147 28.5039 63.4028 28.4615 63.591 28.419C63.6217 28.4125 63.6525 28.4043 63.6832 28.3978C63.742 28.2885 63.8016 28.1776 63.8618 28.0683C63.9122 28.0161 63.9609 27.9639 64.0109 27.9117C64.4941 27.7518 64.395 27.2249 64.6369 26.9133C64.6401 26.8937 64.6415 26.8757 64.6433 26.8578C64.6658 26.8513 64.6901 26.8463 64.7163 26.8431C64.8021 26.8594 64.8672 26.9051 64.909 26.9818C64.9269 27.0258 64.9402 27.0682 64.948 27.1106H64.9466Z" fill="#611103"/>
<path d="M64.8181 27.5754C64.8181 27.5754 64.8282 27.564 64.8314 27.5575C64.7732 27.7173 64.6887 27.8821 64.5786 28.0501C64.4583 28.2312 64.3175 28.3976 64.1619 28.5477C64.1812 28.5086 64.1926 28.4564 64.1958 28.3895C64.1633 28.2818 64.228 28.2427 64.3156 28.2198C64.6158 28.1089 64.6919 27.8234 64.8168 27.5754H64.8181Z" fill="#611103"/>
<path d="M74.0589 32.6525C74.0589 32.6525 74.2874 32.9331 74.0006 33.2887C73.7138 33.6443 72.6239 35.3948 72.6239 35.3948L72.3012 35.4699L72.9855 33.9103L74.0281 32.6557L74.0607 32.6508L74.0589 32.6525Z" fill="#35140F"/>
<path d="M70.6248 30.1678C70.5661 30.3309 70.5064 30.4941 70.4463 30.6572C70.3311 30.9688 69.8561 32.1646 69.9631 32.3718C70.0278 32.4974 70.3573 32.4811 70.5518 32.3979C71.4596 32.0112 72.3435 31.5659 73.2448 31.1597L70.6248 30.1678ZM65.4588 28.2117C65.4716 28.7224 65.4927 29.0519 65.5253 29.078C65.6777 29.2004 65.7621 29.047 65.9273 28.9296C66.0944 28.8137 66.2596 28.6962 66.4253 28.5772L65.4588 28.2117ZM57.7714 25.3014C57.8623 25.6211 57.9871 26.0029 58.0844 25.9245C58.1528 25.8691 58.2969 25.7239 58.4543 25.5591L57.7714 25.3014ZM70.6248 30.1678C70.5661 30.3309 70.5064 30.4941 70.4463 30.6572C70.3311 30.9688 69.8561 32.1646 69.9631 32.3718C70.0278 32.4974 70.3573 32.4811 70.5518 32.3979C71.4596 32.0112 72.3435 31.5659 73.2448 31.1597L70.6248 30.1678ZM65.4588 28.2117C65.4716 28.7224 65.4927 29.0519 65.5253 29.078C65.6777 29.2004 65.7621 29.047 65.9273 28.9296C66.0944 28.8137 66.2596 28.6962 66.4253 28.5772L65.4588 28.2117ZM57.7714 25.3014C57.8623 25.6211 57.9871 26.0029 58.0844 25.9245C58.1528 25.8691 58.2969 25.7239 58.4543 25.5591L57.7714 25.3014ZM113.027 58.9114C112.68 55.5163 112.323 52.1166 112.205 48.7087C112.093 45.5225 112.239 42.3233 112.345 39.1323C112.393 37.7717 112.631 36.4176 112.779 35.0587C112.853 34.3784 112.921 33.6981 113.004 32.8955C112.558 32.9705 112.252 33.0537 111.94 33.0684C110.883 33.1206 109.816 33.2397 108.765 33.163C106.841 33.0243 105.164 32.0797 103.467 31.2641C101.873 30.4973 100.237 29.9165 98.4742 29.6996C98.2686 29.6735 97.9635 29.3994 97.9295 29.202C97.6766 27.7533 97.4398 26.2997 97.2778 24.838C97.1172 23.373 97.1204 21.8868 96.9245 20.4267C96.6519 18.3891 95.087 16.929 93.0865 16.6974C91.8006 16.5489 90.5129 16.4119 89.0715 16.252C89.3633 16.0774 89.5501 15.9649 89.7383 15.8539C91.5863 14.774 93.4578 13.7331 95.2641 12.5895C95.7097 12.3073 96.0016 11.7151 96.2531 11.211C96.4215 10.87 96.2953 10.5046 95.7827 10.5046C94.1939 10.5079 92.6047 10.5063 91.0044 10.5063C90.7676 11.8277 90.3138 13.0039 89.3895 13.9077C88.0339 15.2356 86.6231 16.5065 85.2354 17.8035C85.2501 17.823 85.1592 17.7594 85.1606 17.6958C85.2028 15.2634 85.1675 12.8244 85.3276 10.3986C85.469 8.24022 85.8338 6.09657 86.088 3.94641C86.1642 3.29712 85.9747 3.08341 85.2565 3.29223C83.9674 3.66745 82.6168 3.77838 81.3213 3.36564C79.7077 2.85175 78.1157 2.25956 76.543 1.6282C74.331 0.739097 72.1796 -0.287048 69.6698 0.075121C67.7676 0.350825 66.3376 1.4667 65.8837 3.25633C65.5299 4.64629 66.378 6.49302 67.8341 7.35928C69.4734 8.33484 72.5169 8.28427 73.321 5.49951C73.4898 4.91384 73.8368 4.38526 74.0346 3.80611C74.3067 3.0051 74.8 2.60541 75.6591 2.69677C76.5329 2.78976 76.9175 3.38684 77.0097 4.15034C77.3112 6.65452 77.6375 9.16035 77.806 11.6759C77.934 13.5667 77.8675 15.4738 77.8239 17.3711C77.7458 20.6796 77.6178 23.9848 77.5159 27.2019C76.0809 27.6815 74.722 27.8969 74.79 29.6425C74.79 29.7224 74.6247 29.8105 74.5357 29.8953C74.4481 29.7811 74.3021 29.6784 74.281 29.5527C74.0685 28.2346 73.8758 26.9115 73.6794 25.5999C74.8629 25.0876 75.5311 24.1854 75.5196 23.0516C75.5086 21.895 74.5568 21.4464 73.4591 21.3501C73.4591 20.784 73.4802 20.2701 73.4559 19.7579C73.3586 17.7512 73.1915 15.7512 72.4844 13.8473C71.7437 11.8554 70.5468 10.3855 68.3077 9.97768C66.506 9.64978 64.82 10.0201 63.1334 10.5666C61.407 11.1246 59.6604 11.3595 57.8476 11.0152C56.6251 10.7819 55.3814 10.6596 54.1478 10.4948C53.397 10.3937 53.2704 10.8276 53.3824 11.4329C53.5122 12.1425 53.7243 12.8424 53.7812 13.5553C53.8656 14.5945 54.3002 15.6207 53.7665 16.7006C53.593 17.0514 53.8427 17.6224 53.9239 18.0873C53.9955 18.4968 54.2695 18.9552 54.1607 19.2978C54.0423 19.6665 53.9156 20.0352 53.7862 20.4006C53.4342 21.3974 53.0533 22.3844 52.6802 23.373C52.6251 23.5198 52.5715 23.665 52.5164 23.8119C52.4434 23.8168 52.3705 23.82 52.2975 23.8249C52.2167 23.59 52.1144 23.3551 52.0189 23.1218C51.8711 22.7645 51.7367 22.4072 51.7041 22.0402C51.6816 21.7775 51.6683 21.5149 51.6637 21.2506C51.6426 20.2228 51.7156 19.1853 51.5664 18.1787C51.1998 15.6875 49.9772 13.6369 47.9795 12.0822C45.6968 10.3023 43.0879 9.6775 40.2423 9.85694C37.969 9.99888 35.8514 10.64 34.0922 12.0952C29.7403 15.694 29.2279 22.0565 32.0622 26.4156C34.4716 30.1221 39.2743 31.7877 43.8824 30.6246C45.4973 30.2167 46.9873 29.5641 48.4582 28.3096C48.2783 29.7599 46.4669 30.4255 47.4866 31.9721C47.3912 31.9721 47.2971 31.977 47.2017 31.9786C46.6877 31.6099 47.0814 31.2951 46.8074 31.2119C46.6941 31.176 46.5546 31.2837 46.4945 31.3864C46.3162 31.6915 46.3778 32.1483 46.5142 32.4371C46.9777 33.4142 46.5252 33.9493 45.7389 34.3996C45.4584 34.5595 45.2055 34.7699 44.9477 34.9657C42.3972 36.9021 40.4709 39.2971 39.2775 42.3216C39.0148 42.9873 38.1847 43.6561 37.481 43.8633C36.2422 44.2304 35.164 44.7084 34.3273 45.7996C33.7792 45.1994 33.2555 44.6284 32.7351 44.0525C29.2198 40.1715 27.5319 35.5269 27.3341 30.3554C27.2173 27.3031 27.386 24.2393 27.4687 21.1805C27.5448 18.4283 27.647 15.6745 27.8011 12.9256C27.8821 11.4834 28.1059 10.0495 28.2567 8.61056C28.375 7.48979 28.495 6.37068 28.5907 5.24826C28.6247 4.84042 28.5615 4.55167 27.9924 4.76699C26.319 5.39511 24.6409 5.0215 22.953 4.75721C21.8974 4.59246 20.8175 4.20582 19.6501 4.76373C19.7409 5.48483 19.8057 6.22708 19.9355 6.95635C20.2371 8.64484 20.2679 10.2844 19.5512 11.9092C18.4973 14.3009 17.526 16.7284 16.511 19.1363C16.2078 19.8557 15.8705 20.5622 15.4668 21.4578C14.1778 18.0025 12.9503 14.7642 11.7602 11.5095C11.003 9.43441 10.3139 7.33316 9.55995 5.25477C9.47886 5.03128 9.08162 4.69361 8.9746 4.74092C7.22668 5.50112 5.51446 4.8959 3.77954 4.7099C2.83586 4.61041 1.84355 4.14218 0.815559 4.82247C0.924195 5.27111 0.989052 5.75238 1.1593 6.19119C1.68951 7.56483 1.9084 8.97761 1.85814 10.4491C1.79166 12.3937 1.76572 14.3417 1.70897 16.2879C1.66519 17.8263 1.66032 19.368 1.53872 20.9015C1.3101 23.8135 1.0458 26.7239 0.713409 29.6245C0.620988 30.4223 0.890145 30.5593 1.55331 30.543C2.57806 30.5169 3.60442 30.5185 4.62917 30.543C5.30693 30.5593 5.49179 30.4125 5.31827 29.6441C4.70051 26.9115 4.15571 24.1626 3.66604 21.4039C3.45039 20.1918 3.37093 18.9454 3.33851 17.7121C3.285 15.7577 3.32391 13.8 3.32391 11.8701C3.39688 12.0185 3.51848 12.2143 3.59793 12.4264C5.55663 17.6648 7.50235 22.9081 9.47074 28.1432C10.3755 30.5479 10.395 30.5136 12.9406 30.5528C13.6492 30.5626 14.0335 30.2868 14.3091 29.68C14.875 28.4385 15.5041 27.2248 16.0343 25.9686C16.2662 25.4172 16.3359 24.7923 16.4461 24.1953C16.6277 23.2034 16.6213 22.1429 16.9796 21.2212C17.9249 18.7888 19.0226 16.4135 20.0652 14.0186C20.1381 13.8506 20.2711 13.7087 20.4981 13.3726C20.4981 13.7772 20.503 13.9387 20.4981 14.1002C20.3911 17.2602 20.2387 20.4186 20.1884 23.5786C20.1365 26.843 20.1203 30.1058 20.6327 33.3571C21.1694 36.7619 22.0579 39.9675 24.3085 42.7067C26.5477 45.4311 29.129 47.6743 32.3864 49.035C33.2199 49.3824 33.7792 49.7216 33.6544 50.7215C33.6236 50.9794 33.7322 51.2553 33.7825 51.5228C34.4262 54.888 37.0691 57.4952 40.2131 57.8655C41.7356 58.0449 43.0133 57.5378 44.0429 56.3924C44.9201 57.1101 45.0968 58.0711 45.2947 59.0289C45.4584 59.8182 45.5103 60.6713 45.8622 61.3716C47.1351 63.9049 49.3934 65.3192 51.9005 66.383C52.0689 66.4546 52.3626 66.2265 52.8179 66.0535C53.0873 66.3587 53.52 66.8057 53.9014 67.2935C54.3374 67.8548 54.6779 67.8676 55.1708 67.3146C55.7577 66.6556 56.4516 66.0925 57.1005 65.4872C57.1423 65.5349 57.1845 65.5804 57.2267 65.6276C57.1556 65.9016 57.0826 66.1774 57.011 66.4514C58.0844 65.9131 58.9389 65.2119 59.8793 64.6621C62.4331 63.1674 63.9834 61.055 64.2413 58.0385C64.2881 57.4837 64.5134 56.9454 64.6837 56.296C67.0494 58.8526 69.4362 58.497 71.3559 57.5149C73.0194 56.665 74.2503 55.3598 75.1016 53.7008C75.4774 52.9698 75.7922 52.2061 76.2103 51.2892C76.2103 51.6302 76.2268 51.7904 76.2103 51.9468C75.951 54.1804 75.6931 56.4121 75.4242 58.6438C75.3558 59.2097 75.3641 59.6782 76.1277 59.6764C78.7449 59.6681 81.3635 59.6713 83.9821 59.6746C84.5107 59.6746 84.6874 59.4121 84.6337 58.9013C84.3097 55.8899 83.8054 52.8798 83.726 49.8601C83.6044 45.2337 83.7645 40.5973 83.8375 35.9657C83.854 34.9543 84.4263 34.5725 85.4038 34.796C86.3056 35.0032 86.9283 35.5416 87.2234 36.4258C87.5102 37.2888 87.7516 38.1681 88.0453 39.0279C88.5869 40.6152 90.1238 41.3428 91.4372 40.6331C91.4372 38.7196 91.4551 36.7945 91.4308 34.8695C91.4147 33.6916 91.1554 33.4665 90.004 33.4665C85.0651 33.4648 80.1244 33.4648 75.1855 33.4648H74.1722C74.8078 32.6867 75.3122 32.0276 75.8684 31.4158C75.9868 31.2837 76.2902 31.3244 76.504 31.2706C77.0097 31.1433 77.5173 31.0161 78.0184 30.8725C78.3603 30.7747 78.6912 30.5577 79.0303 30.5528C81.0813 30.5234 83.1322 30.5397 85.1849 30.5365C86.0784 30.5365 86.2276 30.3374 86.0738 29.4875C85.9458 28.7778 85.8549 28.0616 85.7718 27.3471C85.6066 25.9327 85.4171 24.5215 85.3148 23.1039C85.1656 21.0515 85.6828 19.2097 87.2312 17.7643C87.3726 17.6321 87.5947 17.5408 87.7892 17.5212C89.1706 17.3891 89.9553 18.146 89.9765 19.6518C89.9957 21.1706 89.9989 22.6911 89.9732 24.21C89.9572 25.2051 89.931 26.2068 89.8062 27.1921C89.6653 28.2917 89.4088 29.3765 89.1917 30.5218H94.6606C94.4743 30.7746 94.4064 30.8823 94.3233 30.9753C92.5156 32.9852 93.1609 35.416 94.7969 36.7912C96.6147 38.3198 99.5265 37.651 100.41 35.4763C100.71 34.7373 101.023 34.0032 101.323 33.2642C101.575 32.6475 102.022 32.2592 102.682 32.3489C103.412 32.4484 103.984 32.8367 104.07 33.6671C104.344 36.3605 104.766 39.0507 104.842 41.7491C104.942 45.3185 104.787 48.8946 104.705 52.4673C104.686 53.3222 104.534 54.1735 104.428 55.0253C104.261 56.3777 104.049 57.7269 103.942 59.0844C103.924 59.3175 104.337 59.7989 104.558 59.8021C107.173 59.8526 109.792 59.8508 112.409 59.8214C112.926 59.815 113.095 59.564 113.028 58.9128L113.027 58.9114ZM68.6483 6.57948C67.7451 6.45714 66.858 5.245 66.819 4.11445C66.7594 2.37864 67.3803 1.3525 68.7423 1.08658C67.3201 2.94311 67.5294 4.75396 68.6483 6.57948ZM2.98503 9.53556C2.9299 9.52739 2.87315 9.51927 2.81803 9.5127C2.55211 8.14724 2.2862 6.78338 2.01866 5.40975C2.59751 5.16831 2.9445 5.43912 2.96558 5.86981C3.02719 7.08847 2.98665 8.31364 2.98503 9.53556ZM21.6542 6.16513C21.5829 7.10641 21.4856 8.04775 21.398 8.98743C21.3218 8.99229 21.2439 8.99885 21.1662 9.00372C21.051 8.05587 20.9132 7.11132 20.8386 6.16182C20.8175 5.89919 20.9473 5.60066 21.0835 5.36248C21.1256 5.28905 21.5585 5.32168 21.5763 5.37877C21.6526 5.62512 21.6753 5.90244 21.6542 6.16513ZM73.2172 22.0924C74.0896 22.1381 74.756 22.8543 74.6977 23.6846C74.6408 24.4905 74.1287 25.0044 73.4279 24.9555C72.768 24.9098 71.8442 23.931 71.891 23.329C71.946 22.6177 72.5477 22.0565 73.2172 22.0924ZM67.6363 16.655C67.6299 17.5685 66.8759 18.2504 65.8658 18.2554C64.8847 18.2603 64.1164 17.5489 64.1096 16.6305C64.1031 15.7348 64.8833 15.035 65.898 15.0236C66.8984 15.0138 67.6428 15.7136 67.6363 16.655ZM61.8347 13.5765C61.9678 12.4264 62.7897 11.8586 63.7222 11.8146C64.8943 11.7575 65.574 12.4476 65.8319 13.9517C63.5891 15.1704 63.0898 16.2863 64.0302 18.0759C63.2422 18.996 62.4414 19.9308 61.642 20.8656C61.5364 20.8378 61.4327 20.8118 61.329 20.7856C61.4846 18.381 61.5575 15.9665 61.8347 13.5765ZM55.4447 11.503C55.6719 11.782 56.0381 12.0349 56.0982 12.3465C56.2492 13.1246 56.2621 13.9305 56.3318 14.7479C55.576 14.8784 55.3993 14.5244 55.3185 14.0154C55.2387 13.5211 55.028 13.0333 55.0331 12.5439C55.0345 12.1964 55.2974 11.8505 55.4447 11.503ZM55.7077 15.8474C56.4452 15.8833 57.0744 16.5261 57.0353 17.2048C56.9996 17.8606 56.2781 18.456 55.5631 18.4169C54.7605 18.3744 54.2125 17.8296 54.2419 17.1069C54.2759 16.3173 54.8706 15.805 55.7077 15.8474ZM31.8676 21.448C31.0585 17.8655 33.5101 13.0414 36.3752 12.0675C33.789 14.6696 32.3459 17.8247 31.8676 21.448ZM44.2667 24.6488C44.2213 25.7402 43.8645 26.8512 43.4754 27.8855C43.0863 28.923 42.3031 29.5593 41.0806 29.5723C39.8515 29.5854 39.0505 28.9458 38.6711 27.9148C38.2609 26.8022 37.9836 25.608 37.8604 24.4269C37.7242 23.1202 37.8296 21.7889 37.8296 20.4675C37.922 18.0775 37.6042 15.6272 38.4619 13.3008C38.9759 11.9092 39.7737 11.1931 40.9606 11.1653C42.2885 11.1359 43.1836 11.8309 43.5581 13.0431C43.9116 14.1818 44.2229 15.3776 44.2683 16.5603C44.3721 19.2538 44.3769 21.957 44.2683 24.6488H44.2667ZM47.9199 19.0401C47.941 18.2896 48.5619 17.779 49.4247 17.7986C50.1736 17.8149 50.7849 18.443 50.7459 19.1575C50.7133 19.7856 49.9561 20.412 49.259 20.3925C48.6188 20.3745 47.902 19.6485 47.9199 19.0401ZM49.1342 29.5609C55.3103 29.4418 61.133 30.6882 66.2711 34.3001C67.5602 35.2055 68.6483 36.4029 69.819 37.4764C69.9745 37.62 70.1659 37.819 70.1755 38.0001C70.1884 38.2627 70.114 38.5858 69.9516 38.775C69.8722 38.8696 69.4541 38.7978 69.2903 38.669C68.4275 37.9952 67.6331 37.2284 66.746 36.5938C66.0962 36.1273 65.3225 35.8352 64.6318 35.4209C64.3028 35.2218 64.0352 34.9184 63.7383 34.659C63.5065 34.6199 63.2 34.6427 62.9747 34.5187C60.1032 32.9362 57.0583 31.8987 53.817 31.4076C53.5398 31.3652 53.3011 30.9362 53.0776 30.6588C52.7045 30.1955 52.8459 30.1058 52.5976 30.0878C52.3415 30.0715 52.1093 30.4043 52.0432 30.6164C51.8046 31.3799 51.3668 31.2461 50.8771 30.9427C50.605 30.773 50.342 30.5789 50.1071 30.3619C49.2186 29.5462 49.0516 29.5887 48.6495 30.6947C48.5472 30.9737 48.3347 31.2102 48.0933 31.5969C47.7643 30.5968 48.3724 29.5756 49.1342 29.5609ZM68.7359 40.8403C67.5051 39.8892 66.3069 38.8941 65.037 38.0017C62.887 36.491 60.4956 35.4633 58.0275 34.5954C57.6806 34.4747 57.3809 34.1941 57.089 33.9493C56.5411 33.4909 56.0138 33.0048 55.4787 32.53C55.487 32.4843 55.4952 32.4387 55.5049 32.393C57.0808 32.9444 58.6829 33.4306 60.2262 34.0603C63.2583 35.2969 66.0132 37.0278 68.5914 39.0442C69.4087 39.6837 69.428 39.9953 68.7359 40.8403ZM39.2921 54.1148C38.0258 53.1914 37.5021 51.7936 37.0221 50.376C36.9281 50.1002 36.7756 49.8455 36.6492 49.5811C35.9114 50.7688 36.2876 51.9124 36.4935 53.2194C35.545 52.1166 35.0407 51.0088 35.104 49.6858C35.1704 48.2943 36.2373 47.5729 37.228 46.7638C36.9443 46.5422 36.7449 46.3871 36.4562 46.1617C36.8437 46.0378 37.1405 45.9158 37.4486 45.852C37.9917 45.7395 38.2755 45.9043 38.4976 46.5142C39.2143 48.4834 40.0169 50.4265 40.8649 52.3433C41.0335 52.7265 41.5524 52.9533 41.9869 53.3158C41.8264 54.3906 40.3979 54.9211 39.2921 54.1148ZM60.7613 59.4465C60.4373 60.9228 59.6622 62.1105 58.2854 63.037C58.2694 62.7254 58.2969 62.5754 58.2464 62.4597C58.1248 62.1775 57.966 61.9113 57.8233 61.6392C57.6255 61.8232 57.4213 62.0013 57.2318 62.1936C56.609 62.8186 55.9996 63.4579 55.3686 64.0747C54.8142 64.6148 54.2483 64.507 53.7619 63.9866C53.0662 63.2408 52.4081 62.4611 51.5793 61.5199C51.4187 62.1252 51.2842 62.6277 51.13 63.2068C49.8056 62.7108 49.1667 61.5997 48.8602 60.2849C48.3737 58.2014 48.8909 56.218 49.5655 54.2488C49.89 53.2993 50.326 52.6306 51.4384 52.6338C51.7757 52.6338 52.1093 52.436 52.4517 52.3778C53.2979 52.2355 53.8413 51.8211 54.0473 50.9303C54.0992 50.7004 54.5058 50.4315 54.7733 50.4035C55.0914 50.3691 55.6834 50.5127 55.727 50.6876C56.0725 52.0708 57.1831 52.18 58.2694 52.3989C58.5663 52.4576 58.9665 52.5636 59.1028 52.7839C60.3625 54.8197 61.3079 56.9587 60.7613 59.4465ZM61.9595 52.33C60.502 52.1166 59.0427 51.8945 57.5819 51.6921C56.9399 51.6027 56.4824 51.3076 56.3332 50.6449C56.1662 49.9028 55.5925 49.7316 54.9858 49.7803C54.3456 49.8308 53.5898 49.8262 53.4976 50.7853C53.4374 51.4067 53.0061 51.671 52.4388 51.828C49.0093 52.7724 45.5314 52.8867 42.0226 52.4916C41.7729 52.464 41.4324 52.291 41.3254 52.0854C40.0591 49.6614 38.9338 47.1865 38.6257 44.4131C38.5576 43.8046 38.7554 43.5745 39.2873 43.4718C42.4247 42.8665 45.5395 42.0802 48.7046 41.7017C51.6086 41.3559 54.5659 41.3297 57.4961 41.3738C61.5089 41.4342 65.4895 41.9497 69.4298 42.7442C70.0961 42.8779 70.3701 43.1292 70.383 43.8535C70.4316 46.4458 69.4362 48.7055 68.2623 50.9124C68.1535 51.113 67.8552 51.252 67.6171 51.3383C65.7961 51.9941 63.9104 52.2355 61.9595 52.33ZM74.0084 49.9763C73.5775 51.6742 72.7262 53.118 71.1728 54.3433C71.9415 52.8963 72.9043 51.6843 72.5881 50.1277C72.4876 50.0855 72.3871 50.0433 72.2866 49.9992C71.9818 50.5178 71.6739 51.035 71.3738 51.5554C70.7331 52.6664 70.0603 53.7559 68.8052 54.2602C68.4147 54.4154 67.9704 54.5278 67.557 54.5113C66.6102 54.4755 66.4413 54.1083 66.8208 53.2405C67.1256 52.5457 67.3656 51.8537 68.2527 51.6697C68.478 51.6224 68.7116 51.2846 68.8153 51.0286C69.4344 49.5063 70.0636 47.9841 70.5987 46.4311C70.9392 45.4458 71.1631 45.2418 72.1911 45.5174C72.4651 45.5908 72.723 45.7281 72.9919 45.8391C72.7193 45.9892 72.5022 46.1099 72.2852 46.2306C72.4554 46.4426 72.5913 46.7069 72.8038 46.857C73.8496 47.5958 74.3264 48.7266 74.0084 49.9763ZM77.1883 36.2643C77.1883 35.7521 77.3489 35.4209 78.0671 35.6721C77.8936 37.5188 77.7201 39.3672 77.5467 41.2156C77.4641 41.2188 77.381 41.2221 77.2984 41.227C77.2612 41.085 77.1928 40.9431 77.1915 40.8012C77.1832 39.2889 77.1832 37.7766 77.1883 36.2643ZM75.5522 34.8401C75.9446 35.2267 76.175 35.9494 76.1846 36.5302C76.2415 39.8223 76.2121 43.1178 76.2121 46.3627C75.1484 44.4049 73.8207 42.736 71.3756 43.2058C70.8534 42.8486 70.4546 42.612 70.0994 42.3216C69.7845 42.0623 69.5188 41.7441 69.232 41.4521C69.5578 41.2302 69.8561 40.9105 70.2159 40.8093C71.2086 40.5304 71.6881 39.8142 72.0011 38.9234C72.3352 37.974 72.645 37.018 72.9791 36.0685C73.0392 35.8956 73.1397 35.7292 73.253 35.5823C73.7055 34.9918 75.1323 34.4257 75.5522 34.8401ZM75.5715 31.0063C75.4549 31.1629 75.3333 31.3228 75.2066 31.4843C75.124 31.5904 75.0396 31.698 74.9538 31.8073C73.4816 33.6573 71.5697 35.7145 70.3265 37C64.5442 30.8138 57.1895 28.9084 48.9478 28.83C49.0644 28.494 49.0465 24.3372 49.3108 22.0973C49.3173 22.0484 49.3223 22.0027 49.3287 21.957C49.3774 21.5687 49.4375 21.2473 49.5086 21.0238C49.773 20.6127 50.013 20.6127 50.2094 20.9227C50.2741 21.0532 50.3388 21.1837 50.4054 21.3126C50.6536 21.8101 50.9015 22.3012 51.1433 22.7906C51.3801 23.267 51.6086 23.7417 51.8276 24.223C51.9538 24.5036 52.3071 25.471 52.5182 25.471C52.6072 25.471 53.0028 24.3976 53.102 24.1268C53.1653 23.9522 53.23 23.7776 53.2933 23.6047C53.7523 22.3665 54.2369 21.138 54.7316 19.9145C54.7848 19.784 54.8367 19.6535 54.8904 19.5229C54.9698 19.3288 55.2309 19.0629 55.38 19.0792C55.5746 19.1004 55.8357 19.3386 55.9037 19.5393C55.9509 19.6763 55.9959 19.8117 56.0413 19.9487C56.6058 21.603 57.1423 23.2637 57.6696 24.9294C57.6888 24.9914 57.726 25.1382 57.7714 25.3014C57.8623 25.6211 57.9871 26.0029 58.0844 25.9245C58.1528 25.8691 58.2969 25.7239 58.4543 25.5591C58.6957 25.303 58.9729 24.9979 59.0541 24.9016C59.8939 23.913 60.7356 22.9276 61.5851 21.9472C62.4492 20.9455 63.3202 19.9471 64.1972 18.9552C64.3418 18.7921 64.7438 18.7007 64.9384 18.7823C65.1651 18.8785 65.334 19.1836 65.4569 19.4349C65.5299 19.5849 65.5432 20.771 65.5093 21.7824C65.496 22.1511 65.4849 22.6552 65.4735 23.2262C65.4441 24.8495 65.4294 27.0241 65.4588 28.2117C65.4716 28.7224 65.4927 29.0519 65.5253 29.078C65.6777 29.2004 65.7621 29.047 65.9273 28.9296C66.0944 28.8137 66.2596 28.6962 66.4253 28.5772C67.5863 27.75 68.7244 26.8903 69.8818 26.0599C70.2402 25.8038 70.6115 25.5623 70.9975 25.3503C71.1062 25.2899 71.2164 25.2328 71.3283 25.1774C71.5248 25.0795 71.8717 25.0746 72.0337 25.1904C72.1636 25.2834 72.2072 25.6521 72.1406 25.8495C72.0663 26.073 71.9901 26.2965 71.9121 26.52C71.4986 27.7419 71.0704 28.9573 70.6248 30.1678C70.5661 30.3309 70.5064 30.4941 70.4463 30.6572C70.3311 30.9688 69.8561 32.1646 69.9631 32.3718C70.0278 32.4974 70.3573 32.4811 70.5518 32.3979C71.4596 32.0112 72.3435 31.5659 73.2448 31.1597C73.3292 31.1221 73.4137 31.0846 73.4995 31.0471C73.9033 30.8709 74.3297 30.7404 74.756 30.6262C74.8207 30.6099 74.884 30.5919 74.9492 30.5756C75.0593 30.5479 75.6201 30.4973 75.5715 31.0063ZM76.8978 30.7991C76.4164 30.8122 75.3384 29.8529 75.2994 29.3749C75.2571 28.8626 75.9349 28.2069 76.5251 28.1889C77.3112 28.1677 78.1029 28.8284 78.1139 29.5168C78.1254 30.1808 77.5577 30.7812 76.8978 30.7991ZM96.1604 36.4666C95.2815 36.3197 94.4307 35.2218 94.3527 34.2006C94.21 32.3392 94.7157 31.4109 96.3761 30.8807C94.7611 32.8286 95.0402 34.6394 96.1604 36.4666ZM57.7714 25.3014C57.8623 25.6211 57.9871 26.0029 58.0844 25.9245C58.1528 25.8691 58.2969 25.7239 58.4543 25.5591L57.7714 25.3014ZM65.4588 28.2117C65.4716 28.7224 65.4927 29.0519 65.5253 29.078C65.6777 29.2004 65.7621 29.047 65.9273 28.9296C66.0944 28.8137 66.2596 28.6962 66.4253 28.5772L65.4588 28.2117ZM70.6248 30.1678C70.5661 30.3309 70.5064 30.4941 70.4463 30.6572C70.3311 30.9688 69.8561 32.1646 69.9631 32.3718C70.0278 32.4974 70.3573 32.4811 70.5518 32.3979C71.4596 32.0112 72.3435 31.5659 73.2448 31.1597L70.6248 30.1678ZM57.7714 25.3014C57.8623 25.6211 57.9871 26.0029 58.0844 25.9245C58.1528 25.8691 58.2969 25.7239 58.4543 25.5591L57.7714 25.3014ZM65.4588 28.2117C65.4716 28.7224 65.4927 29.0519 65.5253 29.078C65.6777 29.2004 65.7621 29.047 65.9273 28.9296C66.0944 28.8137 66.2596 28.6962 66.4253 28.5772L65.4588 28.2117ZM70.6248 30.1678C70.5661 30.3309 70.5064 30.4941 70.4463 30.6572C70.3311 30.9688 69.8561 32.1646 69.9631 32.3718C70.0278 32.4974 70.3573 32.4811 70.5518 32.3979C71.4596 32.0112 72.3435 31.5659 73.2448 31.1597L70.6248 30.1678Z" fill="black"/>
<path d="M75.5715 31.0064C75.4549 31.163 75.3333 31.3229 75.2067 31.4844C75.1598 31.1956 74.9735 30.8939 74.756 30.6263C74.8212 30.61 74.884 30.592 74.9492 30.5757C75.0593 30.548 75.6201 30.4974 75.5715 31.0064Z" fill="#F39F22"/>
<path d="M72.1406 25.8496C72.0663 26.0731 71.9901 26.2966 71.9121 26.5201C71.8019 26.0698 71.4192 25.6701 70.9975 25.3504C71.1062 25.29 71.2164 25.2329 71.3284 25.1774C71.5248 25.0796 71.8717 25.0746 72.0337 25.1905C72.1636 25.2835 72.2072 25.6522 72.1406 25.8496Z" fill="#F39F22"/>
<path d="M56.0418 19.9485C55.5485 19.7315 55.0638 19.8065 54.7316 19.9143C54.7848 19.7837 54.8367 19.6532 54.8904 19.5227C54.9698 19.3286 55.2309 19.0626 55.38 19.079C55.5746 19.1002 55.8357 19.3384 55.9037 19.539C55.9509 19.676 55.9964 19.8115 56.0418 19.9485Z" fill="#F39F22"/>
<path d="M50.4054 21.3126C49.9125 21.4577 49.5123 21.7889 49.3288 21.9569C49.3774 21.5687 49.4375 21.2473 49.5086 21.0238C49.773 20.6127 50.013 20.6127 50.2094 20.9226C50.2741 21.0531 50.3388 21.1837 50.4054 21.3126Z" fill="#F39F22"/>
<path d="M107.287 22.1804C107.765 24.4073 108.795 26.2883 111.023 26.9457C114.624 28.0094 117.995 27.8495 120.13 23.9521C120.224 23.9994 120.32 24.0468 120.414 24.0924C120.377 24.5753 120.442 25.0925 120.288 25.533C119.313 28.3047 117.215 29.9818 114.504 30.6196C110.488 31.5659 106.538 31.313 103.014 28.786C100.887 27.2606 99.8202 25.0925 99.3792 22.5752C99.0112 20.4773 99.1686 18.4119 99.9125 16.4053C101.08 13.2551 103.433 11.3774 106.559 10.5568C108.269 10.1081 110.089 9.9026 111.859 9.9026C114.138 9.9026 116.38 10.3643 118.134 12.0348C120.336 14.1328 120.083 17.6533 117.662 19.5049C116.112 20.691 114.339 21.2799 112.456 21.5654C110.77 21.8215 109.069 21.9716 107.285 22.1772L107.287 22.1804ZM106.967 20.7807C107.501 20.7106 107.916 20.66 108.331 20.6029C111.532 20.1673 114.115 18.0742 113.768 14.4819C113.609 12.8391 112.889 11.7477 111.525 11.4051C110.522 11.1522 109.314 11.7036 108.536 12.9451C107.04 15.3286 107.089 18.022 106.967 20.7807ZM100.866 21.3925C101.401 17.8589 102.901 14.8098 105.526 12.1702C102.664 12.6499 99.9437 18.1689 100.866 21.3925Z" fill="black"/>
<path d="M133.609 29.8821C132.724 29.8821 132.075 29.8365 131.435 29.8919C130.365 29.9833 129.752 29.4678 129.317 28.5411C127.829 25.3632 126.305 22.2015 124.8 19.0301C123.628 16.5618 122.465 14.0903 121.296 11.622C120.699 10.3609 120.829 10.0852 122.23 10.2043C123.329 10.2973 124.401 10.7002 125.5 10.8308C126.525 10.9515 127.571 10.9025 128.609 10.9123C128.956 10.9156 129.308 10.8161 129.646 10.8585C129.825 10.8813 130.102 11.0934 130.122 11.2468C130.494 14.2143 131.759 16.8751 132.949 19.5554C133.567 20.947 134.316 22.2782 135.013 23.6339C135.094 23.7922 135.217 23.9276 135.485 24.3077C136.064 22.0662 136.627 20.053 137.09 18.017C137.303 17.0839 137.429 16.1018 137.407 15.1474C137.378 13.9777 137.172 12.8096 136.999 11.6481C136.93 11.1799 136.898 10.8324 137.517 10.834C138.971 10.8405 140.427 10.8356 142.044 10.8356C141.718 11.6203 141.475 12.3365 141.136 13.0021C138.392 18.3743 136.868 24.1919 134.992 29.8821C134.486 31.4189 133.938 32.9426 133.41 34.4713C132.565 36.9167 130.764 38.1598 128.294 38.4943C127.313 38.6264 126.314 38.6068 125.324 38.677C124.824 38.7128 124.639 38.4714 124.639 38.013C124.639 36.548 124.631 35.083 124.644 33.618C124.649 33.0421 124.909 32.8236 125.461 33.1286C126.227 33.5511 126.981 33.9982 127.766 34.3815C128.792 34.8824 129.88 34.9346 130.958 34.5903C131.321 34.4745 131.782 34.2429 131.926 33.9345C132.526 32.6539 133.022 31.3227 133.611 29.8821H133.609ZM126.738 20.4168C126.833 20.3809 126.929 20.345 127.023 20.3108C126.827 19.7887 126.632 19.2667 126.434 18.7463C125.667 16.7282 124.92 14.7037 124.12 12.7003C123.919 12.1946 123.827 11.3903 122.773 11.7819C124.103 14.6792 125.421 17.5488 126.738 20.4184V20.4168Z" fill="black"/>
<path d="M115.892 41.2775C115.396 41.2775 114.984 41.3411 114.603 41.2547C114.361 41.2008 113.999 40.9317 113.995 40.7489C113.987 40.5108 114.253 40.2367 114.454 40.0311C114.54 39.943 114.764 39.9626 114.92 39.9789C116.521 40.147 117.554 39.3019 118.379 38.0588C119.209 36.8091 120.038 35.5595 120.897 34.3311C121.087 34.0603 121.371 33.8155 121.664 33.6638C122.669 33.1499 123.175 33.486 123.179 34.6345C123.183 36.3899 123.179 38.1452 123.179 39.9757C123.681 39.9757 124.129 39.8925 124.523 40.0034C124.813 40.0866 125.032 40.4226 125.281 40.6462C125.024 40.855 124.794 41.1666 124.5 41.2498C124.127 41.3542 123.702 41.2759 123.179 41.2759C123.179 41.576 123.179 41.8355 123.179 42.0932C123.179 44.9938 123.112 47.8978 123.198 50.7968C123.279 53.5292 123.41 56.2717 124.262 58.9095C124.406 59.3552 124.348 59.815 123.821 59.8053C122.082 59.7728 120.327 59.7953 118.618 59.5314C116.829 59.2556 116.13 57.7824 116.076 55.8476C115.95 51.3581 115.945 46.8634 115.892 42.3722C115.889 42.0491 115.892 41.7262 115.892 41.2759V41.2775ZM117.737 39.8908C118.942 40.0279 119.618 39.7456 119.992 38.8419C120.399 37.863 120.657 36.8222 120.98 35.8074C120.904 35.7601 120.829 35.7145 120.753 35.6672C120.534 36.0065 120.257 36.3213 120.109 36.69C119.619 37.9087 119.182 39.1502 117.735 39.8908H117.737ZM116.865 47.5715C116.951 47.5761 117.038 47.583 117.124 47.5876C117.252 46.5486 117.392 45.511 117.507 44.4702C117.58 43.8062 117.651 43.1373 117.653 42.4717C117.653 42.2922 117.398 42.1128 117.26 41.9334C117.129 42.0916 116.886 42.2482 116.882 42.4097C116.855 44.1308 116.865 45.852 116.865 47.5715Z" fill="black"/>
<path d="M101.725 39.9431C101.552 41.1079 101.383 42.1047 101.257 43.108C100.947 45.5876 100.611 48.0676 100.972 50.5765C101.051 51.1346 100.942 51.7169 100.999 52.2814C101.223 54.5214 101.448 56.7614 101.737 58.9931C101.815 59.5933 101.6 59.8232 101.095 59.8251C98.5068 59.8411 95.9176 59.843 93.3298 59.8214C92.869 59.8182 92.5579 59.6714 92.7102 59.0188C93.7625 54.5145 93.5923 49.9239 93.5046 45.3528C93.4739 43.7671 93.0622 42.1847 92.7749 40.6087C92.6552 39.948 92.8025 39.5777 93.5097 39.6544C94.802 39.7947 96.0846 40.0426 97.3783 40.1226C98.5068 40.1911 99.6468 40.0932 100.782 40.059C101.038 40.0508 101.294 39.997 101.722 39.9415L101.725 39.9431ZM94.6771 48.7624L94.9282 48.7835C95.0062 48.4297 95.1374 48.0773 95.1521 47.7198C95.2251 45.8864 95.2981 44.0493 95.3013 42.214C95.3013 41.8013 95.0452 41.382 94.8621 40.9856C94.841 40.9383 94.3802 41.0051 94.3724 41.059C94.304 41.4946 94.2361 41.9448 94.2783 42.3788C94.3789 43.4131 94.5978 44.4392 94.6625 45.4751C94.7304 46.5665 94.6785 47.6661 94.6785 48.7606L94.6771 48.7624Z" fill="black"/>
<path d="M56.2442 68.494C56.5411 68.1141 56.6545 67.8662 56.8477 67.7387C58.4768 66.6639 60.2152 65.8397 62.1381 65.4289C62.7218 65.3046 63.0545 65.4794 63.2569 66.0356C64.1229 68.3945 64.0563 70.7455 63.228 73.0961C63.0022 73.7358 62.5681 73.9905 61.9081 73.7977C60.0853 73.2645 58.3846 72.4747 56.8587 71.3329C56.6384 71.1681 56.5182 70.868 56.3529 70.6298C56.403 70.5711 56.4553 70.5137 56.5053 70.455C57.1359 70.6734 57.7669 70.8905 58.396 71.1094C58.4121 71.0635 58.4268 71.0181 58.4429 70.9704C58.039 70.7978 57.603 70.6753 57.2414 70.4371C56.8926 70.2086 56.3984 69.8758 56.3773 69.5629C56.3543 69.2054 56.7857 68.8189 56.9885 68.494H56.241H56.2442Z" fill="black"/>
<path d="M53.0873 70.6308C52.9267 70.8657 52.8183 71.2053 52.5962 71.3178C50.9258 72.1695 49.2461 73.0048 47.5403 73.7794C46.9341 74.0552 46.4573 73.7647 46.2222 73.1057C45.3952 70.7827 45.3304 68.4564 46.1492 66.115C46.3632 65.5019 46.7299 65.2899 47.388 65.44C49.2512 65.8622 50.9437 66.6648 52.5361 67.6946C52.755 67.8364 52.878 68.1269 53.0469 68.3486C52.9932 68.4092 52.94 68.4693 52.8876 68.528C52.565 68.4532 52.2442 68.3779 51.9216 68.3031L51.8826 68.3926C52.1162 68.5051 52.3966 68.5707 52.5701 68.7451C52.7922 68.9667 53.0501 69.2687 53.063 69.5477C53.0744 69.7809 52.8069 70.1172 52.5733 70.2558C52.0933 70.5413 51.5536 70.7258 51.0818 71.0828C51.683 70.879 52.2833 70.6748 52.8844 70.4729L53.0891 70.6294L53.0873 70.6308Z" fill="black"/>
<path d="M53.4475 70.6932V68.3196H56.0592V70.6932H53.4475Z" fill="black"/>
<path d="M65.5253 20.9423C65.2789 20.4577 64.6382 19.6029 63.2863 19.9928C63.5878 19.6453 63.8925 19.3011 64.1972 18.9553C64.3418 18.7921 64.7438 18.7007 64.9384 18.7823C65.1655 18.8786 65.334 19.1837 65.4574 19.4349C65.5106 19.5442 65.5318 20.2016 65.5253 20.9423Z" fill="#F39F22"/>
<path d="M58.2854 63.0371C58.268 62.7254 58.2969 62.5754 58.2469 62.4597C58.1253 62.1775 57.966 61.9113 57.8233 61.6406C57.6255 61.8251 57.4231 62.0027 57.2318 62.1936C56.609 62.8186 55.9996 63.4579 55.3686 64.0747C54.8142 64.6148 54.2483 64.5088 53.7619 63.9866C53.0662 63.2408 52.4081 62.4611 51.5793 61.5199C51.4191 62.1252 51.2842 62.6277 51.1305 63.2068C49.8037 62.7108 49.1667 61.5997 48.8602 60.2849C48.3737 58.2014 48.8909 56.218 49.5655 54.2488C49.89 53.2993 50.326 52.6306 51.4384 52.6338C51.7757 52.6338 52.1098 52.4365 52.4517 52.3791C53.2979 52.2355 53.8413 51.8229 54.0455 50.9303C54.0992 50.7004 54.5044 50.4329 54.772 50.4035C55.09 50.3691 55.6815 50.5127 55.7256 50.6876C56.0707 52.0694 57.1831 52.18 58.268 52.397C58.5645 52.4576 58.9651 52.5636 59.1014 52.7839C60.3625 54.8197 61.3079 56.9587 60.7599 59.4465C60.4355 60.9247 59.6608 62.1105 58.2841 63.0371H58.2854ZM49.9061 59.3597C51.1658 59.7774 52.3218 59.6599 53.4182 59.1023C54.0148 58.7989 54.5659 58.4038 55.1529 58.0794C56.3337 57.4236 57.525 56.7609 58.9536 57.1005C59.3786 57.2015 59.7755 57.4103 60.1858 57.5704C60.2267 57.4906 60.2652 57.4103 60.3061 57.329C59.7921 57.0647 59.3038 56.6829 58.7577 56.5603C56.9514 56.1542 55.3736 56.8279 53.9129 57.8214C53.1327 58.3515 52.3154 58.709 51.359 58.6649C50.6991 58.6337 50.0616 58.5603 50.1039 57.5782C49.2576 58.1349 49.2237 58.8526 49.4068 59.6273C49.449 59.8086 49.5752 59.9683 49.7376 60.2831C49.8088 59.8916 49.8459 59.6847 49.9061 59.3584V59.3597ZM56.5232 54.9762C57.3047 54.8408 57.6095 54.4103 57.6113 53.8982C57.6113 53.5278 57.4213 53.0267 57.1427 52.8133C56.3158 52.1768 55.3103 52.0038 54.3085 52.2488C53.6742 52.4035 53.0079 52.66 52.5132 53.0661C52.241 53.2896 52.197 53.9243 52.2378 54.3566C52.2654 54.637 52.6302 54.8867 52.8441 55.1492C52.9234 55.0858 53.0028 55.0202 53.0827 54.9569C52.9918 54.7788 52.9138 54.5948 52.8069 54.4264C52.476 53.911 52.5783 53.487 53.0969 53.2015C54.1657 52.6141 55.2846 52.4608 56.4291 52.9716C57.3015 53.3612 57.3598 53.6568 56.7857 54.4167C56.698 54.5328 56.6595 54.6843 56.5264 54.9762H56.5232ZM55.727 54.8605C55.9766 54.3988 56.1551 54.1295 56.2607 53.8325C56.2832 53.7706 56.04 53.6127 55.9183 53.4984C55.7091 53.7412 55.4709 53.9665 55.3135 54.2391C55.2745 54.3057 55.4984 54.5278 55.727 54.8605ZM54.1689 54.8477C54.3456 54.5113 54.5384 54.2653 54.4929 54.2066C54.3181 53.9794 54.0813 53.7839 53.8298 53.6453C53.7747 53.6159 53.4328 53.9615 53.4457 53.9794C53.6242 54.2391 53.8413 54.4704 54.1689 54.8458V54.8477Z" fill="#E9BF9B"/>
<path d="M61.96 52.3305C60.5006 52.1166 59.0426 51.8945 57.5819 51.6926C56.9381 51.6027 56.481 51.3076 56.3318 50.6467C56.1648 49.9042 55.5907 49.733 54.9844 49.7821C54.3438 49.8326 53.5898 49.8276 53.4957 50.7872C53.4361 51.4085 53.006 51.6729 52.437 51.8294C49.0093 52.7738 45.5298 52.8899 42.0226 52.4934C41.7729 52.4659 41.4325 52.2929 41.3254 52.0873C40.0591 49.6628 38.9338 47.1897 38.6258 44.4148C38.5577 43.8062 38.7555 43.5762 39.2873 43.4735C42.4248 42.8682 45.5412 42.0819 48.7046 41.7034C51.6086 41.3559 54.5659 41.3314 57.4961 41.3755C61.5089 41.4358 65.4895 41.9514 69.4298 42.7459C70.0961 42.8796 70.3701 43.1308 70.383 43.8568C70.4302 46.449 69.4362 48.7087 68.2605 50.9143C68.1535 51.1167 67.8552 51.2534 67.6152 51.3402C65.7942 51.9973 63.9086 52.2387 61.9582 52.3319L61.96 52.3305ZM55.3507 42.1912C54.0859 42.2581 52.8216 42.3299 51.5568 42.3935C47.7299 42.586 43.9635 43.1488 40.2537 44.1228C39.6051 44.2924 39.4576 44.5991 39.6602 45.1587C40.3736 47.1328 41.0709 49.1149 41.854 51.0625C41.974 51.3613 42.4961 51.6499 42.8496 51.6742C45.8671 51.8849 48.8795 51.8326 51.8211 51.0235C52.1791 50.9257 52.6187 50.498 52.7013 50.1474C52.8863 49.3645 53.4016 49.1199 54.0519 48.9744C55.6425 48.6206 56.4599 48.9841 57.2318 50.314C57.3502 50.5178 57.5998 50.7202 57.8233 50.7757C60.9219 51.5242 64.0091 51.4608 67.0705 50.5618C67.283 50.4999 67.5262 50.3255 67.6249 50.1346C68.5477 48.3531 69.3128 46.5178 69.4573 44.4735C69.4977 43.9009 69.321 43.6447 68.752 43.5371C64.3239 42.7067 59.8586 42.2613 55.3507 42.1928V42.1912Z" fill="#FEC810"/>
<path d="M70.1755 38C70.182 38.1208 70.1691 38.2545 70.1365 38.3818C68.8493 36.9706 62.9944 31.1776 52.828 30.2477C52.7679 30.1595 52.6981 30.0959 52.5976 30.0878C52.4957 30.0812 52.3984 30.1302 52.3122 30.2053C51.5127 30.1449 50.6876 30.1155 49.8363 30.1221C49.332 29.6979 49.1131 29.6832 48.8781 30.1416C48.6624 30.1498 48.4453 30.1595 48.2246 30.1726C48.4339 29.8104 48.7661 29.5674 49.1342 29.5608C55.3103 29.4418 61.133 30.6881 66.2711 34.3C67.5602 35.2054 68.6483 36.4029 69.819 37.4763C69.9745 37.6199 70.1659 37.8189 70.1755 38Z" fill="white"/>
<path d="M48.2246 30.1726C48.4453 30.1595 48.6624 30.1497 48.8781 30.1416C48.807 30.2818 48.7322 30.4646 48.6495 30.6946C48.6477 30.6995 48.6463 30.7028 48.6431 30.7077C48.5408 30.9817 48.3315 31.2167 48.0933 31.5968C47.9685 31.2167 47.9781 30.8316 48.0837 30.5021C48.1195 30.3846 48.1681 30.2737 48.2246 30.1726Z" fill="#FEC810"/>
<path d="M49.8363 30.1219C50.6876 30.1153 51.5127 30.1447 52.3122 30.2051C52.1828 30.3176 52.0836 30.4889 52.0432 30.6162C51.8046 31.3797 51.3668 31.2459 50.8771 30.9425C50.605 30.7728 50.342 30.5786 50.1071 30.3617C50.0084 30.2703 49.9189 30.1904 49.8363 30.1219Z" fill="#FEC810"/>
<path d="M70.1365 38.3819C70.1223 38.4471 70.1012 38.5108 70.075 38.5695C70.0425 38.6478 70.0021 38.7179 69.952 38.7751C69.8722 38.8697 69.4541 38.7979 69.2903 38.669C69.0925 38.5141 68.6629 38.2188 68.1182 37.8517C66.289 36.6249 63.1481 34.615 62.9747 34.5188C60.1032 32.9363 57.0583 31.8988 53.817 31.4077C53.5398 31.3653 53.3177 30.9232 53.0776 30.6589C52.9785 30.5496 52.9156 30.3751 52.828 30.2478C62.9944 31.1777 68.8493 36.9708 70.1365 38.3819Z" fill="#FEC810"/>
<path d="M72.2866 49.9987C71.9818 50.5173 71.6739 51.0331 71.3738 51.5549C70.7336 52.666 70.0603 53.7559 68.8057 54.2598C68.4165 54.4167 67.9723 54.5292 67.5588 54.5127C66.6116 54.4755 66.4432 54.1083 66.8227 53.2405C67.1256 52.5453 67.3674 51.8551 68.254 51.6692C68.4794 51.6219 68.713 51.2842 68.8167 51.0299C69.4381 49.5077 70.0654 47.9855 70.6005 46.4325C70.941 45.4472 71.1645 45.2432 72.1925 45.5188C72.4683 45.5922 72.7262 45.7308 72.9951 45.8405C72.723 45.9919 72.5055 46.1126 72.2866 46.2333C72.4587 46.4453 72.5931 46.7083 72.8056 46.8597C73.8515 47.5991 74.3264 48.7294 74.0103 49.979C73.5789 51.6775 72.7276 53.1212 71.1728 54.3447C71.9428 52.8977 72.9061 51.6857 72.5899 50.1309L72.2884 50.002L72.2866 49.9987Z" fill="#E9BF9B"/>
<path d="M36.6493 49.5811C35.9115 50.7688 36.286 51.9124 36.4936 53.2194C35.5451 52.1166 35.0392 51.0107 35.1024 49.6858C35.1689 48.2943 36.2358 47.5729 37.2265 46.7625C36.9427 46.5403 36.7433 46.3852 36.4547 46.1604C36.8422 46.0364 37.1389 45.9139 37.447 45.8501C37.9918 45.7377 38.2755 45.9024 38.496 46.5128C39.2127 48.4834 40.0153 50.4246 40.8633 52.3433C41.0336 52.7265 41.5508 52.9533 41.9854 53.3158C41.8248 54.3906 40.3964 54.9193 39.2906 54.1134C38.0242 53.1901 37.5005 51.7917 37.0205 50.3741C36.9265 50.0983 36.7741 49.8441 36.6476 49.5797L36.6493 49.5811Z" fill="#E9BF9B"/>
<path d="M55.5049 32.3931C57.0808 32.9445 58.6829 33.4307 60.228 34.0604C63.2601 35.297 66.0132 37.0279 68.5932 39.0443C69.4101 39.6838 69.4298 39.9954 68.7373 40.8388C67.5069 39.8894 66.3087 38.8942 65.0389 38.0018C62.8888 36.4912 60.4956 35.4634 58.028 34.5955C57.6824 34.4731 57.3809 34.1942 57.089 33.9495C56.5411 33.4911 56.0138 33.0049 55.4792 32.5302C55.487 32.4845 55.4966 32.4388 55.5049 32.3931Z" fill="#FEC810"/>
<path d="M67.6364 16.6548C67.6364 16.6972 67.6363 16.7413 67.6299 16.782C67.5588 17.632 66.8291 18.2503 65.8658 18.2552C64.8847 18.2601 64.1164 17.5488 64.1096 16.6303C64.105 15.9549 64.5474 15.3905 65.2027 15.149C65.3808 15.0837 65.5753 15.0413 65.78 15.0283C65.8186 15.025 65.8576 15.0234 65.8984 15.0234C66.6896 15.0152 67.3202 15.4524 67.5455 16.1018C67.6056 16.273 67.6382 16.459 67.6364 16.6548Z" fill="#FEC810"/>
<path d="M31.8661 21.4477C31.057 17.8652 33.5086 13.0395 36.3752 12.0672C33.7891 14.6693 32.346 17.8244 31.8661 21.4477Z" fill="white"/>
<path d="M74.6977 23.6845C74.6408 24.4904 74.1287 25.0043 73.4283 24.9554C72.7684 24.9097 71.8442 23.9309 71.891 23.3289C71.9428 22.6649 72.4683 22.1331 73.0814 22.0939C73.1264 22.0907 73.1718 22.0907 73.2172 22.0923C73.9634 22.1315 74.5568 22.66 74.6784 23.3305C74.6995 23.4448 74.706 23.5638 74.6977 23.6845Z" fill="#FEC810"/>
<path d="M50.7459 19.1573C50.7138 19.7854 49.9565 20.4119 49.259 20.3923C48.6188 20.3744 47.902 19.6484 47.9199 19.0399C47.9281 18.7299 48.0396 18.4607 48.2278 18.2535C48.4954 17.9583 48.9185 17.787 49.4247 17.7984C49.7275 17.8049 50.0066 17.9109 50.2305 18.0839C50.5609 18.3367 50.7688 18.7315 50.7459 19.1573Z" fill="#FEC810"/>
<path d="M57.0354 17.2045C57 17.8604 56.2781 18.4558 55.5631 18.4167C54.7605 18.3743 54.2126 17.8293 54.2419 17.1066C54.2644 16.5585 54.5595 16.1425 55.0202 15.9566C55.2213 15.8733 55.453 15.8342 55.7077 15.8472C56.2313 15.8717 56.6999 16.2029 56.9124 16.6352C57.0014 16.813 57.0468 17.0071 57.0354 17.2045Z" fill="#FEC810"/>
<path d="M78.1139 29.5169C78.1139 29.6556 78.0932 29.791 78.0492 29.9182C77.8854 30.4044 77.42 30.7845 76.8982 30.7992C76.4164 30.8123 75.3384 29.853 75.2994 29.375C75.2571 28.8627 75.935 28.2069 76.5251 28.189C76.705 28.1841 76.8849 28.2151 77.057 28.2738C77.6325 28.4728 78.1061 28.9867 78.1139 29.5169Z" fill="#FEC810"/>
<path d="M96.3761 30.8806C94.7611 32.8301 95.0402 34.6393 96.159 36.4665C95.282 36.3196 94.4289 35.2217 94.3513 34.2021C94.21 32.339 94.7143 31.4124 96.3761 30.8806Z" fill="white"/>
<path d="M68.7423 1.08635C67.3201 2.94124 67.5294 4.75373 68.6483 6.57926C67.7433 6.45526 66.858 5.24477 66.8176 4.11258C66.7575 2.37678 67.3784 1.35063 68.7405 1.08635H68.7423Z" fill="white"/>
<path d="M77.2984 41.2268C77.2612 41.0849 77.1933 40.943 77.1915 40.801C77.1832 39.2887 77.1832 37.7764 77.1883 36.2641C77.1883 35.7535 77.3489 35.4207 78.0671 35.6719C77.8936 37.5203 77.722 39.367 77.548 41.2154C77.4654 41.2186 77.3828 41.2235 77.3002 41.2268H77.2984Z" fill="white"/>
<path d="M56.3318 14.748C55.5765 14.8785 55.3993 14.5245 55.3185 14.0171C55.2391 13.5228 55.0299 13.035 55.0331 12.5456C55.0363 12.1981 55.2988 11.8523 55.4447 11.5048C55.6719 11.7837 56.0381 12.0366 56.0982 12.3482C56.2492 13.1264 56.2621 13.9307 56.3318 14.748Z" fill="white"/>
<path d="M2.8181 9.51284C2.55218 8.14733 2.28627 6.78352 2.01873 5.40989C2.59758 5.1684 2.94456 5.43926 2.96727 5.86991C3.02888 7.08856 2.98835 8.31213 2.98673 9.53565C2.92998 9.52752 2.87485 9.52096 2.8181 9.51284Z" fill="white"/>
<path d="M21.1662 9.00225C21.0527 8.05605 20.9149 7.11146 20.8387 6.16201C20.8176 5.89932 20.9473 5.6008 21.0835 5.36096C21.1257 5.28919 21.5586 5.32021 21.5764 5.3773C21.6527 5.62526 21.6753 5.90258 21.6559 6.16361C21.5846 7.10655 21.4873 8.04623 21.3997 8.98756C21.3219 8.99247 21.244 8.99734 21.1662 9.00225Z" fill="white"/>
<path d="M100.866 21.3925C99.9437 18.1706 102.664 12.6516 105.526 12.1703C102.901 14.8099 101.401 17.8573 100.866 21.3925Z" fill="white"/>
<path d="M126.738 20.417C125.421 17.5473 124.104 14.6777 122.773 11.7804C123.827 11.3889 123.919 12.1932 124.121 12.6989C124.92 14.7022 125.669 16.7268 126.434 18.7448C126.632 19.2652 126.827 19.7873 127.023 20.3093C126.927 20.3452 126.832 20.3811 126.738 20.4154V20.417Z" fill="white"/>
<path d="M117.737 39.8906C119.183 39.1484 119.621 37.9085 120.111 36.6899C120.258 36.3228 120.536 36.0063 120.755 35.667C120.831 35.7143 120.905 35.76 120.981 35.8073C120.659 36.822 120.399 37.8628 119.994 38.8416C119.618 39.7471 118.943 40.0277 117.739 39.8906H117.737Z" fill="white"/>
<path d="M116.865 47.5711C116.865 45.8501 116.855 44.129 116.882 42.4095C116.886 42.2496 117.129 42.0914 117.26 41.9332C117.398 42.1126 117.653 42.292 117.653 42.4715C117.651 43.1387 117.581 43.806 117.507 44.47C117.392 45.511 117.254 46.5481 117.124 47.5876C117.038 47.5825 116.951 47.5761 116.865 47.5711Z" fill="white"/>
<path d="M94.6772 48.7624C94.6772 47.6661 94.7304 46.5679 94.6606 45.4766C94.5959 44.4407 94.377 43.4146 94.2765 42.3802C94.2343 41.9463 94.3027 41.496 94.3706 41.0604C94.3789 41.0066 94.8392 40.9397 94.8603 40.987C95.0434 41.3818 95.3013 41.8027 95.2994 42.2155C95.2949 44.0508 95.2233 45.8859 95.1503 47.7216C95.1361 48.0786 95.0044 48.4311 94.9268 48.7849L94.6753 48.7638L94.6772 48.7624Z" fill="white"/>
<path d="M49.9061 59.3597C49.8459 59.686 49.8088 59.893 49.7376 60.2849C49.5752 59.9715 49.4504 59.8099 49.4068 59.6291C49.2237 58.8522 49.2576 58.1344 50.1039 57.5801C50.0603 58.5603 50.6972 58.6356 51.359 58.6663C52.3154 58.7104 53.1327 58.3533 53.9124 57.8228C55.375 56.8279 56.9514 56.1556 58.7577 56.5617C59.3038 56.6843 59.7921 57.0674 60.3061 57.3304C60.2652 57.4103 60.2267 57.4901 60.1858 57.5718C59.7756 57.4116 59.3767 57.2028 58.9536 57.1019C57.5269 56.7609 56.335 57.4249 55.1529 58.0807C54.5659 58.407 54.0148 58.8003 53.4182 59.1037C52.3204 59.6617 51.1644 59.7792 49.9061 59.3616V59.3597Z" fill="black"/>
<path d="M56.5232 54.978C56.6563 54.6875 56.6948 54.5342 56.7825 54.4181C57.3566 53.6582 57.2983 53.3612 56.4259 52.973C55.2814 52.4622 54.1639 52.6141 53.0937 53.2029C52.5765 53.487 52.4746 53.9124 52.8037 54.4282C52.9106 54.5943 52.9886 54.7807 53.079 54.9583C52.9996 55.0221 52.9202 55.0872 52.8408 55.151C52.627 54.8881 52.2622 54.6384 52.2346 54.358C52.1938 53.9257 52.2378 53.291 52.51 53.0675C53.0047 52.6614 53.671 52.4053 54.3053 52.2502C55.3071 52.0056 56.3126 52.18 57.1395 52.8147C57.4181 53.0285 57.6095 53.531 57.6081 53.8995C57.6081 54.4117 57.3015 54.8426 56.52 54.978H56.5232Z" fill="black"/>
<path d="M55.7288 54.8605C55.5003 54.5278 55.2763 54.3075 55.3153 54.2391C55.4723 53.9665 55.7109 53.7417 55.9202 53.4984C56.04 53.6127 56.2832 53.7692 56.2621 53.833C56.1565 54.1299 55.9798 54.4007 55.7288 54.8605Z" fill="black"/>
<path d="M54.1689 54.849C53.8431 54.4737 53.6256 54.2419 53.4457 53.9826C53.4328 53.9647 53.7747 53.6173 53.8298 53.6481C54.0813 53.7871 54.3181 53.9826 54.4929 54.2093C54.5384 54.2681 54.3456 54.5145 54.1689 54.8504V54.849Z" fill="black"/>
<path d="M55.3507 42.1911C59.8586 42.2596 64.322 42.705 68.752 43.5354C69.321 43.6431 69.4977 43.8992 69.4573 44.4718C69.3128 46.516 68.5491 48.3512 67.6249 50.1327C67.5262 50.3237 67.2811 50.498 67.0705 50.56C64.0091 51.459 60.9219 51.5228 57.8233 50.7739C57.5998 50.7202 57.3502 50.5159 57.2318 50.3122C56.4599 48.9827 55.6425 48.6188 54.0519 48.9731C53.4021 49.1181 52.8863 49.3627 52.7013 50.1456C52.6187 50.4967 52.1795 50.9239 51.8211 51.0217C48.8799 51.8312 45.8671 51.8831 42.8496 51.6729C42.4945 51.6481 41.974 51.3594 41.854 51.0611C41.0725 49.113 40.3737 47.1328 39.6603 45.157C39.4576 44.5974 39.6051 44.2924 40.2537 44.1211C43.9635 43.1471 47.7317 42.5843 51.5568 42.3918C52.8216 42.3282 54.0863 42.258 55.3507 42.1895V42.1911ZM55.2795 48.1686C56.1014 48.5697 56.8362 48.929 57.6306 49.3172C58.6361 47.3398 59.7205 45.2076 60.8623 42.9644C60.2363 42.9302 59.7466 42.9677 59.2891 42.8649C58.3001 42.6414 57.7944 43.0476 57.3956 43.9449C56.7421 45.418 55.9574 46.8327 55.2809 48.1686H55.2795ZM46.9355 43.3331C46.2741 43.4245 45.752 43.4342 45.2753 43.586C44.9331 43.6953 44.5229 43.9253 44.3656 44.2206C43.4917 45.8666 42.681 47.5486 41.8589 49.2223C41.6481 49.65 42.1151 50.9909 42.5577 51.1034C42.7588 51.1538 43.1593 50.9973 43.2485 50.8211C44.4743 48.3902 45.6612 45.9401 46.9355 43.3348V43.3331ZM62.2064 43.1357C62.1399 43.1064 62.0747 43.077 62.0086 43.046C60.7696 45.467 59.5309 47.8882 58.2047 50.4834C58.9325 50.1718 62.1091 44.064 62.2064 43.1357ZM44.1857 51.1231C44.2732 51.1736 44.3608 51.2241 44.4483 51.2745C45.7698 48.6156 47.0929 45.9566 48.4146 43.2972C48.3283 43.2532 48.2425 43.2091 48.1567 43.1651C46.8336 45.8175 45.5088 48.4705 44.1857 51.1231Z" fill="black"/>
<path d="M55.2795 48.1681C55.9574 46.8322 56.7403 45.4178 57.3938 43.9446C57.7926 43.0474 58.2987 42.6412 59.2877 42.8647C59.7448 42.9674 60.2345 42.9299 60.8604 42.9642C59.7191 45.2074 58.6361 47.3398 57.6287 49.3168C56.8362 48.9285 56.1001 48.5697 55.2777 48.1681H55.2795Z" fill="white"/>
<path d="M46.9355 43.3331C45.6612 45.9401 44.4743 48.3889 43.2485 50.8193C43.1593 50.9955 42.7588 51.1525 42.5578 51.1015C42.1167 50.9891 41.6498 49.65 41.8589 49.2209C42.681 47.5467 43.4917 45.8666 44.3656 44.2189C44.523 43.9236 44.9332 43.692 45.2753 43.5843C45.752 43.4325 46.2741 43.4244 46.9355 43.3314V43.3331Z" fill="white"/>
<path d="M62.2064 43.1375C62.1073 44.0657 58.9325 50.1736 58.2047 50.4852C59.5323 47.8896 60.7714 45.4687 62.0086 43.0477C62.0747 43.0771 62.1399 43.1065 62.2064 43.1375Z" fill="white"/>
<path d="M44.1857 51.1231C45.5088 48.4705 46.8336 45.818 48.1567 43.1651C48.2425 43.2092 48.3283 43.2532 48.4141 43.2973C47.0929 45.9566 45.7698 48.6156 44.4483 51.275C44.3608 51.224 44.2732 51.1736 44.1857 51.1231Z" fill="white"/>
<path d="M67.5455 16.1018C67.3784 16.2861 67.1499 16.4166 66.8856 16.4607C66.2564 16.5651 65.663 16.1376 65.5593 15.5047C65.54 15.3774 65.54 15.2518 65.5593 15.131C65.6291 15.0919 65.702 15.056 65.78 15.0283C65.8186 15.025 65.8576 15.0234 65.8984 15.0234C66.6896 15.0152 67.3202 15.4524 67.5455 16.1018Z" fill="white"/>
<path d="M56.9124 16.6352C56.755 16.9859 56.403 17.229 55.9945 17.229C55.4383 17.229 54.9858 16.7755 54.9858 16.2143C54.9858 16.1246 54.9973 16.0381 55.0202 15.9566C55.2213 15.8733 55.453 15.8342 55.7077 15.8472C56.2313 15.8717 56.6999 16.2029 56.9124 16.6352Z" fill="white"/>
<path d="M50.2305 18.0839C50.2255 18.6402 49.7748 19.0905 49.2218 19.0905C48.7239 19.0905 48.3122 18.7283 48.2278 18.2535C48.4953 17.9583 48.9185 17.787 49.4247 17.7984C49.7275 17.8049 50.0066 17.9109 50.2305 18.0839Z" fill="white"/>
<path d="M74.6784 23.3305C74.4935 23.5459 74.2209 23.6829 73.9148 23.6829C73.3586 23.6829 72.9061 23.2278 72.9061 22.6666C72.9061 22.4545 72.9708 22.2571 73.0814 22.0939C73.1268 22.0907 73.1718 22.0907 73.2172 22.0923C73.9634 22.1315 74.5568 22.66 74.6784 23.3305Z" fill="white"/>
<path d="M78.1143 29.5167C78.1143 29.6554 78.0932 29.7908 78.0492 29.9181C77.978 29.9344 77.9051 29.9425 77.8303 29.9425C77.2727 29.9425 76.822 29.4874 76.822 28.9278C76.822 28.6799 76.9111 28.4515 77.057 28.2736C77.6325 28.4727 78.1061 28.9866 78.1143 29.5167Z" fill="white"/>
</g>
</svg>
