<svg width="95" height="80" viewBox="0 0 95 80" fill="none" xmlns="http://www.w3.org/2000/svg">
<mask id="mask0_4516_107608" style="mask-type:alpha" maskUnits="userSpaceOnUse" x="0" y="0" width="95" height="80">
<path d="M61.117 48.4945C60.9367 48.1872 60.7598 47.8763 60.5742 47.5725C59.4134 45.6686 58.2491 43.7664 57.0865 41.8625C56.1971 40.3718 55.3094 38.8829 54.42 37.3923C54.2467 37.1061 54.0803 36.8147 53.8982 36.5321C52.9178 35.0132 52.0861 33.3936 50.9306 31.9913C49.5404 30.1986 48.2728 28.3053 46.7618 26.6097C45.3576 25.0343 43.7871 23.6213 41.6388 23.2451C38.5381 22.7029 35.9556 23.9269 33.6952 25.9545C33.1507 26.4419 32.7288 27.0725 32.5379 27.8178C31.9059 29.1848 32.0634 30.5978 32.2998 32.0142C32.4206 32.6183 32.5572 33.2152 32.8338 33.7716C33.0789 34.4851 33.3643 35.181 33.7495 35.831C34.0121 36.322 34.1995 36.8571 34.5812 37.2775C34.828 37.8144 35.1729 38.2895 35.5161 38.7646C35.6544 39.0171 35.7682 39.2874 36.0063 39.4711C36.3723 40.0062 36.7364 40.5414 37.1024 41.0765C37.5033 41.707 37.9078 42.334 38.4243 42.8745C38.7849 43.6004 39.3312 44.1938 39.8092 44.8367C40.3782 45.6191 40.949 46.4016 41.518 47.1822C42.453 48.5722 43.3897 49.9622 44.3246 51.3522C45.2893 53.0088 46.212 54.6832 46.5132 56.6189C46.5832 57.6751 46.2856 58.62 45.622 59.4342C45.1335 60.0347 44.4192 60.3456 43.8116 60.7942C42.8977 61.211 41.9557 61.5519 40.9945 61.8362C39.3505 62.3219 37.6644 62.6575 36.0466 63.2315C35.5669 63.4134 35.0749 63.5688 34.6074 63.779C31.7938 65.0436 30.2636 67.2637 30.584 70.0543C31.0374 74.0229 32.783 77.2373 36.4633 79.1289C36.5001 79.1095 36.5369 79.1024 36.5719 79.1007C36.5351 79.1095 36.4983 79.1201 36.4633 79.1289C38.433 80.0279 40.4885 80.1639 42.5983 79.8407C44.4192 79.6994 46.163 79.2508 47.8351 78.5125C49.1219 77.9615 50.4193 77.4369 51.5784 76.628C52.8723 76.1034 53.9823 75.2786 55.0836 74.4415C55.7576 73.9169 56.5263 73.5107 57.0813 72.836C58.0513 72.3026 58.7709 71.4849 59.4957 70.6742C60.3624 69.9925 61.0505 69.1535 61.6177 68.2104C61.8996 67.8995 62.1885 67.5922 62.3128 67.1736C62.8223 66.5608 63.2075 65.8755 63.5156 65.1407C64.1389 63.9892 64.743 62.8306 64.8568 61.4883C65.6254 59.3088 65.347 57.1717 64.5084 55.0965C63.5787 52.7951 62.3636 50.6333 61.1187 48.4927L61.117 48.4945Z" fill="#001275"/>
<path d="M29.4442 55.4992C29.9835 54.5808 30.5998 53.7048 30.9272 52.6751C31.1075 52.0905 31.2879 51.5077 31.47 50.9231C31.5593 50.4709 31.6468 50.0188 31.7361 49.5684C31.8306 49.065 31.7816 48.5511 31.8411 48.0407C31.9602 47.0198 31.8779 45.9937 31.6188 44.9905C31.4454 43.5669 31.0533 42.2105 30.4142 40.9265C29.9695 39.8173 29.3917 38.7859 28.6546 37.8445C27.9735 36.753 27.1594 35.771 26.2542 34.8614C25.44 33.9218 24.5734 33.0405 23.5631 32.3128C23.1674 31.9914 22.7718 31.6682 22.3761 31.3449C22.1555 31.2107 21.9349 31.0783 21.7142 30.944C21.133 30.3771 20.4046 30.0662 19.6763 29.7536C18.8096 29.4004 17.9429 29.0471 17.0027 28.9359C16.9309 28.9765 16.8539 28.9853 16.7751 28.9853C16.8504 28.9694 16.9274 28.9518 17.0027 28.9359C15.7929 28.8087 14.5935 28.7045 13.3645 28.8582C12.7727 28.9323 12.2719 29.3792 11.6486 29.2096C10.803 29.4869 9.97832 29.8154 9.19219 30.2393C3.06597 33.5403 -0.677335 41.6082 0.683073 48.0866L0.947451 49.1745C1.19782 49.9888 1.39567 50.8189 1.76335 51.5925C1.7686 51.5801 1.7721 51.5677 1.77735 51.5554C1.7721 51.5677 1.76685 51.5819 1.76335 51.5925C1.93668 51.9987 2.11001 52.4067 2.28335 52.8129C2.45843 53.175 2.63352 53.537 2.8086 53.8973C2.99594 54.2541 3.18328 54.6109 3.36887 54.9676C3.54571 55.3173 3.7278 55.6653 3.99918 55.9532C4.23904 56.4512 4.57521 56.8769 4.96214 57.2654C5.20201 57.6558 5.52066 57.9737 5.86733 58.2669C6.36632 58.8497 6.93885 59.3425 7.59892 59.731C8.0734 60.169 8.64067 60.4552 9.22545 60.7113C9.77522 61.0398 10.3512 61.3082 10.9728 61.4654C11.1321 61.589 11.3142 61.6208 11.5086 61.5908C11.7869 61.6526 11.9953 61.9229 12.3122 61.8716C13.0388 62.1419 13.7882 62.2849 14.5638 62.2867C14.6111 62.3026 14.6548 62.3114 14.6933 62.3167C14.7966 62.3414 14.9017 62.3644 15.005 62.3891C15.8454 62.3909 16.6858 62.3927 17.5262 62.3944C17.9009 62.3538 18.2791 62.3308 18.6503 62.269C22.0994 61.6897 25.1371 60.2856 27.5936 57.7211C28.3289 57.0817 28.9172 56.3188 29.4372 55.4975L29.4442 55.4992ZM16.3514 51.7267C15.5898 51.6843 14.8754 51.4494 14.1909 51.0873C14.0613 50.999 13.9387 50.9036 13.8197 50.8047C13.4205 50.4709 13.0721 50.0806 12.7377 49.6779C12.6729 49.5331 12.6098 49.39 12.5451 49.2452C12.3174 48.7312 12.0881 48.2155 11.8605 47.7016C11.8377 47.6521 11.8167 47.6026 11.7939 47.5532C11.6626 46.7566 11.5156 45.9601 11.5856 45.1494C11.5943 45.0505 11.6049 44.9516 11.6206 44.8527C12.0443 42.5602 13.4748 41.0695 15.532 40.7781C15.5548 40.7781 15.5793 40.7746 15.602 40.7728C16.1553 40.7304 16.6771 40.877 17.2023 41.0113C17.3056 41.0378 17.4089 41.0625 17.514 41.0872C18.4139 41.6188 19.1317 42.3341 19.6605 43.2419C19.6885 43.2932 19.7165 43.3461 19.7445 43.3974C20.0544 43.9961 20.2593 44.6337 20.4239 45.2854C20.4571 45.4108 20.4869 45.5362 20.5167 45.6634C20.739 46.6842 20.5727 47.668 20.3328 48.6482C20.2908 48.8125 20.2488 48.9785 20.205 49.1428C19.4802 50.5257 18.3596 51.3876 16.8451 51.7267C16.6788 51.7355 16.5142 51.7355 16.3514 51.7267Z" fill="#001275"/>
<path d="M93.9435 42.2828C94.0135 41.6081 93.926 40.9352 93.7859 40.287C92.352 33.5932 89.1024 28.2681 82.6138 25.4387C81.5755 24.9848 80.4847 24.6545 79.3379 24.5821C78.909 24.3967 78.4573 24.4302 78.0073 24.4479C76.6381 24.2642 75.29 24.3737 73.9558 24.7234C73.3465 24.7411 72.7845 24.9512 72.2208 25.1561C71.9546 25.2515 71.6885 25.3469 71.4224 25.4422C70.8603 25.6524 70.2983 25.8608 69.7958 26.2017C69.0237 26.6114 68.2989 27.0918 67.651 27.6853C66.8211 28.3458 66.091 29.0982 65.5168 29.9972C64.953 30.7373 64.4715 31.525 64.1651 32.4116C63.8114 32.998 63.6101 33.6426 63.4613 34.3049C63.2109 34.8701 63.1549 35.4883 62.992 36.0782L62.8537 37.2898C62.8537 37.3799 62.8502 37.4699 62.8485 37.56C62.8397 37.9097 62.831 38.2612 62.8222 38.6109C62.6209 39.3898 62.859 40.1634 62.8537 40.9405C62.9553 42.3199 63.2319 43.6657 63.6574 44.9797C63.8254 45.4884 63.969 46.0059 64.1669 46.5022C65.2891 49.3051 67.026 51.6294 69.4929 53.3779C70.4471 54.2681 71.5957 54.835 72.7618 55.3702C73.4043 55.7075 74.0749 55.9725 74.77 56.1773C75.1499 56.3345 75.5369 56.4688 75.9518 56.4952C76.1847 56.5677 76.4175 56.6383 76.6504 56.7107C77.1424 56.799 77.6344 56.8891 78.1264 56.9774C78.7041 57.0269 79.2819 57.0746 79.8579 57.124H80.9295C81.6526 57.1434 82.3687 57.0905 83.069 56.8909C84.0547 56.792 85.0002 56.5482 85.8931 56.1085C87.0714 55.6669 88.1552 55.0611 89.1147 54.2345C89.8921 53.6164 90.6081 52.9346 91.2087 52.1381C91.2087 52.1381 91.2087 52.1381 91.2087 52.1363C91.5921 51.7354 91.895 51.2797 92.1454 50.7852C92.4816 50.0381 92.9946 49.3705 93.1364 48.5368C93.6319 47.6431 93.7632 46.6523 93.905 45.6633C93.9558 45.1634 94.0468 44.6636 94.0486 44.1638C94.0503 43.5368 94.2044 42.8956 93.94 42.2828H93.9435ZM83.2756 42.7031C82.9272 43.7646 82.3704 44.6866 81.4547 45.3665C81.4004 45.3983 81.3462 45.4301 81.2901 45.4601C80.5653 45.8575 79.7862 46.0412 78.9563 46.05C78.881 46.0377 78.8074 46.0236 78.7339 46.0077C77.9565 45.8505 77.2632 45.5396 76.6416 45.1016C76.26 44.8349 75.9063 44.5188 75.5754 44.1585C74.847 43.1323 74.2202 42.0567 73.9611 40.8027C73.9208 40.642 73.8946 40.4813 73.8788 40.3223C73.7965 39.5152 73.9961 38.731 74.187 37.9486C74.1957 37.9097 74.2062 37.8691 74.215 37.8302C74.6562 36.8818 75.4003 36.2248 76.26 35.679C76.3055 35.6631 76.3492 35.649 76.3948 35.6349C77.0986 35.4035 77.813 35.2287 78.5658 35.3452C78.5938 35.3488 78.6236 35.3541 78.6516 35.3593C81.4057 35.8027 83.596 39.2909 83.3719 41.8165C83.3509 42.062 83.3386 42.3075 83.3229 42.5548C83.3071 42.6042 83.2914 42.6537 83.2756 42.7031Z" fill="#001275"/>
<path d="M14.1923 19.8737C15.0117 20.4601 15.8609 20.9988 16.7415 21.488C17.8568 22.2722 19.0089 22.9981 20.1907 23.6746C21.418 24.5312 22.6839 25.3259 23.9778 26.0783C24.8182 26.6258 25.6551 27.1804 26.5008 27.7209C27.3989 28.2949 27.8296 28.2366 28.5177 27.4348C28.7488 27.1645 28.9537 26.8643 29.1218 26.5499C29.5175 25.8099 29.4089 25.2465 28.7786 24.6901C28.3759 24.3333 27.9312 24.0349 27.448 23.7964C27.3744 23.7487 27.3026 23.694 27.2256 23.6551C26.7196 23.4043 26.5655 23.2065 27.0505 22.6696C28.024 21.5905 28.4792 20.2658 28.3829 18.7822C28.3479 16.5674 27.3604 14.7995 25.8302 13.2894C24.5153 11.9471 23.0708 10.8114 21.2044 10.3558C19.3328 9.89833 17.7238 10.5642 16.7188 12.212C15.9904 13.4042 15.691 14.6918 15.9169 16.0853C15.9887 16.5356 15.9239 16.7476 15.3864 16.6098C14.3849 16.3502 13.7196 16.8571 13.2959 18.1376C13.028 18.9465 13.2644 19.4057 14.1906 19.872L14.1923 19.8737ZM18.9651 15.4194C19.2698 14.3968 19.9316 14.0912 20.9226 14.5134C21.2675 14.6617 21.5949 14.8542 21.9293 15.0256C21.9871 15.0732 22.0449 15.1209 22.1044 15.1686C22.6804 15.6367 23.2739 16.0853 23.7502 16.6716C24.3612 17.424 24.7814 18.2506 24.8777 19.2132C24.8865 19.2944 24.8917 19.3774 24.8952 19.4604C24.7359 19.9991 24.5591 20.5254 24.0933 20.8893C23.8797 20.944 23.6749 20.9652 23.4788 20.9582C22.8923 20.937 22.3775 20.6597 21.8925 20.2517C21.5108 19.9302 21.0976 19.6424 20.6985 19.3403C20.7002 19.3368 20.7037 19.3333 20.7072 19.3297C20.716 19.3121 20.723 19.2927 20.73 19.275C20.709 19.2874 20.6879 19.3015 20.6669 19.3174C19.8318 18.4113 19.156 17.4152 18.9213 16.1771C18.9126 16.1471 18.9073 16.1153 18.9021 16.0835C18.9213 15.861 18.9021 15.6278 18.9651 15.4194Z" fill="#001275"/>
<path d="M53.9513 20.5376C53.3 20.5817 52.6609 20.4811 52.0219 20.3804C51.304 20.0801 50.5757 19.7993 49.8683 19.4779C48.7968 18.9904 48.3749 19.137 47.8829 20.2267C47.7918 20.4298 47.72 20.6453 47.6535 20.859C47.3909 21.7244 47.5502 22.1519 48.3626 22.5669C49.8456 23.3246 51.4213 23.835 53.0671 24.0364C54.1912 24.1741 55.3415 24.1883 56.4077 23.6531C57.7664 23.2098 58.7189 22.2773 59.4507 21.0798C59.8009 20.6312 60.0442 20.1243 60.2491 19.5962C60.552 18.9904 60.7551 18.3493 60.9197 17.694C61.3696 16.0338 61.8179 14.3736 62.2678 12.7151C62.3396 12.4379 62.4026 12.157 62.4867 11.8815C62.7721 10.9384 63.0855 10.0023 63.1538 9.00793C63.1993 8.34208 63.0119 7.7875 62.3676 7.52257C61.6025 7.20819 60.8164 6.91677 60.0022 7.39011C59.8184 7.49608 59.7273 7.69036 59.6748 7.88464C59.4157 8.85781 59.1688 9.83451 58.9167 10.8112C58.4527 12.3478 58.0273 13.9003 56.9435 15.1507C56.4778 15.6205 55.9875 16.0568 55.3397 16.2581C55.1856 16.2775 55.0316 16.3146 54.8775 16.3129C53.918 16.3093 53.6747 16.0656 53.7394 15.1101C53.7675 14.7127 53.8848 14.3206 53.9618 13.9268C54.277 12.754 54.5921 11.583 54.9073 10.4103C55.1962 9.37707 55.5393 8.35798 55.6969 7.29297C55.7967 6.61476 55.7179 5.9542 55.0788 5.57448C54.333 5.13116 53.5153 4.92452 52.6592 5.26716C52.4246 5.36077 52.2933 5.58507 52.2267 5.83587C51.9221 7.00332 51.6174 8.169 51.3128 9.33644C50.9661 10.352 50.6895 11.3852 50.4689 12.4361C50.1257 13.494 49.7598 14.5449 49.8316 15.6859C49.7283 16.7791 50.0119 17.7717 50.798 18.5206C52.2337 19.8894 53.9653 19.9954 55.8124 19.5202C55.338 20.1702 54.7164 20.4881 53.9478 20.5411L53.9513 20.5376Z" fill="#001275"/>
<path d="M39.0951 16.3784C40.487 16.797 41.8632 16.7493 43.2148 16.1929C43.4109 16.1117 43.5843 15.875 43.8084 16.2494C44.4229 17.2756 45.9216 17.7383 47.0107 17.2703C47.5202 17.0513 47.7863 16.6751 47.5587 16.0869C47.4799 14.8524 47.8178 13.6602 47.9334 12.4451C48.1154 11.1363 48.2975 9.8276 48.4796 8.51886C48.5847 8.09497 48.4849 7.66756 48.5006 7.24191C48.5847 5.14015 47.62 3.67245 45.624 2.98364C43.7401 2.33369 41.7826 2.19239 39.8129 2.36018C38.6241 2.46085 38.3632 2.7929 38.3195 3.99037C38.3107 4.23587 38.3107 4.48843 38.3457 4.7304C38.4928 5.71769 38.8587 5.99145 39.8427 5.89254C41.1173 5.76361 42.3832 5.80953 43.6298 6.12391C44.1445 6.25461 44.5927 6.49128 44.7818 7.04586C44.7818 7.04586 44.7818 7.04586 44.7818 7.04763C44.7818 8.27866 44.7731 8.08967 43.7979 7.8795C42.2606 7.55099 40.7199 7.38497 39.2036 7.98017C38.3142 8.32811 37.5613 8.85267 37.1061 9.73399C36.4583 10.7248 36.2202 11.8128 36.334 12.9873C36.4723 14.7641 37.4213 15.8768 39.0968 16.3784H39.0951ZM44.2286 11.0851C44.2023 11.1876 44.1743 11.2882 44.1393 11.3854C43.8329 12.3091 43.2253 12.9484 42.3779 13.36C42.2361 13.4306 42.0873 13.4924 41.9332 13.5489C41.6653 13.5507 41.3957 13.5525 41.1261 13.5542C40.8529 13.4659 40.6358 13.3282 40.4765 13.1604C40.0248 12.6817 40.044 11.9541 40.6288 11.373C40.7356 11.267 40.8582 11.1752 40.9807 11.0851C41.035 11.0427 41.0893 11.0039 41.1418 10.9615C42.1836 10.6648 43.2096 10.7831 44.2286 11.0851Z" fill="#001275"/>
<path d="M25.7397 5.14557C26.1442 6.31302 26.5486 7.48223 26.9548 8.64968C27.3295 9.73941 27.6587 10.8468 28.1261 11.903C28.4536 13.1446 28.9438 14.3297 29.364 15.5396C29.5058 16.0358 29.7142 16.5039 29.9873 16.9419C30.6894 18.0687 31.6523 18.4979 32.9427 18.2224C33.7061 18.0599 34.4292 17.772 35.0928 17.3517C36.068 16.7335 36.18 16.2937 35.646 15.2552C35.021 14.0454 34.7881 13.9412 33.6518 14.524C33.2036 14.7536 33.0408 14.6423 32.9025 14.199C32.5996 13.2382 32.3124 12.2703 31.887 11.3519C31.5508 10.2074 31.1726 9.07709 30.7104 7.97676C30.2989 6.68921 29.9015 5.39813 29.3675 4.15474C29.0786 3.0915 28.7074 2.05828 28.2785 1.04626C28.0071 0.403372 27.5816 -0.0487705 26.8078 0.00421494C25.9201 0.0642651 24.7558 0.777803 24.5632 1.3889C24.5054 1.57082 24.5264 1.73861 24.5894 1.91346C24.9764 2.99083 25.3581 4.0682 25.7415 5.14734L25.7397 5.14557Z" fill="#001275"/>
</mask>
<g mask="url(#mask0_4516_107608)">
<circle cx="48.5283" cy="45.5878" r="91.2988" fill="url(#paint0_radial_4516_107608)"/>
<circle cx="21.2736" cy="68.6646" r="58.7902" fill="url(#paint1_radial_4516_107608)"/>
<circle cx="21.2736" cy="45.5879" r="58.7902" fill="url(#paint2_radial_4516_107608)"/>
<circle cx="24.5285" cy="-1.8089" r="36.0178" fill="url(#paint3_radial_4516_107608)"/>
<ellipse cx="45.3455" cy="6.61687" rx="44.9412" ry="44.9412" fill="url(#paint4_radial_4516_107608)"/>
<ellipse cx="87.6755" cy="40.0063" rx="39.1031" ry="73.6309" transform="rotate(-24.8233 87.6755 40.0063)" fill="url(#paint5_radial_4516_107608)"/>
</g>
<defs>
<radialGradient id="paint0_radial_4516_107608" cx="0" cy="0" r="1" gradientUnits="userSpaceOnUse" gradientTransform="translate(48.5283 45.5878) rotate(90) scale(91.2988)">
<stop stop-color="#FF00F6"/>
<stop offset="1" stop-color="#990094" stop-opacity="0"/>
</radialGradient>
<radialGradient id="paint1_radial_4516_107608" cx="0" cy="0" r="1" gradientUnits="userSpaceOnUse" gradientTransform="translate(21.2736 68.6646) rotate(29.797) scale(55.7838)">
<stop stop-color="#5289FF"/>
<stop offset="1" stop-color="#6386D0" stop-opacity="0"/>
</radialGradient>
<radialGradient id="paint2_radial_4516_107608" cx="0" cy="0" r="1" gradientUnits="userSpaceOnUse" gradientTransform="translate(-4.24377 30.8194) rotate(34.1839) scale(71.7555)">
<stop stop-color="#1F428E"/>
<stop offset="1" stop-color="#28498E" stop-opacity="0"/>
</radialGradient>
<radialGradient id="paint3_radial_4516_107608" cx="0" cy="0" r="1" gradientUnits="userSpaceOnUse" gradientTransform="translate(22.4429 -1.8089) rotate(34.4466) scale(27.6706)">
<stop stop-color="#3F1A74"/>
<stop offset="1" stop-color="#28498E" stop-opacity="0"/>
</radialGradient>
<radialGradient id="paint4_radial_4516_107608" cx="0" cy="0" r="1" gradientUnits="userSpaceOnUse" gradientTransform="translate(50.9679 0.877278) rotate(32.5857) scale(34.0994 34.0993)">
<stop stop-color="#5B0649"/>
<stop offset="1" stop-color="#5B0649" stop-opacity="0"/>
</radialGradient>
<radialGradient id="paint5_radial_4516_107608" cx="0" cy="0" r="1" gradientUnits="userSpaceOnUse" gradientTransform="translate(92.5675 30.6027) rotate(50.278) scale(39.1186 42.3732)">
<stop stop-color="#5B0649"/>
<stop offset="1" stop-color="#5B0649" stop-opacity="0"/>
</radialGradient>
</defs>
</svg>
