<svg width="146" height="44" viewBox="0 0 146 44" fill="none" xmlns="http://www.w3.org/2000/svg">
<g clip-path="url(#clip0_4516_105097)">
<path d="M27.6856 0H0.240234V28.1347H27.6856V0Z" fill="#CD2432"/>
<path d="M57.0792 0H29.6338V28.1347H57.0792V0Z" fill="#E6A009"/>
<path d="M86.4718 0H59.0264V28.1347H86.4718V0Z" fill="#61C128"/>
<path d="M115.867 0H88.4219V28.1347H115.867V0Z" fill="#0072BC"/>
<path d="M145.261 0H117.815V28.1347H145.261V0Z" fill="#683F98"/>
<path d="M10.5529 23.7912H6.17303V17.5469H10.5548C11.077 19.2458 12.0624 20.0961 13.509 20.0961C14.5534 20.0961 15.0775 19.6767 15.0775 18.8358C15.0775 18.3973 14.8965 18.0331 14.5324 17.7433C14.1398 17.4268 13.3146 16.9864 12.0547 16.4277C10.469 15.7089 9.30257 15.0893 8.55544 14.5649C7.85597 14.0883 7.2575 13.4305 6.76387 12.5915C6.26833 11.7602 6.02246 10.8412 6.02246 9.83259C6.02246 8.02126 6.60949 6.60843 7.78545 5.59027C8.95188 4.57211 10.3889 4.06494 12.0967 4.06494C13.8044 4.06494 15.251 4.55114 16.4365 5.52163V4.31662H20.8449V9.86119H16.4917C15.96 8.33014 15.0166 7.56557 13.6652 7.56557C12.7142 7.56557 12.2377 7.97169 12.2377 8.78393C12.2377 9.1767 12.373 9.47032 12.6437 9.66671C12.9048 9.87263 13.7491 10.3245 15.1766 11.0243C17.0902 11.9757 18.3672 12.6716 19.0114 13.1101C19.3373 13.3256 19.6708 13.6268 20.012 14.0139C20.3532 14.4009 20.6352 14.8013 20.8582 15.2113C21.3709 16.1265 21.6282 17.116 21.6282 18.1799C21.6282 19.814 21.0221 21.1944 19.8081 22.325C18.5959 23.4728 17.0654 24.0467 15.2167 24.0467C13.4994 24.0467 11.9461 23.5377 10.5567 22.5214V23.7951L10.5529 23.7912Z" fill="#F7F7F7"/>
<path d="M52.4239 23.7914H33.8926V19.1296H35.6422V8.9766H33.8926V4.31482H45.0194V8.9766H43.1726V19.1277H47.7773V16.0046H52.4239V23.7894V23.7914Z" fill="#F7F7F7"/>
<path d="M61.6875 14.0044C61.6875 12.3799 62.0839 10.8069 62.8768 9.28543C63.6601 7.77345 64.878 6.4998 66.5305 5.46258C67.1175 5.09841 67.7217 4.80859 68.343 4.59505C68.9643 4.3796 69.6371 4.21562 70.3652 4.09741C71.0933 3.9811 71.8575 3.922 72.6599 3.922C76.1497 3.922 78.8504 4.94397 80.764 6.98791C81.715 7.99653 82.4336 9.08905 82.9196 10.2635C83.4037 11.44 83.6476 12.685 83.6476 14.0025C83.6476 16.7195 82.6585 19.0799 80.6801 21.0877C78.7017 23.0954 76.0277 24.0983 72.6599 24.0983C69.2922 24.0983 66.763 23.1564 64.7389 21.2707C62.7053 19.3945 61.6875 16.9731 61.6875 14.0044ZM70.1422 14.0044C70.1422 16.1704 70.3519 17.6309 70.7712 18.3878C71.1714 19.1543 71.8023 19.5356 72.6599 19.5356C73.5176 19.5356 74.1428 19.1677 74.564 18.4298C74.9833 17.6824 75.1929 16.2085 75.1929 14.0044C75.1929 11.8003 74.9871 10.4104 74.5773 9.63626C74.1752 8.87169 73.5367 8.48845 72.6599 8.48845C71.7832 8.48845 71.1905 8.85643 70.7712 9.59431C70.3519 10.3322 70.1422 11.8022 70.1422 14.0044Z" fill="#F7F7F7"/>
<path d="M107.386 23.7914H96.4552V19.1296H98.1344V8.9766H95.8949V12.5192H92.2412V4.31482H111.543V12.5192H107.889V8.9766H105.663V19.1277H107.384V23.7894L107.386 23.7914Z" fill="#F7F7F7"/>
<path d="M128.189 23.7912H123.807V17.5469H128.189C128.711 19.2458 129.696 20.0961 131.143 20.0961C132.187 20.0961 132.709 19.6767 132.709 18.8358C132.709 18.3973 132.528 18.0331 132.164 17.7433C131.772 17.4268 130.946 16.9864 129.687 16.4277C128.101 15.7089 126.934 15.0893 126.187 14.5649C125.488 14.0883 124.891 13.4305 124.396 12.5915C123.9 11.7602 123.654 10.8412 123.654 9.83259C123.654 8.02126 124.241 6.60843 125.417 5.59027C126.584 4.57211 128.021 4.06494 129.728 4.06494C131.436 4.06494 132.883 4.55114 134.068 5.52163V4.31662H138.477V9.86119H134.124C133.592 8.33014 132.648 7.56557 131.297 7.56557C130.346 7.56557 129.87 7.97169 129.87 8.78393C129.87 9.1767 130.005 9.47032 130.275 9.66671C130.537 9.87263 131.381 10.3245 132.808 11.0243C134.722 11.9757 135.999 12.6716 136.643 13.1101C136.969 13.3256 137.303 13.6268 137.644 14.0139C137.985 14.4009 138.267 14.8013 138.49 15.2113C139.003 16.1265 139.26 17.116 139.26 18.1799C139.26 19.814 138.654 21.1944 137.44 22.325C136.226 23.4728 134.697 24.0467 132.849 24.0467C131.131 24.0467 129.578 23.5377 128.189 22.5214V23.7951V23.7912Z" fill="#F7F7F7"/>
<path d="M21.6913 43.8513H19.1659L17.4715 37.1036L15.4798 43.8513H13.2651L11.2734 36.9549L9.43041 43.8513H7.05371L10.0708 32.5543H12.1807L14.3649 39.4221L16.5643 32.5543H18.6742L21.6913 43.8513Z" fill="black"/>
<path d="M36.6548 43.8513H34.5449V32.5543H36.6548V43.8513Z" fill="black"/>
<path d="M55.7691 43.8513H50.3086V32.5543H52.4185V41.7406H55.7691V43.8513Z" fill="black"/>
<path d="M74.6988 43.8513H69.2383V32.5543H71.3481V41.7406H74.6988V43.8513Z" fill="black"/>
<path d="M90.396 43.8513H88.2861V32.5543H90.396V43.8513Z" fill="black"/>
<path d="M113.397 42.2745C112.253 43.4185 110.9 43.9981 109.341 43.9981C107.782 43.9981 106.429 43.4185 105.27 42.2745C104.126 41.1153 103.547 39.7634 103.547 38.2019C103.547 36.6403 104.126 35.2885 105.27 34.1445C106.429 32.9853 107.78 32.4056 109.341 32.4056C110.902 32.4056 112.253 32.9853 113.397 34.1445C114.556 35.2885 115.135 36.6422 115.135 38.2019C115.135 39.7615 114.556 41.1153 113.397 42.2745ZM111.941 35.6012C111.197 34.8576 110.336 34.4858 109.341 34.4858C108.346 34.4858 107.483 34.8576 106.726 35.6012C105.983 36.3448 105.611 37.2066 105.611 38.2019C105.611 39.1972 105.983 40.0609 106.726 40.8178C107.485 41.5614 108.346 41.9332 109.341 41.9332C110.336 41.9332 111.197 41.5614 111.941 40.8178C112.684 40.059 113.056 39.1972 113.056 38.2019C113.056 37.2066 112.684 36.3448 111.941 35.6012Z" fill="black"/>
<path d="M137.616 43.8513H135.729L130.394 36.5678V43.8513H128.284V32.5543H130.081L135.504 39.956V32.5543H137.614V43.8513H137.616Z" fill="black"/>
</g>
<defs>
<clipPath id="clip0_4516_105097">
<rect width="145.02" height="44" fill="white" transform="translate(0.240234)"/>
</clipPath>
</defs>
</svg>
