<svg width="97" height="48" viewBox="0 0 97 48" fill="none" xmlns="http://www.w3.org/2000/svg">
<g clip-path="url(#clip0_4516_59249)">
<path d="M48.8511 0.405151C61.8131 0.405151 72.4122 10.9367 72.4122 24.0337C72.4122 37.1307 61.8806 47.6623 48.8511 47.6623C35.8216 47.6623 25.29 37.1307 25.29 24.0337C25.29 10.9367 35.8891 0.405151 48.8511 0.405151Z" fill="url(#paint0_linear_4516_59249)"/>
<path d="M3.34885 12.8945H94.2851C94.9602 12.8945 95.4328 13.4346 95.4328 14.0422V34.0252C95.4328 34.7003 94.8927 35.1729 94.2851 35.1729H3.34885C2.67374 35.1729 2.20117 34.6328 2.20117 34.0252V14.1097C2.20117 13.4346 2.74125 12.8945 3.34885 12.8945Z" fill="#102444"/>
<path d="M62.6911 17.4177C62.5561 17.0802 62.3536 16.8101 62.0835 16.5401C61.8135 16.2701 61.5434 16.0675 61.1384 15.9325C60.8008 15.7975 60.4633 15.73 60.0582 15.73H52.227C51.822 15.73 51.4844 15.7975 51.1469 15.9325C50.8093 16.0675 50.4718 16.2701 50.2017 16.5401C49.9317 16.8101 49.7291 17.0802 49.5941 17.4177C49.4591 17.7553 49.3916 18.0928 49.3916 18.4979V29.7721C49.3916 30.1097 49.4591 30.5147 49.5941 30.8523C49.7291 31.1898 49.9317 31.4599 50.2017 31.7299C50.4718 31.9999 50.7418 32.2025 51.1469 32.3375C51.4844 32.4725 51.822 32.54 52.227 32.54H60.0582C60.4633 32.54 60.8008 32.4725 61.1384 32.3375C61.4759 32.2025 61.8135 31.9999 62.0835 31.7299C62.3536 31.4599 62.5561 31.1898 62.6911 30.8523C62.8261 30.5147 62.8936 30.1772 62.8936 29.7721V18.4979C62.9612 18.0928 62.8936 17.7553 62.6911 17.4177ZM60.4633 27.8818C60.4633 28.3544 60.3958 28.6919 60.2607 28.8945C60.1257 29.1645 59.8557 29.232 59.4506 29.232C58.978 29.232 58.573 28.962 58.1679 28.4219L54.1173 23.0211V27.5443C54.1173 28.6244 53.7123 29.1645 52.9696 29.1645C52.227 29.1645 51.822 28.6244 51.822 27.5443V20.6582C51.822 20.1857 51.8895 19.7806 52.092 19.5106C52.227 19.2405 52.4971 19.1055 52.9021 19.1055C53.1722 19.1055 53.3747 19.173 53.5772 19.308C53.7798 19.443 53.9148 19.6456 54.1173 19.8481L58.3029 25.3839V20.7257C58.3029 19.6456 58.708 19.1055 59.4506 19.1055C60.1932 19.1055 60.5983 19.6456 60.5983 20.7257V27.8818H60.4633Z" fill="#E44031"/>
<path d="M18.4714 17.4177C18.3364 17.0802 18.1338 16.8101 17.8638 16.5401C17.5938 16.2701 17.3237 16.0675 16.9187 15.9325C16.5811 15.7975 16.2436 15.73 15.8385 15.73H8.0073C7.60224 15.73 7.26469 15.7975 6.92714 15.9325C6.58959 16.0675 6.25204 16.2701 5.982 16.5401C5.71196 16.8101 5.50943 17.0802 5.37441 17.4177C5.23939 17.7553 5.17188 18.0928 5.17188 18.4979V29.7721C5.17188 30.1097 5.23939 30.5147 5.37441 30.8523C5.50943 31.1898 5.71196 31.4599 5.982 31.7299C6.25204 31.9999 6.52208 32.2025 6.92714 32.3375C7.26469 32.4725 7.60224 32.54 8.0073 32.54H15.8385C16.2436 32.54 16.5811 32.4725 16.9187 32.3375C17.2562 32.2025 17.5938 31.9999 17.8638 31.7299C18.1338 31.4599 18.3364 31.1898 18.4714 30.8523C18.6064 30.5147 18.6739 30.1772 18.6739 29.7721V18.4979C18.7414 18.0928 18.6739 17.7553 18.4714 17.4177ZM15.0959 27.2742C14.8933 27.6793 14.6908 28.0168 14.3533 28.2869C14.0157 28.5569 13.6107 28.827 13.2056 28.962C12.733 29.097 12.1929 29.232 11.6529 29.232C11.1803 29.232 10.7752 29.1645 10.4377 29.097C10.0326 29.0295 9.69506 28.8945 9.42502 28.7595C9.15498 28.6244 8.95245 28.4219 8.74992 28.2869C8.6149 28.0843 8.54739 27.8818 8.54739 27.6793C8.54739 27.4092 8.6149 27.1392 8.81743 27.0042C9.01996 26.8017 9.29 26.7341 9.62755 26.7341C9.89759 26.7341 10.2351 26.8017 10.6402 26.9367C11.0453 27.0717 11.4503 27.1392 11.9229 27.1392C12.2604 27.1392 12.5305 27.0717 12.733 26.8692C12.9355 26.6666 13.0706 26.4641 13.0706 26.1941C13.0706 25.789 12.9355 25.519 12.598 25.3164C12.328 25.1139 11.8554 24.9789 11.3828 24.8439C10.4377 24.5738 9.76257 24.2363 9.35751 23.8312C8.88494 23.4261 8.68241 22.8861 8.68241 22.1435C8.68241 21.7384 8.74992 21.3333 8.95245 20.9283C9.08747 20.5232 9.35751 20.2532 9.62755 19.9831C9.89759 19.7131 10.3027 19.5106 10.7077 19.308C11.1128 19.173 11.6529 19.1055 12.1254 19.1055C12.9355 19.1055 13.5431 19.2405 14.0157 19.5106C14.4883 19.7806 14.7583 20.1181 14.7583 20.5232C14.7583 20.7932 14.6908 21.0633 14.4883 21.1983C14.2858 21.3333 14.0832 21.4683 13.7457 21.4683C13.4756 21.4683 13.2056 21.4008 12.868 21.2658C12.598 21.1308 12.2604 21.0633 11.9904 21.0633C11.6529 21.0633 11.3828 21.1308 11.1803 21.2658C10.9778 21.4008 10.9102 21.6034 10.9102 21.8734C10.9102 22.211 11.0453 22.481 11.3828 22.5485C11.6529 22.6835 12.1254 22.8186 12.6655 23.0211C13.5431 23.2911 14.2182 23.6962 14.6908 24.1688C15.1634 24.6413 15.3659 25.2489 15.3659 25.9915C15.3659 26.4641 15.2984 26.8692 15.0959 27.2742Z" fill="#37AC55"/>
<path d="M33.2565 17.4177C33.1215 17.0802 32.919 16.8101 32.649 16.5401C32.3789 16.2701 32.1089 16.0675 31.7038 15.9325C31.3663 15.7975 31.0287 15.73 30.6236 15.73H22.7925C22.3874 15.73 22.0498 15.7975 21.7123 15.9325C21.3747 16.0675 21.0372 16.2701 20.7672 16.5401C20.4971 16.8101 20.2946 17.0802 20.1596 17.4177C20.0245 17.7553 19.957 18.0928 19.957 18.4979V29.7721C19.957 30.1097 20.0245 30.5147 20.1596 30.8523C20.2946 31.1898 20.4971 31.4599 20.7672 31.7299C21.0372 31.9999 21.3072 32.2025 21.7123 32.3375C22.0498 32.4725 22.3874 32.54 22.7925 32.54H30.6236C31.0287 32.54 31.3663 32.4725 31.7038 32.3375C32.0414 32.2025 32.3789 31.9999 32.649 31.7299C32.919 31.4599 33.1215 31.1898 33.2565 30.8523C33.3916 30.5147 33.4591 30.1772 33.4591 29.7721V18.4979C33.5266 18.0928 33.3916 17.7553 33.2565 17.4177ZM29.4085 24.9114C28.8009 25.519 27.9907 25.789 26.8431 25.789H25.2903V27.4768C25.2903 28.5569 24.8853 29.097 24.1427 29.097C23.4001 29.097 22.995 28.5569 22.995 27.4768V20.6582C22.995 20.1181 23.0625 19.7131 23.265 19.443C23.4676 19.173 23.8726 19.038 24.5477 19.038H26.573C27.7207 19.038 28.5983 19.3755 29.2734 19.9831C29.9485 20.5907 30.2186 21.4008 30.2186 22.4135C30.3536 23.4937 30.0161 24.3038 29.4085 24.9114Z" fill="#9BC230"/>
<path d="M26.4373 21.1984H25.4922V23.7638H26.4373C27.45 23.7638 27.9901 23.3587 27.9901 22.4811C27.9901 21.6709 27.45 21.1984 26.4373 21.1984Z" fill="#F5AE33"/>
<path d="M47.9733 17.4177C47.8383 17.0802 47.6358 16.8101 47.3658 16.5401C47.0957 16.2701 46.8257 16.0675 46.4206 15.9325C46.0831 15.7975 45.7455 15.73 45.3404 15.73H37.5093C37.1042 15.73 36.7666 15.7975 36.4291 15.9325C36.0915 16.0675 35.754 16.2701 35.484 16.5401C35.2139 16.8101 35.0114 17.0802 34.8764 17.4177C34.7413 17.7553 34.6738 18.0928 34.6738 18.4979V29.7721C34.6738 30.1097 34.7413 30.5147 34.8764 30.8523C35.0114 31.1898 35.2139 31.4599 35.484 31.7299C35.754 31.9999 36.024 32.2025 36.4291 32.3375C36.7666 32.4725 37.1042 32.54 37.5093 32.54H45.3404C45.7455 32.54 46.0831 32.4725 46.4206 32.3375C46.7582 32.2025 47.0957 31.9999 47.3658 31.7299C47.6358 31.4599 47.8383 31.1898 47.9733 30.8523C48.1084 30.5147 48.1759 30.1772 48.1759 29.7721V18.4979C48.1759 18.0928 48.1084 17.7553 47.9733 17.4177ZM42.505 27.6118C42.505 28.6919 42.1 29.232 41.3573 29.232C40.6147 29.232 40.2097 28.6919 40.2097 27.6118V20.6582C40.2097 19.5781 40.6147 19.038 41.3573 19.038C42.1 19.038 42.505 19.5781 42.505 20.6582V27.6118Z" fill="#E29F2F"/>
<path d="M77.4753 17.4177C77.3403 17.0802 77.1377 16.8101 76.8677 16.5401C76.5977 16.2701 76.3276 16.0675 75.9226 15.9325C75.585 15.7975 75.2475 15.73 74.8424 15.73H67.0112C66.6062 15.73 66.2686 15.7975 65.9311 15.9325C65.5935 16.0675 65.2559 16.2701 64.9859 16.5401C64.7159 16.8101 64.5133 17.0802 64.3783 17.4177C64.2433 17.7553 64.1758 18.0928 64.1758 18.4979V29.7721C64.1758 30.1097 64.2433 30.5147 64.3783 30.8523C64.5133 31.1898 64.7159 31.4599 64.9859 31.7299C65.2559 31.9999 65.526 32.2025 65.9311 32.3375C66.2686 32.4725 66.6062 32.54 67.0112 32.54H74.8424C75.2475 32.54 75.585 32.4725 75.9226 32.3375C76.2601 32.2025 76.5977 31.9999 76.8677 31.7299C77.1377 31.4599 77.3403 31.1898 77.4753 30.8523C77.6103 30.5147 77.6778 30.1772 77.6778 29.7721V18.4979C77.7453 18.0928 77.6103 17.7553 77.4753 17.4177ZM71.9395 27.6118C71.9395 28.6919 71.5344 29.232 70.7918 29.232C70.0492 29.232 69.6441 28.6919 69.6441 27.6118V20.6582C69.6441 19.5781 70.0492 19.038 70.7918 19.038C71.5344 19.038 71.9395 19.5781 71.9395 20.6582V27.6118Z" fill="#8B298F"/>
<path d="M92.2605 17.4177C92.1254 17.0802 91.9229 16.8101 91.6529 16.5401C91.5178 16.4051 91.3828 16.3376 91.2478 16.2026C90.7077 15.865 90.1001 15.6625 89.425 15.6625H81.9314C81.4588 15.6625 80.9862 15.73 80.5137 16C80.2436 16.135 79.9736 16.3376 79.7711 16.5401C79.501 16.8101 79.2985 17.0802 79.1635 17.4177C79.0284 17.7553 78.9609 18.0928 78.9609 18.4979V29.7721C78.9609 30.1097 79.0284 30.5147 79.1635 30.8523C79.2985 31.1898 79.501 31.4599 79.7711 31.7299C79.9736 31.9324 80.2436 32.135 80.5137 32.27C80.9187 32.4725 81.3913 32.6075 81.9314 32.6075H89.425C90.0326 32.6075 90.7077 32.4725 91.2478 32.0675C91.3828 31.9999 91.5178 31.8649 91.6529 31.7299C91.9229 31.4599 92.1254 31.1898 92.2605 30.8523C92.3955 30.5147 92.463 30.1772 92.463 29.7721V18.4979C92.463 18.0928 92.3955 17.7553 92.2605 17.4177ZM89.7626 28.8945C89.56 29.097 89.29 29.1645 88.9524 29.1645C88.4124 29.1645 88.0073 28.827 87.7373 28.0844L87.3997 26.9367H83.8892L83.4841 28.1519C83.2816 28.827 82.8765 29.1645 82.404 29.1645C82.0664 29.1645 81.8639 29.097 81.6613 28.8945C81.4588 28.6919 81.3913 28.4219 81.3913 28.1519C81.3913 27.9493 81.3913 27.6793 81.4588 27.4768L84.0242 20.5232C84.3618 19.5781 84.9693 19.038 85.7795 19.038C86.5896 19.038 87.1297 19.443 87.4672 20.3207L89.9651 27.4768C90.0326 27.6118 90.0326 27.7468 90.1001 27.8818C90.1001 28.0168 90.1676 28.0844 90.1676 28.2194C90.1001 28.4894 89.9651 28.6919 89.7626 28.8945Z" fill="#2377B1"/>
<path d="M85.7121 21.4009L84.5645 24.8439H86.7923L85.7121 21.4009Z" fill="#323792"/>
<path d="M26.4373 21.1984H25.4922V23.7638H26.4373C27.45 23.7638 27.9901 23.3587 27.9901 22.4811C28.0576 21.6709 27.5175 21.1984 26.4373 21.1984Z" fill="#9BC230"/>
<path d="M85.712 21.4009L84.6318 24.8439H86.8597L85.7795 21.4009H85.712Z" fill="#2377B1"/>
<g opacity="0.3">
<mask id="mask0_4516_59249" style="mask-type:luminance" maskUnits="userSpaceOnUse" x="-2" y="3" width="102" height="22">
<path d="M-1.17383 3.64563H99.2814V24.1012H-1.17383V3.64563Z" fill="white"/>
</mask>
<g mask="url(#mask0_4516_59249)">
<path d="M62.758 17.4177C62.6229 17.0802 62.4204 16.8101 62.1504 16.5401C61.8803 16.2701 61.6103 16.0675 61.2052 15.9325C60.8677 15.7975 60.5301 15.73 60.1251 15.73H52.2939C51.8888 15.73 51.5513 15.7975 51.2137 15.9325C50.8762 16.0675 50.5386 16.2701 50.2686 16.5401C49.9985 16.8101 49.796 17.0802 49.661 17.4177C49.526 17.7553 49.4585 18.0928 49.4585 18.4979V29.7721C49.4585 30.1097 49.526 30.5147 49.661 30.8523C49.796 31.1898 49.9985 31.4599 50.2686 31.7299C50.5386 31.9999 50.8087 32.2025 51.2137 32.3375C51.5513 32.4725 51.8888 32.54 52.2939 32.54H60.1251C60.5301 32.54 60.8677 32.4725 61.2052 32.3375C61.5428 32.2025 61.8803 31.9999 62.1504 31.7299C62.4204 31.4599 62.6229 31.1898 62.758 30.8523C62.893 30.5147 62.9605 30.1772 62.9605 29.7721V18.4979C63.028 18.0928 62.893 17.7553 62.758 17.4177ZM60.5301 27.8818C60.5301 28.3544 60.4626 28.6919 60.3276 28.8945C60.1926 29.1645 59.9225 29.232 59.5175 29.232C59.0449 29.232 58.6398 28.962 58.2348 28.4219L54.1842 23.0211V27.5443C54.1842 28.6244 53.7791 29.1645 53.0365 29.1645C52.2939 29.1645 51.8888 28.6244 51.8888 27.5443V20.6582C51.8888 20.1857 51.9563 19.7806 52.1589 19.5106C52.2939 19.2405 52.5639 19.1055 52.969 19.1055C53.239 19.1055 53.4416 19.173 53.6441 19.308C53.8466 19.443 53.9816 19.6456 54.1842 19.8481L58.3698 25.3839V20.7257C58.3698 19.6456 58.7749 19.1055 59.5175 19.1055C60.2601 19.1055 60.6651 19.6456 60.6651 20.7257V27.8818H60.5301ZM18.5388 17.4177C18.4038 17.0802 18.2012 16.8101 17.9312 16.5401C17.6611 16.2701 17.3911 16.0675 16.986 15.9325C16.6485 15.7975 16.3109 15.73 15.9059 15.73H8.07469C7.66963 15.73 7.33207 15.7975 6.99452 15.9325C6.65697 16.0675 6.31942 16.2701 6.04938 16.5401C5.77934 16.8101 5.57681 17.0802 5.44179 17.4177C5.30677 17.7553 5.23926 18.0928 5.23926 18.4979V29.7721C5.23926 30.1097 5.30677 30.5147 5.44179 30.8523C5.57681 31.1898 5.77934 31.4599 6.04938 31.7299C6.31942 31.9324 6.65697 32.135 6.99452 32.3375C7.33207 32.4725 7.66963 32.54 8.07469 32.54H15.9059C16.3109 32.54 16.6485 32.4725 16.986 32.3375C17.3236 32.2025 17.6611 31.9999 17.9312 31.7299C18.2012 31.4599 18.4038 31.1898 18.5388 30.8523C18.6738 30.5147 18.7413 30.1772 18.7413 29.7721V18.4979C18.7413 18.0928 18.6738 17.7553 18.5388 17.4177ZM15.1633 27.2742C14.9607 27.6793 14.7582 28.0168 14.4206 28.2869C14.0831 28.5569 13.678 28.827 13.273 28.962C12.8004 29.097 12.2603 29.232 11.7202 29.232C11.2477 29.232 10.8426 29.1645 10.5051 29.097C10.1 29.0295 9.76244 28.8945 9.4924 28.7595C9.22236 28.6244 9.01983 28.4219 8.8173 28.2869C8.68228 28.0844 8.61477 27.8818 8.61477 27.6793C8.61477 27.4093 8.68228 27.1392 8.88481 27.0042C9.08734 26.8017 9.35738 26.7342 9.69493 26.7342C9.96497 26.7342 10.3025 26.8017 10.7076 26.9367C11.1126 27.0717 11.5177 27.1392 11.9903 27.1392C12.3278 27.1392 12.5979 27.0717 12.8004 26.8692C13.0029 26.6666 13.138 26.4641 13.138 26.1941C13.138 25.789 13.0029 25.519 12.6654 25.3164C12.3953 25.1139 11.9228 24.9789 11.4502 24.8439C10.5051 24.5738 9.82995 24.2363 9.42489 23.8312C8.95232 23.4262 8.74979 22.8861 8.74979 22.1435C8.74979 21.7384 8.8173 21.3333 9.01983 20.9283C9.15485 20.5232 9.42489 20.2532 9.69493 19.9831C9.96497 19.7131 10.37 19.5106 10.7751 19.308C11.1802 19.173 11.7202 19.1055 12.1928 19.1055C13.0029 19.1055 13.6105 19.2405 14.0831 19.5106C14.5557 19.7806 14.8257 20.1181 14.8257 20.5232C14.8257 20.7933 14.7582 21.0633 14.5557 21.1983C14.3531 21.3333 14.1506 21.4684 13.8131 21.4684C13.543 21.4684 13.273 21.4008 12.9354 21.2658C12.6654 21.1308 12.3278 21.0633 12.0578 21.0633C11.7202 21.0633 11.4502 21.1308 11.2477 21.2658C11.0451 21.4008 10.9776 21.6034 10.9776 21.8734C10.9776 22.211 11.1126 22.481 11.4502 22.5485C11.7202 22.6835 12.1928 22.8186 12.7329 23.0211C13.6105 23.2911 14.2856 23.6962 14.7582 24.1688C15.2308 24.6413 15.4333 25.2489 15.4333 25.9915C15.4333 26.4641 15.3658 26.8692 15.1633 27.2742ZM33.3235 17.4177C33.1885 17.0802 32.986 16.8101 32.7159 16.5401C32.4459 16.2701 32.1758 16.0675 31.7708 15.9325C31.4332 15.7975 31.0957 15.73 30.6906 15.73H22.8594C22.4544 15.73 22.1168 15.7975 21.7793 15.9325C21.4417 16.0675 21.1042 16.2701 20.8341 16.5401C20.5641 16.8101 20.3615 17.0802 20.2265 17.4177C20.0915 17.7553 20.024 18.0928 20.024 18.4979V29.7721C20.024 30.1097 20.0915 30.5147 20.2265 30.8523C20.3615 31.1898 20.5641 31.4599 20.8341 31.7299C21.1042 31.9999 21.3742 32.2025 21.7793 32.3375C22.1168 32.4725 22.4544 32.54 22.8594 32.54H30.6906C31.0957 32.54 31.4332 32.4725 31.7708 32.3375C32.1083 32.2025 32.4459 31.9999 32.7159 31.7299C32.986 31.4599 33.1885 31.1898 33.3235 30.8523C33.4585 30.5147 33.526 30.1772 33.526 29.7721V18.4979C33.526 18.0928 33.4585 17.7553 33.3235 17.4177ZM29.4754 24.9114C28.8678 25.519 28.0577 25.789 26.91 25.789H25.3573V27.4768C25.3573 28.5569 24.9522 29.097 24.2096 29.097C23.467 29.097 23.062 28.5569 23.062 27.4768V20.6582C23.062 20.1181 23.1295 19.7131 23.332 19.443C23.5345 19.173 23.9396 19.038 24.6147 19.038H26.64C27.7877 19.038 28.6653 19.3755 29.3404 19.9831C30.0155 20.5907 30.2855 21.4008 30.2855 22.4135C30.3531 23.4937 30.083 24.3038 29.4754 24.9114ZM47.9732 17.4177C47.8382 17.0802 47.6357 16.8101 47.3656 16.5401C47.0956 16.2701 46.8256 16.0675 46.4205 15.9325C46.0829 15.7975 45.7454 15.73 45.3403 15.73H37.5091C37.1041 15.73 36.7665 15.7975 36.429 15.9325C36.0914 16.0675 35.7539 16.2701 35.4838 16.5401C35.2138 16.8101 35.0113 17.0802 34.8762 17.4177C34.7412 17.7553 34.6737 18.0928 34.6737 18.4979V29.7721C34.6737 30.1097 34.7412 30.5147 34.8762 30.8523C35.0113 31.1898 35.2138 31.4599 35.4838 31.7299C35.7539 31.9999 36.0239 32.2025 36.429 32.3375C36.7665 32.4725 37.1041 32.54 37.5091 32.54H45.3403C45.7454 32.54 46.0829 32.4725 46.4205 32.3375C46.758 32.2025 47.0956 31.9999 47.3656 31.7299C47.6357 31.4599 47.8382 31.1898 47.9732 30.8523C48.1082 30.5147 48.1758 30.1772 48.1758 29.7721V18.4979C48.2433 18.0928 48.1758 17.7553 47.9732 17.4177ZM42.5049 27.6118C42.5049 28.6919 42.0998 29.232 41.3572 29.232C40.6146 29.232 40.2095 28.6919 40.2095 27.6118V20.6582C40.2095 19.5781 40.6146 19.038 41.3572 19.038C42.0998 19.038 42.5049 19.5781 42.5049 20.6582V27.6118ZM77.5427 17.4177C77.4077 17.0802 77.2051 16.8101 76.9351 16.5401C76.6651 16.2701 76.395 16.0675 75.99 15.9325C75.6524 15.7975 75.3149 15.73 74.9098 15.73H67.0786C66.6736 15.73 66.336 15.7975 65.9985 15.9325C65.6609 16.0675 65.3233 16.2701 65.0533 16.5401C64.7833 16.8101 64.5807 17.0802 64.4457 17.4177C64.3107 17.7553 64.2432 18.0928 64.2432 18.4979V29.7721C64.2432 30.1097 64.3107 30.5147 64.4457 30.8523C64.5807 31.1898 64.7833 31.4599 65.0533 31.7299C65.3233 31.9999 65.5934 32.2025 65.9985 32.3375C66.336 32.4725 66.6736 32.54 67.0786 32.54H74.9098C75.3149 32.54 75.6524 32.4725 75.99 32.3375C76.3275 32.2025 76.6651 31.9999 76.9351 31.7299C77.2051 31.4599 77.4077 31.1898 77.5427 30.8523C77.6777 30.5147 77.7452 30.1772 77.7452 29.7721V18.4979C77.7452 18.0928 77.6777 17.7553 77.5427 17.4177ZM71.9393 27.6118C71.9393 28.6919 71.5343 29.232 70.7917 29.232C70.0491 29.232 69.644 28.6919 69.644 27.6118V20.6582C69.644 19.5781 70.0491 19.038 70.7917 19.038C71.5343 19.038 71.9393 19.5781 71.9393 20.6582V27.6118ZM92.2599 17.4177C92.1249 17.0802 91.9224 16.8101 91.6523 16.5401C91.5173 16.4051 91.3823 16.3376 91.2473 16.2026C90.7072 15.865 90.0996 15.6625 89.4245 15.6625H81.9309C81.4583 15.6625 80.9857 15.73 80.5132 16C80.2431 16.135 79.9731 16.3376 79.7705 16.5401C79.5005 16.8101 79.298 17.0802 79.1629 17.4177C79.0279 17.7553 78.9604 18.0928 78.9604 18.4979V29.7721C78.9604 30.1097 79.0279 30.5147 79.1629 30.8523C79.298 31.1898 79.5005 31.4599 79.7705 31.7299C79.9731 31.9324 80.2431 32.135 80.5132 32.27C80.9182 32.4725 81.3908 32.6075 81.9309 32.6075H89.4245C90.0321 32.6075 90.7072 32.4725 91.2473 32.0675C91.3823 31.9999 91.5173 31.8649 91.6523 31.7299C91.9224 31.4599 92.1249 31.1898 92.2599 30.8523C92.395 30.5147 92.4625 30.1772 92.4625 29.7721V18.4979C92.53 18.0928 92.4625 17.7553 92.2599 17.4177ZM89.7621 28.8945C89.5595 29.097 89.2895 29.1645 88.9519 29.1645C88.4118 29.1645 88.0068 28.827 87.7367 28.0844L87.3992 26.9367H83.9562L83.5511 28.1519C83.3486 28.827 82.9435 29.1645 82.4709 29.1645C82.1334 29.1645 81.9309 29.097 81.7283 28.8945C81.5258 28.6919 81.4583 28.4219 81.4583 28.1519C81.4583 27.9493 81.4583 27.6793 81.5258 27.4768L84.0912 20.5232C84.4287 19.5781 85.0363 19.038 85.8465 19.038C86.6566 19.038 87.1967 19.443 87.5342 20.3207L90.0321 27.4768C90.0996 27.6118 90.0996 27.7468 90.1671 27.8818C90.1671 28.0168 90.2346 28.0844 90.2346 28.2194C90.0996 28.4894 90.0321 28.6919 89.7621 28.8945Z" fill="white"/>
</g>
</g>
</g>
<defs>
<linearGradient id="paint0_linear_4516_59249" x1="25.301" y1="23.9902" x2="72.3873" y2="23.9902" gradientUnits="userSpaceOnUse">
<stop stop-color="#4F55A7"/>
<stop offset="0.27" stop-color="#5F55A6"/>
<stop offset="0.673" stop-color="#7154A5"/>
<stop offset="1" stop-color="#7654A4"/>
</linearGradient>
<clipPath id="clip0_4516_59249">
<rect width="95.662" height="48" fill="white" transform="translate(0.918945)"/>
</clipPath>
</defs>
</svg>
