<svg width="133" height="26" viewBox="0 0 133 26" fill="none" xmlns="http://www.w3.org/2000/svg">
<g clip-path="url(#clip0_4552_19338)">
<path d="M20.6491 17.226L25.5626 25.8374H15.6373L10.6719 17.226H20.6491Z" fill="url(#paint0_linear_4552_19338)"/>
<path d="M25.56 25.8386L30.5172 17.2273L20.5945 0.000488281H10.6719L25.56 25.8386Z" fill="#FF414C"/>
<path d="M5.71129 8.60938H15.634L5.71542 25.8362L0.75 17.2249L5.71129 8.60938Z" fill="#FF414C"/>
<path d="M55.0052 8.24525L54.7575 10.9067C53.6962 8.84057 51.2552 7.71997 48.6372 7.71997C43.7198 7.71997 40.4297 11.2569 40.4297 16.6848C40.4297 22.0778 43.4014 25.9999 48.6019 25.9999C51.432 25.9999 53.5193 24.6342 54.616 22.8482L54.899 25.5446H58.932V8.24525H55.0052ZM54.5453 16.8949C54.5453 20.0116 52.5995 22.1478 49.5924 22.1478C46.5853 22.1478 44.7457 19.9766 44.7457 16.8949C44.7457 13.8132 46.6207 11.607 49.6278 11.607C52.6349 11.607 54.5453 13.7782 54.5453 16.8949Z" fill="white"/>
<path d="M66.2758 25.5447V20.8872L68.8229 18.2608L73.3866 25.5447H78.3395L71.83 15.1091L78.481 8.24531H73.0682L66.2758 15.4943V0H61.9951V25.5447H66.2758Z" fill="white"/>
<path d="M92.8333 8.24525L92.5857 10.9067C91.5243 8.84057 89.0833 7.71997 86.4654 7.71997C81.5479 7.71997 78.2578 11.2569 78.2578 16.6848C78.2578 22.0778 81.2295 25.9999 86.43 25.9999C89.2602 25.9999 91.3474 24.6342 92.4441 22.8482L92.7272 25.5446H96.7602V8.24525H92.8333ZM92.3734 16.8949C92.3734 20.0116 90.4276 22.1478 87.4206 22.1478C84.4135 22.1478 82.5739 19.9766 82.5739 16.8949C82.5739 13.8132 84.4489 11.607 87.4559 11.607C90.463 11.607 92.3734 13.7782 92.3734 16.8949Z" fill="white"/>
<path d="M98.9443 20.2918C98.9443 23.6886 101.704 25.9999 106.055 25.9999C110.371 25.9999 113.378 23.8287 113.378 20.3268C113.378 17.6653 111.892 16.3346 108.956 15.6693L105.808 14.9339C104.322 14.5837 103.543 13.9533 103.543 12.9728C103.543 11.6771 104.534 10.9067 106.232 10.9067C107.895 10.9067 108.885 11.8522 108.921 13.323H113.025C112.989 9.96119 110.336 7.71997 106.409 7.71997C102.376 7.71997 99.475 9.75107 99.475 13.1479C99.475 15.9144 100.996 17.3852 104.145 18.0856L107.293 18.821C108.85 19.1712 109.31 19.8015 109.31 20.677C109.31 21.9377 108.213 22.7431 106.197 22.7431C104.216 22.7431 103.083 21.7976 103.048 20.2918H98.9443Z" fill="white"/>
<path d="M120.099 25.5447V16.0896C120.099 13.4982 121.691 11.6071 124.415 11.6071C126.608 11.6071 128.059 13.0079 128.059 15.9145V25.5447H132.375V14.8989C132.375 10.4165 130.111 7.72003 125.795 7.72003C123.283 7.72003 121.231 8.80562 120.134 10.4865V0H115.783V25.5447H120.099Z" fill="white"/>
</g>
<defs>
<linearGradient id="paint0_linear_4552_19338" x1="19.6569" y1="23.1801" x2="23.2929" y2="18.8168" gradientUnits="userSpaceOnUse">
<stop stop-color="#FF414C"/>
<stop offset="1" stop-color="#FF414C" stop-opacity="0"/>
</linearGradient>
<clipPath id="clip0_4552_19338">
<rect width="132" height="26" fill="white" transform="translate(0.75)"/>
</clipPath>
</defs>
</svg>
