<svg width="174" height="44" viewBox="0 0 174 44" fill="none" xmlns="http://www.w3.org/2000/svg">
<path d="M23.1118 25.3435L20.9789 31.1843C20.9159 31.3463 20.9159 31.5263 20.9789 31.6883L24.6418 41.7411L28.8807 39.2931L23.7958 25.3435C23.6788 25.0195 23.2288 25.0195 23.1118 25.3435Z" fill="white"/>
<path d="M27.3779 15.5157C27.2609 15.1917 26.8109 15.1917 26.6939 15.5157L24.5609 21.3566C24.4979 21.5186 24.4979 21.6986 24.5609 21.8606L30.5638 38.3212L34.8027 35.8732L27.3779 15.5157Z" fill="white"/>
<path d="M19.8451 2.72694C19.9531 2.72694 20.0521 2.75394 20.1511 2.80794L36.3147 12.1407C36.5037 12.2487 36.6207 12.4467 36.6207 12.6627V31.3283C36.6207 31.5443 36.5037 31.7423 36.3147 31.8503L20.1511 41.1921C20.0611 41.2461 19.9531 41.2731 19.8451 41.2731C19.7371 41.2731 19.6381 41.2461 19.5391 41.1921L3.38449 31.8593C3.1955 31.7513 3.0785 31.5533 3.0785 31.3373V12.6627C3.0785 12.4467 3.1955 12.2487 3.38449 12.1407L19.5481 2.80794C19.6381 2.75394 19.7461 2.72694 19.8451 2.72694ZM19.8451 0C19.2691 0 18.6931 0.152997 18.1802 0.44999L2.01652 9.78278C0.990548 10.3768 0.351562 11.4747 0.351562 12.6627V31.3283C0.351562 32.5163 0.990548 33.6232 2.01652 34.2172L18.1802 43.55C18.6931 43.847 19.2691 44 19.8451 44C20.4211 44 20.9971 43.847 21.5101 43.55L37.6737 34.2172C38.7087 33.6232 39.3387 32.5253 39.3387 31.3283V12.6627C39.3387 11.4747 38.6997 10.3678 37.6737 9.77378L21.5191 0.44999C20.9971 0.152997 20.4211 0 19.8451 0Z" fill="white"/>
<path d="M18.4865 11.3307H14.3916C14.0856 11.3307 13.8066 11.5197 13.7076 11.8077L4.92383 35.8911L9.16273 38.3391L18.8375 11.8167C18.9185 11.5827 18.7475 11.3307 18.4865 11.3307Z" fill="white"/>
<path d="M25.6594 11.3307H21.5645C21.2585 11.3307 20.9795 11.5197 20.8805 11.8077L10.8457 39.3111L15.0846 41.759L26.0014 11.8257C26.0914 11.5827 25.9114 11.3307 25.6594 11.3307Z" fill="white"/>
<path d="M56.7893 16.3436C57.1943 16.3436 57.5453 16.4246 57.8243 16.5956C58.1033 16.7666 58.3823 17.0906 58.6523 17.5766L63.9982 27.2784C64.0522 27.3864 64.0612 27.4764 64.0342 27.5484C64.0072 27.6204 63.9262 27.6564 63.8002 27.6564H61.7482C61.5682 27.6564 61.4422 27.5844 61.3792 27.4494L60.2363 25.3704H52.6494L51.5335 27.4494C51.4615 27.5934 51.3355 27.6564 51.1645 27.6564H49.0675C48.9235 27.6564 48.8425 27.6204 48.8155 27.5484C48.7885 27.4764 48.7975 27.3864 48.8515 27.2784L54.1524 17.5766C54.4224 17.0906 54.6834 16.7666 54.9444 16.5956C55.2054 16.4246 55.5024 16.3436 55.8444 16.3436H56.7893ZM53.6484 23.4805H59.2103L56.6453 18.7466C56.6003 18.6746 56.5463 18.6296 56.4654 18.6296H56.3664C56.2944 18.6296 56.2314 18.6656 56.1864 18.7466L53.6484 23.4805Z" fill="white"/>
<path d="M75.7438 16.3436C76.9858 16.3436 77.8678 16.6226 78.4078 17.1806C78.9477 17.7386 79.2177 18.5666 79.2177 19.6646V20.5825C79.2177 21.5095 79.0287 22.2385 78.6508 22.7785C78.2728 23.3185 77.6608 23.6605 76.8058 23.8135L79.5687 27.2334C79.6227 27.2874 79.6407 27.3684 79.6137 27.4764C79.5957 27.5844 79.5057 27.6384 79.3527 27.6384H77.2738C77.1298 27.6384 77.0398 27.6204 76.9858 27.5934C76.9318 27.5574 76.8778 27.5034 76.8238 27.4314L74.2679 24.0745H69.048V27.2874C69.048 27.5214 68.931 27.6384 68.697 27.6384H66.951C66.699 27.6384 66.582 27.5214 66.582 27.2874V16.8296C66.582 16.5056 66.744 16.3436 67.068 16.3436H75.7438ZM69.057 22.1125H75.2398C75.7888 22.1125 76.1758 21.9955 76.4008 21.7615C76.6258 21.5275 76.7428 21.1675 76.7428 20.6815V20.0065C76.7428 19.5206 76.6258 19.1606 76.4008 18.9266C76.1758 18.6926 75.7888 18.5756 75.2398 18.5756H69.264C69.12 18.5756 69.057 18.6386 69.057 18.7736V22.1125Z" fill="white"/>
<path d="M92.7254 16.3436C93.8324 16.3436 94.6243 16.5686 95.0923 17.0096C95.5603 17.4506 95.7943 18.1166 95.7943 19.0076V19.7815C95.7943 20.6815 95.4523 21.3655 94.7593 21.8335C95.4973 22.2655 95.8753 22.9585 95.8753 23.9125V24.8484C95.8753 25.2804 95.8303 25.6674 95.7313 26.0094C95.6323 26.3514 95.4793 26.6484 95.2543 26.8914C95.0293 27.1344 94.7413 27.3234 94.3723 27.4494C94.0033 27.5754 93.5534 27.6474 93.0134 27.6474H83.4196C83.0956 27.6474 82.9336 27.4854 82.9336 27.1614V16.8296C82.9336 16.5056 83.0956 16.3436 83.4196 16.3436H92.7254ZM85.4085 21.0415H92.0324C92.5724 21.0415 92.9324 20.9605 93.1304 20.7985C93.3284 20.6365 93.4184 20.4025 93.4184 20.0875V19.5386C93.4184 19.2056 93.3284 18.9626 93.1394 18.8006C92.9504 18.6476 92.6444 18.5666 92.2304 18.5666H85.6245C85.4805 18.5666 85.4175 18.6386 85.4175 18.7736V21.0415H85.4085ZM85.4085 22.8055V25.2084C85.4085 25.3524 85.4805 25.4154 85.6155 25.4154H92.2394C92.6714 25.4154 92.9774 25.3344 93.1574 25.1814C93.3374 25.0284 93.4364 24.7764 93.4364 24.4344V23.8225C93.4364 23.4895 93.3374 23.2375 93.1394 23.0665C92.9414 22.8955 92.5724 22.8055 92.0324 22.8055H85.4085Z" fill="white"/>
<path d="M101.896 16.3436C102.13 16.3436 102.247 16.4606 102.247 16.6946V27.2874C102.247 27.5214 102.13 27.6384 101.896 27.6384H100.15C99.8982 27.6384 99.7812 27.5214 99.7812 27.2874V16.7036C99.7812 16.4696 99.9072 16.3526 100.15 16.3526L101.896 16.3436Z" fill="white"/>
<path d="M118.816 16.3436C119.068 16.3436 119.185 16.4606 119.185 16.6946V18.2786C119.185 18.5306 119.059 18.6476 118.816 18.6476H113.749V27.2874C113.749 27.5214 113.632 27.6384 113.398 27.6384H111.635C111.401 27.6384 111.284 27.5214 111.284 27.2874V18.6476H106.217C105.965 18.6476 105.848 18.5216 105.848 18.2786V16.6946C105.848 16.4606 105.974 16.3436 106.217 16.3436H118.816Z" fill="white"/>
<path d="M131.588 16.3436C132.83 16.3436 133.712 16.6226 134.252 17.1806C134.792 17.7386 135.061 18.5666 135.061 19.6646V20.5825C135.061 21.5095 134.872 22.2385 134.495 22.7785C134.117 23.3185 133.505 23.6605 132.65 23.8135L135.412 27.2334C135.466 27.2874 135.484 27.3684 135.457 27.4764C135.439 27.5844 135.349 27.6384 135.196 27.6384H133.118C132.974 27.6384 132.884 27.6204 132.83 27.5934C132.776 27.5574 132.722 27.5034 132.668 27.4314L130.112 24.0745H124.892V27.2874C124.892 27.5214 124.775 27.6384 124.541 27.6384H122.795C122.543 27.6384 122.426 27.5214 122.426 27.2874V16.8296C122.426 16.5056 122.588 16.3436 122.912 16.3436H131.588ZM124.91 22.1125H131.093C131.642 22.1125 132.029 21.9955 132.254 21.7615C132.479 21.5275 132.596 21.1675 132.596 20.6815V20.0065C132.596 19.5206 132.479 19.1606 132.254 18.9266C132.029 18.6926 131.642 18.5756 131.093 18.5756H125.117C124.973 18.5756 124.91 18.6386 124.91 18.7736V22.1125Z" fill="white"/>
<path d="M140.667 16.3436C140.901 16.3436 141.018 16.4606 141.018 16.6946V23.1385C141.018 23.5705 141.054 23.9305 141.126 24.2094C141.198 24.4974 141.315 24.7224 141.477 24.8844C141.639 25.0554 141.855 25.1724 142.134 25.2354C142.413 25.3074 142.755 25.3434 143.178 25.3434H147.651C148.074 25.3434 148.416 25.3074 148.695 25.2354C148.974 25.1634 149.19 25.0464 149.352 24.8844C149.514 24.7134 149.631 24.4884 149.694 24.2094C149.757 23.9215 149.793 23.5705 149.793 23.1385V16.6946C149.793 16.4606 149.91 16.3436 150.144 16.3436H151.908C152.142 16.3436 152.259 16.4606 152.259 16.6946V23.3815C152.259 24.1554 152.178 24.8124 152.016 25.3614C151.854 25.9014 151.593 26.3424 151.233 26.6844C150.873 27.0264 150.405 27.2694 149.829 27.4224C149.253 27.5754 148.56 27.6474 147.741 27.6474H143.088C142.269 27.6474 141.576 27.5754 141.009 27.4224C140.442 27.2694 139.974 27.0264 139.614 26.6844C139.254 26.3424 138.993 25.9014 138.822 25.3614C138.651 24.8214 138.57 24.1554 138.57 23.3815V16.6946C138.57 16.4606 138.696 16.3436 138.939 16.3436H140.667Z" fill="white"/>
<path d="M159.199 16.3436C159.433 16.3436 159.64 16.3616 159.811 16.3886C159.982 16.4246 160.135 16.4786 160.261 16.5776C160.387 16.6676 160.504 16.7936 160.612 16.9466C160.711 17.0996 160.819 17.3066 160.927 17.5676L164.284 25.3164C164.329 25.4154 164.401 25.4604 164.509 25.4604H164.707C164.815 25.4604 164.887 25.4154 164.932 25.3164L168.289 17.5676C168.397 17.3066 168.505 17.0996 168.604 16.9466C168.703 16.7936 168.82 16.6676 168.955 16.5776C169.081 16.4876 169.234 16.4246 169.396 16.3886C169.567 16.3526 169.765 16.3436 169.999 16.3436H171.726C172.284 16.3436 172.662 16.4696 172.86 16.7216C173.058 16.9736 173.148 17.4056 173.148 18.0176V27.2874C173.148 27.5214 173.022 27.6384 172.779 27.6384H171.132C170.898 27.6384 170.781 27.5214 170.781 27.2874V18.8546C170.781 18.7466 170.736 18.6926 170.656 18.6926H170.511C170.403 18.6926 170.332 18.7376 170.305 18.8186L167.047 26.0544C166.921 26.3424 166.786 26.5944 166.651 26.7924C166.516 26.9904 166.372 27.1524 166.219 27.2874C166.066 27.4134 165.886 27.5124 165.688 27.5664C165.49 27.6204 165.256 27.6474 164.986 27.6474H164.212C163.942 27.6474 163.708 27.6204 163.51 27.5664C163.312 27.5124 163.132 27.4224 162.979 27.2874C162.826 27.1614 162.673 26.9904 162.547 26.7924C162.412 26.5944 162.277 26.3514 162.151 26.0544L158.893 18.8186C158.857 18.7286 158.794 18.6926 158.686 18.6926H158.542C158.452 18.6926 158.416 18.7466 158.416 18.8546V27.2874C158.416 27.5214 158.299 27.6384 158.065 27.6384H156.418C156.166 27.6384 156.049 27.5214 156.049 27.2874V18.0176C156.049 17.4056 156.148 16.9736 156.337 16.7216C156.535 16.4696 156.913 16.3436 157.48 16.3436H159.199Z" fill="white"/>
</svg>
