<svg width="339" height="73" viewBox="0 0 339 73" fill="none" xmlns="http://www.w3.org/2000/svg">
<path d="M309.844 26.1045H318.34L322.443 35.0045L330.071 26.1045H338.682L325.621 40.4947L332.903 55.0006H324.35L320.247 46.0428L312.618 55.0006H304.065L317.068 40.4947L309.844 26.1045Z" fill="black"/>
<path d="M296.233 55.0006H289.471L289.587 51.9954C288.469 53.0742 287.179 53.9218 285.714 54.5382C284.25 55.1162 282.767 55.4051 281.264 55.4051C279.03 55.4051 277.2 54.9235 275.774 53.9603C274.349 52.9971 273.366 51.6101 272.827 49.7993C272.326 47.9499 272.326 45.6768 272.827 42.9798L276.179 26.1045H283.634L280.455 42.0551C280.032 44.2512 280.147 45.9272 280.802 47.083C281.496 48.2004 282.729 48.759 284.501 48.759C286.312 48.759 287.795 48.1811 288.951 47.0253C290.145 45.8694 290.974 44.1934 291.436 41.9973L294.557 26.1045H301.954L296.233 55.0006Z" fill="black"/>
<path d="M254.611 26.1046L256.23 18.0137H263.743L262.124 26.1046H268.482L267.21 32.6351H260.795L258.484 44.3669C258.175 45.8695 258.272 46.929 258.773 47.5455C259.312 48.1619 260.063 48.4894 261.026 48.5279C262.028 48.5665 263.049 48.5087 264.089 48.3546L262.818 54.7117C260.93 55.097 259.158 55.2126 257.501 55.0585C255.883 54.9043 254.496 54.4613 253.34 53.7292C252.184 52.9587 251.375 51.8028 250.913 50.2617C250.489 48.7206 250.508 46.7556 250.971 44.3669L253.282 32.6351H249.237L250.508 26.1046H254.611Z" fill="black"/>
<path d="M227.532 55.4044C224.642 55.4044 222.099 54.7687 219.903 53.4973C217.707 52.2258 215.993 50.4535 214.76 48.1804C213.565 45.9072 212.968 43.2873 212.968 40.3206C212.968 37.4696 213.565 34.946 214.76 32.7499C215.954 30.5538 217.611 28.8393 219.73 27.6064C221.888 26.3349 224.334 25.6992 227.07 25.6992C229.844 25.6992 232.29 26.2964 234.409 27.4908C236.528 28.6851 238.166 30.3611 239.321 32.5187C240.516 34.6377 241.113 37.1228 241.113 39.9739C241.113 40.3977 241.075 40.8793 240.997 41.4187C240.959 41.9196 240.901 42.4589 240.824 43.0369H220.944C221.098 44.2698 221.483 45.3293 222.099 46.2154C222.754 47.0631 223.544 47.7373 224.469 48.2382C225.432 48.7005 226.511 48.9317 227.705 48.9317C229.131 48.9317 230.402 48.6427 231.52 48.0648C232.675 47.4483 233.504 46.6585 234.005 45.6953L240.593 47.6602C239.437 50.126 237.703 52.0332 235.392 53.3817C233.118 54.7302 230.499 55.4044 227.532 55.4044ZM233.022 37.6622C232.984 36.5834 232.695 35.6202 232.155 34.7726C231.616 33.8864 230.903 33.2122 230.017 32.7499C229.131 32.249 228.148 31.9986 227.07 31.9986C226.106 31.9986 225.201 32.249 224.353 32.7499C223.506 33.2507 222.774 33.925 222.157 34.7726C221.579 35.5817 221.194 36.5449 221.001 37.6622H233.022Z" fill="black"/>
<path d="M188.506 45.5797C188.737 46.5429 189.122 47.275 189.662 47.7758C190.239 48.2767 190.875 48.6427 191.569 48.8739C192.301 49.0665 193.033 49.1628 193.765 49.1628C195.113 49.1628 196.173 48.9124 196.943 48.4115C197.714 47.8721 198.099 47.1979 198.099 46.3888C198.099 45.6953 197.83 45.1559 197.29 44.7706C196.751 44.3468 196.057 44.0386 195.21 43.846C194.362 43.6148 193.495 43.3836 192.609 43.1525C191.569 42.8828 190.451 42.5938 189.257 42.2856C188.101 41.9388 187.003 41.4572 185.963 40.8408C184.923 40.2243 184.056 39.4345 183.362 38.4713C182.669 37.4696 182.322 36.2174 182.322 34.7148C182.322 32.9425 182.804 31.3821 183.767 30.0336C184.768 28.6851 186.136 27.6256 187.87 26.8551C189.642 26.0845 191.684 25.6992 193.996 25.6992C196.731 25.6992 199.043 26.2771 200.931 27.433C202.819 28.5888 204.187 30.2455 205.034 32.4031L198.504 34.2525C198.311 33.7131 197.984 33.27 197.521 32.9232C197.059 32.5765 196.5 32.3261 195.845 32.1719C195.229 32.0178 194.593 31.9408 193.938 31.9408C192.821 31.9408 191.896 32.1719 191.164 32.6343C190.432 33.0581 190.066 33.6553 190.066 34.4258C190.066 34.8882 190.201 35.2735 190.471 35.5817C190.74 35.8514 191.106 36.0825 191.569 36.2752C192.07 36.4678 192.628 36.6412 193.245 36.7953C193.9 36.9494 194.612 37.1228 195.383 37.3154C196.577 37.6237 197.772 37.9897 198.966 38.4135C200.199 38.7988 201.316 39.2996 202.318 39.9161C203.358 40.5325 204.187 41.3609 204.803 42.4012C205.42 43.4414 205.766 44.7514 205.843 46.331C205.843 48.0263 205.362 49.5674 204.399 50.9544C203.435 52.3029 202.048 53.3817 200.238 54.1908C198.427 54.9999 196.231 55.4044 193.649 55.4044C190.644 55.4044 188.082 54.7687 185.963 53.4973C183.882 52.2258 182.515 50.2416 181.86 47.5447L188.506 45.5797Z" fill="black"/>
<path d="M157.397 45.5797C157.628 46.5429 158.014 47.275 158.553 47.7758C159.131 48.2767 159.767 48.6427 160.46 48.8739C161.192 49.0665 161.924 49.1628 162.656 49.1628C164.005 49.1628 165.064 48.9124 165.835 48.4115C166.606 47.8721 166.991 47.1979 166.991 46.3888C166.991 45.6953 166.721 45.1559 166.182 44.7706C165.642 44.3468 164.949 44.0386 164.101 43.846C163.254 43.6148 162.387 43.3836 161.501 43.1525C160.46 42.8828 159.343 42.5938 158.149 42.2856C156.993 41.9388 155.895 41.4572 154.854 40.8408C153.814 40.2243 152.947 39.4345 152.254 38.4713C151.56 37.4696 151.214 36.2174 151.214 34.7148C151.214 32.9425 151.695 31.3821 152.658 30.0336C153.66 28.6851 155.028 27.6256 156.762 26.8551C158.534 26.0845 160.576 25.6992 162.888 25.6992C165.623 25.6992 167.935 26.2771 169.823 27.433C171.711 28.5888 173.078 30.2455 173.926 32.4031L167.395 34.2525C167.203 33.7131 166.875 33.27 166.413 32.9232C165.951 32.5765 165.392 32.3261 164.737 32.1719C164.12 32.0178 163.485 31.9408 162.83 31.9408C161.712 31.9408 160.788 32.1719 160.056 32.6343C159.324 33.0581 158.958 33.6553 158.958 34.4258C158.958 34.8882 159.093 35.2735 159.362 35.5817C159.632 35.8514 159.998 36.0825 160.46 36.2752C160.961 36.4678 161.52 36.6412 162.136 36.7953C162.791 36.9494 163.504 37.1228 164.275 37.3154C165.469 37.6237 166.663 37.9897 167.858 38.4135C169.091 38.7988 170.208 39.2996 171.21 39.9161C172.25 40.5325 173.078 41.3609 173.695 42.4012C174.311 43.4414 174.658 44.7514 174.735 46.331C174.735 48.0263 174.253 49.5674 173.29 50.9544C172.327 52.3029 170.94 53.3817 169.129 54.1908C167.318 54.9999 165.122 55.4044 162.541 55.4044C159.536 55.4044 156.974 54.7687 154.854 53.4973C152.774 52.2258 151.406 50.2416 150.751 47.5447L157.397 45.5797Z" fill="black"/>
<path d="M125.423 21.0764H123.343L111.438 55.0004H103.405L117.91 14.5459H130.798L145.304 55.0004H137.271L125.423 21.0764ZM112.189 39.1654H135.768V45.6959H112.189V39.1654Z" fill="black"/>
<path fill-rule="evenodd" clip-rule="evenodd" d="M34.8948 61.5583L43.1892 49.9545C47.7284 43.6041 46.2601 34.7763 39.9097 30.2371C36.251 27.6219 31.77 27.0008 27.7606 28.1585C21.6379 29.1548 13.9311 35.4577 10.7443 39.9161L2.44997 51.5199C-1.76809 57.421 -0.403718 65.6242 5.49738 69.8423C11.2769 73.9734 28.0703 69.6859 32.7226 63.9637C33.5202 63.2623 34.2507 62.4595 34.8948 61.5583ZM16.1462 37.7501C16.6301 37.4898 17.1308 37.2668 17.6438 37.0819C20.9697 35.8829 24.8099 36.2843 27.9037 38.4957C32.9062 42.0715 34.0628 49.0255 30.4871 54.028L22.1928 65.6318C21.3778 66.772 20.3873 67.7124 19.2844 68.4425C18.1169 69.2154 16.8235 69.7526 15.479 70.0418C12.521 70.6779 9.31577 70.1133 6.6604 68.2152C1.65791 64.6395 0.50131 57.6854 4.07705 52.683L12.3714 41.0791C13.3946 39.6476 14.6946 38.531 16.1462 37.7501Z" fill="url(#paint0_linear_21877_517011)"/>
<path fill-rule="evenodd" clip-rule="evenodd" d="M62.2072 70.949L74.3398 63.4082C80.5005 59.5792 82.3906 51.4809 78.5616 45.3203L54.2488 6.20257C50.4198 0.0419214 42.3215 -1.84823 36.1609 1.98079L24.0283 9.52158C17.8676 13.3506 15.9775 21.4488 19.8065 27.6095L20.8356 29.2653L22.1104 27.9905L21.2687 26.6361C18.0227 21.4136 19.625 14.5485 24.8475 11.3026C30.0701 8.05665 36.9351 9.65897 40.181 14.8815L64.3122 53.707C67.5582 58.9295 65.9559 65.7946 60.7334 69.0405C55.5108 72.2864 48.6458 70.6841 45.3999 65.4616L41.6586 59.4423L40.3838 60.7171L44.1193 66.7272C47.9483 72.8879 56.0465 74.778 62.2072 70.949Z" fill="url(#paint1_linear_21877_517011)"/>
<defs>
<linearGradient id="paint0_linear_21877_517011" x1="22.9128" y1="27.6006" x2="22.9128" y2="71.4858" gradientUnits="userSpaceOnUse">
<stop stop-color="#5E8BFF"/>
<stop offset="1" stop-color="#8172FF"/>
</linearGradient>
<linearGradient id="paint1_linear_21877_517011" x1="49.184" y1="0" x2="49.184" y2="72.9298" gradientUnits="userSpaceOnUse">
<stop stop-color="#5E8BFF"/>
<stop offset="1" stop-color="#8172FF"/>
</linearGradient>
</defs>
</svg>
