<svg width="173" height="36" viewBox="0 0 173 36" fill="none" xmlns="http://www.w3.org/2000/svg">
<g clip-path="url(#clip0_4553_31850)">
<mask id="mask0_4553_31850" style="mask-type:luminance" maskUnits="userSpaceOnUse" x="0" y="0" width="200" height="36">
<path d="M199.406 0H0.594727V36H199.406V0Z" fill="white"/>
</mask>
<g mask="url(#mask0_4553_31850)">
<path d="M27.5882 18.7412C28.1387 17.8035 29.5059 17.8035 30.0504 18.7412L35.9004 28.7352C36.4509 29.6729 35.7612 30.8405 34.6662 30.8405H22.9663C21.8713 30.8405 21.1876 29.6729 21.7321 28.7352L27.5821 18.7412H27.5882Z" fill="#FF394A"/>
<path d="M24.0544 12.0865C24.5868 11.1548 24.5868 10.0054 24.0544 9.06769L19.2571 0.701071C18.7187 -0.23662 17.3756 -0.23662 16.8373 0.701071L0.781516 28.729C0.2431 29.6667 0.914608 30.8403 1.99144 30.8403H11.5801C12.6509 30.8403 13.637 30.2656 14.1693 29.334L24.0484 12.0865H24.0544Z" fill="#FF394A"/>
<path d="M57.2378 28.5052V30.8403H55.8464C54.1827 30.8403 53.5596 30.1205 53.5354 28.8984C52.6885 30.1386 51.3697 30.9855 49.3854 30.9855C46.6268 30.9855 44.709 29.6183 44.709 27.259C44.709 24.6213 46.5723 23.1815 50.1052 23.1815H53.2632V22.4132C53.2632 20.9976 52.2469 20.1265 50.5045 20.1265C48.9377 20.1265 47.8972 20.8706 47.6975 21.9898H45.0357C45.3321 19.5276 47.4193 17.9607 50.6316 17.9607C53.844 17.9607 55.925 19.576 55.925 22.5826V27.6764C55.925 28.3237 56.1488 28.4992 56.7175 28.4992H57.2378V28.5052ZM53.2632 25.1718H49.9843C48.3449 25.1718 47.4253 25.795 47.4253 27.0835C47.4253 28.1543 48.3206 28.8984 49.7604 28.8984C51.9504 28.8984 53.2632 27.5796 53.2632 25.6679V25.1718Z" fill="#171717"/>
<path d="M63.0804 30.8404L58.2588 18.1119H61.1445L64.7745 27.9547L68.3795 18.1119H71.2109L66.3653 30.8404H63.0866H63.0804Z" fill="#171717"/>
<path d="M84.921 28.5052V30.8403H83.5295C81.8659 30.8403 81.2431 30.1205 81.2188 28.8984C80.3717 30.1386 79.0532 30.9855 77.0688 30.9855C74.3103 30.9855 72.3926 29.6183 72.3926 27.259C72.3926 24.6213 74.2555 23.1815 77.7888 23.1815H80.9466V22.4132C80.9466 20.9976 79.9302 20.1265 78.1881 20.1265C76.621 20.1265 75.5809 20.8706 75.381 21.9898H72.7189C73.0154 19.5276 75.1025 17.9607 78.3151 17.9607C81.5271 17.9607 83.6086 19.576 83.6086 22.5826V27.6764C83.6086 28.3237 83.8322 28.4992 84.4009 28.4992H84.921V28.5052ZM80.9404 25.1718H77.6618C76.0225 25.1718 75.1025 25.795 75.1025 27.0835C75.1025 28.1543 75.9982 28.8984 77.4376 28.8984C79.6281 28.8984 80.9404 27.5796 80.9404 25.6679V25.1718Z" fill="#171717"/>
<path d="M97.2135 28.4814V30.8408H86.875V28.4814H90.716V15.9708L86.875 17.2412V14.8698L90.1598 13.6115H93.4023V28.4875H97.2197L97.2135 28.4814Z" fill="#171717"/>
<path d="M111.533 28.5052V30.8403H110.141C108.478 30.8403 107.854 30.1205 107.831 28.8984C106.984 30.1386 105.665 30.9855 103.68 30.9855C100.922 30.9855 99.0039 29.6183 99.0039 27.259C99.0039 24.6213 100.867 23.1815 104.4 23.1815H107.559V22.4132C107.559 20.9976 106.542 20.1265 104.799 20.1265C103.233 20.1265 102.192 20.8706 101.993 21.9898H99.3309C99.6274 19.5276 101.714 17.9607 104.926 17.9607C108.139 17.9607 110.22 19.576 110.22 22.5826V27.6764C110.22 28.3237 110.444 28.4992 111.013 28.4992H111.533V28.5052ZM107.559 25.1718H104.279C102.64 25.1718 101.72 25.795 101.72 27.0835C101.72 28.1543 102.616 28.8984 104.056 28.8984C106.246 28.8984 107.559 27.5796 107.559 25.6679V25.1718Z" fill="#171717"/>
<path d="M125.908 23.5808V30.8403H123.197V23.8288C123.197 21.5663 122.23 20.3261 120.312 20.3261C118.298 20.3261 117.081 21.7901 117.081 24.2523V30.8403H114.396V18.1119H116.731L117.027 19.7756C117.796 18.7835 118.993 17.9607 120.929 17.9607C123.639 17.9607 125.902 19.4247 125.902 23.5808H125.908Z" fill="#171717"/>
<path d="M129.204 24.5004C129.204 20.5741 131.715 17.9607 135.544 17.9607C138.799 17.9607 140.838 19.7756 141.334 22.6612H138.527C138.176 21.167 137.111 20.2474 135.496 20.2474C133.361 20.2474 131.939 22.0139 131.939 24.5004C131.939 26.9867 133.354 28.6988 135.496 28.6988C137.087 28.6988 138.182 27.7551 138.503 26.285H141.334C140.862 29.1706 138.697 30.9855 135.466 30.9855C131.637 30.9855 129.198 28.4749 129.198 24.5004H129.204Z" fill="#171717"/>
<path d="M156.197 23.5809V30.8404H153.486V23.8047C153.486 21.6147 152.518 20.3262 150.528 20.3262C148.538 20.3262 147.249 21.8204 147.249 24.2281V30.8404H144.563V13.4417H147.249V19.7333C148.121 18.6383 149.439 17.9668 151.151 17.9668C154.134 17.9668 156.197 19.7333 156.197 23.5869V23.5809Z" fill="#171717"/>
<path d="M162.18 25.0995V25.2266C162.253 27.3863 163.596 28.808 165.683 28.808C167.274 28.808 168.49 27.9852 168.841 26.5696H171.527C171.079 29.0802 168.968 30.9919 165.834 30.9919C161.859 30.9919 159.373 28.4087 159.373 24.5066C159.373 20.6046 161.859 17.967 165.562 17.967C169.264 17.967 171.678 20.3022 171.751 24.0348C171.751 24.307 171.726 24.7305 171.678 25.1056H162.18V25.0995ZM162.277 23.085H168.962C168.738 21.1975 167.444 20.1267 165.58 20.1267C163.917 20.1267 162.47 21.2701 162.271 23.085H162.277Z" fill="#171717"/>
</g>
</g>
<defs>
<clipPath id="clip0_4553_31850">
<rect width="172.125" height="36" fill="white" transform="translate(0.1875)"/>
</clipPath>
</defs>
</svg>
