<svg width="173" height="36" viewBox="0 0 173 36" fill="none" xmlns="http://www.w3.org/2000/svg">
<g clip-path="url(#clip0_4553_31867)">
<mask id="mask0_4553_31867" style="mask-type:luminance" maskUnits="userSpaceOnUse" x="0" y="0" width="200" height="36">
<path d="M199.407 0H0.595703V36H199.407V0Z" fill="white"/>
</mask>
<g mask="url(#mask0_4553_31867)">
<path d="M27.5901 18.7412C28.1406 17.8035 29.5078 17.8035 30.0523 18.7412L35.9023 28.7352C36.4528 29.6729 35.7632 30.8405 34.6682 30.8405H22.9682C21.8732 30.8405 21.1896 29.6729 21.7341 28.7352L27.5841 18.7412H27.5901Z" fill="#FF394A"/>
<path d="M24.0564 12.0865C24.5887 11.1548 24.5887 10.0054 24.0564 9.06769L19.2591 0.701071C18.7206 -0.23662 17.3776 -0.23662 16.8392 0.701071L0.78347 28.729C0.245053 29.6667 0.916561 30.8403 1.99339 30.8403H11.582C12.6528 30.8403 13.6389 30.2656 14.1713 29.334L24.0504 12.0865H24.0564Z" fill="#FF394A"/>
<path d="M57.2397 28.5052V30.8403H55.8483C54.1847 30.8403 53.5616 30.1205 53.5374 28.8984C52.6904 30.1386 51.3716 30.9855 49.3873 30.9855C46.6287 30.9855 44.7109 29.6183 44.7109 27.259C44.7109 24.6213 46.5742 23.1815 50.1072 23.1815H53.2651V22.4132C53.2651 20.9976 52.2488 20.1265 50.5065 20.1265C48.9396 20.1265 47.8991 20.8706 47.6995 21.9898H45.0376C45.3341 19.5276 47.4212 17.9607 50.6336 17.9607C53.8459 17.9607 55.927 19.576 55.927 22.5826V27.6764C55.927 28.3237 56.1508 28.4992 56.7195 28.4992H57.2397V28.5052ZM53.2651 25.1718H49.9862C48.3468 25.1718 47.4273 25.795 47.4273 27.0835C47.4273 28.1543 48.3226 28.8984 49.7624 28.8984C51.9524 28.8984 53.2651 27.5796 53.2651 25.6679V25.1718Z" fill="white"/>
<path d="M63.0834 30.8404L58.2617 18.1119H61.1474L64.7775 27.9547L68.3824 18.1119H71.2139L66.3682 30.8404H63.0896H63.0834Z" fill="white"/>
<path d="M84.9229 28.5052V30.8403H83.5315C81.8679 30.8403 81.245 30.1205 81.2208 28.8984C80.3737 30.1386 79.0552 30.9855 77.0708 30.9855C74.3122 30.9855 72.3945 29.6183 72.3945 27.259C72.3945 24.6213 74.2574 23.1815 77.7908 23.1815H80.9486V22.4132C80.9486 20.9976 79.9321 20.1265 78.19 20.1265C76.623 20.1265 75.5828 20.8706 75.3829 21.9898H72.7209C73.0174 19.5276 75.1045 17.9607 78.3171 17.9607C81.5291 17.9607 83.6106 19.576 83.6106 22.5826V27.6764C83.6106 28.3237 83.8342 28.4992 84.4028 28.4992H84.9229V28.5052ZM80.9424 25.1718H77.6637C76.0244 25.1718 75.1045 25.795 75.1045 27.0835C75.1045 28.1543 76.0001 28.8984 77.4395 28.8984C79.63 28.8984 80.9424 27.5796 80.9424 25.6679V25.1718Z" fill="white"/>
<path d="M97.2154 28.4814V30.8408H86.877V28.4814H90.718V15.9708L86.877 17.2412V14.8698L90.1618 13.6115H93.4043V28.4875H97.2217L97.2154 28.4814Z" fill="white"/>
<path d="M111.535 28.5052V30.8403H110.143C108.48 30.8403 107.856 30.1205 107.833 28.8984C106.986 30.1386 105.666 30.9855 103.682 30.9855C100.924 30.9855 99.0059 29.6183 99.0059 27.259C99.0059 24.6213 100.869 23.1815 104.402 23.1815H107.561V22.4132C107.561 20.9976 106.544 20.1265 104.801 20.1265C103.235 20.1265 102.194 20.8706 101.995 21.9898H99.3328C99.6293 19.5276 101.716 17.9607 104.928 17.9607C108.141 17.9607 110.222 19.576 110.222 22.5826V27.6764C110.222 28.3237 110.446 28.4992 111.015 28.4992H111.535V28.5052ZM107.561 25.1718H104.281C102.642 25.1718 101.722 25.795 101.722 27.0835C101.722 28.1543 102.618 28.8984 104.058 28.8984C106.248 28.8984 107.561 27.5796 107.561 25.6679V25.1718Z" fill="white"/>
<path d="M125.909 23.5808V30.8403H123.198V23.8288C123.198 21.5663 122.231 20.3261 120.313 20.3261C118.299 20.3261 117.082 21.7901 117.082 24.2523V30.8403H114.396V18.1119H116.732L117.028 19.7756C117.797 18.7835 118.994 17.9607 120.93 17.9607C123.64 17.9607 125.903 19.4247 125.903 23.5808H125.909Z" fill="white"/>
<path d="M129.205 24.5004C129.205 20.5741 131.716 17.9607 135.545 17.9607C138.8 17.9607 140.839 19.7756 141.335 22.6612H138.528C138.177 21.167 137.112 20.2474 135.497 20.2474C133.362 20.2474 131.94 22.0139 131.94 24.5004C131.94 26.9867 133.355 28.6988 135.497 28.6988C137.088 28.6988 138.183 27.7551 138.504 26.285H141.335C140.863 29.1706 138.697 30.9855 135.467 30.9855C131.638 30.9855 129.199 28.4749 129.199 24.5004H129.205Z" fill="white"/>
<path d="M156.2 23.5809V30.8404H153.489V23.8047C153.489 21.6147 152.521 20.3262 150.531 20.3262C148.541 20.3262 147.252 21.8204 147.252 24.2281V30.8404H144.566V13.4417H147.252V19.7333C148.123 18.6383 149.442 17.9668 151.154 17.9668C154.137 17.9668 156.2 19.7333 156.2 23.5869V23.5809Z" fill="white"/>
<path d="M162.182 25.0995V25.2266C162.255 27.3863 163.598 28.808 165.685 28.808C167.276 28.808 168.492 27.9852 168.843 26.5696H171.529C171.081 29.0802 168.97 30.9919 165.836 30.9919C161.861 30.9919 159.375 28.4087 159.375 24.5066C159.375 20.6046 161.861 17.967 165.564 17.967C169.266 17.967 171.68 20.3022 171.753 24.0348C171.753 24.307 171.728 24.7305 171.68 25.1056H162.182V25.0995ZM162.279 23.085H168.964C168.74 21.1975 167.446 20.1267 165.582 20.1267C163.919 20.1267 162.472 21.2701 162.273 23.085H162.279Z" fill="white"/>
</g>
</g>
<defs>
<clipPath id="clip0_4553_31867">
<rect width="172.125" height="36" fill="white" transform="translate(0.1875)"/>
</clipPath>
</defs>
</svg>
