<svg width="170" height="34" viewBox="0 0 170 34" fill="none" xmlns="http://www.w3.org/2000/svg">
<g clip-path="url(#clip0_24_26)">
<mask id="mask0_24_26" style="mask-type:luminance" maskUnits="userSpaceOnUse" x="16" y="0" width="129" height="33">
<path d="M145 0H16V33H145V0Z" fill="white"/>
</mask>
<g mask="url(#mask0_24_26)">
<path d="M55.118 30.2836V2.71642H64.1274C67.115 2.71642 69.3646 3.33614 70.8715 4.57558C72.378 5.80985 73.1315 7.64317 73.1315 10.0756C73.1315 11.3615 72.7704 12.508 72.0325 13.4943C71.305 14.4911 70.309 15.2605 69.0449 15.8028C70.536 16.216 71.7125 17.0113 72.5795 18.1732C73.4464 19.3455 73.8695 20.7347 73.8695 22.3408C73.8695 24.8146 73.0695 26.7563 71.4649 28.1662C69.8651 29.5812 67.6051 30.2836 64.6795 30.2836H55.118ZM58.7559 17.4502V27.2986H64.7465C66.439 27.2986 67.7755 26.8648 68.7506 25.992C69.726 25.1192 70.216 23.9159 70.216 22.3925C70.216 19.0976 68.4154 17.4502 64.8034 17.4502H58.7559ZM58.7559 14.4652H64.2356C65.825 14.4652 67.0944 14.0624 68.054 13.2671C69.0035 12.4718 69.4835 11.3976 69.4835 10.0343C69.4835 8.51595 69.0395 7.41594 68.1574 6.7291C67.275 6.03708 65.928 5.69624 64.1274 5.69624H58.7559V14.4652ZM94.4424 23.0742H82.8941L80.304 30.2887H76.5579L87.079 2.71642H90.2575L100.794 30.2887H97.0689L94.4424 23.0742ZM83.9985 20.0892H93.369L88.6735 7.2042L83.9985 20.0892ZM112.621 17.9976C109.51 17.0991 107.244 15.9939 105.82 14.6873C104.401 13.3807 103.689 11.7643 103.689 9.84835C103.689 7.67934 104.561 5.88215 106.29 4.45678C108.029 3.03661 110.278 2.32393 113.049 2.32393C114.943 2.32393 116.635 2.6906 118.111 3.42392C119.597 4.15211 120.738 5.1643 121.553 6.45537C122.368 7.7413 122.776 9.15117 122.776 10.6746H119.128C119.128 9.00654 118.596 7.69483 117.538 6.73941C116.481 5.78918 114.979 5.30889 113.049 5.30889C111.259 5.30889 109.866 5.70139 108.865 6.49154C107.858 7.28684 107.358 8.37651 107.358 9.7812C107.358 10.907 107.827 11.8624 108.787 12.6371C109.737 13.4117 111.357 14.1244 113.648 14.7699C115.934 15.4155 117.729 16.1281 119.019 16.9028C120.309 17.6775 121.269 18.5812 121.894 19.6244C122.518 20.6573 122.827 21.8812 122.827 23.2807C122.827 25.5169 121.955 27.3089 120.217 28.6516C118.472 29.9943 116.15 30.6657 113.235 30.6657C111.341 30.6657 109.571 30.3042 107.936 29.5812C106.3 28.853 105.036 27.8563 104.143 26.5962C103.25 25.3361 102.812 23.9005 102.812 22.2995H106.46C106.46 23.9624 107.074 25.2742 108.307 26.2347C109.535 27.1953 111.176 27.6807 113.235 27.6807C115.155 27.6807 116.62 27.2882 117.642 26.5033C118.669 25.7235 119.179 24.6544 119.179 23.3117C119.179 21.9587 118.699 20.9155 117.76 20.177C116.826 19.4488 115.108 18.7155 112.621 17.9976ZM143.07 17.5638H131.135V27.2986H145V30.2836H127.502V2.71642H144.814V5.70139H131.135V14.5789H143.07V17.5638Z" fill="white"/>
<path d="M32.4243 33C41.5265 33 48.9105 25.615 48.9105 16.5C48.9105 7.39015 41.5317 0 32.4243 0C23.7916 0 16.7018 6.65166 16 15.1108H37.7855V17.884H16C16.7018 26.3483 23.7916 33 32.4243 33Z" fill="white"/>
</g>
</g>
<defs>
<clipPath id="clip0_24_26">
<rect width="129" height="33" fill="white" transform="translate(16)"/>
</clipPath>
</defs>
</svg>
