<svg width="183" height="32" viewBox="0 0 183 32" fill="none" xmlns="http://www.w3.org/2000/svg">
<g clip-path="url(#clip0_4552_19380)">
<path d="M5.96955 4.93485L14.498 0L23.0265 4.93485L19.8265 6.6697L14.498 3.60091L9.03105 6.6697L5.96955 4.93485ZM22.8953 11.0651L19.8265 9.3303L14.498 12.3991L9.03105 9.3303L5.96226 11.0651V14.6661L11.298 17.7349V24.0036L14.3668 25.8697L17.4356 24.0036V17.8733L22.7714 14.8046V11.0724H22.8953V11.0651ZM22.8953 20.9349V17.3339L19.8265 19.2V22.6624L22.8953 20.9349ZM25.1623 22.1303L19.8338 25.1991V28.8L28.3696 23.8651V14.0027L25.1696 16L25.1623 22.1303ZM22.0935 8.00364L25.1623 9.8697V13.4706L28.2311 11.6046V8.00364L25.1623 6.13759L22.0935 8.00364ZM11.298 26.533V30.1339L14.3668 32L17.4356 30.1339V26.533L14.3668 28.3991L11.298 26.533ZM5.96226 20.9349L9.03105 22.6697V19.0688L5.96226 17.2027V20.9349ZM11.298 8.00364L14.3668 9.8697L17.5668 8.00364L14.498 6.13759L11.298 8.00364ZM3.70258 9.8697L6.90258 8.00364L3.70258 6.13759L0.633789 8.00364V11.6046L3.70258 13.4706V9.8697ZM3.70258 16L0.633789 14.1339V23.9964L9.16955 28.9312V25.3303L3.83379 22.2615V15.9927L3.70258 16Z" fill="white"/>
<path d="M52.8912 20.133C52.8912 17.7348 51.5572 16.5321 49.56 15.7303C50.8939 15.0669 51.9582 13.8642 51.9582 11.8669C51.9582 9.06784 49.6912 7.20178 46.0903 7.20178H37.8242V25.0678H46.3527C50.2233 24.9293 52.8912 23.333 52.8912 20.133ZM47.9563 12.5303C47.9563 13.8642 46.8921 14.3963 45.1572 14.3963H41.5563V10.533H45.4197C47.1618 10.533 47.9563 11.2036 47.9563 12.5303ZM49.0279 19.6009C49.0279 20.9348 47.9636 21.5981 46.2288 21.5981H41.5636V17.7348H46.0976C48.0948 17.5963 49.0279 18.3981 49.0279 19.6009Z" fill="white"/>
<path d="M72.2219 24.9293V7.20178H68.3512V18.1357L59.954 7.20178H56.3604V25.0678H60.2237V13.733L68.8906 25.0678H72.2219V24.9293Z" fill="white"/>
<path d="M91.816 20.133C91.816 17.7348 90.4821 16.5321 88.4848 15.7303C89.8187 15.0669 90.883 13.8642 90.883 11.8669C90.883 9.06784 88.616 7.20178 85.0151 7.20178H76.749V25.0678H85.2775C89.1481 24.9293 91.816 23.333 91.816 20.133ZM87.0196 12.5303C87.0196 13.8642 85.9554 14.3963 84.2206 14.3963H80.6196V10.533H84.483C86.0866 10.533 87.0196 11.2036 87.0196 12.5303ZM87.9527 19.6009C87.9527 20.9348 86.8884 21.5981 85.1536 21.5981H80.4884V17.7348H85.0224C87.0196 17.5963 87.9527 18.3981 87.9527 19.6009Z" fill="white"/>
<path d="M115.411 21.8679L113.414 19.8706C111.948 21.3358 110.483 22.1376 108.348 22.1376C104.878 22.1376 102.48 19.3385 102.48 15.7376C102.48 12.2679 105.016 9.47607 108.348 9.47607C110.345 9.47607 111.948 10.4091 113.282 11.743L115.28 9.34486C113.545 7.74851 111.548 6.54578 108.348 6.54578C103.012 6.54578 99.1484 10.6788 99.1484 15.7449C99.1484 20.9421 103.012 24.944 108.216 24.944C111.548 24.9294 113.545 23.7339 115.411 21.8679Z" fill="white"/>
<path d="M130.609 17.2027V24.667H133.678V6.8009H130.609V14.2651H122.081V6.8009H119.012V24.667H122.081V17.2027H130.609Z" fill="white"/>
<path d="M147.804 6.8009H144.874L137.009 24.7982H140.209L142.075 20.5339H150.472L152.338 24.7982H155.669L147.804 6.8009ZM149.408 17.5963H143.278L146.346 10.533L149.408 17.5963Z" fill="white"/>
<path d="M159.14 6.8009V24.667H162.201V6.8009H159.14Z" fill="white"/>
<path d="M179.666 19.2L170.066 6.93211H167.267V24.7982H170.335V11.9982L180.198 24.667H182.866V6.8009H179.797V19.2H179.666Z" fill="white"/>
</g>
<defs>
<clipPath id="clip0_4552_19380">
<rect width="182.232" height="32" fill="white" transform="translate(0.633789)"/>
</clipPath>
</defs>
</svg>
