<svg width="160" height="32" viewBox="0 0 160 32" fill="none" xmlns="http://www.w3.org/2000/svg">
<g clip-path="url(#clip0_4552_19351)">
<path d="M16.9886 30.9494C17.0188 30.4211 17.4714 30.0172 17.9997 30.0473C18.2535 30.0617 18.4912 30.1764 18.6604 30.3662C18.8297 30.5559 18.9165 30.8052 18.9019 31.059C18.8716 31.5872 18.4188 31.9909 17.8905 31.9606C17.3622 31.9304 16.9585 31.4777 16.9886 30.9494ZM9.14058 29.9125C9.36888 29.5647 9.83586 29.4678 10.1837 29.6961C10.3508 29.8057 10.4675 29.9773 10.508 30.173C10.5486 30.3687 10.5097 30.5725 10.4 30.7396C10.1716 31.0873 9.70458 31.184 9.35684 30.9556C9.00911 30.7273 8.91229 30.2603 9.14058 29.9125ZM25.9735 29.6172C26.1518 29.5269 26.3587 29.5113 26.5486 29.5739C26.7384 29.6365 26.8955 29.772 26.9852 29.9506C27.1224 30.2226 27.0823 30.5506 26.8834 30.7815C26.6846 31.0124 26.3662 31.1008 26.0768 31.0054C25.7874 30.91 25.5839 30.6497 25.5613 30.3458C25.5387 30.0419 25.7014 29.7543 25.9735 29.6172ZM10.9598 25.9258C11.3116 25.3885 12.0323 25.238 12.5697 25.5895C13.107 25.9419 13.2574 26.6629 12.9057 27.2006C12.5535 27.7377 11.8328 27.8877 11.2956 27.5358C10.7584 27.1838 10.6081 26.4631 10.9598 25.9258ZM23.6104 25.4966C23.8852 25.3564 24.2045 25.3313 24.4979 25.4268C24.7913 25.5223 25.0347 25.7305 25.1744 26.0057C25.3886 26.4254 25.3287 26.9328 25.0227 27.2911C24.7167 27.6495 24.225 27.7881 23.7769 27.6422C23.3288 27.4964 23.0128 27.0949 22.9763 26.6251C22.9409 26.1677 23.1772 25.7333 23.5776 25.514L23.6104 25.4966ZM16.6953 24.7861C16.9376 24.2876 17.4566 23.9843 18.0099 24.0179C18.7629 24.063 19.3373 24.7092 19.2939 25.4623C19.2625 26.0157 18.9005 26.4956 18.377 26.6778C17.8535 26.8601 17.2718 26.7087 16.9035 26.2944C16.5352 25.8801 16.453 25.2847 16.6953 24.7861ZM4.58444 22.6665C4.81139 22.5518 5.07462 22.532 5.31617 22.6115C5.55771 22.691 5.75776 22.8632 5.87226 23.0902C6.1105 23.5627 5.92073 24.1388 5.44837 24.3772C4.976 24.6156 4.39983 24.426 4.16131 23.9537C3.92766 23.491 4.10466 22.9286 4.55588 22.6815L4.58444 22.6665ZM30.2361 22.939C30.5261 22.4965 31.1199 22.3728 31.5626 22.6627C31.7753 22.802 31.9239 23.0201 31.9757 23.2691C32.0275 23.518 31.9782 23.7773 31.8387 23.9899C31.5484 24.4323 30.9546 24.5557 30.5121 24.2656C30.0696 23.9754 29.9461 23.3816 30.2361 22.939ZM14.1694 18.6893C15.1075 18.1829 16.2697 18.3782 16.9908 19.1634C17.7119 19.9486 17.8077 21.1232 17.2234 22.0149C16.7942 22.6738 16.0602 23.07 15.2739 23.0674C14.2078 23.0666 13.2784 22.3419 13.0176 21.3082C12.7568 20.2745 13.2312 19.1957 14.1694 18.6893ZM20.0528 18.5141C21.1444 18.1628 22.3292 18.6584 22.8456 19.6823C23.4205 20.8295 22.9597 22.2257 21.8148 22.8052C21.4897 22.9701 21.1307 23.0572 20.7662 23.0597C19.6195 23.0597 18.6434 22.2249 18.4656 21.092C18.2878 19.9592 18.9612 18.8655 20.0528 18.5141ZM8.8388 19.8073C9.20017 19.3875 9.77882 19.2268 10.3049 19.4001C10.8309 19.5734 11.2008 20.0466 11.242 20.5989C11.2831 21.1512 10.9875 21.674 10.4929 21.9233C9.81784 22.2637 8.99469 21.9925 8.65406 21.3176C8.40451 20.8231 8.47743 20.227 8.8388 19.8073ZM25.0191 19.9127C25.4341 19.2805 26.283 19.1045 26.9152 19.5195C27.5461 19.9353 27.7219 20.7831 27.3084 21.4156C26.8934 22.0477 26.0445 22.2238 25.4123 21.8088C24.7802 21.3938 24.6041 20.5449 25.0191 19.9127ZM10.1875 15.8621C10.2603 14.5958 11.3331 13.6206 12.6007 13.6687C13.8682 13.7167 14.8641 14.7704 14.8408 16.0386C14.8177 17.2926 13.8065 18.3003 12.5577 18.3241L12.515 18.3245H12.3877C11.116 18.2502 10.1416 17.1709 10.1918 15.9032L10.1939 15.8609L10.1875 15.8621ZM21.1741 15.8361C21.2479 14.5517 22.3489 13.5703 23.6333 13.6441C24.2495 13.6757 24.8273 13.9536 25.2367 14.4152C25.8481 15.0998 26.0004 16.0796 25.6256 16.9175C25.2572 17.7408 24.4473 18.2761 23.5483 18.2948L23.5009 18.2953H23.3661C22.0817 18.2215 21.1003 17.1204 21.1741 15.8361ZM4.64676 15.942C4.68317 15.3008 5.23234 14.8105 5.87353 14.8466C6.51503 14.8835 7.00537 15.4331 6.9692 16.0747C6.93235 16.7158 6.38283 17.2058 5.74166 17.1691C5.1005 17.1325 4.61036 16.5832 4.64676 15.942ZM29.0517 15.8893C29.0884 15.2482 29.6377 14.758 30.2789 14.7944C30.9201 14.8308 31.4104 15.38 31.3742 16.0212C31.3373 16.6627 30.7878 17.153 30.1462 17.1169C29.5051 17.08 29.0151 16.5305 29.0517 15.8893ZM1.48178 15.2693L1.50995 15.2704C1.70942 15.2812 1.89636 15.3711 2.02938 15.5201C2.16241 15.6692 2.23057 15.8651 2.21876 16.0645C2.19493 16.479 1.83967 16.7958 1.42513 16.7722C1.01059 16.7485 0.693625 16.3935 0.717038 15.9789C0.739919 15.5738 1.07942 15.2617 1.48178 15.2693ZM34.5649 15.1916L34.5963 15.1928C35.0114 15.2174 35.3283 15.573 35.3051 15.9881C35.2877 16.2923 35.0886 16.556 34.8009 16.6563C34.5132 16.7565 34.1934 16.6736 33.9906 16.4461C33.7879 16.2186 33.7422 15.8914 33.8747 15.6171C34.0028 15.3522 34.2727 15.1869 34.5649 15.1916ZM15.2535 8.90758C16.1325 8.90343 16.9384 9.39604 17.3354 10.1802C17.7011 10.9026 17.6656 11.7631 17.2416 12.4528C16.8175 13.1426 16.0658 13.5628 15.2561 13.5627C14.3751 13.5654 13.5685 13.069 13.1742 12.2812C12.8127 11.5595 12.8505 10.7022 13.274 10.0151C13.6975 9.32799 14.4464 8.90901 15.2535 8.90758ZM20.7471 8.89109C21.8131 8.89246 22.7421 9.61743 23.0024 10.6511C23.2627 11.6848 22.788 12.7633 21.8498 13.2694C20.9116 13.7755 19.7496 13.58 19.0287 12.7948C18.3078 12.0096 18.2121 10.8351 18.7963 9.94349C19.2276 9.28622 19.961 8.89055 20.7471 8.89109ZM8.71133 10.5467C9.12599 9.91434 9.97473 9.73784 10.6071 10.1524C11.2395 10.567 11.4161 11.4158 11.0015 12.0482C10.587 12.6806 9.73828 12.8573 9.10582 12.4428C8.80175 12.2439 8.58929 11.9323 8.51528 11.5766C8.44128 11.2209 8.51181 10.8503 8.71133 10.5467ZM25.5294 10.0389C25.8537 9.87524 26.2297 9.84723 26.5747 9.9611C26.9196 10.075 27.2051 10.3214 27.3682 10.6459C27.7084 11.3213 27.4366 12.1446 26.7612 12.4848C26.0858 12.8249 25.2625 12.5532 24.9224 11.8778C24.5822 11.2024 24.854 10.3791 25.5294 10.0389ZM4.18231 7.97358C4.39487 7.64935 4.78186 7.48516 5.16272 7.55759C5.54358 7.63003 5.84327 7.92483 5.92197 8.30445C6.00066 8.68407 5.84285 9.07371 5.52216 9.29157C5.20148 9.50944 4.78111 9.5126 4.45718 9.29958C4.01545 9.00909 3.89244 8.41573 4.18231 7.97358ZM30.5727 7.58566C31.0453 7.34779 31.6212 7.53786 31.8593 8.01027C32.0974 8.48269 31.9076 9.05869 31.4353 9.29704C30.9623 9.53496 30.386 9.34474 30.1475 8.872C29.9098 8.39935 30.1002 7.82354 30.5727 7.58566ZM16.6215 6.49996C16.6649 5.74522 17.3117 5.16841 18.0664 5.21141C18.8212 5.25441 19.3983 5.90095 19.3556 6.65573C19.313 7.41051 18.6667 7.9879 17.9119 7.94559C17.1565 7.90253 16.5788 7.25542 16.6215 6.49996ZM11.3622 4.38841C11.9358 4.09943 12.635 4.33004 12.9241 4.90354C13.2132 5.47705 12.9828 6.17634 12.4094 6.46561C12.1338 6.6046 11.8143 6.62839 11.5212 6.53172C11.2281 6.43506 10.9855 6.22587 10.8467 5.95022C10.5578 5.37658 10.7886 4.67739 11.3622 4.38841ZM23.1115 4.76166C23.4633 4.2235 24.1847 4.07229 24.723 4.42388C25.2612 4.77548 25.4127 5.4968 25.0612 6.03519C24.7098 6.57357 23.9885 6.72524 23.45 6.37398C23.191 6.20539 23.0096 5.9406 22.9461 5.63808C22.8826 5.33556 22.9421 5.02021 23.1115 4.76166ZM9.36288 1.00226C9.73342 0.815407 10.1853 0.963395 10.3735 1.33324C10.5617 1.70309 10.4154 2.15551 10.0462 2.34508C9.86716 2.43665 9.65894 2.45295 9.46779 2.39035C9.27665 2.32775 9.11841 2.19144 9.02819 2.01167C8.8427 1.64045 8.99234 1.18912 9.36288 1.00226ZM25.6197 1.22396C25.7865 0.968827 26.0906 0.839313 26.3901 0.895838C26.6896 0.952363 26.9255 1.18379 26.9878 1.48215C27.0501 1.78051 26.9265 2.08701 26.6746 2.25865C26.4227 2.4303 26.0923 2.43327 25.8374 2.26618C25.4897 2.0383 25.3923 1.5719 25.6197 1.22396ZM17.6602 0.0537501C18.0262 -0.0742074 18.4331 0.0308967 18.6913 0.320038C18.9495 0.609179 19.008 1.02539 18.8396 1.37454C18.6712 1.72369 18.3091 1.937 17.9221 1.91495C17.394 1.88488 16.9902 1.43263 17.0198 0.904547C17.0416 0.517518 17.2943 0.181708 17.6602 0.0537501Z" fill="white"/>
<path d="M151.981 8.04354C156.829 8.04354 159.784 10.6141 159.784 16.0492C159.784 21.4843 156.834 24.0548 151.981 24.0548C147.127 24.0548 144.2 21.4843 144.2 16.0492C144.2 10.6141 147.132 8.04354 151.981 8.04354ZM49.2641 8.03845C53.0813 8.03845 56.0368 9.94422 56.0955 13.899L56.0964 14.0195H53.1428C53.1428 11.7187 51.5636 10.4792 49.3086 10.4792C46.2271 10.4792 44.7607 12.2465 44.7292 15.7145L44.7287 15.8201V16.2706C44.7287 19.8783 46.1743 21.6153 49.3099 21.6153C51.6746 21.6153 53.2236 20.3993 53.2543 18.187L53.2548 18.1196H56.0964C56.0964 22.1574 53.1657 24.051 49.2641 24.051C44.5276 24.051 41.7764 21.6153 41.7764 16.0454C41.7764 10.6103 44.5276 8.03845 49.2641 8.03845ZM67.5379 8.31332L73.5635 23.785H70.4508L69.1783 20.4242H62.1016L60.8621 23.785H57.8843L63.9061 8.31332H67.5379ZM84.6143 8.31332C88.0197 8.31332 89.6664 10.1407 89.6664 13.004C89.6664 15.0801 88.7608 16.6031 86.9731 17.3341L86.9151 17.3574L90.2237 23.785H87.0665L84.1397 17.804H79.3371V23.785H76.4496V8.31332H84.6143ZM99.7933 8.31332C104.461 8.31332 107.299 10.749 107.299 16.0492C107.299 21.2964 104.515 23.736 99.9303 23.7843L99.7908 23.785H93.6113V8.31332H99.7933ZM118.491 8.31332L124.513 23.785H121.4L120.138 20.4242H113.056L111.815 23.785H108.839L114.863 8.31332H118.491ZM130.159 8.31332L136.879 17.5381L136.903 17.5733L136.954 17.6507L137.008 17.7357L137.065 17.8267L137.183 18.02L137.557 18.6428L137.61 18.7288L137.626 18.7532L137.643 18.7775L137.755 18.733L137.753 18.6624L137.744 18.4468L137.724 17.9878L137.715 17.7411L137.712 17.6332L137.71 17.5414L137.71 17.5152H137.708V8.31332H140.481V23.785H137.775L131.009 14.4712C130.961 14.402 130.914 14.3304 130.868 14.258L130.822 14.1854L130.776 14.1128L130.71 14.0043L130.626 13.8627L130.585 13.794L130.491 13.6314L130.306 13.3053L130.27 13.2445L130.256 13.2229L130.246 13.2076L130.132 13.275L130.134 13.3387L130.162 13.9548L130.17 14.1525L130.175 14.3199L130.177 14.4228C130.178 14.4392 130.178 14.4552 130.178 14.4707L130.178 23.785H127.404V8.31332H130.159ZM151.981 10.4792C148.9 10.4792 147.19 12.2465 147.156 15.7182L147.155 15.8239V16.2973C147.155 19.8376 148.846 21.6191 151.981 21.6191C155.106 21.6191 156.795 19.873 156.829 16.403L156.829 16.2973V15.8239C156.829 12.2824 155.116 10.4792 151.981 10.4792ZM99.7933 10.7719H96.5013V21.3265H99.7933C102.696 21.3265 104.294 19.6913 104.348 16.3754L104.349 16.2744V15.8239C104.349 12.4753 102.753 10.8055 99.8808 10.7724L99.7933 10.7719ZM65.6876 10.7897H65.5757L65.5407 10.8914L65.0916 12.2663L64.9591 12.6666L64.8404 13.0185L64.7941 13.1538L64.7048 13.4096L64.6623 13.5284L64.6216 13.64L63.0038 17.9847L68.2582 17.9835L66.6802 13.7433L66.6621 13.6963L66.6244 13.596L66.5848 13.4884L66.5226 13.3147L66.4577 13.1288L66.3909 12.9335L66.3227 12.7315L66.2086 12.3875L65.7377 10.9371L65.6924 10.803L65.6876 10.7897ZM116.645 10.7897H116.53L116.495 10.8914L116.046 12.2663L115.913 12.6666L115.795 13.0185L115.748 13.1538L115.659 13.4096L115.617 13.5284L115.576 13.64L113.961 17.9847L119.215 17.9835L117.637 13.7433L117.6 13.6471L117.562 13.5431L117.501 13.3741L117.436 13.192L117.348 12.9335L117.256 12.6632L117.165 12.3875L117.02 11.9438L116.679 10.8917L116.645 10.7897ZM84.3878 10.7719H79.3371V15.3722H84.3878C85.8767 15.3722 86.756 14.4712 86.756 13.004C86.756 11.6222 85.9621 10.7905 84.4394 10.7722L84.3878 10.7719Z" fill="white"/>
</g>
<defs>
<clipPath id="clip0_4552_19351">
<rect width="159.068" height="32" fill="white" transform="translate(0.71582)"/>
</clipPath>
</defs>
</svg>
