<svg width="175" height="44" viewBox="0 0 175 44" fill="none" xmlns="http://www.w3.org/2000/svg">
<g clip-path="url(#clip0_4552_19944)">
<mask id="mask0_4552_19944" style="mask-type:luminance" maskUnits="userSpaceOnUse" x="0" y="0" width="175" height="44">
<path d="M174.529 0H0.859375V44H174.529V0Z" fill="white"/>
</mask>
<g mask="url(#mask0_4552_19944)">
<path d="M19.9114 0L0.859375 11V33L19.9114 44L38.9635 33V11L19.9114 0ZM30.892 28.3378L19.9149 34.6756L8.93777 28.3378V15.6622L19.9149 9.32448L30.892 15.6622V28.3378Z" fill="white"/>
<path d="M59.8671 33.0228C57.9751 33.0228 56.2803 32.5899 54.7879 31.7187C53.2935 30.8492 52.1143 29.5943 51.2503 27.9505C50.3863 26.3067 49.9551 24.3284 49.9551 22.014C49.9551 19.6996 50.3915 17.6897 51.2591 16.0406C52.1287 14.3932 53.3111 13.1366 54.8107 12.2724C56.3087 11.4083 57.9947 10.9771 59.8691 10.9771C61.0871 10.9771 62.2239 11.1513 63.2695 11.4963C64.3167 11.8412 65.2475 12.3428 66.0643 13.0011C66.8807 13.6593 67.5443 14.4636 68.0599 15.414C68.5739 16.3644 68.9067 17.4451 69.0615 18.6577H64.8111C64.7143 18.0435 64.5279 17.4943 64.2495 17.0068C63.9699 16.5228 63.6179 16.1092 63.1919 15.7678C62.7643 15.4263 62.2783 15.1676 61.7383 14.9899C61.1943 14.8121 60.6031 14.7241 59.9587 14.7241C58.8255 14.7241 57.8275 15.0075 56.9615 15.5742C56.0975 16.1409 55.4215 16.9663 54.9375 18.0523C54.4519 19.1364 54.2087 20.4599 54.2087 22.014C54.2087 23.5681 54.4535 24.918 54.9427 25.9987C55.4339 27.0793 56.1063 27.8942 56.9667 28.4468C57.8275 28.9995 58.8199 29.2758 59.9411 29.2758C60.5659 29.2758 61.1467 29.1913 61.6835 29.0223C62.2203 28.8551 62.7043 28.6087 63.1319 28.2866C63.5579 27.9663 63.9171 27.5721 64.2055 27.1057C64.4943 26.6393 64.6967 26.1043 64.8111 25.5006H69.0615C68.9367 26.5073 68.6375 27.4647 68.1623 28.3676C67.6871 29.2687 67.0535 30.0695 66.2595 30.7647C65.4675 31.4617 64.5347 32.0091 63.4647 32.4156C62.3927 32.8188 61.1943 33.0211 59.8707 33.0211V33.0264L59.8671 33.0228Z" fill="white"/>
<path d="M75.4563 23.3605V32.7256H71.3359V11.257H75.3419V19.4251H75.5443C75.9171 18.4941 76.5051 17.7584 77.3023 17.2198C78.0979 16.683 79.1135 16.412 80.3419 16.412C81.4559 16.412 82.4327 16.6514 83.2652 17.1318C84.1012 17.6123 84.7507 18.304 85.2099 19.2069C85.6711 20.108 85.8999 21.201 85.8999 22.4787V32.722H81.7639V23.1704C81.7639 22.132 81.4999 21.3242 80.9719 20.7416C80.4439 20.1608 79.6979 19.8704 78.7387 19.8704C78.0943 19.8704 77.5275 20.0094 77.0383 20.2893C76.5475 20.5691 76.1619 20.9651 75.8787 21.4773C75.5951 21.993 75.4543 22.616 75.4543 23.3587V23.3622L75.4563 23.3605Z" fill="white"/>
<path d="M93.2251 33.0441C92.1971 33.0441 91.2783 32.8609 90.4671 32.4967C89.6559 32.1306 89.0167 31.5903 88.5503 30.8757C88.0839 30.1611 87.8516 29.2741 87.8516 28.2181C87.8516 27.317 88.0171 26.5655 88.3499 25.9689C88.6823 25.3722 89.1331 24.8917 89.7051 24.5221C90.2771 24.1525 90.9228 23.8727 91.6499 23.6861C92.3748 23.4995 93.1371 23.3675 93.9327 23.2901C94.8743 23.1933 95.6327 23.1053 96.2099 23.0244C96.7871 22.9434 97.206 22.8131 97.47 22.6354C97.734 22.4576 97.866 22.1954 97.866 21.8505V21.7783C97.866 21.0567 97.6443 20.497 97.2043 20.0992C96.7627 19.7015 96.1324 19.5009 95.3159 19.5009C94.4516 19.5009 93.7652 19.6891 93.2548 20.0711C92.7463 20.4495 92.4067 20.9088 92.2323 21.4456L88.3991 21.0268C88.6383 20.0482 89.0751 19.2139 89.7031 18.5275C90.3315 17.8411 91.1219 17.3167 92.0723 16.9559C93.0227 16.5951 94.1031 16.4138 95.314 16.4138C96.15 16.4138 96.9651 16.5124 97.7571 16.7095C98.5491 16.9049 99.2635 17.2181 99.9043 17.6475C100.541 18.0752 101.054 18.6402 101.43 19.3407C101.808 20.0429 102 20.8965 102 21.9067V32.7256H98.0543V30.492H97.9399C97.6883 30.9707 97.3556 31.4055 96.9315 31.7909C96.5091 32.1763 95.9899 32.4791 95.3759 32.7061C94.7615 32.9332 94.0451 33.0457 93.2287 33.0457H93.2231L93.2251 33.0441ZM94.346 30.1049C95.0571 30.1049 95.6767 29.964 96.2047 29.6807C96.7327 29.3973 97.1463 29.0189 97.4439 28.5437C97.7411 28.0685 97.8907 27.5423 97.8907 26.9668V25.1645C97.7571 25.2613 97.5583 25.3476 97.3011 25.425C97.0407 25.5025 96.7487 25.5728 96.4211 25.6344C96.0955 25.696 95.7716 25.7506 95.4548 25.7999C95.138 25.8474 94.8547 25.8861 94.6047 25.9143C94.0575 25.9917 93.5751 26.1167 93.1563 26.2874C92.7375 26.4616 92.4083 26.6957 92.1691 26.9931C91.9295 27.2906 91.8083 27.6655 91.8083 28.1178C91.8083 28.7707 92.0459 29.2653 92.5211 29.6032C92.9963 29.9394 93.6035 30.1066 94.3427 30.1066H94.3443L94.346 30.1049Z" fill="white"/>
<path d="M104.707 32.7271V16.6196H108.827V32.7271H104.707Z" fill="white"/>
<path d="M115.657 23.3605V32.7256H111.537V16.6162H115.585V19.4252H115.759C116.124 18.5029 116.703 17.7707 117.495 17.2269C118.287 16.6831 119.283 16.4138 120.485 16.4138C121.599 16.4138 122.572 16.6531 123.401 17.1336C124.232 17.6123 124.876 18.3075 125.334 19.2139C125.79 20.1221 126.018 21.2098 126.018 22.477V32.7201H121.898V23.1687C121.898 22.1408 121.632 21.333 121.099 20.7487C120.568 20.1643 119.834 19.8687 118.901 19.8687C118.267 19.8687 117.706 20.0077 117.222 20.2875C116.736 20.5674 116.356 20.9634 116.076 21.4755C115.796 21.9912 115.659 22.6143 115.659 23.357V23.3605H115.657Z" fill="white"/>
<path d="M132.845 10.2012V32.7274H128.725V10.2012H132.845Z" fill="white"/>
<path d="M135.555 32.7271V16.6196H139.675V32.7271H135.555Z" fill="white"/>
<path d="M146.503 23.3605V32.7256H142.383V16.6162H146.431V19.4252H146.605C146.969 18.5029 147.548 17.7707 148.34 17.2269C149.132 16.6831 150.128 16.4138 151.331 16.4138C152.445 16.4138 153.418 16.6531 154.249 17.1336C155.08 17.6123 155.724 18.3075 156.18 19.2139C156.635 20.1221 156.864 21.2098 156.864 22.477V32.7201H152.744V23.1687C152.744 22.1408 152.478 21.333 151.945 20.7487C151.413 20.1643 150.68 19.8687 149.747 19.8687C149.113 19.8687 148.552 20.0077 148.068 20.2875C147.582 20.5674 147.202 20.9634 146.922 21.4755C146.642 21.9912 146.503 22.6143 146.503 23.357V23.3605Z" fill="white"/>
<path d="M169.643 32.7272H174.529L168.096 23.5946L174.196 16.6179H169.414L163.951 22.9152H163.694V11.257H159.572V32.7272H163.694V27.4683L164.986 26.0357L169.643 32.7256V32.7272Z" fill="white"/>
<path d="M108.863 10.2012H104.742V14.3213H108.863V10.2012Z" fill="white"/>
<path d="M139.71 10.2012H135.59V14.3213H139.71V10.2012Z" fill="white"/>
</g>
</g>
<defs>
<clipPath id="clip0_4552_19944">
<rect width="174.044" height="44" fill="white" transform="translate(0.728516)"/>
</clipPath>
</defs>
</svg>
