<svg width="175" height="44" viewBox="0 0 175 44" fill="none" xmlns="http://www.w3.org/2000/svg">
<g clip-path="url(#clip0_4516_109314)">
<mask id="mask0_4516_109314" style="mask-type:luminance" maskUnits="userSpaceOnUse" x="0" y="0" width="175" height="44">
<path d="M174.528 0H0.858398V44H174.528V0Z" fill="white"/>
</mask>
<g mask="url(#mask0_4516_109314)">
<path d="M19.9104 0L0.858398 11V33L19.9104 44L38.9625 33V11L19.9104 0ZM30.891 28.3378L19.9139 34.6756L8.93679 28.3378V15.6622L19.9139 9.32448L30.891 15.6622V28.3378Z" fill="#0847F7"/>
<path d="M59.8662 33.0228C57.9742 33.0228 56.2793 32.5899 54.7869 31.7187C53.2926 30.8492 52.1134 29.5943 51.2493 27.9505C50.3853 26.3067 49.9541 24.3284 49.9541 22.014C49.9541 19.6996 50.3905 17.6897 51.2581 16.0406C52.1277 14.3932 53.3102 13.1366 54.8097 12.2724C56.3077 11.4083 57.9937 10.9771 59.8681 10.9771C61.0861 10.9771 62.2229 11.1513 63.2685 11.4963C64.3157 11.8412 65.2465 12.3428 66.0633 13.0011C66.8798 13.6593 67.5433 14.4636 68.059 15.414C68.5729 16.3644 68.9057 17.4451 69.0605 18.6577H64.8101C64.7133 18.0435 64.5269 17.4943 64.2486 17.0068C63.9689 16.5228 63.6169 16.1092 63.1909 15.7678C62.7633 15.4263 62.2774 15.1676 61.7373 14.9899C61.1933 14.8121 60.6021 14.7241 59.9577 14.7241C58.8245 14.7241 57.8265 15.0075 56.9605 15.5742C56.0965 16.1409 55.4205 16.9663 54.9365 18.0523C54.4509 19.1364 54.2078 20.4599 54.2078 22.014C54.2078 23.5681 54.4525 24.918 54.9417 25.9987C55.4329 27.0793 56.1053 27.8942 56.9657 28.4468C57.8265 28.9995 58.819 29.2758 59.9401 29.2758C60.5649 29.2758 61.1457 29.1913 61.6825 29.0223C62.2193 28.8551 62.7033 28.6087 63.131 28.2866C63.5569 27.9663 63.9161 27.5721 64.2046 27.1057C64.4933 26.6393 64.6957 26.1043 64.8101 25.5006H69.0605C68.9357 26.5073 68.6365 27.4647 68.1613 28.3676C67.6861 29.2687 67.0525 30.0695 66.2585 30.7647C65.4665 31.4617 64.5337 32.0091 63.4637 32.4156C62.3918 32.8188 61.1933 33.0211 59.8697 33.0211V33.0264L59.8662 33.0228Z" fill="#0847F7"/>
<path d="M75.4563 23.3605V32.7256H71.3359V11.257H75.3419V19.4251H75.5443C75.9171 18.4941 76.5051 17.7584 77.3023 17.2198C78.0979 16.683 79.1135 16.412 80.3419 16.412C81.4559 16.412 82.4327 16.6514 83.2652 17.1318C84.1012 17.6123 84.7507 18.304 85.2099 19.2069C85.6711 20.108 85.8999 21.201 85.8999 22.4787V32.722H81.7639V23.1704C81.7639 22.132 81.4999 21.3242 80.9719 20.7416C80.4439 20.1608 79.6979 19.8704 78.7387 19.8704C78.0943 19.8704 77.5275 20.0094 77.0383 20.2893C76.5475 20.5691 76.1619 20.9651 75.8787 21.4773C75.5951 21.993 75.4543 22.616 75.4543 23.3587V23.3622L75.4563 23.3605Z" fill="#0847F7"/>
<path d="M93.2232 33.0441C92.1952 33.0441 91.2764 32.8609 90.4652 32.4967C89.6539 32.1306 89.0148 31.5903 88.5484 30.8757C88.082 30.1611 87.8496 29.2741 87.8496 28.2181C87.8496 27.317 88.0152 26.5655 88.3479 25.9689C88.6804 25.3722 89.1311 24.8917 89.7031 24.5221C90.2751 24.1525 90.9208 23.8727 91.6479 23.6861C92.3728 23.4995 93.1351 23.3675 93.9307 23.2901C94.8723 23.1933 95.6308 23.1053 96.208 23.0244C96.7852 22.9434 97.204 22.8131 97.468 22.6354C97.732 22.4576 97.864 22.1954 97.864 21.8505V21.7783C97.864 21.0567 97.6424 20.497 97.2024 20.0992C96.7607 19.7015 96.1304 19.5009 95.314 19.5009C94.4496 19.5009 93.7632 19.6891 93.2528 20.0711C92.7444 20.4495 92.4047 20.9088 92.2304 21.4456L88.3972 21.0268C88.6364 20.0482 89.0731 19.2139 89.7012 18.5275C90.3296 17.8411 91.1199 17.3167 92.0703 16.9559C93.0207 16.5951 94.1012 16.4138 95.312 16.4138C96.148 16.4138 96.9632 16.5124 97.7551 16.7095C98.5472 16.9049 99.2616 17.2181 99.9023 17.6475C100.54 18.0752 101.052 18.6402 101.428 19.3407C101.806 20.0429 101.998 20.8965 101.998 21.9067V32.7256H98.0524V30.492H97.938C97.6864 30.9707 97.3536 31.4055 96.9296 31.7909C96.5072 32.1763 95.988 32.4791 95.3739 32.7061C94.7596 32.9332 94.0432 33.0457 93.2267 33.0457H93.2212L93.2232 33.0441ZM94.344 30.1049C95.0552 30.1049 95.6748 29.964 96.2028 29.6807C96.7308 29.3973 97.1444 29.0189 97.4419 28.5437C97.7392 28.0685 97.8888 27.5423 97.8888 26.9668V25.1645C97.7552 25.2613 97.5563 25.3476 97.2992 25.425C97.0388 25.5025 96.7467 25.5728 96.4192 25.6344C96.0936 25.696 95.7696 25.7506 95.4528 25.7999C95.136 25.8474 94.8528 25.8861 94.6028 25.9143C94.0556 25.9917 93.5732 26.1167 93.1544 26.2874C92.7356 26.4616 92.4064 26.6957 92.1671 26.9931C91.9276 27.2906 91.8063 27.6655 91.8063 28.1178C91.8063 28.7707 92.0439 29.2653 92.5191 29.6032C92.9943 29.9394 93.6015 30.1066 94.3407 30.1066H94.3424L94.344 30.1049Z" fill="#0847F7"/>
<path d="M104.705 32.7271V16.6196H108.825V32.7271H104.705Z" fill="#0847F7"/>
<path d="M115.656 23.3605V32.7256H111.536V16.6162H115.584V19.4252H115.758C116.123 18.5029 116.702 17.7707 117.494 17.2269C118.286 16.6831 119.282 16.4138 120.484 16.4138C121.598 16.4138 122.571 16.6531 123.4 17.1336C124.231 17.6123 124.875 18.3075 125.333 19.2139C125.789 20.1221 126.017 21.2098 126.017 22.477V32.7201H121.897V23.1687C121.897 22.1408 121.631 21.333 121.098 20.7487C120.567 20.1643 119.833 19.8687 118.9 19.8687C118.266 19.8687 117.705 20.0077 117.221 20.2875C116.735 20.5674 116.355 20.9634 116.075 21.4755C115.795 21.9912 115.658 22.6143 115.658 23.357V23.3605H115.656Z" fill="#0847F7"/>
<path d="M132.845 10.2012V32.7274H128.725V10.2012H132.845Z" fill="#0847F7"/>
<path d="M135.553 32.7271V16.6196H139.673V32.7271H135.553Z" fill="#0847F7"/>
<path d="M146.502 23.3605V32.7256H142.382V16.6162H146.43V19.4252H146.604C146.968 18.5029 147.547 17.7707 148.339 17.2269C149.131 16.6831 150.127 16.4138 151.33 16.4138C152.444 16.4138 153.417 16.6531 154.248 17.1336C155.079 17.6123 155.723 18.3075 156.179 19.2139C156.634 20.1221 156.863 21.2098 156.863 22.477V32.7201H152.743V23.1687C152.743 22.1408 152.477 21.333 151.944 20.7487C151.412 20.1643 150.679 19.8687 149.746 19.8687C149.112 19.8687 148.551 20.0077 148.067 20.2875C147.581 20.5674 147.201 20.9634 146.921 21.4755C146.641 21.9912 146.502 22.6143 146.502 23.357V23.3605Z" fill="#0847F7"/>
<path d="M169.642 32.7272H174.528L168.095 23.5946L174.195 16.6179H169.413L163.95 22.9152H163.693V11.257H159.571V32.7272H163.693V27.4683L164.985 26.0357L169.642 32.7256V32.7272Z" fill="#0847F7"/>
<path d="M108.861 10.2012H104.74V14.3213H108.861V10.2012Z" fill="#0847F7"/>
<path d="M139.708 10.2012H135.588V14.3213H139.708V10.2012Z" fill="#0847F7"/>
</g>
</g>
<defs>
<clipPath id="clip0_4516_109314">
<rect width="174.044" height="44" fill="white" transform="translate(0.727539)"/>
</clipPath>
</defs>
</svg>
