<svg width="167" height="30" viewBox="0 0 167 30" fill="none" xmlns="http://www.w3.org/2000/svg">
<path fill-rule="evenodd" clip-rule="evenodd" d="M18.55 21.9361L16.2683 19.6046C15.4017 20.4205 14.5256 21.0667 13.6395 21.543C12.7541 22.0187 11.6949 22.2566 10.4627 22.2566C9.49975 22.2566 8.60929 22.0674 7.79093 21.6884C6.97258 21.3093 6.26489 20.79 5.66787 20.129C5.07086 19.4685 4.60907 18.6964 4.28133 17.8125C3.954 16.9285 3.79072 15.981 3.79072 14.9713C3.79072 13.9608 3.954 13.0184 4.28133 12.144C4.60907 11.2699 5.07086 10.5075 5.66787 9.85641C6.26489 9.2057 6.97258 8.69103 7.79093 8.312C8.60929 7.93336 9.49975 7.74385 10.4627 7.74385C11.6177 7.74385 12.6481 7.977 13.553 8.44333C14.4582 8.90925 15.3152 9.52143 16.1234 10.2791L18.4054 7.62748C17.9242 7.16116 17.4141 6.73377 16.8747 6.34492C16.3357 5.95644 15.7485 5.62107 15.1129 5.33954C14.4773 5.05764 13.7794 4.83943 13.0187 4.68411C12.258 4.52841 11.4155 4.45056 10.4915 4.45056C8.95105 4.45056 7.54542 4.72775 6.27462 5.28136C5.00345 5.83495 3.90606 6.59262 2.98171 7.55434C2.05735 8.51607 1.34031 9.6378 0.829814 10.9204C0.319313 12.2025 0.0644531 13.5724 0.0644531 15.0295C0.0644531 16.5059 0.324379 17.8852 0.844233 19.1677C1.36409 20.4495 2.08151 21.5618 2.99612 22.5043C3.91074 23.4464 4.9937 24.1895 6.24541 24.7336C7.4971 25.2777 8.86453 25.5495 10.3469 25.5495C11.2908 25.5495 12.1524 25.4669 12.9322 25.3018C13.7119 25.1366 14.4294 24.8941 15.0841 24.5736C15.7388 24.2528 16.3502 23.8738 16.9184 23.4369C17.4862 22.9997 18.0301 22.4992 18.55 21.9361Z" fill="white"/>
<path fill-rule="evenodd" clip-rule="evenodd" d="M64.3816 10.227C64.3816 9.54831 64.6688 8.97166 65.2436 8.497C65.818 8.02156 66.6225 7.78423 67.6567 7.78423C68.5759 7.78423 69.4856 7.96389 70.3855 8.32243C71.2859 8.68098 72.1954 9.19957 73.1144 9.87782L75.0104 7.17384C73.9768 6.34023 72.8707 5.70552 71.6928 5.2697C70.5145 4.83349 69.1888 4.61538 67.714 4.61538C66.7182 4.61538 65.799 4.75582 64.9611 5.03708C64.1184 5.31795 63.4007 5.72005 62.8019 6.24334C62.2035 6.76703 61.7341 7.39193 61.3895 8.11884C61.0496 8.84574 60.8772 9.65502 60.8772 10.5467C60.8772 11.4964 61.0256 12.301 61.3224 12.96C61.6194 13.619 62.055 14.1811 62.6201 14.6464C63.1848 15.1116 63.8886 15.4992 64.7215 15.8095C65.5595 16.1198 66.5126 16.4003 67.5896 16.6525C68.5283 16.8851 69.289 17.108 69.8781 17.321C70.4622 17.5344 70.922 17.7623 71.2619 18.0043C71.5967 18.2467 71.827 18.5131 71.9512 18.8038C72.0757 19.0949 72.1378 19.4239 72.1378 19.7923C72.1378 20.5875 71.8172 21.2175 71.1758 21.6823C70.534 22.148 69.6674 22.3802 68.5759 22.3802C67.3121 22.3802 66.1819 22.1523 65.1863 21.6969C64.1902 21.2415 63.2042 20.5875 62.2271 19.7343L60.1016 22.2931C61.3081 23.3977 62.6201 24.2169 64.0371 24.75C65.4544 25.2831 66.9384 25.5495 68.4895 25.5495C69.5429 25.5495 70.5103 25.4138 71.3912 25.1426C72.2673 24.8708 73.0237 24.4734 73.6461 23.9502C74.2733 23.4269 74.7617 22.7874 75.1159 22.0315C75.4655 21.2756 75.6426 20.413 75.6426 19.4436C75.6426 18.5908 75.5038 17.8493 75.226 17.2193C74.948 16.5893 74.5365 16.0374 74.0005 15.562C73.464 15.0873 72.7842 14.6848 71.9703 14.3553C71.1568 14.0262 70.218 13.7257 69.1647 13.4542C68.2024 13.2216 67.4125 12.9984 66.7853 12.7854C66.1629 12.5724 65.6745 12.3398 65.3153 12.0875C64.9611 11.8357 64.7172 11.5642 64.5827 11.2736C64.449 10.9825 64.3816 10.6338 64.3816 10.227Z" fill="white"/>
<path fill-rule="evenodd" clip-rule="evenodd" d="M103.705 10.515V25.0549H107.215V4.78021H103.446L97.318 14.3673L91.1899 4.78021H87.4211V25.0549H90.9309V10.5728L97.2314 20.0733H97.3467L103.705 10.515Z" fill="white"/>
<path fill-rule="evenodd" clip-rule="evenodd" d="M136.705 15.0295C136.705 16.0203 136.537 16.9577 136.2 17.842C135.864 18.7257 135.398 19.493 134.802 20.1436C134.207 20.7943 133.49 21.3093 132.655 21.6884C131.818 22.0675 130.901 22.2566 129.901 22.2566C128.902 22.2566 127.979 22.0623 127.134 21.6739C126.288 21.2851 125.562 20.7605 124.957 20.1003C124.352 19.4395 123.881 18.6672 123.544 17.7833C123.208 16.8995 123.04 15.9618 123.04 14.9713C123.04 13.9801 123.208 13.0428 123.544 12.1589C123.881 11.2746 124.347 10.5075 124.943 9.85643C125.538 9.2057 126.254 8.69103 127.09 8.312C127.926 7.93338 128.844 7.74385 129.843 7.74385C130.843 7.74385 131.766 7.9381 132.611 8.32695C133.457 8.71541 134.182 9.23992 134.788 9.90046C135.393 10.5606 135.864 11.3332 136.2 12.2171C136.537 13.101 136.705 14.0387 136.705 15.0295ZM140.424 14.9713C140.424 13.5334 140.164 12.1734 139.645 10.8909C139.127 9.6091 138.406 8.49169 137.484 7.53979C136.561 6.58751 135.456 5.83495 134.168 5.28136C132.88 4.72775 131.458 4.45056 129.901 4.45056C128.345 4.45056 126.922 4.73248 125.635 5.2959C124.347 5.85933 123.232 6.6217 122.29 7.58343C121.348 8.54515 120.618 9.6673 120.099 10.9495C119.58 12.2316 119.321 13.5916 119.321 15.0295C119.321 16.4671 119.58 17.8266 120.099 19.1092C120.618 20.3916 121.339 21.5087 122.261 22.4607C123.184 23.4125 124.289 24.1654 125.577 24.719C126.864 25.2726 128.287 25.5495 129.843 25.5495C131.4 25.5495 132.823 25.2675 134.11 24.7046C135.398 24.1411 136.513 23.3787 137.455 22.4166C138.397 21.4552 139.127 20.3331 139.645 19.051C140.164 17.7689 140.424 16.4089 140.424 14.9713Z" fill="white"/>
<path fill-rule="evenodd" clip-rule="evenodd" d="M155.173 10.227C155.173 9.54831 155.461 8.97166 156.035 8.497C156.61 8.02156 157.414 7.78423 158.449 7.78423C159.367 7.78423 160.277 7.96389 161.177 8.32243C162.077 8.68098 162.987 9.19957 163.906 9.87782L165.802 7.17384C164.768 6.34023 163.663 5.70552 162.484 5.2697C161.307 4.83349 159.981 4.61538 158.506 4.61538C157.51 4.61538 156.591 4.75582 155.753 5.03708C154.91 5.31795 154.193 5.72005 153.594 6.24334C152.995 6.76703 152.526 7.39193 152.181 8.11884C151.842 8.84574 151.669 9.65502 151.669 10.5467C151.669 11.4964 151.817 12.301 152.114 12.96C152.411 13.619 152.847 14.1811 153.412 14.6464C153.977 15.1116 154.681 15.4992 155.514 15.8095C156.351 16.1198 157.304 16.4003 158.381 16.6525C159.32 16.8851 160.081 17.108 160.67 17.321C161.254 17.5344 161.714 17.7623 162.054 18.0043C162.389 18.2467 162.618 18.5131 162.743 18.8038C162.868 19.0949 162.93 19.4239 162.93 19.7923C162.93 20.5875 162.608 21.2175 161.968 21.6823C161.326 22.148 160.459 22.3802 159.367 22.3802C158.104 22.3802 156.973 22.1523 155.978 21.6969C154.982 21.2415 153.996 20.5875 153.019 19.7343L150.893 22.2931C152.1 23.3977 153.412 24.2169 154.829 24.75C156.246 25.2831 157.73 25.5495 159.281 25.5495C160.335 25.5495 161.302 25.4138 162.183 25.1426C163.058 24.8708 163.815 24.4734 164.438 23.9502C165.065 23.4269 165.554 22.7874 165.908 22.0315C166.257 21.2756 166.434 20.413 166.434 19.4436C166.434 18.5908 166.295 17.8493 166.019 17.2193C165.741 16.5893 165.328 16.0374 164.792 15.562C164.256 15.0873 163.577 14.6848 162.763 14.3553C161.948 14.0262 161.01 13.7257 159.957 13.4542C158.994 13.2216 158.204 12.9984 157.577 12.7854C156.955 12.5724 156.466 12.3398 156.107 12.0875C155.753 11.8357 155.509 11.5642 155.375 11.2736C155.241 10.9825 155.173 10.6338 155.173 10.227Z" fill="white"/>
<path fill-rule="evenodd" clip-rule="evenodd" d="M42.6274 8.83902L33.0101 18.53C32.8861 18.2875 32.7742 18.0349 32.674 17.7728C32.3381 16.8923 32.1701 15.958 32.1701 14.9714C32.1701 13.984 32.3381 13.0501 32.674 12.1696C33.0101 11.2887 33.4759 10.5245 34.0714 9.87584C34.667 9.22757 35.3827 8.71485 36.2179 8.33726C37.0538 7.96005 37.9708 7.77126 38.9695 7.77126C39.9686 7.77126 40.8906 7.96475 41.7353 8.35215C42.0495 8.4959 42.3468 8.65805 42.6274 8.83902ZM41.7788 21.6631C40.9431 22.0407 40.0261 22.2292 39.0274 22.2292C38.0283 22.2292 37.1063 22.0356 36.2611 21.6487C35.9474 21.5044 35.6501 21.3423 35.3698 21.161L44.9866 11.4708C45.1108 11.7129 45.2227 11.9651 45.3229 12.2276C45.6588 13.1081 45.8268 14.0423 45.8268 15.0294C45.8268 16.0164 45.6588 16.9502 45.3229 17.8311C44.9866 18.7116 44.521 19.4759 43.9254 20.1241C43.3299 20.7725 42.6146 21.2856 41.7788 21.6631ZM43.2339 24.6679C44.521 24.1066 45.6351 23.347 46.5763 22.3885C47.5173 21.4308 48.2469 20.3129 48.7655 19.0356C49.2845 17.7584 49.5438 16.4034 49.5438 14.9714C49.5438 13.539 49.2845 12.1841 48.7655 10.9064C48.4581 10.1489 48.0794 9.44928 47.63 8.80728L53.8852 2.50451L51.3997 0L45.1255 6.32197C44.5623 5.93498 43.9507 5.60048 43.2914 5.31807C42.0043 4.76656 40.583 4.49041 39.0274 4.49041C37.4712 4.49041 36.0501 4.77125 34.763 5.33256C33.4759 5.89385 32.3617 6.65334 31.4207 7.61144C30.4795 8.56952 29.7495 9.68743 29.2309 10.9648C28.7123 12.2421 28.453 13.597 28.453 15.0294C28.453 16.4615 28.7123 17.8159 29.2309 19.0936C29.5388 19.8515 29.9173 20.5511 30.3667 21.1934L24.1121 27.4956L26.5975 30L32.8714 23.6784C33.4346 24.0654 34.0462 24.4 34.7055 24.6823C35.9926 25.2338 37.4137 25.5097 38.9695 25.5097C40.5255 25.5097 41.9468 25.2287 43.2339 24.6679Z" fill="white"/>
</svg>
