<svg width="167" height="30" viewBox="0 0 167 30" fill="none" xmlns="http://www.w3.org/2000/svg">
<path fill-rule="evenodd" clip-rule="evenodd" d="M18.551 21.9361L16.2693 19.6046C15.4026 20.4205 14.5266 21.0667 13.6404 21.543C12.7551 22.0187 11.6959 22.2566 10.4637 22.2566C9.50072 22.2566 8.61027 22.0674 7.7919 21.6884C6.97356 21.3093 6.26586 20.79 5.66885 20.129C5.07184 19.4685 4.61004 18.6964 4.28231 17.8125C3.95498 16.9285 3.7917 15.981 3.7917 14.9713C3.7917 13.9608 3.95498 13.0184 4.28231 12.144C4.61004 11.2699 5.07184 10.5075 5.66885 9.85641C6.26586 9.2057 6.97356 8.69103 7.7919 8.312C8.61027 7.93336 9.50072 7.74385 10.4637 7.74385C11.6187 7.74385 12.6491 7.977 13.5539 8.44333C14.4592 8.90925 15.3161 9.52143 16.1244 10.2791L18.4064 7.62748C17.9252 7.16116 17.415 6.73377 16.8756 6.34492C16.3367 5.95644 15.7495 5.62107 15.1139 5.33954C14.4783 5.05764 13.7803 4.83943 13.0197 4.68411C12.259 4.52841 11.4165 4.45056 10.4925 4.45056C8.95203 4.45056 7.54639 4.72775 6.2756 5.28136C5.00443 5.83495 3.90703 6.59262 2.98269 7.55434C2.05833 8.51607 1.34129 9.6378 0.83079 10.9204C0.320289 12.2025 0.0654297 13.5724 0.0654297 15.0295C0.0654297 16.5059 0.325355 17.8852 0.84521 19.1677C1.36506 20.4495 2.08249 21.5618 2.9971 22.5043C3.91171 23.4464 4.99468 24.1895 6.24638 24.7336C7.49808 25.2777 8.86551 25.5495 10.3479 25.5495C11.2917 25.5495 12.1534 25.4669 12.9331 25.3018C13.7129 25.1366 14.4304 24.8941 15.085 24.5736C15.7397 24.2528 16.3512 23.8738 16.9193 23.4369C17.4872 22.9997 18.0311 22.4992 18.551 21.9361Z" fill="black"/>
<path fill-rule="evenodd" clip-rule="evenodd" d="M64.3826 10.227C64.3826 9.54831 64.6698 8.97166 65.2446 8.497C65.819 8.02156 66.6235 7.78423 67.6576 7.78423C68.5769 7.78423 69.4866 7.96389 70.3865 8.32243C71.2869 8.68098 72.1964 9.19957 73.1153 9.87782L75.0114 7.17384C73.9778 6.34023 72.8716 5.70552 71.6937 5.2697C70.5155 4.83349 69.1897 4.61538 67.715 4.61538C66.7192 4.61538 65.7999 4.75582 64.9621 5.03708C64.1194 5.31795 63.4017 5.72005 62.8028 6.24334C62.2045 6.76703 61.7351 7.39193 61.3905 8.11884C61.0506 8.84574 60.8782 9.65502 60.8782 10.5467C60.8782 11.4964 61.0266 12.301 61.3234 12.96C61.6204 13.619 62.056 14.1811 62.621 14.6464C63.1858 15.1116 63.8896 15.4992 64.7224 15.8095C65.5605 16.1198 66.5135 16.4003 67.5905 16.6525C68.5293 16.8851 69.29 17.108 69.8791 17.321C70.4632 17.5344 70.923 17.7623 71.2629 18.0043C71.5977 18.2467 71.8279 18.5131 71.9522 18.8038C72.0767 19.0949 72.1387 19.4239 72.1387 19.7923C72.1387 20.5875 71.8182 21.2175 71.1768 21.6823C70.535 22.148 69.6684 22.3802 68.5769 22.3802C67.313 22.3802 66.1829 22.1523 65.1873 21.6969C64.1912 21.2415 63.2051 20.5875 62.228 19.7343L60.1026 22.2931C61.3091 23.3977 62.621 24.2169 64.0381 24.75C65.4553 25.2831 66.9394 25.5495 68.4905 25.5495C69.5439 25.5495 70.5113 25.4138 71.3922 25.1426C72.2682 24.8708 73.0247 24.4734 73.6471 23.9502C74.2743 23.4269 74.7626 22.7874 75.1168 22.0315C75.4665 21.2756 75.6436 20.413 75.6436 19.4436C75.6436 18.5908 75.5048 17.8493 75.227 17.2193C74.949 16.5893 74.5375 16.0374 74.0015 15.562C73.465 15.0873 72.7852 14.6848 71.9712 14.3553C71.1577 14.0262 70.219 13.7257 69.1657 13.4542C68.2034 13.2216 67.4134 12.9984 66.7863 12.7854C66.1639 12.5724 65.6755 12.3398 65.3163 12.0875C64.9621 11.8357 64.7182 11.5642 64.5837 11.2736C64.45 10.9825 64.3826 10.6338 64.3826 10.227Z" fill="black"/>
<path fill-rule="evenodd" clip-rule="evenodd" d="M103.706 10.515V25.0549H107.216V4.78021H103.447L97.3189 14.3673L91.1909 4.78021H87.4221V25.0549H90.9319V10.5728L97.2324 20.0733H97.3477L103.706 10.515Z" fill="black"/>
<path fill-rule="evenodd" clip-rule="evenodd" d="M136.706 15.0295C136.706 16.0203 136.538 16.9577 136.201 17.842C135.865 18.7257 135.399 19.493 134.803 20.1436C134.208 20.7943 133.491 21.3093 132.656 21.6884C131.819 22.0675 130.902 22.2566 129.902 22.2566C128.903 22.2566 127.98 22.0623 127.135 21.6739C126.289 21.2851 125.563 20.7605 124.958 20.1003C124.353 19.4395 123.882 18.6672 123.545 17.7833C123.209 16.8995 123.041 15.9618 123.041 14.9713C123.041 13.9801 123.209 13.0428 123.545 12.1589C123.882 11.2746 124.348 10.5075 124.944 9.85643C125.539 9.2057 126.255 8.69103 127.091 8.312C127.927 7.93338 128.845 7.74385 129.844 7.74385C130.844 7.74385 131.767 7.9381 132.612 8.32695C133.458 8.71541 134.183 9.23992 134.789 9.90046C135.394 10.5606 135.865 11.3332 136.201 12.2171C136.538 13.101 136.706 14.0387 136.706 15.0295ZM140.425 14.9713C140.425 13.5334 140.165 12.1734 139.646 10.8909C139.128 9.6091 138.407 8.49169 137.485 7.53979C136.562 6.58751 135.457 5.83495 134.169 5.28136C132.881 4.72775 131.459 4.45056 129.902 4.45056C128.345 4.45056 126.923 4.73248 125.635 5.2959C124.348 5.85933 123.233 6.6217 122.291 7.58343C121.349 8.54515 120.619 9.6673 120.1 10.9495C119.581 12.2316 119.322 13.5916 119.322 15.0295C119.322 16.4671 119.581 17.8266 120.1 19.1092C120.619 20.3916 121.34 21.5087 122.262 22.4607C123.185 23.4125 124.29 24.1654 125.578 24.719C126.865 25.2726 128.287 25.5495 129.844 25.5495C131.401 25.5495 132.824 25.2675 134.111 24.7046C135.399 24.1411 136.514 23.3787 137.456 22.4166C138.398 21.4552 139.128 20.3331 139.646 19.051C140.165 17.7689 140.425 16.4089 140.425 14.9713Z" fill="black"/>
<path fill-rule="evenodd" clip-rule="evenodd" d="M155.174 10.227C155.174 9.54831 155.462 8.97166 156.036 8.497C156.611 8.02156 157.415 7.78423 158.45 7.78423C159.368 7.78423 160.278 7.96389 161.178 8.32243C162.078 8.68098 162.988 9.19957 163.907 9.87782L165.803 7.17384C164.768 6.34023 163.664 5.70552 162.485 5.2697C161.308 4.83349 159.982 4.61538 158.507 4.61538C157.511 4.61538 156.592 4.75582 155.754 5.03708C154.911 5.31795 154.194 5.72005 153.595 6.24334C152.996 6.76703 152.527 7.39193 152.182 8.11884C151.842 8.84574 151.67 9.65502 151.67 10.5467C151.67 11.4964 151.818 12.301 152.115 12.96C152.412 13.619 152.848 14.1811 153.413 14.6464C153.978 15.1116 154.682 15.4992 155.515 15.8095C156.352 16.1198 157.305 16.4003 158.382 16.6525C159.321 16.8851 160.082 17.108 160.671 17.321C161.255 17.5344 161.715 17.7623 162.055 18.0043C162.39 18.2467 162.619 18.5131 162.744 18.8038C162.869 19.0949 162.931 19.4239 162.931 19.7923C162.931 20.5875 162.609 21.2175 161.969 21.6823C161.327 22.148 160.46 22.3802 159.368 22.3802C158.105 22.3802 156.974 22.1523 155.979 21.6969C154.983 21.2415 153.997 20.5875 153.02 19.7343L150.894 22.2931C152.101 23.3977 153.413 24.2169 154.83 24.75C156.247 25.2831 157.731 25.5495 159.282 25.5495C160.336 25.5495 161.303 25.4138 162.184 25.1426C163.059 24.8708 163.816 24.4734 164.439 23.9502C165.066 23.4269 165.555 22.7874 165.909 22.0315C166.258 21.2756 166.435 20.413 166.435 19.4436C166.435 18.5908 166.296 17.8493 166.02 17.2193C165.742 16.5893 165.329 16.0374 164.793 15.562C164.257 15.0873 163.578 14.6848 162.764 14.3553C161.949 14.0262 161.011 13.7257 159.958 13.4542C158.995 13.2216 158.205 12.9984 157.578 12.7854C156.956 12.5724 156.467 12.3398 156.108 12.0875C155.754 11.8357 155.51 11.5642 155.376 11.2736C155.242 10.9825 155.174 10.6338 155.174 10.227Z" fill="black"/>
<path fill-rule="evenodd" clip-rule="evenodd" d="M42.6284 8.83902L33.0111 18.53C32.8871 18.2875 32.7752 18.0349 32.6749 17.7728C32.3391 16.8923 32.1711 15.958 32.1711 14.9714C32.1711 13.984 32.3391 13.0501 32.6749 12.1696C33.0111 11.2887 33.4769 10.5245 34.0723 9.87584C34.668 9.22757 35.3836 8.71485 36.2189 8.33726C37.0548 7.96005 37.9718 7.77126 38.9705 7.77126C39.9695 7.77126 40.8916 7.96475 41.7362 8.35215C42.0505 8.4959 42.3478 8.65805 42.6284 8.83902ZM41.7798 21.6631C40.944 22.0407 40.0271 22.2292 39.0283 22.2292C38.0293 22.2292 37.1073 22.0356 36.2621 21.6487C35.9484 21.5044 35.6511 21.3423 35.3708 21.161L44.9876 11.4708C45.1117 11.7129 45.2237 11.9651 45.3239 12.2276C45.6598 13.1081 45.8277 14.0423 45.8277 15.0294C45.8277 16.0164 45.6598 16.9502 45.3239 17.8311C44.9876 18.7116 44.522 19.4759 43.9264 20.1241C43.3309 20.7725 42.6155 21.2856 41.7798 21.6631ZM43.2349 24.6679C44.522 24.1066 45.636 23.347 46.5772 22.3885C47.5183 21.4308 48.2479 20.3129 48.7665 19.0356C49.2854 17.7584 49.5448 16.4034 49.5448 14.9714C49.5448 13.539 49.2854 12.1841 48.7665 10.9064C48.4591 10.1489 48.0804 9.44928 47.631 8.80728L53.8861 2.50451L51.4007 0L45.1265 6.32197C44.5632 5.93498 43.9517 5.60048 43.2924 5.31807C42.0053 4.76656 40.584 4.49041 39.0283 4.49041C37.4722 4.49041 36.0511 4.77125 34.764 5.33256C33.4769 5.89385 32.3627 6.65334 31.4216 7.61144C30.4804 8.56952 29.7505 9.68743 29.2319 10.9648C28.7132 12.2421 28.4539 13.597 28.4539 15.0294C28.4539 16.4615 28.7132 17.8159 29.2319 19.0936C29.5397 19.8515 29.9183 20.5511 30.3677 21.1934L24.113 27.4956L26.5985 30L32.8723 23.6784C33.4356 24.0654 34.0472 24.4 34.7065 24.6823C35.9936 25.2338 37.4147 25.5097 38.9705 25.5097C40.5265 25.5097 41.9478 25.2287 43.2349 24.6679Z" fill="black"/>
</svg>
