<svg width="202" height="28" viewBox="0 0 202 28" fill="none" xmlns="http://www.w3.org/2000/svg">
<g clip-path="url(#clip0_4552_19984)">
<path d="M41.9547 0.5C38.8778 0.5 35.5214 2.13912 31.9786 5.37053C30.3004 6.89259 28.832 8.53171 27.7598 9.84301C27.7598 9.84301 29.4846 11.7865 31.3726 13.8706C32.3982 12.6061 33.8666 10.8967 35.568 9.35127C38.7146 6.47109 40.7656 5.8857 41.9547 5.8857C46.383 5.8857 49.9725 9.51515 49.9725 14.0111C49.9725 18.4602 46.383 22.0895 41.9547 22.1364C41.7445 22.1364 41.4881 22.113 41.1852 22.0428C42.467 22.6282 43.8656 23.0497 45.171 23.0497C53.282 23.0497 54.8667 17.5703 54.96 17.1721C55.193 16.1653 55.3332 15.1116 55.3332 14.0345C55.3098 6.56473 49.3198 0.5 41.9547 0.5Z" fill="url(#paint0_linear_4552_19984)"/>
<path d="M13.6288 27.5001C16.7055 27.5001 20.0617 25.8609 23.6045 22.6296C25.2827 21.1074 26.7511 19.4684 27.8233 18.157C27.8233 18.157 26.0985 16.2135 24.2106 14.1295C23.185 15.394 21.7166 17.1033 20.0151 18.6488C16.8686 21.5056 14.7941 22.1144 13.6288 22.1144C9.20023 22.1144 5.6108 18.4849 5.6108 13.989C5.6108 9.53995 9.20023 5.91051 13.6288 5.86366C13.8385 5.86366 14.0948 5.88706 14.3979 5.9573C13.116 5.37192 11.7175 4.95044 10.4123 4.95044C2.30109 4.95044 0.716125 10.4298 0.622924 10.8279C0.38986 11.8348 0.25 12.8885 0.25 13.9656C0.25 21.4354 6.24014 27.5001 13.6288 27.5001Z" fill="url(#paint1_linear_4552_19984)"/>
<path fill-rule="evenodd" clip-rule="evenodd" d="M19.7959 9.46836C18.9103 8.62535 14.575 5.1832 10.4262 5.06612C3.03265 4.88441 0.859261 10.1453 0.671875 10.8238C2.08808 4.92444 7.36699 0.523351 13.6427 0.5C18.7588 0.5 23.9288 5.40995 27.7487 9.84115C27.755 9.8337 27.7609 9.82645 27.7669 9.81947C27.7669 9.81947 29.4915 11.763 31.3795 13.847C31.3795 13.847 33.5238 16.3292 35.808 18.5068C36.6938 19.3498 41.0056 22.7451 45.1544 22.8623C52.753 23.073 54.8508 17.5234 54.967 17.1018C53.569 23.0262 48.2779 27.4517 41.9845 27.4751C36.8669 27.4751 31.695 22.5619 27.859 18.1296C27.8514 18.1386 27.8441 18.1474 27.8372 18.1558C27.8372 18.1558 26.1125 16.2122 24.2245 14.1282C24.2245 14.1282 22.0801 11.646 19.7959 9.46836Z" fill="#29ABE2"/>
<path d="M199.846 7.29012C200.243 7.29012 200.519 7.44923 200.679 7.72789C200.758 7.88699 200.875 8.20537 200.56 8.64313L195.965 15.6477V20.4234C195.965 21.0601 195.569 21.458 194.934 21.458H194.301C193.667 21.458 193.27 21.0601 193.27 20.4234V15.6477L188.635 8.64313C188.359 8.16565 188.436 7.84727 188.516 7.68801C188.635 7.40951 188.953 7.25024 189.35 7.25024H190.181C190.696 7.25024 191.051 7.44923 191.289 7.88699L194.577 13.1802L197.906 7.88699C198.143 7.48911 198.499 7.29012 199.014 7.29012H199.846Z" fill="white"/>
<path d="M106.802 7.29102H99.592C98.9583 7.29102 98.5625 7.68899 98.5625 8.32572V20.4641C98.5625 21.1009 98.9583 21.4989 99.592 21.4989H100.226C100.86 21.4989 101.256 21.1009 101.256 20.4641V15.6882H105.97C106.604 15.6882 107 15.2506 107 14.6536V14.375C107 13.7382 106.604 13.3402 105.97 13.3402H101.256V9.59922H106.802C107.435 9.59922 107.832 9.20126 107.832 8.56452V8.28593C107.832 7.68897 107.435 7.29102 106.802 7.29102Z" fill="white"/>
<path fill-rule="evenodd" clip-rule="evenodd" d="M81.2788 7.29272H77.5949C76.9604 7.29272 76.5645 7.69068 76.5645 8.32743V20.4658C76.5645 21.1025 76.9604 21.5006 77.5949 21.5006H81.3179C85.5965 21.5006 88.5678 18.5954 88.5678 14.4166C88.5279 10.2378 85.5566 7.29272 81.2788 7.29272ZM85.7944 14.3767C85.7944 17.1625 83.9324 19.1127 81.239 19.1127H79.2581V9.60092H81.239C83.9324 9.6408 85.7944 11.5909 85.7944 14.3767Z" fill="white"/>
<path d="M120.433 7.29102H121.068C121.701 7.29102 122.097 7.68899 122.097 8.32572V20.4641C122.097 21.1009 121.701 21.4989 121.068 21.4989H120.433C119.799 21.4989 119.404 21.1009 119.404 20.4641V8.32572C119.404 7.68899 119.799 7.29102 120.433 7.29102Z" fill="white"/>
<path d="M143.899 7.29272H143.266C142.632 7.29272 142.235 7.6907 142.235 8.32743V16.4063L135.937 7.8498C135.66 7.45183 135.303 7.29272 134.827 7.29272H134.551C133.917 7.29272 133.52 7.6907 133.52 8.32743V20.4658C133.52 21.1025 133.917 21.5006 134.551 21.5006H135.184C135.818 21.5006 136.215 21.1025 136.215 20.4658V12.347L142.513 20.9435C142.79 21.3412 143.147 21.5006 143.622 21.5006H143.899C144.533 21.5006 144.93 21.1025 144.93 20.4658V8.32743C144.93 7.6907 144.533 7.29272 143.899 7.29272Z" fill="white"/>
<path d="M157.366 7.29102H158C158.595 7.29102 159.031 7.68899 159.031 8.32572V20.4641C159.031 21.1009 158.634 21.4989 158 21.4989H157.366C156.734 21.4989 156.336 21.1009 156.336 20.4641V8.32572C156.336 7.68899 156.734 7.29102 157.366 7.29102Z" fill="white"/>
<path d="M179.951 7.29102H170.443C169.85 7.29102 169.414 7.68899 169.414 8.32572V8.60431C169.414 9.20126 169.809 9.63903 170.443 9.63903H173.851V20.4641C173.851 21.1009 174.246 21.4989 174.88 21.4989H175.514C176.148 21.4989 176.544 21.1009 176.544 20.4641V9.63903H179.951C180.585 9.63903 180.98 9.24105 180.98 8.60431V8.32572C180.98 7.68899 180.585 7.29102 179.951 7.29102Z" fill="white"/>
</g>
<defs>
<linearGradient id="paint0_linear_4552_19984" x1="34.9375" y1="5.54181" x2="50.296" y2="21.3569" gradientUnits="userSpaceOnUse">
<stop offset="0.21" stop-color="#F15A24"/>
<stop offset="0.6841" stop-color="#FBB03B"/>
</linearGradient>
<linearGradient id="paint1_linear_4552_19984" x1="20.6306" y1="22.4515" x2="5.27205" y2="6.6364" gradientUnits="userSpaceOnUse">
<stop offset="0.21" stop-color="#ED1E79"/>
<stop offset="0.8929" stop-color="#522785"/>
</linearGradient>
<clipPath id="clip0_4552_19984">
<rect width="201" height="28" fill="white" transform="translate(0.25)"/>
</clipPath>
</defs>
</svg>
