<svg width="89" height="40" viewBox="0 0 89 40" fill="none" xmlns="http://www.w3.org/2000/svg">
<g clip-path="url(#clip0_13_65)">
<mask id="mask0_13_65" style="mask-type:luminance" maskUnits="userSpaceOnUse" x="0" y="0" width="89" height="40">
<path d="M89 0H0V40H89V0Z" fill="white"/>
</mask>
<g mask="url(#mask0_13_65)">
<path d="M78.545 7.58423H74.1277C68.3641 7.58423 63.6809 12.2207 63.6809 17.9089V21.5655C63.6809 27.2615 68.3723 31.8901 74.1277 31.8901H78.545C84.3085 31.8901 88.992 27.2536 88.992 21.5655V17.9089C88.992 12.2128 84.3085 7.58423 78.545 7.58423ZM85.7677 21.5735C85.7677 25.5089 82.5272 28.7115 78.545 28.7115H74.1277C70.1457 28.7115 66.9052 25.5089 66.9052 21.5735V17.9168C66.9052 13.9813 70.1457 10.7788 74.1277 10.7788H78.545C82.5272 10.7788 85.7677 13.9813 85.7677 17.9168V21.5735Z" fill="#2F2F32"/>
<path d="M56.9902 7.87891H53.7659V31.8343H56.9902V7.87891Z" fill="#2F2F32"/>
<path d="M35.8708 7.71171C33.3478 7.96665 28.5676 9.83081 28.5676 15.0808V31.7229H31.792V21.9878H47.1401V18.8011H31.792V15.0808C31.792 11.6153 35.4437 10.978 36.1288 10.8903H47.2609V7.70374H35.8708V7.71171Z" fill="#2F2F32"/>
<path d="M16.8955 0.597531V10.7151C16.8955 11.2329 16.5247 11.3762 15.9363 11.6551L11.5593 13.9415L1.00758 8.4366C0.241796 8.11794 0.0563965 8.52425 0.0563965 9.05004V8.82697C0.0563965 8.30117 0.507805 8.11794 1.00758 7.87894L15.9363 0.0876738C16.428 -0.127423 16.8955 0.0876739 16.8955 0.597531Z" fill="#755CD5"/>
<path d="M9.76171 25.6683V39.2832C9.76171 39.8329 9.14909 40.1834 8.66544 39.8966L1.02373 35.4272C0.386922 35.0609 0 34.3836 0 33.6508V20.5697L9.76171 25.6683Z" fill="#755CD5"/>
<path d="M11.5593 13.9414L1.00758 19.4463C0.241796 19.765 0.0563965 19.3587 0.0563965 18.8329V9.04999C0.0563965 8.52419 0.241796 8.11788 1.00758 8.43655L11.5593 13.9414Z" fill="#927AE8"/>
<path d="M16.8955 17.1679V27.2854C16.8955 27.8032 16.428 28.0105 15.9363 27.7874L1.00758 20.0041C0.491683 19.781 0.0563965 19.5818 0.0563965 19.056V18.833C0.0563965 19.3588 0.241796 19.7651 1.00758 19.4464L11.5593 13.9415L15.9363 16.2279C16.5247 16.5068 16.8955 16.6501 16.8955 17.1679Z" fill="#9F89ED"/>
</g>
</g>
<defs>
<clipPath id="clip0_13_65">
<rect width="89" height="40" fill="white"/>
</clipPath>
</defs>
</svg>
