<svg width="79" height="78" viewBox="0 0 79 78" fill="none" xmlns="http://www.w3.org/2000/svg">
<path d="M78.3721 39C78.3721 17.4609 60.8279 0 39.186 0C17.5442 0 0 17.4609 0 39C0 60.5391 17.5442 78 39.186 78C60.8279 78 78.3721 60.5391 78.3721 39Z" fill="#12FE74"/>
<path fill-rule="evenodd" clip-rule="evenodd" d="M50.2671 18.718C47.0194 17.0068 44.5543 14.001 43.5809 10.3887C43.2807 11.4932 43.1261 12.652 43.1261 13.8471C43.1261 14.7797 43.2261 15.685 43.408 16.5632C43.408 16.5632 43.408 16.5632 43.408 16.5723C43.408 16.5813 43.4171 16.5994 43.4171 16.6085C43.6627 17.7854 44.0629 18.899 44.5997 19.9311C43.4534 19.0892 42.4346 18.0842 41.5795 16.9525C40.4335 25.7979 43.6627 35.0054 49.5664 41.0712C57.2715 49.9981 50.167 65.1449 38.1591 64.7466C21.1664 64.8914 18.2554 39.985 34.5569 36.0738L34.5477 36.0285C38.8961 34.6251 40.9338 31.8095 41.2885 28.1518C35.0117 33.2127 25.0962 26.9387 27.152 19.0801C3.5914 30.6234 12.3425 68.0691 39.0507 67.6074C50.6856 67.6074 60.5281 59.948 63.7576 49.4188C67.6145 37.1421 61.3742 24.0596 50.2671 18.718Z" fill="black"/>
</svg>
