<svg width="119" height="30" viewBox="0 0 119 30" fill="none" xmlns="http://www.w3.org/2000/svg">
<g clip-path="url(#clip0_4552_20048)">
<mask id="mask0_4552_20048" style="mask-type:luminance" maskUnits="userSpaceOnUse" x="0" y="0" width="119" height="30">
<path d="M118.679 0.535767H0.822266V29.4643H118.679V0.535767Z" fill="white"/>
</mask>
<g mask="url(#mask0_4552_20048)">
<path d="M49.5939 4.77991C47.4245 4.77991 45.8471 5.291 44.5069 6.47L42.1403 8.51356C41.943 8.6712 41.5485 8.78901 41.2729 8.55256C40.9965 8.31692 40.9574 8.00246 41.1939 7.68801L42.4558 5.80128C42.653 5.52583 42.4958 5.17236 42.1403 5.17236H39.1036C38.749 5.17236 38.4727 5.44781 38.4727 5.80128V24.1974C38.4727 24.5508 38.749 24.8263 39.1036 24.8263H42.2585C42.6132 24.8263 42.8895 24.5508 42.8895 24.1974V13.8203C42.8895 9.06446 46.8727 8.31773 48.371 8.31773C51.5651 8.31773 52.7088 10.5977 52.7088 12.3268V24.1974C52.7088 24.5508 52.9852 24.8263 53.3398 24.8263H56.4946C56.8493 24.8263 57.1257 24.5508 57.1257 24.1974V11.9336C57.1257 7.53119 54.2472 4.77991 49.5939 4.77991Z" fill="white"/>
<path d="M69.9814 4.70105C63.8689 4.70105 59.9648 8.43551 59.9648 13.5058V16.2969C59.9648 21.6426 63.8689 25.2983 69.9814 25.2983C75.3839 25.2983 79.1697 22.5073 79.5643 18.7338C79.6042 18.3405 79.3279 18.0659 78.9333 18.0659H75.8575C75.5811 18.0659 75.3447 18.2235 75.2656 18.4981C74.8711 19.7559 73.0181 21.6426 69.9814 21.6426C66.9447 21.6426 64.1053 19.4415 64.1445 16.2969L64.1843 12.7989C64.2236 10.1654 66.9846 8.35751 69.9814 8.35751C72.7026 8.35751 75.3447 9.89079 75.6202 12.4065C75.6431 12.6974 75.4425 12.9598 75.1548 13.015L66.313 14.7255C65.9583 14.8042 65.682 15.1187 65.682 15.5112V15.5502C65.682 15.9036 66.0365 16.2181 66.5493 16.2181H79.248C79.5968 16.2181 79.879 15.9362 79.879 15.5892V13.1134C79.879 8.43633 75.8167 4.70186 69.9806 4.70186L69.9814 4.70105Z" fill="white"/>
<path d="M91.9861 4.70101C87.0565 4.70101 82.7977 7.57011 82.7977 11.3436C82.7977 11.658 83.0742 11.8936 83.4287 11.8936H86.6227C86.9383 11.8936 87.1746 11.658 87.2146 11.3436C87.5301 9.61448 89.6203 8.35666 91.8679 8.35666C94.5492 8.35666 96.3639 10.0078 96.3639 12.8379V16.2579C96.3639 19.7559 93.7608 21.5248 90.5268 21.5248C88.003 21.5248 86.5437 20.5814 86.5437 19.0481C86.5437 17.7115 87.2537 16.5715 90.1714 15.9036L94.391 14.7636C94.8246 14.6457 94.9828 14.2915 94.9037 13.899C94.8646 13.5846 94.51 13.427 94.1937 13.427H89.8168C86.11 13.427 82.3633 15.785 82.3633 19.244V19.794C82.3633 23.3319 85.7155 25.1788 89.5405 25.1788C91.9852 25.1788 94.0755 24.2354 95.3765 23.1353L97.3095 21.4842C97.6249 21.2088 97.9405 21.2088 98.2159 21.4842C98.4524 21.7198 98.3733 22.074 98.1761 22.3488L96.9931 24.1964C96.7958 24.4719 96.9532 24.8254 97.3086 24.8254H100.148C100.503 24.8254 100.779 24.5499 100.779 24.1964V12.2861C100.779 7.72694 97.5059 4.7002 91.9845 4.7002L91.9861 4.70101Z" fill="white"/>
<path d="M117.815 5.1731H113.397C111.86 5.1731 110.361 6.11646 109.296 7.02083L107.561 8.51428C107.364 8.67192 107.009 8.78974 106.772 8.59311C106.496 8.39647 106.378 8.0032 106.615 7.68874L107.877 5.802C108.074 5.52655 107.917 5.1731 107.561 5.1731H104.604C104.249 5.1731 103.973 5.44855 103.973 5.802V24.198C103.973 24.5515 104.249 24.827 104.604 24.827H107.838C108.192 24.827 108.468 24.5515 108.468 24.198V14.7644C108.468 10.7155 110.125 8.90756 113.714 8.90756H117.815C118.169 8.90756 118.446 8.63211 118.446 8.27864V5.802C118.446 5.44855 118.169 5.1731 117.815 5.1731Z" fill="white"/>
<path d="M26.6207 0.739868C25.5609 0.739868 24.5769 1.28752 24.0218 2.18782L18.0406 11.0389C17.8457 11.3306 17.9248 11.7239 18.2175 11.9181C18.4547 12.0757 18.7685 12.0562 18.9846 11.871L24.8721 6.78116C24.9699 6.69341 25.1207 6.70234 25.2088 6.79984C25.2487 6.84453 25.2699 6.90223 25.2699 6.96154V22.8973C25.2699 23.0288 25.1631 23.1345 25.031 23.1345C24.9601 23.1345 24.8933 23.1036 24.8484 23.0492L7.05142 1.81568C6.47181 1.13396 5.62072 0.740681 4.72479 0.739868H4.10279C2.41936 0.739868 1.05469 2.10007 1.05469 3.77798V26.2221C1.05469 27.9001 2.41936 29.2603 4.10279 29.2603C5.16257 29.2603 6.14654 28.7126 6.7017 27.8123L12.683 18.9613C12.8778 18.6695 12.7987 18.2763 12.506 18.082C12.2688 17.9244 11.955 17.9439 11.739 18.1292L5.85142 23.219C5.7536 23.3068 5.60279 23.2978 5.51475 23.2003C5.47479 23.1556 5.4536 23.0979 5.45442 23.0386V7.09887C5.45442 6.96723 5.56121 6.8616 5.69327 6.8616C5.76338 6.8616 5.83104 6.89248 5.87588 6.94692L23.6705 28.1844C24.25 28.8662 25.1012 29.2595 25.9971 29.2603H26.6191C28.3025 29.2611 29.668 27.9017 29.6696 26.2238V3.77798C29.6696 2.10007 28.3041 0.739868 26.6207 0.739868Z" fill="white"/>
</g>
</g>
<defs>
<clipPath id="clip0_4552_20048">
<rect width="117.857" height="30" fill="white" transform="translate(0.822266)"/>
</clipPath>
</defs>
</svg>
