<svg width="160" height="34" viewBox="0 0 160 34" fill="none" xmlns="http://www.w3.org/2000/svg">
<g clip-path="url(#clip0_4552_19912)">
<path d="M49.6364 5.07239C47.7753 5.07239 45.9816 5.30624 45.2511 5.50393C44.1879 5.80287 43.9227 6.26816 43.7227 7.2325L39.5037 26.7C39.4362 27.0978 39.3711 27.4305 39.3711 27.7632C39.3711 28.7275 40.0027 29.3567 41.0322 29.3567C42.1628 29.3567 42.6281 28.6262 42.8596 27.4956L44.0553 21.9482C44.8847 22.0471 45.9816 22.1483 47.5438 22.1483C54.4219 22.1483 58.706 18.4284 58.706 12.8136C58.706 7.89547 55.2826 5.07239 49.6364 5.07239ZM47.3775 18.9588C46.3143 18.9588 45.4826 18.925 44.7207 18.8262L46.9459 8.49336C47.6427 8.39452 48.6745 8.25951 49.7377 8.25951C53.3925 8.25951 55.2537 9.98808 55.2537 12.8449C55.2513 16.4997 52.5921 18.9588 47.3775 18.9588Z" fill="white"/>
<path d="M157.871 22.9439C157.307 22.9439 156.94 23.2766 156.243 24.0409C155.014 25.3041 154.25 26.0009 153.288 26.0009C152.425 26.0009 151.959 25.3041 151.959 24.1735C151.959 23.5418 152.092 22.7776 152.258 21.9483L153.488 16.1671H157.176C158.338 16.1671 159.038 15.5017 159.038 14.3059C159.038 13.6405 158.606 13.1439 157.61 13.1439H154.151L154.749 10.4534C154.816 10.0556 154.881 9.68917 154.881 9.35647C154.881 8.42589 154.25 7.7605 153.22 7.7605C152.123 7.7605 151.627 8.49098 151.393 9.62166L150.629 13.1439H149.066C147.871 13.1439 147.174 13.8093 147.174 15.0051C147.174 15.6704 147.639 16.1671 148.635 16.1671H149.997L148.767 21.8808C148.635 22.5124 148.468 23.5418 148.468 24.605C148.468 27.2955 149.864 29.2555 152.854 29.2555C154.582 29.2555 156.108 28.3924 157.273 27.3606C158.403 26.3649 159.233 25.1354 159.233 24.3374C159.233 23.5756 158.635 22.9439 157.871 22.9439Z" fill="white"/>
<path d="M81.4611 7.03237C81.4611 6.06804 80.7957 5.4364 79.7663 5.4364C78.6694 5.4364 78.1728 6.16688 77.9389 7.29757L73.7874 26.5987C73.6886 26.9965 73.6211 27.3292 73.6211 27.6619C73.6211 28.6262 74.2865 29.2554 75.2822 29.2554C76.4128 29.2554 76.9095 28.525 77.1433 27.3943L81.2948 8.09555C81.3623 7.69535 81.4611 7.36507 81.4611 7.03237Z" fill="white"/>
<path d="M140.76 12.8112C135.445 12.8112 131.824 18.0933 131.824 23.1103C131.824 23.2043 131.826 23.2983 131.828 23.3899C130.994 24.6556 129.929 25.9671 129.198 25.9671C128.668 25.9671 128.468 25.4681 128.468 24.7038C128.468 23.7733 128.733 22.211 129.032 20.8489L131.79 8.09079C131.857 7.693 131.922 7.36031 131.922 7.02761C131.922 6.06328 131.291 5.43164 130.261 5.43164C129.131 5.43164 128.668 6.16212 128.434 7.2928L126.939 14.2023C126.141 13.3729 124.977 12.8064 123.217 12.8064C119.687 12.8064 116.136 15.5234 114.752 19.6917C113.229 23.631 111.867 25.9623 110.791 25.9623C110.394 25.9623 110.16 25.6296 110.16 25.0655C110.16 23.4044 111.09 19.3518 111.488 17.3918C111.621 16.6613 111.688 16.3624 111.688 15.9308C111.688 14.4699 109.263 12.7413 106.107 12.7413C102.457 12.7413 99.1519 15.0533 97.4956 18.4863C95.0342 22.8355 92.7752 25.9623 91.6566 25.9623C91.1576 25.9623 90.9912 25.3307 90.8586 24.7328L90.0317 20.1546L95.1137 16.0031C95.579 15.6054 96.1769 15.0388 96.1769 14.3083C96.1769 13.4115 95.579 12.8136 94.6822 12.8136C94.0168 12.8136 93.4527 13.2114 92.8885 13.6767L85.2486 19.9883L87.8065 8.09561C87.874 7.69782 87.9728 7.36513 87.9728 7.03243C87.9728 6.0681 87.3075 5.43646 86.278 5.43646C85.1811 5.43646 84.6845 6.16695 84.4506 7.29763L80.2992 26.5988C80.2003 26.9966 80.1328 27.3293 80.1328 27.6619C80.1328 28.6263 80.7982 29.2555 81.7939 29.2555C82.9246 29.2555 83.4212 28.525 83.655 27.3943L84.1878 24.904L87.3099 22.3798L88.0741 26.2323C88.373 27.7608 89.171 29.2555 91.2299 29.2555C93.2791 29.2555 94.8919 27.3847 96.5072 24.8557C96.9966 27.5052 98.8819 29.2555 101.498 29.2555C104.123 29.2555 105.917 27.6933 107.079 25.6007V25.6682C107.079 27.8283 108.176 29.2555 110.102 29.2555C111.845 29.2555 113.291 28.2044 114.584 25.972C115.317 27.9175 116.956 29.2555 119.237 29.2555C121.927 29.2555 123.853 27.6282 125.083 25.3692V25.5693C125.083 27.9609 126.279 29.2579 128.239 29.2579C129.97 29.2579 131.44 28.2526 132.696 26.6181C133.651 28.2526 135.363 29.2579 137.675 29.2579C142.991 29.2579 146.612 23.9758 146.612 18.9251C146.609 15.3691 144.449 12.8112 140.76 12.8112ZM107.64 19.5567C106.676 23.7082 104.617 26.0684 102.291 26.0684C100.729 26.0684 99.8655 24.8726 99.8655 23.0789C99.8655 19.5567 102.423 15.7693 105.844 15.7693C106.874 15.7693 107.672 16.0682 108.369 16.4998L107.64 19.5567ZM126.144 17.7968C125.08 22.6812 122.655 26.0684 119.998 26.0684C118.537 26.0684 117.672 24.9377 117.672 23.0789C117.672 19.5254 120.131 15.8368 123.419 15.8368C124.683 15.8368 125.645 16.2683 126.344 16.8325L126.144 17.7968ZM138.07 26.0684C136.144 26.0684 135.346 24.6725 135.346 22.9126C135.346 19.6893 137.571 16.0031 140.363 16.0031C142.289 16.0031 143.087 17.399 143.087 19.1589C143.087 22.4136 140.862 26.0684 138.07 26.0684Z" fill="white"/>
<path d="M66.978 12.8112C61.6621 12.8112 58.041 18.0933 58.041 23.1102C58.041 26.6976 60.2011 29.2555 63.8873 29.2555C69.2032 29.2555 72.8243 23.9733 72.8243 18.9226C72.8243 15.3691 70.6641 12.8112 66.978 12.8112ZM64.2875 26.0683C62.3612 26.0683 61.5632 24.6725 61.5632 22.9126C61.5632 19.6893 63.7884 16.0031 66.5802 16.0031C68.5065 16.0031 69.3044 17.399 69.3044 19.1589C69.302 22.4135 67.0768 26.0683 64.2875 26.0683Z" fill="white"/>
<path d="M16.2518 7.13125C19.6378 7.13125 22.3826 5.53486 22.3826 3.56562C22.3826 1.59638 19.6378 0 16.2518 0C12.8659 0 10.1211 1.59638 10.1211 3.56562C10.1211 5.53486 12.8659 7.13125 16.2518 7.13125Z" fill="#E6007A"/>
<path d="M16.2518 33.9976C19.6378 33.9976 22.3826 32.4012 22.3826 30.432C22.3826 28.4627 19.6378 26.8663 16.2518 26.8663C12.8659 26.8663 10.1211 28.4627 10.1211 30.432C10.1211 32.4012 12.8659 33.9976 16.2518 33.9976Z" fill="#E6007A"/>
<path d="M7.7081 12.0669C9.40106 9.1347 9.39008 5.95895 7.68356 4.97366C5.97705 3.98838 3.22123 5.56667 1.52827 8.49887C-0.164694 11.4311 -0.153706 14.6068 1.55281 15.5921C3.25932 16.5774 6.01514 14.9991 7.7081 12.0669Z" fill="#E6007A"/>
<path d="M30.9715 25.4985C32.6645 22.5663 32.6544 19.391 30.9491 18.4064C29.2437 17.4218 26.4888 19.0006 24.7958 21.9328C23.1029 24.865 23.1129 28.0403 24.8183 29.0249C26.5237 30.0095 29.2785 28.4307 30.9715 25.4985Z" fill="#E6007A"/>
<path d="M7.68356 29.0241C9.39008 28.0389 9.40106 24.8631 7.7081 21.9309C6.01514 18.9987 3.25932 17.4204 1.55281 18.4057C-0.153706 19.391 -0.164694 22.5667 1.52827 25.4989C3.22123 28.4311 5.97705 30.0094 7.68356 29.0241Z" fill="#E6007A"/>
<path d="M30.951 15.5929C32.6564 14.6082 32.6664 11.433 30.9735 8.50081C29.2805 5.5686 26.5256 3.98977 24.8203 4.97439C23.1149 5.95901 23.1048 9.13423 24.7978 12.0664C26.4908 14.9986 29.2456 16.5775 30.951 15.5929Z" fill="#E6007A"/>
</g>
<defs>
<clipPath id="clip0_4552_19912">
<rect width="158.966" height="34" fill="white" transform="translate(0.267578)"/>
</clipPath>
</defs>
</svg>
