<svg width="160" height="34" viewBox="0 0 160 34" fill="none" xmlns="http://www.w3.org/2000/svg">
<g clip-path="url(#clip0_4516_109282)">
<path d="M49.6364 5.07239C47.7753 5.07239 45.9816 5.30624 45.2511 5.50393C44.1879 5.80287 43.9227 6.26816 43.7227 7.2325L39.5037 26.7C39.4362 27.0978 39.3711 27.4305 39.3711 27.7632C39.3711 28.7275 40.0027 29.3567 41.0322 29.3567C42.1628 29.3567 42.6281 28.6262 42.8596 27.4956L44.0553 21.9482C44.8847 22.0471 45.9816 22.1483 47.5438 22.1483C54.4219 22.1483 58.706 18.4284 58.706 12.8136C58.706 7.89547 55.2826 5.07239 49.6364 5.07239ZM47.3775 18.9588C46.3143 18.9588 45.4826 18.925 44.7207 18.8262L46.9459 8.49336C47.6427 8.39452 48.6745 8.25951 49.7377 8.25951C53.3925 8.25951 55.2537 9.98808 55.2537 12.8449C55.2513 16.4997 52.5921 18.9588 47.3775 18.9588Z" fill="black"/>
<path d="M157.871 22.9439C157.307 22.9439 156.94 23.2766 156.243 24.0409C155.014 25.3041 154.25 26.0009 153.288 26.0009C152.425 26.0009 151.959 25.3041 151.959 24.1735C151.959 23.5418 152.092 22.7776 152.258 21.9483L153.488 16.1671H157.176C158.338 16.1671 159.038 15.5017 159.038 14.3059C159.038 13.6405 158.606 13.1439 157.61 13.1439H154.151L154.749 10.4534C154.816 10.0556 154.881 9.68917 154.881 9.35647C154.881 8.42589 154.25 7.7605 153.22 7.7605C152.123 7.7605 151.627 8.49098 151.393 9.62166L150.629 13.1439H149.066C147.871 13.1439 147.174 13.8093 147.174 15.0051C147.174 15.6704 147.639 16.1671 148.635 16.1671H149.997L148.767 21.8808C148.635 22.5124 148.468 23.5418 148.468 24.605C148.468 27.2955 149.864 29.2555 152.854 29.2555C154.582 29.2555 156.108 28.3924 157.273 27.3606C158.403 26.3649 159.233 25.1354 159.233 24.3374C159.233 23.5756 158.635 22.9439 157.871 22.9439Z" fill="black"/>
<path d="M81.4621 7.03237C81.4621 6.06804 80.7967 5.4364 79.7673 5.4364C78.6704 5.4364 78.1737 6.16688 77.9399 7.29757L73.7884 26.5987C73.6896 26.9965 73.6221 27.3292 73.6221 27.6619C73.6221 28.6262 74.2875 29.2554 75.2831 29.2554C76.4138 29.2554 76.9105 28.525 77.1443 27.3943L81.2958 8.09555C81.3633 7.69535 81.4621 7.36507 81.4621 7.03237Z" fill="black"/>
<path d="M140.761 12.8112C135.446 12.8112 131.824 18.0933 131.824 23.1103C131.824 23.2043 131.827 23.2983 131.829 23.3899C130.995 24.6556 129.93 25.9671 129.199 25.9671C128.669 25.9671 128.469 25.4681 128.469 24.7038C128.469 23.7733 128.734 22.211 129.033 20.8489L131.791 8.09079C131.858 7.693 131.923 7.36031 131.923 7.02761C131.923 6.06328 131.292 5.43164 130.262 5.43164C129.132 5.43164 128.669 6.16212 128.435 7.2928L126.94 14.2023C126.142 13.3729 124.978 12.8064 123.218 12.8064C119.688 12.8064 116.137 15.5234 114.753 19.6917C113.23 23.631 111.868 25.9623 110.792 25.9623C110.395 25.9623 110.161 25.6296 110.161 25.0655C110.161 23.4044 111.091 19.3518 111.489 17.3918C111.622 16.6613 111.689 16.3624 111.689 15.9308C111.689 14.4699 109.264 12.7413 106.108 12.7413C102.458 12.7413 99.1529 15.0533 97.4966 18.4863C95.0352 22.8355 92.7762 25.9623 91.6576 25.9623C91.1585 25.9623 90.9922 25.3307 90.8596 24.7328L90.0327 20.1546L95.1147 16.0031C95.58 15.6054 96.1779 15.0388 96.1779 14.3083C96.1779 13.4115 95.58 12.8136 94.6832 12.8136C94.0178 12.8136 93.4536 13.2114 92.8895 13.6767L85.2496 19.9883L87.8075 8.09561C87.875 7.69782 87.9738 7.36513 87.9738 7.03243C87.9738 6.0681 87.3084 5.43646 86.279 5.43646C85.1821 5.43646 84.6854 6.16695 84.4516 7.29763L80.3001 26.5988C80.2013 26.9966 80.1338 27.3293 80.1338 27.6619C80.1338 28.6263 80.7992 29.2555 81.7949 29.2555C82.9255 29.2555 83.4222 28.525 83.656 27.3943L84.1888 24.904L87.3108 22.3798L88.0751 26.2323C88.374 27.7608 89.172 29.2555 91.2309 29.2555C93.2801 29.2555 94.8929 27.3847 96.5082 24.8557C96.9976 27.5052 98.8828 29.2555 101.499 29.2555C104.124 29.2555 105.918 27.6933 107.08 25.6007V25.6682C107.08 27.8283 108.177 29.2555 110.103 29.2555C111.846 29.2555 113.292 28.2044 114.585 25.972C115.318 27.9175 116.957 29.2555 119.238 29.2555C121.928 29.2555 123.854 27.6282 125.084 25.3692V25.5693C125.084 27.9609 126.28 29.2579 128.24 29.2579C129.971 29.2579 131.441 28.2526 132.697 26.6181C133.652 28.2526 135.364 29.2579 137.676 29.2579C142.991 29.2579 146.613 23.9758 146.613 18.9251C146.61 15.3691 144.45 12.8112 140.761 12.8112ZM107.641 19.5567C106.677 23.7082 104.618 26.0684 102.292 26.0684C100.73 26.0684 99.8665 24.8726 99.8665 23.0789C99.8665 19.5567 102.424 15.7693 105.845 15.7693C106.875 15.7693 107.673 16.0682 108.369 16.4998L107.641 19.5567ZM126.145 17.7968C125.081 22.6812 122.656 26.0684 119.999 26.0684C118.538 26.0684 117.673 24.9377 117.673 23.0789C117.673 19.5254 120.132 15.8368 123.42 15.8368C124.684 15.8368 125.646 16.2683 126.345 16.8325L126.145 17.7968ZM138.071 26.0684C136.145 26.0684 135.347 24.6725 135.347 22.9126C135.347 19.6893 137.572 16.0031 140.364 16.0031C142.29 16.0031 143.088 17.399 143.088 19.1589C143.088 22.4136 140.863 26.0684 138.071 26.0684Z" fill="black"/>
<path d="M66.978 12.8112C61.6621 12.8112 58.041 18.0933 58.041 23.1102C58.041 26.6976 60.2011 29.2555 63.8873 29.2555C69.2032 29.2555 72.8243 23.9733 72.8243 18.9226C72.8243 15.3691 70.6641 12.8112 66.978 12.8112ZM64.2875 26.0683C62.3612 26.0683 61.5632 24.6725 61.5632 22.9126C61.5632 19.6893 63.7884 16.0031 66.5802 16.0031C68.5065 16.0031 69.3044 17.399 69.3044 19.1589C69.302 22.4135 67.0768 26.0683 64.2875 26.0683Z" fill="black"/>
<path d="M16.2518 7.13125C19.6378 7.13125 22.3826 5.53486 22.3826 3.56562C22.3826 1.59638 19.6378 0 16.2518 0C12.8659 0 10.1211 1.59638 10.1211 3.56562C10.1211 5.53486 12.8659 7.13125 16.2518 7.13125Z" fill="#E6007A"/>
<path d="M16.2518 33.9976C19.6378 33.9976 22.3826 32.4012 22.3826 30.432C22.3826 28.4627 19.6378 26.8663 16.2518 26.8663C12.8659 26.8663 10.1211 28.4627 10.1211 30.432C10.1211 32.4012 12.8659 33.9976 16.2518 33.9976Z" fill="#E6007A"/>
<path d="M7.7081 12.0669C9.40106 9.1347 9.39008 5.95895 7.68356 4.97366C5.97705 3.98838 3.22123 5.56667 1.52827 8.49887C-0.164694 11.4311 -0.153706 14.6068 1.55281 15.5921C3.25932 16.5774 6.01514 14.9991 7.7081 12.0669Z" fill="#E6007A"/>
<path d="M30.9725 25.4985C32.6654 22.5663 32.6554 19.391 30.95 18.4064C29.2447 17.4218 26.4898 19.0006 24.7968 21.9328C23.1039 24.865 23.1139 28.0403 24.8193 29.0249C26.5246 30.0095 29.2795 28.4307 30.9725 25.4985Z" fill="#E6007A"/>
<path d="M7.68454 29.0241C9.39105 28.0389 9.40204 24.8631 7.70908 21.9309C6.01612 18.9987 3.2603 17.4204 1.55379 18.4057C-0.152729 19.391 -0.163717 22.5667 1.52924 25.4989C3.2222 28.4311 5.97802 30.0094 7.68454 29.0241Z" fill="#E6007A"/>
<path d="M30.951 15.5929C32.6564 14.6082 32.6664 11.433 30.9735 8.50081C29.2805 5.5686 26.5256 3.98977 24.8203 4.97439C23.1149 5.95901 23.1048 9.13423 24.7978 12.0664C26.4908 14.9986 29.2456 16.5775 30.951 15.5929Z" fill="#E6007A"/>
</g>
<defs>
<clipPath id="clip0_4516_109282">
<rect width="158.966" height="34" fill="white" transform="translate(0.267578)"/>
</clipPath>
</defs>
</svg>
