<svg width="161" height="36" viewBox="0 0 161 36" fill="none" xmlns="http://www.w3.org/2000/svg">
<mask id="mask0_4894_553" style="mask-type:luminance" maskUnits="userSpaceOnUse" x="0" y="0" width="161" height="36">
<path d="M160.275 0.293701H0.182617V35.7967H160.275V0.293701Z" fill="white"/>
</mask>
<g mask="url(#mask0_4894_553)">
<path d="M62.8141 11.5527C63.7964 12.1531 64.6276 12.9788 65.1561 14.1047C65.7606 15.2306 66.0629 16.5816 66.0629 18.0828C66.0629 19.584 65.7606 20.86 65.0806 21.9859C64.4765 23.1118 63.5698 23.9374 62.4364 24.4629C61.3033 25.0633 59.9432 25.3636 58.508 25.3636C57.6768 25.3636 56.9212 25.2134 56.1656 24.9132C55.4104 24.688 54.7304 24.2377 54.2014 23.7122V31.5184H49.8193V10.9522H53.597L53.9748 12.6035C55.6367 11.2524 57.4502 10.5769 59.3388 10.5769C60.6233 10.5769 61.8319 10.8771 62.8141 11.5527ZM60.3966 20.86C61.1522 20.1845 61.53 19.2838 61.53 18.1579C61.53 17.032 61.1522 16.1313 60.4722 15.3807C59.7921 14.6301 58.8854 14.3298 57.9035 14.3298C57.0723 14.3298 56.3167 14.48 55.7123 14.8552C55.1082 15.1555 54.6548 15.6809 54.277 16.3564V19.7341C54.5037 20.4097 54.9571 20.9351 55.486 21.3104C56.0901 21.6856 56.7701 21.9108 57.6013 21.9108C58.7343 21.9108 59.641 21.5355 60.3966 20.86Z" fill="#041025"/>
<path d="M68.6313 14.2549C69.3113 13.204 70.2181 12.3033 71.4266 11.7028C72.6356 11.1024 73.9957 10.7271 75.5065 10.7271C77.0177 10.7271 78.3774 11.0273 79.5864 11.7028C80.7194 12.3033 81.6261 13.204 82.3062 14.3299C82.9862 15.4558 83.2884 16.6567 83.2884 18.0829C83.2884 19.509 82.9862 20.7099 82.3062 21.8358C81.6261 22.9617 80.795 23.8624 79.5864 24.4629C78.453 25.0634 77.0177 25.4387 75.5065 25.4387C73.9957 25.4387 72.6356 25.1384 71.4266 24.538C70.2181 23.9375 69.3113 23.1118 68.6313 21.986C68.0272 20.8601 67.6494 19.584 67.6494 18.0829C67.6494 16.5817 68.0272 15.3807 68.6313 14.2549ZM73.089 20.785C73.6935 21.5356 74.5242 21.8358 75.5065 21.8358C76.4888 21.8358 77.32 21.4606 77.9241 20.785C78.5285 20.1095 78.8308 19.1337 78.8308 18.0829C78.8308 16.957 78.5285 16.0563 77.9241 15.3807C77.2444 14.6302 76.4888 14.2549 75.431 14.2549C74.4487 14.2549 73.6935 14.6302 73.0134 15.3057C72.4089 16.0563 72.1067 16.957 72.1067 18.0829C72.1067 19.1337 72.4089 20.0344 73.089 20.785Z" fill="#041025"/>
<path d="M90.3905 0.293701V24.9882H86.0088V0.293701H90.3905Z" fill="#041025"/>
<path d="M108.372 11.4023L99.4567 31.6683H95.2261L98.5504 24.3876L92.2041 11.4023H97.1903L100.817 19.5087L104.443 11.4023H108.372Z" fill="#041025"/>
<path d="M125.143 11.4026V25.0634C125.143 26.3394 124.766 27.5403 124.01 28.5912C123.255 29.642 122.272 30.4676 120.988 31.0681C119.704 31.6686 118.344 31.9688 116.833 31.9688C115.7 31.9688 114.718 31.8187 113.886 31.5935C113.055 31.2933 112.375 30.9931 111.846 30.6928C111.242 30.3175 110.638 29.8672 109.958 29.2667L112.526 26.2643C113.131 26.8648 113.811 27.3151 114.415 27.6154C115.019 27.9156 115.851 28.1408 116.757 28.1408C117.891 28.1408 118.797 27.8406 119.553 27.3151C120.308 26.7897 120.686 25.9641 120.686 24.9883V23.0368C120.233 23.7123 119.628 24.3128 118.722 24.7631C117.815 25.2135 116.757 25.4387 115.548 25.4387C114.34 25.4387 113.131 25.1384 112.073 24.4629C111.016 23.8624 110.184 22.9617 109.504 21.8358C108.9 20.7099 108.522 19.509 108.522 18.1579C108.522 16.8069 108.824 15.5308 109.504 14.405C110.184 13.2791 111.016 12.3784 112.149 11.7028C113.206 11.0273 114.34 10.7271 115.548 10.7271C116.682 10.7271 117.664 10.8772 118.57 11.1774C119.477 11.4777 120.157 11.928 120.611 12.4534L121.064 11.4026H125.143ZM120.686 19.8092V16.4315C120.384 15.756 119.931 15.2306 119.25 14.8553C118.57 14.48 117.815 14.2549 116.908 14.2549C115.851 14.2549 114.944 14.6302 114.189 15.3057C113.433 15.9812 113.055 16.8819 113.055 18.0078C113.055 19.0586 113.433 20.0344 114.189 20.785C114.944 21.5356 115.851 21.9109 116.908 21.9109C118.646 21.8358 119.931 21.1603 120.686 19.8092Z" fill="#041025"/>
<path d="M128.77 14.2549C129.45 13.1291 130.357 12.3034 131.566 11.6279C132.775 11.0274 134.134 10.6521 135.646 10.6521C137.156 10.6521 138.516 10.9523 139.725 11.6279C140.858 12.2283 141.765 13.1291 142.445 14.2549C143.049 15.3808 143.427 16.5818 143.427 18.0079C143.427 19.434 143.125 20.635 142.445 21.7609C141.841 22.8868 140.934 23.7875 139.725 24.3879C138.592 24.9884 137.156 25.3637 135.646 25.3637C134.134 25.3637 132.775 25.0635 131.566 24.463C130.357 23.8625 129.45 23.0369 128.77 21.911C128.09 20.7851 127.788 19.5091 127.788 17.9328C127.788 16.6568 128.09 15.3808 128.77 14.2549ZM133.152 20.7851C133.757 21.5357 134.588 21.8359 135.57 21.8359C136.552 21.8359 137.383 21.4606 137.988 20.7851C138.592 20.1095 138.894 19.1338 138.894 18.083C138.894 16.9571 138.592 16.0564 137.988 15.3808C137.383 14.7053 136.552 14.33 135.57 14.33C134.588 14.33 133.832 14.7053 133.152 15.3808C132.472 16.0564 132.17 17.0321 132.17 18.083C132.17 19.1338 132.548 20.0345 133.152 20.7851Z" fill="#041025"/>
<path d="M158.915 11.7779C159.821 12.5285 160.199 13.5043 160.275 14.7052V24.9883H155.817V16.3565C155.741 15.0054 155.062 14.3299 153.777 14.3299C152.795 14.3299 151.964 14.7803 151.36 15.756C150.755 16.7318 150.453 17.9327 150.453 19.3589V24.9883H146.071V11.4026H150.075L150.377 13.5793C150.906 12.6786 151.586 12.0031 152.493 11.4777C153.399 10.9522 154.457 10.7271 155.666 10.7271C156.95 10.7271 158.084 11.1024 158.915 11.8529V11.7779Z" fill="#041025"/>
<path d="M31.0829 11.1775C30.3274 10.7271 29.3453 10.7271 28.5142 11.1775L22.6212 14.6302L18.617 16.882L12.7241 20.3347C11.9686 20.7851 10.9864 20.7851 10.1553 20.3347L5.47116 17.6326C4.71568 17.1822 4.18679 16.3566 4.18679 15.4558V10.1267C4.18679 9.22594 4.64012 8.40028 5.47116 7.94992L10.0798 5.32283C10.8353 4.87247 11.8175 4.87247 12.6485 5.32283L17.2571 7.94992C18.0126 8.40028 18.5415 9.22594 18.5415 10.1267V13.5794L22.5457 11.2525V7.79979C22.5457 6.89908 22.0924 6.07345 21.2613 5.62309L12.7241 0.594114C11.9686 0.143759 10.9864 0.143759 10.1553 0.594114L1.46698 5.54801C0.635924 5.99836 0.182617 6.82403 0.182617 7.72474V17.7076C0.182617 18.6083 0.635924 19.434 1.46698 19.8844L10.1553 24.8382C10.9108 25.2886 11.893 25.2886 12.7241 24.8382L18.617 21.4606L22.6212 19.1337L28.5142 15.7561C29.2697 15.3057 30.2519 15.3057 31.0829 15.7561L35.6915 18.3832C36.447 18.8335 36.9759 19.6592 36.9759 20.5599V25.8891C36.9759 26.7898 36.5226 27.6155 35.6915 28.0658L31.0829 30.7679C30.3274 31.2183 29.3453 31.2183 28.5142 30.7679L23.9056 28.1409C23.1501 27.6905 22.6212 26.8648 22.6212 25.9641V22.5114L18.617 24.8382V28.291C18.617 29.1917 19.0703 30.0173 19.9014 30.4677L28.5897 35.4216C29.3453 35.872 30.3274 35.872 31.1585 35.4216L39.8467 30.4677C40.6023 30.0173 41.1312 29.1917 41.1312 28.291V18.3081C41.1312 17.4074 40.6778 16.5817 39.8467 16.1314L31.0829 11.1024V11.1775Z" fill="#8247E5"/>
</g>
</svg>
