<svg width="116" height="32" viewBox="0 0 116 32" fill="none" xmlns="http://www.w3.org/2000/svg">
<path fill-rule="evenodd" clip-rule="evenodd" d="M34.6865 24.252V8.35686H39.3162V9.77814C39.6433 9.39624 40.0252 9.06912 40.4603 8.79517C41.2773 8.24729 42.257 8.02974 43.3463 8.02974C43.6203 8.02974 43.8378 8.02974 44.1102 8.08453C44.3277 8.13932 44.6 8.19411 44.8192 8.2489L45.1447 8.35686V12.8914L44.6 12.7271C44.3261 12.6723 44.0006 12.5643 43.7299 12.5095C43.4559 12.4547 43.1836 12.4547 42.9113 12.4547C42.149 12.4547 41.4948 12.6191 41.0581 12.8914C40.6248 13.1312 40.2526 13.4675 39.9704 13.8744C39.7275 14.1976 39.5596 14.5708 39.4789 14.9669C39.3709 15.4584 39.3709 15.676 39.3709 15.7872V24.2536L34.6865 24.252ZM47.3233 24.252V8.35686H51.953V24.2536L47.3233 24.252ZM47.2138 3.71434C47.2138 3.11328 47.4329 2.56701 47.868 2.13031C48.3031 1.69361 48.9025 1.47446 49.5568 1.47446C50.2658 1.47446 50.8089 1.69361 51.3003 2.13031C51.7902 2.56701 52.0094 3.11328 52.0094 3.76913C52.0094 4.42498 51.7902 4.97126 51.3003 5.35316C50.827 5.79093 50.2013 6.0263 49.5568 6.00901C48.8478 6.00901 48.3047 5.78986 47.868 5.35316C47.4329 4.86168 47.2138 4.3154 47.2138 3.71434ZM54.8954 31.4099V8.35686H59.3607V9.77814C59.8111 9.27575 60.3706 8.88326 60.9963 8.63081C61.9901 8.18903 63.0671 7.96539 64.1547 7.97495C65.3536 7.97495 66.4429 8.19411 67.4227 8.63081C68.3732 9.05286 69.2263 9.66675 69.9285 10.434C70.6375 11.1978 71.1274 12.0728 71.5076 13.109C71.8348 14.0919 72.0539 15.1861 72.0539 16.3318C72.0682 17.448 71.8838 18.5579 71.5093 19.6095C71.1273 20.5924 70.5827 21.5222 69.9301 22.2329C69.2585 23.0103 68.4202 23.6261 67.4775 24.0344C66.5024 24.4762 65.4427 24.7 64.3722 24.6903C63.61 24.6903 62.9558 24.6355 62.4111 24.4711C61.884 24.3235 61.3733 24.1226 60.8867 23.8717C60.4635 23.662 60.0771 23.385 59.7426 23.0515L59.6878 22.9967V31.4631H54.8954V31.4099ZM63.3393 12.2356C62.7383 12.2356 62.1388 12.3451 61.7037 12.5643C61.2374 12.778 60.8132 13.0738 60.4516 13.4377C60.1145 13.8214 59.8551 14.2668 59.6878 14.7494C59.5251 15.2409 59.4155 15.7324 59.4155 16.2786C59.4155 16.8249 59.5251 17.3164 59.6894 17.8079C59.8506 18.2994 60.1245 18.7361 60.4516 19.118C60.7772 19.5015 61.2139 19.7738 61.7037 19.993C62.1936 20.2105 62.7383 20.3201 63.3377 20.3201C63.9372 20.3201 64.5366 20.2105 64.9717 19.993C65.4383 19.7782 65.8629 19.4819 66.2254 19.118C66.5509 18.7361 66.8232 18.2994 66.9876 17.8079C67.1615 17.3159 67.2535 16.7988 67.2599 16.277C67.2535 15.7562 67.1609 15.24 66.986 14.7494C66.8197 14.2671 66.5614 13.8216 66.2254 13.4377C65.8983 13.0558 65.4616 12.7818 64.9717 12.5643C64.5366 12.3451 63.9936 12.2356 63.3393 12.2356ZM73.7959 31.4099V8.35686H78.2627V9.77814C78.6978 9.28666 79.2441 8.90314 79.8967 8.63081C80.8906 8.18903 81.9676 7.96539 83.0551 7.97495C84.254 7.97495 85.3434 8.19411 86.3247 8.63081C87.2753 9.05286 88.1284 9.66675 88.8305 10.434C89.5395 11.1978 90.0278 12.0728 90.4097 13.109C90.7368 14.0919 90.9544 15.1861 90.9544 16.3318C90.9686 17.448 90.7842 18.5579 90.4097 19.6095C90.0278 20.5924 89.4831 21.5222 88.8305 22.2329C88.1594 23.0101 87.3216 23.6259 86.3795 24.0344C85.4044 24.476 84.3447 24.6998 83.2743 24.6903C82.5121 24.6903 81.8578 24.6355 81.3132 24.4711C80.7861 24.3235 80.2753 24.1226 79.7888 23.8717C79.3655 23.662 78.9791 23.385 78.6447 23.0515L78.5899 22.9967V31.4631H73.7959V31.4099ZM82.2929 12.2356C81.6951 12.2356 81.0956 12.3451 80.6589 12.5643C80.1926 12.778 79.7685 13.0738 79.4069 13.4377C79.0703 13.8215 78.8115 14.267 78.6447 14.7494C78.4803 15.2409 78.3707 15.7324 78.3707 16.2786C78.3707 16.8249 78.4803 17.3164 78.6447 17.8079C78.8074 18.2994 79.0798 18.7361 79.4069 19.118C79.734 19.5015 80.1691 19.7738 80.6589 19.993C81.1504 20.2105 81.6951 20.3201 82.2929 20.3201C82.8924 20.3201 83.4918 20.2105 83.9285 19.993C84.4184 19.7738 84.8535 19.4451 85.1806 19.118C85.5077 18.7361 85.7801 18.2994 85.9428 17.8079C86.1072 17.3164 86.2168 16.8249 86.2168 16.277C86.2103 15.7562 86.1178 15.24 85.9428 14.7494C85.776 14.267 85.5172 13.8215 85.1806 13.4377C84.8535 13.0558 84.4184 12.7818 83.9285 12.5643C83.4128 12.3401 82.8553 12.2281 82.2929 12.2356ZM92.8059 0H97.4355V24.5259H92.8059V0ZM107.895 24.6355C106.696 24.6355 105.607 24.418 104.573 24.0344C103.562 23.6552 102.637 23.0802 101.849 22.3424C101.085 21.6318 100.488 20.702 99.9961 19.719C99.561 18.6813 99.3435 17.5339 99.3435 16.2786C99.3435 15.0217 99.561 13.8744 99.9961 12.8366C100.42 11.8409 101.052 10.9472 101.849 10.2148C102.637 9.47712 103.562 8.90213 104.573 8.52284C105.636 8.12881 106.761 7.92482 107.895 7.92017C108.942 7.91892 109.978 8.12313 110.946 8.52123C111.871 8.90314 112.688 9.5042 113.342 10.2148C113.996 10.9239 114.486 11.8537 114.868 12.8914C115.248 13.9292 115.413 15.1861 115.413 16.551V18.0254H104.083C104.245 18.7909 104.627 19.3919 105.172 19.8834C105.825 20.4297 106.642 20.702 107.621 20.702C108.495 20.702 109.202 20.5393 109.748 20.2105C110.345 19.8286 110.836 19.3919 111.328 18.8456L111.598 18.5185L114.976 21.0855L114.704 21.4674C113.777 22.6148 112.742 23.4334 111.598 23.9249C110.293 24.418 109.093 24.6355 107.895 24.6355ZM110.673 14.3659C110.564 13.6021 110.291 13.001 109.802 12.5095C109.202 11.9616 108.385 11.6893 107.351 11.6893C106.316 11.6893 105.552 11.9632 105.008 12.5095C104.504 13.0174 104.163 13.6636 104.028 14.3659H110.673Z" fill="white"/>
<path fill-rule="evenodd" clip-rule="evenodd" d="M16.6538 28.4597C18.3426 31.6825 22.3196 32.9394 25.5328 31.2458C27.0793 30.4306 28.2398 29.0359 28.7605 27.3671C29.2811 25.6982 29.1195 23.891 28.3109 22.3411C27.744 21.2721 26.8973 20.3772 25.8614 19.7519C24.8255 19.1267 23.6392 18.7946 22.4292 18.7911C21.7749 18.7911 21.0659 18.6267 20.5212 18.1352C19.4867 17.3166 19.2144 15.8422 19.9218 14.7496C20.4664 13.8746 21.5558 13.5475 22.4823 13.6023C24.661 13.6023 26.7849 12.5098 28.0385 10.5422C29.9996 7.48371 29.0731 3.38746 26.0243 1.42152C24.5421 0.492321 22.752 0.188833 21.0465 0.577613C19.3409 0.966393 17.8591 2.01571 16.9261 3.49543C15.5645 5.62735 15.6193 8.30393 16.8166 10.3794C16.9261 10.5422 16.9809 10.7066 17.0905 10.8709C17.2516 11.1981 17.308 11.6348 17.308 12.0183C17.2946 12.3551 17.2148 12.686 17.0732 12.9919C16.9316 13.2979 16.7311 13.5729 16.483 13.8012C16.235 14.0294 15.9443 14.2065 15.6277 14.3223C15.3111 14.438 14.9747 14.4902 14.6379 14.4757C14.1475 14.4483 13.6743 14.2858 13.2705 14.0063C12.8667 13.7267 12.548 13.341 12.3497 12.8917V12.8369C11.7914 11.8879 11.0068 11.0919 10.066 10.5199C9.12515 9.948 8.05732 9.61794 6.95784 9.55923C6.09366 9.51683 5.22964 9.64613 4.41573 9.93968C3.60183 10.2332 2.85417 10.6852 2.21599 11.2694C1.57781 11.8536 1.06175 12.5586 0.697662 13.3435C0.33357 14.1284 0.128658 14.9776 0.0947738 15.8422C0.0150945 17.5847 0.629775 19.2877 1.80399 20.5776C2.97821 21.8675 4.61609 22.639 6.35839 22.723C8.92056 22.8326 11.1524 21.4677 12.3513 19.3922C12.5633 18.9281 12.9106 18.5389 13.3477 18.2758C13.7849 18.0127 14.2913 17.8878 14.8007 17.9177C14.965 17.9177 15.1294 17.9177 15.2374 17.9725C15.9996 18.1352 16.6554 18.5719 17.0357 19.2826C17.5256 20.2108 17.308 21.2485 16.7618 22.0687C16.2086 23.0393 15.9087 24.1335 15.8899 25.2504C15.871 26.3673 16.1337 27.471 16.6538 28.4597Z" fill="url(#paint0_radial_4552_19359)"/>
<defs>
<radialGradient id="paint0_radial_4552_19359" cx="0" cy="0" r="1" gradientUnits="userSpaceOnUse" gradientTransform="translate(1816.72 1236.71) scale(1520.67 1520.7)">
<stop stop-color="white"/>
<stop offset="1" stop-color="white"/>
</radialGradient>
</defs>
</svg>
