<svg width="172" height="32" viewBox="0 0 172 32" fill="none" xmlns="http://www.w3.org/2000/svg">
<path d="M58.6369 17.5256H65.0917C65.9993 17.5256 66.7347 18.2689 66.7347 19.1765C66.7347 20.0919 65.9993 20.8273 65.0917 20.8273H57.3068C57.1817 20.8273 57.0643 20.8743 56.9782 20.9525L54.6311 22.9789C54.2712 23.2919 54.4902 23.8787 54.9597 23.8787H64.7005C64.7005 23.8787 64.7083 23.8787 64.7083 23.8708C64.7083 23.863 64.7161 23.863 64.7161 23.863C64.8413 23.8708 64.9587 23.8787 65.0839 23.8787C67.6658 23.8787 69.7626 21.774 69.7626 19.1765C69.7626 16.7119 67.877 14.6855 65.4672 14.4899C65.4672 14.4899 65.4594 14.4899 65.4594 14.4821C65.4594 14.4743 65.4594 14.4743 65.4516 14.4743H58.5039C57.5963 14.4743 56.8609 13.731 56.8609 12.8234C56.8609 11.908 57.5963 11.1726 58.5039 11.1726H66.2731C66.3983 11.1726 66.5235 11.1256 66.6174 11.0396L68.8002 9.01315C69.1445 8.69236 68.9176 8.12122 68.456 8.12122H58.6369C58.5978 8.12122 58.5509 8.12122 58.5117 8.12122C55.9298 8.12122 53.833 10.2259 53.833 12.8234C53.833 15.421 55.9298 17.5256 58.5117 17.5256C58.5509 17.5256 58.59 17.5256 58.6369 17.5256Z" fill="black"/>
<path d="M96.2078 8.11341C95.9261 8.11341 95.6992 8.34031 95.6992 8.6298V23.3701C95.6992 23.6518 95.9261 23.8865 96.2078 23.8865H108.022C108.163 23.8865 108.296 23.8239 108.397 23.7222L109.876 22.1339C110.181 21.8053 109.954 21.2655 109.501 21.2655H99.1887C98.907 21.2655 98.6801 21.0386 98.6801 20.7491V8.62197C98.6801 8.34031 98.4532 8.10559 98.1716 8.10559H96.2078V8.11341Z" fill="black"/>
<path fill-rule="evenodd" clip-rule="evenodd" d="M77.2892 8.1134C77.2892 8.12123 77.2892 8.12123 77.2892 8.1134C75.7792 8.18382 74.5665 9.39653 74.4961 10.9066V20.8195C74.4961 20.8586 74.4961 20.9056 74.4961 20.9447C74.4961 22.5173 75.7323 23.8004 77.2892 23.863H88.0081C89.5572 23.7926 90.8012 22.5095 90.8012 20.9447C90.8012 20.9056 90.8012 20.8586 90.8012 20.8195V10.9144C90.7386 9.40436 89.5259 8.18382 88.0159 8.12123H77.2892V8.1134ZM79.2922 10.9144C79.2843 10.9144 79.2843 10.9144 79.2922 10.9144C78.3455 10.9535 77.5866 11.7202 77.5474 12.6748V18.9105C77.5474 18.9339 77.5474 18.9652 77.5474 18.9887C77.5474 19.9745 78.322 20.7882 79.2922 20.8273H86.013C86.9831 20.7882 87.7577 19.9745 87.7577 18.9887C87.7577 18.9652 87.7577 18.9339 87.7577 18.9105V12.6748C87.7186 11.7202 86.9597 10.9613 86.013 10.9144H79.2922Z" fill="black"/>
<path fill-rule="evenodd" clip-rule="evenodd" d="M127.049 23.3701C127.049 23.6518 127.276 23.8865 127.558 23.8865H129.561C129.843 23.8865 130.069 23.6596 130.069 23.3701V11.1725C130.069 11.1334 130.069 11.0865 130.069 11.0474C130.069 9.47475 128.841 8.19162 127.308 8.12903H117.019C116.98 8.12903 116.933 8.12903 116.894 8.12903C115.298 8.12903 114.007 9.43563 114.007 11.0552C114.007 11.0943 114.007 11.1413 114.007 11.1804V23.3779C114.007 23.6596 114.234 23.8943 114.515 23.8943H116.518C116.8 23.8943 117.027 23.6674 117.027 23.3779V18.3002C117.027 18.0185 117.254 17.7838 117.535 17.7838H126.564C126.846 17.7838 127.073 18.0107 127.073 18.3002V23.3701H127.049ZM117.011 14.975V12.44C117.011 11.4542 117.801 10.6562 118.772 10.6562H125.297C126.267 10.6562 127.057 11.4542 127.057 12.44V14.975C127.057 15.2567 126.83 15.4914 126.549 15.4914H117.52C117.238 15.4914 117.011 15.2645 117.011 14.975Z" fill="black"/>
<path fill-rule="evenodd" clip-rule="evenodd" d="M169.337 23.8865C169.056 23.8865 168.829 23.6596 168.829 23.3701V18.2924C168.829 18.0107 168.602 17.776 168.32 17.776H159.19C158.908 17.776 158.681 18.0029 158.681 18.2924V23.3701C158.681 23.6518 158.454 23.8865 158.173 23.8865H156.154C155.872 23.8865 155.646 23.6596 155.646 23.3701V11.1726C155.646 11.1334 155.646 11.0865 155.646 11.0474C155.646 9.43564 156.952 8.12122 158.564 8.12122C158.603 8.12122 158.65 8.12122 158.689 8.12122H169.087C170.636 8.19163 171.88 9.47476 171.88 11.0396C171.88 11.0787 171.88 11.1256 171.88 11.1647V23.3623C171.88 23.6439 171.653 23.8787 171.372 23.8787H169.337V23.8865ZM158.681 12.44V14.975C158.681 15.2567 158.908 15.4914 159.19 15.4914H168.32C168.602 15.4914 168.829 15.2645 168.829 14.975V12.44C168.829 11.4542 168.031 10.6562 167.053 10.6562H160.457C159.471 10.6562 158.681 11.4542 158.681 12.44Z" fill="black"/>
<path d="M137.612 8.1134C137.76 8.1134 137.901 8.176 137.995 8.29335L146.977 19.0044C147.282 19.3643 147.869 19.1452 147.869 18.6679V8.62979C147.869 8.34812 148.096 8.1134 148.377 8.1134H150.38C150.662 8.1134 150.889 8.3403 150.889 8.62979V23.3701C150.889 23.6518 150.662 23.8865 150.38 23.8865H147.892C147.884 23.8865 147.877 23.8787 147.877 23.8709C147.877 23.863 147.877 23.863 147.869 23.8552L138.73 13.2224C138.425 12.8625 137.838 13.0894 137.838 13.5589V23.3779C137.838 23.6596 137.612 23.8943 137.33 23.8943H135.311C135.03 23.8943 134.803 23.6674 134.803 23.3779V8.62979C134.803 8.34812 135.03 8.1134 135.311 8.1134H137.612Z" fill="black"/>
<path d="M7.2566 24.4264C7.50697 24.176 7.8434 24.0352 8.19548 24.0352H40.7823C41.3769 24.0352 41.6742 24.755 41.2517 25.1696L34.8126 31.6087C34.5622 31.8591 34.2258 31.9999 33.8737 31.9999H1.28693C0.692305 31.9999 0.394994 31.2801 0.817488 30.8655L7.2566 24.4264Z" fill="url(#paint0_linear_4516_59284)"/>
<path d="M7.2566 0.391198C7.50697 0.140831 7.8434 0 8.19548 0H40.7823C41.3769 0 41.6742 0.719804 41.2517 1.13447L34.8126 7.56577C34.5622 7.81613 34.2258 7.95696 33.8737 7.95696H1.28693C0.692305 7.95696 0.394994 7.23716 0.817488 6.82249L7.2566 0.391198Z" fill="url(#paint1_linear_4516_59284)"/>
<path d="M34.8126 12.3305C34.5622 12.0802 34.2258 11.9393 33.8737 11.9393H1.28693C0.692305 11.9393 0.394994 12.6591 0.817488 13.0738L7.2566 19.5051C7.50697 19.7555 7.8434 19.8963 8.19548 19.8963H40.7823C41.3769 19.8963 41.6742 19.1765 41.2517 18.7618L34.8126 12.3305Z" fill="url(#paint2_linear_4516_59284)"/>
<defs>
<linearGradient id="paint0_linear_4516_59284" x1="37.668" y1="-3.83698" x2="15.124" y2="39.3516" gradientUnits="userSpaceOnUse">
<stop stop-color="#00FFA3"/>
<stop offset="1" stop-color="#DC1FFF"/>
</linearGradient>
<linearGradient id="paint1_linear_4516_59284" x1="27.8078" y1="-8.98245" x2="5.2986" y2="34.1818" gradientUnits="userSpaceOnUse">
<stop stop-color="#00FFA3"/>
<stop offset="1" stop-color="#DC1FFF"/>
</linearGradient>
<linearGradient id="paint2_linear_4516_59284" x1="32.7065" y1="-6.41377" x2="10.1973" y2="36.7505" gradientUnits="userSpaceOnUse">
<stop stop-color="#00FFA3"/>
<stop offset="1" stop-color="#DC1FFF"/>
</linearGradient>
</defs>
</svg>
