<svg width="145" height="36" viewBox="0 0 145 36" fill="none" xmlns="http://www.w3.org/2000/svg">
<g clip-path="url(#clip0_4516_109335)">
<path d="M110.7 5.33222H113.899V30.6965H110.7V5.33222ZM104.33 5.33222H107.501V30.6965H104.33V5.33222ZM128.974 22.8278C128.974 27.2666 126.12 28.6213 123.152 28.6213C120.875 28.6213 119.52 27.4395 119.52 25.6525C119.52 23.0584 123.209 22.1937 128.974 21.6461V22.8278ZM131.856 23.6349L131.885 19.2538C131.943 13.9215 129.694 11.5004 124.42 11.5004C120.788 11.5004 117.128 13.7774 116.868 17.8414H120.154C120.298 15.5068 121.797 14.0944 124.449 14.0944C126.841 14.0944 128.714 15.2185 128.714 18.6773V19.1385C121.019 19.9743 115.975 21.3002 115.975 25.7389C115.975 29.1977 118.915 31.1577 122.46 31.1577C125.803 31.1577 127.734 30.0912 128.887 28.1313C128.916 28.996 129.003 29.8606 129.147 30.6965H132.346C131.943 28.9095 131.827 26.7766 131.856 23.606V23.6349ZM143.357 11.7886C140.878 11.8751 139.004 13.028 138.053 15.1609V11.8751H134.94V30.6965H138.111V20.8102C138.111 16.6309 139.581 15.0456 142.521 15.0456C143.126 15.0744 143.702 15.1032 144.308 15.2185V11.8174C143.991 11.7886 143.674 11.7886 143.357 11.7886ZM80.2917 7.1769H77.0923V11.8751H74.1235V14.4403H77.0923V25.9695C77.0923 29.8895 77.9282 30.6965 81.5311 30.6965H83.8657V28.016H82.2516C80.4358 28.016 80.2917 27.526 80.2917 25.5948V14.4403H83.8657V11.8751H80.2917V7.1769ZM64.929 16.1697L61.989 15.5068C59.5967 14.9591 57.8385 13.8638 57.8385 11.6157C57.8385 8.76217 61.2684 7.89748 63.2284 7.89748C65.7648 7.89748 68.7048 8.90628 69.5407 11.8174H72.9994C71.9906 6.94632 67.9554 4.89988 63.4014 4.89988C59.3085 4.89988 54.2356 6.94632 54.2356 11.8174C54.2356 16.0256 57.6944 17.9855 61.182 18.7349L64.3525 19.3979C67.5519 20.1473 69.8001 21.1849 69.8001 23.8943C69.8001 26.4019 67.6672 28.1601 63.8913 28.1601C59.9426 28.1601 57.5503 26.3442 56.8873 22.8278H53.3997C54.0627 27.8719 57.8385 31.1577 63.8049 31.1577C68.8489 31.1577 73.4606 28.506 73.4606 23.5484C73.4606 18.4467 68.7913 16.9767 64.929 16.1409V16.1697ZM87.728 19.6285C88.0162 15.8238 90.6103 14.2962 93.4062 14.2962C96.8073 14.2962 98.7096 16.9479 98.8249 19.6285H87.728ZM93.4062 11.558C88.2757 11.558 84.2692 15.3626 84.2692 21.329C84.2692 26.8919 87.5551 31.1577 93.4926 31.1577C98.0755 31.1577 101.102 28.4771 101.909 25.249H98.6808C97.8737 27.0936 96.3173 28.3618 93.5214 28.3618C90.7256 28.3618 87.8145 26.4019 87.728 22.3667H102.197C102.601 16.3715 99.1996 11.5868 93.435 11.5868L93.4062 11.558ZM42.764 9.02158L9.15635 26.1425L6.2164 27.6124L0.192383 30.6965V34.3859L6.18758 31.3306L11.3181 28.7077L36.1059 16.0832C37.1724 24.1537 31.4942 31.5612 23.4238 32.6277C22.7897 32.7141 22.1267 32.7718 21.4638 32.7718C18.9562 32.7718 16.4774 32.1088 14.258 30.8695L14.0851 30.9847L10.9146 32.57C18.9562 38.4211 30.226 36.6341 36.0771 28.5636C38.2965 25.5084 39.507 21.819 39.507 18.0144C39.507 17.5532 39.507 17.092 39.4494 16.6309C39.3629 15.305 40.0547 14.0656 41.2364 13.4603L42.764 12.6533V9.02158ZM36.7688 4.72694L31.6383 7.32102L6.87933 19.9455C5.81288 11.8751 11.5198 4.46753 19.5903 3.40108C22.732 2.99756 25.9314 3.60284 28.6984 5.15929L31.6383 3.66049L32.0707 3.4299C24.0291 -2.42118 12.7592 -0.605325 6.90816 7.43631C4.65996 10.5204 3.47821 14.2097 3.47821 18.0144C3.47821 18.4755 3.47821 18.9367 3.50703 19.3979C3.62233 20.6949 2.93057 21.9631 1.74883 22.5684L0.192383 23.3466V27.036L4.74643 24.7013L6.2164 23.9519L7.68638 23.2313L33.7712 9.91509L36.7112 8.41629L42.764 5.33222V1.64287L36.7688 4.72694Z" fill="black"/>
</g>
<defs>
<clipPath id="clip0_4516_109335">
<rect width="144.115" height="36" fill="white" transform="translate(0.192383)"/>
</clipPath>
</defs>
</svg>
