<svg width="145" height="36" viewBox="0 0 145 36" fill="none" xmlns="http://www.w3.org/2000/svg">
<g clip-path="url(#clip0_4552_19965)">
<path d="M110.699 5.33222H113.898V30.6965H110.699V5.33222ZM104.329 5.33222H107.5V30.6965H104.329V5.33222ZM128.973 22.8278C128.973 27.2666 126.119 28.6213 123.151 28.6213C120.874 28.6213 119.519 27.4395 119.519 25.6525C119.519 23.0584 123.208 22.1937 128.973 21.6461V22.8278ZM131.855 23.6349L131.884 19.2538C131.942 13.9215 129.693 11.5004 124.419 11.5004C120.787 11.5004 117.127 13.7774 116.867 17.8414H120.153C120.297 15.5068 121.796 14.0944 124.448 14.0944C126.84 14.0944 128.713 15.2185 128.713 18.6773V19.1385C121.018 19.9743 115.974 21.3002 115.974 25.7389C115.974 29.1977 118.914 31.1577 122.459 31.1577C125.802 31.1577 127.733 30.0912 128.886 28.1313C128.915 28.996 129.002 29.8606 129.146 30.6965H132.345C131.942 28.9095 131.826 26.7766 131.855 23.606V23.6349ZM143.356 11.7886C140.877 11.8751 139.003 13.028 138.052 15.1609V11.8751H134.939V30.6965H138.11V20.8102C138.11 16.6309 139.58 15.0456 142.52 15.0456C143.125 15.0744 143.701 15.1032 144.307 15.2185V11.8174C143.99 11.7886 143.673 11.7886 143.356 11.7886ZM80.2907 7.1769H77.0913V11.8751H74.1226V14.4403H77.0913V25.9695C77.0913 29.8895 77.9272 30.6965 81.5301 30.6965H83.8647V28.016H82.2507C80.4348 28.016 80.2907 27.526 80.2907 25.5948V14.4403H83.8647V11.8751H80.2907V7.1769ZM64.928 16.1697L61.988 15.5068C59.5957 14.9591 57.8375 13.8638 57.8375 11.6157C57.8375 8.76217 61.2675 7.89748 63.2274 7.89748C65.7639 7.89748 68.7038 8.90628 69.5397 11.8174H72.9985C71.9896 6.94632 67.9544 4.89988 63.4004 4.89988C59.3075 4.89988 54.2346 6.94632 54.2346 11.8174C54.2346 16.0256 57.6934 17.9855 61.181 18.7349L64.3515 19.3979C67.5509 20.1473 69.7991 21.1849 69.7991 23.8943C69.7991 26.4019 67.6662 28.1601 63.8904 28.1601C59.9416 28.1601 57.5493 26.3442 56.8864 22.8278H53.3988C54.0617 27.8719 57.8375 31.1577 63.8039 31.1577C68.8479 31.1577 73.4596 28.506 73.4596 23.5484C73.4596 18.4467 68.7903 16.9767 64.928 16.1409V16.1697ZM87.727 19.6285C88.0153 15.8238 90.6093 14.2962 93.4052 14.2962C96.8063 14.2962 98.7086 16.9479 98.8239 19.6285H87.727ZM93.4052 11.558C88.2747 11.558 84.2683 15.3626 84.2683 21.329C84.2683 26.8919 87.5541 31.1577 93.4916 31.1577C98.0745 31.1577 101.101 28.4771 101.908 25.249H98.6798C97.8728 27.0936 96.3163 28.3618 93.5205 28.3618C90.7246 28.3618 87.8135 26.4019 87.727 22.3667H102.196C102.6 16.3715 99.1986 11.5868 93.434 11.5868L93.4052 11.558ZM42.7631 9.02158L9.15538 26.1425L6.21543 27.6124L0.191406 30.6965V34.3859L6.1866 31.3306L11.3171 28.7077L36.1049 16.0832C37.1714 24.1537 31.4932 31.5612 23.4228 32.6277C22.7887 32.7141 22.1258 32.7718 21.4628 32.7718C18.9552 32.7718 16.4764 32.1088 14.2571 30.8695L14.0841 30.9847L10.9136 32.57C18.9552 38.4211 30.225 36.6341 36.0761 28.5636C38.2955 25.5084 39.5061 21.819 39.5061 18.0144C39.5061 17.5532 39.5061 17.092 39.4484 16.6309C39.3619 15.305 40.0537 14.0656 41.2354 13.4603L42.7631 12.6533V9.02158ZM36.7679 4.72694L31.6374 7.32102L6.87836 19.9455C5.8119 11.8751 11.5189 4.46753 19.5893 3.40108C22.731 2.99756 25.9304 3.60284 28.6974 5.15929L31.6374 3.66049L32.0697 3.4299C24.0281 -2.42118 12.7583 -0.605325 6.90718 7.43631C4.65898 10.5204 3.47724 14.2097 3.47724 18.0144C3.47724 18.4755 3.47724 18.9367 3.50606 19.3979C3.62135 20.6949 2.9296 21.9631 1.74785 22.5684L0.191406 23.3466V27.036L4.74545 24.7013L6.21543 23.9519L7.6854 23.2313L33.7703 9.91509L36.7102 8.41629L42.7631 5.33222V1.64287L36.7679 4.72694Z" fill="white"/>
</g>
<defs>
<clipPath id="clip0_4552_19965">
<rect width="144.115" height="36" fill="white" transform="translate(0.191406)"/>
</clipPath>
</defs>
</svg>
