<svg width="78" height="40" viewBox="0 0 78 40" fill="none" xmlns="http://www.w3.org/2000/svg">
<mask id="mask0_4894_542" style="mask-type:luminance" maskUnits="userSpaceOnUse" x="0" y="0" width="78" height="40">
<path d="M77.1571 0.159424H0.578125V39.9956H77.1571V0.159424Z" fill="white"/>
</mask>
<g mask="url(#mask0_4894_542)">
<path d="M67.4669 24.8566C67.4669 25.9419 67.2264 26.8452 66.7537 27.5418C66.2858 28.2402 65.6979 28.765 65.0048 29.1026C64.3179 29.4402 63.6329 29.6123 62.9708 29.6123C61.8708 29.6123 60.9519 29.2352 60.2437 28.4926C59.5387 27.7468 59.1829 26.7289 59.1829 25.4665V14.0583H56.0771V25.655C56.0771 27.2042 56.3356 28.5092 56.8477 29.5352C57.3616 30.56 58.0814 31.3402 58.9853 31.8534C59.8845 32.3565 60.9253 32.6123 62.0782 32.6123C63.4714 32.6123 64.644 32.2828 65.5629 31.6336C66.3929 31.0402 67.0319 30.3205 67.4669 29.4926V32.3778H70.5727V14.0583H67.4669V24.8583V24.8566Z" fill="#011829"/>
<path d="M51.4454 20.822C50.7307 20.3171 49.9697 19.9121 49.1841 19.6187C48.4183 19.3318 47.7136 19.1023 47.086 18.9367L44.6257 18.2777C44.1844 18.163 43.6936 18.0105 43.1699 17.8253C42.6494 17.6351 42.1439 17.3908 41.6712 17.1023C41.2068 16.8105 40.8199 16.445 40.5202 16.0139C40.2336 15.5827 40.0886 15.0581 40.0886 14.4532C40.0886 13.727 40.2994 13.0696 40.716 12.5008C41.1425 11.9254 41.747 11.4664 42.5078 11.1368C43.2836 10.8041 44.2041 10.6352 45.2433 10.6352C46.6628 10.6352 47.8749 10.9565 48.8483 11.5926C49.8052 12.2172 50.3583 13.1073 50.4933 14.2385L50.5099 14.3827H53.6504L53.6439 14.2139C53.6044 12.9745 53.2123 11.8516 52.4828 10.8778C51.7631 9.90733 50.7752 9.13357 49.5481 8.57783C48.3246 8.01554 46.9065 7.73193 45.337 7.73193C43.7675 7.73193 42.3547 8.02046 41.0915 8.5893C39.8318 9.15322 38.8123 9.95814 38.0612 10.9844C37.3136 12.0073 36.9349 13.2221 36.9349 14.5942C36.9349 16.2516 37.5081 17.6121 38.636 18.6384C39.7478 19.6499 41.2744 20.4384 43.1731 20.9826L46.1391 21.8269C46.9741 22.0581 47.7631 22.3318 48.4825 22.64C49.1857 22.9417 49.7607 23.3368 50.1904 23.8171C50.607 24.2826 50.8194 24.9007 50.8194 25.6531C50.8194 26.4859 50.571 27.2235 50.0783 27.8467C49.581 28.4696 48.8944 28.9646 48.0397 29.3188C47.1783 29.668 46.1886 29.8449 45.1015 29.8449C44.1678 29.8449 43.2818 29.7056 42.4733 29.4317C41.6794 29.153 41.0125 28.727 40.4936 28.1646C39.9865 27.6006 39.6918 26.8762 39.6175 26.0105L39.6044 25.8613H36.2646L36.2778 26.0368C36.3733 27.3728 36.7915 28.5646 37.5212 29.5762C38.2573 30.5875 39.2768 31.3859 40.5531 31.9499C41.831 32.5104 43.3625 32.7956 45.1033 32.7956C46.9707 32.7956 48.5831 32.4793 49.8923 31.8549C51.2165 31.227 52.2375 30.368 52.9241 29.3006C53.6207 28.2317 53.9749 27.0204 53.9749 25.6974C53.9749 24.5482 53.7328 23.563 53.2568 22.7679C52.7841 21.9777 52.1749 21.3236 51.4454 20.8204V20.822Z" fill="#011829"/>
<path d="M77.0621 9.34777C77.0621 8.78711 76.8466 8.30187 76.4232 7.90516C76.0082 7.51006 75.5042 7.31006 74.9213 7.31006C74.3384 7.31006 73.8311 7.51006 73.4079 7.9068C72.9911 8.30351 72.7803 8.78877 72.7803 9.34943C72.7803 9.91006 72.9911 10.3937 73.4095 10.792C73.8311 11.1871 74.34 11.3871 74.9229 11.3871C75.5061 11.3871 75.9621 11.2052 76.364 10.8478L76.3821 10.8314C76.3969 10.8183 76.4116 10.8052 76.4266 10.7904L76.4858 10.733C76.8711 10.3461 77.0655 9.88056 77.0655 9.34777H77.0621Z" fill="#011829"/>
<path d="M76.4488 14.0564H73.3428V32.3761H76.4488V14.0564Z" fill="#011829"/>
<path fill-rule="evenodd" clip-rule="evenodd" d="M25.6005 16.7528C27.231 18.7905 28.2058 21.3675 28.2058 24.1708C28.2058 26.974 27.2013 29.6298 25.528 31.679L25.3831 31.8561L25.3452 31.6314C25.3123 31.4414 25.2744 31.2479 25.23 31.0545C24.3917 27.3887 21.6612 24.2462 17.1669 21.7003C14.1318 19.9856 12.3943 17.9233 11.9382 15.5774C11.6434 14.061 11.8624 12.538 12.2857 11.2331C12.7089 9.92984 13.338 8.83639 13.8732 8.179L15.6222 6.05113C15.9285 5.67737 16.5033 5.67737 16.8096 6.05113L25.6021 16.7528H25.6005ZM28.3655 14.6266L16.6465 0.364254C16.4225 0.0921236 16.0043 0.0921236 15.7803 0.364254L4.06289 14.6266L4.02499 14.6741C1.86926 17.338 0.578125 20.7233 0.578125 24.4085C0.578125 32.9906 7.57891 39.9479 16.2134 39.9479C24.8479 39.9479 31.8486 32.9906 31.8486 24.4085C31.8486 20.7233 30.5576 17.338 28.4018 14.6757L28.3639 14.6282L28.3655 14.6266ZM6.86747 16.7069L7.91489 15.4298L7.94618 15.6659C7.97089 15.8528 8.00218 16.0397 8.03839 16.2282C8.71691 19.7708 11.1394 22.7233 15.189 25.0101C18.71 27.0053 20.7604 29.2987 21.35 31.8135C21.597 32.8627 21.6398 33.8953 21.5328 34.7987L21.5262 34.8545L21.4751 34.879C19.8859 35.6511 18.099 36.0856 16.2118 36.0856C9.58973 36.0856 4.22097 30.7511 4.22097 24.1692C4.22097 21.3429 5.21073 18.7478 6.86418 16.7036L6.86747 16.7069Z" fill="#011829"/>
</g>
</svg>
