<svg width="109" height="74" viewBox="0 0 109 74" fill="none" xmlns="http://www.w3.org/2000/svg">
<g clip-path="url(#clip0_21883_1487)">
<path d="M59.9258 0V11.0445L74.5232 25.7446L59.9258 40.4368V51.4891L85.4907 25.7446L59.9258 0ZM49.0669 51.4891V40.4368L34.4694 25.7446L49.0669 11.0445V0L23.502 25.7446L49.0669 51.4891Z" fill="#29ACFE"/>
<path d="M54.4998 12.4981L41.3423 25.748L54.4998 38.998L67.6572 25.748L54.4998 12.4981Z" fill="#29ACFE"/>
<path d="M0 62.1201V65.5647H4.54522V74.0004H8.73365V65.5647H13.2556V62.1201H0Z" fill="white"/>
<path d="M22.7728 71.4072V69.228H28.5667V66.7207H22.7728V64.7133H31.01V62.1201H18.6309V74.0004H31.2815V71.4072H22.7728Z" fill="white"/>
<path d="M35.2446 62.1201V65.5647H39.7899V74.0004H43.9705V65.5647H48.5002V62.1201H35.2446Z" fill="white"/>
<path d="M67.9842 66.5176C67.9842 63.7995 66.2235 62.1201 62.1825 62.1201H53.8677V74.0004H58.0561V70.8448H60.3365L63.0202 74.0004H67.5033L64.3077 70.2668C66.9139 69.931 67.9842 68.2673 67.9842 66.5176ZM57.9087 67.8455V65.0726H64.6025V67.8455H57.9087Z" fill="white"/>
<path d="M82.1939 62.1201H78.0753L71.5444 74.0004H75.8104L76.9739 71.6962H83.2333L84.3967 74.0004H88.748L82.1939 62.1201ZM78.1994 69.2124L80.0997 65.4163L82.0078 69.2124H78.1994Z" fill="white"/>
<path d="M102.291 62.1201H93.7354V74.0004H102.291C107.193 74.0004 109 71.7118 109 68.0642C109 64.4165 107.193 62.1201 102.291 62.1201ZM105.223 70.9386H97.1792V65.1585H105.223V70.9386Z" fill="white"/>
</g>
<defs>
<clipPath id="clip0_21883_1487">
<rect width="109" height="74" fill="white"/>
</clipPath>
</defs>
</svg>
