<svg width="124" height="84" viewBox="0 0 124 84" fill="none" xmlns="http://www.w3.org/2000/svg">
<g clip-path="url(#clip0_12_2)">
<mask id="mask0_12_2" style="mask-type:luminance" maskUnits="userSpaceOnUse" x="0" y="0" width="124" height="84">
<path d="M124 0H0V84H124V0Z" fill="white"/>
</mask>
<g mask="url(#mask0_12_2)">
<path d="M68.1722 0V12.537L84.7784 29.2235L68.1722 45.9012V58.447L97.2551 29.2235L68.1722 0ZM55.819 58.447V45.9012L39.2126 29.2235L55.819 12.537V0L26.7358 29.2235L55.819 58.447Z" fill="#29ACFE"/>
<path d="M61.9995 14.1874L47.0314 29.2278L61.9995 44.2683L76.9675 29.2278L61.9995 14.1874Z" fill="#29ACFE"/>
<path d="M0 70.5142V74.424H5.1707V84H9.93554V74.424H15.0798V70.5142H0Z" fill="black"/>
<path d="M25.9065 81.0564V78.5828H32.4979V75.7366H25.9065V73.4578H35.2774V70.5142H21.1947V84H35.5862V81.0564H25.9065Z" fill="black"/>
<path d="M40.0951 70.5142V74.424H45.2658V84H50.0218V74.424H55.1748V70.5142H40.0951Z" fill="black"/>
<path d="M77.34 75.5057C77.34 72.4204 75.3369 70.5142 70.7402 70.5142H61.2812V84H66.0457V80.4179H68.6399L71.6931 84H76.793L73.1579 79.7619C76.1226 79.3805 77.34 77.4918 77.34 75.5057ZM65.8779 77.0131V73.8659H73.4929V77.0131H65.8779Z" fill="black"/>
<path d="M93.5053 70.5142H88.8195L81.3903 84H86.2433L87.5667 81.3842H94.6876L96.011 84H100.961L93.5053 70.5142ZM88.961 78.5648L91.1225 74.256L93.2933 78.5648H88.961Z" fill="black"/>
<path d="M116.368 70.5142H106.635V84H116.368C121.944 84 124 81.4022 124 77.2615C124 73.1207 121.944 70.5142 116.368 70.5142ZM119.703 80.5241H110.552V73.9633H119.703V80.5241Z" fill="black"/>
</g>
</g>
<defs>
<clipPath id="clip0_12_2">
<rect width="124" height="84" fill="white"/>
</clipPath>
</defs>
</svg>
