<svg width="91" height="62" viewBox="0 0 91 62" fill="none" xmlns="http://www.w3.org/2000/svg">
<g clip-path="url(#clip0_13_2)">
<mask id="mask0_13_2" style="mask-type:luminance" maskUnits="userSpaceOnUse" x="0" y="0" width="91" height="62">
<path d="M91 0H0V62H91V0Z" fill="white"/>
</mask>
<g mask="url(#mask0_13_2)">
<mask id="mask1_13_2" style="mask-type:luminance" maskUnits="userSpaceOnUse" x="0" y="0" width="91" height="62">
<path d="M91 0H0V62H91V0Z" fill="white"/>
</mask>
<g mask="url(#mask1_13_2)">
<path d="M50.0296 0V9.2535L62.2164 21.5697L50.0296 33.8795V43.1395L71.3727 21.5697L50.0296 0ZM40.9639 43.1395V33.8795L28.777 21.5697L40.9639 9.2535V0L19.6206 21.5697L40.9639 43.1395Z" fill="#29ACFE"/>
<path d="M45.4996 10.4717L34.515 21.5729L45.4996 32.6742L56.4842 21.5729L45.4996 10.4717Z" fill="#29ACFE"/>
<path d="M0 52.0461V54.932H3.79463V61.9999H7.2914V54.932H11.0666V52.0461H0Z" fill="black"/>
<path d="M19.0121 59.8273V58.0015H23.8493V55.9008H19.0121V54.2188H25.8891V52.0461H15.5542V61.9999H26.1157V59.8273H19.0121Z" fill="black"/>
<path d="M29.4246 52.0461V54.932H33.2192V61.9999H36.7095V54.932H40.4912V52.0461H29.4246Z" fill="black"/>
<path d="M56.7576 55.7303C56.7576 53.4531 55.2875 52.0461 51.9142 52.0461H44.9725V61.9999H48.469V59.356H50.3728L52.6135 61.9999H56.3561L53.6884 58.8718C55.8641 58.5903 56.7576 57.1963 56.7576 55.7303ZM48.3459 56.843V54.52H53.9343V56.843H48.3459Z" fill="black"/>
<path d="M68.6208 52.0461H65.1821L59.73 61.9999H63.2915L64.2627 60.0692H69.4885L70.4597 61.9999H74.0924L68.6208 52.0461ZM65.2859 57.9883L66.8722 54.8079L68.4652 57.9883H65.2859Z" fill="black"/>
<path d="M85.3991 52.0461H78.2563V61.9999H85.3991C89.4912 61.9999 91 60.0825 91 57.0263C91 53.97 89.4912 52.0461 85.3991 52.0461ZM87.8466 59.4344H81.1309V54.5919H87.8466V59.4344Z" fill="black"/>
</g>
</g>
</g>
<defs>
<clipPath id="clip0_13_2">
<rect width="91" height="62" fill="white"/>
</clipPath>
</defs>
</svg>
