<svg width="65" height="64" viewBox="0 0 65 64" fill="none" xmlns="http://www.w3.org/2000/svg">
<g clip-path="url(#clip0_4516_109274)">
<path d="M32.25 64C49.9231 64 64.25 49.6731 64.25 32C64.25 14.3269 49.9231 0 32.25 0C14.5769 0 0.25 14.3269 0.25 32C0.25 49.6731 14.5769 64 32.25 64Z" fill="#0098EA"/>
<path d="M43.1759 17.8602H21.3225C17.3045 17.8602 14.7577 22.1945 16.7792 25.6984L30.2663 49.0753C31.1464 50.6017 33.352 50.6017 34.2321 49.0753L47.722 25.6984C49.7407 22.2001 47.194 17.8602 43.1786 17.8602H43.1759ZM30.2553 42.0649L27.3181 36.3802L20.2308 23.7045C19.7632 22.8931 20.3407 21.8535 21.3198 21.8535H30.2526V42.0677L30.2553 42.0649ZM44.2622 23.7017L37.1776 36.383L34.2404 42.0649V21.8507H43.1732C44.1522 21.8507 44.7297 22.8904 44.2622 23.7017Z" fill="white"/>
</g>
<defs>
<clipPath id="clip0_4516_109274">
<rect width="64" height="64" fill="white" transform="translate(0.25)"/>
</clipPath>
</defs>
</svg>
