<svg width="148" height="52" viewBox="0 0 148 52" fill="none" xmlns="http://www.w3.org/2000/svg">
<path d="M68.6204 22.3368H66.4238V36.7016H68.6204V22.3368Z" fill="#262729"/>
<path d="M78.4758 16.2583H60.542V18.4549H78.4758V16.2583Z" fill="#262729"/>
<path d="M72.599 22.3368H70.4023V36.7016H72.599V22.3368Z" fill="#262729"/>
<path d="M133.384 36.7222H135.604V28.0685L133.384 25.5995V36.7222Z" fill="#262729"/>
<path d="M145.072 16.2582V32.2951L129.365 14.8414V36.7224H131.586V20.6718L147.296 38.1323V16.2582H145.072Z" fill="#262729"/>
<path d="M114.993 16.2443C109.35 16.2443 104.759 20.835 104.759 26.4781C104.759 32.1211 109.35 36.7119 114.993 36.7119C120.636 36.7119 125.226 32.1211 125.226 26.4781C125.226 20.835 120.636 16.2443 114.993 16.2443ZM114.993 34.5051C110.565 34.5051 106.962 30.9053 106.962 26.4747C106.962 22.044 110.562 18.4443 114.993 18.4443C119.423 18.4443 123.023 22.044 123.023 26.4747C123.023 30.9053 119.42 34.5051 114.993 34.5051Z" fill="#262729"/>
<path d="M114.994 25.004C114.184 25.004 113.52 25.6681 113.52 26.4787C113.52 27.2892 114.184 27.9533 114.994 27.9533C115.805 27.9533 116.469 27.2892 116.469 26.4787C116.469 25.6681 115.811 25.004 114.994 25.004Z" fill="#262729"/>
<path d="M100.909 22.5314C100.909 19.0713 98.1134 16.2583 94.6772 16.2583H82.9688V36.7225H85.1551V18.4787H94.6772C96.8806 18.4787 98.6753 20.2973 98.6753 22.528C98.6753 24.7484 96.9044 26.5602 94.7214 26.5841L86.9533 26.5806V36.7191H89.1397V28.8011H94.2617L98.4438 36.7191H100.981L96.615 28.4912C99.1521 27.6568 100.909 25.2252 100.909 22.5314Z" fill="#262729"/>
<path d="M39.4706 7.22667L0.204102 0L20.8658 52L49.6601 16.919L39.4706 7.22667ZM38.8371 10.4143L44.8446 16.1221L28.4126 19.0986L38.8371 10.4143ZM24.847 18.4992L7.52953 4.1378L35.8334 9.34495L24.847 18.4992ZM23.6141 21.0432L20.7909 44.3851L5.56451 6.07217L23.6141 21.0432ZM26.2262 22.2794L44.4189 18.9862L23.5528 44.4123L26.2262 22.2794Z" fill="#EB0029"/>
</svg>
