<svg width="148" height="52" viewBox="0 0 148 52" fill="none" xmlns="http://www.w3.org/2000/svg">
<path d="M68.6185 22.3368H66.4219V36.7016H68.6185V22.3368Z" fill="white"/>
<path d="M78.4749 16.2583H60.541V18.4549H78.4749V16.2583Z" fill="white"/>
<path d="M72.597 22.3368H70.4004V36.7016H72.597V22.3368Z" fill="white"/>
<path d="M133.383 36.7222H135.603V28.0685L133.383 25.5995V36.7222Z" fill="white"/>
<path d="M145.072 16.2582V32.2951L129.365 14.8414V36.7224H131.586V20.6718L147.296 38.1323V16.2582H145.072Z" fill="white"/>
<path d="M114.992 16.2443C109.349 16.2443 104.758 20.835 104.758 26.4781C104.758 32.1211 109.349 36.7119 114.992 36.7119C120.635 36.7119 125.225 32.1211 125.225 26.4781C125.225 20.835 120.635 16.2443 114.992 16.2443ZM114.992 34.5051C110.564 34.5051 106.961 30.9053 106.961 26.4747C106.961 22.044 110.561 18.4443 114.992 18.4443C119.422 18.4443 123.022 22.044 123.022 26.4747C123.022 30.9053 119.419 34.5051 114.992 34.5051Z" fill="white"/>
<path d="M114.992 25.004C114.182 25.004 113.518 25.6681 113.518 26.4787C113.518 27.2892 114.182 27.9533 114.992 27.9533C115.803 27.9533 116.467 27.2892 116.467 26.4787C116.467 25.6681 115.81 25.004 114.992 25.004Z" fill="white"/>
<path d="M100.907 22.5314C100.907 19.0713 98.1115 16.2583 94.6752 16.2583H82.9668V36.7225H85.1532V18.4787H94.6752C96.8786 18.4787 98.6734 20.2973 98.6734 22.528C98.6734 24.7484 96.9025 26.5602 94.7195 26.5841L86.9513 26.5806V36.7191H89.1377V28.8011H94.2597L98.4418 36.7191H100.979L96.613 28.4912C99.1502 27.6568 100.907 25.2252 100.907 22.5314Z" fill="white"/>
<path d="M39.4696 7.22667L0.203125 0L20.8649 52L49.6591 16.919L39.4696 7.22667ZM38.8362 10.4143L44.8436 16.1221L28.4116 19.0986L38.8362 10.4143ZM24.846 18.4992L7.52855 4.1378L35.8324 9.34495L24.846 18.4992ZM23.6132 21.0432L20.7899 44.3851L5.56353 6.07217L23.6132 21.0432ZM26.2253 22.2794L44.4179 18.9862L23.5519 44.4123L26.2253 22.2794Z" fill="#EB0029"/>
</svg>
