<svg width="182" height="40" viewBox="0 0 182 40" fill="none" xmlns="http://www.w3.org/2000/svg">
<path fill-rule="evenodd" clip-rule="evenodd" d="M1.02499 0.886769C5.54247 6.42492 10.5025 13.3825 11.3048 14.5079C11.3476 14.5679 11.3785 14.6113 11.397 14.637C11.8246 15.2341 12.1777 15.6779 12.4458 16.015C13.041 16.7632 13.2177 16.9853 12.8625 17.1892C12.576 17.3537 12.2805 17.4079 11.9856 17.4079C11.6521 17.4079 11.2763 17.2457 11.0027 16.9835C10.8093 16.7983 9.48595 14.8569 7.68396 12.0328C6.30519 9.87178 5.15132 8.07914 5.11984 8.04913C5.04707 7.97971 5.04831 7.98207 7.54338 12.4914C9.11006 15.3229 10.1817 17.4154 10.1817 17.5492C10.1817 17.8215 10.1082 17.9647 9.77562 18.3394C9.22123 18.9642 8.97339 19.6661 8.7945 21.1187C8.59394 22.7472 8.02998 23.8976 6.46709 25.8663C5.55223 27.0188 5.40253 27.23 5.17168 27.6946C4.88093 28.2795 4.80096 28.6071 4.76856 29.3458C4.73431 30.1268 4.80101 30.6313 5.03723 31.3779C5.24404 32.0316 5.4599 32.4634 6.01174 33.3268C6.48798 34.0717 6.7622 34.6253 6.7622 34.842C6.7622 35.0143 6.79477 35.0145 7.53274 34.8463C9.29879 34.4433 10.7328 33.735 11.5393 32.8667C12.0385 32.3293 12.1557 32.0326 12.1595 31.2962C12.162 30.8144 12.1452 30.7137 12.0163 30.4365C11.8064 29.9854 11.4244 29.6105 10.5825 29.0291C9.47926 28.2673 9.00807 27.6541 8.87791 26.8107C8.77116 26.1187 8.89502 25.6304 9.50532 24.3385C10.137 23.0011 10.2935 22.4312 10.3994 21.0831C10.4678 20.2122 10.5625 19.8688 10.8103 19.5932C11.0686 19.3057 11.3012 19.2083 11.9406 19.12C12.983 18.9762 13.6468 18.7038 14.1924 18.196C14.6657 17.7554 14.8638 17.3309 14.8942 16.6919L14.9172 16.2075L14.6527 15.896C13.6949 14.768 0.383529 0 0.324583 0C0.311991 0 0.627188 0.399073 1.02499 0.886769ZM7.29989 30.2295C7.51646 29.842 7.40139 29.3441 7.03913 29.1007C6.69685 28.8709 6.16514 28.9792 6.16514 29.2787C6.16514 29.3701 6.21518 29.4366 6.32798 29.4954C6.5179 29.5941 6.53169 29.705 6.38226 29.9319C6.23093 30.1617 6.24313 30.3636 6.41671 30.5008C6.69647 30.7221 7.09248 30.6004 7.29989 30.2295ZM13.8184 9.1037C13.391 9.03675 13.373 9.02889 13.5741 8.99768C13.9595 8.93781 14.8695 9.0194 15.4965 9.17001C16.9605 9.52149 18.2926 10.4219 19.7145 12.021L20.0922 12.4459L20.6327 12.3581C22.9093 11.9886 25.2254 12.2823 27.1626 13.1862C27.6955 13.4348 28.5357 13.9299 28.6406 14.0571C28.674 14.0976 28.7356 14.3586 28.777 14.637C28.921 15.6004 28.849 16.3389 28.5572 16.8904C28.3986 17.1905 28.3897 17.2857 28.4963 17.5425C28.5815 17.7475 28.819 17.8992 29.0543 17.8989C29.5357 17.8982 30.0537 17.1122 30.2939 16.0185L30.3892 15.584L30.5782 15.8002C31.6143 16.9861 32.4284 18.6033 32.5681 19.7544L32.6045 20.0545L32.4304 19.7818C32.1305 19.3123 31.8295 18.9926 31.4437 18.7348C30.7485 18.2702 30.0132 18.112 28.0664 18.0084C26.308 17.9148 25.313 17.7631 24.3262 17.4381C22.6471 16.8852 21.8009 16.1488 19.8064 13.5058C18.9207 12.3319 18.3731 11.6824 17.8285 11.1594C16.591 9.97089 15.375 9.34759 13.8184 9.1037ZM29.0372 11.7248C29.0815 10.9381 29.1872 10.4193 29.3995 9.94545C29.4835 9.7579 29.5622 9.60438 29.5743 9.60438C29.5865 9.60438 29.55 9.74282 29.4931 9.912C29.3388 10.3719 29.3134 11.0008 29.4198 11.7326C29.5547 12.6611 29.6316 12.7951 30.6031 13.7981C31.0588 14.2686 31.5889 14.8619 31.7811 15.1167L32.1305 15.5798L31.7811 15.2488C31.3538 14.844 30.3712 14.0545 30.1541 13.9417C30.0085 13.866 29.9869 13.8673 29.8972 13.9576C29.8145 14.0407 29.797 14.1657 29.7855 14.7565C29.7676 15.6773 29.6434 16.2682 29.3435 16.8592C29.1813 17.1788 29.1557 17.1106 29.3024 16.7498C29.4121 16.4805 29.4232 16.3621 29.4224 15.4707C29.4208 13.6798 29.2101 13.2492 27.9756 12.5116C27.6631 12.3248 27.1477 12.0553 26.8306 11.9128C26.5138 11.7702 26.2619 11.6461 26.2709 11.6368C26.306 11.6017 27.5099 11.9566 27.9945 12.1449C28.7152 12.4249 28.8341 12.4612 28.9217 12.4274C28.9803 12.4048 29.0087 12.2322 29.0372 11.7248ZM13.3604 10.3498C13.2442 11.7325 13.7809 13.5822 14.6485 14.7886C15.321 15.7238 16.3634 16.4505 17.133 16.5206C17.637 16.5666 17.7884 16.4072 17.5604 16.071C17.2439 15.6041 16.8546 14.8852 16.7516 14.5774C16.6876 14.3862 16.5486 13.8214 16.4426 13.3223C16.0807 11.6183 15.725 10.9547 14.9034 10.4507C14.604 10.267 13.9646 10.0266 13.5938 9.95834L13.3963 9.92192L13.3604 10.3498ZM27.9851 23.7671C23.9308 22.1183 22.5028 20.6871 22.5028 18.2723C22.5028 17.917 22.5151 17.6262 22.5297 17.6262C22.5446 17.6262 22.7014 17.7435 22.8783 17.8869C23.7004 18.5529 24.621 18.8374 27.1697 19.2128C28.6693 19.434 29.5133 19.6124 30.2919 19.8733C32.7663 20.7022 34.2973 22.3843 34.6624 24.6757C34.7685 25.3414 34.7063 26.5899 34.5343 27.2479C34.3985 27.7677 33.9841 28.7043 33.8742 28.7403C33.8437 28.7503 33.8137 28.6324 33.806 28.4719C33.7644 27.6115 33.3339 26.7739 32.6111 26.1464C31.7892 25.433 30.6848 24.8652 27.9851 23.7671ZM24.943 23.5857C24.9999 23.7569 25.088 24.1467 25.1387 24.4521C25.4635 26.4041 24.449 27.9813 22.4757 28.5924C22.2668 28.657 21.4439 28.8198 20.647 28.9537C19.0339 29.225 18.314 29.4172 17.5907 29.7691C17.0778 30.0187 16.4568 30.3925 16.4937 30.4296C16.5056 30.4416 16.6227 30.4134 16.7538 30.3668C17.6659 30.0434 18.6809 29.8759 20.2231 29.7949C20.8352 29.7629 21.5313 29.7116 21.7702 29.6813C23.1441 29.5065 24.0964 29.0849 24.8369 28.3236C25.2489 27.8999 25.4946 27.5052 25.6926 26.9487C25.818 26.5957 25.835 26.4646 25.8359 25.8391C25.8371 25.2018 25.8218 25.0852 25.6858 24.6932C25.5078 24.1793 25.2977 23.7936 25.0317 23.492L24.8396 23.2743L24.943 23.5857ZM26.9973 27.7859C26.4586 26.6162 26.335 25.4871 26.63 24.434C26.6616 24.3213 26.7123 24.2292 26.743 24.2292C26.7735 24.2292 26.9005 24.2987 27.0254 24.3835C27.2735 24.5523 27.7714 24.8366 29.0977 25.5669C30.7528 26.4783 31.6965 27.184 32.3381 27.9905C32.9001 28.6966 33.2478 29.5008 33.4151 30.4816C33.5101 31.0371 33.4545 32.3739 33.3134 32.9332C32.8684 34.6971 31.8342 36.0825 30.3591 36.8911C30.143 37.0094 29.949 37.1066 29.9279 37.1071C29.907 37.1075 29.9857 36.9054 30.1029 36.6576C30.5991 35.6098 30.6556 34.5907 30.2806 33.4564C30.0507 32.7618 29.5824 31.9142 28.6367 30.4818C27.5373 28.8164 27.2677 28.3731 26.9973 27.7859ZM16.8509 31.6222C15.1458 31.902 13.2738 32.8134 11.7693 34.0965L11.3214 34.4786L11.715 34.5407C13.7692 34.8646 14.3224 35.1519 15.7472 36.6345C16.5672 37.4875 16.8441 37.6774 17.5242 37.8528C18.5232 38.1103 19.5078 37.6371 19.8456 36.737C19.9965 36.3347 19.9764 35.6688 19.8032 35.3344C19.3914 34.5381 18.1916 34.2808 17.6115 34.864C17.1282 35.3499 17.269 36.0817 17.87 36.2076C18.0076 36.2366 18.0037 36.2304 17.835 36.1533C17.5719 36.0331 17.4577 35.8666 17.4562 35.6015C17.4529 34.9801 18.1569 34.6312 18.812 34.9296C19.2916 35.1483 19.482 35.4339 19.482 35.9346C19.482 36.7057 18.8323 37.2867 18.0762 37.1917C17.6721 37.1409 17.1778 36.8797 16.9128 36.5772C16.2459 35.8156 16.5057 34.6136 17.4368 34.1525C18.1456 33.8015 19.0878 33.888 19.8185 34.3712C20.6579 34.9266 21.0149 35.4341 21.738 37.0998C21.9734 37.6422 22.2764 38.2527 22.4111 38.4566C23.096 39.4921 23.9167 40 24.9051 40C25.4503 40 25.8604 39.8994 26.3764 39.6392C26.7598 39.4458 27.3033 39.0782 27.2641 39.0389C27.253 39.0277 27.094 39.0777 26.9107 39.1498C25.8314 39.575 24.7343 39.5458 24.0971 39.0746C23.6959 38.7781 23.3722 38.1873 23.2059 37.4485C23.177 37.3206 23.0821 36.7558 22.9947 36.1933C22.7731 34.7676 22.5605 34.1267 22.0644 33.3912C21.5569 32.6388 20.5813 32.0073 19.4905 31.7253C18.81 31.5493 17.5858 31.5015 16.8509 31.6222ZM14.4628 20.5992C14.61 20.0498 15.0857 19.5259 15.5751 19.3741C15.8863 19.2776 16.5295 19.3392 16.8319 19.4945C17.418 19.7955 17.8435 20.481 17.7512 20.9759C17.6385 21.5793 16.6697 22.0622 15.5553 22.0701C14.9861 22.074 14.7758 21.9968 14.5585 21.7037C14.4239 21.5221 14.3729 20.9343 14.4628 20.5992ZM16.6823 19.7096C16.9745 19.8899 17.0497 20.1565 16.8779 20.4031C16.7595 20.573 16.393 20.7344 16.1252 20.7344C15.7228 20.7344 15.2839 20.4458 15.2839 20.1815C15.2839 19.6504 16.1256 19.3662 16.6823 19.7096ZM104.037 21.2303C103.128 18.2062 104.627 15.6978 107.827 14.8917C108.744 14.6604 112.899 14.7648 113.61 15.0371C113.872 15.1369 113.986 15.5199 113.988 16.307C113.99 16.9269 114.057 17.6798 114.138 17.98C114.26 18.4351 114.189 18.5246 113.709 18.5173C113.274 18.5105 113.012 18.256 112.645 17.4858C112.059 16.2558 111.35 15.8645 109.697 15.8599C107.587 15.8539 106.043 17.2745 106.295 18.9909C106.458 20.1079 107.574 21.2069 110.079 22.7178C112.462 24.155 113.853 25.3369 114.407 26.3958C115.888 29.2269 114.623 32.2565 111.322 33.783C109.627 34.5665 106.787 34.6476 104.79 33.9694L103.511 33.5349V31.4917C103.511 29.6412 103.555 29.4481 103.977 29.4481C104.33 29.4481 104.482 29.6813 104.606 30.4119C104.914 32.2285 106.294 33.3313 108.261 33.3313C110.187 33.3313 111.533 32.279 112.049 30.3708C112.269 29.5579 112.231 29.2582 111.795 28.3615C111.273 27.2863 110.374 26.5729 107.32 24.8111C105.625 23.8334 104.427 22.5262 104.037 21.2303ZM44.1716 16.099C43.7549 16.099 43.5923 15.9628 43.5923 15.6136C43.5923 15.1512 43.7549 15.1281 47.0202 15.1281C50.051 15.1281 50.4389 15.1738 50.3694 15.5216C50.3259 15.7381 49.9071 16.0383 49.4382 16.189L48.5855 16.463L48.5128 22.6522C48.464 26.782 48.5326 29.1644 48.7185 29.812C49.2715 31.7383 50.9581 32.846 53.3378 32.846C54.9945 32.846 55.9622 32.4587 57.1781 31.3084C58.4858 30.0718 58.6944 28.8969 58.6902 22.7901C58.6863 16.7665 58.5813 16.2694 57.2877 16.1444C56.699 16.0873 56.5017 15.9502 56.5017 15.5983C56.5017 15.1594 56.696 15.1281 59.4246 15.1281C62.185 15.1281 62.3474 15.1551 62.3474 15.6136C62.3474 15.9126 62.1837 16.1004 61.9211 16.1026C60.793 16.1126 60.7723 16.2199 60.6205 22.825C60.463 29.6841 60.3158 30.4963 58.9257 32.1765C58.5248 32.6612 57.5688 33.365 56.8013 33.7407C55.5506 34.3527 55.1527 34.423 52.9699 34.419C50.9577 34.4149 50.3225 34.3177 49.3163 33.8597C47.8476 33.1911 46.8925 32.3259 46.1883 31.0256C45.6968 30.118 45.6548 29.6269 45.541 23.4773C45.4107 16.4383 45.3475 16.099 44.1716 16.099ZM66.9638 16.099C66.4069 16.099 66.2446 15.9893 66.2446 15.6136C66.2446 15.1585 66.4002 15.1294 68.7411 15.1481L71.2377 15.168L72.4323 16.5436C73.0888 17.3002 75.2297 19.6668 77.1891 21.8026C79.1487 23.9385 81.3984 26.4231 82.1883 27.3242C82.9784 28.2254 83.722 28.9626 83.8408 28.9626C83.9629 28.9626 84.0238 26.4171 83.9802 23.1162L83.9034 17.2698L83.2199 16.6844C82.8441 16.3623 82.2689 16.099 81.9413 16.099C81.5056 16.099 81.346 15.9669 81.346 15.6068C81.346 15.1327 81.4704 15.117 84.695 15.182C87.437 15.2374 88.0441 15.3138 88.0441 15.6036C88.0441 15.8102 87.705 16.0269 87.2299 16.1238C86.7823 16.215 86.2889 16.416 86.1339 16.5703C85.9338 16.7696 85.8319 19.346 85.7823 25.4552L85.7125 34.0594H85.0066C84.3988 34.0594 83.6754 33.3756 79.8078 29.1446C77.3368 26.4412 74.4524 23.2285 73.3982 22.0051C72.3438 20.7815 71.399 19.7712 71.2986 19.7601C71.0158 19.7284 71.0842 30.6598 71.3734 31.6974C71.5989 32.506 71.7539 32.6452 72.7119 32.9006C73.4833 33.1062 73.7953 33.3147 73.7953 33.6244C73.7953 34.0221 73.5012 34.0594 70.3853 34.0594C67.2134 34.0594 66.9753 34.0278 66.9753 33.6045C66.9753 33.2946 67.2048 33.1037 67.6949 33.006C69.1823 32.7096 69.281 32.2392 69.3644 25.0485C69.4111 21.0212 69.3426 18.2033 69.183 17.6133C68.9027 16.5757 68.2042 16.099 66.9638 16.099ZM92.5038 16.099C91.982 16.099 91.8196 15.9837 91.8196 15.6136C91.8196 15.1498 91.982 15.1281 95.4732 15.1281C98.9641 15.1281 99.1267 15.1498 99.1267 15.6136C99.1267 15.9696 98.9641 16.099 98.5177 16.099C98.1829 16.099 97.6852 16.3218 97.4118 16.5941C96.9294 17.0749 96.917 17.314 96.9857 24.7448C97.0526 31.9986 97.0812 32.4184 97.529 32.7445C97.7892 32.9338 98.2549 33.0887 98.5642 33.0887C98.9641 33.0887 99.1267 33.2286 99.1267 33.5741C99.1267 34.0379 98.9641 34.0594 95.4732 34.0594C92.065 34.0594 91.8196 34.0289 91.8196 33.6052C91.8196 33.2635 92.0586 33.1126 92.7845 32.9969C94.2258 32.7673 94.2995 32.2971 94.2096 23.9065C94.1379 17.1871 94.107 16.7681 93.6607 16.4431C93.4005 16.2538 92.88 16.099 92.5038 16.099ZM117.989 16.099C117.656 16.099 117.403 15.9143 117.324 15.6136C117.201 15.1442 117.317 15.1281 120.827 15.1281C124.296 15.1281 124.458 15.1498 124.458 15.6136C124.458 15.9866 124.296 16.099 123.757 16.099C122.224 16.099 122.258 16.3766 124.579 22.724C125.76 25.955 126.907 29.0242 127.127 29.5443L127.528 30.4902L129.388 25.5396C131.578 19.7122 131.863 18.6346 131.491 17.5718C131.232 16.831 130.224 16.099 129.463 16.099C129.248 16.099 129.086 15.8903 129.086 15.6136C129.086 15.149 129.248 15.1281 132.861 15.1281C136.474 15.1281 136.637 15.149 136.637 15.6136C136.637 15.959 136.474 16.099 136.074 16.099C135.05 16.099 134.599 16.6432 134.746 17.7004C134.897 18.7887 139.086 30.4855 139.262 30.3105C139.548 30.0259 144.187 17.4341 144.187 16.9434C144.187 16.3553 143.774 16.099 142.828 16.099C142.401 16.099 142.239 15.9653 142.239 15.6136C142.239 15.1551 142.401 15.1281 145.162 15.1281C147.641 15.1281 148.085 15.1855 148.085 15.5048C148.085 15.7121 147.781 15.9871 147.41 16.116C146.575 16.406 146.365 16.7371 145.318 19.4187C144.858 20.5963 143.418 24.2819 142.119 27.6085C140.819 30.9354 139.7 33.8024 139.632 33.9797C139.563 34.1572 139.16 34.3022 138.736 34.3022H137.965L136.216 29.7514C135.253 27.2487 134.116 24.2834 133.69 23.1622C132.957 21.2408 132.896 21.1574 132.621 21.7058C132.46 22.0262 131.304 24.9967 130.051 28.307L127.775 34.326L126.925 34.2534L126.075 34.1809L122.834 25.705C121.023 20.9695 119.358 16.9795 119.06 16.664C118.767 16.3531 118.285 16.099 117.989 16.099ZM166.692 16.2019C166.651 16.1097 166.651 15.7784 166.651 15.7784C166.651 15.7784 166.642 15.6589 166.692 15.5951C166.742 15.5316 166.76 15.5299 166.939 15.5129L166.941 15.5127C167.598 15.4501 168.918 15.3449 170.019 15.2968C170.12 15.2924 170.232 15.2873 170.354 15.2818L170.356 15.2817L170.358 15.2816L170.359 15.2816C171.571 15.2266 173.739 15.1531 175.23 15.2275C178.089 15.3704 180.123 16.7528 180.816 19.0371C181.51 21.3213 181.143 23.4655 180.198 24.8303C179.253 26.1952 177.665 27.3704 175.024 27.2939C172.844 27.2308 172.26 26.8225 171.794 26.4964C171.696 26.4275 171.603 26.3621 171.501 26.3047V29.2177C171.524 31.2044 171.54 32.1586 171.694 32.5118C171.901 32.9873 172.37 33.2802 173.283 33.5048C173.283 33.5048 173.696 33.6016 173.802 33.7049C173.909 33.8081 173.909 34.0374 173.909 34.0374C173.909 34.0374 173.931 34.2518 173.845 34.361C173.759 34.4703 173.594 34.4484 173.594 34.4484L169.551 34.4158L167.114 34.4094C167.114 34.4094 166.858 34.4584 166.762 34.3556C166.666 34.2525 166.675 34.0379 166.675 34.0379C166.675 34.0379 166.696 33.8068 166.808 33.7034C166.92 33.5997 167.336 33.4841 167.336 33.4841C168.276 33.2201 168.684 32.941 168.897 32.415C169.069 31.9909 169.07 31.2046 169.068 24.7876C169.066 18.7021 169.057 17.5669 168.918 17.2405C168.711 16.7572 168.194 16.6291 167.458 16.4468L167.458 16.4468C167.312 16.4106 167.157 16.3723 166.995 16.3287C166.995 16.3287 166.733 16.2941 166.692 16.2019ZM178.463 21.1675C178.463 22.1654 178.446 23.7277 177.384 24.7263C176.321 25.725 174.23 25.9983 172.81 25.7203C172.362 25.6327 172.106 25.4976 171.909 25.3934L171.889 25.3831L171.526 25.1917L171.505 21.6856C171.492 19.4888 171.515 18.0576 171.566 17.853C171.614 16.6946 173.322 16.5505 174.157 16.5934C177.729 16.5934 178.359 19.6028 178.463 21.1675ZM155.476 15.2641C155.476 15.2641 155.302 15.331 155.037 15.4313L154.084 15.9239L153.397 17.6383C153.019 18.5813 152.328 20.3123 151.862 21.485C151.012 23.6209 150.45 25.0242 149.86 26.4889C149.686 26.9197 149.161 28.2317 148.694 29.4044C148.226 30.5769 147.759 31.6929 147.655 31.8843C147.638 31.9161 147.62 31.9504 147.601 31.9866C147.339 32.4779 146.885 33.3313 146.083 33.4603C146.083 33.4603 145.642 33.5037 145.479 33.6649C145.316 33.8264 145.331 33.9582 145.331 33.9582V34.1615C145.331 34.1615 145.346 34.26 145.439 34.309C145.531 34.3582 145.657 34.361 145.657 34.361L148.59 34.3277H151.622C151.622 34.3277 151.836 34.3527 151.919 34.2842C152.002 34.2156 152.024 34.1139 152.024 34.1139V33.8998C152.024 33.8998 151.982 33.6678 151.862 33.5771C151.742 33.4867 151.292 33.4247 151.292 33.4247C150.078 33.2652 149.869 32.3472 150.019 31.5217C150.093 31.1161 150.581 29.6157 151.13 28.1053L151.32 27.5832L154.497 27.5589C156.244 27.5456 157.753 27.5546 157.849 27.5791C157.987 27.6139 158.18 28.006 158.747 29.4023C159.606 31.5179 159.674 31.7756 159.484 32.1714C159.473 32.1955 159.46 32.2221 159.447 32.2507C159.269 32.6335 158.922 33.3773 158.049 33.453C158.049 33.453 157.586 33.469 157.471 33.6075C157.356 33.7461 157.381 33.9055 157.381 33.9055V34.1172C157.381 34.1172 157.412 34.2414 157.471 34.2906C157.53 34.3397 157.631 34.3273 157.631 34.3273L160.515 34.3066L164.568 34.3064C164.568 34.3064 164.727 34.3233 164.771 34.2623C164.814 34.2011 164.823 34.1291 164.823 34.1291V33.8479C164.823 33.8479 164.805 33.6983 164.727 33.6158C164.649 33.5334 164.123 33.4464 164.123 33.4464C163.452 33.3381 163.118 32.7838 162.869 32.3711C162.805 32.2658 162.747 32.1697 162.691 32.0927C162.575 31.9353 162.163 31.0733 161.84 30.2442C161.517 29.4151 160.789 27.5422 160.222 26.0824C159.654 24.6225 158.863 22.5861 158.462 21.5571C158.062 20.528 157.301 18.5699 156.772 17.2057C156.685 16.9818 156.607 16.7807 156.537 16.6007L156.537 16.5999C156.182 15.6838 156.039 15.3141 155.999 15.2641C155.872 15.1016 155.476 15.2641 155.476 15.2641ZM155.288 20.8386C155.16 20.5276 154.934 19.9696 154.787 19.5986C154.52 18.9244 154.418 18.7691 154.335 18.9084C154.311 18.9491 154.143 19.4099 153.961 19.9325C152.786 23.3159 152.253 24.8394 152.146 25.1265C152.079 25.307 152.024 25.4929 152.024 25.5398C152.024 25.5937 152.981 25.6251 154.619 25.6251C156.046 25.6251 157.213 25.6074 157.213 25.5858C157.213 25.5641 157.086 25.2412 156.93 24.8678C156.775 24.4944 156.394 23.5625 156.084 22.7967C155.774 22.0309 155.416 21.1498 155.288 20.8386Z" fill="white"/>
</svg>
