<svg width="252" height="42" viewBox="0 0 252 42" fill="none" xmlns="http://www.w3.org/2000/svg">
<path d="M157.618 11.5255H159.751V18.7776H156.637C153.864 18.7776 152.67 20.0148 152.67 22.9583V34.647H144.735V11.6109H150.068L151.305 14.1704C152.926 12.2934 154.888 11.5255 157.618 11.5255Z" fill="#3CADEF"/>
<path d="M130.349 35.4156C122.841 35.4156 117.466 30.2538 117.466 23.1297C117.466 16.0055 122.841 10.8864 130.349 10.8864C137.857 10.8864 143.275 16.0055 143.275 23.1297C143.275 30.2538 137.857 35.4156 130.349 35.4156ZM130.349 28.2915C133.25 28.2915 135.34 26.2012 135.34 23.1723C135.34 20.1435 133.25 18.0105 130.349 18.0105C127.491 18.0105 125.401 20.1009 125.401 23.1723C125.401 26.2012 127.491 28.2915 130.349 28.2915Z" fill="#3CADEF"/>
<path d="M113.722 27.7362H116.751V34.6471H111.291C106.214 34.6471 103.1 31.5329 103.1 26.4138V17.7539H98.8769V15.8769L109.2 4.91341H110.864V11.6109H116.623V17.7539H111.035V25.0913C111.035 26.7124 112.059 27.7362 113.722 27.7362Z" fill="#3CADEF"/>
<path d="M93.0101 11.6101H98.9397V34.6463H92.7968L92.1142 33.0252C90.2372 34.5609 87.8483 35.4141 85.1607 35.4141C78.1219 35.4141 73.0881 30.295 73.0881 23.1282C73.0881 16.0041 78.1219 10.9276 85.1607 10.9276C87.8909 10.9276 90.3225 11.8234 92.1995 13.4018L93.0101 11.6101ZM86.2272 28.418C89.2134 28.418 91.389 26.157 91.389 23.1282C91.389 20.142 89.2134 17.9237 86.2272 17.9237C83.241 17.9237 81.0654 20.142 81.0654 23.1282C81.0654 26.157 83.241 28.418 86.2272 28.418Z" fill="#3CADEF"/>
<path d="M71.8791 22.9164C71.8791 23.6416 71.8364 24.3241 71.7511 25.0494H54.6446C55.1565 27.6942 56.8203 29.0593 59.3372 29.0593C61.1715 29.0593 62.7499 28.2488 63.4751 26.8837H71.4098C69.7887 32.1308 65.0962 35.4156 59.3372 35.4156C52.1277 35.4156 46.8379 30.1685 46.8379 23.1297C46.8379 16.0909 52.0851 10.8864 59.3372 10.8864C66.7599 10.8864 71.8791 16.1762 71.8791 22.9164ZM59.3372 17.1147C57.0336 17.1147 55.4125 18.3518 54.7726 20.6554H64.0724C63.3898 18.3518 61.7261 17.1147 59.3372 17.1147Z" fill="#3CADEF"/>
<path d="M43.4959 11.5255H45.6288V18.7776H42.5147C39.7418 18.7776 38.5473 20.0148 38.5473 22.9583V34.647H30.6127V11.6109H35.9451L37.1822 14.1704C38.8033 12.2934 40.7656 11.5255 43.4959 11.5255Z" fill="#3CADEF"/>
<path d="M14.5742 35.415C6.22928 35.415 0 29.2249 0 21.0368C0 12.8094 6.22928 6.61931 14.5742 6.61931C21.7437 6.61931 27.3069 11.3598 28.4431 18.2943H20.7643C19.824 15.5127 17.4733 13.6713 14.5742 13.6713C10.6955 13.6713 7.83557 16.8055 7.83557 21.0368C7.83557 25.268 10.6955 28.363 14.5742 28.363C17.63 28.363 20.0199 26.3649 20.8034 23.3091H28.5215C27.4637 30.5178 21.8612 35.415 14.5742 35.415Z" fill="#3CADEF"/>
<path d="M166.067 1.35185L167 1L166.933 38.6482L166 39L166.067 1.35185Z" fill="white"/>
<path d="M239.842 11.2313C246.948 11.2313 252 16.069 252 22.8988C252 29.7285 246.948 34.5663 239.842 34.5663C237.145 34.5663 234.748 33.7126 232.864 32.2084L232.136 33.8345H226.228V5.76267H234.105V12.7355C235.775 11.7598 237.701 11.2313 239.842 11.2313ZM238.772 27.8585C241.726 27.8585 243.952 25.7445 243.952 22.8988C243.952 20.0124 241.768 17.8984 238.772 17.8984C235.818 17.8984 233.592 20.0124 233.592 22.8988C233.592 25.7445 235.818 27.8585 238.772 27.8585Z" fill="white"/>
<path d="M212.36 34.5662C205.554 34.5662 200.973 30.5822 200.973 24.4435V11.8817H208.936V24.1183C208.936 26.4355 210.263 27.7771 212.36 27.7771C214.501 27.7771 215.785 26.3949 215.785 24.1183V11.8817H223.748V24.4435C223.748 30.5822 219.21 34.5662 212.36 34.5662Z" fill="white"/>
<path d="M190.279 5.76268H198.584V33.8343H190.279V22.9392H181.289V33.8343H172.941V5.76271H181.289V15.6622H190.279V5.76268Z" fill="white"/>
</svg>
