<svg width="211" height="32" viewBox="0 0 211 32" fill="none" xmlns="http://www.w3.org/2000/svg">
<path d="M131.592 8.78752H133.373V14.8421H130.773C128.458 14.8421 127.46 15.875 127.46 18.3325V28.0911H120.836V8.85875H125.288L126.321 10.9957C127.674 9.4286 129.312 8.78752 131.592 8.78752Z" fill="#3CADEF"/>
<path d="M108.825 28.7328C102.557 28.7328 98.0695 24.4233 98.0695 18.4756C98.0695 12.5278 102.557 8.25393 108.825 8.25393C115.094 8.25393 119.617 12.5278 119.617 18.4756C119.617 24.4233 115.094 28.7328 108.825 28.7328ZM108.825 22.785C111.247 22.785 112.992 21.0399 112.992 18.5112C112.992 15.9825 111.247 14.2017 108.825 14.2017C106.439 14.2017 104.694 15.9469 104.694 18.5112C104.694 21.0399 106.439 22.785 108.825 22.785Z" fill="#3CADEF"/>
<path d="M94.9442 22.3215H97.4729V28.0912H92.9141C88.6759 28.0912 86.0759 25.4912 86.0759 21.2174V13.9874H82.55V12.4204L91.1689 3.26721H92.5579V8.85883H97.366V13.9874H92.7004V20.1133C92.7004 21.4667 93.5552 22.3215 94.9442 22.3215Z" fill="#3CADEF"/>
<path d="M77.6519 8.85815H82.6025V28.0905H77.4739L76.904 26.7371C75.3369 28.0192 73.3425 28.7316 71.0987 28.7316C65.2222 28.7316 61.0195 24.4577 61.0195 18.4743C61.0195 12.5265 65.2222 8.28831 71.0987 8.28831C73.3781 8.28831 75.4082 9.03623 76.9752 10.354L77.6519 8.85815ZM71.9891 22.8906C74.4822 22.8906 76.2986 21.003 76.2986 18.4743C76.2986 15.9812 74.4822 14.1292 71.9891 14.1292C69.496 14.1292 67.6796 15.9812 67.6796 18.4743C67.6796 21.003 69.496 22.8906 71.9891 22.8906Z" fill="#3CADEF"/>
<path d="M60.0102 18.2975C60.0102 18.9029 59.9745 19.4728 59.9033 20.0782H45.6215C46.0489 22.2864 47.4379 23.4261 49.5392 23.4261C51.0707 23.4261 52.3885 22.7494 52.9939 21.6097H59.6184C58.265 25.9904 54.3473 28.7328 49.5392 28.7328C43.5202 28.7328 39.1039 24.3521 39.1039 18.4756C39.1039 12.599 43.4846 8.25393 49.5392 8.25393C55.7363 8.25393 60.0102 12.6702 60.0102 18.2975ZM49.5392 13.4538C47.616 13.4538 46.2626 14.4866 45.7284 16.4099H53.4925C52.9227 14.4866 51.5337 13.4538 49.5392 13.4538Z" fill="#3CADEF"/>
<path d="M36.3137 8.78752H38.0944V14.8421H35.4945C33.1795 14.8421 32.1823 15.875 32.1823 18.3325V28.0911H25.5578V8.85875H30.0097L31.0426 10.9957C32.396 9.4286 34.0343 8.78752 36.3137 8.78752Z" fill="#3CADEF"/>
<path d="M12.1676 28.7323C5.20068 28.7323 0 23.5643 0 16.7282C0 9.8594 5.20068 4.69143 12.1676 4.69143C18.1533 4.69143 22.7979 8.64918 23.7465 14.4386H17.3356C16.5506 12.1163 14.5881 10.579 12.1676 10.579C8.92947 10.579 6.54173 13.1957 6.54173 16.7282C6.54173 20.2608 8.92947 22.8447 12.1676 22.8447C14.7189 22.8447 16.7141 21.1766 17.3683 18.6253H23.8119C22.9288 24.6437 18.2514 28.7323 12.1676 28.7323Z" fill="#3CADEF"/>
<path d="M138.44 0.296294L139.385 0L139.317 31.7037L138.373 32L138.44 0.296294Z" fill="white"/>
<path d="M200.238 8.54185C206.171 8.54185 210.389 12.5808 210.389 18.2828C210.389 23.9848 206.171 28.0237 200.238 28.0237C197.987 28.0237 195.985 27.311 194.413 26.0552L193.805 27.4128H188.873V3.97624H195.449V9.79765C196.843 8.98308 198.451 8.54185 200.238 8.54185ZM199.345 22.4235C201.811 22.4235 203.67 20.6586 203.67 18.2828C203.67 15.873 201.847 14.1081 199.345 14.1081C196.879 14.1081 195.02 15.873 195.02 18.2828C195.02 20.6586 196.879 22.4235 199.345 22.4235Z" fill="white"/>
<path d="M177.295 28.0237C171.612 28.0237 167.788 24.6975 167.788 19.5725V9.08484H174.436V19.3009C174.436 21.2355 175.543 22.3556 177.295 22.3556C179.082 22.3556 180.154 21.2016 180.154 19.3009V9.08484H186.802V19.5725C186.802 24.6975 183.013 28.0237 177.295 28.0237Z" fill="white"/>
<path d="M158.86 3.97625H165.793V27.4126H158.86V18.3165H151.354V27.4126H144.385V3.97627H151.354V12.2411H158.86V3.97625Z" fill="white"/>
</svg>
