<svg width="278" height="32" viewBox="0 0 278 32" fill="none" xmlns="http://www.w3.org/2000/svg">
<path d="M165.397 8.78711H167.178V14.8417H164.578C162.263 14.8417 161.266 15.8746 161.266 18.332V28.0907H154.642V8.85834H159.094L160.126 10.9953C161.48 9.42819 163.118 8.78711 165.397 8.78711Z" fill="#3CADEF"/>
<path d="M142.631 28.7328C136.363 28.7328 131.875 24.4233 131.875 18.4755C131.875 12.5278 136.363 8.25391 142.631 8.25391C148.899 8.25391 153.422 12.5278 153.422 18.4755C153.422 24.4233 148.899 28.7328 142.631 28.7328ZM142.631 22.785C145.053 22.785 146.798 21.0398 146.798 18.5111C146.798 15.9825 145.053 14.2017 142.631 14.2017C140.245 14.2017 138.499 15.9468 138.499 18.5111C138.499 21.0398 140.245 22.785 142.631 22.785Z" fill="#3CADEF"/>
<path d="M128.75 22.3218H131.278V28.0915H126.72C122.481 28.0915 119.881 25.4916 119.881 21.2177V13.9878H116.355V12.4207L124.974 3.26758H126.363V8.8592H131.171V13.9878H126.506V20.1137C126.506 21.4671 127.361 22.3218 128.75 22.3218Z" fill="#3CADEF"/>
<path d="M111.458 8.85891H116.408V28.0912H111.28L110.71 26.7378C109.143 28.02 107.148 28.7323 104.904 28.7323C99.0278 28.7323 94.8252 24.4585 94.8252 18.4751C94.8252 12.5273 99.0278 8.28906 104.904 8.28906C107.184 8.28906 109.214 9.03699 110.781 10.3548L111.458 8.85891ZM105.795 22.8914C108.288 22.8914 110.104 21.0038 110.104 18.4751C110.104 15.982 108.288 14.13 105.795 14.13C103.302 14.13 101.485 15.982 101.485 18.4751C101.485 21.0038 103.302 22.8914 105.795 22.8914Z" fill="#3CADEF"/>
<path d="M93.8154 18.2975C93.8154 18.9029 93.7798 19.4728 93.7086 20.0782H79.4268C79.8542 22.2864 81.2432 23.4261 83.3445 23.4261C84.876 23.4261 86.1937 22.7494 86.7992 21.6097H93.4237C92.0703 25.9904 88.1526 28.7328 83.3445 28.7328C77.3255 28.7328 72.9092 24.3521 72.9092 18.4755C72.9092 12.599 77.2899 8.25391 83.3445 8.25391C89.5416 8.25391 93.8154 12.6702 93.8154 18.2975ZM83.3445 13.4538C81.4213 13.4538 80.0679 14.4866 79.5336 16.4098H87.2978C86.728 14.4866 85.339 13.4538 83.3445 13.4538Z" fill="#3CADEF"/>
<path d="M70.1191 8.78711H71.8999V14.8417H69.3C66.985 14.8417 65.9877 15.8746 65.9877 18.332V28.0907H59.3633V8.85834H63.8152L64.8481 10.9953C66.2014 9.42819 67.8398 8.78711 70.1191 8.78711Z" fill="#3CADEF"/>
<path d="M45.9733 28.7323C39.0063 28.7323 33.8057 23.5643 33.8057 16.7282C33.8057 9.85937 39.0063 4.69141 45.9733 4.69141C51.959 4.69141 56.6036 8.64915 57.5522 14.4386H51.1413C50.3562 12.1163 48.3937 10.579 45.9733 10.579C42.7351 10.579 40.3474 13.1957 40.3474 16.7282C40.3474 20.2607 42.7351 22.8447 45.9733 22.8447C48.5246 22.8447 50.5198 21.1766 51.174 18.6253H57.6176C56.7344 24.6437 52.0571 28.7323 45.9733 28.7323Z" fill="#3CADEF"/>
<path d="M172.246 0.296294L173.19 0L173.122 31.7037L172.178 32L172.246 0.296294Z" fill="white"/>
<path d="M234.044 8.54218C239.977 8.54218 244.195 12.5811 244.195 18.2831C244.195 23.9851 239.977 28.024 234.044 28.024C231.793 28.024 229.791 27.3113 228.219 26.0555L227.611 27.4131H222.679V3.97656H229.255V9.79797C230.649 8.9834 232.257 8.54218 234.044 8.54218ZM233.151 22.4239C235.617 22.4239 237.475 20.6589 237.475 18.2831C237.475 15.8733 235.653 14.1084 233.151 14.1084C230.685 14.1084 228.826 15.8733 228.826 18.2831C228.826 20.6589 230.685 22.4239 233.151 22.4239Z" fill="white"/>
<path d="M211.101 28.0247C205.418 28.0247 201.594 24.6986 201.594 19.5736V9.08594H208.242V19.302C208.242 21.2366 209.35 22.3567 211.101 22.3567C212.888 22.3567 213.96 21.2027 213.96 19.302V9.08594H220.608V19.5736C220.608 24.6986 216.819 28.0247 211.101 28.0247Z" fill="white"/>
<path d="M192.666 3.97656H199.599V27.4129H192.666V18.3168H185.16V27.4129H178.19V3.97659H185.16V12.2415H192.666V3.97656Z" fill="white"/>
</svg>
