<svg width="180" height="37" viewBox="0 0 180 37" fill="none" xmlns="http://www.w3.org/2000/svg">
<path d="M101.996 0.335663L102.939 0L102.872 35.9162L101.928 36.2519L101.996 0.335663Z" fill="white"/>
<path d="M169.004 9.57568C175.431 9.57568 180 14.4373 180 21.3008C180 28.1643 175.431 33.0259 169.004 33.0259C166.565 33.0259 164.396 32.168 162.693 30.6564L162.034 32.2905H156.691V4.08008H163.816V11.0873C165.326 10.1068 167.068 9.57568 169.004 9.57568ZM168.036 26.285C170.708 26.285 172.721 24.1606 172.721 21.3008C172.721 18.4001 170.746 16.2757 168.036 16.2757C165.364 16.2757 163.351 18.4001 163.351 21.3008C163.351 24.1606 165.364 26.285 168.036 26.285Z" fill="white"/>
<path d="M144.149 33.0251C137.993 33.0251 133.85 29.0214 133.85 22.8524V10.2285H141.052V22.5256C141.052 24.8543 142.252 26.2024 144.149 26.2024C146.085 26.2024 147.247 24.8134 147.247 22.5256V10.2285H154.449V22.8524C154.449 29.0214 150.344 33.0251 144.149 33.0251Z" fill="white"/>
<path d="M124.177 4.08008H131.689V32.2902H124.177V21.3413H116.046V32.2902H108.496V4.08011H116.046V14.0285H124.177V4.08008Z" fill="white"/>
<path d="M87.1643 33.0066C81.4941 33.0066 78.0612 29.6637 77.9841 24.6493H84.8885C84.8885 26.3636 85.9685 27.135 87.3186 27.135C88.36 27.135 89.3629 26.535 89.3629 25.335C89.3629 24.0064 87.7814 23.6207 85.7757 23.2778C82.5356 22.6778 78.2541 21.6064 78.2541 15.992C78.2541 11.3633 81.8413 8.36328 87.1643 8.36328C92.4487 8.36328 95.9202 11.4919 95.9973 16.1634H89.2472C89.2472 14.7063 88.36 14.0205 87.0871 14.0205C85.9299 14.0205 85.1585 14.6634 85.1585 15.7348C85.1585 17.0206 86.74 17.3634 88.7072 17.7492C92.0244 18.392 96.3831 19.1635 96.3831 24.9921C96.3831 29.8351 92.7187 33.0066 87.1643 33.0066Z" fill="#3CADEF"/>
<path d="M71.4819 9.08984H78.8107L72.1762 32.2331H66.3904L62.3017 21.9044L58.2516 32.2331H52.4658L45.677 9.08984H53.1986L56.323 21.2615L61.2603 9.17556H63.1889L68.3961 21.3901L71.4819 9.08984Z" fill="#3CADEF"/>
<path d="M47.2234 20.4492C47.2234 21.1778 47.1848 21.8635 47.1076 22.5921H31.6401C32.103 25.2493 33.6073 26.6207 35.8831 26.6207C37.5417 26.6207 38.9689 25.8064 39.6246 24.435H46.7991C45.3333 29.7065 41.0903 33.0066 35.8831 33.0066C29.3644 33.0066 24.5814 27.7351 24.5814 20.6635C24.5814 13.5919 29.3258 8.36328 35.8831 8.36328C42.5947 8.36328 47.2234 13.6777 47.2234 20.4492ZM35.8831 14.6205C33.8002 14.6205 32.3344 15.8634 31.7558 18.1777H40.1646C39.5475 15.8634 38.0431 14.6205 35.8831 14.6205Z" fill="#3CADEF"/>
<path d="M16.2617 4.06055H23.2044V32.937H17.2641L6.94276 17.3025V32.937H0V4.06055H6.27448L16.2617 19.2413V4.06055Z" fill="#3CADEF"/>
</svg>
