<svg width="428" height="70" viewBox="0 0 428 70" fill="none" xmlns="http://www.w3.org/2000/svg">
<g clip-path="url(#clip0_32_2)">
<path d="M22.354 11.622C33.5087 11.622 41.8188 19.6303 41.8188 30.5573C41.8188 41.5594 33.5087 49.5676 22.354 49.5676H14.4932V64.0124H0.0443726V11.622H22.354ZM20.6321 36.9941C24.4502 36.9941 26.9206 34.3744 26.9206 30.6322C26.9206 26.8902 24.4502 24.2705 20.6321 24.2705H14.4932V36.9941H20.6321Z" fill="#3CADEF"/>
<path d="M252.814 50.0317H258.33V62.6145H248.386C239.14 62.6145 233.469 56.9445 233.469 47.6239V31.8565H225.777V28.439L244.579 8.47748H247.609V20.6719H258.098V31.8565H247.92V45.2161C247.92 48.1677 249.784 50.0317 252.814 50.0317Z" fill="#3CADEF"/>
<path d="M227.191 41.2548C227.191 42.5751 227.113 43.8179 226.958 45.1382H195.803C196.735 49.9538 199.765 52.4395 204.349 52.4395C207.69 52.4395 210.564 50.9637 211.885 48.4782H226.336C223.384 58.0318 214.837 64.0124 204.349 64.0124C191.219 64.0124 181.585 54.4588 181.585 41.643C181.585 28.8272 191.141 19.3513 204.349 19.3513C217.868 19.3513 227.191 28.9825 227.191 41.2548ZM204.349 30.6913C200.154 30.6913 197.201 32.9438 196.036 37.138H212.973C211.73 32.9438 208.7 30.6913 204.349 30.6913Z" fill="#3CADEF"/>
<path d="M185.369 62.6143H168.277L157.788 44.9052V62.6143H143.337V9.15131H157.788V37.138L167.811 20.6717H184.048L170.918 40.711L185.369 62.6143Z" fill="#3CADEF"/>
<path d="M117.175 64.0125C103.734 64.0125 94.022 54.6141 94.022 41.6431C94.022 28.672 103.656 19.429 117.252 19.429C129.062 19.429 137.841 26.8077 139.473 37.9924H125.332C124.167 34.5749 120.982 32.3224 117.175 32.3224C112.125 32.3224 108.473 36.206 108.473 41.6431C108.473 47.1578 112.125 51.119 117.175 51.119C121.059 51.119 124.245 48.7112 125.41 44.9829H139.628C137.996 56.3229 128.984 64.0125 117.175 64.0125Z" fill="#3CADEF"/>
<path d="M79.6191 20.6717H90.4186V62.6143H79.2308L77.9876 59.6627C74.5691 62.459 70.2184 64.0125 65.3235 64.0125C52.5042 64.0125 43.3365 54.6918 43.3365 41.6431C43.3365 28.672 52.5042 19.429 65.3235 19.429C70.2961 19.429 74.7245 21.0601 78.1429 23.934L79.6191 20.6717ZM67.266 51.2743C72.7046 51.2743 76.6669 47.1578 76.6669 41.6431C76.6669 36.206 72.7046 32.1671 67.266 32.1671C61.8274 32.1671 57.8651 36.206 57.8651 41.6431C57.8651 47.1578 61.8274 51.2743 67.266 51.2743Z" fill="#3CADEF"/>
<path d="M270.658 0.772153L272.717 0.126068L272.568 69.2578L270.509 69.9038L270.658 0.772153Z" fill="white"/>
<path d="M405.67 21.545C418.612 21.545 427.81 30.352 427.81 42.7855C427.81 55.2191 418.612 64.0261 405.67 64.0261C400.76 64.0261 396.394 62.472 392.965 59.7337L391.639 62.6941H380.881V11.5894H395.225V24.2833C398.265 22.5071 401.773 21.545 405.67 21.545ZM403.723 51.8146C409.102 51.8146 413.154 47.9662 413.154 42.7855C413.154 37.5309 409.178 33.6825 403.723 33.6825C398.344 33.6825 394.289 37.5309 394.289 42.7855C394.289 47.9662 398.344 51.8146 403.723 51.8146Z" fill="white"/>
<path d="M355.627 64.0263C343.232 64.0263 334.89 56.7735 334.89 45.598V22.7292H349.39V45.0061C349.39 49.2246 351.809 51.6669 355.627 51.6669C359.525 51.6669 361.864 49.1504 361.864 45.0061V22.7292H376.364V45.598C376.364 56.7735 368.101 64.0263 355.627 64.0263Z" fill="white"/>
<path d="M315.417 11.5901H330.541V62.6943H315.417V42.8597H299.046V62.6943H283.846V11.5901H299.046V29.6121H315.417V11.5901Z" fill="white"/>
</g>
<defs>
<clipPath id="clip0_32_2">
<rect width="428" height="70" fill="white"/>
</clipPath>
</defs>
</svg>
