<svg width="198" height="33" viewBox="0 0 198 33" fill="none" xmlns="http://www.w3.org/2000/svg">
<path d="M11.1687 5.93815C16.2829 5.93815 20.0928 9.61073 20.0928 14.6219C20.0928 19.6674 16.2829 23.34 11.1687 23.34H7.56481V29.9644H0.94043V5.93815H11.1687ZM10.3793 17.5737C12.1298 17.5737 13.2625 16.3724 13.2625 14.6562C13.2625 12.9401 12.1298 11.7388 10.3793 11.7388H7.56481V17.5737H10.3793Z" fill="#3CADEF"/>
<path d="M116.828 23.5538H119.357V29.3242H114.798C110.559 29.3242 107.959 26.724 107.959 22.4496V15.2187H104.433V13.6514L113.053 4.49707H114.442V10.0894H119.251V15.2187H114.584V21.3454C114.584 22.6989 115.439 23.5538 116.828 23.5538Z" fill="#3CADEF"/>
<path d="M105.08 19.5289C105.08 20.1344 105.044 20.7044 104.973 21.3099H90.6894C91.1168 23.5184 92.506 24.6582 94.6076 24.6582C96.1392 24.6582 97.4572 23.9814 98.0627 22.8416H104.688C103.334 27.2228 99.4163 29.9656 94.6076 29.9656C88.5878 29.9656 84.1709 25.5843 84.1709 19.707C84.1709 13.8297 88.5522 9.48405 94.6076 9.48405C100.805 9.48405 105.08 13.9009 105.08 19.5289ZM94.6076 14.6846C92.6841 14.6846 91.3305 15.7176 90.7962 17.641H98.5614C97.9915 15.7176 96.6023 14.6846 94.6076 14.6846Z" fill="#3CADEF"/>
<path d="M85.9062 29.3237H78.0698L73.2611 21.2024V29.3237H66.6357V4.80566H73.2611V17.6404L77.8561 10.0889H85.3007L79.2809 19.2789L85.9062 29.3237Z" fill="#3CADEF"/>
<path d="M54.6411 29.9651C48.4789 29.9651 44.0264 25.6551 44.0264 19.7065C44.0264 13.758 48.4433 9.5192 54.6768 9.5192C60.091 9.5192 64.1161 12.9031 64.8641 18.0324H58.3812C57.8469 16.4651 56.3865 15.4321 54.6411 15.4321C52.3258 15.4321 50.6517 17.2131 50.6517 19.7065C50.6517 22.2356 52.3258 24.0522 54.6411 24.0522C56.4221 24.0522 57.8826 22.948 58.4169 21.2382H64.9353C64.1873 26.4387 60.0554 29.9651 54.6411 29.9651Z" fill="#3CADEF"/>
<path d="M37.4227 10.0891H42.3738V29.324H37.2446L36.6746 27.9704C35.1073 29.2527 33.1126 29.9651 30.8686 29.9651C24.9913 29.9651 20.7881 25.6907 20.7881 19.7065C20.7881 13.758 24.9913 9.5192 30.8686 9.5192C33.1482 9.5192 35.1786 10.2672 36.7459 11.5852L37.4227 10.0891ZM31.7591 24.1234C34.2525 24.1234 36.0691 22.2356 36.0691 19.7065C36.0691 17.2131 34.2525 15.3609 31.7591 15.3609C29.2657 15.3609 27.449 17.2131 27.449 19.7065C27.449 22.2356 29.2657 24.1234 31.7591 24.1234Z" fill="#3CADEF"/>
<path d="M125.008 0.963286L125.952 0.666992L125.885 32.3707L124.94 32.667L125.008 0.963286Z" fill="white"/>
<path d="M186.909 10.4888C192.842 10.4888 197.06 14.5277 197.06 20.2297C197.06 25.9317 192.842 29.9707 186.909 29.9707C184.658 29.9707 182.656 29.2579 181.083 28.0021L180.476 29.3597H175.544V5.92318H182.12V11.7446C183.514 10.93 185.122 10.4888 186.909 10.4888ZM186.016 24.3705C188.482 24.3705 190.34 22.6056 190.34 20.2297C190.34 17.8199 188.518 16.055 186.016 16.055C183.55 16.055 181.691 17.8199 181.691 20.2297C181.691 22.6056 183.55 24.3705 186.016 24.3705Z" fill="white"/>
<path d="M163.966 29.9701C158.283 29.9701 154.459 26.6439 154.459 21.5189V11.0312H161.107V21.2473C161.107 23.182 162.215 24.302 163.966 24.302C165.753 24.302 166.825 23.148 166.825 21.2473V11.0312H173.473V21.5189C173.473 26.6439 169.685 29.9701 163.966 29.9701Z" fill="white"/>
<path d="M145.53 5.92318H152.464V29.3595H145.53V20.2634H138.025V29.3595H131.055V5.9232H138.025V14.1881H145.53V5.92318Z" fill="white"/>
</svg>
