<svg width="174" height="28" viewBox="0 0 174 28" fill="none" xmlns="http://www.w3.org/2000/svg">
<g clip-path="url(#clip0_32_2)">
<path d="M9.08786 4.6488C13.6227 4.6488 17.0011 7.85211 17.0011 12.2229C17.0011 16.6238 13.6227 19.8271 9.08786 19.8271H5.89212V25.605H0.0180664V4.6488H9.08786ZM8.38783 14.7976C9.94008 14.7976 10.9444 13.7498 10.9444 12.2529C10.9444 10.7561 9.94008 9.70822 8.38783 9.70822H5.89212V14.7976H8.38783Z" fill="#3CADEF"/>
<path d="M102.78 20.0127H105.022V25.0458H100.979C97.2204 25.0458 94.9148 22.7778 94.9148 19.0496V12.7426H91.788V11.3756L99.4317 3.39099H100.664V8.26876H104.928V12.7426H100.79V18.0864C100.79 19.2671 101.548 20.0127 102.78 20.0127Z" fill="#3CADEF"/>
<path d="M92.3626 16.5019C92.3626 17.03 92.331 17.5272 92.2678 18.0553H79.602C79.981 19.9815 81.2129 20.9758 83.0765 20.9758C84.4346 20.9758 85.6033 20.3855 86.1402 19.3913H92.0151C90.8148 23.2127 87.3405 25.605 83.0765 25.605C77.7384 25.605 73.8218 21.7835 73.8218 16.6572C73.8218 11.5309 77.7069 7.74054 83.0765 7.74054C88.5723 7.74054 92.3626 11.593 92.3626 16.5019ZM83.0765 12.2765C81.3709 12.2765 80.1706 13.1775 79.6967 14.8552H86.5824C86.0771 13.1775 84.8452 12.2765 83.0765 12.2765Z" fill="#3CADEF"/>
<path d="M75.3604 25.0457H68.4116L64.1475 17.9621V25.0457H58.2726V3.66052H64.1475V14.8552L68.222 8.26869H74.8234L69.4855 16.2844L75.3604 25.0457Z" fill="#3CADEF"/>
<path d="M47.6364 25.605C42.1721 25.605 38.2239 21.8457 38.2239 16.6572C38.2239 11.4688 42.1405 7.77161 47.668 7.77161C52.469 7.77161 56.0382 10.7231 56.7015 15.197H50.9529C50.4792 13.83 49.1841 12.929 47.6364 12.929C45.5834 12.929 44.0988 14.4824 44.0988 16.6572C44.0988 18.8631 45.5834 20.4476 47.6364 20.4476C49.2157 20.4476 50.5107 19.4845 50.9845 17.9932H56.7646C56.1014 22.5292 52.4375 25.605 47.6364 25.605Z" fill="#3CADEF"/>
<path d="M32.3685 8.2687H36.759V25.0457H32.2106L31.7052 23.8651C30.3155 24.9836 28.5467 25.605 26.5568 25.605C21.3452 25.605 17.6181 21.8767 17.6181 16.6572C17.6181 11.4688 21.3452 7.77161 26.5568 7.77161C28.5783 7.77161 30.3786 8.42404 31.7684 9.57359L32.3685 8.2687ZM27.3465 20.5097C29.5575 20.5097 31.1683 18.8631 31.1683 16.6572C31.1683 14.4824 29.5575 12.8668 27.3465 12.8668C25.1354 12.8668 23.5246 14.4824 23.5246 16.6572C23.5246 18.8631 25.1354 20.5097 27.3465 20.5097Z" fill="#3CADEF"/>
<path d="M110.034 0.30888L110.871 0.0504456L110.81 27.7031L109.973 27.9615L110.034 0.30888Z" fill="white"/>
<path d="M164.922 8.61799C170.184 8.61799 173.923 12.1408 173.923 17.1142C173.923 22.0877 170.184 25.6105 164.922 25.6105C162.926 25.6105 161.151 24.9888 159.757 23.8935L159.218 25.0776H154.844V4.63577H160.676V9.71332C161.911 9.00285 163.338 8.61799 164.922 8.61799ZM164.13 20.7259C166.317 20.7259 167.965 19.1865 167.965 17.1142C167.965 15.0124 166.348 13.473 164.13 13.473C161.943 13.473 160.295 15.0124 160.295 17.1142C160.295 19.1865 161.943 20.7259 164.13 20.7259Z" fill="white"/>
<path d="M144.577 25.6105C139.538 25.6105 136.147 22.7094 136.147 18.2392V9.09171H142.042V18.0024C142.042 19.6898 143.025 20.6668 144.577 20.6668C146.162 20.6668 147.113 19.6602 147.113 18.0024V9.09171H153.008V18.2392C153.008 22.7094 149.648 25.6105 144.577 25.6105Z" fill="white"/>
<path d="M128.23 4.63602H134.379V25.0777H128.23V17.1439H121.575V25.0777H115.395V4.63604H121.575V11.8448H128.23V4.63602Z" fill="white"/>
</g>
<defs>
<clipPath id="clip0_32_2">
<rect width="174" height="28" fill="white"/>
</clipPath>
</defs>
</svg>
