<svg width="263" height="43" viewBox="0 0 263 43" fill="none" xmlns="http://www.w3.org/2000/svg">
<g clip-path="url(#clip0_32_2)">
<path d="M13.7362 7.13922C20.5907 7.13922 25.6971 12.0586 25.6971 18.7709C25.6971 25.5293 20.5907 30.4487 13.7362 30.4487H8.90588V39.3219H0.0272827V7.13922H13.7362ZM12.6781 22.7249C15.0244 22.7249 16.5424 21.1157 16.5424 18.8169C16.5424 16.5183 15.0244 14.909 12.6781 14.909H8.90588V22.7249H12.6781Z" fill="#3CADEF"/>
<path d="M155.351 30.7337H158.74V38.4632H152.63C146.948 38.4632 143.463 34.9802 143.463 29.2547V19.569H138.737V17.4697L150.29 5.20758H152.152V12.6984H158.598V19.569H152.343V27.7756C152.343 29.5887 153.489 30.7337 155.351 30.7337Z" fill="#3CADEF"/>
<path d="M139.605 25.3422C139.605 26.1533 139.558 26.9167 139.462 27.7277H120.318C120.891 30.6859 122.753 32.2128 125.57 32.2128C127.622 32.2128 129.389 31.3063 130.2 29.7795H139.08C137.266 35.6481 132.015 39.3219 125.57 39.3219C117.501 39.3219 111.581 33.4533 111.581 25.5807C111.581 17.7082 117.453 11.8873 125.57 11.8873C133.877 11.8873 139.605 17.8036 139.605 25.3422ZM125.57 18.8532C122.992 18.8532 121.177 20.2369 120.461 22.8134H130.869C130.105 20.2369 128.243 18.8532 125.57 18.8532Z" fill="#3CADEF"/>
<path d="M113.907 38.4631H103.404L96.9587 27.5846V38.4631H88.0788V5.62152H96.9587V22.8133L103.117 12.6984H113.095L105.027 25.0082L113.907 38.4631Z" fill="#3CADEF"/>
<path d="M72.0021 39.3219C63.7429 39.3219 57.7752 33.5487 57.7752 25.5807C57.7752 17.6128 63.6951 11.935 72.0499 11.935C79.3066 11.935 84.7014 16.4676 85.7039 23.3382H77.015C76.2989 21.2389 74.3415 19.8552 72.0021 19.8552C68.899 19.8552 66.6551 22.2408 66.6551 25.5807C66.6551 28.9683 68.899 31.4017 72.0021 31.4017C74.3892 31.4017 76.3466 29.9226 77.0627 27.6323H85.7994C84.7968 34.5983 79.2589 39.3219 72.0021 39.3219Z" fill="#3CADEF"/>
<path d="M48.9249 12.6984H55.561V38.4631H48.6862L47.9223 36.65C45.8217 38.3677 43.1483 39.3219 40.1404 39.3219C32.2631 39.3219 26.6297 33.5964 26.6297 25.5807C26.6297 17.6128 32.2631 11.935 40.1404 11.935C43.196 11.935 45.9172 12.9369 48.0178 14.7023L48.9249 12.6984ZM41.334 31.4971C44.676 31.4971 47.1108 28.9683 47.1108 25.5807C47.1108 22.2408 44.676 19.7598 41.334 19.7598C37.9921 19.7598 35.5573 22.2408 35.5573 25.5807C35.5573 28.9683 37.9921 31.4971 41.334 31.4971Z" fill="#3CADEF"/>
<path d="M166.315 0.474334L167.581 0.0774536L167.489 42.5441L166.224 42.9409L166.315 0.474334Z" fill="white"/>
<path d="M249.279 13.2348C257.231 13.2348 262.883 18.6448 262.883 26.2825C262.883 33.9203 257.231 39.3303 249.279 39.3303C246.261 39.3303 243.578 38.3756 241.471 36.6935L240.656 38.5121H234.046V7.1192H242.86V14.9169C244.728 13.8258 246.884 13.2348 249.279 13.2348ZM248.082 31.829C251.387 31.829 253.878 29.465 253.878 26.2825C253.878 23.0547 251.434 20.6907 248.082 20.6907C244.777 20.6907 242.285 23.0547 242.285 26.2825C242.285 29.465 244.777 31.829 248.082 31.829Z" fill="white"/>
<path d="M218.528 39.3305C210.911 39.3305 205.785 34.8751 205.785 28.0102V13.9622H214.695V27.6466C214.695 30.238 216.181 31.7383 218.528 31.7383C220.923 31.7383 222.36 30.1924 222.36 27.6466V13.9622H231.27V28.0102C231.27 34.8751 226.193 39.3305 218.528 39.3305Z" fill="white"/>
<path d="M193.819 7.11963H203.113V38.5122H193.819V26.3281H183.759V38.5122H174.419V7.11966H183.759V18.1903H193.819V7.11963Z" fill="white"/>
</g>
<defs>
<clipPath id="clip0_32_2">
<rect width="263" height="43" fill="white"/>
</clipPath>
</defs>
</svg>
