<svg width="191" height="35" viewBox="0 0 191 35" fill="none" xmlns="http://www.w3.org/2000/svg">
<g clip-path="url(#clip0_68_2)">
<path d="M11.0915 5.73169C16.6373 5.73169 20.7686 9.73582 20.7686 15.1994C20.7686 20.7004 16.6373 24.7046 11.0915 24.7046H7.18342V31.927H0V5.73169H11.0915ZM10.2354 18.4177C12.1336 18.4177 13.3619 17.108 13.3619 15.2368C13.3619 13.3657 12.1336 12.056 10.2354 12.056H7.18342V18.4177H10.2354Z" fill="#3CADEF"/>
<path d="M125.668 24.9527H128.41V31.244H123.466C118.869 31.244 116.05 28.409 116.05 23.7488V15.8651H112.226V14.1564L121.574 4.17554H123.08V10.2727H128.295V15.8651H123.235V22.5449C123.235 24.0206 124.161 24.9527 125.668 24.9527Z" fill="#3CADEF"/>
<path d="M112.929 20.5642C112.929 21.2245 112.89 21.8458 112.813 22.506H97.3239C97.7874 24.9139 99.2938 26.1566 101.573 26.1566C103.234 26.1566 104.663 25.4187 105.319 24.176H112.504C111.036 28.9528 106.787 31.9431 101.573 31.9431C95.045 31.9431 90.2554 27.1663 90.2554 20.7584C90.2554 14.3505 95.0063 9.61255 101.573 9.61255C108.294 9.61255 112.929 14.4282 112.929 20.5642ZM101.573 15.2826C99.487 15.2826 98.0192 16.4089 97.4397 18.506H105.86C105.242 16.4089 103.736 15.2826 101.573 15.2826Z" fill="#3CADEF"/>
<path d="M92.1364 31.2442H83.6387L78.4242 22.3896V31.2442H71.2397V4.5127H78.4242V18.506L83.407 10.2729H91.4799L84.952 20.2925L92.1364 31.2442Z" fill="#3CADEF"/>
<path d="M58.2328 31.9433C51.5504 31.9433 46.7222 27.2441 46.7222 20.7586C46.7222 14.273 51.5118 9.65161 58.2714 9.65161C64.1426 9.65161 68.5074 13.341 69.3185 18.9334H62.2885C61.7092 17.2245 60.1255 16.0984 58.2328 16.0984C55.7221 16.0984 53.9066 18.0401 53.9066 20.7586C53.9066 23.5159 55.7221 25.4966 58.2328 25.4966C60.1641 25.4966 61.7478 24.2927 62.3271 22.4285H69.3957C68.5846 28.0986 64.104 31.9433 58.2328 31.9433Z" fill="#3CADEF"/>
<path d="M39.5618 10.273H44.9308V31.2442H39.3686L38.7507 29.7685C37.0511 31.1666 34.888 31.9433 32.4546 31.9433C26.0813 31.9433 21.5234 27.2831 21.5234 20.7586C21.5234 14.273 26.0813 9.65161 32.4546 9.65161C34.9266 9.65161 37.1284 10.4672 38.8279 11.9041L39.5618 10.273ZM33.4202 25.5742C36.124 25.5742 38.094 23.5159 38.094 20.7586C38.094 18.0401 36.124 16.0206 33.4202 16.0206C30.7165 16.0206 28.7465 18.0401 28.7465 20.7586C28.7465 23.5159 30.7165 25.5742 33.4202 25.5742Z" fill="#3CADEF"/>
<path d="M134.539 0.323043L135.563 0L135.489 34.5659L134.465 34.8889L134.539 0.323043Z" fill="white"/>
<path d="M183.019 5.77881H190.953L181.244 31.2755H174.723L164.833 5.77881H172.803L177.984 21.6596L183.019 5.77881Z" fill="white"/>
<path d="M163.035 5.77881V12.1166H155.806V31.2755H148.778V12.1166H141.549V5.77881H163.035Z" fill="white"/>
</g>
<defs>
<clipPath id="clip0_68_2">
<rect width="191" height="35" fill="white"/>
</clipPath>
</defs>
</svg>
